<svg width="600" height="400" viewBox="0 0 600 400" fill="none" xmlns="http://www.w3.org/2000/svg">
<g clip-path="url(#clip0_98_290)">
<path d="M553.157 149.532C553.094 149.533 553.031 149.52 552.973 149.496C552.914 149.472 552.861 149.437 552.816 149.392C552.771 149.347 552.735 149.294 552.711 149.236C552.687 149.177 552.674 149.115 552.674 149.051V27.9237H465.783C465.656 27.9237 465.533 27.873 465.443 27.7828C465.353 27.6926 465.302 27.5702 465.302 27.4426C465.302 27.315 465.353 27.1927 465.443 27.1025C465.533 27.0122 465.656 26.9616 465.783 26.9616H553.157C553.285 26.9616 553.407 27.0122 553.498 27.1025C553.588 27.1927 553.639 27.315 553.639 27.4426V149.051C553.639 149.114 553.626 149.177 553.602 149.235C553.578 149.294 553.542 149.347 553.498 149.391C553.453 149.436 553.4 149.471 553.342 149.496C553.283 149.52 553.221 149.532 553.157 149.532Z" fill="#141414"/>
<path d="M394.172 210.186H551.846L548.784 204.828C548.784 204.828 582.725 206.383 582.826 180.6C582.894 163.087 544.822 117.712 520.395 90.4095C514.338 83.6429 506.759 78.4127 498.284 75.15C489.808 71.8873 480.679 70.6855 471.648 71.6437C422.546 76.837 388.854 80.6877 379.091 87.4663C366.054 96.5103 361.161 111.441 360.669 127.832C360.566 131.171 342.119 159.538 343.414 162.707C346.51 170.299 349.755 177.541 352.788 183.979C356.492 191.821 362.349 198.449 369.676 203.089C377.004 207.729 385.499 210.19 394.172 210.186Z" fill="white"/>
<path d="M551.846 210.667H394.172C376.351 210.667 359.936 200.269 352.353 184.178C348.907 176.865 345.749 169.702 342.97 162.884C342.202 161.003 346.409 153.346 352.915 141.881C356.47 135.614 360.146 129.133 360.187 127.81C360.758 108.952 367.027 95.2442 378.816 87.0661C388.47 80.3662 420.312 76.5899 471.602 71.1648C480.708 70.2098 489.911 71.4271 498.457 74.7169C507.002 78.0066 514.645 83.2751 520.76 90.0903C544.157 116.236 583.384 162.762 583.314 180.605C583.29 187.151 581.101 192.542 576.813 196.622C568.051 204.96 553.376 205.368 549.63 205.333L552.254 209.95C552.296 210.023 552.318 210.105 552.318 210.19C552.317 210.274 552.295 210.357 552.253 210.429C552.21 210.502 552.15 210.563 552.077 210.605C552.004 210.647 551.921 210.669 551.837 210.669L551.846 210.667ZM477.652 71.8142C475.666 71.8136 473.68 71.9187 471.705 72.1291C420.565 77.5389 388.83 81.2955 379.364 87.8621C367.841 95.8586 361.712 109.309 361.15 127.845C361.104 129.332 358.307 134.331 353.752 142.362C349.305 150.201 343.212 160.949 343.86 162.525C346.635 169.33 349.786 176.478 353.223 183.773C360.658 199.53 376.723 209.711 394.172 209.711H551.017L548.371 205.073C548.328 204.999 548.305 204.914 548.305 204.828C548.305 204.742 548.328 204.658 548.371 204.583C548.419 204.512 548.484 204.455 548.561 204.416C548.637 204.378 548.723 204.36 548.808 204.365C548.988 204.365 566.562 205.062 576.141 195.937C580.233 192.043 582.319 186.889 582.343 180.616C582.411 163.094 543.333 116.789 520.034 90.7441C514.694 84.7903 508.161 80.0273 500.859 76.7647C493.557 73.5022 485.65 71.8132 477.652 71.8076V71.8142Z" fill="#141414"/>
<path d="M524.182 159.285C524.11 159.285 524.038 159.269 523.972 159.237C523.907 159.206 523.849 159.16 523.804 159.103L493.775 121.37C493.733 121.321 493.701 121.264 493.682 121.203C493.663 121.141 493.656 121.076 493.663 121.012C493.669 120.948 493.688 120.886 493.719 120.829C493.749 120.773 493.791 120.723 493.842 120.683C493.892 120.643 493.95 120.613 494.012 120.596C494.074 120.578 494.139 120.574 494.203 120.582C494.267 120.59 494.328 120.611 494.384 120.644C494.44 120.676 494.488 120.72 494.527 120.771L524.558 158.504C524.638 158.604 524.674 158.731 524.66 158.858C524.646 158.984 524.581 159.1 524.482 159.18C524.396 159.247 524.291 159.284 524.182 159.285Z" fill="#141414"/>
<path d="M553.158 166.466C553.134 166.468 553.111 166.468 553.088 166.466L533.08 163.56C533.015 163.553 532.952 163.534 532.895 163.503C532.838 163.471 532.788 163.429 532.748 163.378C532.708 163.326 532.679 163.268 532.662 163.205C532.645 163.142 532.641 163.076 532.651 163.012C532.66 162.948 532.682 162.886 532.716 162.83C532.75 162.775 532.795 162.727 532.848 162.689C532.901 162.651 532.961 162.625 533.024 162.611C533.088 162.597 533.154 162.596 533.217 162.608L553.225 165.512C553.346 165.529 553.457 165.591 553.534 165.686C553.611 165.78 553.649 165.901 553.641 166.023C553.632 166.145 553.577 166.259 553.487 166.342C553.398 166.425 553.28 166.471 553.158 166.47V166.466Z" fill="#141414"/>
<path d="M439.86 140.939C439.86 141.986 440.067 143.023 440.468 143.991C440.869 144.959 441.456 145.838 442.197 146.578C442.938 147.319 443.817 147.906 444.785 148.307C445.753 148.708 446.79 148.914 447.837 148.913C448.161 148.912 448.485 148.89 448.806 148.848C449.59 152.005 450.843 155.027 452.523 157.813C451.664 158.483 450.951 159.321 450.428 160.277C449.905 161.233 449.584 162.286 449.484 163.371C449.384 164.455 449.507 165.549 449.846 166.585C450.185 167.62 450.732 168.575 451.454 169.39C452.177 170.206 453.058 170.865 454.045 171.327C455.032 171.788 456.103 172.043 457.192 172.075C458.281 172.107 459.365 171.915 460.377 171.512C461.389 171.109 462.307 170.502 463.076 169.73C463.304 169.5 463.518 169.256 463.717 169C466.502 170.681 469.524 171.934 472.682 172.717C472.642 173.039 472.621 173.362 472.619 173.686C472.619 175.803 473.46 177.833 474.956 179.33C476.453 180.826 478.483 181.667 480.6 181.667C482.717 181.667 484.747 180.826 486.244 179.33C487.74 177.833 488.581 175.803 488.581 173.686C488.579 173.362 488.558 173.039 488.518 172.717C491.676 171.934 494.698 170.681 497.483 169C498.176 169.894 499.051 170.63 500.05 171.159C501.05 171.687 502.151 171.997 503.28 172.066C504.408 172.135 505.539 171.962 506.595 171.56C507.652 171.157 508.611 170.533 509.407 169.73C510.902 168.235 511.742 166.206 511.742 164.091C511.742 161.976 510.902 159.947 509.407 158.452C509.176 158.225 508.932 158.012 508.677 157.813C510.357 155.027 511.61 152.005 512.394 148.848C512.715 148.89 513.039 148.912 513.363 148.913C515.479 148.913 517.509 148.073 519.006 146.576C520.503 145.079 521.344 143.049 521.344 140.932C521.344 138.815 520.503 136.785 519.006 135.289C517.509 133.792 515.479 132.951 513.363 132.951C513.039 132.953 512.715 132.975 512.394 133.016C511.609 129.859 510.356 126.837 508.677 124.051C508.932 123.853 509.176 123.64 509.407 123.413C510.153 122.673 510.745 121.793 511.151 120.824C511.556 119.855 511.765 118.815 511.767 117.764C511.769 116.714 511.564 115.673 511.163 114.702C510.762 113.731 510.173 112.849 509.43 112.107C508.687 111.364 507.805 110.775 506.833 110.375C505.862 109.974 504.822 109.769 503.771 109.771C502.721 109.774 501.681 109.984 500.712 110.389C499.743 110.795 498.863 111.388 498.124 112.134C497.896 112.365 497.682 112.609 497.483 112.864C494.697 111.184 491.675 109.931 488.518 109.147C488.558 108.826 488.579 108.504 488.581 108.18C488.581 106.064 487.74 104.034 486.244 102.537C484.747 101.04 482.717 100.199 480.6 100.199C478.483 100.199 476.453 101.04 474.956 102.537C473.46 104.034 472.619 106.064 472.619 108.18C472.621 108.504 472.642 108.826 472.682 109.147C469.525 109.931 466.503 111.184 463.717 112.864C463.518 112.609 463.304 112.365 463.076 112.134C462.309 111.356 461.389 110.745 460.376 110.337C459.362 109.93 458.275 109.735 457.183 109.764C456.091 109.794 455.017 110.048 454.027 110.51C453.037 110.972 452.152 111.632 451.428 112.45C450.703 113.268 450.155 114.226 449.816 115.265C449.477 116.303 449.355 117.401 449.458 118.488C449.561 119.576 449.886 120.631 450.413 121.588C450.94 122.545 451.659 123.383 452.523 124.051C450.844 126.837 449.591 129.859 448.806 133.016C448.485 132.975 448.161 132.953 447.837 132.951C446.789 132.951 445.751 133.158 444.782 133.559C443.814 133.961 442.934 134.549 442.193 135.291C441.452 136.033 440.865 136.914 440.464 137.883C440.064 138.852 439.859 139.89 439.86 140.939ZM465.783 140.939C465.782 138.008 466.65 135.142 468.277 132.705C469.905 130.267 472.218 128.367 474.926 127.245C477.633 126.123 480.613 125.828 483.487 126.399C486.362 126.971 489.003 128.381 491.075 130.454C493.148 132.526 494.56 135.166 495.132 138.04C495.704 140.915 495.41 143.895 494.289 146.602C493.167 149.31 491.268 151.624 488.831 153.252C486.394 154.881 483.529 155.749 480.598 155.749C476.669 155.749 472.902 154.189 470.124 151.411C467.346 148.634 465.784 144.867 465.783 140.939Z" fill="white"/>
<path d="M480.598 182.148C478.356 182.146 476.206 181.255 474.62 179.669C473.035 178.084 472.143 175.935 472.14 173.693C472.14 173.5 472.14 173.301 472.164 173.089C469.239 172.324 466.433 171.163 463.824 169.636C463.686 169.796 463.551 169.943 463.415 170.074C462.63 170.859 461.697 171.482 460.671 171.908C459.645 172.333 458.545 172.552 457.434 172.552C456.323 172.552 455.224 172.333 454.197 171.908C453.171 171.483 452.238 170.86 451.453 170.075C450.667 169.289 450.044 168.357 449.619 167.331C449.194 166.305 448.975 165.205 448.975 164.094C448.975 162.983 449.194 161.883 449.619 160.857C450.044 159.831 450.667 158.898 451.452 158.113C451.587 157.977 451.734 157.842 451.889 157.704C450.362 155.096 449.2 152.292 448.434 149.368C448.216 149.384 448.023 149.392 447.831 149.392C446.709 149.41 445.594 149.205 444.553 148.788C443.511 148.371 442.562 147.751 441.762 146.964C440.962 146.177 440.327 145.239 439.894 144.204C439.46 143.169 439.237 142.058 439.237 140.935C439.237 139.813 439.46 138.702 439.894 137.667C440.327 136.632 440.962 135.694 441.762 134.907C442.562 134.12 443.511 133.5 444.553 133.083C445.594 132.666 446.709 132.461 447.831 132.479C448.025 132.479 448.222 132.479 448.434 132.505C449.199 129.581 450.362 126.775 451.889 124.167C451.727 124.029 451.581 123.894 451.452 123.758C449.887 122.167 449.014 120.023 449.024 117.791C449.033 115.56 449.924 113.423 451.502 111.845C453.08 110.268 455.218 109.378 457.449 109.369C459.68 109.361 461.825 110.234 463.415 111.799C463.551 111.933 463.686 112.081 463.824 112.237C466.433 110.709 469.239 109.546 472.164 108.782C472.149 108.563 472.14 108.371 472.14 108.178C472.175 105.958 473.082 103.841 474.665 102.284C476.247 100.727 478.379 99.8541 480.599 99.8541C482.819 99.8541 484.95 100.727 486.533 102.284C488.115 103.841 489.022 105.958 489.058 108.178C489.058 108.371 489.058 108.57 489.034 108.782C491.959 109.547 494.765 110.709 497.374 112.237C497.512 112.075 497.647 111.926 497.783 111.799C499.369 110.213 501.521 109.322 503.765 109.322C506.009 109.322 508.161 110.214 509.747 111.8C511.333 113.387 512.225 115.539 512.224 117.783C512.224 120.027 511.333 122.178 509.746 123.765C509.61 123.9 509.464 124.036 509.309 124.174C510.836 126.782 511.998 129.587 512.763 132.511C512.982 132.494 513.172 132.485 513.367 132.485C514.489 132.467 515.603 132.672 516.645 133.089C517.687 133.506 518.636 134.126 519.435 134.913C520.235 135.7 520.87 136.639 521.304 137.674C521.738 138.709 521.961 139.82 521.961 140.942C521.961 142.064 521.738 143.175 521.304 144.21C520.87 145.245 520.235 146.183 519.435 146.971C518.636 147.758 517.687 148.378 516.645 148.795C515.603 149.212 514.489 149.417 513.367 149.399C513.175 149.399 512.976 149.399 512.763 149.375C511.999 152.298 510.836 155.103 509.309 157.71C509.47 157.848 509.617 157.984 509.746 158.119C510.531 158.905 511.154 159.837 511.579 160.864C512.004 161.89 512.223 162.99 512.223 164.101C512.223 165.211 512.004 166.311 511.579 167.337C511.153 168.364 510.53 169.296 509.745 170.081C508.959 170.867 508.027 171.49 507 171.915C505.974 172.34 504.874 172.558 503.764 172.558C502.653 172.558 501.553 172.339 500.527 171.914C499.5 171.489 498.568 170.866 497.783 170.08C497.647 169.943 497.512 169.796 497.374 169.643C494.764 171.169 491.958 172.331 489.034 173.096C489.049 173.314 489.058 173.507 489.058 173.699C489.053 175.941 488.16 178.089 486.574 179.672C484.988 181.256 482.839 182.147 480.598 182.148ZM463.715 168.528C463.802 168.527 463.888 168.551 463.962 168.598C466.708 170.253 469.687 171.486 472.8 172.256C472.915 172.284 473.015 172.354 473.081 172.451C473.148 172.548 473.177 172.666 473.163 172.783C473.124 173.085 473.104 173.388 473.102 173.693C473.136 175.659 473.94 177.533 475.342 178.912C476.745 180.29 478.632 181.063 480.599 181.063C482.565 181.063 484.453 180.29 485.855 178.912C487.258 177.533 488.062 175.659 488.096 173.693C488.094 173.388 488.074 173.085 488.035 172.783C488.02 172.666 488.049 172.548 488.116 172.45C488.183 172.353 488.283 172.284 488.398 172.256C491.51 171.486 494.49 170.253 497.236 168.598C497.337 168.537 497.456 168.515 497.571 168.536C497.687 168.557 497.791 168.619 497.864 168.711C498.049 168.953 498.25 169.182 498.465 169.398C499.161 170.094 499.987 170.646 500.896 171.023C501.805 171.4 502.78 171.594 503.764 171.594C504.748 171.594 505.723 171.401 506.632 171.024C507.541 170.648 508.368 170.096 509.064 169.4C509.76 168.704 510.312 167.878 510.689 166.969C511.066 166.06 511.26 165.085 511.26 164.101C511.26 163.117 511.066 162.143 510.69 161.233C510.313 160.324 509.762 159.498 509.066 158.801C508.849 158.588 508.62 158.387 508.379 158.2C508.287 158.128 508.224 158.024 508.202 157.908C508.181 157.793 508.203 157.673 508.263 157.573C509.919 154.827 511.153 151.848 511.924 148.736C511.951 148.622 512.021 148.521 512.118 148.455C512.215 148.388 512.334 148.36 512.451 148.376C512.752 148.415 513.056 148.435 513.36 148.437C514.355 148.454 515.344 148.272 516.268 147.903C517.192 147.534 518.034 146.985 518.743 146.287C519.453 145.59 520.017 144.758 520.401 143.84C520.786 142.922 520.984 141.937 520.984 140.942C520.984 139.947 520.786 138.962 520.401 138.044C520.017 137.126 519.453 136.294 518.743 135.597C518.034 134.899 517.192 134.35 516.268 133.981C515.344 133.612 514.355 133.43 513.36 133.447C513.056 133.449 512.752 133.47 512.451 133.511C512.334 133.524 512.216 133.494 512.119 133.428C512.023 133.361 511.953 133.262 511.924 133.148C511.153 130.036 509.919 127.057 508.263 124.311C508.203 124.211 508.181 124.091 508.202 123.976C508.224 123.86 508.287 123.756 508.379 123.684C508.62 123.497 508.849 123.296 509.066 123.082C509.777 122.39 510.343 121.563 510.732 120.649C511.12 119.736 511.324 118.754 511.33 117.761C511.336 116.769 511.145 115.785 510.768 114.866C510.391 113.948 509.835 113.114 509.133 112.412C508.431 111.71 507.596 111.155 506.678 110.779C505.759 110.402 504.775 110.212 503.782 110.218C502.79 110.225 501.808 110.429 500.895 110.819C499.982 111.208 499.155 111.775 498.463 112.486C498.25 112.703 498.05 112.932 497.864 113.173C497.791 113.265 497.687 113.328 497.572 113.349C497.456 113.37 497.337 113.349 497.236 113.288C494.489 111.633 491.51 110.399 488.398 109.628C488.283 109.6 488.183 109.531 488.117 109.434C488.05 109.338 488.02 109.22 488.035 109.103C488.173 108.045 488.084 106.97 487.774 105.95C487.464 104.929 486.939 103.986 486.235 103.184C485.532 102.382 484.665 101.74 483.693 101.3C482.721 100.86 481.667 100.632 480.6 100.632C479.533 100.632 478.479 100.86 477.507 101.3C476.535 101.74 475.668 102.382 474.965 103.184C474.261 103.986 473.736 104.929 473.426 105.95C473.116 106.97 473.027 108.045 473.165 109.103C473.179 109.22 473.15 109.337 473.083 109.434C473.016 109.531 472.916 109.6 472.802 109.628C469.69 110.399 466.711 111.633 463.964 113.288C463.863 113.349 463.744 113.37 463.628 113.349C463.513 113.328 463.409 113.265 463.336 113.173C463.151 112.932 462.951 112.702 462.737 112.486C462.045 111.775 461.218 111.208 460.305 110.819C459.392 110.429 458.41 110.225 457.417 110.218C456.425 110.212 455.441 110.402 454.522 110.779C453.604 111.155 452.769 111.71 452.067 112.412C451.365 113.114 450.809 113.948 450.432 114.866C450.055 115.785 449.864 116.769 449.87 117.761C449.876 118.754 450.08 119.736 450.468 120.649C450.857 121.563 451.423 122.39 452.134 123.082C452.35 123.297 452.58 123.498 452.821 123.684C452.914 123.756 452.977 123.86 452.998 123.975C453.02 124.091 452.998 124.211 452.937 124.311C451.281 127.057 450.047 130.036 449.276 133.148C449.247 133.262 449.177 133.361 449.081 133.428C448.984 133.494 448.866 133.524 448.749 133.511C448.448 133.47 448.144 133.449 447.84 133.447C446.845 133.43 445.856 133.612 444.932 133.981C444.008 134.35 443.166 134.899 442.457 135.597C441.747 136.294 441.183 137.126 440.799 138.044C440.414 138.962 440.216 139.947 440.216 140.942C440.216 141.937 440.414 142.922 440.799 143.84C441.183 144.758 441.747 145.59 442.457 146.287C443.166 146.985 444.008 147.534 444.932 147.903C445.856 148.272 446.845 148.454 447.84 148.437C448.144 148.435 448.447 148.415 448.749 148.376C448.866 148.36 448.984 148.389 449.082 148.455C449.179 148.522 449.248 148.622 449.276 148.736C450.047 151.848 451.281 154.827 452.937 157.573C452.997 157.673 453.019 157.793 452.998 157.908C452.976 158.024 452.913 158.128 452.821 158.2C452.58 158.387 452.351 158.588 452.134 158.801C450.759 160.214 449.996 162.111 450.01 164.082C450.024 166.052 450.813 167.938 452.207 169.332C453.601 170.725 455.488 171.513 457.458 171.525C459.429 171.538 461.326 170.774 462.737 169.398C462.951 169.182 463.151 168.952 463.336 168.711C463.381 168.654 463.439 168.607 463.504 168.574C463.57 168.542 463.641 168.524 463.715 168.523V168.528ZM480.598 156.234C477.573 156.232 474.618 155.333 472.105 153.65C469.591 151.968 467.633 149.579 466.478 146.784C465.322 143.989 465.021 140.914 465.613 137.948C466.205 134.983 467.663 132.259 469.802 130.121C471.942 127.984 474.667 126.529 477.633 125.94C480.6 125.351 483.674 125.655 486.468 126.813C489.262 127.972 491.649 129.932 493.329 132.447C495.009 134.962 495.905 137.919 495.904 140.943C495.899 144.999 494.284 148.887 491.414 151.754C488.544 154.62 484.654 156.23 480.598 156.23V156.234ZM480.598 126.614C477.764 126.617 474.995 127.46 472.641 129.037C470.286 130.613 468.452 132.852 467.37 135.471C466.288 138.09 466.006 140.971 466.561 143.75C467.116 146.528 468.483 149.08 470.488 151.082C472.493 153.085 475.046 154.447 477.826 154.999C480.605 155.55 483.486 155.264 486.103 154.179C488.72 153.093 490.957 151.256 492.53 148.899C494.104 146.543 494.943 143.772 494.942 140.939C494.938 137.137 493.425 133.492 490.736 130.805C488.046 128.118 484.4 126.608 480.598 126.607V126.614Z" fill="#141414"/>
<path d="M535.468 202.814C535.468 202.814 544.735 181.879 531.663 163.166L509.287 159.696C509.287 159.696 493.339 166.73 475.663 169.258C466.826 170.522 461.012 169.02 460.881 172.521C460.795 174.832 463.697 175.801 466.894 177.069C466.894 177.069 460.782 177.493 460.795 181.844C460.809 186.196 465.088 185.903 465.088 185.903C465.088 185.903 466.468 190.536 476.375 192.078C476.375 192.078 479.874 195.994 489.797 195.662C499.72 195.33 509.287 193.567 509.287 193.567L535.468 202.814Z" fill="white"/>
<path d="M535.467 203.296C535.413 203.295 535.359 203.286 535.308 203.269L509.245 194.063C508.073 194.282 499.049 195.835 489.812 196.143C480.679 196.46 476.867 193.237 476.144 192.531C467.633 191.164 465.298 187.532 464.773 186.386C464.117 186.364 462.687 186.198 461.613 185.199C460.763 184.407 460.327 183.279 460.323 181.844C460.323 178.897 462.892 177.454 465.11 176.883C462.527 175.844 460.327 174.723 460.408 172.51C460.511 169.735 463.45 169.606 467.902 169.413C470.478 169.336 473.049 169.128 475.603 168.788C493.007 166.3 508.941 159.333 509.101 159.263C509.185 159.224 509.278 159.212 509.37 159.226L531.737 162.687C531.801 162.697 531.863 162.72 531.918 162.754C531.973 162.788 532.021 162.833 532.058 162.886C545.135 181.604 535.994 202.793 535.907 203.005C535.87 203.091 535.809 203.164 535.731 203.216C535.653 203.268 535.561 203.295 535.467 203.296ZM509.287 193.082C509.341 193.081 509.395 193.091 509.446 193.11L535.194 202.204C536.373 199.2 542.987 180.403 531.385 163.608L509.35 160.188C507.78 160.863 492.432 167.343 475.732 169.73C473.146 170.075 470.543 170.287 467.935 170.365C463.424 170.561 461.427 170.723 461.362 172.534C461.296 174.344 463.701 175.302 466.489 176.391L467.069 176.61C467.171 176.649 467.258 176.722 467.313 176.817C467.368 176.912 467.389 177.023 467.372 177.132C467.356 177.24 467.302 177.34 467.221 177.414C467.14 177.488 467.036 177.532 466.927 177.539C466.87 177.539 461.266 177.976 461.276 181.831C461.276 182.988 461.611 183.88 462.26 184.484C463.367 185.514 465.038 185.413 465.055 185.411C465.163 185.406 465.27 185.437 465.359 185.499C465.448 185.56 465.515 185.649 465.549 185.752C465.562 185.794 467.027 190.125 476.45 191.593C476.56 191.61 476.661 191.664 476.736 191.748C476.769 191.785 480.246 195.489 489.779 195.17C499.558 194.842 509.103 193.101 509.199 193.084C509.228 193.08 509.258 193.079 509.287 193.082Z" fill="#141414"/>
<path d="M480.771 179.063C476.428 179.063 472.103 178.528 467.891 177.471C467.767 177.44 467.661 177.361 467.595 177.252C467.53 177.142 467.51 177.011 467.541 176.887C467.572 176.763 467.651 176.657 467.761 176.591C467.87 176.526 468.001 176.506 468.125 176.537C474.205 178.061 480.511 178.475 486.738 177.758C486.801 177.749 486.865 177.754 486.927 177.771C486.988 177.787 487.046 177.816 487.096 177.856C487.146 177.895 487.188 177.943 487.219 177.999C487.25 178.055 487.27 178.116 487.277 178.179C487.285 178.242 487.28 178.306 487.262 178.367C487.244 178.429 487.215 178.486 487.175 178.535C487.135 178.585 487.086 178.626 487.03 178.657C486.974 178.687 486.913 178.707 486.849 178.713C484.831 178.945 482.802 179.062 480.771 179.063Z" fill="#141414"/>
<path d="M482.601 187.897C477.22 187.897 471.853 187.343 466.586 186.242C466.461 186.216 466.351 186.141 466.281 186.034C466.211 185.927 466.187 185.797 466.213 185.672C466.239 185.547 466.314 185.438 466.421 185.368C466.527 185.298 466.658 185.273 466.783 185.299C473.693 186.744 480.768 187.235 487.812 186.758C487.934 186.758 488.052 186.804 488.142 186.888C488.232 186.971 488.286 187.086 488.294 187.208C488.303 187.331 488.264 187.451 488.187 187.546C488.109 187.641 487.999 187.704 487.877 187.72C486.119 187.838 484.36 187.897 482.601 187.897Z" fill="#141414"/>
<path d="M486.104 193.405C483.226 193.407 480.361 193.015 477.589 192.24C477.528 192.223 477.471 192.194 477.421 192.155C477.372 192.116 477.33 192.067 477.299 192.012C477.268 191.957 477.248 191.896 477.241 191.833C477.233 191.771 477.238 191.707 477.255 191.646C477.273 191.585 477.301 191.528 477.341 191.479C477.38 191.429 477.428 191.387 477.483 191.356C477.538 191.325 477.599 191.306 477.662 191.298C477.725 191.291 477.788 191.296 477.849 191.313C482.377 192.577 487.136 192.784 491.756 191.916C491.882 191.892 492.012 191.919 492.117 191.991C492.223 192.063 492.296 192.174 492.319 192.3C492.343 192.425 492.316 192.555 492.244 192.661C492.172 192.767 492.061 192.839 491.936 192.863C490.013 193.225 488.06 193.407 486.104 193.405Z" fill="#141414"/>
<path d="M547.746 205.476C543.974 205.472 540.221 204.946 536.594 203.914C536.533 203.897 536.476 203.868 536.426 203.828C536.377 203.789 536.335 203.74 536.305 203.685C536.274 203.63 536.254 203.569 536.247 203.506C536.24 203.443 536.245 203.379 536.262 203.318C536.28 203.258 536.309 203.201 536.348 203.151C536.388 203.102 536.436 203.06 536.492 203.029C536.547 202.999 536.608 202.979 536.671 202.972C536.734 202.965 536.797 202.97 536.858 202.987C540.399 203.997 544.062 204.512 547.743 204.518C547.871 204.518 547.993 204.569 548.084 204.659C548.174 204.749 548.224 204.871 548.224 204.999C548.224 205.127 548.174 205.249 548.084 205.339C547.993 205.429 547.871 205.48 547.743 205.48L547.746 205.476Z" fill="#141414"/>
<path d="M389.906 151.338C389.843 151.339 389.781 151.326 389.723 151.302C389.665 151.278 389.612 151.243 389.567 151.198L375.057 136.885C375.01 136.841 374.972 136.788 374.946 136.729C374.92 136.67 374.905 136.607 374.904 136.543C374.903 136.479 374.914 136.415 374.938 136.355C374.962 136.295 374.998 136.241 375.043 136.195C375.088 136.149 375.142 136.113 375.201 136.089C375.261 136.064 375.324 136.052 375.389 136.052C375.453 136.052 375.516 136.066 375.576 136.091C375.635 136.117 375.688 136.154 375.732 136.2L390.245 150.514C390.314 150.581 390.36 150.667 390.379 150.761C390.399 150.854 390.39 150.952 390.353 151.04C390.317 151.129 390.255 151.204 390.175 151.258C390.096 151.311 390.002 151.339 389.906 151.338Z" fill="#141414"/>
<path d="M287.37 117.559C287.37 117.559 284.746 114.773 285.574 112.217C286.403 109.661 288.885 109.293 292.874 111.172C292.874 111.172 290.612 107.643 294.686 106.729C298.76 105.815 304.205 111.32 312.973 113.142C321.742 114.963 324.827 115.547 324.827 115.547C324.827 115.547 322.995 111.917 317.9 108.769C312.805 105.62 313.494 101.253 315.892 99.6306C317.939 98.2465 321.639 99.7728 324.827 102.239C329.012 105.48 339.465 108.143 347.92 111.963C354.353 114.865 365.376 125.702 375.393 136.55C371.331 144.475 362.492 155.393 343.538 162.079C341.218 157.772 339.285 153.875 337.814 150.678C337.814 150.678 333.797 147.151 323.819 145.762C313.841 144.374 300.682 143.357 293.064 137.215C285.445 131.073 284.682 126.325 287.033 123.465C287.024 123.459 284.284 120.459 287.37 117.559Z" fill="white"/>
<path d="M343.538 162.554C343.451 162.554 343.366 162.53 343.291 162.485C343.217 162.441 343.155 162.377 343.114 162.3C340.997 158.364 339.029 154.454 337.429 150.973C336.845 150.51 332.734 147.475 323.751 146.233C322.57 146.069 321.346 145.909 320.091 145.747C310.47 144.499 299.582 143.084 292.758 137.584C288.196 133.906 285.723 130.473 285.406 127.381C285.245 125.994 285.608 124.596 286.423 123.461C285.8 122.586 284.391 120.043 286.72 117.535C286.014 116.66 284.391 114.329 285.124 112.068C285.48 110.975 286.123 110.21 287.033 109.816C288.236 109.296 289.876 109.44 291.946 110.253C291.709 109.557 291.716 108.8 291.968 108.108C292.347 107.192 293.228 106.578 294.592 106.267C296.866 105.753 299.403 107.028 302.595 108.637C305.554 110.127 308.906 111.812 313.091 112.678C318.96 113.894 322.299 114.561 323.852 114.865C322.977 113.616 321.064 111.279 317.666 109.18C314.193 107.03 313.629 104.559 313.603 103.276C313.577 102.484 313.751 101.699 314.107 100.992C314.464 100.285 314.992 99.6785 315.643 99.2283C318.048 97.6058 322.124 99.5213 325.142 101.852C327.609 103.763 332.474 105.53 337.623 107.402C341.137 108.679 344.772 109.998 348.139 111.517C353.606 113.988 362.912 122.297 375.767 136.226C375.834 136.299 375.877 136.39 375.891 136.488C375.904 136.586 375.887 136.685 375.842 136.773C371.72 144.811 362.803 155.797 343.718 162.538C343.659 162.554 343.598 162.559 343.538 162.554ZM288.653 110.468C288.225 110.46 287.799 110.538 287.403 110.699C286.747 110.984 286.298 111.528 286.027 112.366C285.297 114.616 287.689 117.203 287.713 117.229C287.756 117.275 287.79 117.329 287.813 117.388C287.835 117.447 287.846 117.51 287.844 117.573C287.842 117.636 287.828 117.698 287.802 117.756C287.776 117.814 287.739 117.866 287.693 117.909C284.999 120.441 287.276 123.028 287.374 123.135C287.452 123.221 287.496 123.331 287.499 123.447C287.502 123.563 287.463 123.675 287.389 123.765C286.985 124.249 286.684 124.811 286.505 125.416C286.326 126.021 286.274 126.657 286.351 127.283C286.637 130.071 289.056 133.373 293.348 136.834C299.96 142.163 310.712 143.561 320.2 144.792C321.457 144.956 322.684 145.113 323.867 145.279C333.882 146.672 337.954 150.162 338.122 150.309C338.173 150.353 338.214 150.407 338.242 150.468C339.801 153.849 341.704 157.649 343.757 161.478C362.042 154.918 370.723 144.422 374.807 136.618C362.344 123.137 352.972 114.762 347.719 112.394C344.385 110.89 340.768 109.576 337.271 108.305C332.047 106.407 327.114 104.614 324.528 102.62C321.07 99.9433 317.786 98.9265 316.159 100.029C315.641 100.388 315.221 100.873 314.939 101.437C314.656 102.001 314.52 102.628 314.543 103.258C314.58 105.132 315.855 106.943 318.149 108.36C323.299 111.546 325.175 115.182 325.251 115.333C325.292 115.413 325.31 115.503 325.302 115.593C325.294 115.682 325.261 115.768 325.207 115.84C325.154 115.912 325.08 115.967 324.997 116C324.913 116.032 324.821 116.041 324.733 116.024C324.702 116.024 321.545 115.416 312.873 113.619C308.571 112.729 305.001 110.936 302.147 109.497C299.119 107.966 296.726 106.77 294.789 107.203C293.753 107.437 293.101 107.859 292.849 108.469C292.412 109.534 293.265 110.907 293.274 110.92C293.329 111.008 293.355 111.112 293.347 111.215C293.339 111.319 293.297 111.417 293.228 111.495C293.16 111.574 293.067 111.627 292.966 111.649C292.864 111.67 292.758 111.658 292.664 111.613C291.056 110.848 289.716 110.468 288.66 110.468H288.653Z" fill="#141414"/>
<path d="M314.449 132.293C308.661 132.291 302.979 130.741 297.992 127.803C297.387 127.445 296.788 127.062 296.206 126.69C295.209 126.056 294.179 125.398 293.116 124.862C291.205 123.898 289.44 123.487 287.868 123.64C287.741 123.653 287.614 123.614 287.516 123.533C287.417 123.452 287.355 123.335 287.342 123.208C287.33 123.081 287.368 122.954 287.449 122.856C287.53 122.757 287.647 122.695 287.774 122.682C289.524 122.51 291.474 122.956 293.547 123.994C294.653 124.552 295.705 125.223 296.722 125.87C297.297 126.238 297.89 126.616 298.471 126.964C304.121 130.293 310.67 131.772 317.202 131.195C317.266 131.189 317.329 131.195 317.39 131.214C317.451 131.232 317.507 131.263 317.556 131.304C317.605 131.344 317.645 131.394 317.675 131.451C317.704 131.507 317.722 131.569 317.727 131.632C317.738 131.76 317.698 131.886 317.616 131.985C317.534 132.083 317.417 132.145 317.29 132.157C316.354 132.258 315.4 132.293 314.449 132.293Z" fill="#141414"/>
<path d="M318.042 126.297H318C312.201 125.805 306.543 124.239 301.316 121.679C300.636 121.348 299.963 120.999 299.291 120.651C297.848 119.865 296.359 119.165 294.833 118.554C292.29 117.596 289.996 117.349 288.013 117.819C287.891 117.842 287.765 117.817 287.662 117.749C287.558 117.681 287.485 117.576 287.456 117.456C287.428 117.335 287.448 117.208 287.511 117.102C287.573 116.995 287.675 116.917 287.794 116.883C289.967 116.365 292.451 116.625 295.176 117.653C296.739 118.276 298.262 118.991 299.74 119.796C300.396 120.141 301.069 120.485 301.743 120.815C306.864 123.322 312.406 124.855 318.088 125.337C318.211 125.349 318.324 125.407 318.405 125.5C318.486 125.593 318.528 125.713 318.523 125.837C318.517 125.96 318.465 126.076 318.376 126.162C318.288 126.247 318.17 126.296 318.046 126.297H318.042Z" fill="#141414"/>
<path d="M319.041 122.155H318.965C309.887 120.661 301.215 117.311 293.49 112.315C293.383 112.246 293.308 112.137 293.282 112.012C293.255 111.887 293.28 111.757 293.349 111.65C293.419 111.543 293.528 111.468 293.653 111.441C293.778 111.415 293.908 111.439 294.015 111.509C301.628 116.429 310.173 119.729 319.118 121.2C319.24 121.216 319.351 121.279 319.429 121.374C319.506 121.47 319.544 121.592 319.534 121.715C319.524 121.838 319.468 121.952 319.376 122.035C319.284 122.117 319.164 122.161 319.041 122.158V122.155Z" fill="#141414"/>
<path d="M391.99 210.606C391.864 210.606 391.744 210.556 391.654 210.469C391.564 210.381 391.512 210.261 391.509 210.135L389.425 117.117C389.424 117.054 389.435 116.991 389.458 116.932C389.481 116.873 389.515 116.82 389.558 116.774C389.602 116.728 389.654 116.692 389.712 116.666C389.77 116.641 389.832 116.627 389.895 116.625C389.959 116.624 390.021 116.635 390.08 116.658C390.139 116.681 390.193 116.715 390.239 116.758C390.284 116.802 390.321 116.854 390.347 116.912C390.372 116.97 390.386 117.032 390.387 117.095L392.471 210.114C392.473 210.177 392.462 210.24 392.439 210.298C392.416 210.357 392.382 210.411 392.338 210.457C392.294 210.503 392.242 210.539 392.184 210.565C392.127 210.59 392.064 210.604 392.001 210.606H391.99Z" fill="#141414"/>
<path d="M416.004 77.7379C416.004 77.7379 420.012 86.3533 431.89 87.4072C443.768 88.4612 452.268 73.7166 452.268 73.7166L444.787 72.5052L431.551 48.3252L412.177 59.7198L422.592 76.9944L416.004 77.7379Z" fill="white"/>
<path d="M433.13 87.943C432.708 87.943 432.281 87.9255 431.851 87.8861C419.824 86.819 415.61 78.0287 415.569 77.9412C415.537 77.8719 415.522 77.796 415.525 77.7198C415.528 77.6435 415.549 77.5691 415.586 77.5025C415.624 77.436 415.676 77.3792 415.74 77.3369C415.803 77.2945 415.876 77.2679 415.952 77.259L421.792 76.603L411.764 59.9844C411.732 59.9303 411.711 59.8704 411.702 59.8081C411.693 59.7459 411.697 59.6825 411.712 59.6215C411.728 59.5606 411.755 59.5034 411.793 59.4531C411.831 59.4028 411.878 59.3604 411.932 59.3284L431.311 47.9097C431.366 47.8769 431.428 47.8556 431.492 47.847C431.556 47.8385 431.621 47.8429 431.683 47.8601C431.745 47.8772 431.803 47.9067 431.854 47.9468C431.905 47.9869 431.947 48.0367 431.978 48.0934L445.097 72.0679L452.348 73.2399C452.425 73.2528 452.498 73.2841 452.56 73.3312C452.622 73.3782 452.672 73.4395 452.705 73.51C452.738 73.5804 452.754 73.6579 452.751 73.7357C452.748 73.8136 452.726 73.8896 452.687 73.9571C452.346 74.5475 444.49 87.943 433.13 87.943ZM416.776 78.1358C417.946 80.0732 422.313 86.0734 431.934 86.9262C442.016 87.8183 449.735 76.802 451.482 74.0774L444.704 72.9841C444.631 72.9729 444.563 72.9451 444.503 72.903C444.443 72.861 444.393 72.8056 444.358 72.7413L431.359 48.9965L412.831 59.8926L423.001 76.7517C423.043 76.8208 423.066 76.8992 423.07 76.9797C423.073 77.0603 423.056 77.1404 423.02 77.2126C422.985 77.2849 422.931 77.3471 422.865 77.3934C422.799 77.4397 422.723 77.4687 422.643 77.4776L416.776 78.1358Z" fill="#141414"/>
<path d="M416.004 78.2189C415.879 78.2215 415.759 78.1757 415.667 78.091C415.576 78.0064 415.521 77.8897 415.514 77.7653C415.507 77.6409 415.548 77.5187 415.629 77.4242C415.711 77.3298 415.825 77.2706 415.949 77.259L421.79 76.603L411.762 59.9844C411.73 59.9303 411.709 59.8704 411.7 59.8081C411.691 59.7459 411.695 59.6825 411.71 59.6215C411.726 59.5606 411.753 59.5034 411.791 59.4531C411.829 59.4028 411.876 59.3604 411.93 59.3284L431.311 47.9097C431.366 47.8769 431.428 47.8556 431.492 47.847C431.556 47.8385 431.621 47.8429 431.683 47.8601C431.745 47.8772 431.803 47.9067 431.854 47.9468C431.905 47.9869 431.947 48.0367 431.978 48.0934L445.097 72.0679L452.348 73.2399C452.475 73.2605 452.587 73.3303 452.662 73.4341C452.737 73.5378 452.767 73.667 452.746 73.7931C452.726 73.9193 452.656 74.0321 452.552 74.1067C452.448 74.1813 452.319 74.2117 452.193 74.1911L444.713 72.9797C444.64 72.9685 444.571 72.9408 444.512 72.8987C444.452 72.8566 444.402 72.8012 444.367 72.737L431.367 48.9921L412.84 59.8882L423.001 76.7517C423.043 76.8208 423.066 76.8992 423.07 76.9797C423.073 77.0603 423.056 77.1404 423.02 77.2126C422.985 77.2849 422.931 77.3471 422.865 77.3934C422.799 77.4397 422.723 77.4686 422.643 77.4776L416.059 78.2255L416.004 78.2189Z" fill="#141414"/>
<path d="M419.61 0.804799C410.979 -1.22879 401.679 0.71952 394.026 5.20653C391.35 6.77874 388.811 8.6855 386.965 11.1805C385.12 13.6754 384.015 16.822 384.407 19.9009C384.755 22.6385 386.261 25.1488 388.273 27.0359C390.285 28.923 392.777 30.2394 395.36 31.2146C393.829 32.5944 394.664 35.1856 396.029 36.7293C397.078 37.9175 398.363 38.8738 399.803 39.5369C401.242 40.2 402.804 40.5553 404.389 40.5802C405.974 40.6051 407.546 40.299 409.006 39.6815C410.466 39.064 411.78 38.1486 412.866 36.9939C414.473 40.5407 416.697 43.8709 419.726 46.3244C422.754 48.7778 426.633 50.2932 430.521 50.0417C434.748 49.7552 438.68 47.374 441.341 44.0765C444.002 40.779 445.476 36.6419 446.079 32.4457C446.517 29.4653 446.503 26.3405 445.388 23.5438C444.529 21.39 442.928 19.457 440.827 18.4249C439.786 17.9132 439.277 17.9022 438.653 16.9576C438.03 16.013 437.709 14.7163 437.136 13.6973C434.798 9.54267 431.232 6.13586 427.11 3.77646C424.765 2.43194 422.239 1.43117 419.61 0.804799Z" fill="#141414"/>
<path d="M400.916 50.3741C401.214 54.1898 402.184 58.1498 404.797 60.9465C408.567 64.9853 415.051 65.5844 420.167 63.5005C425.284 61.4167 429.203 57.1352 432.257 52.5323C433.486 53.0245 434.809 53.2356 436.129 53.15C437.45 53.0645 438.734 52.6844 439.889 52.0378C441.043 51.3911 442.039 50.4942 442.801 49.4129C443.564 48.3315 444.075 47.0932 444.297 45.7886C444.597 44.0393 444.315 42.1107 443.204 40.7244C441.754 38.9247 438.946 38.4021 436.946 39.5567C434.945 40.7112 433.589 43.274 431.304 43.169C429.773 43.1012 428.564 41.7083 428.262 40.2149C427.961 38.7214 428.391 37.1776 428.984 35.7738C429.577 34.3699 430.335 33.0295 430.733 31.5623C426.653 31.6607 422.549 31.7591 418.514 31.1249C415.435 30.6483 412.392 29.7277 409.682 28.1445C408.48 27.4404 407.649 26.3602 406.451 27.3573C405.464 28.1795 404.771 30.3684 404.249 31.5251C401.575 37.4292 400.429 43.911 400.916 50.3741Z" fill="white"/>
<path d="M414.176 65.1624C410.386 65.1624 406.803 63.811 404.439 61.2789C402.117 58.7927 400.807 55.2394 400.428 50.4156C399.935 43.8735 401.096 37.3124 403.805 31.337C403.921 31.0812 404.045 30.7751 404.179 30.4427C404.671 29.2269 405.272 27.7116 406.147 26.9987C407.371 25.9797 408.362 26.6707 409.234 27.2808C409.453 27.4382 409.691 27.6001 409.932 27.74C412.355 29.1635 415.269 30.1453 418.593 30.6614C422.599 31.2824 426.732 31.1818 430.727 31.0856C430.802 31.0859 430.876 31.1027 430.943 31.1348C431.011 31.167 431.071 31.2136 431.118 31.2715C431.165 31.3306 431.196 31.3999 431.211 31.4736C431.225 31.5473 431.222 31.6234 431.201 31.6957C430.891 32.7079 430.497 33.6925 430.023 34.6389C429.817 35.0762 429.612 35.5136 429.424 35.9662C428.715 37.6412 428.496 38.9641 428.73 40.1208C428.973 41.3191 429.964 42.6267 431.322 42.688C432.577 42.7426 433.574 41.8133 434.628 40.8118C435.252 40.1765 435.948 39.6152 436.701 39.139C438.887 37.8708 441.982 38.4459 443.576 40.4226C444.691 41.8046 445.128 43.79 444.774 45.8674C444.546 47.2104 444.027 48.4874 443.254 49.6089C442.481 50.7304 441.472 51.6694 440.297 52.3601C439.123 53.0508 437.812 53.4766 436.456 53.6075C435.101 53.7385 433.732 53.5715 432.448 53.1183C428.754 58.5849 424.794 62.1383 420.351 63.9466C418.39 64.7467 416.294 65.1596 414.176 65.1624ZM407.417 27.4426C407.17 27.4578 406.937 27.5619 406.761 27.7356C406.09 28.2932 405.506 29.7408 405.077 30.7969C404.937 31.1424 404.808 31.4529 404.688 31.7263C402.047 37.5546 400.914 43.9538 401.395 50.3347C401.756 54.9267 402.983 58.2963 405.15 60.612C408.526 64.2287 414.626 65.2302 419.986 63.0479C424.331 61.2789 428.212 57.7518 431.855 52.259C431.916 52.1671 432.007 52.0991 432.113 52.0665C432.219 52.0338 432.332 52.0385 432.435 52.0796C433.596 52.5443 434.847 52.7432 436.095 52.6618C437.343 52.5803 438.558 52.2206 439.649 51.6091C440.74 50.9975 441.681 50.1495 442.402 49.1273C443.123 48.105 443.606 46.9344 443.816 45.7012C444.124 43.895 443.759 42.1894 442.817 41.0196C441.505 39.3971 438.977 38.9269 437.173 39.9678C436.486 40.4051 435.851 40.9186 435.279 41.4984C434.125 42.5918 432.942 43.7157 431.269 43.6348C429.424 43.5517 428.092 41.8527 427.77 40.2958C427.497 38.9357 427.735 37.4334 428.52 35.5726C428.715 35.1134 428.925 34.6629 429.135 34.2125C429.481 33.5064 429.79 32.7831 430.062 32.0455C426.233 32.1352 422.293 32.192 418.431 31.5929C414.987 31.0572 411.959 30.0338 409.429 28.5513C409.155 28.3916 408.906 28.2189 408.668 28.0505C408.132 27.6788 407.76 27.4426 407.417 27.4426Z" fill="#141414"/>
<path d="M435.52 48.6444C435.412 48.6452 435.307 48.6089 435.222 48.5416C435.173 48.5024 435.131 48.4537 435.1 48.3984C435.069 48.343 435.049 48.2821 435.042 48.2191C435.035 48.1561 435.04 48.0923 435.057 48.0313C435.075 47.9703 435.104 47.9134 435.144 47.8638C436.492 46.1772 438.402 45.0317 440.525 44.6363C440.647 44.6219 440.77 44.6546 440.869 44.7276C440.968 44.8007 441.035 44.9087 441.057 45.0297C441.079 45.1506 441.054 45.2754 440.988 45.3786C440.921 45.4818 440.817 45.5557 440.698 45.5853C438.805 45.9368 437.103 46.9584 435.903 48.4629C435.857 48.5205 435.799 48.5668 435.732 48.5983C435.666 48.6297 435.593 48.6455 435.52 48.6444Z" fill="#141414"/>
<path d="M298.218 353.433H30.2126C30.1494 353.434 30.0867 353.421 30.0282 353.397C29.9697 353.373 29.9165 353.338 29.8718 353.293C29.8271 353.248 29.7917 353.195 29.7676 353.137C29.7435 353.078 29.7313 353.016 29.7316 352.952V68.3812C29.7313 68.3179 29.7435 68.2552 29.7676 68.1967C29.7917 68.1382 29.8271 68.0851 29.8718 68.0404C29.9165 67.9956 29.9697 67.9602 30.0282 67.9361C30.0867 67.9121 30.1494 67.8998 30.2126 67.9001H99.5055C99.6331 67.9001 99.7555 67.9508 99.8457 68.041C99.9359 68.1312 99.9866 68.2536 99.9866 68.3812C99.9866 68.5087 99.9359 68.6311 99.8457 68.7213C99.7555 68.8115 99.6331 68.8622 99.5055 68.8622H30.6937V352.471H298.218C298.345 352.471 298.468 352.522 298.558 352.612C298.648 352.702 298.699 352.825 298.699 352.952C298.699 353.08 298.648 353.202 298.558 353.292C298.468 353.383 298.345 353.433 298.218 353.433Z" fill="#141414"/>
<path d="M197.339 125.411C197.177 120.835 195.93 116.278 193.383 112.444C190.835 108.611 187.004 105.989 183.945 102.629C182.294 100.816 180.928 98.756 180.276 96.3703C179.555 93.731 179.699 90.9584 180.057 88.2797C180.762 83.0711 183.556 71.1691 178.372 62.4116C173.83 54.7233 164.674 50.6037 155.967 51.1066C151.032 51.3974 146.241 53.009 141.973 55.4799C137.649 57.977 134.05 61.3248 130.748 65.0378C127.447 68.7507 124.188 72.7895 119.71 75.1838C115.617 77.3705 110.907 77.9543 106.35 78.3938C101.843 78.8312 97.2095 79.0979 92.9237 80.6745C89.1826 82.0221 85.985 84.5562 83.8184 87.8905C79.5129 94.4876 78.881 102.703 76.2089 109.976C74.8553 113.651 72.907 117.172 69.8217 119.673C66.124 122.671 61.3768 123.743 56.7608 124.349C52.0442 124.967 47.2467 125.136 42.6088 126.271C38.4796 127.296 34.6189 129.197 31.2885 131.844C24.617 137.103 20.0009 145.041 18.9863 153.503C17.8799 162.7 21.4485 171.764 27.3197 178.744C33.8796 186.548 42.9914 191.54 52.663 194.435C62.4789 197.37 72.8852 198.472 83.1034 198.542C92.8218 198.601 102.518 197.616 112.026 195.603C121.541 193.593 130.821 190.596 139.714 186.659C148.603 182.732 157.049 177.871 164.91 172.158C172.839 166.385 180.353 159.729 186.609 152.156C192.865 144.584 197.686 135.455 197.339 125.411Z" fill="#141414"/>
<path d="M90.1641 246.854C90.1641 246.854 69.3909 295.535 69.6686 352.952H239.585L175.638 237.471L90.1641 246.854Z" fill="white"/>
<path d="M239.585 353.433H69.6686C69.5414 353.433 69.4194 353.383 69.3292 353.293C69.2391 353.204 69.1881 353.082 69.1875 352.954C68.9077 296.101 89.5125 247.151 89.7202 246.663C89.7545 246.585 89.8087 246.517 89.8774 246.467C89.9461 246.416 90.0268 246.384 90.1116 246.375L175.586 237.001C175.68 236.991 175.775 237.008 175.86 237.052C175.944 237.095 176.014 237.163 176.06 237.246L240.007 352.718C240.048 352.792 240.069 352.874 240.069 352.958C240.069 353.042 240.048 353.124 240.007 353.197C239.963 353.27 239.902 353.33 239.827 353.372C239.753 353.413 239.67 353.435 239.585 353.433ZM70.1475 352.471H238.767L175.374 237.991L90.4987 247.311C88.8806 251.207 69.9922 298.157 70.1475 352.471Z" fill="#141414"/>
<path d="M149.492 351.118C149.473 351.12 149.453 351.12 149.433 351.118C149.371 351.11 149.31 351.09 149.255 351.059C149.2 351.028 149.151 350.987 149.112 350.937C149.073 350.887 149.045 350.83 149.028 350.769C149.011 350.708 149.006 350.645 149.014 350.582L151.589 329.616C151.976 326.48 153.193 323.503 155.115 320.994C157.037 318.485 159.595 316.535 162.523 315.346L164.965 314.358C165.083 314.31 165.216 314.311 165.334 314.36C165.451 314.41 165.545 314.504 165.593 314.622C165.641 314.741 165.64 314.873 165.59 314.991C165.541 315.109 165.446 315.202 165.328 315.25L162.884 316.238C160.114 317.363 157.695 319.207 155.876 321.58C154.057 323.952 152.905 326.768 152.538 329.734L149.963 350.7C149.948 350.815 149.892 350.92 149.806 350.997C149.719 351.074 149.608 351.117 149.492 351.118Z" fill="#141414"/>
<path d="M54.1762 240.136C54.1762 240.136 65.7392 221.204 86.1735 200.578C86.1735 200.578 56.2994 250.475 99.7307 255.723C143.162 260.971 181.741 257.564 189.943 245.227C198.145 232.89 207.99 205.189 207.99 205.189C207.99 205.189 239.593 245.815 262.875 245.227C293.488 244.455 298.233 196.416 298.233 196.416L276.421 175.061L267.788 183.528C267.788 183.528 225.138 141.258 197.514 135.977C176.084 131.886 131.155 133.246 112.074 134.062C105.646 134.335 99.2998 135.616 93.2692 137.86C75.4501 144.494 37.9468 161.17 17.0796 190.191C-10.9664 229.188 -2.26356 254.072 27.1382 276.601L44.3275 291.545L75.1877 257.151L54.1762 240.136Z" fill="url(#paint0_linear_98_290)"/>
<path d="M132.246 218.934C129.519 218.939 126.807 218.542 124.195 217.758C120.33 216.566 116.763 214.565 113.731 211.888C110.698 209.211 108.27 205.92 106.608 202.233C106.575 202.175 106.555 202.11 106.549 202.044C106.542 201.977 106.55 201.91 106.571 201.847C106.592 201.783 106.626 201.725 106.671 201.675C106.715 201.626 106.77 201.586 106.831 201.559C106.892 201.531 106.958 201.517 107.025 201.517C107.092 201.516 107.158 201.53 107.219 201.556C107.28 201.583 107.335 201.622 107.381 201.671C107.426 201.72 107.461 201.778 107.482 201.841C109.07 205.415 111.409 208.604 114.341 211.191C117.272 213.779 120.727 215.704 124.47 216.835C128.213 217.967 132.155 218.278 136.029 217.748C139.903 217.218 143.618 215.858 146.919 213.763C146.972 213.729 147.032 213.706 147.094 213.695C147.156 213.684 147.22 213.686 147.282 213.7C147.344 213.714 147.402 213.739 147.454 213.776C147.506 213.812 147.55 213.858 147.583 213.912C147.617 213.965 147.64 214.025 147.651 214.087C147.662 214.149 147.661 214.213 147.647 214.275C147.633 214.337 147.607 214.395 147.571 214.447C147.534 214.499 147.488 214.543 147.435 214.576C142.885 217.433 137.619 218.944 132.246 218.934Z" fill="#141414"/>
<path d="M255.738 197.571C255.615 197.572 255.496 197.525 255.407 197.44C255.315 197.352 255.261 197.231 255.258 197.104C255.254 196.976 255.301 196.853 255.388 196.76L266.085 185.415C266.174 185.33 266.292 185.282 266.415 185.281C266.538 185.28 266.657 185.327 266.747 185.411C266.837 185.495 266.891 185.61 266.898 185.733C266.906 185.856 266.866 185.977 266.787 186.071L256.087 197.416C256.043 197.464 255.989 197.503 255.929 197.53C255.869 197.557 255.803 197.571 255.738 197.571Z" fill="#141414"/>
<path d="M51.3598 239.657C51.2479 239.657 51.1396 239.618 51.0536 239.546C44.3008 233.968 37.2548 228.755 29.9459 223.929C29.893 223.894 29.8476 223.849 29.8121 223.796C29.7767 223.744 29.7519 223.685 29.7392 223.623C29.7265 223.561 29.7261 223.497 29.7382 223.435C29.7502 223.373 29.7743 223.314 29.8092 223.261C29.8441 223.208 29.889 223.162 29.9415 223.127C29.9939 223.092 30.0529 223.067 30.1149 223.054C30.1769 223.041 30.2409 223.041 30.303 223.053C30.3652 223.065 30.4244 223.089 30.4772 223.124C37.8141 227.97 44.887 233.204 51.6659 238.805C51.7426 238.868 51.7979 238.953 51.8243 239.048C51.8507 239.144 51.8468 239.245 51.8133 239.339C51.7798 239.432 51.7182 239.513 51.637 239.57C51.5558 239.627 51.459 239.658 51.3598 239.657Z" fill="#141414"/>
<path d="M38.1196 286.152C38.1196 286.152 51.9261 255.928 67.4929 250.919C67.4929 250.919 101.946 279.227 104.574 284.289C107.203 289.351 100.496 292.741 86.1735 280.675C86.1735 280.675 99.5121 300.184 95.2087 302.828C91.358 305.196 86.1735 296.176 77.792 288.63C77.792 288.63 89.1626 308.931 83.9868 312.832C80.1973 315.692 69.4193 293.935 69.4193 293.935C69.4193 293.935 77.0726 313.396 74.4486 316.131C72.4347 318.237 68.7633 315.475 65.9207 311.189C63.7687 307.938 61.0976 305.062 58.0137 302.677C52.4006 298.345 43.8355 291.538 38.1196 286.152Z" fill="white"/>
<path d="M72.7693 317.336C72.6753 317.336 72.5834 317.336 72.4872 317.323C70.4274 317.139 67.8187 314.946 65.5074 311.456C63.3865 308.247 60.7513 305.409 57.7076 303.057C51.7227 298.43 43.4091 291.8 37.7894 286.502C37.7041 286.413 37.6561 286.295 37.6552 286.172C37.6544 286.049 37.7007 285.93 37.7848 285.84C37.8689 285.75 37.9842 285.696 38.1071 285.689C38.23 285.681 38.351 285.721 38.4454 285.8C44.0367 291.072 52.3241 297.68 58.2936 302.296C61.4195 304.714 64.1269 307.629 66.3077 310.925C68.4244 314.124 70.8254 316.208 72.5681 316.363C72.8498 316.398 73.1358 316.366 73.4022 316.267C73.6685 316.169 73.9074 316.009 74.0988 315.799C75.8481 313.962 71.8902 301.52 68.9776 294.109C68.9453 293.997 68.9546 293.877 69.0038 293.772C69.053 293.666 69.1389 293.581 69.2455 293.534C69.3521 293.487 69.4722 293.479 69.5837 293.513C69.6953 293.548 69.7907 293.621 69.8523 293.72C72.3101 298.686 79.4561 311.751 82.9307 312.574C83.0594 312.613 83.1954 312.622 83.3282 312.6C83.4609 312.578 83.5868 312.525 83.696 312.447C87.656 309.455 80.4729 294.409 77.3722 288.864C77.3167 288.764 77.2983 288.648 77.3202 288.537C77.3421 288.425 77.4029 288.325 77.4919 288.253C77.5808 288.182 77.6921 288.145 77.8059 288.148C77.9197 288.152 78.0287 288.195 78.1135 288.271C80.9364 290.812 83.3899 293.519 85.5481 295.892C89.5584 300.302 92.7247 303.785 94.9507 302.417C95.1017 302.316 95.2298 302.184 95.3266 302.03C95.4235 301.877 95.4869 301.704 95.5127 301.524C96.5273 296.762 85.8783 281.103 85.7711 280.946C85.7068 280.85 85.6791 280.734 85.6932 280.619C85.7074 280.504 85.7623 280.399 85.8481 280.321C85.9338 280.244 86.0446 280.199 86.1602 280.197C86.2758 280.194 86.3884 280.234 86.4774 280.307C95.4733 287.884 101.847 289.513 103.971 287.821C104.808 287.149 104.876 285.912 104.148 284.51C101.596 279.592 67.5344 251.572 67.1933 251.29C67.1424 251.251 67.1 251.202 67.0684 251.146C67.0369 251.09 67.0169 251.028 67.0097 250.964C67.0024 250.9 67.0081 250.835 67.0264 250.774C67.0446 250.712 67.075 250.655 67.1158 250.605C67.1566 250.555 67.207 250.514 67.2639 250.484C67.3209 250.454 67.3833 250.436 67.4474 250.431C67.5115 250.425 67.576 250.433 67.6372 250.453C67.6983 250.473 67.7548 250.505 67.8034 250.547C69.2138 251.706 102.353 278.973 105.005 284.066C105.961 285.907 105.799 287.591 104.568 288.573C102.444 290.27 96.9712 289.684 88.2617 282.982C91.323 287.751 97.2992 297.77 96.4551 301.726C96.4043 302.033 96.2892 302.327 96.1175 302.587C95.9457 302.848 95.721 303.069 95.458 303.237C92.5563 305.023 89.3201 301.465 84.8418 296.539C83.2587 294.79 81.5225 292.889 79.6048 291.002C82.5983 296.817 88.6466 309.912 84.2733 313.216C84.0515 313.381 83.7955 313.492 83.5243 313.544C83.2532 313.595 82.974 313.584 82.7076 313.512C79.771 312.816 75.2883 305.718 72.2336 300.276C74.2737 306.335 76.585 314.581 74.7854 316.457C74.5289 316.736 74.2171 316.958 73.87 317.109C73.5228 317.26 73.148 317.338 72.7693 317.336Z" fill="#141414"/>
<path d="M138.688 97.0591L133.252 127.587C133.043 128.761 132.459 129.836 131.588 130.652C130.717 131.467 129.605 131.978 128.42 132.109L108.068 134.366C108.068 134.366 123.329 146.902 152.488 146.316C181.647 145.73 188.102 134.698 188.102 134.698L165.58 132.218C164.198 132.065 162.923 131.402 162.003 130.36C161.083 129.318 160.584 127.971 160.603 126.581L160.821 108.349C160.821 108.349 144.986 93.543 138.688 97.0591Z" fill="white"/>
<path d="M188.102 135.17H188.05L170.056 133.187C169.991 133.183 169.928 133.165 169.87 133.136C169.812 133.106 169.761 133.065 169.72 133.016C169.678 132.966 169.647 132.908 169.628 132.846C169.609 132.784 169.603 132.719 169.61 132.655C169.617 132.59 169.637 132.528 169.669 132.471C169.701 132.415 169.744 132.365 169.795 132.326C169.847 132.286 169.906 132.257 169.968 132.241C170.031 132.225 170.097 132.222 170.161 132.231L188.155 134.213C188.278 134.224 188.393 134.283 188.474 134.378C188.555 134.472 188.597 134.594 188.59 134.718C188.583 134.842 188.528 134.959 188.438 135.043C188.347 135.128 188.226 135.174 188.102 135.173V135.17Z" fill="#141414"/>
<path d="M138.496 93.6873C136.854 94.1881 135.717 95.874 135.653 97.5905C135.59 99.307 136.488 100.98 137.824 102.058C139.16 103.136 140.886 103.663 142.6 103.759C142.803 109.37 158.462 123.522 165.997 118.51C171.282 114.992 173.578 103.125 173.611 96.7727C173.644 90.4204 172.496 84.0704 173.06 77.7488C165.779 77.622 158.375 78.208 151.552 80.7532C150.041 81.3174 148.541 81.9887 147.306 83.0274C146.07 84.066 145.119 85.5158 144.962 87.123C144.806 88.7651 145.486 90.3723 145.572 92.0211C145.635 93.2609 144.868 95.9286 143.166 95.5875C142.405 95.4344 141.854 94.3389 141.161 93.9716C140.344 93.5327 139.387 93.4307 138.496 93.6873Z" fill="white"/>
<path d="M162.23 120.047C160.233 120.047 157.939 119.391 155.418 118.108C149.077 114.861 142.736 108.145 142.156 104.201C140.809 104.074 139.034 103.648 137.521 102.425C136.007 101.203 135.102 99.3376 135.168 97.5642C135.244 95.5962 136.585 93.7616 138.354 93.2194C139.363 92.9252 140.447 93.0383 141.373 93.5342C141.743 93.7611 142.072 94.047 142.349 94.3805C142.653 94.7085 142.967 95.0474 143.25 95.1043C143.396 95.1364 143.547 95.1318 143.691 95.091C143.835 95.0502 143.967 94.9743 144.074 94.8703C144.785 94.2558 145.121 92.8039 145.082 92.0276C145.03 91.365 144.928 90.7072 144.778 90.0596C144.581 89.0931 144.376 88.0917 144.474 87.0661C144.625 85.4742 145.541 83.8627 146.989 82.6469C148.342 81.5076 149.967 80.8167 151.375 80.2919C157.338 78.0658 164.228 77.1103 173.058 77.2568C173.124 77.2578 173.189 77.2725 173.25 77.2999C173.31 77.3274 173.364 77.3671 173.408 77.4164C173.452 77.4658 173.486 77.5236 173.507 77.5864C173.528 77.6492 173.536 77.7156 173.53 77.7816C173.2 81.4858 173.469 85.2818 173.729 88.9532C173.911 91.5116 174.099 94.1574 174.086 96.7705C174.049 103.617 171.536 115.388 166.255 118.906C165.058 119.681 163.656 120.078 162.23 120.047ZM139.451 94.0262C139.175 94.0254 138.9 94.0652 138.636 94.1443C137.245 94.5816 136.191 96.027 136.132 97.6058C136.075 99.0818 136.838 100.643 138.124 101.682C139.6 102.873 141.387 103.212 142.624 103.276C142.744 103.282 142.857 103.333 142.942 103.419C143.026 103.505 143.075 103.619 143.079 103.739C143.195 106.934 149.114 113.798 155.858 117.255C158.731 118.727 162.774 120.069 165.722 118.108C170.712 114.784 173.086 103.409 173.121 96.7683C173.135 94.1924 172.949 91.5662 172.769 89.0254C172.518 85.4852 172.258 81.8291 172.529 78.2167C164.069 78.1096 157.441 79.0586 151.712 81.1971C150.38 81.6957 148.852 82.3429 147.608 83.3838C146.363 84.4246 145.561 85.8154 145.434 87.158C145.349 88.0326 145.53 88.9291 145.72 89.8672C145.882 90.5642 145.991 91.2726 146.044 91.9861C146.092 92.9351 145.701 94.7391 144.704 95.5984C144.483 95.7958 144.22 95.9382 143.934 96.0142C143.648 96.0902 143.348 96.0976 143.059 96.0358C142.473 95.9199 142.032 95.4432 141.642 95.0255C141.437 94.7719 141.194 94.5507 140.923 94.3695C140.467 94.1385 139.962 94.0207 139.451 94.0262Z" fill="#141414"/>
<path d="M144.835 101.128C144.771 101.128 144.708 101.116 144.649 101.092C144.59 101.067 144.537 101.031 144.492 100.986C143.231 99.7069 141.749 98.6661 140.118 97.9141C140.061 97.8877 140.009 97.8502 139.966 97.8038C139.923 97.7574 139.89 97.7031 139.868 97.6438C139.846 97.5845 139.836 97.5214 139.838 97.4583C139.841 97.3951 139.856 97.333 139.882 97.2756C139.908 97.2182 139.946 97.1665 139.992 97.1236C140.039 97.0806 140.093 97.0472 140.152 97.0253C140.212 97.0034 140.275 96.9933 140.338 96.9958C140.401 96.9982 140.463 97.013 140.521 97.0395C142.259 97.8419 143.838 98.9532 145.18 100.319C145.225 100.364 145.261 100.417 145.285 100.476C145.31 100.534 145.322 100.597 145.322 100.661C145.322 100.724 145.31 100.787 145.285 100.845C145.261 100.904 145.225 100.957 145.18 101.002C145.134 101.045 145.08 101.078 145.02 101.1C144.961 101.122 144.898 101.131 144.835 101.128Z" fill="#141414"/>
<path d="M314.517 311.312V399.677H599.519V222.947H314.517V311.312Z" fill="white"/>
<path d="M599.519 400.158H314.517C314.389 400.158 314.267 400.107 314.176 400.017C314.086 399.927 314.034 399.805 314.034 399.677V311.312C314.042 311.19 314.096 311.075 314.186 310.991C314.275 310.908 314.393 310.861 314.516 310.861C314.638 310.861 314.756 310.908 314.846 310.991C314.935 311.075 314.99 311.19 314.998 311.312V399.196H599.044V223.428H375.658C375.53 223.428 375.408 223.377 375.318 223.287C375.228 223.197 375.177 223.075 375.177 222.947C375.177 222.819 375.228 222.697 375.318 222.607C375.408 222.517 375.53 222.466 375.658 222.466H599.519C599.647 222.466 599.769 222.517 599.859 222.607C599.949 222.697 600 222.819 600 222.947V399.677C599.999 399.804 599.949 399.926 599.858 400.016C599.768 400.106 599.646 400.157 599.519 400.158Z" fill="#141414"/>
<path d="M402.517 296.178L374.239 272.298C374.239 272.298 385.043 254.586 365.984 245.356C359.724 242.321 367.1 262.425 351.533 278.237V289.988L379.189 317.607C379.189 317.607 397.507 309.829 402.517 296.178Z" fill="white"/>
<path d="M379.185 318.088C379.057 318.089 378.935 318.038 378.844 317.948L351.189 290.329C351.144 290.284 351.109 290.231 351.084 290.172C351.06 290.114 351.047 290.051 351.047 289.988V278.237C351.047 278.111 351.097 277.99 351.185 277.9C360.281 268.659 361.462 257.783 362.164 251.286C362.543 247.787 362.794 245.472 364.056 244.772C364.631 244.455 365.328 244.503 366.19 244.923C372.006 247.744 375.68 251.632 377.103 256.482C379.207 263.643 375.767 270.544 374.853 272.19L402.827 295.806C402.902 295.87 402.956 295.956 402.981 296.051C403.006 296.147 403.001 296.247 402.967 296.34C397.938 310.028 379.559 317.968 379.373 318.047C379.314 318.072 379.25 318.086 379.185 318.088ZM352.012 289.786L379.292 317.032C381.639 315.969 397.262 308.504 401.946 296.327L373.924 272.676C373.837 272.602 373.778 272.499 373.76 272.386C373.742 272.273 373.764 272.157 373.823 272.059C373.869 271.983 378.415 264.38 376.176 256.753C374.832 252.178 371.328 248.491 365.77 245.795C364.937 245.391 364.624 245.564 364.524 245.62C363.697 246.077 363.443 248.426 363.122 251.398C362.407 257.986 361.215 268.994 352.012 278.44V289.786Z" fill="#141414"/>
<path d="M599.519 400.158H484.844C484.758 400.158 484.673 400.135 484.599 400.091C484.525 400.047 484.464 399.984 484.422 399.909C484.381 399.833 484.36 399.748 484.363 399.662C484.365 399.575 484.391 399.492 484.438 399.419C497.472 378.805 556.271 352.314 558.766 351.196C558.862 351.153 558.969 351.143 559.071 351.166C559.173 351.189 559.265 351.245 559.333 351.325L599.886 399.366C599.946 399.436 599.983 399.521 599.995 399.612C600.008 399.703 599.993 399.795 599.954 399.878C599.916 399.961 599.854 400.032 599.777 400.081C599.7 400.131 599.611 400.157 599.519 400.158ZM485.736 399.196H598.483L558.832 352.224C554.037 354.404 499.038 379.702 485.736 399.196Z" fill="#141414"/>
<path d="M484.844 399.677C484.844 399.677 546.877 377.082 575.809 352.924C575.809 352.924 546.243 297.602 540.274 287.574C534.304 277.546 523.845 274.709 523.845 274.709C523.845 274.709 527.528 256.422 501.104 256.422C501.104 256.422 476.1 254.36 479.391 270.5C479.391 270.5 438.5 289.743 420.587 308.294L402.497 296.178L382.66 313.719L379.161 356.532C379.161 356.532 404.73 378.816 430.705 382.807C456.68 386.797 474.276 378.551 474.276 378.551L484.844 399.677Z" fill="url(#paint1_linear_98_290)"/>
<path d="M476.402 378.324C476.287 378.324 476.177 378.283 476.09 378.208C476.003 378.134 475.946 378.031 475.928 377.918C475.91 377.805 475.933 377.69 475.992 377.592C476.052 377.495 476.144 377.422 476.253 377.386C495.978 370.911 513.759 359.581 527.961 344.438C528.048 344.344 528.168 344.289 528.296 344.285C528.423 344.28 528.547 344.326 528.641 344.413C528.734 344.5 528.789 344.621 528.794 344.748C528.798 344.876 528.752 345 528.665 345.093C514.351 360.353 496.431 371.768 476.552 378.291C476.504 378.311 476.453 378.322 476.402 378.324Z" fill="#141414"/>
<path d="M422.315 342.697C422.2 342.698 422.088 342.658 422 342.584C421.912 342.511 421.854 342.408 421.835 342.294C421.816 342.181 421.839 342.065 421.898 341.967C421.958 341.868 422.05 341.795 422.159 341.759C451.636 331.6 472.89 319.326 489.023 303.129C489.113 303.039 489.236 302.988 489.363 302.988C489.491 302.988 489.614 303.038 489.704 303.128C489.795 303.219 489.846 303.341 489.846 303.469C489.846 303.596 489.795 303.719 489.705 303.809C473.456 320.113 452.095 332.455 422.472 342.671C422.421 342.688 422.368 342.697 422.315 342.697Z" fill="#141414"/>
<path d="M424.803 341.595C424.74 341.595 424.677 341.582 424.618 341.558C424.56 341.533 424.507 341.498 424.462 341.453C417.912 334.841 410.987 328.614 403.719 322.801C403.62 322.721 403.556 322.605 403.541 322.478C403.527 322.351 403.564 322.224 403.644 322.124C403.724 322.024 403.84 321.96 403.967 321.946C404.094 321.932 404.221 321.969 404.321 322.048C411.616 327.885 418.569 334.137 425.146 340.773C425.213 340.84 425.258 340.926 425.276 341.02C425.294 341.113 425.285 341.21 425.248 341.298C425.211 341.386 425.149 341.461 425.07 341.513C424.991 341.566 424.898 341.595 424.803 341.595Z" fill="#141414"/>
<path d="M481.818 252.67L486.795 271.429L474.543 288.824L514.834 269.916L504.419 233.526L481.818 252.67Z" fill="white"/>
<path d="M511.307 258.073C511.203 258.074 511.101 258.04 511.018 257.977C510.935 257.914 510.874 257.826 510.846 257.726L504.161 234.374L482.128 253.035C482.081 253.081 482.025 253.116 481.963 253.139C481.902 253.162 481.836 253.172 481.771 253.168C481.705 253.165 481.641 253.148 481.582 253.119C481.523 253.09 481.471 253.049 481.429 252.999C481.386 252.949 481.354 252.891 481.335 252.828C481.316 252.765 481.31 252.699 481.318 252.634C481.325 252.569 481.346 252.506 481.378 252.449C481.411 252.392 481.455 252.342 481.507 252.303L504.109 233.159C504.17 233.106 504.243 233.07 504.322 233.054C504.401 233.037 504.482 233.041 504.559 233.065C504.636 233.088 504.706 233.13 504.763 233.188C504.819 233.245 504.86 233.315 504.883 233.393L511.771 257.459C511.806 257.582 511.791 257.714 511.729 257.826C511.667 257.938 511.563 258.02 511.441 258.056C511.397 258.067 511.352 258.073 511.307 258.073Z" fill="#141414"/>
<path d="M523.216 214.541C523.292 208.102 522.234 201.398 518.543 196.119C515.481 191.73 510.793 188.656 505.784 186.762C500.774 184.869 495.425 184.073 490.099 183.533C484.886 183.003 479.428 182.739 474.598 184.772C468.96 187.145 464.898 192.48 463.135 198.33C461.373 204.179 461.709 210.509 463.07 216.479C458.873 216.877 455.512 220.97 455.51 225.186C455.508 229.402 458.539 233.323 462.479 234.825C466.419 236.327 471.029 235.56 474.569 233.268C478.365 230.806 481.409 226.588 485.918 226.192C487.667 229.098 488.892 232.282 490.374 235.332C491.857 238.383 493.654 241.365 496.278 243.515C498.902 245.664 502.482 246.871 505.755 245.988C508.08 245.36 510.439 243.67 511.996 241.833C513.452 240.123 515.081 238.503 516.47 236.716C519.564 232.737 521.403 227.902 522.374 222.986C522.909 220.203 523.191 217.376 523.216 214.541Z" fill="#141414"/>
<path d="M506.179 236.928C508.215 235.444 511.309 235.894 513.07 237.698C514.83 239.502 515.256 242.369 514.421 244.744C513.586 247.118 511.611 248.994 509.324 250.055C507.037 251.115 504.461 251.417 501.944 251.299C498.264 256.025 493.89 260.483 488.314 262.67C482.738 264.856 475.741 264.266 471.597 259.941C468.954 257.183 467.771 253.269 467.686 249.445C467.6 245.62 468.521 241.857 469.608 238.197C472.481 228.527 476.556 219.255 481.737 210.599C485.5 211.185 489.296 211.872 492.775 213.428C496.254 214.985 499.427 217.509 501.063 220.951C503.083 225.21 502.504 230.268 501.063 234.759C500.614 236.167 498.795 240.799 501.474 241.168C503.284 241.422 504.891 237.869 506.179 236.928Z" fill="white"/>
<path d="M481.685 264.393C477.919 264.393 474.071 263.216 471.25 260.271C468.737 257.647 467.301 253.812 467.204 249.46C467.117 245.489 468.079 241.636 469.146 238.063C472.031 228.355 476.122 219.046 481.324 210.356C481.374 210.276 481.448 210.212 481.534 210.173C481.621 210.134 481.718 210.122 481.811 210.138C485.505 210.715 489.41 211.41 492.963 213.002C496.928 214.778 499.961 217.533 501.491 220.76C503.295 224.561 503.306 229.325 501.524 234.921C501.485 235.046 501.437 235.192 501.38 235.358C500.997 236.5 500.098 239.172 500.765 240.25C500.85 240.382 500.965 240.492 501.1 240.571C501.235 240.65 501.387 240.697 501.544 240.707C502.436 240.823 503.479 239.441 504.321 238.324C504.865 237.604 505.379 236.922 505.889 236.55C508.053 234.971 511.425 235.341 513.406 237.372C515.219 239.231 515.812 242.262 514.869 244.914C514.034 247.278 512.086 249.314 509.521 250.501C507.441 251.465 504.966 251.9 502.163 251.8C499.224 255.557 494.649 260.713 488.483 263.127C486.314 263.963 484.009 264.393 481.685 264.393ZM481.982 211.128C476.901 219.673 472.9 228.815 470.071 238.345C469.033 241.844 468.084 245.607 468.167 249.447C468.258 253.556 469.599 257.168 471.945 259.615C475.619 263.448 482.277 264.524 488.14 262.239C494.192 259.869 498.699 254.702 501.563 251.021C501.611 250.96 501.672 250.912 501.742 250.88C501.812 250.848 501.889 250.833 501.966 250.838C504.714 250.969 507.124 250.562 509.123 249.637C511.451 248.557 513.218 246.722 513.968 244.608C514.786 242.292 514.288 239.66 512.724 238.048C511.064 236.347 508.255 236.025 506.464 237.333C506.07 237.619 505.589 238.247 505.097 238.91C504.052 240.296 502.867 241.866 501.417 241.665C501.12 241.636 500.834 241.54 500.58 241.384C500.327 241.227 500.112 241.014 499.954 240.762C499.049 239.299 499.976 236.539 500.472 235.057L500.614 234.635C502.318 229.28 502.322 224.751 500.628 221.176C499.193 218.156 496.335 215.567 492.578 213.888C489.226 212.372 485.518 211.686 481.982 211.128Z" fill="#141414"/>
<path d="M501.065 247.919C501 247.919 500.935 247.906 500.875 247.881C500.816 247.855 500.762 247.817 500.717 247.77C500.629 247.678 500.581 247.555 500.584 247.427C500.586 247.3 500.639 247.179 500.73 247.09C501.672 246.195 502.792 245.509 504.016 245.074C505.24 244.64 506.542 244.468 507.837 244.569C507.963 244.58 508.08 244.64 508.162 244.738C508.244 244.835 508.285 244.96 508.274 245.087C508.27 245.15 508.252 245.211 508.224 245.268C508.195 245.324 508.155 245.374 508.107 245.414C508.059 245.455 508.003 245.486 507.943 245.505C507.882 245.524 507.819 245.53 507.756 245.524C506.597 245.435 505.432 245.589 504.336 245.979C503.24 246.368 502.238 246.982 501.395 247.783C501.307 247.87 501.188 247.918 501.065 247.919Z" fill="#141414"/>
<path d="M372.111 230.793L372.07 285.129C372.068 287.27 371.645 289.389 370.824 291.366C370.003 293.343 368.801 295.139 367.286 296.652C365.771 298.164 363.973 299.364 361.994 300.181C360.016 300.999 357.896 301.419 355.755 301.417L301.419 301.376L301.476 230.747L372.111 230.793Z" fill="url(#paint2_linear_98_290)"/>
<path d="M230.794 285.02L230.836 230.683L301.465 230.738L301.408 301.367L247.074 301.325C242.754 301.319 238.613 299.598 235.56 296.541C232.508 293.484 230.794 289.34 230.794 285.02Z" fill="white"/>
<path d="M301.476 231.219L286.534 231.208C286.407 231.208 286.284 231.157 286.194 231.067C286.104 230.977 286.053 230.855 286.053 230.727C286.053 230.6 286.104 230.477 286.194 230.387C286.284 230.297 286.407 230.246 286.534 230.246H301.478C301.606 230.246 301.728 230.297 301.818 230.387C301.908 230.477 301.959 230.6 301.959 230.727C301.959 230.855 301.908 230.977 301.818 231.067C301.728 231.157 301.606 231.208 301.478 231.208L301.476 231.219Z" fill="#141414"/>
<path d="M301.423 301.857L247.089 301.815C242.64 301.807 238.376 300.033 235.232 296.885C232.088 293.736 230.322 289.469 230.32 285.02L230.357 230.692C230.358 230.565 230.408 230.443 230.499 230.353C230.589 230.262 230.711 230.212 230.838 230.211C230.966 230.211 231.088 230.262 231.178 230.352C231.269 230.442 231.319 230.565 231.319 230.692L231.278 285.028C231.279 289.222 232.945 293.244 235.908 296.212C238.871 299.18 242.891 300.852 247.085 300.86L301.421 300.903C301.549 300.903 301.671 300.954 301.761 301.044C301.852 301.135 301.902 301.257 301.902 301.384C301.902 301.512 301.852 301.634 301.761 301.725C301.671 301.815 301.549 301.866 301.421 301.866L301.423 301.857Z" fill="#141414"/>
<path d="M268.508 257.05C268.444 257.05 268.382 257.038 268.323 257.014C268.265 256.99 268.212 256.955 268.167 256.91C268.122 256.865 268.087 256.812 268.063 256.753C268.039 256.695 268.026 256.632 268.027 256.569L268.046 230.712C268.047 230.584 268.098 230.462 268.188 230.372C268.278 230.282 268.4 230.231 268.527 230.231C268.591 230.231 268.653 230.243 268.712 230.268C268.77 230.292 268.824 230.327 268.868 230.372C268.913 230.417 268.948 230.471 268.972 230.529C268.996 230.588 269.009 230.651 269.008 230.714L268.989 256.569C268.989 256.697 268.938 256.819 268.848 256.909C268.758 256.999 268.635 257.05 268.508 257.05Z" fill="#141414"/>
<path d="M333.313 231.245C333.186 231.245 333.063 231.194 332.973 231.103C332.883 231.012 332.832 230.89 332.832 230.762L332.854 204.907C332.854 204.844 332.866 204.781 332.89 204.723C332.914 204.664 332.95 204.611 332.995 204.566C333.039 204.522 333.092 204.486 333.151 204.462C333.209 204.438 333.272 204.426 333.335 204.426C333.399 204.426 333.461 204.438 333.52 204.462C333.578 204.486 333.631 204.522 333.676 204.566C333.721 204.611 333.756 204.664 333.78 204.723C333.804 204.781 333.817 204.844 333.816 204.907L333.797 230.764C333.796 230.892 333.745 231.014 333.654 231.105C333.564 231.195 333.441 231.245 333.313 231.245Z" fill="url(#paint3_linear_98_290)"/>
<path d="M272.483 269.111C279.417 266.919 283.262 259.521 281.07 252.587C278.878 245.652 271.48 241.808 264.546 243.999C257.611 246.191 253.767 253.589 255.958 260.524C258.15 267.458 265.548 271.303 272.483 269.111Z" fill="white"/>
<path d="M268.508 270.22C264.917 270.175 261.489 268.717 258.967 266.162C256.444 263.607 255.029 260.161 255.029 256.57C255.029 252.979 256.444 249.533 258.967 246.978C261.489 244.423 264.917 242.965 268.508 242.92C272.098 242.965 275.526 244.423 278.049 246.978C280.571 249.533 281.986 252.979 281.986 256.57C281.986 260.161 280.571 263.607 278.049 266.162C275.526 268.717 272.098 270.175 268.508 270.22ZM268.508 243.882C265.144 243.882 261.918 245.218 259.54 247.597C257.161 249.975 255.825 253.201 255.825 256.565C255.825 259.928 257.161 263.154 259.54 265.533C261.918 267.911 265.144 269.247 268.508 269.247C271.871 269.247 275.097 267.911 277.476 265.533C279.854 263.154 281.19 259.928 281.19 256.565C281.19 253.201 279.854 249.975 277.476 247.597C275.097 245.218 271.871 243.882 268.508 243.882Z" fill="#141414"/>
<path d="M333.322 218.075C335.927 218.077 338.473 217.307 340.64 215.862C342.807 214.417 344.496 212.362 345.495 209.956C346.493 207.551 346.756 204.904 346.25 202.349C345.744 199.794 344.492 197.447 342.652 195.604C340.812 193.761 338.467 192.504 335.913 191.994C333.359 191.484 330.711 191.743 328.304 192.737C325.897 193.732 323.839 195.418 322.39 197.582C320.942 199.747 320.167 202.292 320.165 204.896C320.163 206.626 320.502 208.338 321.163 209.937C321.823 211.535 322.792 212.987 324.014 214.211C325.235 215.435 326.686 216.406 328.284 217.069C329.881 217.732 331.593 218.074 333.322 218.075Z" fill="url(#paint4_linear_98_290)"/>
<path d="M327.307 263.079L301.45 263.057C301.322 263.057 301.2 263.006 301.109 262.916C301.019 262.826 300.969 262.703 300.969 262.576C300.969 262.448 301.019 262.326 301.109 262.236C301.2 262.145 301.322 262.095 301.45 262.095L327.305 262.114C327.427 262.123 327.541 262.177 327.625 262.266C327.709 262.356 327.755 262.474 327.755 262.596C327.755 262.719 327.709 262.837 327.625 262.927C327.541 263.016 327.427 263.07 327.305 263.079H327.307Z" fill="white"/>
<path d="M314.139 262.587C314.137 265.191 314.908 267.737 316.353 269.904C317.798 272.07 319.854 273.759 322.259 274.758C324.664 275.756 327.312 276.019 329.866 275.512C332.421 275.006 334.768 273.754 336.611 271.914C338.454 270.073 339.71 267.728 340.22 265.174C340.73 262.62 340.471 259.973 339.476 257.566C338.482 255.159 336.796 253.101 334.631 251.653C332.467 250.204 329.922 249.43 327.318 249.427C325.588 249.426 323.875 249.765 322.277 250.426C320.679 251.086 319.226 252.055 318.003 253.277C316.779 254.499 315.808 255.95 315.145 257.548C314.482 259.145 314.14 260.857 314.139 262.587Z" fill="white"/>
<path d="M298.218 196.412C296.35 182.129 294.632 170.218 293.438 164.487C289.064 143.438 253.765 143.816 245.974 148.666C238.183 153.516 241.509 171.69 241.509 171.69L245.812 196.886C257.876 198.391 278.444 199.906 298.218 196.412Z" fill="white"/>
<path d="M298.216 196.893C298.099 196.893 297.987 196.85 297.899 196.773C297.812 196.697 297.755 196.591 297.739 196.475C295.651 180.493 294.043 169.759 292.965 164.574C292.948 164.511 292.944 164.444 292.954 164.379C292.963 164.314 292.986 164.252 293.02 164.196C293.055 164.14 293.1 164.091 293.154 164.053C293.208 164.016 293.269 163.989 293.333 163.976C293.398 163.962 293.464 163.962 293.529 163.975C293.593 163.989 293.654 164.015 293.708 164.052C293.762 164.09 293.808 164.138 293.843 164.194C293.877 164.25 293.9 164.312 293.91 164.377C294.992 169.586 296.602 180.34 298.694 196.349C298.703 196.411 298.699 196.475 298.683 196.536C298.666 196.598 298.638 196.655 298.6 196.705C298.561 196.756 298.513 196.798 298.458 196.829C298.403 196.861 298.342 196.881 298.279 196.889C298.258 196.892 298.237 196.894 298.216 196.893Z" fill="#141414"/>
<path d="M238.482 154.117L238.483 154.117L281.425 154.15L281.381 209.624L225.906 209.581L225.939 166.639C225.939 166.639 225.939 166.638 225.939 166.638C225.941 164.993 226.266 163.364 226.898 161.844L226.898 161.844C227.529 160.323 228.453 158.942 229.617 157.78C230.782 156.617 232.165 155.695 233.686 155.067L233.686 155.067C235.206 154.438 236.836 154.115 238.482 154.117Z" fill="white" stroke="#141414"/>
<path d="M253.665 231.567C253.601 231.567 253.539 231.554 253.48 231.53C253.421 231.506 253.368 231.47 253.324 231.425C253.279 231.38 253.244 231.327 253.22 231.268C253.195 231.21 253.183 231.147 253.184 231.084L253.199 210.413C253.199 210.285 253.251 210.163 253.341 210.073C253.432 209.983 253.554 209.932 253.682 209.932C253.81 209.932 253.932 209.983 254.022 210.073C254.112 210.163 254.163 210.286 254.163 210.413L254.148 231.086C254.147 231.213 254.095 231.335 254.005 231.425C253.914 231.515 253.792 231.566 253.665 231.567Z" fill="white"/>
<path d="M262.586 235.707L262.586 235.707C260.046 240.629 253.997 242.561 249.075 240.022L249.075 240.022C244.153 237.482 242.221 231.433 244.76 226.51C247.3 221.589 253.349 219.657 258.271 222.196L258.271 222.196C263.193 224.736 265.125 230.785 262.586 235.707Z" fill="white" stroke="#141414"/>
<path d="M242.489 148.666C242.109 148.341 242.109 148.341 242.109 148.341L242.109 148.342L242.107 148.344L242.099 148.352L242.069 148.388C242.042 148.419 242.001 148.466 241.948 148.527C241.842 148.648 241.686 148.826 241.485 149.052C241.083 149.502 240.504 150.14 239.797 150.889C238.381 152.387 236.458 154.324 234.418 156.087C232.369 157.857 230.237 159.422 228.402 160.209C227.484 160.603 226.684 160.783 226.028 160.731C225.398 160.681 224.884 160.416 224.487 159.857C224.231 159.495 224.089 158.976 224.09 158.276C224.092 157.579 224.236 156.74 224.51 155.782C225.059 153.865 226.105 151.551 227.43 149.077C230.077 144.133 233.791 138.636 236.701 134.557C238.152 132.526 240.111 130.909 242.382 129.872L242.382 129.872C244.652 128.833 247.156 128.41 249.642 128.643L249.643 128.643C259.728 129.57 269.881 133.39 277.377 136.878C280.9 138.523 283.979 140.986 286.359 144.061L286.359 144.061C288.739 147.135 290.35 150.733 291.059 154.556L291.059 154.557L293.842 169.485C285.469 169.92 280.926 166.507 278.451 162.996C277.176 161.189 276.439 159.339 276.022 157.939C275.814 157.24 275.686 156.656 275.61 156.25C275.573 156.047 275.548 155.888 275.534 155.782L275.589 155.684L275.456 155.44C275.145 155.291 274.875 155.388 274.705 155.502L274.582 155.432C272.72 158.707 270.325 161.588 268.216 163.353C267.155 164.24 266.204 164.815 265.454 165.038C265.083 165.149 264.793 165.163 264.578 165.116C264.376 165.071 264.215 164.968 264.084 164.779L264.084 164.779C263.787 164.35 263.691 163.63 263.799 162.672C263.904 161.737 264.191 160.679 264.535 159.671C264.879 158.667 265.273 157.732 265.582 157.046C265.736 156.704 265.869 156.425 265.963 156.232C266.01 156.135 266.047 156.061 266.072 156.01L266.101 155.954L266.108 155.94L266.109 155.936L266.11 155.936L266.11 155.936L266.11 155.936L266.109 155.935L265.265 155.407L265.665 155.707L265.265 155.407L265.265 155.407L265.264 155.409L265.258 155.416L265.237 155.444C265.218 155.469 265.19 155.507 265.152 155.555C265.078 155.653 264.967 155.796 264.826 155.978C264.542 156.342 264.132 156.859 263.63 157.471C262.624 158.696 261.248 160.298 259.767 161.813C258.28 163.333 256.709 164.742 255.311 165.601C254.611 166.031 253.984 166.304 253.455 166.4C252.936 166.494 252.547 166.413 252.25 166.183L252.25 166.183C251.958 165.958 251.757 165.563 251.69 164.939C251.623 164.315 251.697 163.524 251.893 162.606C252.284 160.773 253.134 158.552 254.106 156.387C255.075 154.228 256.155 152.151 256.994 150.612C257.413 149.842 257.772 149.209 258.025 148.767C258.152 148.547 258.252 148.375 258.321 148.258C258.355 148.199 258.381 148.155 258.399 148.125L258.419 148.091L258.424 148.083L258.425 148.081L258.425 148.08L257.996 147.824L258.425 148.08L257.594 147.527C253.646 152.866 249.99 157.534 246.845 160.6C245.27 162.135 243.851 163.239 242.613 163.832C241.379 164.424 240.405 164.473 239.628 164.048C238.94 163.672 238.62 162.717 238.727 161.15C238.831 159.633 239.323 157.771 239.95 155.94C240.574 154.115 241.321 152.353 241.912 151.044C242.207 150.391 242.464 149.852 242.646 149.477C242.737 149.289 242.809 149.143 242.859 149.044C242.884 148.994 242.903 148.956 242.915 148.931L242.93 148.902L242.933 148.896L242.934 148.894L242.934 148.894L242.489 148.666ZM242.489 148.666L242.109 148.341L242.934 148.894L242.489 148.666Z" fill="white" stroke="black"/>
<path d="M338.402 312.781C338.402 312.781 373.524 354.413 382.417 358.67C382.417 358.67 405.595 337.049 408.875 326.411L366.586 292.898C363.828 290.707 361.923 287.621 361.202 284.173C360.554 281.12 359.557 278.152 358.233 275.326C354.655 267.673 350.334 268.985 350.934 273.607C351.533 278.23 349.473 283.922 349.473 283.922C349.473 283.922 332.373 266.022 328.262 267.419C324.151 268.816 336.101 282.553 336.101 282.553C336.101 282.553 319.247 268.121 316.575 270.5C313.076 273.607 328.262 287.67 328.262 287.67C328.262 287.67 314.705 276.614 311.862 280.371C309.179 283.889 324.606 295.24 324.606 295.24C324.606 295.24 314.51 289.071 312.864 292.078C311.217 295.085 329.808 308.946 338.402 312.781Z" fill="white"/>
<path d="M382.417 359.154C382.341 359.156 382.266 359.139 382.198 359.106C373.428 354.905 340.32 315.81 338.094 313.186C333.648 311.181 326.476 306.517 320.6 301.815C320.548 301.777 320.504 301.728 320.471 301.672C320.438 301.617 320.417 301.555 320.409 301.49C320.4 301.426 320.405 301.361 320.422 301.298C320.44 301.236 320.47 301.178 320.51 301.127C320.551 301.076 320.601 301.035 320.658 301.004C320.715 300.973 320.778 300.954 320.843 300.949C320.907 300.943 320.972 300.95 321.034 300.97C321.096 300.99 321.153 301.023 321.202 301.065C327.066 305.767 334.217 310.413 338.586 312.364C338.652 312.392 338.712 312.437 338.758 312.493C339.108 312.908 373.915 354.094 382.614 358.259C382.711 358.307 382.789 358.387 382.836 358.485C382.882 358.583 382.895 358.693 382.871 358.799C382.847 358.905 382.788 359 382.703 359.068C382.619 359.136 382.515 359.174 382.406 359.176L382.417 359.154Z" fill="#141414"/>
<path d="M327.375 276.14C327.272 276.14 327.173 276.108 327.09 276.048C318.919 270.098 317.226 270.581 316.9 270.859C316.853 270.902 316.798 270.936 316.738 270.958C316.678 270.98 316.614 270.99 316.55 270.987C316.486 270.984 316.423 270.968 316.365 270.94C316.308 270.912 316.256 270.873 316.213 270.825C316.171 270.778 316.138 270.722 316.118 270.661C316.097 270.6 316.089 270.536 316.093 270.472C316.098 270.408 316.115 270.346 316.144 270.289C316.173 270.232 316.213 270.181 316.262 270.139C317.104 269.392 319.201 269.112 327.659 275.269C327.743 275.328 327.806 275.413 327.839 275.511C327.871 275.608 327.872 275.714 327.84 275.812C327.808 275.909 327.746 275.995 327.662 276.054C327.578 276.114 327.477 276.146 327.375 276.144V276.14Z" fill="#141414"/>
<path d="M330.55 275.844C330.47 275.843 330.393 275.823 330.323 275.785C330.254 275.747 330.195 275.692 330.152 275.626C327.598 271.873 326.579 269.383 327.038 268.012C327.12 267.763 327.26 267.537 327.447 267.353C327.635 267.169 327.863 267.033 328.114 266.956C329.08 266.625 331.044 266.737 336.941 271.532C337.04 271.613 337.103 271.73 337.117 271.857C337.13 271.984 337.092 272.111 337.011 272.21C336.931 272.309 336.814 272.372 336.687 272.385C336.56 272.399 336.432 272.361 336.333 272.28C330.969 267.924 329.076 267.649 328.424 267.867C328.314 267.896 328.213 267.953 328.13 268.032C328.047 268.111 327.986 268.209 327.952 268.318C327.753 268.908 327.88 270.574 330.948 275.096C330.983 275.149 331.008 275.207 331.021 275.269C331.034 275.331 331.035 275.395 331.023 275.457C331.011 275.52 330.987 275.579 330.953 275.632C330.918 275.684 330.873 275.73 330.821 275.766C330.74 275.818 330.646 275.845 330.55 275.844Z" fill="#141414"/>
<path d="M408.873 326.905C408.764 326.905 408.659 326.868 408.574 326.8L366.282 293.287C366.189 293.205 366.131 293.091 366.12 292.968C366.109 292.845 366.146 292.722 366.223 292.625C366.3 292.528 366.411 292.464 366.533 292.447C366.655 292.429 366.78 292.459 366.881 292.531L409.173 326.03C409.25 326.093 409.307 326.178 409.334 326.274C409.361 326.369 409.359 326.471 409.326 326.565C409.293 326.66 409.232 326.741 409.151 326.799C409.07 326.857 408.973 326.889 408.873 326.89V326.905Z" fill="#141414"/>
<path d="M331.932 292.19C331.869 292.19 331.806 292.177 331.748 292.153C331.69 292.129 331.637 292.094 331.593 292.05L325.772 286.279C325.725 286.235 325.687 286.182 325.661 286.123C325.635 286.064 325.621 286.001 325.62 285.937C325.619 285.872 325.631 285.808 325.655 285.749C325.679 285.689 325.714 285.635 325.76 285.589C325.805 285.544 325.859 285.508 325.919 285.483C325.978 285.459 326.042 285.447 326.106 285.447C326.171 285.448 326.234 285.462 326.293 285.487C326.352 285.513 326.405 285.55 326.45 285.597L332.27 291.367C332.338 291.435 332.384 291.52 332.403 291.614C332.422 291.707 332.412 291.804 332.376 291.892C332.34 291.98 332.278 292.055 332.199 292.108C332.12 292.161 332.027 292.19 331.932 292.19Z" fill="#141414"/>
<path d="M327.829 298.017C327.725 298.017 327.624 297.982 327.541 297.919L321.978 293.738C321.927 293.7 321.885 293.652 321.853 293.598C321.82 293.544 321.799 293.483 321.79 293.421C321.781 293.358 321.785 293.295 321.801 293.233C321.816 293.172 321.844 293.115 321.882 293.064C321.92 293.014 321.967 292.971 322.021 292.939C322.076 292.907 322.136 292.886 322.199 292.877C322.261 292.868 322.325 292.871 322.386 292.887C322.447 292.903 322.505 292.93 322.555 292.968L328.114 297.151C328.198 297.211 328.262 297.296 328.294 297.394C328.327 297.492 328.327 297.598 328.294 297.697C328.261 297.795 328.198 297.88 328.113 297.939C328.028 297.999 327.926 298.029 327.823 298.026L327.829 298.017Z" fill="#141414"/>
<path d="M337.284 283.843C337.168 283.843 337.055 283.801 336.967 283.723L333.83 280.985C333.782 280.944 333.743 280.893 333.715 280.836C333.687 280.779 333.67 280.718 333.666 280.655C333.661 280.591 333.67 280.528 333.69 280.468C333.71 280.408 333.742 280.353 333.784 280.305C333.825 280.257 333.876 280.218 333.933 280.19C333.989 280.162 334.051 280.146 334.114 280.141C334.177 280.137 334.241 280.145 334.301 280.165C334.361 280.186 334.416 280.218 334.464 280.259L337.595 282.999C337.669 283.063 337.722 283.149 337.746 283.244C337.77 283.339 337.764 283.439 337.73 283.531C337.695 283.623 337.633 283.702 337.553 283.758C337.472 283.814 337.376 283.843 337.278 283.843H337.284Z" fill="#141414"/>
<path d="M260.951 0.00010677L260.883 86.5282L347.411 86.596L347.463 20.0364C347.466 17.414 346.951 14.8169 345.95 12.3933C344.948 9.96969 343.479 7.76714 341.626 5.91141C339.773 4.05569 337.573 2.58314 335.151 1.57787C332.729 0.572603 330.133 0.0543065 327.51 0.0525843L260.951 0.00010677ZM301.279 38.7564C304.469 38.7585 307.587 39.7065 310.238 41.4804C312.889 43.2543 314.955 45.7745 316.174 48.7223C317.394 51.6702 317.711 54.9134 317.088 58.0418C316.464 61.1702 314.926 64.0435 312.67 66.2982C310.413 68.553 307.539 70.0881 304.41 70.7094C301.281 71.3306 298.038 71.0103 295.091 69.7887C292.144 68.5671 289.626 66.4992 287.854 63.8465C286.082 61.1937 285.137 58.0752 285.137 54.8851C285.137 52.766 285.555 50.6678 286.367 48.7102C287.178 46.7527 288.367 44.9742 289.866 43.4764C291.365 41.9786 293.145 40.7908 295.103 39.9809C297.061 39.171 299.16 38.7549 301.279 38.7564Z" fill="url(#paint5_linear_98_290)"/>
<path d="M260.439 43.8032L228.765 43.7791C228.638 43.7791 228.515 43.7284 228.425 43.6382C228.335 43.548 228.284 43.4256 228.284 43.2981C228.284 43.1705 228.335 43.0481 228.425 42.9579C228.515 42.8677 228.638 42.817 228.765 42.817L260.439 42.841C260.566 42.841 260.689 42.8917 260.779 42.9819C260.869 43.0722 260.92 43.1945 260.92 43.3221C260.92 43.4497 260.869 43.5721 260.779 43.6623C260.689 43.7525 260.566 43.8032 260.439 43.8032Z" fill="url(#paint6_linear_98_290)"/>
<path d="M241.134 53.6666C246.856 46.838 245.959 36.6639 239.13 30.9422C232.302 25.2204 222.127 26.1177 216.406 32.9463C210.684 39.7749 211.581 49.949 218.41 55.6707C225.238 61.3925 235.412 60.4952 241.134 53.6666Z" fill="url(#paint7_linear_98_290)"/>
<path d="M301.242 87.0421C301.178 87.0421 301.116 87.0296 301.057 87.0052C300.999 86.9809 300.946 86.9453 300.901 86.9004C300.856 86.8555 300.821 86.8022 300.797 86.7436C300.773 86.685 300.76 86.6222 300.761 86.5588L300.785 71.0161C300.786 70.8887 300.837 70.7669 300.928 70.6772C301.018 70.5875 301.141 70.5372 301.268 70.5372C301.396 70.5372 301.518 70.5879 301.608 70.6781C301.698 70.7683 301.749 70.8907 301.749 71.0183L301.725 86.561C301.725 86.6888 301.673 86.8112 301.583 86.9013C301.492 86.9915 301.37 87.0421 301.242 87.0421Z" fill="white"/>
<circle cx="260.5" cy="184.5" r="9" stroke="#141414"/>
</g>
<defs>
<linearGradient id="paint0_linear_98_290" x1="149.123" y1="291.547" x2="149.123" y2="133.173" gradientUnits="userSpaceOnUse">
<stop stop-color="#DC1D47"/>
<stop offset="1" stop-color="#E54327"/>
</linearGradient>
<linearGradient id="paint1_linear_98_290" x1="477.49" y1="399.679" x2="477.49" y2="256.337" gradientUnits="userSpaceOnUse">
<stop stop-color="#DC1D47"/>
<stop offset="1" stop-color="#E54327"/>
</linearGradient>
<linearGradient id="paint2_linear_98_290" x1="336.767" y1="301.418" x2="336.767" y2="230.747" gradientUnits="userSpaceOnUse">
<stop stop-color="#DC1D47"/>
<stop offset="1" stop-color="#E54327"/>
</linearGradient>
<linearGradient id="paint3_linear_98_290" x1="333.324" y1="231.246" x2="333.324" y2="204.426" gradientUnits="userSpaceOnUse">
<stop stop-color="#DC1D47"/>
<stop offset="1" stop-color="#E54327"/>
</linearGradient>
<linearGradient id="paint4_linear_98_290" x1="333.334" y1="218.076" x2="333.334" y2="191.739" gradientUnits="userSpaceOnUse">
<stop stop-color="#DC1D47"/>
<stop offset="1" stop-color="#E54327"/>
</linearGradient>
<linearGradient id="paint5_linear_98_290" x1="304.175" y1="86.5974" x2="304.175" y2="0.00010677" gradientUnits="userSpaceOnUse">
<stop stop-color="#DC1D47"/>
<stop offset="1" stop-color="#E54327"/>
</linearGradient>
<linearGradient id="paint6_linear_98_290" x1="244.603" y1="43.8032" x2="244.603" y2="42.817" gradientUnits="userSpaceOnUse">
<stop stop-color="#DC1D47"/>
<stop offset="1" stop-color="#E54327"/>
</linearGradient>
<linearGradient id="paint7_linear_98_290" x1="241.135" y1="53.6664" x2="216.406" y2="32.9457" gradientUnits="userSpaceOnUse">
<stop stop-color="#DC1D47"/>
<stop offset="1" stop-color="#E54327"/>
</linearGradient>
<clipPath id="clip0_98_290">
<rect width="600" height="400" fill="white"/>
</clipPath>
</defs>
</svg>