<svg width="64" height="64" viewBox="0 0 64 64" fill="none" xmlns="http://www.w3.org/2000/svg">
<g clip-path="url(#clip0_54_754)">
<path d="M52.58 64H11.42C5.11 64 0 58.89 0 52.58V11.42C0 5.11 5.11 0 11.42 0H52.59C58.89 0 64 5.11 64 11.42V52.59C64 58.89 58.89 64 52.58 64Z" fill="#460437"/>
<path d="M34.58 45.7599C34.63 45.8699 34.66 45.9799 34.63 46.09C34.6 46.2 34.5 46.1199 34.34 46.1399H28.23C27.8 46.1399 27.51 46.11 27.32 45.84C26.76 44.69 26.17 43.5699 25.61 42.4199C25.05 41.2999 24.44 40.15 23.8 38.97C23.16 37.79 22.52 36.6199 21.88 35.41H21.83C21.27 36.59 20.66 37.7599 20.04 38.9399C19.43 40.1199 18.81 41.2899 18.23 42.4399C17.62 43.5899 17 44.76 16.39 45.8899C16.28 46.16 16.07 46.1899 15.78 46.1899H9.91999C9.80999 46.1899 9.72999 46.24 9.72999 46.11C9.69999 46 9.72999 45.89 9.77999 45.81L18.07 31.86L9.99999 17.83C9.91999 17.72 9.88999 17.6099 9.94999 17.5599C9.99999 17.4799 10.11 17.45 10.22 17.45H16.27C16.4 17.45 16.54 17.48 16.64 17.5C16.75 17.55 16.83 17.64 16.91 17.75C17.42 18.93 18 20.1 18.62 21.28C19.26 22.46 19.87 23.6 20.54 24.75C21.18 25.9 21.77 27.0499 22.33 28.2199H22.38C22.94 27.0199 23.53 25.84 24.11 24.69C24.7 23.54 25.31 22.39 25.92 21.24C26.53 20.09 27.12 18.92 27.71 17.79C27.74 17.68 27.79 17.57 27.87 17.52C27.98 17.47 28.08 17.4399 28.22 17.4699H33.85C33.98 17.4399 34.12 17.52 34.14 17.66C34.16 17.7 34.11 17.81 34.05 17.86L26.05 31.4L34.58 45.7599Z" fill="#CB74AF"/>
<path d="M54.99 42.99C54.97 42.39 54.94 41.8399 54.94 41.3499V15.26C54.91 15.15 54.8 15.04 54.67 15.07H49.26C49.07 15.07 48.99 15.18 48.99 15.37V24.01C48.67 23.99 48.4 23.9899 48.16 23.9599C47.92 23.9299 47.73 23.93 47.6 23.93C44.96 23.93 42.72 24.45 40.85 25.52C39.09 26.51 37.62 27.98 36.61 29.76C35.62 31.51 35.11 33.5099 35.14 35.5299C35.14 38.0199 35.62 40.1 36.61 41.77C37.57 43.38 38.96 44.7 40.64 45.49C42.42 46.34 44.4 46.75 46.37 46.72C47.76 46.72 49.12 46.58 50.48 46.33C51.98 46.06 53.44 45.62 54.83 45.02C55.02 44.94 55.1 44.77 55.1 44.58C55.07 44.11 55.04 43.56 54.99 42.99ZM48.99 41.25C48.67 41.35 48.37 41.41 48.02 41.38C47.67 41.4 47.3 41.43 46.9 41.43C46.16 41.43 45.41 41.32 44.69 41.07C44 40.86 43.39 40.4699 42.88 39.9799C42.35 39.43 41.95 38.78 41.68 38.04C41.36 37.13 41.2 36.18 41.23 35.22C41.23 33.8 41.52 32.6299 42.11 31.75C42.7 30.88 43.47 30.1899 44.38 29.7299C45.31 29.24 46.35 29.02 47.39 29.02C47.68 29.02 47.98 29.04 48.27 29.07C48.51 29.0999 48.75 29.1599 48.99 29.2099V41.25Z" fill="#CB74AF"/>
</g>
<defs>
<clipPath id="clip0_54_754">
<rect width="64" height="64" fill="white"/>
</clipPath>
</defs>
</svg>
