<svg width="64" height="64" viewBox="0 0 64 64" fill="none" xmlns="http://www.w3.org/2000/svg">
<path d="M10.71 40.93C10.71 42.88 9.10999 44.48 7.15999 44.48C5.20999 44.48 3.60999 42.88 3.60999 40.93V24.96C3.60999 23.01 5.20999 21.41 7.15999 21.41C9.10999 21.41 10.71 23.01 10.71 24.96V40.93ZM60.39 40.93C60.39 42.88 58.79 44.48 56.84 44.48C54.89 44.48 53.29 42.88 53.29 40.93V24.96C53.29 23.01 54.89 21.41 56.84 21.41C58.79 21.41 60.39 23.01 60.39 24.96V40.93ZM28.45 60.45C28.45 62.4 26.85 64 24.9 64C22.95 64 21.35 62.4 21.35 60.45V44.48C21.35 42.53 22.95 40.93 24.9 40.93C26.85 40.93 28.45 42.53 28.45 44.48V60.45ZM42.65 60.45C42.65 62.4 41.05 64 39.1 64C37.15 64 35.55 62.4 35.55 60.45V44.48C35.55 42.53 37.15 40.93 39.1 40.93C41.05 40.93 42.65 42.53 42.65 44.48V60.45Z" fill="#7DB342"/>
<path d="M14.26 21.41V48.03C14.26 49.98 15.86 51.58 17.81 51.58H46.2C48.15 51.58 49.75 49.98 49.75 48.03V21.41H14.26ZM32 3.67004C21.35 3.67004 14.79 10.06 14.26 17.87H49.75C49.21 10.06 42.65 3.67004 32 3.67004ZM24.9 13.61C23.84 13.61 23.13 12.9 23.13 11.84C23.13 10.78 23.84 10.07 24.9 10.07C25.96 10.07 26.67 10.78 26.67 11.84C26.68 12.72 25.97 13.61 24.9 13.61ZM39.1 13.61C38.04 13.61 37.33 12.9 37.33 11.84C37.33 10.78 38.04 10.07 39.1 10.07C40.16 10.07 40.87 10.78 40.87 11.84C40.87 12.72 40.16 13.61 39.1 13.61Z" fill="#7DB342"/>
<path d="M39.63 8.11005C39.28 8.11005 38.92 7.93006 38.57 7.76006C37.68 7.23005 37.51 6.16006 38.04 5.28006L41.06 0.840055C41.59 -0.0499451 42.66 -0.219945 43.54 0.310055C44.43 0.840055 44.6 1.91006 44.07 2.79006L41.05 7.23005C40.87 7.75005 40.34 8.11005 39.63 8.11005ZM23.66 7.40005C23.13 7.40005 22.42 7.05006 22.24 6.51006L19.93 2.78006C19.4 1.90006 19.58 0.830055 20.47 0.300055C21.36 -0.229945 22.42 -0.0499451 22.95 0.830055L25.26 4.56005C25.79 5.45005 25.61 6.51005 24.73 7.04005C24.37 7.22005 24.02 7.40005 23.66 7.40005Z" fill="#7DB342"/>
</svg>
