<svg width="600" height="400" viewBox="0 0 600 400" fill="none" xmlns="http://www.w3.org/2000/svg">
<path d="M583.189 105.899H258.307C253.977 105.899 249.825 107.617 246.763 110.677C243.701 113.736 241.98 117.886 241.979 122.214V354.457C241.979 356.6 242.402 358.722 243.222 360.701C244.043 362.681 245.246 364.48 246.762 365.995C248.278 367.51 250.078 368.712 252.059 369.532C254.04 370.352 256.163 370.774 258.307 370.774H599.519V122.214C599.518 120.071 599.095 117.949 598.275 115.969C597.454 113.99 596.251 112.191 594.734 110.676C593.218 109.161 591.418 107.96 589.437 107.14C587.456 106.32 585.333 105.899 583.189 105.899Z" fill="#141414"/>
<path d="M599.519 371.254H258.307C253.851 371.247 249.581 369.476 246.43 366.327C243.279 363.179 241.504 358.91 241.496 354.457V122.214C241.505 117.761 243.279 113.493 246.43 110.345C249.581 107.197 253.852 105.425 258.307 105.418H583.189C587.644 105.425 591.914 107.197 595.065 110.345C598.216 113.493 599.991 117.761 600 122.214V370.773C599.999 370.901 599.949 371.023 599.858 371.113C599.768 371.203 599.646 371.254 599.519 371.254ZM258.307 106.38C254.106 106.384 250.079 108.054 247.108 111.022C244.137 113.99 242.466 118.015 242.46 122.214V354.457C242.465 358.656 244.137 362.681 247.107 365.65C250.078 368.619 254.106 370.289 258.307 370.293H599.027V122.205C599.021 118.007 597.35 113.982 594.379 111.013C591.408 108.045 587.381 106.376 583.18 106.372L258.307 106.38Z" fill="white"/>
<path d="M264.447 362.284C261.972 362.284 259.598 361.301 257.848 359.552C256.097 357.803 255.113 355.431 255.112 352.957V129.493C255.112 128.268 255.354 127.055 255.823 125.923C256.293 124.791 256.98 123.763 257.847 122.897C258.714 122.031 259.743 121.344 260.875 120.875C262.008 120.407 263.221 120.166 264.447 120.166H577.049C578.274 120.166 579.488 120.407 580.62 120.875C581.753 121.344 582.782 122.031 583.649 122.897C584.515 123.763 585.203 124.791 585.672 125.923C586.142 127.055 586.383 128.268 586.384 129.493V351.694C586.383 353.084 586.109 354.46 585.577 355.744C585.044 357.028 584.264 358.194 583.281 359.177C582.298 360.159 581.13 360.939 579.846 361.47C578.561 362.002 577.184 362.275 575.794 362.275L264.447 362.284Z" fill="white"/>
<path d="M575.794 362.765H264.447C261.845 362.762 259.35 361.729 257.51 359.89C255.67 358.051 254.634 355.558 254.631 352.957V129.493C254.634 126.892 255.67 124.398 257.51 122.559C259.35 120.72 261.845 119.686 264.447 119.683H577.049C579.651 119.686 582.146 120.72 583.986 122.559C585.826 124.398 586.861 126.892 586.865 129.493V351.694C586.864 354.629 585.697 357.443 583.621 359.519C581.545 361.595 578.73 362.762 575.794 362.765ZM264.447 120.656C262.1 120.658 259.85 121.591 258.19 123.249C256.531 124.907 255.597 127.156 255.593 129.502V352.957C255.597 355.303 256.531 357.551 258.191 359.209C259.85 360.867 262.1 361.799 264.447 361.801H575.794C578.475 361.8 581.047 360.735 582.943 358.84C584.84 356.945 585.906 354.374 585.907 351.694V129.493C585.901 127.148 584.965 124.901 583.305 123.244C581.645 121.588 579.395 120.657 577.049 120.656H264.447Z" fill="#141414"/>
<path d="M573.296 399.519H177.934C170.979 399.519 164.309 396.757 159.391 391.842C154.474 386.926 151.711 380.259 151.711 373.307H599.519C599.519 380.259 596.756 386.926 591.839 391.842C586.921 396.757 580.251 399.519 573.296 399.519Z" fill="#141414"/>
<path d="M573.296 400H177.934C170.854 399.992 164.066 397.177 159.06 392.173C154.053 387.169 151.238 380.384 151.23 373.307C151.23 373.179 151.281 373.057 151.371 372.967C151.461 372.877 151.583 372.826 151.711 372.826H599.519C599.647 372.826 599.769 372.877 599.859 372.967C599.949 373.057 600 373.179 600 373.307C599.992 380.384 597.177 387.169 592.17 392.173C587.164 397.177 580.376 399.992 573.296 400ZM152.197 373.788C152.33 380.525 155.1 386.942 159.911 391.662C164.722 396.382 171.192 399.03 177.934 399.038H573.296C580.037 399.028 586.505 396.38 591.315 391.66C596.125 386.94 598.893 380.524 599.027 373.788H152.197Z" fill="#141414"/>
<path d="M472.032 80.4546H315.654V275.982H472.032V80.4546Z" fill="white"/>
<path d="M472.032 276.465H315.654C315.527 276.465 315.404 276.415 315.314 276.325C315.224 276.234 315.173 276.112 315.173 275.984V80.4546C315.173 80.3271 315.224 80.2047 315.314 80.1146C315.404 80.0244 315.527 79.9737 315.654 79.9737H472.032C472.159 79.9737 472.282 80.0244 472.372 80.1146C472.462 80.2047 472.513 80.3271 472.513 80.4546V275.984C472.513 276.112 472.462 276.234 472.372 276.325C472.282 276.415 472.159 276.465 472.032 276.465ZM316.135 275.501H471.544V80.9355H316.135V275.501Z" fill="#141414"/>
<path opacity="0.1" d="M452.741 170.78H334.947V183.536H452.741V170.78Z" fill="#141414"/>
<path opacity="0.1" d="M452.741 198.068H334.947V210.824H452.741V198.068Z" fill="#141414"/>
<path opacity="0.1" d="M393.856 153.51C409.97 153.51 423.033 140.513 423.033 124.481C423.033 108.448 409.97 95.4513 393.856 95.4513C377.742 95.4513 364.679 108.448 364.679 124.481C364.679 140.513 377.742 153.51 393.856 153.51Z" fill="#141414"/>
<path d="M293.998 80.4546H137.62V275.982H293.998V80.4546Z" fill="white"/>
<path d="M294 276.465H137.622C137.495 276.465 137.372 276.415 137.281 276.325C137.191 276.235 137.14 276.112 137.139 275.984V80.4546C137.14 80.3268 137.191 80.2045 137.281 80.1144C137.372 80.0243 137.495 79.9737 137.622 79.9737H294C294.127 79.9743 294.249 80.0251 294.339 80.1152C294.429 80.2052 294.48 80.3272 294.481 80.4546V275.984C294.48 276.112 294.429 276.234 294.339 276.324C294.249 276.414 294.127 276.465 294 276.465ZM138.103 275.501H293.519V80.9355H138.103V275.501Z" fill="#141414"/>
<path opacity="0.1" d="M274.707 170.78H156.913V183.536H274.707V170.78Z" fill="#141414"/>
<path opacity="0.1" d="M274.707 198.068H156.913V210.824H274.707V198.068Z" fill="#141414"/>
<path opacity="0.1" d="M215.824 153.51C231.938 153.51 245.001 140.513 245.001 124.481C245.001 108.448 231.938 95.4513 215.824 95.4513C199.71 95.4513 186.647 108.448 186.647 124.481C186.647 140.513 199.71 153.51 215.824 153.51Z" fill="#141414"/>
<path d="M395.449 0.5V227.371H214.203V0.5H395.449Z" fill="white" stroke="black"/>
<path d="M373.466 109.274H236.189V124.142H373.466V109.274Z" fill="#141414"/>
<path d="M373.466 141.075H236.189V155.943H373.466V141.075Z" fill="#141414"/>
<path d="M304.537 88.5704C323.147 88.5704 338.234 73.5605 338.234 55.0448C338.234 36.5291 323.147 21.5191 304.537 21.5191C285.927 21.5191 270.841 36.5291 270.841 55.0448C270.841 73.5605 285.927 88.5704 304.537 88.5704Z" fill="#141414"/>
<mask id="mask0_153_286" style="mask-type:luminance" maskUnits="userSpaceOnUse" x="275" y="25" width="60" height="60">
<path d="M304.537 84.4087C320.837 84.4087 334.051 71.262 334.051 55.0448C334.051 38.8275 320.837 25.6809 304.537 25.6809C288.237 25.6809 275.024 38.8275 275.024 55.0448C275.024 71.262 288.237 84.4087 304.537 84.4087Z" fill="white"/>
</mask>
<g mask="url(#mask0_153_286)">
<path d="M322.986 87.2742H286.088C286.023 87.2741 285.959 87.2609 285.898 87.2354C285.838 87.2099 285.784 87.1725 285.739 87.1256C285.694 87.0782 285.659 87.0222 285.636 86.9609C285.614 86.8997 285.604 86.8345 285.607 86.7693L287.442 50.2666C288.028 38.6426 295.533 29.5366 304.537 29.5366C313.542 29.5366 321.047 38.6426 321.631 50.2688L323.467 86.7715C323.47 86.8366 323.46 86.9016 323.437 86.9626C323.414 87.0236 323.38 87.0793 323.335 87.1265C323.29 87.1737 323.236 87.2113 323.176 87.237C323.116 87.2628 323.051 87.2762 322.986 87.2764V87.2742ZM286.594 86.3125H322.479L320.664 50.3169C320.104 39.2065 313.011 30.5027 304.531 30.5027C296.051 30.5027 288.957 39.2065 288.398 50.3169L286.594 86.3125Z" fill="white"/>
<path d="M321.23 69.2065L304.537 65.3813L287.844 69.2065C285.644 69.709 283.617 70.7895 281.974 72.3365C280.331 73.8835 279.13 75.8408 278.496 78.0065L274.873 97.0491H334.2L330.576 78.0087C329.943 75.8429 328.743 73.8853 327.1 72.3379C325.457 70.7906 323.431 69.7095 321.23 69.2065Z" fill="white"/>
<path d="M297.339 55.0994H311.734V69.9628C311.734 71.4729 311.134 72.9212 310.065 73.989C308.997 75.0569 307.548 75.6568 306.037 75.6568H303.037C301.527 75.6568 300.078 75.0569 299.009 73.989C297.941 72.9212 297.341 71.4729 297.341 69.9628V55.0994H297.339Z" fill="white"/>
<path d="M316.592 45.8098C316.078 45.6848 315.537 45.7222 315.044 45.9169C314.627 39.2896 310.085 34.7956 304.548 34.7956C299.012 34.7956 294.457 39.2896 294.039 45.9169C293.547 45.7221 293.007 45.6847 292.493 45.8098C290.934 46.1945 290.042 47.9956 290.499 49.812C290.956 51.6284 292.587 52.8087 294.144 52.4349C294.389 52.372 294.624 52.2725 294.839 52.1398C296.444 57.0338 300.186 60.7803 304.548 60.7803C308.911 60.7803 312.639 57.0338 314.255 52.1398C314.471 52.2721 314.705 52.3716 314.95 52.4349C316.507 52.8196 318.141 51.6502 318.595 49.812C319.05 47.9737 318.149 46.1945 316.592 45.8098Z" fill="white"/>
<path d="M304.537 61.2502C300.356 61.2502 296.396 57.8753 294.551 52.7978C294.452 52.8343 294.351 52.865 294.249 52.8896C292.438 53.3267 290.532 52.0152 290.022 49.93C289.743 48.8727 289.892 47.7479 290.438 46.7999C290.647 46.4415 290.925 46.1281 291.256 45.8778C291.587 45.6276 291.964 45.4455 292.366 45.342C292.768 45.2418 293.187 45.2277 293.595 45.3005C294.251 38.9005 298.767 34.3147 304.529 34.3147C310.29 34.3147 314.821 38.9049 315.462 45.3005C315.871 45.2277 316.29 45.2419 316.693 45.342C317.095 45.4458 317.472 45.6281 317.802 45.8783C318.133 46.1286 318.411 46.4418 318.619 46.7999C319.166 47.7476 319.316 48.8724 319.037 49.93C318.517 52.0109 316.619 53.3376 314.808 52.8896C314.706 52.865 314.605 52.8343 314.506 52.7978C312.676 57.8753 308.716 61.2502 304.537 61.2502ZM294.829 51.648C294.886 51.6484 294.943 51.6588 294.997 51.6786C295.065 51.7037 295.127 51.7439 295.177 51.7961C295.227 51.8484 295.265 51.9113 295.288 51.9803C296.917 56.9486 300.634 60.2863 304.537 60.2863C308.441 60.2863 312.158 56.9464 313.787 51.9803C313.809 51.9114 313.847 51.8486 313.897 51.7963C313.948 51.7441 314.009 51.7039 314.077 51.6787C314.145 51.6535 314.217 51.6439 314.29 51.6507C314.362 51.6575 314.431 51.6805 314.493 51.718C314.668 51.825 314.857 51.9053 315.055 51.9562C316.352 52.2754 317.727 51.2633 318.117 49.6961C318.334 48.8853 318.224 48.0214 317.808 47.2917C317.664 47.0421 317.472 46.8234 317.243 46.6482C317.014 46.473 316.753 46.3448 316.474 46.271C316.055 46.1719 315.615 46.204 315.215 46.3628C315.144 46.3904 315.067 46.4007 314.991 46.3927C314.915 46.3847 314.842 46.3587 314.778 46.3169C314.714 46.2764 314.661 46.2214 314.623 46.1564C314.585 46.0914 314.563 46.0183 314.559 45.9431C314.167 39.7595 309.952 35.2743 304.531 35.2743C299.11 35.2743 294.892 39.7595 294.503 45.9431C294.498 46.0187 294.475 46.0922 294.437 46.1575C294.398 46.2227 294.345 46.278 294.281 46.3189C294.217 46.3597 294.145 46.385 294.069 46.3926C293.994 46.4003 293.917 46.39 293.847 46.3628C293.446 46.2041 293.007 46.1721 292.587 46.271C292.309 46.3448 292.047 46.473 291.818 46.6482C291.589 46.8234 291.397 47.0421 291.253 47.2917C290.837 48.021 290.726 48.8854 290.945 49.6961C291.336 51.2611 292.71 52.2754 294.006 51.9562C294.205 51.9053 294.394 51.825 294.568 51.718C294.647 51.6707 294.737 51.6464 294.829 51.648Z" fill="#141414"/>
<path d="M293.853 47.5803C299.101 46.5967 304.585 41.9409 307.874 37.7442C308.517 41.4601 311.832 45.8316 315.309 47.3617C315.309 47.3617 316.964 32.5289 304.54 33.0076C292.115 33.4863 293.853 47.5803 293.853 47.5803Z" fill="#141414"/>
</g>
<path d="M4.12623 395.877C4.09424 395.88 4.06201 395.88 4.03002 395.877C3.90509 395.852 3.79531 395.778 3.72479 395.672C3.65427 395.566 3.62878 395.436 3.65391 395.311L42.4039 203.158C42.4291 203.033 42.503 202.923 42.6095 202.852C42.7159 202.782 42.846 202.756 42.9713 202.781C43.0966 202.806 43.2067 202.88 43.2774 202.987C43.3482 203.093 43.3737 203.223 43.3485 203.348L4.59855 395.49C4.57678 395.6 4.5178 395.698 4.43167 395.768C4.34554 395.839 4.23759 395.877 4.12623 395.877Z" fill="#141414"/>
<path d="M5.79662e-07 395.396C-0.000431952 396.212 0.241204 397.01 0.694339 397.689C1.14747 398.367 1.79175 398.896 2.54569 399.209C3.29962 399.521 4.12934 399.603 4.92989 399.444C5.73045 399.285 6.46588 398.893 7.04317 398.316C7.62045 397.739 8.01366 397.004 8.17305 396.204C8.33244 395.404 8.25085 394.574 7.93861 393.821C7.62637 393.067 7.0975 392.423 6.4189 391.969C5.74029 391.516 4.94244 391.274 4.12625 391.274C3.03228 391.274 1.98309 391.708 1.20933 392.481C0.43557 393.254 0.00058032 394.303 5.79662e-07 395.396Z" fill="#141414"/>
<path d="M102.356 395.877C102.244 395.877 102.136 395.839 102.05 395.768C101.964 395.698 101.905 395.6 101.883 395.49L63.1335 203.34C63.121 203.278 63.1209 203.214 63.133 203.152C63.1452 203.09 63.1695 203.031 63.2046 202.978C63.2396 202.925 63.2847 202.88 63.3372 202.845C63.3897 202.81 63.4487 202.785 63.5107 202.773C63.5727 202.76 63.6366 202.76 63.6987 202.772C63.7608 202.784 63.8199 202.809 63.8725 202.844C63.9252 202.879 63.9705 202.924 64.0058 202.976C64.0411 203.029 64.0657 203.088 64.0781 203.15L102.828 395.302C102.853 395.427 102.828 395.557 102.757 395.663C102.687 395.769 102.577 395.843 102.452 395.869C102.42 395.875 102.388 395.878 102.356 395.877Z" fill="#141414"/>
<path d="M106.482 395.396C106.482 396.212 106.241 397.01 105.788 397.689C105.335 398.367 104.69 398.896 103.936 399.209C103.182 399.521 102.353 399.603 101.552 399.444C100.752 399.285 100.016 398.893 99.4388 398.316C98.8616 397.739 98.4684 397.004 98.309 396.204C98.1496 395.404 98.2312 394.574 98.5434 393.821C98.8557 393.067 99.3845 392.423 100.063 391.969C100.742 391.516 101.54 391.274 102.356 391.274C103.45 391.274 104.499 391.708 105.273 392.481C106.046 393.254 106.481 394.303 106.482 395.396Z" fill="#141414"/>
<path d="M59.2937 334.555H18.3527C18.2251 334.555 18.1028 334.504 18.0125 334.414C17.9223 334.324 17.8716 334.202 17.8716 334.074C17.8716 333.947 17.9223 333.824 18.0125 333.734C18.1028 333.644 18.2251 333.593 18.3527 333.593H59.2937C59.4213 333.593 59.5437 333.644 59.6339 333.734C59.7241 333.824 59.7748 333.947 59.7748 334.074C59.7748 334.202 59.7241 334.324 59.6339 334.414C59.5437 334.504 59.4213 334.555 59.2937 334.555Z" fill="#141414"/>
<path d="M59.7791 343.48H21.8273C21.7051 343.471 21.5905 343.417 21.5068 343.327C21.4231 343.238 21.3766 343.12 21.3766 342.998C21.3766 342.875 21.4231 342.757 21.5068 342.668C21.5905 342.578 21.7051 342.524 21.8273 342.516H59.7791C59.9014 342.524 60.016 342.578 60.0997 342.668C60.1834 342.757 60.2299 342.875 60.2299 342.998C60.2299 343.12 60.1834 343.238 60.0997 343.327C60.016 343.417 59.9014 343.471 59.7791 343.48Z" fill="#141414"/>
<path d="M180.846 113.899C181.284 114.208 181.721 114.507 182.158 114.804C188.621 105.403 194.367 95.5301 199.348 85.2677C207.701 80.9398 203.754 77.4447 203.754 77.4447C205.634 72.9136 201.878 71.93 201.878 71.93C201.596 66.0874 196.192 67.6852 196.192 67.6852C201.222 62.2316 204.72 52.6164 190.866 63.2415C182.764 69.4535 171.782 81.5213 161.873 92.3518C166.193 101.01 172.972 108.339 180.846 113.899Z" fill="white"/>
<path d="M183.142 113.86C183.044 113.86 182.947 113.83 182.867 113.773C182.762 113.7 182.691 113.588 182.668 113.463C182.646 113.338 182.674 113.208 182.746 113.104C186.525 107.692 189.602 102.149 192.858 96.2732C194.764 92.8371 196.735 89.2786 198.897 85.6874C199.418 84.9027 200.257 84.2885 201.145 83.6393C202.072 82.9595 203.032 82.2579 203.741 81.3136L203.787 81.2611C203.984 81.0466 204.133 80.7921 204.223 80.5148C204.313 80.2376 204.343 79.9442 204.309 79.6546C204.228 78.8759 203.872 78.1516 203.306 77.6109C203.255 77.5606 203.216 77.4998 203.192 77.4328C203.168 77.3658 203.159 77.2942 203.166 77.2233C203.173 77.1524 203.195 77.0839 203.232 77.0228C203.269 76.9617 203.318 76.9094 203.378 76.8699C204.252 76.2841 203.946 75.5169 203.378 74.4152C203.323 74.3103 203.271 74.212 203.222 74.1158L203.196 74.0524C202.934 73.2633 202.337 72.2754 201.705 71.2306C201.237 70.459 200.754 69.6611 200.347 68.8502C199.715 67.9322 198.545 68.0131 197.194 68.1071C196.866 68.1289 196.538 68.153 196.219 68.1595H196.14C196.091 68.1524 196.044 68.1384 196 68.118C195.954 68.0957 195.912 68.067 195.875 68.0327C195.843 68.0012 195.816 67.966 195.792 67.9278C195.773 67.8932 195.757 67.8566 195.746 67.8185C195.733 67.7709 195.727 67.7215 195.729 67.6721C195.731 67.6128 195.744 67.5544 195.766 67.4994C195.774 67.4805 195.784 67.4623 195.794 67.4448C196.333 66.5653 196.931 65.724 197.585 64.9267C199.149 62.9311 200.629 61.0404 199.958 58.9945C196.711 59.1103 194.272 60.9617 191.718 62.8939C191.15 63.3311 190.577 63.7573 189.991 64.177C181.382 71.9191 172.935 80.5704 163.438 91.3726C163.398 91.4241 163.347 91.4667 163.29 91.498C163.232 91.5293 163.169 91.5486 163.104 91.5546C163.039 91.5606 162.973 91.5533 162.911 91.5331C162.849 91.5129 162.791 91.4802 162.742 91.437C162.693 91.3938 162.653 91.3411 162.625 91.282C162.597 91.2229 162.581 91.1587 162.579 91.0934C162.577 91.028 162.588 90.9628 162.611 90.9019C162.635 90.8409 162.671 90.7854 162.717 90.7387C172.255 79.8885 180.724 71.2174 189.368 63.4426L189.409 63.4098C189.997 62.9901 190.568 62.5573 191.137 62.1267C193.798 60.1092 196.551 58.024 200.288 58.024C200.381 58.0248 200.473 58.0529 200.55 58.105C200.628 58.1571 200.689 58.2307 200.725 58.3169C201.878 61.0032 199.999 63.4032 198.34 65.53C198.121 65.8032 197.902 66.0743 197.712 66.3387C197.794 66.3928 197.86 66.4681 197.903 66.5566C197.945 66.6452 197.963 66.7436 197.955 66.8415C197.945 66.9388 197.916 67.0332 197.869 67.1191C199.114 67.0688 200.384 67.1846 201.167 68.3562C201.167 68.3737 201.187 68.3912 201.195 68.4087C201.589 69.1934 202.07 69.9846 202.531 70.7497C203.187 71.8295 203.8 72.848 204.101 73.7311L204.233 73.9868C204.67 74.7999 205.418 76.2491 204.349 77.3398C204.88 77.9814 205.204 78.7684 205.28 79.5978C205.324 80.02 205.277 80.4466 205.143 80.8494C205.009 81.2523 204.791 81.6221 204.504 81.9344C203.71 82.9792 202.656 83.7529 201.725 84.4349C200.907 85.0316 200.135 85.5978 199.722 86.2185C197.581 89.7835 195.613 93.3289 193.71 96.7584C190.441 102.66 187.356 108.212 183.549 113.665C183.502 113.728 183.44 113.779 183.37 113.813C183.299 113.847 183.221 113.863 183.142 113.86Z" fill="#141414"/>
<path d="M183.715 86.9333C183.373 86.935 183.032 86.8804 182.707 86.7715C182.586 86.7306 182.486 86.6434 182.43 86.5291C182.373 86.4147 182.364 86.2825 182.405 86.1617C182.446 86.0408 182.533 85.9411 182.648 85.8846C182.762 85.828 182.895 85.8192 183.015 85.86C184.218 86.2666 185.484 85.53 186.204 84.7781C186.923 84.0262 187.395 83.1169 187.905 82.1442C188.034 81.8994 188.163 81.6546 188.294 81.412C188.911 80.2885 189.796 78.9092 191.209 78.2163C191.871 77.9228 192.57 77.7185 193.286 77.6087C193.588 77.5497 193.89 77.4906 194.187 77.4141C194.928 77.2262 195.882 76.8327 196.227 76.0305C196.665 75.0185 195.84 73.7573 194.813 73.3092C193.667 72.8087 192.304 72.9639 190.999 73.2065C187.352 73.8863 184.22 75.071 181.708 76.73C181.655 76.7647 181.596 76.7887 181.534 76.8006C181.472 76.8125 181.408 76.812 181.346 76.7992C181.284 76.7864 181.225 76.7616 181.173 76.7261C181.12 76.6906 181.076 76.6451 181.041 76.5923C181.006 76.5395 180.982 76.4803 180.97 76.4182C180.958 76.3562 180.959 76.2923 180.972 76.2304C180.984 76.1685 181.009 76.1098 181.045 76.0575C181.08 76.0052 181.126 75.9604 181.179 75.9256C183.803 74.1967 187.048 72.9639 190.824 72.2601C192.278 71.989 193.815 71.8229 195.197 72.4262C196.641 73.0579 197.782 74.8502 197.111 76.4131C196.61 77.5737 195.361 78.1049 194.423 78.3475C194.108 78.4284 193.789 78.4917 193.47 78.5529C192.837 78.6482 192.219 78.8253 191.631 79.0797C190.461 79.6546 189.685 80.8743 189.138 81.8753C189.007 82.1114 188.882 82.3518 188.755 82.5923C188.237 83.5803 187.699 84.601 186.899 85.4338C185.985 86.4021 184.815 86.9333 183.715 86.9333Z" fill="#141414"/>
<path d="M193.225 81.2109C192.973 81.2119 192.721 81.1795 192.477 81.1147C191.511 80.8546 190.645 79.8557 190.896 78.7846C190.908 78.7207 190.933 78.6598 190.969 78.6057C191.005 78.5516 191.051 78.5053 191.106 78.4697C191.16 78.4342 191.221 78.41 191.286 78.3987C191.35 78.3874 191.415 78.3892 191.479 78.404C191.542 78.4187 191.602 78.4462 191.654 78.4847C191.707 78.5233 191.751 78.572 191.784 78.628C191.817 78.684 191.838 78.7462 191.846 78.8107C191.855 78.8751 191.85 78.9406 191.832 79.0032C191.714 79.5081 192.208 80.0437 192.729 80.1835C193.249 80.3234 193.89 80.2294 194.725 79.8775C196.209 79.2399 197.519 78.2583 198.548 77.0139C199.577 75.7694 200.295 74.298 200.642 72.7213C200.669 72.5963 200.744 72.4871 200.851 72.4176C200.959 72.3481 201.089 72.3241 201.214 72.3508C201.339 72.3774 201.448 72.4526 201.518 72.5598C201.587 72.667 201.611 72.7974 201.585 72.9223C201.204 74.65 200.418 76.2624 199.29 77.6261C198.163 78.9898 196.727 80.0658 195.101 80.765C194.511 81.0353 193.874 81.1868 193.225 81.2109Z" fill="#141414"/>
<path d="M196.84 82.424C196.534 82.4256 196.23 82.3807 195.939 82.2906C195.081 82.0174 194.463 81.2721 194.436 80.4764C194.434 80.4134 194.444 80.3505 194.466 80.2914C194.488 80.2323 194.522 80.1781 194.565 80.132C194.608 80.0859 194.66 80.0487 194.717 80.0227C194.775 79.9967 194.837 79.9822 194.9 79.9803H194.917C195.042 79.9802 195.162 80.0284 195.252 80.1149C195.341 80.2013 195.394 80.3192 195.399 80.4437C195.414 80.8808 195.836 81.2458 196.232 81.3726C196.627 81.4994 197.174 81.4885 197.856 81.307C199.818 80.7852 201.499 79.5207 202.545 77.7814C202.61 77.6718 202.716 77.5927 202.84 77.5616C202.964 77.5304 203.095 77.5497 203.205 77.6152C203.315 77.6808 203.394 77.7871 203.425 77.9109C203.456 78.0347 203.437 78.1658 203.371 78.2753C202.197 80.2308 200.306 81.6522 198.101 82.2382C197.691 82.3546 197.266 82.417 196.84 82.424Z" fill="#141414"/>
<path d="M199.206 84.7169C198.858 84.7219 198.515 84.6429 198.204 84.4866C197.894 84.3303 197.626 84.1014 197.423 83.8194C197.221 83.5373 197.089 83.2105 197.04 82.8667C196.991 82.5228 197.026 82.1723 197.141 81.8448C197.16 81.7827 197.191 81.725 197.233 81.6753C197.275 81.6255 197.326 81.5847 197.384 81.5553C197.442 81.5259 197.505 81.5085 197.569 81.5041C197.634 81.4998 197.699 81.5086 197.76 81.53C197.822 81.5514 197.878 81.5849 197.926 81.6286C197.974 81.6724 198.013 81.7253 198.039 81.7843C198.066 81.8433 198.081 81.9072 198.083 81.9721C198.084 82.0369 198.073 82.1014 198.049 82.1617C197.975 82.3705 197.96 82.5958 198.006 82.8125C198.052 83.0292 198.157 83.2289 198.31 83.3897C198.462 83.5505 198.656 83.666 198.87 83.7236C199.084 83.7811 199.31 83.7784 199.523 83.7158C199.645 83.6787 199.777 83.6917 199.89 83.752C200.003 83.8122 200.087 83.9148 200.124 84.0371C200.161 84.1594 200.148 84.2915 200.088 84.4042C200.027 84.5169 199.925 84.6011 199.802 84.6382C199.608 84.6929 199.407 84.7194 199.206 84.7169Z" fill="#141414"/>
<path d="M39.1304 210.621C48.7124 211.034 69.2846 210.798 84.1999 210.542C88.7953 210.466 93.2103 208.741 96.6399 205.682C100.069 202.624 102.285 198.435 102.883 193.88C104.942 178.444 108.631 163.269 113.888 148.61C123.553 150.885 146.113 151.755 161.398 139.29C171.31 131.202 182.628 118.208 190.699 101.399C182.72 99.9256 175.078 94.6928 167.752 85.9431C167.752 85.9431 152.678 100.758 143.579 108.817C141.904 110.298 139.946 111.424 137.823 112.127C135.7 112.83 133.457 113.096 131.229 112.907C120.245 111.982 99.6815 110.267 95.5858 110.02C84.6328 109.364 65.3639 108.837 48.4063 111.69C45.5209 112.175 42.7984 113.359 40.477 115.14C38.1555 116.92 36.3057 119.241 35.0895 121.902C30.5652 131.786 22.9425 148.804 17.782 162.295C14.3227 171.342 18.8228 181.639 27.9478 184.909C28.4848 185.106 29.035 185.266 29.5944 185.386C29.5944 185.386 28.0156 192.492 28.6016 200.428C28.8018 203.122 29.9848 205.648 31.9259 207.527C33.8669 209.406 36.4308 210.507 39.1304 210.621Z" fill="white"/>
<path d="M42.1884 190.165C50.9623 190.371 64.7923 190.635 73.4629 190.497L73.4619 190.496C75.9954 190.457 78.5111 190.932 80.8564 191.891C83.0553 192.79 85.0623 194.097 86.7715 195.743L87.1084 196.076H87.1093C98.3782 207.473 120.897 230.311 138.675 248.725L142.162 252.344C147.339 257.725 150.428 264.774 150.874 272.226C151.306 279.445 149.231 286.584 145.012 292.441L144.597 293.003C136.713 303.46 127.051 316.115 118.283 327.156C109.678 337.991 101.959 347.236 97.625 351.34C95.278 350.117 92.9691 348.827 90.7148 347.448L89.7099 346.825C82.0294 341.998 74.9103 336.02 69.04 329.097L68.4756 328.424L68.4746 328.422L67.8652 327.681C67.3385 327.03 66.8243 326.365 66.3242 325.688L102.559 278.376L102.84 278.008L102.495 277.7L51.292 231.848C46.4418 227.506 42.4987 222.248 39.6904 216.376C36.9699 210.688 35.3661 204.533 34.9638 198.244L34.9287 197.635C34.8781 196.659 35.0299 195.683 35.374 194.768C35.7181 193.853 36.2473 193.019 36.9287 192.318C37.6101 191.617 38.4289 191.063 39.334 190.693C40.2389 190.323 41.2109 190.143 42.1884 190.165Z" fill="white" stroke="#141414"/>
<path d="M87.3744 204.122C111.805 253.011 179.828 366.131 187.739 379.259C182.302 380.395 149.019 387.477 139.723 389.231L47.0648 236.501C41.2693 226.948 37.4209 216.348 35.7367 205.311L35.5805 204.242V204.241L35.5395 203.892C35.3765 202.15 35.8388 200.401 36.851 198.964C37.9133 197.456 39.5025 196.402 41.3031 196.008L87.3744 204.122Z" fill="white" stroke="#141414"/>
<path d="M168.072 85.9409C168.072 85.9409 152.984 100.756 143.896 108.815C142.221 110.296 140.264 111.422 138.141 112.125C136.019 112.828 133.776 113.093 131.548 112.905C120.564 111.98 99.9985 110.264 95.9051 110.017C84.9499 109.362 65.681 108.835 48.7255 111.687C45.84 112.173 43.1175 113.358 40.7957 115.138C38.4739 116.918 36.6236 119.239 35.4065 121.899C30.8823 131.784 23.2618 148.802 18.1012 162.293C14.6397 171.34 19.1421 181.637 28.2671 184.907C28.804 185.104 29.3542 185.264 29.9136 185.383C29.9136 185.383 28.3349 192.489 28.9209 200.426C29.1203 203.118 30.3015 205.644 32.2404 207.523C34.1792 209.402 36.7407 210.504 39.4387 210.621C49.0229 211.034 69.5951 210.798 84.5082 210.542C89.1053 210.468 93.5227 208.745 96.9541 205.686C100.386 202.627 102.602 198.437 103.2 193.88C105.26 178.444 108.949 163.269 114.205 148.61C123.873 150.885 146.43 151.755 161.715 139.29C171.629 131.202 182.945 118.208 191.016 101.399C183.037 99.9234 175.395 94.6906 168.072 85.9409Z" fill="url(#paint0_linear_153_286)"/>
<path d="M101.14 153.48C101.118 153.625 101.059 153.763 100.97 153.88C100.886 153.999 100.777 154.098 100.65 154.17C100.241 154.321 99.9288 154.579 99.5 154.5L91 153.93C90.8983 153.921 90.7864 153.646 90.6998 153.7C90.6132 153.754 90.5465 153.835 90.51 153.93C90.4799 154.028 90.4799 154.132 90.51 154.23C90.541 154.331 90.6 154.421 90.68 154.49C91.717 155.141 92.9158 155.487 94.14 155.49C95.1632 155.458 96.1661 155.779 96.98 156.4C97.1638 156.579 97.2982 156.803 97.37 157.05C97.4301 157.293 97.4301 157.547 97.37 157.79C97.3593 157.935 97.3072 158.074 97.22 158.19C97.1418 158.308 97.0353 158.404 96.91 158.47C96.5385 158.59 96.382 159.081 96 159L89 158C88.8995 157.99 88.7382 157.79 88.65 157.84C88.5593 157.887 88.4884 157.965 88.4501 158.06C88.42 158.158 88.42 158.262 88.4501 158.36C88.4702 158.458 88.523 158.546 88.6 158.61C89.4196 159.261 90.3616 159.74 91.37 160.02L91.62 160.1C92.5656 160.341 93.4226 160.848 94.09 161.56C94.3585 161.863 94.5047 162.255 94.5 162.66C94.5009 163.064 94.3552 163.455 94.09 163.76C93.3169 164.072 92.273 164.312 91.5 164C87.19 163.07 82.82 165.04 78.94 167.66C77.41 168.66 75.94 169.77 74.41 170.77C70.5 173.47 66.67 176.56 62.5 179H62C59.19 172.33 56.69 164.89 54.5 158C57.12 156.88 59.98 155.87 62.53 154.68C64.58 153.68 66.7 152.68 68.8 151.79C76.62 148.33 86.9 144.59 97.05 146.45C97.8881 146.55 98.6921 146.84 99.4 147.3C100.18 147.89 100.4 148.21 100.24 148.8C100.08 149.39 99.5 149.73 98.5 149.73C98.3847 149.723 98.2408 149.658 98.15 149.73C98.0588 149.802 97.998 149.905 97.98 150.02C97.9596 150.134 97.981 150.251 98.04 150.35C98.1011 150.443 98.188 150.516 98.29 150.56C99.2671 150.799 100.155 151.312 100.85 152.04C101.003 152.244 101.109 152.48 101.16 152.73C101.204 152.979 101.197 153.234 101.14 153.48Z" fill="white"/>
<path d="M54.8242 211.327C48.6534 211.327 43.1955 211.265 39.4278 211.108C36.6118 210.987 33.9383 209.836 31.9149 207.875C29.8914 205.913 28.6587 203.277 28.4508 200.468C27.95 193.709 29.0237 187.473 29.3582 185.753C28.9602 185.65 28.5426 185.521 28.1118 185.368C25.9135 184.581 23.896 183.361 22.1793 181.779C20.4626 180.197 19.0817 178.286 18.1187 176.159C17.1182 173.967 16.5624 171.598 16.4836 169.189C16.4048 166.78 16.8044 164.38 17.6595 162.127C22.9075 148.411 30.7621 130.914 34.978 121.705C36.226 118.972 38.1255 116.586 40.51 114.757C42.8945 112.928 45.6914 111.711 48.6556 111.213C65.9106 108.31 85.689 108.916 95.9423 109.537C100.005 109.781 120.02 111.451 131.585 112.424C133.748 112.603 135.925 112.344 137.985 111.662C140.045 110.979 141.946 109.889 143.574 108.455C152.559 100.496 167.58 85.7464 167.731 85.5978C167.777 85.5505 167.834 85.5137 167.896 85.49C167.958 85.4662 168.025 85.456 168.091 85.4601C168.158 85.4635 168.223 85.4806 168.283 85.5103C168.343 85.54 168.396 85.5817 168.439 85.6327C175.736 94.3475 183.361 99.4928 191.104 100.933C191.177 100.947 191.245 100.977 191.305 101.021C191.364 101.065 191.412 101.123 191.445 101.189C191.479 101.255 191.497 101.328 191.497 101.402C191.498 101.476 191.482 101.549 191.449 101.615C181.811 121.703 168.87 134.074 162.019 139.672C146.662 152.197 124.496 151.412 114.516 149.185C109.354 163.689 105.722 178.693 103.679 193.952C102.424 203.526 94.1907 210.87 84.5257 211.036C75.2739 211.182 64.2225 211.327 54.8242 211.327ZM79.0087 109.985C69.6673 109.985 58.8126 110.481 48.8152 112.17C46.007 112.642 43.3572 113.794 41.0978 115.526C38.8384 117.259 37.0382 119.518 35.8548 122.107C31.6433 131.305 23.7975 148.774 18.5604 162.474C17.7517 164.608 17.374 166.88 17.449 169.161C17.5241 171.441 18.0505 173.684 18.9978 175.759C19.9079 177.769 21.2129 179.575 22.8354 181.07C24.4578 182.566 26.3645 183.719 28.442 184.463C28.9588 184.652 29.4877 184.805 30.0251 184.922C30.0875 184.935 30.1467 184.96 30.1992 184.996C30.2518 185.032 30.2966 185.079 30.3312 185.132C30.3658 185.186 30.3894 185.245 30.4007 185.308C30.412 185.371 30.4107 185.435 30.3969 185.497C30.3816 185.567 28.84 192.632 29.4151 200.4C29.6061 202.974 30.7358 205.389 32.5899 207.186C34.4441 208.983 36.8936 210.037 39.4737 210.148C48.9551 210.557 69.1993 210.332 84.5191 210.07C93.7031 209.912 101.538 202.929 102.732 193.825C104.804 178.356 108.501 163.149 113.761 148.455C113.802 148.343 113.881 148.251 113.985 148.194C114.089 148.138 114.21 148.122 114.326 148.149C125.478 150.771 147.242 150.487 161.42 138.925C168.144 133.44 180.783 121.355 190.323 101.766C182.685 100.149 175.189 95.0819 168.035 86.6491C165.658 88.977 152.426 101.902 144.213 109.174C142.489 110.694 140.476 111.85 138.295 112.573C136.113 113.297 133.808 113.572 131.517 113.384C119.954 112.411 99.9483 110.741 95.8942 110.496C91.6214 110.238 85.7043 109.985 79.0087 109.985Z" fill="#141414"/>
<path d="M102.04 153.67C101.988 153.953 101.872 154.219 101.7 154.45C101.526 154.682 101.305 154.873 101.05 155.01C100.484 155.243 99.8656 155.319 99.26 155.23L96.63 155.01C97.0026 155.155 97.3426 155.372 97.63 155.65C97.9185 155.942 98.134 156.298 98.2591 156.689C98.3843 157.08 98.4153 157.495 98.35 157.9C98.3151 158.198 98.2012 158.481 98.02 158.72C97.8471 158.966 97.6126 159.163 97.34 159.29C96.8084 159.481 96.2361 159.529 95.68 159.43L91.4401 158.96L91.6901 159.05L91.93 159.13C93.0602 159.429 94.0785 160.051 94.86 160.92C95.2714 161.433 95.4778 162.079 95.439 162.735C95.4002 163.391 95.119 164.01 94.65 164.47C93.65 165.2 92.5001 164.92 91.4401 164.69L91.03 164.59C87.13 163.75 83.16 165.95 79.46 168.46C77.95 169.46 76.4601 170.46 74.9501 171.57C69.1701 175.57 63.19 179.72 56.72 182.76C50.8356 185.641 44.3995 187.22 37.85 187.39C35.3296 187.391 32.8182 187.089 30.37 186.49L30.2001 186.41C30.1517 186.368 30.1081 186.321 30.0701 186.27C30.0412 186.213 30.0209 186.153 30.01 186.09C29.9997 186.027 29.9997 185.963 30.01 185.9C30.0443 185.779 30.1228 185.676 30.23 185.61C30.2827 185.576 30.3419 185.553 30.4038 185.543C30.4657 185.533 30.529 185.535 30.59 185.55C40.24 187.97 49.9001 184.9 56.3101 181.88C58.0501 181.06 59.7601 180.163 61.4401 179.19L62.25 178.73C66.42 176.29 70.4199 173.51 74.3299 170.81C75.8399 169.81 77.33 168.73 78.86 167.7C82.74 165.08 86.86 162.77 91.17 163.7L91.6 163.8C92.373 164.112 93.237 164.112 94.01 163.8C94.2753 163.495 94.421 163.104 94.42 162.7C94.4247 162.295 94.2785 161.903 94.01 161.6C93.3426 160.888 92.4857 160.381 91.54 160.14L91.29 160.06C90.2817 159.78 89.3397 159.301 88.52 158.65C88.4431 158.586 88.3901 158.498 88.37 158.4C88.3399 158.302 88.3399 158.198 88.37 158.1C88.4084 158.005 88.4794 157.927 88.5701 157.88C88.6582 157.831 88.7594 157.81 88.86 157.82L95.68 158.57C96.0621 158.651 96.4584 158.63 96.8299 158.51C96.9552 158.444 97.0619 158.348 97.14 158.23C97.2272 158.114 97.2793 157.975 97.29 157.83C97.3502 157.587 97.3502 157.333 97.29 157.09C97.2182 156.843 97.0839 156.62 96.9 156.44C96.0862 155.819 95.0832 155.498 94.0601 155.53C92.8359 155.527 91.637 155.181 90.6 154.53C90.5199 154.461 90.4611 154.371 90.43 154.27C90.4 154.172 90.4 154.068 90.43 153.97C90.4666 153.875 90.5331 153.794 90.6197 153.74C90.7063 153.686 90.8083 153.661 90.91 153.67L99.29 154.32C99.7188 154.399 100.161 154.361 100.57 154.21C100.697 154.138 100.806 154.039 100.89 153.92C100.979 153.803 101.038 153.665 101.06 153.52C101.11 153.273 101.11 153.018 101.06 152.77C101.009 152.52 100.903 152.284 100.75 152.08C100.055 151.353 99.1671 150.839 98.1901 150.6C98.088 150.556 98.0011 150.483 97.9401 150.39C97.881 150.291 97.8597 150.174 97.88 150.06C97.898 149.945 97.9588 149.842 98.05 149.77C98.1408 149.698 98.2547 149.663 98.37 149.67C99.37 149.67 99.96 149.43 100.14 148.84C100.32 148.25 100.08 147.93 99.3 147.34C98.5921 146.88 97.7882 146.59 96.9501 146.49C86.8001 144.63 76.5201 148.37 68.7001 151.83C66.6001 152.76 64.48 153.76 62.43 154.72C59.88 155.91 57.3101 157.12 54.6901 158.24H54.63L53.8299 158.57H53.75C49.7165 160.331 45.5196 161.691 41.22 162.63H41.14C41.0769 162.616 41.0163 162.592 40.96 162.56C40.9086 162.522 40.8618 162.478 40.8201 162.43C40.7924 162.372 40.769 162.312 40.75 162.25C40.7301 162.188 40.7301 162.122 40.75 162.06C40.7609 161.996 40.7848 161.935 40.8201 161.88C40.8591 161.829 40.9063 161.785 40.96 161.75C41.0096 161.712 41.0682 161.688 41.13 161.68C48.46 160.19 55.39 156.94 62.13 153.79C64.13 152.79 66.31 151.79 68.42 150.89C76.42 147.37 86.82 143.58 97.24 145.49C98.2235 145.598 99.1666 145.941 99.99 146.49C100.433 146.731 100.784 147.11 100.99 147.57C101.21 148.027 101.27 148.545 101.16 149.04C101.082 149.297 100.952 149.535 100.78 149.74C100.602 149.944 100.389 150.113 100.15 150.24C100.723 150.517 101.225 150.921 101.62 151.42C101.859 151.732 102.023 152.095 102.1 152.48C102.179 152.876 102.158 153.284 102.04 153.67Z" fill="#141414"/>
<path d="M62.39 178.84C62.4048 178.923 62.4048 179.007 62.39 179.09C62.4001 179.153 62.4001 179.217 62.39 179.28C62.37 179.338 62.3356 179.389 62.2901 179.43C62.2426 179.475 62.1886 179.512 62.13 179.54H61.9401C61.8477 179.538 61.7577 179.51 61.6801 179.46C61.6041 179.401 61.5425 179.326 61.5 179.24V179.15C58.68 172.44 56.1201 165.51 53.9201 158.56C53.8917 158.411 53.8446 158.267 53.78 158.13C53.7705 158.07 53.7705 158.01 53.78 157.95C53.7696 157.891 53.7696 157.83 53.78 157.77C53.8085 157.712 53.8495 157.661 53.9 157.62C53.9475 157.581 54.0017 157.55 54.0601 157.53C54.1225 157.515 54.1876 157.515 54.25 157.53C54.3092 157.516 54.3709 157.516 54.4301 157.53C54.4883 157.559 54.5394 157.599 54.58 157.65C54.6205 157.699 54.648 157.758 54.6601 157.82L54.77 158.17C54.77 158.17 54.77 158.22 54.77 158.24C56.96 165.13 59.5001 172.01 62.3101 178.68V178.73L62.39 178.84Z" fill="#141414"/>
<path d="M45.0563 162.048C45.0157 162.048 44.9753 162.043 44.936 162.033C44.8125 162.001 44.7067 161.921 44.6419 161.811C44.5772 161.701 44.5587 161.57 44.5905 161.447L47.923 148.487C47.9388 148.426 47.9665 148.368 48.0046 148.318C48.0427 148.267 48.0903 148.225 48.1448 148.193C48.1993 148.16 48.2597 148.139 48.3224 148.13C48.385 148.122 48.4489 148.125 48.5102 148.141C48.5715 148.157 48.6291 148.184 48.6797 148.222C48.7303 148.26 48.7729 148.308 48.8051 148.363C48.8372 148.417 48.8584 148.477 48.8672 148.54C48.8761 148.603 48.8725 148.666 48.8567 148.728L45.5243 161.687C45.4968 161.791 45.4361 161.882 45.3515 161.947C45.2669 162.012 45.1631 162.048 45.0563 162.048Z" fill="#141414"/>
<path d="M97.3418 150.872C97.3148 150.874 97.2878 150.874 97.2609 150.872C95.3025 150.537 93.3245 150.329 91.3394 150.249C91.2762 150.247 91.2141 150.232 91.1567 150.205C91.0993 150.179 91.0477 150.141 91.0048 150.094C90.962 150.048 90.9287 149.993 90.9069 149.934C90.8852 149.875 90.8753 149.812 90.878 149.749C90.8793 149.685 90.8935 149.622 90.9196 149.564C90.9457 149.506 90.9833 149.454 91.03 149.411C91.0767 149.367 91.1317 149.334 91.1916 149.312C91.2515 149.291 91.3151 149.282 91.3787 149.285C93.4049 149.369 95.4236 149.582 97.4227 149.923C97.5399 149.946 97.6447 150.011 97.7168 150.106C97.7889 150.201 97.8233 150.32 97.8132 150.438C97.8032 150.557 97.7494 150.668 97.6624 150.75C97.5753 150.832 97.4611 150.878 97.3418 150.881V150.872Z" fill="#141414"/>
<path d="M70.5682 91.0469L69.1468 109.888C68.7138 110.151 68.361 110.527 68.1267 110.976C67.8924 111.425 67.7856 111.929 67.8178 112.434C67.85 112.94 68.0201 113.426 68.3095 113.842C68.5989 114.257 68.9967 114.586 69.4595 114.791C72.8642 116.282 78.6436 117.832 83.756 114.481C84.1223 114.242 84.4302 113.923 84.6567 113.549C84.8833 113.175 85.0227 112.755 85.0647 112.319C85.1067 111.884 85.0502 111.445 84.8994 111.034C84.7485 110.624 84.5072 110.252 84.1933 109.947L83.4302 95.3857L70.5682 91.0469Z" fill="white"/>
<path d="M76.8876 116.951C73.8416 116.951 71.0755 116.024 69.2649 115.233C68.7203 115 68.2515 114.619 67.9115 114.134C67.5716 113.649 67.3739 113.079 67.3406 112.487C67.3011 111.934 67.404 111.38 67.6394 110.878C67.8748 110.376 68.2349 109.943 68.6854 109.62L70.0871 91.012C70.0926 90.9388 70.1147 90.8678 70.1518 90.8045C70.1889 90.7412 70.2401 90.6873 70.3013 90.6468C70.3625 90.6062 70.4321 90.5803 70.5049 90.5708C70.5777 90.5614 70.6517 90.5687 70.7212 90.5923L83.5898 94.9311C83.6818 94.9627 83.7621 95.0213 83.8203 95.0993C83.8784 95.1773 83.9116 95.271 83.9156 95.3682L84.6678 109.749C85.0012 110.112 85.2512 110.544 85.4006 111.014C85.5499 111.485 85.5949 111.982 85.5325 112.471C85.47 112.96 85.3016 113.43 85.039 113.848C84.7764 114.266 84.4259 114.621 84.0118 114.89C81.8929 116.265 79.4139 116.982 76.8876 116.951ZM71.0011 91.7027L69.6345 109.926C69.6279 110.001 69.6037 110.075 69.5639 110.14C69.524 110.205 69.4696 110.259 69.4049 110.299C69.0433 110.517 68.7495 110.831 68.5564 111.206C68.3633 111.582 68.2785 112.003 68.3115 112.424C68.3351 112.839 68.474 113.239 68.7128 113.579C68.9516 113.919 69.2806 114.186 69.6629 114.35C73.3321 115.956 78.7113 117.213 83.5023 114.079C83.8094 113.878 84.0671 113.611 84.2564 113.296C84.4457 112.982 84.5617 112.63 84.5956 112.264C84.6308 111.903 84.5836 111.538 84.4575 111.197C84.3314 110.857 84.1297 110.549 83.8675 110.297C83.7805 110.212 83.7289 110.097 83.7232 109.976L82.9731 95.7376L71.0011 91.7027Z" fill="#141414"/>
<path d="M59.5758 83.0207C59.4752 81.5409 59.4599 76.601 68.2263 68.0677C75.3526 61.13 79.5969 56.9879 83.7144 58.2907C89.4544 60.1092 90.2963 71.0994 90.504 73.8098C90.7796 77.4054 91.4137 81.8382 88.4573 85.3639C85.8158 88.5245 81.9082 90.4109 77.9438 91.6109C75.5101 92.3475 72.9757 92.8633 70.437 92.7169C64.8435 92.389 59.9847 88.8437 59.5758 83.0207Z" fill="#141414"/>
<path d="M68.7904 88.3059C67.5681 88.8109 66.8224 90.1814 66.8902 91.5016C66.958 92.8218 67.7452 94.0436 68.8188 94.813C69.8925 95.5824 71.2242 95.9322 72.5471 96.0021C73.2315 96.0371 73.9684 96.0152 74.537 96.3977C75.3307 96.9311 75.4772 98.0087 75.8359 98.8939C76.6274 100.861 78.7004 102.09 80.7974 102.391C82.8944 102.693 85.0286 102.221 87.06 101.62C88.372 101.233 89.6644 100.789 90.8189 100.072C91.9735 99.3551 92.9815 98.3409 93.4801 97.0775C94.3744 94.8109 93.502 92.2688 92.6317 89.9956C90.773 85.1344 88.9151 80.2739 87.0578 75.4142C83.8209 78.0934 79.8233 79.6877 75.6303 79.9715C74.8453 80.0218 73.9007 80.1223 73.5574 80.8283C73.3278 81.3027 73.4764 81.8622 73.6295 82.3584C74.0566 83.7661 74.4823 85.1737 74.9065 86.5814C75.1252 87.2961 75.3439 88.0502 75.1624 88.7671C75.0399 89.2742 74.5982 89.86 74.0515 89.9431C73.3584 90.0589 73.0632 89.4535 72.5559 89.0688C71.5019 88.3059 70.0718 87.7792 68.7904 88.3059Z" fill="white"/>
<path d="M82.1488 102.977C81.6739 102.978 81.1996 102.945 80.7296 102.876C78.2324 102.514 76.1857 101.058 75.3876 99.0797C75.2958 98.8611 75.2148 98.6076 75.1361 98.365C74.9175 97.7201 74.7272 97.1125 74.2615 96.8021C73.8766 96.5442 73.3452 96.5245 72.7833 96.5005H72.5121C71.093 96.4551 69.7159 96.0079 68.5411 95.2109C67.2772 94.3059 66.4813 92.9311 66.4113 91.5322C66.3304 89.9409 67.2357 88.4349 68.598 87.8666C69.8794 87.3398 71.4254 87.648 72.8379 88.7103C72.9923 88.8324 73.1384 88.9645 73.2753 89.1059C73.5945 89.4251 73.7279 89.5431 73.9597 89.4928C74.2877 89.4382 74.5982 89.0273 74.6857 88.6775C74.8365 88.0611 74.6223 87.3661 74.4364 86.7387L73.1572 82.5158C72.9713 81.8994 72.8139 81.248 73.1135 80.6294C73.5989 79.6305 74.8934 79.5365 75.5888 79.5016C79.6804 79.2249 83.5816 77.6696 86.7408 75.0557C86.7995 75.0068 86.869 74.9727 86.9436 74.956C87.0182 74.9394 87.0956 74.9407 87.1696 74.9599C87.2435 74.9792 87.3118 75.0157 87.3688 75.0666C87.4258 75.1174 87.4699 75.1811 87.4974 75.2524L93.0821 89.836C94.0224 92.2972 94.8621 94.8983 93.9283 97.2677C93.3008 98.8589 92.0303 99.8906 91.0726 100.496C89.8458 101.257 88.4857 101.716 87.1978 102.096C85.6693 102.544 83.9243 102.977 82.1488 102.977ZM69.9034 88.5748C69.5823 88.5729 69.2641 88.6354 68.9675 88.7584C67.9792 89.165 67.3057 90.3125 67.3625 91.4841C67.4194 92.5923 68.0666 93.6917 69.0922 94.4262C70.1228 95.1117 71.327 95.4907 72.5646 95.5191L72.8248 95.53C73.4655 95.5562 74.1915 95.5868 74.7928 95.9956C75.5275 96.4895 75.7987 97.3223 76.0392 98.0567C76.1114 98.2753 76.1835 98.4939 76.2579 98.7125C76.9139 100.347 78.7179 101.606 80.8499 101.917C82.9185 102.219 85.0723 101.698 86.907 101.161C88.1293 100.798 89.4173 100.367 90.5478 99.6655C91.3809 99.1475 92.4852 98.2491 93.0165 96.9027C93.8234 94.8546 93.0734 92.5486 92.1637 90.1704L86.8436 76.2141C83.6208 78.7087 79.7277 80.1872 75.6609 80.4611C74.9699 80.507 74.2133 80.5923 73.9903 81.0491C73.8438 81.3551 73.9531 81.7857 74.0909 82.236L75.3679 86.4611C75.5866 87.1606 75.8446 88.0349 75.6303 88.907C75.4685 89.5628 74.9 90.3125 74.1303 90.4371C73.3605 90.5617 72.9363 90.1136 72.5996 89.7813C72.4941 89.6685 72.3801 89.564 72.2585 89.4688C71.8539 89.1671 70.9333 88.5748 69.91 88.5748H69.9034Z" fill="#141414"/>
<path d="M73.9378 93.8841C73.8481 93.885 73.76 93.8599 73.6842 93.8119C72.7681 93.2515 71.6882 93.0202 70.6228 93.1562C70.5601 93.1645 70.4963 93.1604 70.4352 93.1441C70.374 93.1278 70.3167 93.0996 70.2664 93.0611C70.2162 93.0227 70.174 92.9747 70.1423 92.9199C70.1106 92.8652 70.09 92.8047 70.0816 92.742C70.0733 92.6793 70.0774 92.6155 70.0937 92.5544C70.1101 92.4933 70.1383 92.436 70.1767 92.3857C70.2152 92.3355 70.2632 92.2933 70.318 92.2616C70.3728 92.2299 70.4333 92.2093 70.496 92.201C71.79 92.026 73.1045 92.3073 74.2134 92.9967C74.3023 93.0518 74.3708 93.1343 74.4086 93.2319C74.4464 93.3294 74.4513 93.4366 74.4226 93.5372C74.3939 93.6378 74.3332 93.7263 74.2497 93.7893C74.1661 93.8523 74.0643 93.8863 73.9597 93.8863L73.9378 93.8841Z" fill="#141414"/>
<path d="M97.8425 351.831C97.4766 350.908 96.9707 350.046 96.3424 349.276C93.8759 346.343 90.6221 344.249 87.4405 342.192C84.5257 340.299 81.7377 338.238 78.7966 336.384C74.1434 333.453 68.7379 330.325 65.9062 325.416L60.2318 332.822C58.8564 334.618 58.1791 336.851 58.3255 339.109C58.4718 341.366 59.4319 343.493 61.0277 345.097L93.2111 377.447C95.142 379.388 98.4591 377.943 98.3411 375.208L97.3964 352.258C97.5407 352.111 97.6894 351.974 97.8425 351.831Z" fill="white"/>
<path d="M65.6985 325.683L60.2318 332.83C58.8564 334.626 58.1791 336.86 58.3255 339.117C58.4718 341.375 59.4319 343.502 61.0277 345.106L93.2111 377.455C95.142 379.396 98.4591 377.952 98.3411 375.217L97.3964 352.266L65.6985 325.683Z" fill="white"/>
<path d="M95.3169 378.815C94.8608 378.813 94.4096 378.721 93.9898 378.542C93.57 378.364 93.19 378.104 92.8722 377.777L60.6888 345.427C59.0203 343.738 58.017 341.504 57.8632 339.135C57.7094 336.766 58.4152 334.421 59.8513 332.531L65.318 325.383C65.3954 325.282 65.51 325.215 65.6365 325.198C65.763 325.181 65.8911 325.215 65.9926 325.293C66.0941 325.37 66.1606 325.485 66.1776 325.611C66.1947 325.737 66.1607 325.866 66.0833 325.967L60.6166 333.117C59.3183 334.822 58.6798 336.939 58.8184 339.078C58.957 341.217 59.8634 343.234 61.371 344.758L93.5544 377.108C93.9127 377.468 94.3717 377.712 94.8711 377.807C95.3705 377.903 95.887 377.845 96.3529 377.641C96.8187 377.438 97.2121 377.098 97.4815 376.667C97.7508 376.236 97.8835 375.734 97.8622 375.226L96.9175 352.275C96.9149 352.212 96.9247 352.149 96.9465 352.09C96.9683 352.03 97.0015 351.976 97.0444 351.929C97.0872 351.883 97.1388 351.845 97.1962 351.819C97.2536 351.792 97.3157 351.777 97.3789 351.775C97.4425 351.77 97.5064 351.779 97.5665 351.8C97.6267 351.821 97.6819 351.854 97.7288 351.897C97.7757 351.94 97.8133 351.993 97.8392 352.051C97.8652 352.109 97.8789 352.172 97.8797 352.236L98.8243 375.187C98.8616 375.887 98.6824 376.582 98.3112 377.177C97.94 377.772 97.3947 378.239 96.7492 378.513C96.2979 378.712 95.8101 378.815 95.3169 378.815Z" fill="#141414"/>
<path d="M189.978 380.957C189.279 380.49 188.656 379.918 188.132 379.261L91.2628 258.03C85.0964 250.312 73.0522 258.054 77.5218 266.861L141.998 393.88C142.121 394.129 142.259 394.372 142.411 394.605C143.41 396.118 144.768 397.36 146.365 398.219C147.962 399.078 149.747 399.528 151.56 399.528H184.327C194.353 399.519 198.307 386.535 189.978 380.957Z" fill="white"/>
<path d="M211.331 400H151.56C149.594 399.994 147.663 399.485 145.95 398.521C144.237 397.557 142.8 396.171 141.775 394.494L139.127 390.122C139.089 390.068 139.063 390.007 139.049 389.942C139.036 389.877 139.037 389.811 139.05 389.746C139.064 389.681 139.09 389.62 139.129 389.566C139.167 389.512 139.216 389.467 139.272 389.433C139.329 389.398 139.391 389.376 139.457 389.367C139.522 389.358 139.589 389.362 139.653 389.38C139.716 389.398 139.776 389.428 139.827 389.47C139.878 389.511 139.921 389.563 139.951 389.622L142.599 393.993C143.538 395.53 144.855 396.8 146.424 397.683C147.994 398.567 149.764 399.033 151.565 399.038H211.331C211.642 399.038 211.945 398.937 212.195 398.752C212.446 398.566 212.629 398.305 212.72 398.007C212.811 397.709 212.803 397.39 212.699 397.097C212.594 396.804 212.398 396.551 212.14 396.378L188.659 380.653C188.607 380.618 188.562 380.573 188.527 380.52C188.492 380.467 188.467 380.408 188.455 380.346C188.443 380.284 188.443 380.22 188.456 380.158C188.468 380.096 188.493 380.037 188.528 379.984C188.563 379.932 188.609 379.887 188.661 379.852C188.714 379.817 188.773 379.793 188.835 379.78C188.898 379.768 188.961 379.768 189.024 379.781C189.086 379.793 189.145 379.818 189.197 379.853L212.675 395.578C213.114 395.862 213.447 396.28 213.627 396.77C213.806 397.261 213.821 397.796 213.669 398.295C213.517 398.794 213.207 399.231 212.785 399.538C212.363 399.846 211.853 400.008 211.331 400Z" fill="#141414"/>
<path d="M106.62 336.1C106.537 336.1 106.456 336.079 106.384 336.038C106.312 335.998 106.252 335.939 106.209 335.869L85.6934 302.052C85.6579 301.998 85.6338 301.938 85.6223 301.874C85.6108 301.811 85.6122 301.745 85.6265 301.682C85.6408 301.619 85.6676 301.56 85.7053 301.508C85.7431 301.455 85.791 301.411 85.8462 301.377C85.9015 301.344 85.9629 301.322 86.0268 301.313C86.0908 301.303 86.1559 301.307 86.2184 301.324C86.2808 301.34 86.3393 301.369 86.3904 301.409C86.4415 301.448 86.484 301.498 86.5156 301.554L107.027 335.37C107.092 335.479 107.111 335.609 107.081 335.732C107.051 335.854 106.973 335.96 106.865 336.026C106.792 336.073 106.707 336.099 106.62 336.1Z" fill="#141414"/>
<path opacity="0.1" d="M578.573 301.803H437.511V346.749H578.573V301.803Z" fill="#141414"/>
<path d="M393.883 317.003C398.093 316.997 401.5 313.582 401.494 309.376C401.487 305.17 398.069 301.766 393.859 301.773C389.649 301.779 386.242 305.194 386.248 309.4C386.255 313.606 389.673 317.01 393.883 317.003Z" fill="#141414"/>
<path d="M423.713 330.166H270.839C270.711 330.165 270.589 330.114 270.499 330.024C270.409 329.934 270.358 329.812 270.358 329.685V288.087C270.366 287.965 270.42 287.85 270.51 287.767C270.599 287.683 270.717 287.637 270.84 287.637C270.962 287.637 271.08 287.683 271.17 287.767C271.259 287.85 271.314 287.965 271.322 288.087V329.202H423.713C423.835 329.21 423.95 329.265 424.034 329.354C424.117 329.443 424.164 329.561 424.164 329.684C424.164 329.806 424.117 329.924 424.034 330.014C423.95 330.103 423.835 330.158 423.713 330.166Z" fill="#141414"/>
<defs>
<linearGradient id="paint0_linear_153_286" x1="103.98" y1="210.847" x2="103.98" y2="85.9409" gradientUnits="userSpaceOnUse">
<stop stop-color="#DC1D47"/>
<stop offset="1" stop-color="#E54327"/>
</linearGradient>
</defs>
</svg>