<svg width="64" height="64" viewBox="0 0 64 64" fill="none" xmlns="http://www.w3.org/2000/svg">
<path d="M45.97 16.07C45.97 19.83 44.51 23.43 41.91 26.08C39.31 28.74 35.78 30.23 32.1 30.23C28.42 30.23 24.89 28.74 22.29 26.08C19.69 23.42 18.23 19.82 18.23 16.07C18.23 12.31 19.69 8.71003 22.29 6.06003C24.89 3.40003 28.42 1.91003 32.1 1.91003C35.78 1.91003 39.31 3.40003 41.91 6.06003C44.51 8.71003 45.97 12.31 45.97 16.07Z" fill="#EF6B6A"/>
<path d="M64 47.93C64 51.69 62.54 55.29 59.94 57.94C57.34 60.6 53.81 62.09 50.13 62.09C46.45 62.09 42.92 60.6 40.32 57.94C37.72 55.28 36.26 51.68 36.26 47.93C36.26 44.17 37.72 40.57 40.32 37.92C42.92 35.26 46.45 33.77 50.13 33.77C53.81 33.77 57.34 35.26 59.94 37.92C62.54 40.57 64 44.17 64 47.93Z" fill="#EF6B6A"/>
<path d="M27.75 47.93C27.75 51.69 26.29 55.29 23.69 57.94C21.09 60.6 17.56 62.09 13.88 62.09C10.2 62.09 6.67 60.6 4.07 57.94C1.46 55.29 0 51.69 0 47.93C0 44.17 1.46 40.57 4.06 37.92C6.66 35.26 10.19 33.77 13.87 33.77C17.55 33.77 21.08 35.26 23.68 37.92C26.29 40.57 27.75 44.17 27.75 47.93Z" fill="#EF6B6A"/>
</svg>
