<svg width="48" height="48" viewBox="0 0 48 48" fill="none" xmlns="http://www.w3.org/2000/svg">
<g clip-path="url(#clip0_87_336)">
<mask id="mask0_87_336" style="mask-type:alpha" maskUnits="userSpaceOnUse" x="0" y="0" width="48" height="48">
<path d="M24 48C37.2548 48 48 37.2548 48 24C48 10.7452 37.2548 0 24 0C10.7452 0 0 10.7452 0 24C0 37.2548 10.7452 48 24 48Z" fill="#E0E0E0"/>
</mask>
<g mask="url(#mask0_87_336)">
<path d="M24 48C37.2548 48 48 37.2548 48 24C48 10.7452 37.2548 0 24 0C10.7452 0 0 10.7452 0 24C0 37.2548 10.7452 48 24 48Z" fill="#F5F5FF"/>
<path d="M26.4343 31.1533C26.4314 31.1829 26.4277 31.2236 26.4236 31.2744C26.4144 31.3872 26.4035 31.5494 26.3963 31.7472C26.3818 32.1428 26.3822 32.6817 26.4417 33.2542C26.5012 33.8264 26.6199 34.4343 26.8432 34.9667C27.0428 35.4427 27.3273 35.8614 27.7305 36.1391L19.4893 36.1775C19.8911 35.8992 20.1725 35.4786 20.3684 35.0001C20.5879 34.4638 20.7015 33.8509 20.756 33.2738C20.8105 32.6963 20.8059 32.1524 20.7877 31.753C20.7786 31.5533 20.7661 31.3896 20.7558 31.2757C20.7512 31.2244 20.7471 31.1832 20.7439 31.1533H26.4343Z" fill="white" stroke="#141414" stroke-width="0.1"/>
<path d="M20.7002 34.1195C22.7116 33.8898 24.5763 33.1943 26.3457 32.1977C26.3525 31.6032 26.4091 31.2367 26.4091 31.2367L20.7763 31.1836C20.7763 31.1836 21.0142 32.7343 20.7002 34.1195Z" fill="#F5F5F5"/>
<path d="M32.9672 15.8154H14.3276C13.5974 21.6388 15.335 28.7756 20.9721 30.7215C21.7765 30.9991 22.8145 31.3587 23.6473 31.1556C24.4803 31.3587 25.5182 30.9992 26.3227 30.7215C31.9598 28.7756 33.6972 21.6388 32.9672 15.8154Z" fill="#141414"/>
<path d="M33.4388 22.5032C33.2616 23.8729 32.4866 24.8899 31.7078 24.7748C30.9289 24.6596 30.4413 23.4559 30.6184 22.0862C30.7956 20.7166 31.5706 19.6995 32.3494 19.8145C33.1285 19.9298 33.616 21.1335 33.4388 22.5032Z" fill="#141414"/>
<path d="M13.799 22.5032C13.9763 23.8729 14.7512 24.8899 15.53 24.7748C16.3089 24.6596 16.7965 23.4559 16.6194 22.0862C16.4422 20.7166 15.6672 19.6995 14.8884 19.8145C14.1096 19.9298 13.6219 21.1335 13.799 22.5032Z" fill="#141414"/>
<path d="M24.0519 10.5636C26.4917 10.5505 28.3067 11.7406 29.5307 13.4219C30.7557 15.1046 31.3876 17.2782 31.4571 19.2236C31.5972 23.1435 30.3945 27.6568 27.9622 30.0521C26.8272 31.1697 25.1016 31.7099 23.5494 31.7371C21.9972 31.7099 20.2717 31.1697 19.1367 30.0521C16.7046 27.6568 15.5017 23.1435 15.6418 19.2236C15.7113 17.2782 16.3433 15.1045 17.5682 13.4219C18.7921 11.7405 20.6069 10.5505 23.0467 10.5636H24.0519Z" fill="white" stroke="#141414" stroke-width="0.1"/>
<path d="M15.8456 23.4242C15.8456 23.4242 16.1484 23.2977 16.1457 18.9411C16.8425 17.1883 18.3821 17.9454 19.9824 17.6106C21.4759 17.2982 22.0409 15.9364 22.744 14.759C23.6951 13.1662 26.0202 14.2216 27.2162 13.0524C27.2162 15.023 27.9952 16.4152 29.5891 17.6849C31.4091 19.1346 31.038 21.2349 31.1433 23.4118C31.9495 22.841 31.3097 20.1114 32.4245 20.0349C32.4245 20.0349 35.0141 13.3959 29.2994 9.82706C28.5693 6.55089 23.8218 5.89757 22.0353 9.06074C16.6567 6.57556 15.1809 12.7452 15.1809 12.7452C13.2376 14.261 13.7522 18.6249 14.9289 19.8942C15.6096 20.6284 15.394 21.7233 15.8456 23.4242Z" fill="#141414"/>
<path d="M26.9873 35.1455L38.8117 41.8299C38.8117 41.8299 41.6182 43.5439 41.4534 48.0002H5.78532C5.62034 43.5439 8.42698 41.8299 8.42698 41.8299L20.2509 35.1455C20.2509 35.1455 23.8209 37.3374 26.9873 35.1455Z" fill="url(#paint0_linear_87_336)"/>
<path d="M23.4902 28.2368C22.3971 28.2368 21.7046 27.6278 21.6943 27.6184C21.6491 27.5764 21.6222 27.5183 21.6194 27.4566C21.6167 27.3949 21.6383 27.3346 21.6797 27.2887C21.721 27.2428 21.7787 27.2151 21.8404 27.2114C21.902 27.2077 21.9626 27.2285 22.0091 27.2691C22.0631 27.317 23.3092 28.3921 25.1222 27.2454C25.1749 27.212 25.2387 27.201 25.2995 27.2147C25.3603 27.2284 25.4132 27.2657 25.4466 27.3184C25.4799 27.3711 25.4909 27.4349 25.4772 27.4957C25.4635 27.5565 25.4262 27.6094 25.3735 27.6428C24.6704 28.0877 24.0313 28.2368 23.4902 28.2368Z" fill="#141414"/>
<path d="M21.4788 19.2605C21.4556 19.4841 21.2791 19.6339 21.0843 19.6151C20.3725 19.5449 19.6549 19.6639 19.004 19.9602C18.8255 20.0407 18.6102 19.956 18.516 19.7517C18.4221 19.5481 18.5098 19.2878 18.7196 19.1927C19.4661 18.8527 20.2893 18.7162 21.1056 18.797C21.3348 18.8193 21.502 19.0374 21.4788 19.2605ZM25.6215 19.2605C25.6447 19.4841 25.8213 19.6339 26.0161 19.6151C26.7278 19.5449 27.4454 19.6639 28.0963 19.9602C28.2747 20.0407 28.4901 19.956 28.5843 19.7517C28.6782 19.5481 28.5904 19.2878 28.3807 19.1927C27.6341 18.8527 26.811 18.7162 25.9947 18.797C25.7655 18.8193 25.5984 19.0374 25.6215 19.2605Z" fill="#141414"/>
<path d="M23.472 26.4402C23.4421 26.4402 23.4118 26.4345 23.3825 26.4225C22.8769 26.2145 22.6016 25.9807 22.5162 25.687C22.4037 25.2995 22.6506 24.9502 22.9119 24.5804C23.0755 24.3488 23.2448 24.1095 23.327 23.859C23.3465 23.7998 23.3887 23.7507 23.4444 23.7226C23.5 23.6945 23.5646 23.6895 23.6238 23.7089C23.6831 23.7284 23.7321 23.7706 23.7602 23.8262C23.7884 23.8819 23.7932 23.9464 23.7738 24.0057C23.6695 24.3232 23.471 24.6039 23.2959 24.8517C23.1018 25.1265 22.9184 25.3859 22.9678 25.5559C22.9961 25.653 23.1219 25.8069 23.5614 25.9877C23.6118 26.0084 23.6534 26.046 23.6791 26.0939C23.7048 26.1419 23.7131 26.1973 23.7026 26.2507C23.692 26.3041 23.6632 26.3522 23.6212 26.3868C23.5791 26.4213 23.5264 26.4402 23.472 26.4402Z" fill="#141414"/>
<path d="M20.4199 22.8228C20.7661 22.8228 21.0468 22.2941 21.0468 21.6418C21.0468 20.9896 20.7661 20.4609 20.4199 20.4609C20.0736 20.4609 19.793 20.9896 19.793 21.6418C19.793 22.2941 20.0736 22.8228 20.4199 22.8228Z" fill="#141414"/>
<path d="M26.6796 22.8228C27.0259 22.8228 27.3066 22.2941 27.3066 21.6418C27.3066 20.9896 27.0259 20.4609 26.6796 20.4609C26.3334 20.4609 26.0527 20.9896 26.0527 21.6418C26.0527 22.2941 26.3334 22.8228 26.6796 22.8228Z" fill="#141414"/>
</g>
</g>
<defs>
<linearGradient id="paint0_linear_87_336" x1="23.6202" y1="48.0004" x2="23.6202" y2="35.1455" gradientUnits="userSpaceOnUse">
<stop stop-color="#DC1D47"/>
<stop offset="1" stop-color="#E54327"/>
</linearGradient>
<clipPath id="clip0_87_336">
<rect width="48" height="48" fill="white"/>
</clipPath>
</defs>
</svg>
