<svg width="396" height="400" viewBox="0 0 396 400" fill="none" xmlns="http://www.w3.org/2000/svg">
<g clip-path="url(#clip0_107_40)">
<path d="M396 201.836C396 282.588 347.738 352.053 278.513 382.919C253.913 393.904 226.667 400 198 400C197.537 400 197.085 400 196.623 399.989C182.978 399.903 169.667 398.428 156.818 395.703C127.075 389.413 99.8071 376.436 76.6389 358.418C30.0013 322.167 0 265.507 0 201.836C0 92.3938 88.648 3.67249 198 3.67249C307.352 3.67249 396 92.3938 396 201.836Z" fill="white"/>
<path fill-rule="evenodd" clip-rule="evenodd" d="M205.845 184.615L180.169 287.941C179.319 302.857 177.49 317.31 174.896 331.213C170.592 354.368 164.2 376.005 156.818 395.703C127.075 389.413 99.8071 376.436 76.6389 358.418C81.4383 334.875 86.1085 313.271 90.0147 297.644C105.413 235.998 128.237 185.186 128.237 185.186L168.375 184.895L205.845 184.615Z" fill="url(#paint0_linear_107_40)"/>
<path fill-rule="evenodd" clip-rule="evenodd" d="M278.513 382.919C253.913 393.904 226.667 400 198 400C197.537 400 197.085 400 196.623 399.989C189.854 369.209 181.6 346.463 174.896 331.213C174.896 331.203 174.896 331.203 174.896 331.203C167.816 315.091 162.468 307.348 162.468 307.348L168.375 184.895L168.752 177.195H220.673C220.673 177.195 253.192 266.25 273.165 349.027C275.93 360.464 277.63 371.826 278.513 382.919Z" fill="url(#paint1_linear_107_40)"/>
<path fill-rule="evenodd" clip-rule="evenodd" d="M218.22 71.9851C206.576 69.4973 187.809 66.2233 170.753 68.0649C150.878 70.2081 120.823 79.9224 107.856 87.6659C78.8772 104.962 67.3846 119.943 67.3846 119.943L111.321 129.83L90.7141 189.806C83.5582 210.614 86.6465 234.318 98.7095 252.723L139.891 248.782L226.107 191.066L229.336 137.702L285.012 122.205C285.012 122.205 238.644 76.3469 218.22 71.9851Z" fill="white"/>
<path fill-rule="evenodd" clip-rule="evenodd" d="M218.22 71.9851C206.576 69.4973 187.809 66.2233 170.753 68.0649C150.878 70.2081 120.823 79.9224 107.856 87.6659C78.8772 104.962 67.3846 119.943 67.3846 119.943L111.321 129.83L90.7141 189.806C83.5582 210.614 86.6465 234.318 98.7095 252.723L139.891 248.782L226.107 191.066L229.336 137.702L285.012 122.205C285.012 122.205 238.644 76.3469 218.22 71.9851Z" fill="white" stroke="#141414" stroke-miterlimit="10"/>
<path fill-rule="evenodd" clip-rule="evenodd" d="M227.668 156.345C227.668 156.345 252.289 174.492 271.088 168.622C289.898 162.753 293.578 149.258 292.416 141.084C291.264 132.91 260.65 80.224 213.603 70.4666C213.614 70.4666 209.181 130.39 227.668 156.345Z" fill="white"/>
<path fill-rule="evenodd" clip-rule="evenodd" d="M227.668 156.345C227.668 156.345 252.289 174.492 271.088 168.622C289.898 162.753 293.578 149.258 292.416 141.084C291.264 132.91 260.65 80.224 213.603 70.4666C213.614 70.4666 209.181 130.39 227.668 156.345Z" fill="white" stroke="#141414" stroke-miterlimit="10"/>
<path fill-rule="evenodd" clip-rule="evenodd" d="M228.163 156.442C227.926 156.442 227.732 156.237 227.743 156.011L227.872 148.386C227.872 148.149 228.087 147.966 228.303 147.966C228.539 147.966 228.722 148.16 228.722 148.397L228.593 156.022C228.582 156.259 228.399 156.442 228.163 156.442Z" fill="#141414"/>
<path d="M309.567 68.5497L118.974 271.796L81.2095 236.974L271.829 33.5398L297.122 44.0944L309.567 68.5497Z" fill="white" stroke="#141414"/>
<path fill-rule="evenodd" clip-rule="evenodd" d="M57.8397 261.501C39.6969 281.123 37.168 302.458 47.789 312.313C58.41 322.167 78.167 316.804 96.3098 297.192L119.349 272.271L80.8787 236.59L57.8397 261.501Z" fill="#141414"/>
<path d="M321.375 39.5676L309.979 67.7651L272.572 33.07L299.74 19.5475L317.613 25.3875L321.375 39.5676Z" fill="white" stroke="#141414"/>
<path fill-rule="evenodd" clip-rule="evenodd" d="M299.701 19.0086L321.901 39.6004L337.902 0L299.701 19.0086Z" fill="#141414"/>
<path fill-rule="evenodd" clip-rule="evenodd" d="M189.219 145.478C184.926 146.781 166.191 149.344 163.253 157.648C160.294 166.016 163.662 175.192 169.215 182.085L169.322 182.095C171.518 183.183 174.972 184.454 179.007 183.98C183.613 183.442 184.56 181.126 189.327 179.801C197.376 177.561 202.67 182.138 204.026 179.511C204.952 177.701 201.992 174.901 198.613 173.049C195.148 171.153 192.092 171.379 192.103 170.733C192.103 170.022 195.234 170.184 199.141 170.033C200.959 169.958 206.049 172.833 207.685 170.55C208.987 168.73 204.446 164.411 199.087 163.313C195.299 162.527 191.995 164.347 191.78 163.668C191.619 163.162 193.62 162.128 195.6 161.751C198.872 161.116 204.112 164.002 205.576 161.87C207.007 159.78 202.982 156.086 198.118 154.762C194.018 153.642 190.435 155.839 190.166 155.009C189.983 154.417 191.382 153.103 194.998 151.337C198.022 149.861 204.833 148.924 203.779 145.543C202.885 142.71 195.708 143.518 189.219 145.478Z" fill="white" stroke="#141414" stroke-miterlimit="10"/>
<path fill-rule="evenodd" clip-rule="evenodd" d="M97.2029 164.444C87.7441 167.438 81.1692 176.226 81.3844 186.102C81.5243 192.574 84.6127 199.295 94.6741 203.452C119.166 213.565 174.681 179.069 174.681 179.069L181.514 147.298C149.565 152.597 123.233 156.216 97.2029 164.444Z" fill="white"/>
<path fill-rule="evenodd" clip-rule="evenodd" d="M97.2029 164.444C87.7441 167.438 81.1692 176.226 81.3844 186.102C81.5243 192.574 84.6127 199.295 94.6741 203.452C119.166 213.565 174.681 179.069 174.681 179.069L181.514 147.298C149.565 152.597 123.233 156.216 97.2029 164.444Z" fill="white" stroke="#141414" stroke-miterlimit="10"/>
<path fill-rule="evenodd" clip-rule="evenodd" d="M129.668 156.237L134.253 203.656L92.2314 210.161C65.2432 214.329 34.8007 187.394 41.1173 160.814C46.6484 137.562 60.3039 124.542 87.7549 101.214L123.621 111.876L108.211 157.099L129.668 156.237Z" fill="white"/>
<path fill-rule="evenodd" clip-rule="evenodd" d="M129.668 156.237L134.253 203.656L92.2314 210.161C65.2432 214.329 34.8007 187.394 41.1173 160.814C46.6484 137.562 60.3039 124.542 87.7549 101.214L123.621 111.876L108.211 157.099L129.668 156.237Z" fill="white" stroke="#141414" stroke-miterlimit="10"/>
<path fill-rule="evenodd" clip-rule="evenodd" d="M227.453 121.569L257.282 154.632C265.352 163.582 279.212 164.12 287.961 155.839C297.463 146.846 296.774 131.51 286.508 123.4L252.063 96.1956L227.453 121.569Z" fill="white"/>
<path fill-rule="evenodd" clip-rule="evenodd" d="M227.453 121.569L257.282 154.632C265.352 163.582 279.212 164.12 287.961 155.839C297.463 146.846 296.774 131.51 286.508 123.4L252.063 96.1956L227.453 121.569Z" fill="white" stroke="#141414" stroke-miterlimit="10"/>
<path fill-rule="evenodd" clip-rule="evenodd" d="M246.93 113.05C251.847 113.847 253.343 116.367 252.902 119.103C252.461 121.838 250.244 123.766 245.326 122.969C240.409 122.183 234.652 118.974 235.093 116.227C235.545 113.492 242.012 112.253 246.93 113.05Z" fill="white"/>
<path fill-rule="evenodd" clip-rule="evenodd" d="M243.371 108.401C249.063 109.316 250.807 112.245 250.29 115.412C249.774 118.589 247.212 120.807 241.509 119.892C235.817 118.976 229.145 115.25 229.651 112.084C230.178 108.917 237.678 107.485 243.371 108.401Z" fill="white" stroke="#141414" stroke-miterlimit="10"/>
<path fill-rule="evenodd" clip-rule="evenodd" d="M245.491 102.165C250.408 102.962 252.625 101.034 253.066 98.2985C253.508 95.563 252.012 93.0429 247.094 92.2459C242.176 91.449 235.709 92.6875 235.268 95.423C234.816 98.1693 240.573 101.368 245.491 102.165Z" fill="white" stroke="#141414" stroke-miterlimit="10"/>
<path fill-rule="evenodd" clip-rule="evenodd" d="M242.876 111.459C248.579 112.385 251.14 110.156 251.657 106.979C252.173 103.802 250.43 100.883 244.738 99.9678C239.045 99.0416 231.534 100.474 231.028 103.651C230.512 106.828 237.183 110.544 242.876 111.459Z" fill="white" stroke="#141414" stroke-miterlimit="10"/>
<path fill-rule="evenodd" clip-rule="evenodd" d="M237.93 117.05C242.847 117.847 244.343 120.367 243.902 123.103C243.461 125.838 241.244 127.766 236.326 126.969C231.409 126.183 225.652 122.974 226.093 120.227C226.545 117.492 233.012 116.253 237.93 117.05Z" fill="white" stroke="#141414" stroke-miterlimit="10"/>
<path fill-rule="evenodd" clip-rule="evenodd" d="M141.312 90.2291L139.106 90.1968C132.574 90.0891 127.355 84.7042 127.463 78.167L128.13 36.5741C128.237 30.0369 133.618 24.8136 140.15 24.9213L142.356 24.9536C148.887 25.0613 154.106 30.4461 153.999 36.9834L153.332 78.5762C153.235 85.1243 147.854 90.3368 141.312 90.2291Z" fill="white"/>
<path fill-rule="evenodd" clip-rule="evenodd" d="M141.312 90.2291L139.106 90.1968C132.574 90.0891 127.355 84.7042 127.463 78.167L128.13 36.5741C128.237 30.0369 133.618 24.8136 140.15 24.9213L142.356 24.9536C148.887 25.0613 154.106 30.4461 153.999 36.9834L153.332 78.5762C153.235 85.1243 147.854 90.3368 141.312 90.2291Z" fill="white" stroke="#141414" stroke-miterlimit="10"/>
<path fill-rule="evenodd" clip-rule="evenodd" d="M171.69 50.6071C170.043 58.6522 146.746 59.7938 146.746 59.7938L124.062 52.998C116.174 44.5545 116.626 31.3185 125.063 23.4242C133.499 15.53 146.735 15.9823 154.623 24.4258C154.623 24.4151 173.368 42.4113 171.69 50.6071Z" fill="white"/>
<path fill-rule="evenodd" clip-rule="evenodd" d="M171.69 50.6071C170.043 58.6522 146.746 59.7938 146.746 59.7938L124.062 52.998C116.174 44.5545 116.626 31.3185 125.063 23.4242C133.499 15.53 146.735 15.9823 154.623 24.4258C154.623 24.4151 173.368 42.4113 171.69 50.6071Z" fill="white" stroke="#141414" stroke-miterlimit="10"/>
<path fill-rule="evenodd" clip-rule="evenodd" d="M147.144 39.2666C147.962 39.9882 148.973 40.4836 150.082 40.6559C152.202 41.0005 154.332 40.1066 155.505 38.3619C155.785 37.9419 155.667 37.3603 155.226 37.048C154.795 36.7465 154.203 36.8434 153.923 37.2634C153.138 38.4265 151.717 39.0189 150.308 38.7927C148.844 38.5558 147.607 37.4788 147.166 36.0464C147.004 35.5402 146.477 35.2495 145.982 35.3787C145.487 35.5079 145.207 36.0249 145.358 36.5311C145.702 37.6188 146.326 38.5558 147.144 39.2666Z" fill="#141414"/>
<path d="M147.338 33.9894C148.948 33.9894 150.254 32.4223 150.254 30.4892C150.254 28.5561 148.948 26.989 147.338 26.989C145.727 26.989 144.422 28.5561 144.422 30.4892C144.422 32.4223 145.727 33.9894 147.338 33.9894Z" fill="#141414"/>
<path d="M140.343 39.8158C141.954 39.8158 143.259 38.2488 143.259 36.3157C143.259 34.3826 141.954 32.8155 140.343 32.8155C138.733 32.8155 137.427 34.3826 137.427 36.3157C137.427 38.2488 138.733 39.8158 140.343 39.8158Z" fill="#141414"/>
<path fill-rule="evenodd" clip-rule="evenodd" d="M106.328 38.2111C106.328 38.2111 114.13 61.183 130.788 57.5429L131.692 52.4165L141.333 49.5517L131.39 43.3375C127.914 40.6343 127.785 35.4325 131.11 32.557L145.638 19.9995L138.471 12.6222C123.718 15.3361 112.43 23.0258 106.328 38.2111Z" fill="#141414"/>
<path fill-rule="evenodd" clip-rule="evenodd" d="M120.274 21.8303C119.015 23.6289 116.529 24.0704 114.722 22.8104C112.914 21.5503 111.536 18.3948 112.806 16.5962C114.065 14.7977 117.498 15.0131 119.306 16.2839C121.103 17.544 121.544 20.0318 120.274 21.8303Z" fill="#141414"/>
<path fill-rule="evenodd" clip-rule="evenodd" d="M123.255 20.678C121.275 21.6365 118.886 20.818 117.928 18.8363C116.971 16.8547 117.293 13.4299 119.273 12.4714C121.253 11.5129 124.148 13.3761 125.106 15.3577C126.064 17.3286 125.235 19.7194 123.255 20.678Z" fill="#141414"/>
<path fill-rule="evenodd" clip-rule="evenodd" d="M129.679 18.2763C126.806 19.0948 123.825 17.4255 123.007 14.55C122.19 11.6744 123.438 7.18345 126.3 6.37572C129.173 5.55722 132.585 8.7343 133.402 11.5991C134.22 14.4638 132.552 17.4578 129.679 18.2763Z" fill="#141414"/>
<path fill-rule="evenodd" clip-rule="evenodd" d="M115.873 26.3644C114.668 28.206 112.193 28.723 110.353 27.5168C108.513 26.3105 107.028 23.2088 108.233 21.3672C109.438 19.5256 112.871 19.6333 114.722 20.8395C116.562 22.0565 117.078 24.5228 115.873 26.3644Z" fill="#141414"/>
<path fill-rule="evenodd" clip-rule="evenodd" d="M134.059 15.7131C131.638 14.6253 130.551 11.7821 131.627 9.35892C132.714 6.93572 136.125 4.57714 138.546 5.66489C140.967 6.75264 141.484 10.8667 140.408 13.2899C139.321 15.7131 136.48 16.8008 134.059 15.7131Z" fill="#141414"/>
<path fill-rule="evenodd" clip-rule="evenodd" d="M113.086 30.7908C112.031 33.3217 109.126 34.5279 106.586 33.4724C104.058 32.417 101.529 28.9599 102.583 26.429C103.638 23.8981 107.867 23.2519 110.407 24.2966C112.946 25.352 114.141 28.2599 113.086 30.7908Z" fill="#141414"/>
<path fill-rule="evenodd" clip-rule="evenodd" d="M109.879 34.6356C110.019 36.7788 108.394 38.6204 106.264 38.7604C104.122 38.9004 101.163 37.3496 101.023 35.2171C100.883 33.0847 103.627 31.1569 105.758 31.0277C107.899 30.8769 109.739 32.5032 109.879 34.6356Z" fill="#141414"/>
<path fill-rule="evenodd" clip-rule="evenodd" d="M138.944 19.3748C136.555 17.1885 136.383 13.4837 138.568 11.0928C140.752 8.70196 145.605 7.28035 147.994 9.46661C150.383 11.6529 149.415 16.6177 147.23 19.0086C145.046 21.3887 141.333 21.5611 138.944 19.3748Z" fill="#141414"/>
<path fill-rule="evenodd" clip-rule="evenodd" d="M121.157 55.8197C122.523 59.5676 126.666 61.4954 130.4 60.1276C134.145 58.7599 136.071 54.6243 134.705 50.8764C133.338 47.1285 129.195 45.2007 125.461 46.5685C121.727 47.9362 119.79 52.0718 121.157 55.8197Z" fill="white"/>
<path fill-rule="evenodd" clip-rule="evenodd" d="M121.157 55.8197C122.523 59.5676 126.666 61.4954 130.4 60.1276C134.145 58.7599 136.071 54.6243 134.705 50.8764C133.338 47.1285 129.195 45.2007 125.461 46.5685C121.727 47.9362 119.79 52.0718 121.157 55.8197Z" fill="white" stroke="#141414" stroke-miterlimit="10"/>
<path fill-rule="evenodd" clip-rule="evenodd" d="M164.986 35.9603L175.252 50.2194C176.683 52.2011 176.166 54.9797 174.122 56.3151C173.605 56.649 173.046 57.0152 172.443 57.3921C162.048 63.8755 149.038 64.5217 138.051 59.0937C134.371 57.2736 132.197 53.375 132.585 49.2932L132.714 47.947L136.502 47.0316C136.502 47.0316 144.798 52.3303 147.919 50.4564C151.05 48.5717 154.01 41.9913 164.986 35.9603Z" fill="#141414"/>
</g>
<defs>
<linearGradient id="paint0_linear_107_40" x1="141.245" y1="395.706" x2="141.245" y2="184.615" gradientUnits="userSpaceOnUse">
<stop stop-color="#DC1D47"/>
<stop offset="1" stop-color="#E54327"/>
</linearGradient>
<linearGradient id="paint1_linear_107_40" x1="220.493" y1="400.004" x2="220.493" y2="177.195" gradientUnits="userSpaceOnUse">
<stop stop-color="#DC1D47"/>
<stop offset="1" stop-color="#E54327"/>
</linearGradient>
<clipPath id="clip0_107_40">
<rect width="396" height="400" fill="white"/>
</clipPath>
</defs>
</svg>
