<svg width="35" height="35" viewBox="0 0 35 35" fill="none" xmlns="http://www.w3.org/2000/svg">
<path d="M20.7782 6.90051H25.0001V13.5976M24.8604 34.3044H2.09998V6.90051H6.32192" stroke="#141414" stroke-width="0.89" stroke-miterlimit="10" stroke-linecap="round" stroke-linejoin="round"/>
<path d="M33.0691 31.6983C33.0691 33.1525 29.3961 34.3314 24.8653 34.3314C20.3345 34.3314 16.6616 33.1526 16.6616 31.6983V26.5425C16.6616 27.9967 20.3345 29.1756 24.8653 29.1756C29.3961 29.1756 33.0691 27.9968 33.0691 26.5425" stroke="#141414" stroke-width="0.89" stroke-miterlimit="10" stroke-linecap="round" stroke-linejoin="round"/>
<path d="M13.5501 0.699951C16.1213 0.699951 18.2755 2.48014 18.8508 4.87489H20.7781V9.08144H6.32196V4.87489H8.24931C8.82467 2.48014 10.9789 0.699951 13.5501 0.699951Z" stroke="#DC1D47" stroke-width="0.89" stroke-miterlimit="10" stroke-linecap="round" stroke-linejoin="round"/>
<path d="M24.8653 18.8639C29.3962 18.8639 33.0691 17.685 33.0691 16.2308C33.0691 14.7766 29.3962 13.5977 24.8653 13.5977C20.3345 13.5977 16.6616 14.7766 16.6616 16.2308C16.6616 17.685 20.3345 18.8639 24.8653 18.8639Z" stroke="#141414" stroke-width="0.89" stroke-miterlimit="10" stroke-linecap="round" stroke-linejoin="round"/>
<path d="M16.6613 26.8217L16.6615 16.2384M33.0691 16.2384L33.0694 31.6815M33.0691 21.3381C33.0691 22.7924 29.3961 23.9713 24.8653 23.9713C20.3345 23.9713 16.6615 22.7924 16.6615 21.3381" stroke="#141414" stroke-width="0.89" stroke-miterlimit="10" stroke-linecap="round" stroke-linejoin="round"/>
<path d="M13.6547 6.99912C14.5553 6.99912 15.2853 6.26907 15.2853 5.36852C15.2853 4.46796 14.5553 3.73792 13.6547 3.73792C12.7542 3.73792 12.0241 4.46796 12.0241 5.36852C12.0241 6.26907 12.7542 6.99912 13.6547 6.99912Z" stroke="#DC1D47" stroke-width="0.89"/>
</svg>
