<svg width="64" height="64" viewBox="0 0 64 64" fill="none" xmlns="http://www.w3.org/2000/svg">
<path d="M62.27 3.18002C62.15 3.16002 62.03 3.15002 61.92 3.15002L2.08 3.16002C0.94 3.14002 0.01 4.05002 0 5.18002C0 5.30002 0.01 5.42002 0.03 5.54002L8.73 58.51C8.95 59.85 10.1 60.83 11.46 60.84H53.22C54.01 60.85 54.7 60.42 55.05 59.75C55.1 59.67 55.15 59.57 55.18 59.47C55.22 59.36 55.25 59.23 55.27 59.11L61.22 22.5L63.97 5.54002C64.15 4.42002 63.39 3.36002 62.27 3.18002ZM41.96 22.56L38.71 41.39H25.45L25.42 41.42H25.38L21.79 22.56H41.96Z" fill="#4B7BBE"/>
<path d="M61.22 22.28H41.99L38.77 41.17H25.45L9.71997 59.88C10.22 60.31 10.85 60.55 11.51 60.56H53.25C54.26 60.57 55.14 59.84 55.3 58.83L61.22 22.28Z" fill="url(#paint0_linear_54_586)"/>
<defs>
<linearGradient id="paint0_linear_54_586" x1="58.5936" y1="22.6007" x2="36.3071" y2="54.1668" gradientUnits="userSpaceOnUse">
<stop offset="0.18" stop-color="#325BA9"/>
<stop offset="1" stop-color="#4B7BBE"/>
</linearGradient>
</defs>
</svg>
