<svg width="30" height="30" viewBox="0 0 30 30" fill="none" xmlns="http://www.w3.org/2000/svg">
<rect width="30" height="30" rx="15" fill="white"></rect><path fill-rule="evenodd" clip-rule="evenodd" d="M11.8918 10.5L18.9241 10.5C19.0769 10.5 19.2233 10.5607 19.3313 10.6687C19.4393 10.7767 19.5 10.9231 19.5 11.0759V18.1088C19.5 18.4268 19.2422 18.6846 18.9241 18.6846C18.6061 18.6846 18.3483 18.4268 18.3483 18.1088V12.4661L11.483 19.3313C11.2582 19.5562 10.8935 19.5562 10.6687 19.3313C10.4438 19.1065 10.4438 18.7418 10.6687 18.517L17.5339 11.6517L11.8918 11.6517C11.5737 11.6517 11.3159 11.3939 11.3159 11.0759C11.3159 10.7578 11.5737 10.5 11.8918 10.5Z" fill="#DC1D47"></path>
</svg>