<svg width="600" height="400" viewBox="0 0 600 400" fill="none" xmlns="http://www.w3.org/2000/svg">
<g clip-path="url(#clip0_152_191)">
<path d="M443.084 214.299H273.021L297.092 0.47052H467.156L443.084 214.299Z" fill="white"/>
<path d="M443.084 214.781H273.021C272.954 214.781 272.886 214.767 272.824 214.74C272.763 214.712 272.707 214.672 272.662 214.621C272.617 214.571 272.583 214.511 272.562 214.447C272.541 214.382 272.534 214.314 272.542 214.247L296.612 0.426751C296.626 0.30933 296.683 0.201072 296.771 0.12244C296.859 0.0438093 296.974 0.000250466 297.092 1.50536e-06H467.156C467.224 -0.000168547 467.292 0.0140707 467.354 0.0417695C467.416 0.0694684 467.471 0.109999 467.516 0.160682C467.561 0.211366 467.595 0.271045 467.615 0.335775C467.636 0.400506 467.642 0.468811 467.634 0.536174L443.563 214.365C443.547 214.48 443.49 214.586 443.401 214.662C443.313 214.739 443.2 214.781 443.084 214.781ZM273.56 213.818H442.654L466.615 0.951977H297.521L273.56 213.818Z" fill="#141414"/>
<path d="M433.062 116.962H304.958L306.529 103.01H434.632L433.062 116.962Z" fill="white"/>
<path d="M433.491 117.443H304.42L306.1 102.529H435.171L433.491 117.443ZM305.497 116.48H432.639L434.102 103.492H306.961L305.497 116.48Z" fill="#141414"/>
<path d="M429.701 146.803H301.6L303.171 132.854H431.272L429.701 146.803Z" fill="white"/>
<path d="M430.133 147.285H301.061L302.739 132.373H431.811L430.133 147.285ZM302.139 146.322H429.27L430.733 133.333H303.611L302.139 146.322Z" fill="#141414"/>
<path d="M396.619 73.5995C409.897 60.8965 411.45 40.9894 400.087 29.1358C388.725 17.2822 368.749 17.9708 355.471 30.6738C342.193 43.3769 340.64 63.284 352.002 75.1376C363.365 86.9912 383.34 86.3026 396.619 73.5995Z" fill="#141414"/>
<mask id="mask0_152_191" style="mask-type:luminance" maskUnits="userSpaceOnUse" x="348" y="24" width="56" height="56">
<path d="M394.066 70.9384C405.696 59.8119 407.056 42.3753 397.103 31.9926C387.151 21.6099 369.654 22.2128 358.024 33.3393C346.394 44.4657 345.034 61.9023 354.986 72.2851C364.939 82.6678 382.435 82.0648 394.066 70.9384Z" fill="white"/>
</mask>
<g mask="url(#mask0_152_191)">
<path d="M389.9 82.3972H355.468C355.398 82.3967 355.329 82.3813 355.266 82.3519C355.203 82.3226 355.147 82.2799 355.102 82.227C355.057 82.174 355.024 82.1119 355.005 82.045C354.986 81.9781 354.982 81.9078 354.992 81.8391L360.567 47.5877C362.34 36.6936 370.298 28.1587 378.688 28.1587C382.123 28.1587 385.245 29.5484 387.716 32.1789C391.164 35.8445 392.918 41.4995 392.535 47.695L390.393 81.9442C390.385 82.0688 390.33 82.1857 390.238 82.2702C390.146 82.3547 390.025 82.4002 389.9 82.3972ZM356.035 81.4343H389.449L391.563 47.6359C391.935 41.7052 390.274 36.3107 387.006 32.8376C384.721 30.4062 381.843 29.1172 378.682 29.1172C370.752 29.1172 363.211 37.2977 361.514 47.7365L356.035 81.4343Z" fill="white"/>
<path d="M390.119 65.4236L374.947 61.8345L358.955 65.4236C356.803 65.9287 354.803 66.9421 353.123 68.3788C351.444 69.8155 350.134 71.6336 349.303 73.6806L343.919 91.5361H399.28L397.911 73.6696C397.577 71.6781 396.658 69.8308 395.271 68.3625C393.883 66.8941 392.09 65.8711 390.119 65.4236Z" fill="white"/>
<path d="M373.86 71.4724C370.151 71.4724 367.483 68.4633 367.899 64.7517L369.317 52.1747H382.75L381.332 64.7517C380.916 68.4633 377.569 71.4724 373.86 71.4724Z" fill="white"/>
<path d="M388.263 43.4559C387.78 43.3419 387.272 43.377 386.809 43.5566C387.118 37.3392 383.354 33.1221 378.178 33.1221C373.001 33.1221 368.287 37.3392 367.196 43.5566C366.741 43.3747 366.24 43.3395 365.764 43.4559C364.272 43.817 363.249 45.4999 363.481 47.2135C363.713 48.9271 365.115 50.0235 366.607 49.6624C366.846 49.6041 367.076 49.5112 367.288 49.3866C368.267 53.9824 371.365 57.4839 375.433 57.4839C379.501 57.4839 383.391 53.9692 385.405 49.3866C385.593 49.513 385.802 49.6063 386.022 49.6624C387.435 50.0235 389.089 48.9271 389.7 47.2135C390.312 45.4999 389.676 43.817 388.263 43.4559Z" fill="white"/>
<path d="M375.433 57.9829C371.518 57.9829 368.167 54.8293 366.951 50.0716C366.874 50.0957 366.798 50.1198 366.721 50.1373C366.332 50.2333 365.927 50.2457 365.533 50.1736C365.14 50.1016 364.766 49.9467 364.436 49.7193C364.041 49.4358 363.709 49.0728 363.462 48.6538C363.216 48.2347 363.059 47.7687 363.003 47.2857C362.741 45.3358 363.926 43.4122 365.652 42.9942C366.036 42.9007 366.435 42.8887 366.824 42.9592C368.092 36.9519 372.795 32.6472 378.178 32.6472C379.37 32.6322 380.552 32.8613 381.652 33.3205C382.752 33.7797 383.746 34.4592 384.572 35.3171C386.364 37.2014 387.326 39.891 387.308 42.9439C387.667 42.8908 388.032 42.9086 388.384 42.9964C388.738 43.0884 389.069 43.2543 389.354 43.4833C389.64 43.7123 389.874 43.999 390.04 44.3248C390.27 44.7998 390.399 45.3173 390.419 45.8447C390.439 46.3721 390.348 46.8978 390.154 47.3886C389.455 49.3276 387.545 50.5596 385.904 50.1395C385.812 50.1176 385.722 50.0891 385.635 50.0541C383.383 54.8096 379.334 57.9829 375.433 57.9829ZM367.288 48.9139C367.399 48.9136 367.506 48.9513 367.592 49.0207C367.677 49.09 367.737 49.1868 367.759 49.2947C368.745 53.9145 371.829 57.0199 375.426 57.0199C379.076 57.0199 382.905 53.8773 384.958 49.2006C384.985 49.1357 385.026 49.0776 385.078 49.0303C385.13 48.983 385.192 48.9477 385.259 48.9268C385.327 48.9059 385.398 48.9001 385.467 48.9096C385.537 48.9191 385.604 48.9437 385.663 48.9818C385.807 49.0812 385.967 49.1552 386.136 49.2006C387.317 49.5026 388.706 48.5441 389.24 47.0559C389.389 46.6917 389.461 46.3006 389.451 45.9074C389.44 45.5141 389.349 45.1273 389.181 44.7712C389.078 44.5642 388.931 44.3816 388.752 44.2359C388.572 44.0902 388.363 43.9847 388.139 43.9265C387.749 43.8364 387.341 43.8669 386.969 44.014C386.894 44.0409 386.813 44.0491 386.734 44.0381C386.655 44.027 386.58 43.997 386.515 43.9505C386.452 43.9032 386.4 43.8409 386.366 43.7692C386.332 43.6974 386.317 43.6184 386.32 43.5391C386.474 40.4753 385.602 37.801 383.867 35.9802C383.134 35.2122 382.249 34.6047 381.269 34.1964C380.288 33.788 379.233 33.5876 378.171 33.6079C373.102 33.6079 368.684 37.8294 367.656 43.6441C367.644 43.7153 367.616 43.7828 367.575 43.8417C367.533 43.9006 367.479 43.9494 367.415 43.9845C367.352 44.0196 367.282 44.04 367.21 44.0444C367.138 44.0487 367.066 44.0369 366.999 44.0096C366.637 43.8619 366.237 43.8335 365.858 43.9287C364.6 44.2329 363.739 45.6794 363.939 47.1544C363.977 47.5038 364.087 47.8414 364.263 48.1459C364.439 48.4503 364.676 48.7148 364.96 48.9227C365.178 49.0735 365.426 49.1762 365.687 49.2242C365.948 49.2721 366.216 49.264 366.473 49.2006C366.668 49.1538 366.855 49.0801 367.03 48.9818C367.107 48.9331 367.197 48.9073 367.288 48.9074V48.9139Z" fill="#141414"/>
<path d="M366.857 45.1192C371.864 44.1956 377.468 39.8253 380.98 35.8883C381.186 39.3898 383.827 43.4691 386.894 44.9047C386.894 44.9047 390.005 30.9884 378.362 31.4348C366.719 31.8812 366.857 45.1192 366.857 45.1192Z" fill="#141414"/>
</g>
<path d="M84.2447 323.665C119.794 323.665 148.612 294.875 148.612 259.362C148.612 223.848 119.794 195.058 84.2447 195.058C48.6958 195.058 19.8777 223.848 19.8777 259.362C19.8777 294.875 48.6958 323.665 84.2447 323.665Z" fill="white"/>
<path d="M84.2447 324.146C48.4872 324.146 19.4023 295.084 19.4023 259.368C19.4023 223.653 48.4938 194.59 84.2447 194.59C119.996 194.59 149.087 223.651 149.087 259.368C149.087 295.086 120.002 324.146 84.2447 324.146ZM84.2447 195.542C49.0195 195.542 20.3596 224.171 20.3596 259.362C20.3596 294.552 49.0195 323.183 84.2447 323.183C119.47 323.183 148.13 294.554 148.13 259.362C148.13 224.169 119.47 195.542 84.2447 195.542Z" fill="#141414"/>
<path d="M87.5175 300.349H87.4825C57.4447 298.176 50.3777 283.143 50.0907 282.504C50.0499 282.39 50.0535 282.265 50.1009 282.154C50.1483 282.042 50.2361 281.953 50.3467 281.903C50.4572 281.853 50.5825 281.847 50.6975 281.886C50.8124 281.924 50.9087 282.004 50.967 282.111C51.0349 282.262 58.1369 297.261 87.5504 299.388C87.6729 299.4 87.7864 299.458 87.8676 299.55C87.9489 299.642 87.9916 299.762 87.9871 299.885C87.9827 300.008 87.9313 300.125 87.8435 300.211C87.7558 300.297 87.6384 300.347 87.5153 300.349H87.5175Z" fill="#141414"/>
<path d="M6.83036 389.861C6.74958 389.861 6.66998 389.841 6.59896 389.803C6.52794 389.765 6.46779 389.709 6.42409 389.641C6.38039 389.573 6.35456 389.495 6.34899 389.415C6.34343 389.334 6.3583 389.254 6.39224 389.18L42.5638 309.654C42.6205 309.545 42.7173 309.461 42.8342 309.42C42.9511 309.38 43.079 309.386 43.1916 309.437C43.3042 309.488 43.3927 309.581 43.439 309.695C43.4852 309.81 43.4856 309.938 43.44 310.053L7.26849 389.581C7.22993 389.664 7.16816 389.735 7.09051 389.785C7.01285 389.835 6.92256 389.861 6.83036 389.861Z" fill="#141414"/>
<path d="M4.62878 399.993C7.18519 399.993 9.25756 397.923 9.25756 395.369C9.25756 392.815 7.18519 390.745 4.62878 390.745C2.07238 390.745 0 392.815 0 395.369C0 397.923 2.07238 399.993 4.62878 399.993Z" fill="#141414"/>
<path d="M161.659 388.743C161.567 388.742 161.476 388.715 161.399 388.665C161.321 388.615 161.259 388.544 161.221 388.46L125.049 308.932C125.004 308.817 125.004 308.689 125.05 308.575C125.097 308.46 125.185 308.368 125.298 308.317C125.41 308.265 125.538 308.259 125.655 308.3C125.772 308.34 125.869 308.424 125.926 308.534L162.097 388.062C162.131 388.135 162.146 388.216 162.14 388.296C162.135 388.377 162.109 388.455 162.065 388.523C162.022 388.591 161.961 388.646 161.89 388.685C161.819 388.723 161.74 388.743 161.659 388.743Z" fill="#141414"/>
<path d="M163.861 398.875C166.417 398.875 168.489 396.805 168.489 394.251C168.489 391.697 166.417 389.627 163.861 389.627C161.304 389.627 159.232 391.697 159.232 394.251C159.232 396.805 161.304 398.875 163.861 398.875Z" fill="#141414"/>
<path d="M254.159 273.855L213.174 379.692L213.061 379.986L213.277 380.216L226.04 393.782C226.432 394.2 226.694 394.724 226.792 395.287C226.891 395.85 226.822 396.43 226.595 396.955C226.368 397.48 225.992 397.928 225.514 398.243C225.036 398.558 224.475 398.726 223.903 398.728H150.298C140.94 398.727 134.467 389.494 137.535 380.764L137.689 380.349L178.931 273.855H254.159Z" fill="white" stroke="#141414"/>
<path d="M212.528 380.459H149.472C149.347 380.459 149.227 380.407 149.138 380.313C149.05 380.219 149 380.092 149 379.959C149 379.826 149.05 379.699 149.138 379.605C149.227 379.511 149.347 379.458 149.472 379.458H212.528C212.653 379.458 212.773 379.511 212.862 379.605C212.95 379.699 213 379.826 213 379.959C213 380.092 212.95 380.219 212.862 380.313C212.773 380.407 212.653 380.459 212.528 380.459Z" fill="#141414"/>
<path d="M219.586 239.467C231.137 239.468 242.433 242.859 252.071 249.218C261.408 255.38 268.79 264.064 273.363 274.25L273.797 275.24L318.983 381.085L319.037 381.212L319.148 381.293L339.813 396.325C340.112 396.543 340.335 396.851 340.449 397.203C340.563 397.555 340.563 397.936 340.448 398.288C340.333 398.64 340.11 398.947 339.81 399.165C339.51 399.382 339.148 399.499 338.777 399.5H261.475L260.911 399.49C258.096 399.39 255.352 398.552 252.957 397.057C250.563 395.562 248.608 393.465 247.284 390.981L247.027 390.479L199.603 293.442L199.466 293.161H92.5362C76.0019 293.161 64.3142 277.16 69.1719 261.523L69.4161 260.779L76.7627 239.467H219.586Z" fill="white" stroke="#141414"/>
<path d="M318.522 381.461H254.478C254.351 381.461 254.23 381.408 254.14 381.314C254.05 381.22 254 381.093 254 380.96C254 380.827 254.05 380.7 254.14 380.606C254.23 380.512 254.351 380.46 254.478 380.46H318.522C318.649 380.46 318.77 380.512 318.86 380.606C318.95 380.7 319 380.827 319 380.96C319 381.093 318.95 381.22 318.86 381.314C318.77 381.408 318.649 381.461 318.522 381.461Z" fill="#141414"/>
<path d="M188.205 168.786L187.307 157.378L160.307 151.578L121.4 229.846L168.971 228.24L188.205 168.786Z" fill="url(#paint0_linear_152_191)"/>
<path d="M216.105 233.647C217.519 229.038 218.478 224.302 218.968 219.506C222.542 184.711 196.355 161.041 182.814 153.555L161.642 233.146L216.105 233.647Z" fill="url(#paint1_linear_152_191)"/>
<path d="M216.105 234.129L161.642 233.628C161.568 233.627 161.496 233.609 161.43 233.576C161.364 233.543 161.307 233.496 161.263 233.437C161.218 233.379 161.187 233.311 161.173 233.239C161.158 233.167 161.161 233.093 161.179 233.021L182.352 153.43C182.384 153.306 182.465 153.201 182.576 153.136C182.687 153.072 182.818 153.055 182.942 153.087C183.066 153.12 183.171 153.201 183.236 153.311C183.3 153.422 183.318 153.554 183.285 153.677L162.27 232.68L215.752 233.17C217.1 228.701 218.017 224.112 218.493 219.468C218.497 219.405 218.515 219.342 218.544 219.285C218.573 219.228 218.614 219.178 218.663 219.137C218.712 219.096 218.769 219.066 218.831 219.047C218.892 219.029 218.957 219.024 219.02 219.031C219.084 219.037 219.146 219.055 219.202 219.084C219.258 219.114 219.308 219.155 219.349 219.204C219.39 219.253 219.42 219.309 219.439 219.37C219.458 219.431 219.465 219.495 219.459 219.558C218.962 224.382 217.997 229.146 216.576 233.783C216.546 233.884 216.484 233.973 216.399 234.035C216.314 234.098 216.21 234.131 216.105 234.129Z" fill="#141414"/>
<path d="M185.94 222.834C185.879 222.834 185.819 222.822 185.762 222.799C185.644 222.752 185.548 222.66 185.497 222.544C185.447 222.427 185.444 222.294 185.491 222.176L199.338 187.112C199.384 186.993 199.477 186.898 199.594 186.847C199.711 186.796 199.844 186.793 199.963 186.84C200.082 186.887 200.178 186.979 200.229 187.096C200.28 187.213 200.283 187.346 200.236 187.465L186.389 222.528C186.353 222.618 186.291 222.695 186.211 222.75C186.131 222.804 186.037 222.834 185.94 222.834Z" fill="#141414"/>
<path d="M162.198 151.964L110.767 277.022L77.3004 274.679C75.4293 274.549 73.6093 274.012 71.968 273.105C70.3267 272.199 68.9039 270.944 67.7994 269.43C66.695 267.915 65.9356 266.178 65.5746 264.339C65.2136 262.5 65.2598 260.605 65.7098 258.786C67.4404 251.798 70.0341 243.248 73.7516 235.195C79.2983 223.178 93.1605 195.967 104.374 175.763C115.126 156.395 134.294 151.578 155.278 151.578C155.744 151.578 161.76 151.85 162.198 151.964Z" fill="url(#paint2_linear_152_191)"/>
<path d="M271.668 233.146H208.751L229.656 175.693H292.571L271.668 233.146Z" fill="#141414"/>
<path d="M189.734 226.283H274.393L271.668 233.647H186.56L189.734 226.283Z" fill="#141414"/>
<path d="M106.387 183.328L95.5636 210.903C91.2591 221.874 99.3052 233.748 111.1 233.829C128.302 233.947 149.696 234.074 165.948 234.048C167.677 222.58 172.958 211.098 176.043 205.106C152.325 204.762 129.588 204.473 129.588 204.473L142.951 171.771L106.387 183.328Z" fill="url(#paint3_linear_152_191)"/>
<path d="M140.743 205.119L129.591 204.972C129.513 204.971 129.437 204.951 129.368 204.914C129.3 204.877 129.242 204.823 129.199 204.759C129.156 204.694 129.129 204.62 129.121 204.543C129.113 204.466 129.124 204.388 129.152 204.316L142.515 171.614C142.564 171.495 142.657 171.401 142.775 171.352C142.894 171.302 143.026 171.301 143.145 171.35C143.264 171.398 143.358 171.492 143.407 171.61C143.457 171.728 143.457 171.861 143.409 171.979L130.302 204.018L140.75 204.156C140.877 204.156 141 204.207 141.09 204.297C141.181 204.387 141.232 204.51 141.232 204.637C141.232 204.765 141.181 204.887 141.09 204.978C141 205.068 140.877 205.119 140.75 205.119H140.743Z" fill="#141414"/>
<path d="M162.914 234.549C146.447 234.549 125.652 234.42 111.095 234.33C108.289 234.309 105.53 233.606 103.056 232.282C100.583 230.958 98.4682 229.053 96.8954 226.731C95.3227 224.409 94.3388 221.74 94.0286 218.953C93.7183 216.167 94.091 213.347 95.1145 210.737L105.941 183.162C105.961 183.1 105.994 183.042 106.037 182.992C106.08 182.943 106.133 182.903 106.193 182.875C106.252 182.847 106.317 182.831 106.382 182.829C106.448 182.826 106.514 182.838 106.575 182.861C106.636 182.885 106.692 182.922 106.738 182.968C106.785 183.014 106.822 183.069 106.846 183.13C106.871 183.191 106.883 183.257 106.881 183.322C106.879 183.388 106.864 183.453 106.837 183.512L96.0127 211.087C95.045 213.551 94.6922 216.214 94.9846 218.845C95.2771 221.476 96.2061 223.996 97.6914 226.188C99.1767 228.38 101.174 230.178 103.51 231.427C105.846 232.676 108.452 233.338 111.102 233.356C126.436 233.461 148.71 233.604 165.536 233.586C167.276 222.572 172.216 211.594 175.263 205.594L172.741 205.556C172.614 205.556 172.491 205.506 172.401 205.415C172.31 205.325 172.259 205.203 172.259 205.075C172.259 204.947 172.31 204.825 172.401 204.735C172.491 204.644 172.614 204.594 172.741 204.594L176.027 204.642C176.109 204.643 176.19 204.665 176.261 204.706C176.332 204.747 176.391 204.805 176.433 204.876C176.475 204.946 176.498 205.026 176.501 205.108C176.504 205.19 176.486 205.271 176.448 205.344C173.436 211.181 168.124 222.685 166.402 234.138C166.385 234.251 166.328 234.356 166.24 234.431C166.153 234.506 166.042 234.547 165.926 234.547L162.914 234.549Z" fill="#141414"/>
<path d="M175.866 205.147C189.9 205.355 203.698 206.039 210.76 206.24L210.766 206.248L211.025 206.255C211.738 206.274 212.419 206.562 212.929 207.06C213.44 207.558 213.744 208.23 213.78 208.942C213.816 209.653 213.582 210.353 213.125 210.9C212.724 211.379 212.178 211.71 211.574 211.847L211.311 211.893H211.31L197.948 213.644L196.122 213.883L197.817 214.599V214.6L197.82 214.601C197.822 214.602 197.827 214.604 197.834 214.607C197.846 214.612 197.864 214.621 197.889 214.632C197.94 214.655 198.015 214.691 198.108 214.738C198.294 214.833 198.552 214.973 198.835 215.156C199.41 215.529 200.042 216.048 200.413 216.672C200.765 217.266 200.885 217.956 200.459 218.78C200.009 219.647 198.93 220.709 196.728 221.909L196.24 222.176L196.556 222.633V222.634C196.557 222.635 196.559 222.637 196.561 222.641C196.566 222.647 196.573 222.658 196.583 222.673C196.602 222.703 196.63 222.748 196.666 222.808C196.736 222.927 196.833 223.1 196.931 223.312C197.131 223.74 197.328 224.3 197.363 224.871C197.397 225.432 197.275 225.986 196.861 226.463C196.439 226.949 195.66 227.417 194.257 227.686L193.845 227.764L193.852 228.185V228.221C193.852 228.249 193.851 228.293 193.848 228.35C193.843 228.464 193.83 228.631 193.804 228.835C193.752 229.246 193.644 229.799 193.42 230.376C193.004 231.451 192.204 232.585 190.621 233.072L190.294 233.16C190.182 233.186 189.923 233.219 189.491 233.25C189.071 233.281 188.518 233.309 187.843 233.335C186.495 233.387 184.671 233.428 182.466 233.461C178.187 233.525 172.483 233.556 166.052 233.564C167.828 222.514 172.823 211.1 175.866 205.147Z" fill="white" stroke="#141414"/>
<path d="M121.4 205.511C121.337 205.512 121.274 205.501 121.215 205.478C121.156 205.455 121.102 205.42 121.056 205.376C121.01 205.333 120.974 205.28 120.948 205.222C120.923 205.164 120.909 205.102 120.908 205.039C120.907 204.976 120.918 204.913 120.941 204.854C120.964 204.795 120.998 204.741 121.042 204.696C121.086 204.65 121.138 204.613 121.196 204.588C121.254 204.563 121.317 204.549 121.38 204.548L127.205 204.329C127.332 204.325 127.456 204.371 127.55 204.457C127.643 204.544 127.699 204.663 127.704 204.791C127.707 204.854 127.697 204.917 127.675 204.976C127.654 205.035 127.62 205.09 127.577 205.136C127.534 205.182 127.483 205.22 127.425 205.246C127.368 205.273 127.305 205.287 127.242 205.289L121.417 205.508L121.4 205.511Z" fill="#141414"/>
<path d="M186.293 180.14L178.862 168.342L171.32 181.171L154.649 159.612L162.198 151.964L182.814 153.555L189.099 161.691L186.293 180.14Z" fill="white"/>
<path d="M182.814 154.036H182.777L162.161 152.445C162.039 152.429 161.927 152.366 161.85 152.271C161.773 152.175 161.735 152.053 161.744 151.931C161.754 151.808 161.81 151.694 161.901 151.611C161.993 151.528 162.112 151.484 162.235 151.487L182.851 153.078C182.974 153.089 183.087 153.147 183.169 153.24C183.25 153.332 183.292 153.452 183.287 153.575C183.283 153.698 183.231 153.815 183.143 153.901C183.055 153.987 182.937 154.036 182.814 154.038V154.036Z" fill="#141414"/>
<path d="M187.219 144.969L179.16 165.103L166.235 153.552L174.043 132.686C174.043 132.686 182.341 137.424 187.219 144.969Z" fill="white"/>
<path d="M179.16 165.587C179.041 165.587 178.926 165.544 178.838 165.464L165.913 153.913C165.841 153.849 165.791 153.764 165.768 153.67C165.744 153.576 165.75 153.477 165.784 153.386L173.591 132.519C173.615 132.454 173.653 132.394 173.703 132.345C173.753 132.296 173.812 132.258 173.878 132.235C173.944 132.211 174.014 132.202 174.084 132.208C174.153 132.214 174.221 132.235 174.281 132.27C174.365 132.318 182.748 137.15 187.644 144.707C187.685 144.771 187.711 144.844 187.718 144.921C187.725 144.997 187.714 145.073 187.686 145.144L179.627 165.278C179.598 165.35 179.552 165.414 179.493 165.465C179.435 165.515 179.365 165.551 179.289 165.569C179.247 165.58 179.204 165.585 179.16 165.587ZM166.794 153.415L178.967 164.289L186.678 145.031C182.582 138.82 176.1 134.526 174.281 133.408L166.794 153.415Z" fill="#141414"/>
<path d="M160.174 120.774C160.41 114.793 163.716 109.355 167.585 104.785C173.011 98.3729 180.133 92.9062 188.435 91.5953C196.737 90.2844 206.179 94.1164 209.465 101.85C210.626 104.597 210.948 107.809 209.774 110.552C208.514 113.489 205.68 115.543 202.626 116.489C199.572 117.434 196.297 117.397 193.114 117.095C193.278 117.11 186.739 126.315 185.935 127.074C182.772 130.067 179.05 132.408 174.982 133.966C170.796 135.561 168.54 135.244 165.175 132.3C163.534 130.873 162.233 129.097 161.367 127.103C160.502 125.109 160.094 122.946 160.174 120.774Z" fill="#141414"/>
<path d="M199.695 137.065C199.423 141.004 198.282 145.492 194.698 147.131C192.391 148.191 189.66 147.733 187.296 146.812C182.954 145.107 179.311 141.994 176.952 137.973C173.885 138.936 170.244 137.944 168.312 135.388C166.38 132.832 166.527 128.845 168.829 126.619C171.131 124.394 175.361 124.501 177.359 127.004C176.629 124.208 175.899 121.41 175.169 118.612C179.153 118.012 185.261 116.003 186.122 115.589C187.994 114.707 189.779 113.649 191.452 112.429C193.471 110.946 193.802 109.753 195.318 111.992C199.671 118.445 200.214 129.604 199.695 137.065Z" fill="white"/>
<path d="M191.734 148.228C190.151 148.192 188.587 147.867 187.121 147.269C182.792 145.58 179.141 142.514 176.728 138.546C173.495 139.398 169.85 138.231 167.929 135.688C165.795 132.865 166.049 128.646 168.494 126.278C169.148 125.668 169.923 125.201 170.768 124.908C171.614 124.614 172.511 124.499 173.403 124.571C174.502 124.633 175.566 124.98 176.49 125.577L174.711 118.739C174.694 118.673 174.69 118.605 174.701 118.538C174.712 118.471 174.737 118.408 174.774 118.351C174.811 118.293 174.859 118.244 174.916 118.206C174.973 118.168 175.037 118.143 175.105 118.132C179.11 117.528 185.125 115.533 185.929 115.15C187.766 114.279 189.517 113.237 191.158 112.038C191.557 111.744 191.89 111.46 192.183 111.21C192.853 110.639 193.381 110.188 194.041 110.278C194.582 110.352 195.066 110.77 195.708 111.722C200.943 119.463 200.451 133.097 200.175 137.093C199.8 142.536 197.984 146.158 194.9 147.571C193.905 148.017 192.824 148.241 191.734 148.228ZM176.952 137.505C177.036 137.505 177.119 137.527 177.193 137.568C177.266 137.61 177.327 137.67 177.37 137.743C179.666 141.677 183.225 144.72 187.471 146.376C189.384 147.121 192.155 147.781 194.496 146.707C197.953 145.118 198.97 140.579 199.213 137.036C199.485 133.119 199.971 119.747 194.91 112.27C194.361 111.455 194.063 111.261 193.909 111.241C193.69 111.21 193.296 111.536 192.814 111.952C192.51 112.213 192.157 112.508 191.734 112.828C190.045 114.067 188.242 115.144 186.35 116.042C185.39 116.5 179.694 118.347 175.782 119.023L177.832 126.901C177.86 127.008 177.85 127.121 177.804 127.221C177.758 127.321 177.679 127.403 177.581 127.452C177.482 127.501 177.369 127.515 177.262 127.491C177.154 127.468 177.058 127.408 176.989 127.322C176.538 126.79 175.982 126.357 175.355 126.051C174.729 125.746 174.045 125.573 173.348 125.545C172.59 125.486 171.829 125.583 171.11 125.83C170.391 126.077 169.731 126.47 169.171 126.982C167.101 128.985 166.886 132.71 168.704 135.117C170.457 137.443 173.872 138.457 176.809 137.524C176.855 137.509 176.903 137.501 176.952 137.5V137.505Z" fill="#141414"/>
<path d="M176.915 134.163C176.85 134.163 176.786 134.15 176.727 134.125C176.667 134.099 176.613 134.062 176.568 134.016C175.818 133.255 174.922 132.651 173.934 132.243C172.946 131.834 171.885 131.628 170.816 131.637C170.752 131.641 170.688 131.631 170.628 131.609C170.568 131.587 170.514 131.552 170.468 131.508C170.422 131.464 170.386 131.41 170.362 131.351C170.337 131.292 170.326 131.228 170.327 131.165C170.326 131.101 170.338 131.039 170.361 130.98C170.384 130.921 170.418 130.868 170.462 130.822C170.506 130.777 170.559 130.741 170.617 130.716C170.675 130.691 170.737 130.677 170.8 130.677C172.002 130.666 173.192 130.897 174.302 131.355C175.412 131.814 176.418 132.491 177.261 133.346C177.326 133.414 177.371 133.5 177.388 133.593C177.405 133.686 177.395 133.782 177.358 133.869C177.321 133.956 177.259 134.03 177.181 134.083C177.102 134.135 177.009 134.163 176.915 134.163Z" fill="#141414"/>
<path d="M497.919 231.833H123.858C121.618 231.833 119.803 233.647 119.803 235.884V238.359C119.803 240.596 121.618 242.41 123.858 242.41H497.919C500.159 242.41 501.974 240.596 501.974 238.359V235.884C501.974 233.647 500.159 231.833 497.919 231.833Z" fill="white"/>
<path d="M497.919 242.891H180.882V241.928H497.919C498.867 241.927 499.775 241.551 500.444 240.882C501.114 240.213 501.491 239.305 501.492 238.359V235.884C501.491 234.938 501.114 234.03 500.444 233.361C499.775 232.692 498.867 232.316 497.919 232.315H165.948V231.352H497.919C499.122 231.353 500.275 231.831 501.126 232.68C501.977 233.53 502.455 234.682 502.456 235.884V238.359C502.455 239.561 501.977 240.713 501.126 241.563C500.275 242.412 499.122 242.89 497.919 242.891Z" fill="#141414"/>
<path d="M513.144 389.471C513.052 389.472 512.961 389.446 512.884 389.396C512.806 389.346 512.744 389.275 512.706 389.191L444.858 241.924C444.832 241.867 444.817 241.805 444.815 241.741C444.812 241.678 444.823 241.615 444.845 241.556C444.867 241.497 444.9 241.442 444.943 241.396C444.986 241.35 445.038 241.312 445.096 241.286C445.153 241.26 445.215 241.245 445.279 241.243C445.342 241.241 445.405 241.251 445.464 241.273C445.524 241.295 445.578 241.328 445.624 241.371C445.671 241.414 445.708 241.466 445.734 241.524L513.582 388.791C513.609 388.848 513.624 388.91 513.626 388.973C513.629 389.036 513.619 389.099 513.597 389.158C513.575 389.217 513.542 389.271 513.499 389.318C513.457 389.364 513.405 389.401 513.348 389.428C513.284 389.457 513.214 389.472 513.144 389.471Z" fill="#141414"/>
<path d="M515.425 399.993C518.075 399.993 520.224 397.847 520.224 395.199C520.224 392.55 518.075 390.404 515.425 390.404C512.774 390.404 510.625 392.55 510.625 395.199C510.625 397.847 512.774 399.993 515.425 399.993Z" fill="#141414"/>
<path d="M120.822 389.471C120.752 389.472 120.683 389.457 120.62 389.428C120.562 389.401 120.511 389.364 120.468 389.317C120.425 389.271 120.391 389.216 120.369 389.157C120.347 389.098 120.337 389.035 120.339 388.971C120.342 388.908 120.357 388.846 120.383 388.789L187.916 242.209C187.969 242.093 188.067 242.002 188.187 241.958C188.307 241.914 188.439 241.919 188.555 241.972C188.672 242.026 188.762 242.123 188.806 242.243C188.851 242.363 188.846 242.495 188.792 242.611L121.26 389.191C121.221 389.275 121.16 389.346 121.082 389.396C121.004 389.445 120.914 389.472 120.822 389.471Z" fill="#141414"/>
<path d="M118.539 399.993C121.19 399.993 123.339 397.847 123.339 395.199C123.339 392.55 121.19 390.404 118.539 390.404C115.888 390.404 113.739 392.55 113.739 395.199C113.739 397.847 115.888 399.993 118.539 399.993Z" fill="#141414"/>
<path d="M461.641 390.531V390.532C461.992 391.551 462.096 392.638 461.941 393.704C461.787 394.77 461.379 395.785 460.753 396.662C460.127 397.539 459.3 398.255 458.341 398.748C457.382 399.241 456.318 399.498 455.239 399.498H408.59L372.604 288.925L424.314 282.221L461.641 390.531Z" fill="white" stroke="#141414"/>
<path d="M416.814 385.235C415.699 385.237 414.585 385.175 413.477 385.051C413.413 385.045 413.351 385.027 413.294 384.997C413.237 384.967 413.187 384.925 413.146 384.876C413.106 384.826 413.075 384.768 413.057 384.707C413.039 384.645 413.034 384.58 413.041 384.516C413.048 384.453 413.068 384.391 413.1 384.335C413.131 384.279 413.174 384.23 413.225 384.19C413.276 384.151 413.334 384.122 413.396 384.106C413.458 384.089 413.523 384.085 413.587 384.094C419.585 384.773 425.605 383.392 431.756 381.79C439.506 379.774 447.309 377.522 454.944 375.102C455.064 375.07 455.192 375.085 455.301 375.144C455.41 375.203 455.492 375.303 455.529 375.421C455.567 375.539 455.557 375.668 455.502 375.779C455.448 375.89 455.352 375.976 455.235 376.019C447.583 378.446 439.765 380.7 431.999 382.722C426.882 384.062 421.852 385.235 416.814 385.235Z" fill="#141414"/>
<path d="M372.651 242.969L514.34 242.981L522.796 264.868C528.643 280.002 517.402 296.271 501.16 296.175L485.658 296.087C469.547 296.004 452.069 295.937 437.356 295.938C427.547 295.938 418.965 295.968 412.834 296.042C409.77 296.079 407.314 296.128 405.623 296.19C404.778 296.22 404.117 296.254 403.665 296.292C403.441 296.311 403.254 296.333 403.118 296.358C403.053 296.369 402.975 296.386 402.904 296.412C402.871 296.425 402.808 296.451 402.745 296.499C402.697 296.535 402.574 296.643 402.543 296.828L402.537 296.913L402.551 297.044C402.557 297.072 402.563 297.102 402.571 297.131C402.586 297.189 402.607 297.263 402.632 297.348C402.683 297.52 402.757 297.758 402.853 298.055C403.045 298.65 403.329 299.498 403.69 300.567C404.413 302.704 405.454 305.732 406.727 309.407C409.274 316.76 412.753 326.712 416.478 337.335C420.203 347.959 424.177 359.254 427.712 369.295L436.323 393.726C436.553 394.379 436.623 395.077 436.528 395.763C436.432 396.449 436.173 397.101 435.773 397.666C435.372 398.231 434.842 398.692 434.226 399.01C433.61 399.328 432.927 399.494 432.234 399.493H354.214C352.16 399.493 351.275 396.947 352.785 395.663L352.938 395.543L372.229 381.656L372.571 381.409L372.386 381.031L371.937 381.249C372.386 381.03 372.386 381.03 372.386 381.03L372.385 381.029C372.385 381.027 372.384 381.025 372.382 381.023C372.38 381.017 372.376 381.009 372.371 380.998C372.36 380.977 372.345 380.945 372.325 380.904C372.284 380.819 372.223 380.694 372.143 380.529C371.983 380.197 371.747 379.706 371.44 379.065C370.827 377.783 369.933 375.903 368.814 373.515C366.576 368.738 363.436 361.924 359.826 353.78C352.831 337.999 344.076 317.229 336.712 296.602L336.004 294.607C327.181 269.592 345.598 243.382 372.025 242.974L372.651 242.969Z" fill="white" stroke="#141414"/>
<path d="M394.485 388.686C386.544 388.686 379.882 386.935 374.627 383.433C373.999 383.037 373.42 382.568 372.903 382.035C372.816 381.941 372.77 381.816 372.775 381.687C372.78 381.559 372.836 381.438 372.93 381.351C373.025 381.264 373.15 381.218 373.278 381.223C373.407 381.228 373.528 381.284 373.615 381.379C374.078 381.855 374.596 382.273 375.159 382.626C381.466 386.817 389.898 388.434 400.22 387.427C404.998 386.963 409.797 386.014 414.441 385.097C418.275 384.339 422.24 383.565 426.187 383.044C426.311 383.034 426.434 383.071 426.531 383.149C426.627 383.227 426.69 383.339 426.706 383.462C426.722 383.585 426.689 383.71 426.616 383.81C426.542 383.909 426.433 383.977 426.31 383.998C422.396 384.506 418.448 385.287 414.628 386.042C409.962 386.963 405.138 387.918 400.314 388.386C398.3 388.587 396.357 388.687 394.485 388.686Z" fill="#141414"/>
<path d="M399.65 297.541H379.913C379.785 297.541 379.662 297.491 379.572 297.4C379.482 297.31 379.431 297.188 379.431 297.06C379.431 296.932 379.482 296.81 379.572 296.719C379.662 296.629 379.785 296.578 379.913 296.578H399.65C399.778 296.578 399.901 296.629 399.991 296.719C400.081 296.81 400.132 296.932 400.132 297.06C400.132 297.188 400.081 297.31 399.991 297.4C399.901 297.491 399.778 297.541 399.65 297.541Z" fill="#141414"/>
<path d="M524.842 288.925H443.211C440.151 288.925 437.671 291.403 437.671 294.46V298.638C437.671 301.694 440.151 304.172 443.211 304.172H524.842C527.902 304.172 530.382 301.694 530.382 298.638V294.46C530.382 291.403 527.902 288.925 524.842 288.925Z" fill="white"/>
<path d="M524.84 304.654H443.211C441.614 304.652 440.083 304.018 438.954 302.89C437.824 301.762 437.189 300.233 437.187 298.638V294.462C437.189 292.867 437.824 291.337 438.954 290.209C440.083 289.081 441.614 288.446 443.211 288.444H524.84C526.437 288.446 527.967 289.081 529.096 290.209C530.225 291.338 530.86 292.867 530.862 294.462V298.638C530.86 300.233 530.225 301.762 529.096 302.89C527.967 304.018 526.436 304.652 524.84 304.654ZM443.211 289.407C441.869 289.408 440.583 289.941 439.634 290.889C438.685 291.837 438.152 293.122 438.15 294.462V298.638C438.152 299.978 438.686 301.262 439.635 302.21C440.583 303.157 441.869 303.69 443.211 303.691H524.84C526.181 303.69 527.467 303.157 528.416 302.21C529.365 301.262 529.898 299.978 529.9 298.638V294.462C529.899 293.122 529.366 291.837 528.417 290.889C527.468 289.941 526.182 289.408 524.84 289.407H443.211Z" fill="#141414"/>
<path d="M413.863 389.471C413.793 389.472 413.725 389.457 413.661 389.428C413.604 389.401 413.552 389.364 413.508 389.318C413.465 389.271 413.432 389.217 413.41 389.157C413.388 389.098 413.378 389.035 413.38 388.971C413.383 388.908 413.398 388.846 413.425 388.789L452.602 303.756C452.628 303.699 452.666 303.647 452.712 303.604C452.759 303.561 452.813 303.528 452.873 303.506C452.932 303.484 452.995 303.474 453.059 303.476C453.122 303.479 453.184 303.494 453.242 303.52C453.299 303.547 453.351 303.584 453.394 303.63C453.437 303.677 453.47 303.731 453.492 303.791C453.514 303.85 453.524 303.913 453.522 303.976C453.52 304.04 453.505 304.102 453.478 304.159L414.303 389.191C414.265 389.275 414.203 389.347 414.125 389.396C414.046 389.446 413.956 389.472 413.863 389.471Z" fill="#141414"/>
<path d="M411.58 399.993C414.231 399.993 416.38 397.847 416.38 395.199C416.38 392.55 414.231 390.404 411.58 390.404C408.93 390.404 406.781 392.55 406.781 395.199C406.781 397.847 408.93 399.993 411.58 399.993Z" fill="#141414"/>
<path d="M554.188 389.471C554.095 389.472 554.005 389.445 553.927 389.396C553.85 389.346 553.788 389.275 553.75 389.191L514.673 304.374C514.647 304.316 514.632 304.254 514.629 304.191C514.627 304.128 514.637 304.064 514.659 304.005C514.681 303.946 514.714 303.891 514.757 303.845C514.801 303.799 514.852 303.761 514.91 303.735C514.967 303.708 515.03 303.693 515.093 303.691C515.156 303.688 515.219 303.698 515.279 303.72C515.338 303.742 515.392 303.776 515.439 303.819C515.485 303.862 515.523 303.913 515.549 303.971L554.628 388.789C554.654 388.846 554.669 388.908 554.672 388.971C554.674 389.035 554.664 389.098 554.642 389.157C554.62 389.216 554.587 389.271 554.544 389.317C554.501 389.364 554.449 389.401 554.391 389.428C554.328 389.457 554.258 389.472 554.188 389.471Z" fill="#141414"/>
<path d="M556.47 399.993C559.121 399.993 561.27 397.847 561.27 395.199C561.27 392.55 559.121 390.404 556.47 390.404C553.819 390.404 551.671 392.55 551.671 395.199C551.671 397.847 553.819 399.993 556.47 399.993Z" fill="#141414"/>
<path d="M378.311 184.497C368.839 179.556 358.283 174.463 347.903 176.997C346.738 177.282 345.393 177.89 345.253 179.081C345.058 180.722 347.189 181.51 348.83 181.718L356.916 182.748L357.354 182.854C355.382 183.729 353.349 184.823 352.223 186.683C351.097 188.543 351.275 191.338 353.128 192.463C352.504 193.055 352.043 193.797 351.787 194.618C351.532 195.438 351.491 196.311 351.668 197.152C351.846 197.993 352.236 198.774 352.802 199.422C353.368 200.07 354.09 200.562 354.9 200.851C354.138 201.873 354.37 203.353 354.994 204.467C355.494 205.357 356.208 206.108 357.072 206.652C357.936 207.197 358.923 207.517 359.942 207.584C360.961 207.651 361.981 207.462 362.909 207.036C363.837 206.609 364.643 205.958 365.255 205.141C365.229 205.088 365.198 205.038 365.172 204.985L365.391 204.944C365.345 205.012 365.295 205.075 365.247 205.141C367.385 209.32 370.098 213.181 373.306 216.61C373.991 217.346 374.706 218.053 375.431 218.748L390.734 192.211C386.712 189.366 382.631 186.747 378.311 184.497Z" fill="white"/>
<path d="M375.437 219.23C375.313 219.23 375.193 219.182 375.102 219.096C374.25 218.276 373.569 217.591 372.96 216.941C369.885 213.655 367.261 209.975 365.157 205.999C364.445 206.753 363.566 207.33 362.59 207.683C361.613 208.035 360.568 208.153 359.538 208.027C358.507 207.901 357.521 207.535 356.659 206.958C355.797 206.381 355.082 205.609 354.574 204.705C354.028 203.738 353.663 202.298 354.206 201.083C353.442 200.719 352.773 200.184 352.25 199.52C351.727 198.856 351.364 198.08 351.189 197.254C351.015 196.427 351.033 195.571 351.243 194.752C351.453 193.933 351.849 193.174 352.401 192.533C350.718 191.082 350.69 188.279 351.809 186.436C352.734 184.904 354.186 183.897 355.752 183.086L348.777 182.197C346.791 181.945 344.554 180.963 344.782 179.026C344.92 177.857 345.991 176.971 347.798 176.531C358.048 174.03 368.191 178.671 378.544 184.072C382.487 186.127 386.447 188.592 391.03 191.82C391.135 191.893 391.206 192.005 391.228 192.131C391.249 192.257 391.22 192.387 391.146 192.491C391.072 192.596 390.96 192.667 390.834 192.689C390.708 192.71 390.578 192.681 390.474 192.607C385.939 189.401 382.009 186.961 378.108 184.926C367.924 179.612 357.954 175.043 348.037 177.466C347.235 177.663 345.868 178.14 345.75 179.14C345.594 180.453 347.662 181.083 348.911 181.243L356.997 182.271H357.054L357.479 182.376C357.576 182.4 357.664 182.454 357.73 182.531C357.795 182.607 357.835 182.702 357.844 182.802C357.852 182.902 357.829 183.003 357.778 183.089C357.727 183.176 357.65 183.244 357.557 183.285C355.632 184.145 353.702 185.182 352.644 186.926C351.665 188.535 351.768 191.065 353.389 192.043C353.452 192.081 353.506 192.134 353.545 192.197C353.585 192.259 353.609 192.33 353.617 192.404C353.624 192.478 353.615 192.552 353.589 192.622C353.563 192.691 353.522 192.754 353.468 192.804C352.902 193.339 352.484 194.01 352.252 194.752C352.021 195.494 351.983 196.284 352.144 197.044C352.305 197.805 352.659 198.512 353.171 199.097C353.684 199.683 354.338 200.127 355.071 200.387C355.142 200.413 355.205 200.455 355.257 200.51C355.308 200.565 355.346 200.631 355.368 200.703C355.389 200.775 355.393 200.851 355.38 200.925C355.366 200.999 355.335 201.069 355.29 201.129C354.611 202.04 354.935 203.364 355.417 204.222C355.867 205.021 356.504 205.699 357.275 206.197C358.045 206.695 358.925 206.998 359.839 207.08C360.753 207.163 361.673 207.022 362.52 206.669C363.367 206.317 364.116 205.764 364.701 205.058C364.683 204.957 364.698 204.853 364.745 204.762C364.779 204.695 364.827 204.636 364.887 204.591C364.947 204.546 365.017 204.515 365.091 204.502L365.31 204.462C365.4 204.446 365.493 204.456 365.577 204.491C365.662 204.526 365.735 204.584 365.788 204.658C365.841 204.733 365.871 204.821 365.876 204.912C365.88 205.003 365.859 205.094 365.814 205.173C367.911 209.214 370.552 212.949 373.663 216.273C374.259 216.912 374.929 217.586 375.768 218.394C375.837 218.46 375.884 218.546 375.904 218.64C375.924 218.733 375.916 218.831 375.88 218.919C375.844 219.008 375.783 219.084 375.704 219.138C375.624 219.192 375.531 219.221 375.435 219.221L375.437 219.23Z" fill="#141414"/>
<path d="M354.19 192.227C354.088 192.228 353.987 192.196 353.903 192.136C353.82 192.076 353.758 191.991 353.726 191.893C353.695 191.795 353.695 191.69 353.728 191.592C353.761 191.495 353.824 191.41 353.908 191.351C355.569 190.149 357.375 189.16 359.284 188.408C359.402 188.364 359.533 188.368 359.648 188.419C359.763 188.47 359.854 188.564 359.9 188.682C359.947 188.799 359.945 188.929 359.896 189.046C359.848 189.162 359.755 189.254 359.639 189.303C357.805 190.026 356.07 190.977 354.473 192.133C354.391 192.192 354.292 192.225 354.19 192.227Z" fill="#141414"/>
<path d="M355.717 201.029C355.619 201.029 355.522 200.998 355.441 200.942C355.36 200.885 355.299 200.805 355.265 200.713C355.231 200.62 355.226 200.519 355.252 200.424C355.277 200.328 355.331 200.243 355.406 200.179C356.676 199.104 358.083 198.202 359.59 197.496C359.648 197.47 359.71 197.455 359.774 197.452C359.837 197.449 359.9 197.459 359.96 197.481C360.019 197.502 360.074 197.536 360.121 197.579C360.168 197.621 360.205 197.673 360.232 197.731C360.259 197.788 360.274 197.85 360.277 197.914C360.28 197.977 360.27 198.04 360.248 198.1C360.226 198.159 360.193 198.214 360.15 198.261C360.107 198.307 360.055 198.345 359.998 198.372C358.568 199.042 357.233 199.898 356.028 200.919C355.941 200.991 355.831 201.03 355.717 201.029Z" fill="#141414"/>
<path d="M365.411 205.158L361.264 205.051C361.201 205.049 361.138 205.035 361.08 205.01C361.023 204.984 360.97 204.947 360.927 204.901C360.883 204.856 360.849 204.802 360.826 204.743C360.803 204.684 360.793 204.621 360.794 204.557C360.796 204.494 360.81 204.432 360.835 204.374C360.861 204.316 360.898 204.264 360.944 204.221C360.99 204.177 361.044 204.143 361.103 204.12C361.162 204.097 361.225 204.086 361.288 204.088L365.435 204.195C365.563 204.197 365.685 204.249 365.774 204.341C365.863 204.432 365.912 204.556 365.91 204.683C365.909 204.811 365.856 204.933 365.764 205.022C365.673 205.111 365.55 205.16 365.422 205.158H365.411Z" fill="#141414"/>
<path d="M529.041 256.304C522.524 236.906 496.839 183.466 492.881 175.222C491.488 172.323 490.053 169.362 487.775 167.088C482.53 161.853 474.265 161.479 466.856 161.755C457.548 162.1 442.906 162.028 434.654 166.329C427.863 169.865 414.5 194.921 410.032 203.532C403.295 199.26 396.695 196.413 390.754 192.209L375.45 218.746C376.675 219.926 377.939 221.062 379.225 222.173C382.292 224.799 385.47 227.342 389.019 229.275C393.318 231.615 398.062 233.025 402.942 233.413C407.822 233.802 412.73 233.16 417.345 231.529C421.961 229.899 426.181 227.316 429.732 223.949C433.283 220.582 436.085 216.506 437.955 211.986L438.047 211.802C440.457 221.191 443.285 231.321 445.956 239.959C446.273 240.985 446.637 242.069 447.471 242.743C448.47 243.55 449.881 243.565 451.156 243.544L459.248 243.399C462.352 250.402 464.068 255.538 467.174 262.533C468.462 265.432 469.803 268.415 472.114 270.595C474.918 273.243 478.815 274.388 482.629 275.024C493.229 276.795 504.079 275.285 514.702 273.639C517.944 273.138 521.247 272.602 524.176 271.122C527.105 269.643 529.653 267.034 530.22 263.806C530.643 261.29 529.856 258.731 529.041 256.304Z" fill="url(#paint4_linear_152_191)"/>
<path d="M438.266 212.063C438.165 212.063 438.066 212.032 437.983 211.972C437.901 211.913 437.84 211.829 437.809 211.732C436.615 208.095 435.362 204.421 434.085 200.81C433.96 200.453 433.839 200.153 433.633 199.991C433.276 199.718 432.654 199.869 431.791 200.429C431.684 200.499 431.554 200.524 431.428 200.498C431.303 200.472 431.193 200.398 431.123 200.291C431.053 200.184 431.028 200.054 431.054 199.929C431.079 199.804 431.154 199.694 431.261 199.624C432.503 198.805 433.497 198.667 434.216 199.214C434.669 199.558 434.858 200.09 434.994 200.477C436.271 204.095 437.526 207.778 438.718 211.419C438.757 211.54 438.747 211.672 438.69 211.786C438.632 211.899 438.532 211.986 438.411 212.026C438.365 212.046 438.316 212.058 438.266 212.063Z" fill="#141414"/>
<path d="M431.734 119.216C431.734 119.216 421.876 140.072 430.801 148.057C439.725 156.043 455.89 144.09 455.89 144.09C455.89 144.09 442.058 113.211 431.734 119.216Z" fill="white"/>
<path d="M438.534 151.311C435.647 151.311 432.838 150.524 430.479 148.416C421.392 140.286 430.888 119.874 431.298 119.01C431.338 118.919 431.406 118.843 431.491 118.791C433.079 117.868 434.834 117.697 436.705 118.307C446.14 121.341 455.919 142.965 456.33 143.884C456.375 143.984 456.384 144.097 456.356 144.203C456.328 144.309 456.265 144.403 456.177 144.468C455.68 144.845 446.803 151.311 438.534 151.311ZM432.107 119.557C431.285 121.365 422.939 140.376 431.121 147.698C433.241 149.596 435.811 150.309 438.477 150.309C445.691 150.309 453.616 145.087 455.285 143.928C453.954 141.056 444.799 121.929 436.409 119.231C434.829 118.725 433.427 118.833 432.107 119.557Z" fill="#141414"/>
<path d="M423.767 117.476C424.347 120.647 425.857 123.604 428.507 125.595C430.33 126.965 432.45 127.871 434.516 128.777C436.582 129.683 438.678 130.561 440.396 132.027C442.492 133.826 443.347 136.349 443.138 139.08C442.919 142.072 441.848 144.941 441.248 147.865C440.172 153.117 439.822 159.179 443.077 163.779C446.19 168.176 452.175 169.94 454.35 175.078C455.505 177.803 455.434 180.899 455.097 183.784C454.722 187.018 454.017 190.202 453.783 193.454C453.564 196.571 453.724 199.742 454.786 202.707C455.664 205.096 457.004 207.29 458.729 209.163C462.295 213.083 467.078 215.748 472.077 217.398C478.32 219.457 485.093 220.147 491.573 218.899C497.091 217.84 502.377 215.365 506.564 211.594C515.216 203.804 517.749 191.205 514.198 180.324C512.445 174.951 509.321 170.038 505.356 166.027C503.345 163.991 501.107 162.245 498.8 160.555C496.493 158.866 494.075 157.161 492.035 155.097C490.007 153.04 488.443 150.572 487.448 147.86C486.397 145.035 485.842 142.056 485.308 139.106C484.776 136.183 484.248 133.259 483.382 130.41C482.514 127.54 481.384 124.756 480.007 122.093C477.317 116.913 473.669 111.808 468.935 108.306C466.55 106.495 463.752 105.305 460.793 104.842C457.741 104.404 454.644 104.748 451.671 105.512C451.117 105.654 450.576 105.816 450.019 105.986C447.61 105.385 445.185 104.785 442.759 104.207C440.131 103.577 437.469 102.945 434.744 102.846C433.386 102.778 432.025 102.893 430.698 103.187C425.798 105.544 422.945 110.761 423.606 116.158L423.767 117.476ZM423.767 117.476C424.347 120.647 425.857 123.604 428.507 125.595C430.33 126.965 432.45 127.871 434.516 128.777C436.582 129.683 438.678 130.561 440.396 132.027C442.492 133.826 443.347 136.349 443.138 139.08C442.919 142.072 441.848 144.941 441.248 147.865C440.172 153.117 439.822 159.179 443.077 163.779C446.19 168.176 452.175 169.94 454.35 175.078C455.505 177.803 455.434 180.899 455.097 183.784C454.722 187.018 454.017 190.202 453.783 193.454C453.564 196.571 453.724 199.742 454.786 202.707C455.664 205.096 457.004 207.29 458.729 209.163C462.295 213.083 467.078 215.748 472.077 217.398C478.32 219.457 485.093 220.147 491.573 218.899C497.091 217.84 502.377 215.365 506.564 211.594C515.216 203.804 517.749 191.205 514.198 180.324C512.445 174.951 509.321 170.038 505.356 166.027C503.345 163.991 501.107 162.245 498.8 160.555C496.493 158.866 494.075 157.161 492.035 155.097C490.007 153.04 488.443 150.572 487.448 147.86C486.397 145.035 485.842 142.056 485.308 139.106C484.776 136.183 484.248 133.259 483.382 130.41C482.514 127.54 481.384 124.756 480.007 122.093C477.317 116.913 473.669 111.808 468.935 108.306C466.55 106.495 463.752 105.305 460.793 104.842C457.741 104.404 454.644 104.748 451.671 105.512C451.117 105.654 450.576 105.816 450.019 105.986C447.61 105.385 445.185 104.785 442.759 104.207C440.131 103.577 437.469 102.945 434.744 102.846C433.386 102.778 432.025 102.893 430.698 103.187C425.798 105.544 422.945 110.761 423.606 116.158L423.767 117.476Z" fill="#141414"/>
<path d="M76.2511 0.407074H169.425C171.012 0.407655 172.533 1.03782 173.655 2.159C174.777 3.28019 175.407 4.8006 175.407 6.38591V48.8286C175.407 50.4137 174.777 51.9339 173.655 53.0548C172.533 54.1756 171.011 54.8053 169.425 54.8053H76.2511C74.6644 54.8053 73.1427 54.1756 72.0208 53.0548C70.8988 51.9339 70.2685 50.4137 70.2685 48.8286V6.38591C70.2685 4.8006 70.8988 3.28019 72.0207 2.159C73.1426 1.03782 74.6642 0.407655 76.2511 0.407074Z" fill="url(#paint5_linear_152_191)"/>
<path d="M167.449 79.0795C170.423 79.0795 172.833 76.6702 172.833 73.6982C172.833 70.7261 170.423 68.3168 167.449 68.3168C164.475 68.3168 162.064 70.7261 162.064 73.6982C162.064 76.6702 164.475 79.0795 167.449 79.0795Z" fill="#141414"/>
<path d="M183.16 79.0795C186.134 79.0795 188.545 76.6702 188.545 73.6982C188.545 70.7261 186.134 68.3168 183.16 68.3168C180.186 68.3168 177.775 70.7261 177.775 73.6982C177.775 76.6702 180.186 79.0795 183.16 79.0795Z" fill="#141414"/>
<path d="M198.873 79.0795C201.847 79.0795 204.258 76.6702 204.258 73.6982C204.258 70.7261 201.847 68.3168 198.873 68.3168C195.9 68.3168 193.489 70.7261 193.489 73.6982C193.489 76.6702 195.9 79.0795 198.873 79.0795Z" fill="#141414"/>
<path d="M70.86 42.1101H47.1181C44.5244 42.1101 42.4214 44.9419 42.4214 48.4325V97.0161C42.4214 100.518 44.5244 103.341 47.1181 103.341H149.392L130.703 85.2838V48.1101C130.703 44.7964 128.017 42.1101 124.703 42.1101H70.86Z" fill="white"/>
<path d="M149.392 103.818H47.1181C44.2703 103.818 41.9394 100.754 41.9394 97.0117V48.4282C41.9394 44.6772 44.2615 41.6243 47.1181 41.6243H70.86C70.9878 41.6243 71.1104 41.675 71.2008 41.7653C71.2912 41.8556 71.342 41.978 71.342 42.1057C71.342 42.2334 71.2912 42.3559 71.2008 42.4462C71.1104 42.5365 70.9878 42.5872 70.86 42.5872H47.1181C44.7938 42.5872 42.9033 45.2133 42.9033 48.4282V97.0117C42.9033 100.233 44.7938 102.855 47.1181 102.855H148.193L130.362 85.6252C130.27 85.5358 130.217 85.414 130.215 85.286L129.856 54.8119C129.856 54.6842 129.906 54.5617 129.997 54.4714C130.087 54.3811 130.21 54.3304 130.338 54.3304C130.465 54.3304 130.588 54.3811 130.678 54.4714C130.769 54.5617 130.819 54.6842 130.819 54.8119L131.177 85.0846L149.72 103.001C149.789 103.068 149.836 103.154 149.856 103.248C149.876 103.341 149.868 103.439 149.832 103.528C149.796 103.617 149.734 103.693 149.654 103.746C149.575 103.8 149.481 103.829 149.385 103.829L149.392 103.818Z" fill="#141414"/>
<path d="M87.5372 87.1265C87.4096 87.1259 87.2873 87.075 87.1971 86.9848C87.1068 86.8946 87.0558 86.7725 87.0553 86.645V78.5675C87.0553 78.4398 87.106 78.3173 87.1964 78.227C87.2868 78.1367 87.4094 78.086 87.5372 78.086C89.9047 78.0867 92.2269 77.4371 94.2498 76.2083C96.2726 74.9794 97.9183 73.2185 99.0069 71.1182C100.096 69.0178 100.585 66.6589 100.422 64.2993C100.259 61.9398 99.4499 59.6704 98.0829 57.7393C96.7158 55.8083 94.8436 54.2899 92.6709 53.3502C90.4983 52.4106 88.1088 52.0858 85.7638 52.4114C83.4188 52.737 81.2086 53.7004 79.3748 55.1964C77.541 56.6924 76.1542 58.6633 75.3661 60.8935C75.3221 61.0119 75.2333 61.1082 75.1189 61.1618C75.0045 61.2154 74.8736 61.2219 74.7544 61.18C74.6352 61.1381 74.5372 61.0512 74.4816 60.9378C74.426 60.8245 74.4171 60.6938 74.457 60.574C75.2975 58.198 76.7707 56.0959 78.718 54.494C80.6653 52.8921 83.013 51.8511 85.5085 51.4828C88.004 51.1146 90.5527 51.4332 92.8805 52.4042C95.2082 53.3753 97.2268 54.9622 98.719 56.994C100.211 59.0258 101.121 61.4256 101.349 63.9353C101.578 66.445 101.117 68.9694 100.017 71.237C98.9161 73.5045 97.2174 75.4294 95.1034 76.8043C92.9894 78.1793 90.5401 78.9523 88.0191 79.0402V86.6516C88.0174 86.7781 87.9659 86.8989 87.8757 86.9878C87.7855 87.0767 87.6639 87.1265 87.5372 87.1265Z" fill="#141414"/>
<path d="M87.5481 94.1186C87.4205 94.118 87.2983 94.0671 87.208 93.9769C87.1177 93.8867 87.0668 93.7646 87.0662 93.6371V90.2713C87.0662 90.1436 87.117 90.0211 87.2074 89.9308C87.2977 89.8405 87.4203 89.7898 87.5481 89.7898C87.676 89.7898 87.7985 89.8405 87.8889 89.9308C87.9793 90.0211 88.0301 90.1436 88.0301 90.2713V93.6371C88.0301 93.7648 87.9793 93.8872 87.8889 93.9775C87.7985 94.0678 87.676 94.1186 87.5481 94.1186Z" fill="#141414"/>
<path d="M509.998 61.4363H594.118C597.102 61.4363 599.518 64.1675 599.518 67.5377V110.869C599.518 114.239 597.108 116.97 594.118 116.97H491.529L504.353 104.695L504.598 67.5464C504.598 64.1675 507.017 61.4363 509.998 61.4363Z" fill="white"/>
<path d="M594.112 117.443H491.529C491.433 117.443 491.339 117.414 491.259 117.36C491.18 117.306 491.118 117.23 491.082 117.141C491.046 117.052 491.038 116.954 491.058 116.86C491.079 116.766 491.127 116.68 491.196 116.614L503.873 104.481L504.117 67.5333C504.117 63.907 506.756 60.9548 509.998 60.9548H594.118C597.362 60.9548 600 63.907 600 67.5377V110.869C600.002 114.491 597.356 117.443 594.112 117.443ZM492.728 116.48H594.112C596.824 116.48 599.03 113.959 599.03 110.86V67.5289C599.03 64.4301 596.824 61.9068 594.112 61.9068H509.992C507.28 61.9068 505.074 64.4301 505.074 67.5289L504.829 104.68C504.828 104.745 504.815 104.809 504.789 104.868C504.764 104.928 504.726 104.981 504.68 105.026L492.728 116.48Z" fill="#141414"/>
<path d="M589.165 76.8211H561.557V101.332H589.165V76.8211Z" fill="#141414"/>
<path d="M553.294 77.5476H529.902C529.839 77.5476 529.776 77.5352 529.718 77.511C529.659 77.4868 529.606 77.4513 529.562 77.4066C529.517 77.3619 529.481 77.3088 529.457 77.2504C529.433 77.192 529.42 77.1294 529.42 77.0662C529.42 77.0029 529.433 76.9403 529.457 76.8819C529.481 76.8235 529.517 76.7704 529.562 76.7257C529.606 76.681 529.659 76.6456 529.718 76.6214C529.776 76.5972 529.839 76.5847 529.902 76.5847H553.305C553.433 76.5847 553.555 76.6354 553.646 76.7257C553.736 76.816 553.787 76.9385 553.787 77.0662C553.787 77.1939 553.736 77.3163 553.646 77.4066C553.555 77.4969 553.433 77.5476 553.305 77.5476H553.294Z" fill="#141414"/>
<path d="M526.04 77.5476H515.983C515.92 77.5476 515.857 77.5352 515.799 77.511C515.74 77.4868 515.687 77.4513 515.642 77.4066C515.598 77.3619 515.562 77.3088 515.538 77.2504C515.514 77.192 515.501 77.1294 515.501 77.0662C515.501 77.0029 515.514 76.9403 515.538 76.8819C515.562 76.8235 515.598 76.7704 515.642 76.7257C515.687 76.681 515.74 76.6456 515.799 76.6214C515.857 76.5972 515.92 76.5847 515.983 76.5847H526.04C526.168 76.5847 526.291 76.6354 526.381 76.7257C526.471 76.816 526.522 76.9385 526.522 77.0662C526.522 77.1939 526.471 77.3163 526.381 77.4066C526.291 77.4969 526.168 77.5476 526.04 77.5476Z" fill="#141414"/>
<path d="M553.294 89.6804H536.358C536.23 89.6804 536.108 89.6297 536.017 89.5394C535.927 89.4491 535.876 89.3266 535.876 89.1989C535.876 89.0712 535.927 88.9488 536.017 88.8585C536.108 88.7682 536.23 88.7175 536.358 88.7175H553.294C553.422 88.7175 553.544 88.7682 553.635 88.8585C553.725 88.9488 553.776 89.0712 553.776 89.1989C553.776 89.3266 553.725 89.4491 553.635 89.5394C553.544 89.6297 553.422 89.6804 553.294 89.6804Z" fill="#141414"/>
<path d="M533.125 89.6804H515.983C515.855 89.6804 515.733 89.6297 515.642 89.5394C515.552 89.4491 515.501 89.3266 515.501 89.1989C515.501 89.0712 515.552 88.9488 515.642 88.8585C515.733 88.7682 515.855 88.7175 515.983 88.7175H533.125C533.253 88.7175 533.375 88.7682 533.466 88.8585C533.556 88.9488 533.607 89.0712 533.607 89.1989C533.607 89.3266 533.556 89.4491 533.466 89.5394C533.375 89.6297 533.253 89.6804 533.125 89.6804Z" fill="#141414"/>
<path d="M544.827 101.813H531.951C531.823 101.813 531.7 101.762 531.61 101.672C531.519 101.582 531.469 101.459 531.469 101.332C531.469 101.204 531.519 101.082 531.61 100.991C531.7 100.901 531.823 100.85 531.951 100.85H544.827C544.955 100.85 545.077 100.901 545.168 100.991C545.258 101.082 545.309 101.204 545.309 101.332C545.309 101.459 545.258 101.582 545.168 101.672C545.077 101.762 544.955 101.813 544.827 101.813Z" fill="#141414"/>
<path d="M527.394 101.813H515.983C515.855 101.813 515.733 101.762 515.642 101.672C515.552 101.582 515.501 101.459 515.501 101.332C515.501 101.204 515.552 101.082 515.642 100.991C515.733 100.901 515.855 100.85 515.983 100.85H527.394C527.522 100.85 527.645 100.901 527.735 100.991C527.825 101.082 527.876 101.204 527.876 101.332C527.876 101.459 527.825 101.582 527.735 101.672C527.645 101.762 527.522 101.813 527.394 101.813Z" fill="#141414"/>
</g>
<defs>
<linearGradient id="paint0_linear_152_191" x1="154.804" y1="229.847" x2="154.804" y2="151.578" gradientUnits="userSpaceOnUse">
<stop stop-color="#DC1D47"/>
<stop offset="1" stop-color="#E54327"/>
</linearGradient>
<linearGradient id="paint1_linear_152_191" x1="190.472" y1="233.648" x2="190.472" y2="153.555" gradientUnits="userSpaceOnUse">
<stop stop-color="#DC1D47"/>
<stop offset="1" stop-color="#E54327"/>
</linearGradient>
<linearGradient id="paint2_linear_152_191" x1="113.768" y1="277.024" x2="113.768" y2="151.578" gradientUnits="userSpaceOnUse">
<stop stop-color="#DC1D47"/>
<stop offset="1" stop-color="#E54327"/>
</linearGradient>
<linearGradient id="paint3_linear_152_191" x1="135.217" y1="234.052" x2="135.217" y2="171.771" gradientUnits="userSpaceOnUse">
<stop stop-color="#DC1D47"/>
<stop offset="1" stop-color="#E54327"/>
</linearGradient>
<linearGradient id="paint4_linear_152_191" x1="452.898" y1="275.821" x2="452.898" y2="161.689" gradientUnits="userSpaceOnUse">
<stop stop-color="#DC1D47"/>
<stop offset="1" stop-color="#E54327"/>
</linearGradient>
<linearGradient id="paint5_linear_152_191" x1="122.84" y1="54.8062" x2="122.84" y2="0.407074" gradientUnits="userSpaceOnUse">
<stop stop-color="#DC1D47"/>
<stop offset="1" stop-color="#E54327"/>
</linearGradient>
<clipPath id="clip0_152_191">
<rect width="600" height="400" fill="white"/>
</clipPath>
</defs>
</svg>