<svg width="600" height="400" viewBox="0 0 600 400" fill="none" xmlns="http://www.w3.org/2000/svg">
<path d="M378.439 299.964V294.205C378.439 292.796 377.868 291.444 376.851 290.447C375.835 289.45 374.456 288.89 373.018 288.89H340.882C339.444 288.89 338.065 289.45 337.049 290.447C336.032 291.444 335.461 292.796 335.461 294.205V299.964H248.172V389.556C248.172 390.868 248.435 392.167 248.947 393.379C249.459 394.591 250.209 395.692 251.156 396.62C252.102 397.547 253.225 398.283 254.461 398.785C255.698 399.287 257.023 399.546 258.361 399.546H393.557V299.964H378.439Z" fill="white"/>
<path d="M393.557 400H303.258C303.135 400 303.017 399.952 302.93 399.867C302.844 399.782 302.795 399.666 302.795 399.546C302.795 399.425 302.844 399.31 302.93 399.225C303.017 399.14 303.135 399.092 303.258 399.092H393.094V300.428H378.439C378.317 300.428 378.199 300.381 378.112 300.295C378.025 300.21 377.976 300.095 377.976 299.974V294.215C377.975 292.927 377.452 291.691 376.522 290.78C375.593 289.869 374.332 289.356 373.018 289.355H340.882C339.568 289.356 338.308 289.869 337.378 290.78C336.448 291.691 335.926 292.927 335.924 294.215V299.974C335.924 300.034 335.912 300.093 335.889 300.148C335.866 300.204 335.832 300.254 335.789 300.296C335.746 300.338 335.695 300.372 335.638 300.394C335.582 300.417 335.522 300.429 335.461 300.428H274.717C274.594 300.428 274.476 300.381 274.389 300.295C274.303 300.21 274.254 300.095 274.254 299.974C274.254 299.854 274.303 299.738 274.389 299.653C274.476 299.568 274.594 299.52 274.717 299.52H334.997V294.215C334.997 292.683 335.619 291.213 336.724 290.129C337.83 289.045 339.329 288.436 340.893 288.436H373.007C374.571 288.436 376.07 289.045 377.176 290.129C378.282 291.213 378.903 292.683 378.903 294.215V299.52H393.566C393.689 299.52 393.807 299.568 393.893 299.653C393.98 299.738 394.029 299.854 394.029 299.974V399.546C394.029 399.606 394.016 399.666 393.992 399.721C393.969 399.777 393.934 399.827 393.89 399.869C393.846 399.912 393.794 399.945 393.737 399.967C393.68 399.99 393.619 400.001 393.557 400Z" fill="#141414"/>
<path d="M393.557 312.161V399.546L407.185 312.161H393.557Z" fill="#141414"/>
<path d="M394.021 399.614L393.098 399.546V311.704H407.728L394.021 399.614ZM394.021 312.615V393.564L406.654 312.615H394.021Z" fill="#141414"/>
<path d="M561.214 114.067C582.635 93.0676 582.635 59.0213 561.214 38.0222C539.793 17.0231 505.062 17.0231 483.641 38.0222C462.22 59.0213 462.22 93.0676 483.641 114.067C505.062 135.066 539.793 135.066 561.214 114.067Z" fill="url(#paint0_linear_152_103)"/>
<mask id="mask0_152_103" style="mask-type:luminance" maskUnits="userSpaceOnUse" x="474" y="28" width="97" height="96">
<path d="M556.399 109.347C575.161 90.9544 575.161 61.1346 556.399 42.7424C537.637 24.3501 507.218 24.3501 488.456 42.7424C469.694 61.1346 469.694 90.9544 488.456 109.347C507.218 127.739 537.637 127.739 556.399 109.347Z" fill="white"/>
</mask>
<g mask="url(#mask0_152_103)">
<path d="M549.599 98.7545L522.437 92.6201L495.265 98.7545C491.676 99.5653 488.374 101.301 485.699 103.783C483.024 106.264 481.074 109.401 480.05 112.869L474.155 143.417H570.722L564.827 112.869C563.802 109.399 561.85 106.261 559.173 103.779C556.496 101.298 553.19 99.563 549.599 98.7545Z" fill="white"/>
<path d="M527.451 109.112H517.407C515.632 109.112 513.929 108.421 512.674 107.19C511.419 105.96 510.713 104.291 510.713 102.55V76.1301H534.146V102.55C534.146 103.412 533.973 104.266 533.637 105.062C533.3 105.858 532.807 106.582 532.185 107.191C531.563 107.8 530.825 108.284 530.013 108.613C529.2 108.943 528.33 109.112 527.451 109.112Z" fill="white"/>
<path d="M541.861 61.5803C541.032 61.3837 540.161 61.4436 539.368 61.7516C538.694 51.2248 531.367 44.0872 522.427 44.0872C513.487 44.0872 506.161 51.2248 505.487 61.7516C504.694 61.4437 503.822 61.3838 502.992 61.5803C500.483 62.1995 499.044 65.0397 499.779 67.9398C500.514 70.8398 503.148 72.6872 505.656 72.0865C506.052 71.9886 506.431 71.8312 506.778 71.62C509.366 79.3934 515.398 85.3442 522.427 85.3442C529.455 85.3442 535.481 79.3934 538.075 71.62C538.423 71.8305 538.802 71.9878 539.198 72.0865C541.707 72.7057 544.339 70.8481 545.074 67.9398C545.809 65.0315 544.373 62.1913 541.861 61.5803Z" fill="white"/>
<path d="M522.427 85.7983C515.596 85.7983 509.132 80.1571 506.338 71.7625C506.318 71.7054 506.309 71.6449 506.312 71.5844C506.316 71.524 506.332 71.4649 506.359 71.4106C506.386 71.3563 506.424 71.3078 506.471 71.2681C506.518 71.2284 506.572 71.1983 506.631 71.1794C506.689 71.1605 506.751 71.1534 506.813 71.1583C506.874 71.1633 506.934 71.1802 506.989 71.2082C507.044 71.2362 507.092 71.2746 507.132 71.3212C507.171 71.3679 507.2 71.4217 507.218 71.4797C509.888 79.5007 516.001 84.8963 522.427 84.8963C528.853 84.8963 534.968 79.5069 537.635 71.4797C537.654 71.4229 537.684 71.3703 537.724 71.3249C537.764 71.2796 537.812 71.2423 537.867 71.2153C537.921 71.1883 537.98 71.172 538.041 71.1674C538.102 71.1629 538.163 71.1701 538.221 71.1886C538.279 71.2072 538.332 71.2368 538.379 71.2757C538.425 71.3145 538.463 71.362 538.49 71.4153C538.518 71.4685 538.535 71.5266 538.539 71.5862C538.544 71.6458 538.537 71.7057 538.518 71.7625C535.726 80.1571 529.257 85.7983 522.427 85.7983Z" fill="#141414"/>
<path d="M528.169 36.0145C513.647 33.6243 496.773 36.5904 503.906 59.0126L505.759 64.3916L508.724 66.3607C508.724 66.3607 507.882 51.5777 512.615 50.8078C517.083 50.0813 517.367 52.9875 522.722 52.8513C528.084 52.9875 528.369 50.0813 532.828 50.8078C537.553 51.5777 536.719 66.3607 536.719 66.3607L539.684 64.3916L541.537 59.0126C546.272 41.5917 538.711 34.7224 528.169 36.0145Z" fill="#141414"/>
</g>
<path d="M570.589 142.247H474.264V158.479H570.589V142.247Z" fill="#141414"/>
<path d="M192.751 51.4807C191.503 47.8067 188.961 44.4443 185.399 42.7703C181.836 41.0963 177.238 41.3791 174.284 43.9489C172.247 45.7199 171.163 48.3433 170.704 50.9668C169.986 55.0949 170.721 59.5224 173.149 62.9591C175.576 66.3958 179.783 68.6849 184.041 68.4393C193.684 67.8882 195.24 58.8062 192.751 51.4807Z" fill="#141414"/>
<path d="M255.542 94.1248C254.91 90.0689 254.293 85.8685 255.375 81.9116C256.31 78.4831 258.494 75.3519 258.599 71.7976C258.713 67.9418 256.249 64.3545 253.049 62.1562C249.848 59.9579 245.989 58.9259 242.178 58.125C233.236 56.2443 224.099 55.4011 214.957 55.613C207.764 55.7823 200.18 56.7607 194.484 61.1118C188.833 65.4298 185.959 72.3528 183.727 79.0693C177.164 98.8165 174.041 119.497 170.963 140.057C170.456 143.438 169.971 147.017 171.3 150.171C173.174 154.627 178.076 156.956 182.67 158.58C202.088 165.441 223.126 166.711 243.706 165.462C248.715 165.158 253.929 164.636 258.19 162.017C268.131 155.891 262.926 141.88 261.513 132.738C259.521 119.867 257.531 106.996 255.542 94.1248Z" fill="#141414"/>
<path d="M387.197 113.092C390.776 119.249 394.92 125.086 399.775 130.347C402.308 133.136 405.059 135.727 408.004 138.096C410.926 140.38 414.009 142.459 417.23 144.317C418.106 144.829 418.989 145.325 419.877 145.812C435.993 115.866 445.055 85.982 445.055 85.982C457.889 76.9 450.458 72.1526 450.458 72.1526C452.467 64.309 445.971 63.6031 445.971 63.6031C444.062 54.1331 435.471 58.0445 435.471 58.0445C442.497 47.9305 445.944 31.3806 425.509 52.0752C413.434 64.307 397.926 87.0119 384.002 107.254C385.021 109.222 386.078 111.174 387.197 113.092Z" fill="white"/>
<path d="M421.149 143.882C421.11 143.882 421.072 143.877 421.035 143.867C420.976 143.853 420.92 143.827 420.871 143.792C420.822 143.756 420.781 143.712 420.749 143.661C420.718 143.609 420.697 143.553 420.689 143.493C420.68 143.434 420.683 143.374 420.698 143.316C420.98 142.214 421.54 141.458 422.13 140.666C422.313 140.418 422.505 140.162 422.694 139.884C432.037 120.258 439.242 102.534 444.721 85.7012C444.75 85.6075 444.811 85.5262 444.893 85.4701C447.721 83.4885 450.393 81.6185 451.547 78.6008C452.086 77.0176 452.625 74.0907 450.119 72.4539C450.032 72.3971 449.968 72.3132 449.936 72.2158C449.904 72.1184 449.906 72.0132 449.943 71.9173C451.107 68.8748 449.418 65.2523 446.178 63.8405C445.26 63.5433 445.06 62.5525 444.885 61.6794C444.773 61.1262 444.657 60.5524 444.375 60.1375C441.752 56.7091 437.779 57.6152 435.646 58.4615C435.608 58.4759 435.568 58.4856 435.528 58.4904C435.481 58.4966 435.433 58.4966 435.387 58.4904C435.322 58.4772 435.261 58.4505 435.208 58.4119C435.185 58.3948 435.164 58.3755 435.145 58.3541C435.118 58.3242 435.096 58.2909 435.079 58.2551C435.062 58.2163 435.051 58.1753 435.046 58.1333C435.041 58.0796 435.048 58.0256 435.065 57.9743C435.075 57.9455 435.088 57.9178 435.105 57.8918C435.302 57.5835 435.506 57.2705 435.715 56.9526C438.511 52.6717 441.678 47.8211 439.977 42.9437C439.695 42.7538 439.135 42.7372 438.831 42.7372C435.062 43.7693 432.163 46.2916 429.356 48.7355C428.984 49.0616 428.613 49.3857 428.242 49.7035C414.198 63.8013 403.715 79.2448 392.614 95.5944C390.528 98.6678 388.371 101.847 386.213 104.976C386.144 105.076 386.038 105.145 385.917 105.167C385.796 105.19 385.671 105.165 385.569 105.097C385.467 105.03 385.397 104.925 385.373 104.807C385.35 104.688 385.376 104.566 385.445 104.466C387.601 101.341 389.757 98.1642 391.844 95.0908C402.944 78.6214 413.451 63.1408 427.581 48.9502C427.977 48.6096 428.346 48.2876 428.718 47.9635C431.616 45.4371 434.614 42.8239 438.615 41.7506C438.654 41.7406 438.695 41.7358 438.737 41.7362C439.189 41.7362 440.131 41.7362 440.667 42.2625C440.716 42.3103 440.754 42.3681 440.777 42.4318C442.573 47.3608 439.745 52.2733 437.107 56.3582C437.107 56.4882 436.951 56.7937 436.726 57.1343C440.211 56.1848 443.156 57.0393 445.123 59.6112C445.523 60.1974 445.662 60.8888 445.786 61.5019C445.952 62.3275 446.077 62.8518 446.504 62.9922C450.109 64.5609 452.012 68.4909 450.926 71.9028C452.892 73.3786 453.438 75.9071 452.419 78.9021C451.178 82.1469 448.334 84.1738 445.554 86.1264C440.065 102.961 432.856 120.685 423.518 140.303C423.508 140.323 423.496 140.343 423.484 140.362C423.273 140.664 423.075 140.938 422.878 141.205C422.317 141.96 421.825 142.612 421.595 143.543C421.569 143.64 421.511 143.725 421.43 143.786C421.35 143.848 421.251 143.881 421.149 143.882Z" fill="#141414"/>
<path d="M418.675 92.2073C418.38 92.2064 418.085 92.1801 417.795 92.1288C417.673 92.1075 417.566 92.0398 417.496 91.9407C417.425 91.8416 417.398 91.7192 417.42 91.6004C417.442 91.4816 417.511 91.3762 417.612 91.3073C417.713 91.2384 417.838 91.2116 417.959 91.233C420.222 91.6458 422.275 90.0441 423.343 88.5497C424.368 87.1275 424.979 85.4143 425.568 83.7569C425.722 83.3275 425.876 82.8982 426.034 82.473C426.764 80.5369 427.868 78.1384 429.967 76.7121C430.963 76.0392 432.098 75.6429 433.195 75.2673C433.681 75.098 434.187 74.9226 434.669 74.7265C435.932 74.2084 437.509 73.2816 437.922 71.748C438.465 69.7417 436.635 67.7561 434.652 67.2297C432.532 66.6642 430.241 67.2607 428.078 67.9893C422.13 69.9956 417.18 72.7099 413.367 76.0578C413.321 76.0975 413.268 76.1281 413.211 76.1477C413.153 76.1673 413.092 76.1756 413.031 76.1722C412.971 76.1687 412.911 76.1536 412.856 76.1276C412.801 76.1016 412.752 76.0653 412.712 76.0207C412.671 75.9761 412.64 75.9241 412.62 75.8677C412.6 75.8113 412.592 75.7516 412.595 75.692C412.599 75.6324 412.614 75.5741 412.641 75.5203C412.667 75.4665 412.704 75.4184 412.75 75.3787C416.656 71.9523 421.711 69.1865 427.777 67.1224C430.079 66.3463 432.534 65.7147 434.896 66.3442C437.299 66.9841 439.501 69.4527 438.819 71.973C438.309 73.8534 436.475 74.9597 435.029 75.5563C434.528 75.7627 434.012 75.9422 433.511 76.1156C432.422 76.4954 431.395 76.8546 430.5 77.4593C428.615 78.7349 427.592 80.9683 426.92 82.7868C426.762 83.1996 426.611 83.631 426.459 84.0562C425.848 85.7735 425.215 87.5465 424.116 89.074C423.016 90.6014 421.001 92.2073 418.675 92.2073Z" fill="#141414"/>
<path d="M433.13 80.5575C432.965 80.5581 432.8 80.5484 432.637 80.5286C431.125 80.3553 429.596 79.0838 429.735 77.4738C429.745 77.3536 429.804 77.2423 429.898 77.1643C429.991 77.0863 430.113 77.048 430.235 77.0579C430.358 77.0677 430.472 77.1249 430.551 77.2168C430.631 77.3088 430.67 77.4279 430.66 77.5481C430.567 78.6214 431.685 79.5049 432.744 79.6266C433.742 79.7422 434.85 79.4202 436.214 78.5946C438.573 77.1653 440.551 75.2064 441.985 72.8796C443.418 70.5528 444.267 67.9249 444.46 65.2131C444.469 65.0934 444.526 64.9821 444.618 64.9027C444.71 64.8233 444.83 64.7822 444.952 64.7879C445.075 64.7953 445.189 64.8502 445.271 64.9403C445.352 65.0305 445.394 65.1487 445.386 65.2688C445.183 68.1268 444.29 70.8964 442.779 73.3486C441.268 75.8008 439.183 77.865 436.696 79.3707C435.818 79.897 434.532 80.5575 433.13 80.5575Z" fill="#141414"/>
<path d="M439.398 81.668C439.166 81.6681 438.934 81.6501 438.705 81.6144C437.351 81.4079 436.254 80.444 436.039 79.2923C436.028 79.2336 436.029 79.1733 436.042 79.115C436.055 79.0566 436.079 79.0012 436.113 78.9521C436.148 78.9029 436.192 78.8609 436.243 78.8284C436.294 78.7959 436.351 78.7737 436.411 78.7628C436.471 78.752 436.532 78.7528 436.592 78.7652C436.651 78.7777 436.708 78.8015 436.758 78.8353C436.808 78.8691 436.851 78.9123 436.884 78.9624C436.917 79.0125 436.94 79.0684 436.951 79.1271C437.115 79.9982 438.031 80.5864 438.846 80.7165C439.661 80.8465 440.573 80.6793 441.727 80.1943C444.944 78.8313 447.496 76.2956 448.841 73.1227C448.864 73.0665 448.897 73.0152 448.94 72.9718C448.983 72.9285 449.034 72.8939 449.09 72.8702C449.147 72.8464 449.208 72.8339 449.269 72.8334C449.331 72.833 449.392 72.8445 449.449 72.8674C449.506 72.8903 449.557 72.9241 449.601 72.9668C449.644 73.0095 449.679 73.0603 449.702 73.1161C449.725 73.172 449.737 73.2318 449.736 73.2921C449.736 73.3524 449.723 73.412 449.698 73.4674C448.261 76.8606 445.533 79.5727 442.093 81.0302C441.248 81.4193 440.331 81.6363 439.398 81.668Z" fill="#141414"/>
<path d="M444.133 84.8137C443.646 84.8195 443.165 84.7188 442.722 84.5191C442.28 84.3194 441.889 84.0256 441.577 83.6591C441.266 83.2926 441.041 82.8626 440.92 82.4003C440.799 81.9381 440.785 81.4552 440.878 80.9869C440.902 80.869 440.973 80.7653 441.075 80.6977C441.176 80.6302 441.301 80.6044 441.421 80.6257C441.481 80.6368 441.538 80.6594 441.589 80.6922C441.64 80.7251 441.684 80.7674 441.718 80.8169C441.753 80.8664 441.776 80.922 441.789 80.9806C441.801 81.0391 441.801 81.0995 441.79 81.1582C441.707 81.5789 441.746 82.0137 441.9 82.4145C442.054 82.8152 442.319 83.1663 442.664 83.4287C443.009 83.6912 443.422 83.8548 443.856 83.9014C444.291 83.948 444.73 83.8759 445.125 83.6929C445.18 83.6667 445.24 83.6515 445.302 83.6483C445.363 83.645 445.425 83.6537 445.483 83.6738C445.541 83.694 445.594 83.7252 445.64 83.7657C445.685 83.8062 445.722 83.8551 445.748 83.9097C445.774 83.9643 445.789 84.0234 445.792 84.0836C445.795 84.1439 445.785 84.204 445.764 84.2606C445.743 84.3172 445.711 84.3692 445.669 84.4135C445.627 84.4577 445.577 84.4934 445.521 84.5185C445.086 84.7159 444.612 84.8167 444.133 84.8137Z" fill="#141414"/>
<path d="M47.7914 208.977C47.7914 208.977 74.2942 258.183 114.629 257.033C154.963 255.883 172.321 220.587 172.321 220.587C172.321 220.587 160.38 256.463 173.563 266.053C186.746 275.643 281.79 284.911 288.397 255.501C293.113 234.483 289.216 220.542 291.646 203.835C291.646 203.835 357.487 211.706 390.46 187.052C411.358 171.427 426.533 133.865 426.533 133.865C426.533 133.865 413.053 105.661 385.809 104.629L370.96 125.063C366.884 130.67 361.532 135.27 355.328 138.497C349.123 141.724 342.238 143.491 335.216 143.657L175.374 147.422C158.824 147.812 143.399 155.928 134.126 169.371C123.939 184.138 107.507 200.787 86.1402 198.456L47.7914 208.977Z" fill="url(#paint1_linear_152_103)"/>
<path d="M291.088 201.641C290.966 201.641 290.849 201.594 290.762 201.51C290.675 201.425 290.626 201.311 290.625 201.191C290.566 193.411 292.199 185.709 295.413 178.596C295.469 178.497 295.561 178.422 295.671 178.386C295.781 178.351 295.9 178.357 296.006 178.403C296.112 178.449 296.196 178.533 296.242 178.637C296.288 178.741 296.293 178.858 296.255 178.965C293.096 185.96 291.491 193.533 291.547 201.183C291.547 201.303 291.5 201.419 291.414 201.505C291.328 201.59 291.211 201.639 291.088 201.641Z" fill="#141414"/>
<path d="M213.618 221.021C211.216 221.024 208.827 220.683 206.526 220.009C200.446 218.194 195.298 214.178 192.128 208.777C192.096 208.725 192.075 208.667 192.066 208.607C192.057 208.547 192.06 208.486 192.075 208.427C192.091 208.368 192.118 208.313 192.156 208.265C192.193 208.217 192.241 208.176 192.294 208.146C192.348 208.116 192.408 208.097 192.469 208.09C192.53 208.083 192.593 208.087 192.652 208.104C192.712 208.121 192.767 208.149 192.815 208.188C192.864 208.226 192.903 208.273 192.933 208.327C195.966 213.54 200.929 217.411 206.793 219.138C212.657 220.865 218.973 220.316 224.436 217.605C224.546 217.554 224.671 217.547 224.786 217.585C224.901 217.623 224.996 217.704 225.051 217.81C225.106 217.916 225.116 218.039 225.08 218.153C225.044 218.266 224.964 218.361 224.857 218.418C221.37 220.135 217.52 221.026 213.618 221.021Z" fill="#141414"/>
<path d="M264.069 215.778C263.951 215.781 263.836 215.739 263.748 215.661C263.66 215.583 263.606 215.475 263.597 215.359C263.588 215.243 263.624 215.129 263.699 215.038C263.773 214.948 263.88 214.889 263.998 214.874C272.569 213.565 279.947 206.225 281.158 197.804C281.922 192.495 280.299 186.889 276.707 182.422C276.669 182.375 276.641 182.322 276.625 182.264C276.609 182.207 276.604 182.147 276.611 182.088C276.618 182.028 276.637 181.971 276.667 181.919C276.697 181.867 276.737 181.821 276.785 181.785C276.833 181.748 276.887 181.72 276.946 181.704C277.004 181.688 277.066 181.684 277.126 181.691C277.187 181.698 277.245 181.716 277.298 181.746C277.351 181.775 277.398 181.814 277.435 181.861C281.183 186.52 282.874 192.377 282.068 197.932C280.804 206.733 273.092 214.403 264.132 215.774L264.069 215.778Z" fill="#141414"/>
<path d="M172.843 216.915C172.824 216.917 172.805 216.917 172.786 216.915C172.726 216.908 172.667 216.89 172.614 216.861C172.561 216.831 172.514 216.792 172.477 216.745C172.439 216.698 172.411 216.644 172.395 216.587C172.379 216.529 172.375 216.469 172.382 216.41C172.856 212.585 173.347 208.63 172.485 204.824C171.753 201.581 169.567 197.641 165.634 196.301C165.576 196.282 165.523 196.251 165.478 196.212C165.432 196.172 165.395 196.124 165.369 196.07C165.342 196.017 165.326 195.959 165.323 195.899C165.319 195.839 165.328 195.78 165.347 195.723C165.367 195.667 165.398 195.615 165.439 195.57C165.479 195.526 165.528 195.489 165.583 195.463C165.638 195.437 165.697 195.422 165.758 195.418C165.819 195.415 165.879 195.423 165.937 195.443C169.529 196.667 172.386 200.19 173.391 204.626C174.288 208.587 173.787 212.62 173.302 216.519C173.288 216.628 173.233 216.729 173.149 216.802C173.064 216.874 172.956 216.915 172.843 216.915Z" fill="#141414"/>
<path d="M107.577 220.587H45.8522C45.206 220.587 44.5727 220.41 44.0233 220.077C43.474 219.743 43.0303 219.266 42.7423 218.699L0.363486 135.283C0.100014 134.763 -0.023798 134.186 0.00377561 133.607C0.0313492 133.027 0.209395 132.464 0.52105 131.971C0.832704 131.478 1.26765 131.071 1.78467 130.788C2.3017 130.506 2.88369 130.358 3.47552 130.358H65.2003C65.8463 130.358 66.4796 130.534 67.029 130.867C67.5783 131.201 68.022 131.678 68.3102 132.244L110.687 215.662C110.95 216.182 111.074 216.758 111.047 217.338C111.019 217.917 110.841 218.48 110.53 218.973C110.218 219.466 109.784 219.873 109.267 220.156C108.75 220.438 108.169 220.587 107.577 220.587Z" fill="#141414"/>
<path d="M39.1397 170.901C37.7121 170.319 36.2677 171.662 35.4023 172.919C33.0377 176.356 31.3581 180.2 30.4521 184.249C31.1624 176.721 31.8712 169.193 32.5787 161.666C32.8061 159.245 32.4566 156.008 30.0225 155.54C28.1402 155.176 26.5547 156.9 25.5756 158.518C23.5663 161.842 22.2174 165.508 21.6003 169.324C22.5127 164.122 23.4251 158.922 24.3375 153.723C24.5481 152.52 24.746 151.22 24.1922 150.126C23.0068 147.785 19.1241 148.214 17.5028 150.287C17.2612 150.597 17.0497 150.929 16.8712 151.277C16.9596 150.922 17.0417 150.567 17.1091 150.21C17.5913 147.669 16.8038 144.379 14.235 143.789C12.639 143.423 10.9566 144.34 10.0028 145.647C9.04897 146.953 8.68682 148.582 8.43415 150.169C7.34953 157.086 7.91236 164.154 10.0786 170.822C14.0413 186.402 25.0618 200.526 38.3101 209.976C34.9896 198.396 40.2535 186.402 40.5904 174.377C40.6283 173.043 40.3988 171.413 39.1397 170.901Z" fill="white"/>
<path d="M38.3101 210.432C38.2124 210.432 38.1173 210.402 38.0384 210.345C23.7648 200.167 13.4033 185.801 9.62799 170.936C7.44747 164.209 6.88252 157.079 7.97722 150.103C8.23621 148.47 8.6089 146.769 9.62589 145.384C10.5966 144.053 12.4305 142.907 14.3424 143.347C16.7975 143.913 17.8966 146.732 17.6818 149.424C18.2308 148.948 18.8725 148.587 19.5681 148.361C20.2636 148.135 20.9987 148.05 21.7287 148.111C23.051 148.237 24.0722 148.881 24.6007 149.923C25.245 151.193 24.9818 152.699 24.7881 153.8L23.411 161.666C23.9285 160.508 24.5177 159.382 25.1755 158.295C26.0177 156.908 27.7696 154.656 30.111 155.1C32.2944 155.513 33.3893 157.99 33.0398 161.705L31.3554 179.663C32.2935 177.198 33.5238 174.849 35.0212 172.665C36.3477 170.74 37.9542 169.924 39.3207 170.482C40.5167 170.967 41.1168 172.321 41.0578 174.391C40.9336 178.837 40.1335 183.322 39.3586 187.659C37.9837 195.354 36.6867 202.622 38.7606 209.854C38.7872 209.945 38.7839 210.042 38.7515 210.131C38.719 210.22 38.6589 210.297 38.5796 210.352C38.5003 210.405 38.4062 210.433 38.3101 210.432ZM13.5107 144.162C12.2473 144.162 11.0387 145.009 10.3818 145.913C9.48271 147.151 9.13529 148.722 8.89315 150.247C7.82028 157.095 8.37733 164.093 10.5208 170.694C14.1655 185.019 23.9796 198.857 37.5394 208.859C35.8865 201.814 37.1836 194.549 38.4406 187.508C39.2091 183.203 40.005 178.75 40.1251 174.372C40.1587 173.212 39.9819 171.743 38.9586 171.326C37.5836 170.766 36.1813 172.603 35.7834 173.184C33.4578 176.575 31.8029 180.366 30.9048 184.356C30.8861 184.475 30.8199 184.582 30.7208 184.654C30.6216 184.725 30.4977 184.755 30.3763 184.736C30.2548 184.718 30.1458 184.653 30.0731 184.556C30.0004 184.459 29.9701 184.337 29.9888 184.218L32.1155 161.635C32.2271 160.432 32.4039 156.475 29.932 155.996C28.1528 155.651 26.6852 157.581 25.9714 158.76C24.1298 161.811 22.8471 165.154 22.1814 168.638L22.0466 169.41C22.037 169.469 22.0154 169.526 21.9833 169.576C21.9512 169.627 21.9091 169.671 21.8596 169.705C21.81 169.74 21.7539 169.765 21.6946 169.778C21.6353 169.791 21.5738 169.792 21.5139 169.782C21.3932 169.762 21.2853 169.696 21.2139 169.599C21.1425 169.501 21.1133 169.38 21.1328 169.262C21.1749 169.002 21.2192 168.742 21.2697 168.479L23.8637 153.655C24.0869 152.39 24.2322 151.267 23.7606 150.338C23.2468 149.325 22.2046 149.081 21.6276 149.025C20.2232 148.889 18.6798 149.529 17.8545 150.573C17.6314 150.861 17.4368 151.168 17.2733 151.492C17.2221 151.592 17.1351 151.669 17.0291 151.71C16.9231 151.751 16.8054 151.752 16.6986 151.714C16.5917 151.675 16.5032 151.599 16.45 151.5C16.3968 151.401 16.3826 151.287 16.41 151.178C16.5111 150.778 16.5848 150.448 16.6437 150.146C17.0438 148.031 16.5258 144.804 14.1171 144.251C13.919 144.199 13.7156 144.169 13.5107 144.162Z" fill="#141414"/>
<path d="M13.6665 171.299C13.5512 171.298 13.4404 171.255 13.3553 171.179C13.2702 171.103 13.2168 170.999 13.2054 170.886C12.4529 164.6 13.3787 158.23 15.8921 152.4C15.9401 152.289 16.0312 152.201 16.1453 152.156C16.2594 152.111 16.3872 152.112 16.5006 152.159C16.6139 152.206 16.7036 152.295 16.7498 152.407C16.796 152.519 16.7949 152.644 16.7469 152.755C14.2944 158.44 13.3918 164.651 14.1276 170.781C14.1418 170.901 14.107 171.021 14.0308 171.115C13.9546 171.21 13.8432 171.271 13.7212 171.285L13.6665 171.299Z" fill="#141414"/>
<path d="M21.8635 182.121C21.7552 182.121 21.6503 182.084 21.5672 182.016C21.484 181.948 21.4279 181.854 21.4086 181.749C20.7159 178.131 20.6001 174.43 21.0654 170.777C21.0805 170.657 21.1435 170.548 21.2404 170.474C21.2884 170.437 21.3433 170.41 21.402 170.395C21.4606 170.379 21.5219 170.374 21.5824 170.382C21.6428 170.389 21.7011 170.408 21.7541 170.437C21.807 170.467 21.8536 170.506 21.891 170.553C21.9285 170.6 21.9561 170.654 21.9723 170.711C21.9885 170.769 21.993 170.829 21.9856 170.888C21.5321 174.448 21.6451 178.056 22.3204 181.582C22.3425 181.701 22.316 181.823 22.2466 181.922C22.1772 182.022 22.0705 182.09 21.9498 182.113C21.9214 182.118 21.8924 182.121 21.8635 182.121Z" fill="#141414"/>
<path d="M214.068 108.926L209.396 142.001C209.275 142.857 208.878 143.653 208.261 144.271C207.645 144.889 206.843 145.297 205.972 145.434L195.55 147.085C195.55 147.085 223.619 171.313 251.691 146.004L240.904 144.796C239.843 144.677 238.866 144.176 238.162 143.39C237.457 142.605 237.076 141.59 237.093 140.544L237.558 113.298C237.558 113.298 235.13 95.2518 214.068 108.926Z" fill="white"/>
<path d="M206.737 100.317C204.797 101.801 203.919 104.416 204.347 106.79C204.774 109.164 206.408 111.251 208.518 112.489C210.628 113.727 213.173 114.155 215.624 113.934C216.974 113.81 218.38 113.505 219.654 113.963C220.64 114.318 221.402 115.084 222.196 115.758C225.95 118.941 231.226 120.374 236.092 119.379C240.958 118.384 245.252 114.929 247.041 110.394C248.528 106.65 248.326 102.466 247.673 98.4986C246.41 90.9048 243.611 83.6372 240.386 76.6193C234.752 77.9018 228.903 77.989 223.232 76.8752C224.572 80.7336 224.624 84.9103 223.379 88.7995C222.135 92.6886 219.659 96.0881 216.311 98.5048C215.732 98.9176 214.824 99.7432 214.11 99.8919C213.218 100.078 212.662 99.4955 211.737 99.2726C210.877 99.0722 209.982 99.0619 209.117 99.2425C208.252 99.4232 207.439 99.7902 206.737 100.317Z" fill="white"/>
<path d="M232.995 120.141C228.923 120.127 224.987 118.694 221.893 116.099C221.758 115.986 221.625 115.87 221.492 115.754C220.846 115.189 220.229 114.654 219.494 114.388C218.568 114.056 217.542 114.182 216.456 114.299C216.191 114.33 215.927 114.361 215.666 114.384C212.978 114.627 210.354 114.093 208.28 112.879C205.964 111.521 204.324 109.275 203.89 106.868C203.42 104.268 204.45 101.489 206.452 99.9579C207.209 99.3914 208.085 98.9965 209.016 98.8016C209.948 98.6068 210.912 98.6167 211.838 98.8309C212.175 98.9199 212.502 99.0401 212.815 99.1901C213.264 99.3965 213.586 99.5348 214.005 99.4481C214.46 99.3531 215.119 98.8289 215.603 98.4635C215.755 98.3438 215.898 98.2323 216.024 98.1394C219.294 95.7816 221.712 92.4643 222.929 88.6683C224.146 84.8724 224.098 80.7953 222.792 77.028C222.766 76.952 222.76 76.8708 222.776 76.7922C222.792 76.7137 222.829 76.6405 222.882 76.58C222.936 76.5201 223.005 76.4752 223.082 76.4499C223.16 76.4245 223.242 76.4196 223.322 76.4356C228.929 77.5336 234.71 77.4471 240.28 76.1817C240.385 76.1581 240.494 76.1707 240.59 76.2174C240.686 76.264 240.763 76.3419 240.807 76.4376C243.491 82.2666 246.747 90.0358 248.132 98.4243C248.656 101.603 249.158 106.319 247.475 110.557C245.65 115.154 241.215 118.791 236.179 119.823C235.131 120.035 234.065 120.141 232.995 120.141ZM218.084 113.263C218.672 113.253 219.258 113.345 219.814 113.535C220.72 113.862 221.425 114.479 222.109 115.075C222.24 115.189 222.368 115.302 222.499 115.412C226.179 118.535 231.342 119.883 235.991 118.933C240.729 117.961 244.898 114.545 246.614 110.229C248.214 106.196 247.726 101.644 247.218 98.5688C245.879 90.4466 242.748 82.8817 240.12 77.1518C234.791 78.3086 229.28 78.4167 223.908 77.4697C225.182 81.769 224.945 86.3636 223.234 90.5147C221.833 93.8429 219.531 96.7323 216.576 98.8701C216.456 98.9568 216.321 99.0621 216.178 99.1736C215.593 99.6297 214.864 100.206 214.197 100.336C213.479 100.486 212.946 100.249 212.43 100.018C212.169 99.8917 211.896 99.7902 211.615 99.7143C210.825 99.5321 210.003 99.5237 209.208 99.6896C208.414 99.8556 207.667 100.192 207.021 100.674C205.282 102.005 204.391 104.431 204.802 106.712C205.189 108.86 206.667 110.875 208.754 112.099C210.659 113.216 213.083 113.707 215.578 113.478C215.833 113.455 216.087 113.426 216.344 113.397C216.921 113.319 217.502 113.274 218.084 113.263Z" fill="#141414"/>
<path d="M215.496 110.429C215.416 110.429 215.337 110.409 215.268 110.37C215.198 110.332 215.14 110.277 215.098 110.21C214.622 109.461 213.967 108.837 213.19 108.391C212.413 107.944 211.538 107.69 210.638 107.649C210.577 107.647 210.518 107.633 210.462 107.609C210.407 107.584 210.357 107.549 210.315 107.506C210.273 107.462 210.241 107.411 210.219 107.355C210.198 107.299 210.188 107.24 210.19 107.18C210.189 107.12 210.202 107.06 210.226 107.004C210.25 106.948 210.286 106.898 210.331 106.857C210.377 106.816 210.43 106.784 210.488 106.764C210.546 106.744 210.608 106.736 210.67 106.74C211.723 106.789 212.748 107.087 213.658 107.609C214.567 108.132 215.334 108.863 215.892 109.74C215.954 109.842 215.972 109.965 215.943 110.081C215.914 110.196 215.84 110.296 215.736 110.359C215.664 110.404 215.581 110.428 215.496 110.429Z" fill="#141414"/>
<path d="M121.4 399.319H276.025L272.95 267.033C271.728 263.606 269.431 260.644 266.388 258.574C263.345 256.503 259.713 255.428 256.009 255.503L192.518 256.8C188.93 256.874 185.452 258.023 182.551 260.093C179.65 262.163 177.465 265.054 176.29 268.377C172.624 278.735 127.858 379.921 121.4 399.319Z" fill="white"/>
<path d="M121.4 399.773C121.351 399.772 121.303 399.765 121.257 399.75C121.199 399.732 121.145 399.702 121.099 399.663C121.052 399.624 121.014 399.577 120.987 399.524C120.959 399.47 120.943 399.412 120.938 399.353C120.933 399.293 120.941 399.233 120.96 399.176C124.889 387.376 142.885 345.558 157.346 311.954C166.508 290.667 174.42 272.282 175.854 268.229C175.874 268.172 175.905 268.12 175.946 268.076C175.987 268.031 176.036 267.995 176.09 267.969C176.145 267.943 176.205 267.928 176.266 267.924C176.326 267.921 176.387 267.929 176.445 267.949C176.502 267.969 176.555 267.999 176.601 268.039C176.646 268.079 176.683 268.127 176.71 268.18C176.736 268.234 176.752 268.293 176.755 268.352C176.759 268.412 176.75 268.471 176.73 268.528C175.286 272.609 167.369 291.006 158.201 312.307C143.746 345.894 125.759 387.694 121.842 399.459C121.812 399.55 121.752 399.63 121.673 399.686C121.594 399.743 121.498 399.773 121.4 399.773Z" fill="#141414"/>
<path d="M276.025 399.773C275.903 399.773 275.787 399.727 275.7 399.644C275.613 399.561 275.564 399.448 275.561 399.329L272.483 267.044C272.482 266.984 272.492 266.925 272.514 266.869C272.536 266.814 272.569 266.763 272.611 266.72C272.653 266.677 272.704 266.642 272.759 266.618C272.815 266.594 272.875 266.581 272.936 266.579C273.058 266.579 273.176 266.625 273.265 266.707C273.354 266.79 273.406 266.903 273.412 267.023L276.488 399.308C276.49 399.429 276.444 399.545 276.359 399.632C276.274 399.719 276.158 399.77 276.035 399.773H276.025Z" fill="#141414"/>
<path d="M204.242 400C204.208 400 204.174 399.996 204.14 399.99C204.081 399.977 204.025 399.952 203.975 399.918C203.925 399.884 203.882 399.84 203.85 399.79C203.817 399.739 203.795 399.683 203.784 399.624C203.774 399.565 203.775 399.505 203.789 399.447L221.177 322.803C221.801 319.994 223.072 317.362 224.893 315.109C226.713 312.855 229.035 311.039 231.681 309.799L240.398 305.694C240.51 305.642 240.638 305.635 240.755 305.675C240.872 305.716 240.967 305.8 241.021 305.91C241.074 306.019 241.081 306.145 241.039 306.259C240.998 306.374 240.912 306.467 240.801 306.519L232.083 310.625C229.565 311.802 227.353 313.528 225.618 315.671C223.884 317.814 222.671 320.317 222.074 322.989L204.688 399.643C204.665 399.743 204.609 399.832 204.528 399.897C204.447 399.962 204.346 399.998 204.242 400Z" fill="#141414"/>
<path d="M404.599 42.1903C404.599 43.5987 404.173 44.9755 403.375 46.1466C402.577 47.3176 401.442 48.2303 400.115 48.7693C398.787 49.3083 397.327 49.4493 395.918 49.1746C394.509 48.8998 393.214 48.2216 392.198 47.2257C391.182 46.2298 390.491 44.9609 390.21 43.5795C389.93 42.1982 390.074 40.7664 390.624 39.4651C391.173 38.1639 392.104 37.0518 393.299 36.2693C394.494 35.4868 395.898 35.0692 397.335 35.0692C399.261 35.0692 401.109 35.8194 402.471 37.1549C403.834 38.4904 404.599 40.3016 404.599 42.1903Z" fill="white"/>
<path d="M397.335 49.7655C395.807 49.7655 394.313 49.3212 393.042 48.4888C391.771 47.6564 390.781 46.4734 390.196 45.0892C389.611 43.705 389.458 42.1819 389.756 40.7124C390.054 39.243 390.79 37.8932 391.871 36.8338C392.951 35.7744 394.328 35.0529 395.827 34.7606C397.326 34.4683 398.88 34.6183 400.292 35.1917C401.704 35.765 402.911 36.736 403.76 37.9817C404.609 39.2274 405.062 40.692 405.062 42.1903C405.06 44.1987 404.245 46.1242 402.797 47.5443C401.348 48.9645 399.384 49.7633 397.335 49.7655ZM397.335 35.5233C395.99 35.522 394.675 35.9118 393.556 36.6433C392.437 37.3749 391.565 38.4152 391.049 39.6329C390.534 40.8505 390.398 42.1907 390.659 43.4839C390.921 44.7771 391.568 45.9653 392.518 46.8981C393.468 47.8309 394.68 48.4665 395.999 48.7244C397.317 48.9823 398.685 48.8509 399.927 48.347C401.17 47.843 402.233 46.9891 402.98 45.8932C403.728 44.7973 404.127 43.5086 404.127 42.1903C404.126 40.4242 403.41 38.7308 402.136 37.4814C400.863 36.232 399.136 35.5286 397.335 35.5253V35.5233Z" fill="#141414"/>
<path d="M425.796 42.1903C425.796 43.5987 425.37 44.9755 424.572 46.1466C423.773 47.3176 422.639 48.2303 421.312 48.7693C419.984 49.3083 418.524 49.4493 417.114 49.1746C415.705 48.8998 414.411 48.2216 413.395 47.2257C412.379 46.2298 411.687 44.9609 411.407 43.5795C411.127 42.1982 411.271 40.7664 411.82 39.4651C412.37 38.1639 413.301 37.0518 414.496 36.2693C415.69 35.4868 417.095 35.0692 418.532 35.0692C420.458 35.0692 422.306 35.8194 423.668 37.1549C425.031 38.4904 425.796 40.3016 425.796 42.1903Z" fill="white"/>
<path d="M418.532 49.7655C417.003 49.7655 415.509 49.3212 414.238 48.4888C412.968 47.6564 411.977 46.4734 411.392 45.0892C410.808 43.705 410.654 42.1819 410.953 40.7124C411.251 39.243 411.987 37.8932 413.067 36.8338C414.148 35.7744 415.525 35.0529 417.024 34.7606C418.523 34.4683 420.077 34.6183 421.489 35.1917C422.901 35.765 424.108 36.736 424.957 37.9817C425.806 39.2274 426.259 40.692 426.259 42.1903C426.257 44.1987 425.442 46.1242 423.993 47.5443C422.545 48.9645 420.58 49.7633 418.532 49.7655ZM418.532 35.5233C417.187 35.5233 415.872 35.9141 414.754 36.6465C413.636 37.3789 412.765 38.4198 412.25 39.6376C411.736 40.8555 411.601 42.1956 411.863 43.4885C412.126 44.7813 412.773 45.9689 413.724 46.901C414.675 47.8331 415.886 48.4679 417.205 48.7251C418.524 48.9822 419.891 48.8503 421.133 48.3458C422.376 47.8413 423.438 46.9871 424.185 45.891C424.932 44.795 425.33 43.5064 425.33 42.1882C425.328 40.4214 424.611 38.7276 423.337 37.4785C422.062 36.2294 420.334 35.527 418.532 35.5253V35.5233Z" fill="#141414"/>
<path d="M446.993 42.1903C446.993 43.5987 446.567 44.9755 445.768 46.1466C444.97 47.3176 443.836 48.2303 442.508 48.7693C441.181 49.3083 439.72 49.4493 438.311 49.1746C436.902 48.8998 435.608 48.2216 434.592 47.2257C433.576 46.2298 432.884 44.9609 432.604 43.5795C432.324 42.1982 432.467 40.7664 433.017 39.4651C433.567 38.1639 434.498 37.0518 435.693 36.2693C436.887 35.4868 438.292 35.0692 439.728 35.0692C441.655 35.0692 443.503 35.8194 444.865 37.1549C446.227 38.4904 446.993 40.3016 446.993 42.1903Z" fill="#141414"/>
<path d="M30.5763 123.825C30.4535 123.825 30.3356 123.777 30.2488 123.692C30.1619 123.607 30.1131 123.491 30.1131 123.371V95.7637C30.1131 95.643 30.1618 95.5273 30.2486 95.4419C30.3354 95.3564 30.4533 95.3081 30.5763 95.3075H164.768C164.886 95.3153 164.996 95.3666 165.077 95.4511C165.158 95.5356 165.202 95.647 165.202 95.7626C165.202 95.8783 165.158 95.9897 165.077 96.0742C164.996 96.1587 164.886 96.21 164.768 96.2178H31.0395V123.373C31.0395 123.432 31.0275 123.491 31.0042 123.546C30.9809 123.601 30.9468 123.651 30.9037 123.693C30.8607 123.735 30.8096 123.769 30.7534 123.791C30.6972 123.814 30.637 123.825 30.5763 123.825Z" fill="#141414"/>
<path d="M355.261 96.2178H270.274C270.157 96.21 270.046 96.1587 269.966 96.0742C269.885 95.9897 269.84 95.8783 269.84 95.7626C269.84 95.647 269.885 95.5356 269.966 95.4511C270.046 95.3666 270.157 95.3153 270.274 95.3075H354.798V42.1903C354.798 42.0698 354.847 41.9543 354.934 41.8692C355.021 41.784 355.139 41.7362 355.261 41.7362H385.083C385.205 41.7362 385.323 41.784 385.41 41.8692C385.497 41.9543 385.546 42.0698 385.546 42.1903C385.546 42.3107 385.497 42.4262 385.41 42.5114C385.323 42.5965 385.205 42.6444 385.083 42.6444H355.725V95.7637C355.725 95.8233 355.713 95.8824 355.689 95.9375C355.666 95.9925 355.632 96.0426 355.589 96.0848C355.546 96.1269 355.495 96.1604 355.439 96.1832C355.382 96.206 355.322 96.2178 355.261 96.2178Z" fill="#141414"/>
<path d="M559.276 251.268C572.204 238.594 572.204 218.046 559.276 205.372C546.347 192.698 525.385 192.698 512.457 205.372C499.528 218.046 499.528 238.594 512.457 251.268C525.385 263.942 546.347 263.942 559.276 251.268Z" fill="white"/>
<path d="M535.867 261.227C517.357 261.227 502.297 246.465 502.297 228.319C502.297 210.174 517.357 195.412 535.867 195.412C554.377 195.412 569.436 210.174 569.436 228.319C569.436 246.465 554.377 261.227 535.867 261.227ZM535.867 196.32C517.868 196.32 503.23 210.676 503.23 228.313C503.23 245.951 517.874 260.307 535.867 260.307C553.859 260.307 568.503 245.951 568.503 228.313C568.503 210.676 553.865 196.32 535.867 196.32Z" fill="#141414"/>
<mask id="mask1_152_103" style="mask-type:luminance" maskUnits="userSpaceOnUse" x="506" y="199" width="59" height="58">
<path d="M535.867 256.744C551.881 256.744 564.862 244.018 564.862 228.319C564.862 212.621 551.881 199.895 535.867 199.895C519.853 199.895 506.871 212.621 506.871 228.319C506.871 244.018 519.853 256.744 535.867 256.744Z" fill="white"/>
</mask>
<g mask="url(#mask1_152_103)">
<path d="M553.991 259.506H517.742C517.679 259.506 517.617 259.493 517.559 259.469C517.501 259.445 517.449 259.41 517.405 259.365C517.362 259.321 517.328 259.268 517.306 259.21C517.285 259.152 517.275 259.09 517.279 259.029L519.081 223.696C519.656 212.451 527.027 203.639 535.867 203.639C544.706 203.639 552.079 212.451 552.65 223.698L554.465 259.023C554.469 259.084 554.459 259.146 554.437 259.204C554.416 259.262 554.382 259.315 554.339 259.359C554.295 259.404 554.243 259.439 554.185 259.464C554.127 259.488 554.065 259.5 554.002 259.5L553.991 259.506ZM518.228 258.598H553.503L551.728 223.743C551.178 212.979 544.211 204.547 535.869 204.547C527.526 204.547 520.559 212.977 520.01 223.743L518.228 258.598Z" fill="#141414"/>
<path d="M561.449 250.546C560.832 248.452 559.655 246.559 558.041 245.061C556.426 243.564 554.433 242.516 552.267 242.027L542.937 239.922V228.363H528.794V239.922L519.466 242.027C517.3 242.516 515.307 243.564 513.693 245.061C512.078 246.559 510.901 248.452 510.284 250.546L506.723 268.978H565.008L561.449 250.546Z" fill="white"/>
<path d="M565.008 269.432H506.723C506.655 269.432 506.588 269.417 506.527 269.388C506.465 269.359 506.411 269.318 506.368 269.267C506.324 269.215 506.293 269.155 506.276 269.091C506.259 269.026 506.256 268.959 506.269 268.893L509.827 250.461C510.464 248.282 511.684 246.31 513.36 244.75C515.037 243.189 517.109 242.096 519.361 241.585L528.331 239.56V228.371C528.331 228.251 528.38 228.135 528.466 228.05C528.553 227.965 528.671 227.917 528.794 227.917H542.937C542.998 227.917 543.058 227.928 543.115 227.951C543.171 227.974 543.222 228.007 543.265 228.049C543.308 228.092 543.342 228.142 543.366 228.197C543.389 228.252 543.401 228.311 543.4 228.371V239.56L552.37 241.585C554.616 242.093 556.683 243.179 558.358 244.733C560.032 246.286 561.253 248.249 561.894 250.42C561.894 250.433 561.894 250.447 561.894 250.461L565.454 268.893C565.466 268.959 565.464 269.027 565.447 269.091C565.429 269.156 565.398 269.216 565.354 269.267C565.311 269.319 565.256 269.36 565.194 269.389C565.133 269.417 565.065 269.432 564.997 269.432H565.008ZM507.283 268.524H564.448L560.992 250.651C560.394 248.64 559.258 246.821 557.704 245.383C556.149 243.946 554.232 242.94 552.149 242.471L542.821 240.365C542.719 240.342 542.628 240.286 542.562 240.205C542.497 240.124 542.461 240.025 542.461 239.922V228.825H529.247V239.922C529.247 240.025 529.211 240.124 529.146 240.205C529.08 240.286 528.989 240.342 528.887 240.365L519.557 242.471C517.471 242.942 515.552 243.951 513.997 245.393C512.443 246.835 511.309 248.658 510.713 250.673L507.283 268.524Z" fill="#141414"/>
<path d="M547.71 219.378C547.205 219.259 546.674 219.295 546.19 219.483C545.78 213.068 541.316 208.719 535.873 208.719C530.43 208.719 525.96 213.068 525.556 219.483C525.072 219.295 524.541 219.259 524.035 219.378C522.505 219.751 521.629 221.487 522.077 223.254C522.526 225.021 524.128 226.144 525.657 225.781C525.898 225.72 526.129 225.624 526.341 225.496C527.916 230.243 531.592 233.861 535.877 233.861C540.162 233.861 543.836 230.235 545.413 225.496C545.625 225.624 545.856 225.72 546.098 225.781C547.626 226.154 549.231 225.023 549.677 223.254C550.123 221.485 549.239 219.751 547.71 219.378Z" fill="white"/>
<path d="M535.867 234.316C531.761 234.316 527.865 231.046 526.061 226.129C525.962 226.166 525.86 226.197 525.758 226.222C525.314 226.325 524.853 226.33 524.407 226.238C523.962 226.146 523.542 225.959 523.178 225.69C522.401 225.113 521.849 224.292 521.614 223.364C521.379 222.437 521.475 221.458 521.886 220.591C522.079 220.187 522.36 219.829 522.71 219.544C523.06 219.259 523.47 219.052 523.911 218.94C524.309 218.845 524.723 218.833 525.126 218.903C525.758 212.711 530.198 208.267 535.864 208.267C541.531 208.267 545.971 212.707 546.603 218.903C547.006 218.832 547.42 218.844 547.818 218.94C549.593 219.374 550.622 221.359 550.113 223.368C549.889 224.3 549.334 225.125 548.548 225.694C548.185 225.963 547.766 226.15 547.32 226.242C546.875 226.334 546.414 226.329 545.971 226.226C545.868 226.202 545.767 226.171 545.668 226.134C543.861 231.048 539.972 234.316 535.867 234.316ZM526.328 225.042C526.384 225.042 526.439 225.052 526.49 225.071C526.556 225.094 526.615 225.132 526.664 225.181C526.712 225.231 526.749 225.29 526.771 225.355C528.373 230.171 532.034 233.405 535.867 233.405C539.699 233.405 543.36 230.171 544.963 225.355C544.985 225.29 545.021 225.231 545.07 225.182C545.118 225.132 545.177 225.094 545.243 225.071C545.308 225.047 545.379 225.038 545.448 225.044C545.518 225.051 545.585 225.072 545.645 225.108C545.816 225.213 546.003 225.291 546.199 225.339C546.511 225.409 546.836 225.411 547.149 225.344C547.463 225.277 547.757 225.143 548.012 224.951C548.619 224.508 549.046 223.868 549.218 223.145C549.603 221.624 548.877 220.131 547.599 219.819C547.185 219.723 546.752 219.753 546.357 219.906C546.288 219.933 546.214 219.943 546.141 219.936C546.067 219.929 545.997 219.905 545.935 219.865C545.875 219.826 545.824 219.773 545.788 219.712C545.751 219.65 545.73 219.581 545.725 219.51C545.342 213.524 541.194 209.173 535.864 209.173C530.535 209.173 526.389 213.52 526.002 219.51C525.998 219.582 525.977 219.652 525.94 219.714C525.903 219.776 525.852 219.828 525.79 219.867C525.728 219.906 525.658 219.93 525.585 219.936C525.512 219.943 525.438 219.933 525.37 219.906C524.975 219.753 524.541 219.723 524.128 219.819C523.818 219.901 523.53 220.048 523.285 220.251C523.04 220.454 522.844 220.708 522.711 220.994C522.398 221.668 522.327 222.425 522.509 223.144C522.691 223.862 523.115 224.499 523.713 224.951C523.968 225.142 524.263 225.276 524.577 225.343C524.89 225.41 525.215 225.409 525.528 225.339C525.724 225.291 525.911 225.212 526.082 225.108C526.156 225.064 526.242 225.041 526.328 225.042Z" fill="#141414"/>
<path d="M525.37 221.093C530.531 220.141 535.915 215.634 539.145 211.571C539.777 215.177 543.034 219.39 546.447 220.872C546.447 220.872 548.073 206.514 535.867 206.979C523.661 207.443 525.37 221.093 525.37 221.093Z" fill="white"/>
<path d="M525.37 221.549C525.257 221.549 525.148 221.508 525.063 221.434C524.978 221.36 524.923 221.259 524.909 221.149C524.738 219.393 524.818 217.622 525.145 215.887C525.167 215.769 525.237 215.664 525.338 215.596C525.439 215.527 525.564 215.501 525.685 215.523C525.806 215.545 525.913 215.613 525.983 215.712C526.052 215.812 526.079 215.934 526.057 216.053C525.785 217.533 525.695 219.04 525.787 220.542C530.86 219.382 535.921 214.884 538.779 211.293C538.834 211.224 538.909 211.172 538.995 211.144C539.08 211.116 539.171 211.112 539.259 211.134C539.346 211.156 539.424 211.202 539.485 211.267C539.546 211.332 539.587 211.412 539.602 211.499C540.181 214.802 542.994 218.552 546.032 220.168C546.107 218.564 545.988 216.956 545.676 215.38C545.664 215.321 545.664 215.261 545.676 215.202C545.688 215.144 545.711 215.088 545.745 215.038C545.779 214.988 545.822 214.946 545.873 214.912C545.923 214.879 545.98 214.856 546.04 214.844C546.099 214.832 546.161 214.832 546.221 214.844C546.28 214.855 546.337 214.878 546.388 214.911C546.439 214.944 546.482 214.987 546.516 215.036C546.55 215.086 546.574 215.141 546.586 215.2C546.965 217.084 547.074 219.01 546.908 220.924C546.9 220.995 546.875 221.063 546.835 221.123C546.795 221.182 546.742 221.232 546.679 221.268C546.615 221.304 546.544 221.325 546.471 221.329C546.397 221.332 546.324 221.319 546.258 221.289C543.034 219.89 539.905 216.129 538.903 212.591C535.761 216.286 530.598 220.594 525.452 221.543C525.425 221.547 525.398 221.549 525.37 221.549Z" fill="#141414"/>
</g>
<path d="M564.936 268.978H506.797V278.774H564.936V268.978Z" fill="#141414"/>
<path d="M564.936 279.228H506.797C506.736 279.228 506.676 279.217 506.619 279.194C506.563 279.171 506.512 279.138 506.469 279.096C506.426 279.053 506.392 279.003 506.369 278.948C506.345 278.893 506.334 278.834 506.334 278.774V268.978C506.334 268.918 506.345 268.859 506.369 268.804C506.392 268.749 506.426 268.698 506.469 268.656C506.512 268.614 506.563 268.58 506.619 268.558C506.676 268.535 506.736 268.523 506.797 268.524H564.936C565.059 268.524 565.177 268.572 565.264 268.657C565.35 268.742 565.399 268.857 565.399 268.978V278.774C565.399 278.894 565.35 279.01 565.264 279.095C565.177 279.18 565.059 279.228 564.936 279.228ZM507.26 278.32H564.471V269.432H507.26V278.32Z" fill="#141414"/>
<path d="M475.046 251.267C487.974 238.593 487.974 218.044 475.046 205.37C462.117 192.696 441.156 192.696 428.227 205.37C415.298 218.044 415.298 238.593 428.227 251.267C441.156 263.941 462.117 263.941 475.046 251.267Z" fill="white"/>
<path d="M451.637 261.227C433.127 261.227 418.068 246.465 418.068 228.319C418.068 210.174 433.127 195.412 451.637 195.412C470.148 195.412 485.207 210.174 485.207 228.319C485.207 246.465 470.148 261.227 451.637 261.227ZM451.637 196.32C433.639 196.32 419.001 210.676 419.001 228.313C419.001 245.951 433.645 260.307 451.637 260.307C469.63 260.307 484.274 245.951 484.274 228.313C484.274 210.676 469.636 196.32 451.637 196.32Z" fill="#141414"/>
<mask id="mask2_152_103" style="mask-type:luminance" maskUnits="userSpaceOnUse" x="422" y="199" width="59" height="58">
<path d="M451.637 256.744C467.651 256.744 480.633 244.018 480.633 228.319C480.633 212.621 467.651 199.895 451.637 199.895C435.624 199.895 422.642 212.621 422.642 228.319C422.642 244.018 435.624 256.744 451.637 256.744Z" fill="white"/>
</mask>
<g mask="url(#mask2_152_103)">
<path d="M477.22 250.546C476.603 248.452 475.426 246.559 473.811 245.061C472.197 243.564 470.204 242.516 468.038 242.027L458.708 239.922V228.363H444.567V239.922L435.237 242.027C433.071 242.516 431.078 243.564 429.464 245.061C427.849 246.559 426.672 248.452 426.055 250.546L422.494 268.978H480.781L477.22 250.546Z" fill="white"/>
<path d="M480.781 269.432H422.494C422.426 269.432 422.359 269.416 422.298 269.388C422.236 269.359 422.182 269.318 422.139 269.267C422.095 269.215 422.064 269.155 422.047 269.091C422.03 269.026 422.027 268.959 422.039 268.893L425.598 250.461C426.235 248.282 427.456 246.31 429.132 244.749C430.809 243.189 432.881 242.096 435.134 241.585L444.102 239.56V228.371C444.102 228.311 444.114 228.252 444.137 228.197C444.16 228.142 444.195 228.091 444.238 228.049C444.281 228.007 444.333 227.974 444.389 227.951C444.446 227.928 444.506 227.917 444.567 227.917H458.708C458.769 227.917 458.829 227.928 458.886 227.951C458.942 227.974 458.994 228.007 459.037 228.049C459.08 228.091 459.114 228.142 459.138 228.197C459.161 228.252 459.173 228.311 459.173 228.371V239.56L468.141 241.585C470.387 242.093 472.454 243.18 474.129 244.733C475.804 246.286 477.025 248.249 477.667 250.42C477.667 250.434 477.667 250.448 477.667 250.461L481.225 268.893C481.237 268.959 481.235 269.026 481.218 269.091C481.2 269.155 481.169 269.215 481.126 269.267C481.082 269.318 481.028 269.359 480.967 269.388C480.905 269.416 480.838 269.432 480.77 269.432H480.781ZM423.054 268.524H480.221L476.77 250.651C476.171 248.64 475.036 246.821 473.481 245.383C471.927 243.946 470.009 242.94 467.926 242.471L458.598 240.365C458.496 240.342 458.405 240.286 458.34 240.205C458.274 240.124 458.239 240.025 458.238 239.922V228.825H445.024V239.922C445.024 240.025 444.988 240.124 444.923 240.205C444.857 240.286 444.766 240.342 444.664 240.365L435.334 242.471C433.249 242.942 431.329 243.951 429.775 245.393C428.22 246.835 427.086 248.658 426.491 250.673L423.054 268.524Z" fill="#141414"/>
<path d="M463.368 219.599C462.867 219.48 462.341 219.516 461.862 219.702C461.456 213.349 457.034 209.041 451.637 209.041C446.241 209.041 441.819 213.349 441.413 219.702C440.934 219.516 440.408 219.48 439.907 219.599C438.393 219.968 437.524 221.687 437.968 223.438C438.412 225.188 440 226.309 441.516 225.939C441.755 225.88 441.983 225.786 442.192 225.659C443.754 230.35 447.395 233.942 451.637 233.942C455.88 233.942 459.521 230.35 461.083 225.659C461.292 225.786 461.52 225.88 461.759 225.939C463.275 226.309 464.863 225.188 465.307 223.438C465.751 221.687 464.882 219.96 463.368 219.599Z" fill="white"/>
<path d="M451.637 234.388C447.57 234.388 443.718 231.151 441.924 226.282C441.827 226.318 441.728 226.348 441.628 226.373C441.188 226.475 440.73 226.481 440.288 226.389C439.846 226.298 439.43 226.112 439.069 225.845C438.298 225.272 437.751 224.459 437.518 223.539C437.284 222.619 437.379 221.649 437.787 220.79C437.977 220.386 438.256 220.029 438.603 219.744C438.95 219.458 439.358 219.252 439.796 219.138C440.189 219.043 440.598 219.031 440.996 219.101C441.628 212.965 446.024 208.574 451.637 208.574C457.251 208.574 461.652 212.971 462.279 219.101C462.677 219.033 463.086 219.045 463.479 219.138C463.917 219.252 464.325 219.458 464.672 219.744C465.019 220.029 465.298 220.386 465.488 220.79C465.894 221.649 465.989 222.619 465.756 223.539C465.522 224.458 464.976 225.272 464.206 225.845C463.845 226.112 463.429 226.297 462.987 226.389C462.544 226.48 462.087 226.475 461.647 226.373C461.547 226.348 461.448 226.318 461.35 226.282C459.557 231.158 455.714 234.388 451.637 234.388ZM442.192 225.196C442.29 225.195 442.386 225.225 442.465 225.281C442.545 225.337 442.604 225.417 442.634 225.508C444.22 230.276 447.837 233.48 451.637 233.48C455.438 233.48 459.055 230.276 460.641 225.508C460.663 225.443 460.7 225.384 460.748 225.335C460.797 225.286 460.856 225.247 460.921 225.223C460.987 225.2 461.057 225.191 461.127 225.198C461.196 225.205 461.263 225.227 461.323 225.262C461.493 225.365 461.677 225.442 461.871 225.49C462.18 225.559 462.501 225.561 462.811 225.495C463.121 225.429 463.412 225.297 463.664 225.108C464.258 224.66 464.679 224.029 464.86 223.317C465.04 222.604 464.968 221.853 464.656 221.186C464.524 220.903 464.331 220.652 464.088 220.452C463.846 220.251 463.562 220.105 463.256 220.024C462.847 219.928 462.419 219.958 462.028 220.111C461.96 220.137 461.886 220.147 461.812 220.14C461.739 220.132 461.669 220.107 461.607 220.067C461.547 220.029 461.496 219.977 461.459 219.915C461.423 219.854 461.401 219.785 461.397 219.714C461.018 213.784 456.912 209.478 451.635 209.478C446.359 209.478 442.253 213.784 441.874 219.714C441.869 219.785 441.848 219.854 441.812 219.915C441.775 219.977 441.724 220.029 441.663 220.067C441.602 220.107 441.532 220.132 441.458 220.14C441.385 220.147 441.311 220.137 441.242 220.111C440.852 219.958 440.423 219.928 440.015 220.024C439.708 220.104 439.424 220.25 439.182 220.451C438.94 220.652 438.746 220.903 438.615 221.186C438.303 221.853 438.231 222.604 438.411 223.317C438.591 224.029 439.013 224.66 439.606 225.108C439.858 225.297 440.15 225.429 440.46 225.495C440.77 225.561 441.091 225.559 441.4 225.49C441.593 225.442 441.778 225.365 441.948 225.262C442.021 225.219 442.106 225.196 442.192 225.196Z" fill="#141414"/>
<path d="M455.101 204.161C446.338 202.716 436.151 204.508 440.459 218.042L441.577 221.289L443.367 222.48C443.367 222.48 442.864 213.555 445.715 213.093C448.412 212.653 448.582 214.407 451.821 214.331C455.057 214.414 455.23 212.659 457.927 213.093C460.78 213.555 460.277 222.48 460.277 222.48L462.066 221.289L463.184 218.042C466.031 207.526 461.466 203.381 455.101 204.161Z" fill="white"/>
<path d="M460.275 222.934C460.194 222.934 460.115 222.913 460.045 222.874C459.971 222.833 459.91 222.773 459.869 222.7C459.828 222.627 459.808 222.545 459.811 222.462C459.997 219.169 459.626 213.838 457.849 213.549C456.626 213.342 456.015 213.64 455.242 214.009C454.177 214.521 453.006 214.787 451.82 214.787C450.633 214.787 449.462 214.521 448.397 214.009C447.624 213.64 447.012 213.349 445.79 213.549C444.013 213.838 443.645 219.169 443.83 222.462C443.837 222.547 443.819 222.633 443.778 222.708C443.737 222.784 443.676 222.847 443.6 222.891C443.524 222.934 443.438 222.955 443.35 222.952C443.263 222.949 443.178 222.922 443.106 222.874L441.316 221.685C441.233 221.629 441.17 221.548 441.137 221.454L440.019 218.207C438.364 213.01 438.68 209.084 440.95 206.533C444.403 202.65 451.267 203.096 455.112 203.72C458.23 203.352 460.847 204.167 462.481 206.011C464.033 207.751 465.49 211.276 463.62 218.189L462.494 221.465C462.462 221.559 462.399 221.64 462.315 221.696L460.525 222.885C460.448 222.924 460.361 222.941 460.275 222.934ZM457.116 212.568C457.413 212.57 457.71 212.595 458.003 212.643C460.689 213.08 460.826 219.169 460.774 221.599L461.677 221L462.744 217.904C464.132 212.775 463.797 208.855 461.795 206.597C460.321 204.946 458.034 204.267 455.162 204.617C455.117 204.624 455.072 204.624 455.027 204.617C451.395 204.019 444.828 203.548 441.651 207.119C439.606 209.416 439.354 213.049 440.903 217.916L441.969 221.013L442.872 221.611C442.817 219.182 442.956 213.093 445.641 212.655C447.155 212.409 447.993 212.808 448.799 213.194C449.715 213.694 450.756 213.933 451.804 213.883C452.859 213.932 453.908 213.693 454.834 213.194C455.474 212.878 456.135 212.568 457.114 212.568H457.116Z" fill="#141414"/>
</g>
<path d="M480.707 268.978H422.568V278.774H480.707V268.978Z" fill="#141414"/>
<path d="M480.707 279.228H422.568C422.507 279.228 422.447 279.217 422.39 279.194C422.334 279.171 422.283 279.138 422.24 279.096C422.197 279.053 422.163 279.003 422.139 278.948C422.116 278.893 422.104 278.834 422.105 278.774V268.978C422.104 268.918 422.116 268.859 422.139 268.804C422.163 268.749 422.197 268.698 422.24 268.656C422.283 268.614 422.334 268.58 422.39 268.558C422.447 268.535 422.507 268.523 422.568 268.524H480.707C480.768 268.523 480.828 268.535 480.885 268.558C480.941 268.58 480.992 268.614 481.035 268.656C481.078 268.698 481.112 268.749 481.136 268.804C481.159 268.859 481.17 268.918 481.17 268.978V278.774C481.17 278.834 481.159 278.893 481.136 278.948C481.112 279.003 481.078 279.053 481.035 279.096C480.992 279.138 480.941 279.171 480.885 279.194C480.828 279.217 480.768 279.228 480.707 279.228ZM423.031 278.32H480.244V269.432H423.031V278.32Z" fill="#141414"/>
<path d="M453.156 285.507H452.229V341.933H453.156V285.507Z" fill="#141414"/>
<path d="M536.33 353.283H407.185V352.373H535.401V285.507H536.33V353.283Z" fill="#141414"/>
<path d="M164.337 301.679H31.01V353.139H164.337V301.679Z" fill="#141414"/>
<path d="M151.868 314.464H130.414C130.296 314.456 130.186 314.405 130.105 314.321C130.025 314.236 129.98 314.125 129.98 314.009C129.98 313.893 130.025 313.782 130.105 313.698C130.186 313.613 130.296 313.562 130.414 313.554H151.868C151.985 313.562 152.096 313.613 152.176 313.698C152.257 313.782 152.302 313.893 152.302 314.009C152.302 314.125 152.257 314.236 152.176 314.321C152.096 314.405 151.985 314.456 151.868 314.464Z" fill="white"/>
<path d="M111.874 314.464H43.4771C43.3594 314.456 43.2491 314.405 43.1685 314.321C43.0879 314.236 43.0431 314.125 43.0431 314.009C43.0431 313.893 43.0879 313.782 43.1685 313.698C43.2491 313.613 43.3594 313.562 43.4771 313.554H111.874C111.992 313.562 112.102 313.613 112.183 313.698C112.264 313.782 112.308 313.893 112.308 314.009C112.308 314.125 112.264 314.236 112.183 314.321C112.102 314.405 111.992 314.456 111.874 314.464Z" fill="white"/>
<path d="M151.868 327.864H85.4432C85.3255 327.856 85.2152 327.805 85.1346 327.721C85.054 327.636 85.0092 327.525 85.0092 327.409C85.0092 327.293 85.054 327.182 85.1346 327.098C85.2152 327.013 85.3255 326.962 85.4432 326.954H151.868C151.985 326.962 152.096 327.013 152.176 327.098C152.257 327.182 152.302 327.293 152.302 327.409C152.302 327.525 152.257 327.636 152.176 327.721C152.096 327.805 151.985 327.856 151.868 327.864Z" fill="white"/>
<path d="M70.2663 327.864H43.4771C43.3594 327.856 43.2491 327.805 43.1685 327.721C43.0879 327.636 43.0431 327.525 43.0431 327.409C43.0431 327.293 43.0879 327.182 43.1685 327.098C43.2491 327.013 43.3594 326.962 43.4771 326.954H70.2663C70.384 326.962 70.4943 327.013 70.5749 327.098C70.6555 327.182 70.7003 327.293 70.7003 327.409C70.7003 327.525 70.6555 327.636 70.5749 327.721C70.4943 327.805 70.384 327.856 70.2663 327.864Z" fill="white"/>
<path d="M151.868 341.264H120.859C120.736 341.264 120.618 341.216 120.531 341.131C120.444 341.046 120.396 340.931 120.396 340.81C120.396 340.69 120.444 340.574 120.531 340.489C120.618 340.404 120.736 340.356 120.859 340.356H151.868C151.99 340.356 152.108 340.404 152.195 340.489C152.282 340.574 152.331 340.69 152.331 340.81C152.331 340.931 152.282 341.046 152.195 341.131C152.108 341.216 151.99 341.264 151.868 341.264Z" fill="white"/>
<path d="M102.307 341.264H43.4771C43.3543 341.264 43.2365 341.216 43.1496 341.131C43.0627 341.046 43.0139 340.931 43.0139 340.81C43.0139 340.69 43.0627 340.574 43.1496 340.489C43.2365 340.404 43.3543 340.356 43.4771 340.356H102.307C102.43 340.356 102.547 340.404 102.634 340.489C102.721 340.574 102.77 340.69 102.77 340.81C102.77 340.931 102.721 341.046 102.634 341.131C102.547 341.216 102.43 341.264 102.307 341.264Z" fill="white"/>
<defs>
<linearGradient id="paint0_linear_152_103" x1="561.217" y1="114.066" x2="485.186" y2="36.5076" gradientUnits="userSpaceOnUse">
<stop stop-color="#DC1D47"/>
<stop offset="1" stop-color="#E54327"/>
</linearGradient>
<linearGradient id="paint1_linear_152_103" x1="237.171" y1="275.409" x2="237.171" y2="104.629" gradientUnits="userSpaceOnUse">
<stop stop-color="#DC1D47"/>
<stop offset="1" stop-color="#E54327"/>
</linearGradient>
</defs>
</svg>
