<svg width="35" height="35" viewBox="0 0 35 35" fill="none" xmlns="http://www.w3.org/2000/svg">
<path d="M0.700012 7.96143V7.28743C0.700012 6.6148 1.24542 6.0694 1.91805 6.0694H6.3754M0.700012 10.3298V26.6712C0.700012 27.2092 0.917905 27.6964 1.27046 28.049C1.62302 28.4015 2.11024 28.6194 2.6482 28.6194M2.6482 28.6194H21.2687M2.6482 28.6194C3.72482 28.6194 4.591 27.7174 4.591 26.6415V12.2002C4.591 11.5276 5.1364 10.9822 5.80903 10.9822H28.8266C29.4993 10.9822 30.0447 11.5276 30.0447 12.2002V13.6808M30.0447 19.1201V16.0492" stroke="#141414" stroke-width="0.89" stroke-miterlimit="10" stroke-linecap="round" stroke-linejoin="round"/>
<path d="M6.96528 13.3937H10.5268M6.96528 15.7621H12.3242M28.2603 10.9822V4.71803C28.2603 4.0454 27.7148 3.5 27.0422 3.5H7.59346C6.92083 3.5 6.37543 4.0454 6.37543 4.71803V10.9822M13.7318 26.2513H7.64197C7.26824 26.2513 6.96528 25.9483 6.96528 25.5746V23.7321C6.96528 23.3584 7.26824 23.0554 7.64197 23.0554H13.7318C14.1056 23.0554 14.4085 23.3584 14.4085 23.7321V25.5746C14.4085 25.9483 14.1056 26.2513 13.7318 26.2513Z" stroke="#141414" stroke-width="0.89" stroke-miterlimit="10" stroke-linecap="round" stroke-linejoin="round"/>
<path d="M34.3315 25.0785V23.1161C34.3315 23.0623 34.3101 23.0106 34.272 22.9726C34.234 22.9345 34.1823 22.9131 34.1285 22.9131H32.9012C32.8074 22.9131 32.7244 22.8496 32.7028 22.7584C32.5597 22.1529 32.3195 21.5745 31.9918 21.0456C31.9427 20.9663 31.9562 20.8634 32.0222 20.7974L32.8919 19.9277C32.9108 19.9088 32.9257 19.8865 32.9359 19.8618C32.9461 19.8372 32.9514 19.8108 32.9514 19.7841C32.9514 19.7574 32.9461 19.7311 32.9359 19.7064C32.9257 19.6818 32.9108 19.6594 32.8919 19.6405L31.5043 18.2529C31.4854 18.2341 31.4631 18.2191 31.4384 18.2089C31.4138 18.1987 31.3874 18.1935 31.3607 18.1935C31.3341 18.1935 31.3077 18.1987 31.283 18.2089C31.2584 18.2191 31.236 18.2341 31.2172 18.2529L30.3474 19.1227C30.2815 19.1886 30.1785 19.2021 30.0992 19.1531C29.5704 18.8253 28.992 18.5852 28.3865 18.442C28.2952 18.4205 28.2318 18.3375 28.2318 18.2437V17.0164C28.2318 16.9625 28.2104 16.9109 28.1723 16.8728C28.1342 16.8347 28.0826 16.8134 28.0288 16.8134H26.0663C26.0125 16.8134 25.9609 16.8347 25.9228 16.8728C25.8847 16.9109 25.8633 16.9625 25.8633 17.0164V18.2437C25.8633 18.3375 25.7999 18.4204 25.7086 18.442C25.1031 18.5852 24.5247 18.8253 23.9959 19.1531C23.9166 19.2021 23.8136 19.1887 23.7477 19.1227L22.8779 18.2529C22.8591 18.2341 22.8367 18.2191 22.812 18.2089C22.7874 18.1987 22.761 18.1935 22.7343 18.1935C22.7077 18.1935 22.6813 18.1987 22.6566 18.2089C22.632 18.2191 22.6096 18.2341 22.5908 18.2529L21.2032 19.6405C21.1843 19.6594 21.1694 19.6818 21.1592 19.7064C21.149 19.7311 21.1437 19.7574 21.1437 19.7841C21.1437 19.8108 21.149 19.8372 21.1592 19.8618C21.1694 19.8865 21.1843 19.9088 21.2032 19.9277L22.0729 20.7974C22.1388 20.8633 22.1524 20.9663 22.1033 21.0456C21.7756 21.5745 21.5354 22.1529 21.3922 22.7584C21.3707 22.8496 21.2877 22.9131 21.1939 22.9131H19.9666C19.9128 22.9131 19.8611 22.9345 19.823 22.9726C19.785 23.0106 19.7636 23.0623 19.7636 23.1161V25.0785C19.7636 25.1324 19.785 25.184 19.823 25.2221C19.8611 25.2601 19.9128 25.2815 19.9666 25.2815H21.1939C21.2877 25.2815 21.3706 25.345 21.3922 25.4363C21.5355 26.0418 21.7756 26.6201 22.1033 27.149C22.1524 27.2283 22.1389 27.3312 22.0729 27.3972L21.2032 28.2669C21.1843 28.2858 21.1694 28.3082 21.1592 28.3328C21.149 28.3574 21.1437 28.3838 21.1437 28.4105C21.1437 28.4372 21.149 28.4636 21.1592 28.4882C21.1694 28.5128 21.1843 28.5352 21.2032 28.5541L22.5908 29.9417C22.6096 29.9605 22.632 29.9755 22.6566 29.9857C22.6813 29.9959 22.7077 30.0011 22.7343 30.0011C22.761 30.0011 22.7874 29.9959 22.812 29.9857C22.8367 29.9755 22.8591 29.9605 22.8779 29.9417L23.7477 29.0719C23.8136 29.006 23.9166 28.9925 23.9959 29.0415C24.5247 29.3693 25.1031 29.6094 25.7086 29.7526C25.7999 29.7741 25.8633 29.8572 25.8633 29.951V31.1783C25.8633 31.2321 25.8847 31.2837 25.9228 31.3218C25.9609 31.3599 26.0125 31.3813 26.0663 31.3813H28.0288C28.0826 31.3813 28.1342 31.3599 28.1723 31.3218C28.2104 31.2837 28.2318 31.2321 28.2318 31.1783V29.951C28.2318 29.8572 28.2952 29.7742 28.3865 29.7526C28.992 29.6094 29.5703 29.3693 30.0992 29.0415C30.1785 28.9925 30.2814 29.006 30.3474 29.0719L31.2172 29.9417C31.236 29.9605 31.2584 29.9755 31.283 29.9857C31.3077 29.9959 31.3341 30.0011 31.3607 30.0011C31.3874 30.0011 31.4138 29.9959 31.4384 29.9857C31.4631 29.9755 31.4854 29.9605 31.5043 29.9417L32.8919 28.5541C32.9108 28.5352 32.9257 28.5128 32.9359 28.4882C32.9461 28.4636 32.9514 28.4372 32.9514 28.4105C32.9514 28.3838 32.9461 28.3574 32.9359 28.3328C32.9257 28.3082 32.9108 28.2858 32.8919 28.2669L32.0222 27.3972C31.9563 27.3313 31.9427 27.2283 31.9918 27.149C32.3196 26.6201 32.5597 26.0418 32.7028 25.4363C32.7244 25.345 32.8074 25.2815 32.9012 25.2815H34.1285C34.1823 25.2815 34.234 25.2601 34.272 25.2221C34.3101 25.184 34.3315 25.1324 34.3315 25.0785Z" stroke="#141414" stroke-width="0.89" stroke-miterlimit="10" stroke-linecap="round" stroke-linejoin="round"/>
<path d="M16.0368 8.79782L16.5927 5.71782C16.6066 5.64568 16.7072 5.63889 16.7307 5.70854L17.635 8.77381C17.6569 8.83912 17.7494 8.83863 17.7706 8.77314L18.6441 5.70907C18.6668 5.63924 18.7674 5.64491 18.7821 5.71687L19.3709 8.79782M13.9674 5.92974C13.7064 5.75324 13.3984 5.65916 13.0833 5.65968C12.2099 5.65968 11.5019 6.3677 11.5019 7.24109C11.5019 8.11451 12.2099 8.82253 13.0833 8.82253C13.438 8.82253 13.7298 8.70573 13.9512 8.50854C13.9972 8.46756 14.0401 8.42332 14.0796 8.3761M23.0293 5.98483C23.0293 5.98483 22.4617 5.50775 21.7925 5.70935C21.178 5.8945 21.092 6.60304 21.5366 6.89287C21.5366 6.89287 21.9729 7.08751 22.4567 7.26601C23.6215 7.69563 23.1198 8.82246 22.182 8.82246C21.7125 8.82246 21.3184 8.6168 21.0799 8.35363" stroke="#DC1D47" stroke-width="0.89" stroke-miterlimit="10" stroke-linecap="round" stroke-linejoin="round"/>
<path d="M27.0476 26.5977C28.4286 26.5977 29.548 25.4783 29.548 24.0973C29.548 22.7163 28.4286 21.5969 27.0476 21.5969C25.6667 21.5969 24.5472 22.7163 24.5472 24.0973C24.5472 25.4783 25.6667 26.5977 27.0476 26.5977Z" stroke="#DC1D47" stroke-width="0.89" stroke-miterlimit="10" stroke-linecap="round" stroke-linejoin="round"/>
</svg>
