<svg width="64" height="64" viewBox="0 0 64 64" fill="none" xmlns="http://www.w3.org/2000/svg">
<path fill-rule="evenodd" clip-rule="evenodd" d="M22.46 63.99C18.6 62.33 15 58.12 14.99 53.8C14.98 49.1 17.97 45.1 21.69 42.48C21.24 44.16 21 45.7 22.11 47.21C23.14 48.61 24.94 49.29 26.65 48.92C30.63 48.05 30.81 43.69 28.45 41.15C26.12 38.63 23.86 35.79 24.75 32.15C25.19 30.32 26.32 28.61 27.75 27.38C26.65 30.25 29.77 33.09 31.83 34.5C35.4 36.95 39.31 38.8 42.59 41.67C46.04 44.69 48.58 48.76 48.07 53.5C47.51 58.63 43.42 62.19 38.84 63.99C48.53 61.86 58.56 54.36 58.76 43.65C58.93 34.84 52.86 28.06 45.34 24.17L44.95 23.96C45.15 24.46 45.22 24.88 45.22 25.26C45.29 24.98 45.34 24.69 45.35 24.4C45.35 24.75 45.3 25.1 45.21 25.45L45.22 25.27C45.11 25.74 44.92 26.19 44.67 26.59L44.78 26.47C43.28 28.95 39.22 29.49 37.21 26.92C33.98 22.8 37.28 18.34 37.74 13.97C38.29 8.5 34.84 3.18 30.57 0C32.92 3.8 29.82 8.82 27.34 11.62C24.93 14.34 22.01 16.61 19.35 19.08C16.5 21.74 13.75 24.53 11.41 27.65C6.71002 33.89 3.84002 41.74 5.96002 49.52C8.06002 57.29 14.82 62.24 22.46 63.99Z" fill="#EE4623"/>
</svg>
