<svg width="600" height="400" viewBox="0 0 600 400" fill="none" xmlns="http://www.w3.org/2000/svg">
<g clip-path="url(#clip0_98_389)">
<path d="M107.241 93.5759C112.441 86.3126 118.461 80.7759 123.93 81.7923L103.14 132.109C103.14 132.109 90.7112 130.21 87.3481 132.109C87.3415 132.109 101.078 102.192 107.241 93.5759Z" fill="white"/>
<path d="M103.141 132.592H103.066C102.944 132.575 90.7681 130.741 87.5864 132.536C87.4976 132.586 87.3951 132.607 87.2937 132.595C87.1923 132.584 87.0971 132.54 87.0218 132.471C86.9465 132.402 86.895 132.311 86.8747 132.211C86.8543 132.111 86.8662 132.008 86.9086 131.915C87.0463 131.615 100.731 101.858 106.856 93.3027C111.229 87.1956 117.759 80.1596 124.026 81.3224C124.096 81.3356 124.163 81.3643 124.22 81.4063C124.278 81.4483 124.326 81.5027 124.36 81.5654C124.395 81.6281 124.415 81.6977 124.419 81.7691C124.423 81.8405 124.411 81.9119 124.384 81.9781L103.587 132.295C103.55 132.383 103.488 132.458 103.409 132.511C103.329 132.564 103.236 132.592 103.141 132.592ZM92.9964 130.785C96.9893 130.785 101.5 131.386 102.837 131.576L123.252 82.1771C117.651 81.6415 111.706 88.1727 107.639 93.8514C102.226 101.41 90.8009 125.805 88.2796 131.228C89.5282 130.905 91.2098 130.785 92.9964 130.785Z" fill="#141414"/>
<path d="M155.381 152.332L157.237 89.0645C157.237 89.0645 133.886 81.7748 123.755 81.4973C113.269 98.8814 105.651 117.839 101.194 137.644L155.381 152.332Z" fill="url(#paint0_linear_98_389)"/>
<path d="M115.327 135.165L121.284 139.773L107.929 136.313L115.327 135.165Z" fill="white"/>
<path d="M110.643 125.545C112.373 122.704 125.462 120.173 135.528 127.25C145.593 134.328 155.665 142.223 155.665 142.223C155.665 142.223 151.15 97.9912 157.237 89.0645C157.237 89.0645 174.935 99.882 176.507 131.331C178.079 162.78 162.383 169.261 152.96 167.003C143.538 164.745 133.16 136.839 122.613 132.514C120.112 134.339 116.272 134.151 117.877 130.59C114.815 132.678 112.71 131.047 113.987 128.256C109.729 130.584 109.755 126.995 110.643 125.545Z" fill="white"/>
<path d="M156.457 167.895C155.242 167.896 154.031 167.754 152.849 167.471C147.918 166.291 142.952 158.684 137.695 150.64C136.842 149.329 135.987 148.018 135.125 146.734C135.09 146.682 135.066 146.622 135.054 146.56C135.041 146.498 135.041 146.434 135.054 146.372C135.066 146.309 135.091 146.25 135.126 146.198C135.162 146.145 135.207 146.1 135.26 146.065C135.313 146.029 135.372 146.005 135.434 145.993C135.497 145.98 135.561 145.98 135.623 145.993C135.685 146.005 135.744 146.03 135.797 146.065C135.85 146.101 135.895 146.146 135.93 146.199C136.792 147.491 137.649 148.804 138.504 150.114C143.426 157.655 148.517 165.451 153.074 166.544C157.727 167.659 162.846 166.387 166.763 163.137C171.514 159.202 176.981 150.481 176.026 131.366C174.495 100.566 157.161 89.5935 156.986 89.4864C156.932 89.4532 156.885 89.4097 156.847 89.3584C156.81 89.3071 156.783 89.2489 156.768 89.1872C156.754 89.1255 156.751 89.0614 156.761 88.9988C156.771 88.9361 156.793 88.876 156.826 88.8219C156.86 88.7678 156.903 88.7207 156.954 88.6834C157.006 88.6461 157.064 88.6193 157.126 88.6045C157.187 88.5897 157.251 88.5871 157.314 88.5971C157.377 88.607 157.437 88.6292 157.491 88.6623C157.67 88.7738 175.422 99.9782 176.99 131.318C177.965 150.833 172.302 159.797 167.368 163.886C164.306 166.447 160.449 167.864 156.457 167.895Z" fill="#141414"/>
<path d="M117.809 131.113C117.717 131.113 117.626 131.086 117.549 131.036C117.495 131.002 117.449 130.957 117.413 130.905C117.377 130.853 117.351 130.794 117.338 130.732C117.324 130.669 117.323 130.605 117.335 130.543C117.346 130.48 117.37 130.421 117.404 130.367C118.878 128.098 120.623 126.87 122.897 126.479C122.962 126.464 123.028 126.462 123.093 126.474C123.158 126.486 123.219 126.511 123.274 126.547C123.329 126.584 123.376 126.631 123.411 126.686C123.447 126.742 123.471 126.803 123.482 126.868C123.494 126.933 123.491 127 123.476 127.064C123.46 127.128 123.432 127.188 123.392 127.24C123.352 127.293 123.302 127.337 123.245 127.369C123.188 127.402 123.125 127.422 123.059 127.429C121.043 127.77 119.55 128.839 118.216 130.894C118.172 130.962 118.111 131.017 118.04 131.055C117.969 131.093 117.89 131.113 117.809 131.113Z" fill="#141414"/>
<path d="M94.7522 216.68L94.762 216.626L94.76 216.571L93.7083 188.466L162.659 181.925L186.231 266.113L186.249 266.179L186.285 266.239L236.142 347.898C240.029 354.262 236.709 362.582 230.111 363.644L184.107 371.049C181.839 371.414 179.964 370.054 179.071 368.089C178.178 366.123 178.324 363.661 180.02 361.938L190.974 350.81L191.233 350.547L191.058 350.222L157.032 287.072C154.027 281.485 151.622 275.596 149.856 269.503L149.856 269.503L149.852 269.489L135.488 224.68L134.521 224.739L124.838 275.569L124.826 275.634L124.83 275.699L131.679 369.614C132.104 375.581 127.926 380.462 122.619 380.462C122.618 380.462 122.618 380.462 122.618 380.462L80.4389 380.403C78.6373 380.4 77.371 379.069 76.9704 377.42C76.5697 375.77 77.0761 373.962 78.6728 373.068L91.5503 365.855L91.8286 365.699L91.8046 365.381L85.7453 285.04L85.7453 285.04C85.0287 275.645 85.5887 266.196 87.4101 256.952L87.4114 256.945L94.7522 216.68Z" fill="white" stroke="#141414"/>
<path d="M87.0944 310.063C86.9741 310.064 86.8579 310.019 86.7688 309.938C86.6798 309.857 86.6243 309.746 86.6133 309.626L84.7634 285.123C84.7535 284.996 84.7949 284.869 84.8783 284.772C84.9618 284.674 85.0805 284.614 85.2084 284.604C85.3363 284.594 85.4628 284.636 85.5602 284.719C85.6576 284.803 85.7179 284.921 85.7277 285.049L87.5755 309.554C87.5847 309.68 87.544 309.805 87.4623 309.902C87.3806 309.999 87.2643 310.06 87.1382 310.072L87.0944 310.063Z" fill="#141414"/>
<path d="M131.464 371C131.413 371 131.361 370.993 131.313 370.98C131.102 370.924 110.149 365.438 92.5284 365.99H92.509C92.3736 365.984 92.2455 365.933 92.151 365.846C92.0564 365.76 92.0025 365.644 92.0001 365.523C91.9976 365.402 92.0468 365.285 92.1378 365.195C92.2287 365.105 92.3546 365.05 92.4897 365.04C110.255 364.477 131.404 370.012 131.616 370.067C131.74 370.099 131.846 370.17 131.915 370.267C131.984 370.363 132.013 370.479 131.994 370.592C131.976 370.705 131.912 370.81 131.814 370.884C131.717 370.959 131.593 371 131.464 371Z" fill="#141414"/>
<path d="M191.519 351C191.392 351.002 191.27 350.962 191.175 350.889C191.08 350.814 191.018 350.711 191.003 350.599C190.989 350.486 191.021 350.374 191.095 350.281C191.168 350.19 191.277 350.125 191.401 350.102C191.671 350.044 218.748 344.34 235.6 348.545C235.668 348.558 235.732 348.584 235.788 348.621C235.844 348.657 235.892 348.703 235.927 348.756C235.963 348.81 235.987 348.868 235.995 348.93C236.005 348.991 236 349.054 235.981 349.114C235.962 349.173 235.931 349.229 235.886 349.277C235.843 349.325 235.789 349.365 235.728 349.394C235.667 349.424 235.599 349.441 235.53 349.445C235.46 349.45 235.391 349.442 235.325 349.423C218.73 345.293 191.907 350.932 191.636 350.988C191.598 350.995 191.558 351 191.519 351Z" fill="#141414"/>
<path d="M134.76 48.5574C134.76 48.5574 124.264 46.153 122.985 55.9017C121.706 65.6503 127.358 68.7804 124.798 70.0569C122.237 71.3334 124.052 79.2109 130.606 79.0514C137.159 78.8918 143.022 77.1191 148.827 79.0514C153.461 80.5946 158.09 79.2241 158.79 73.3683C159.324 68.8962 154.417 69.3224 155.219 65.3312C156.022 61.3399 159.042 56.8809 154.528 53.3574C151.117 50.6973 150.356 53.0645 147.548 49.5257C144.084 45.1519 139.396 43.9345 134.76 48.5574Z" fill="#141414"/>
<path d="M144.277 68.2076L146.551 86.3978C146.551 86.3978 141.751 90.2907 133.431 89.3027C125.11 88.3147 133.671 83.2284 133.671 83.2284L132.606 70.8874L144.277 68.2076Z" fill="white"/>
<path d="M146.551 86.8808C146.434 86.8807 146.32 86.8378 146.232 86.7602C146.144 86.6826 146.087 86.5755 146.072 86.459L143.864 68.7978L133.12 71.2568L134.137 83.189C134.142 83.3133 134.099 83.4346 134.016 83.5278C133.934 83.621 133.819 83.6788 133.695 83.6892C133.571 83.6996 133.447 83.6618 133.351 83.5837C133.254 83.5056 133.191 83.3932 133.175 83.2699L132.117 70.9267C132.107 70.8108 132.14 70.6955 132.208 70.6016C132.277 70.5077 132.377 70.4416 132.49 70.4153L144.163 67.7377C144.229 67.7222 144.297 67.7209 144.364 67.7337C144.43 67.7465 144.493 67.7732 144.548 67.812C144.603 67.8506 144.65 67.9002 144.685 67.9578C144.72 68.0154 144.743 68.0796 144.751 68.1464L147.039 86.3388C147.054 86.4657 147.019 86.5936 146.94 86.6943C146.861 86.7951 146.746 86.8606 146.619 86.8765L146.551 86.8808Z" fill="#141414"/>
<path d="M126.396 61.4885C126.003 64.0612 125.933 67.3901 126.847 69.8229C127.761 72.2557 129.613 74.3934 132.027 75.2546C134.12 76.0043 136.486 75.7442 138.508 74.8175C140.531 73.8907 142.226 72.3366 143.608 70.5661C145.814 71.2962 148.451 70.2994 149.656 68.2819C150.352 67.1169 150.566 65.589 149.938 64.3847C149.311 63.1803 147.734 62.4961 146.54 63.1104C145.858 63.4623 145.388 64.1508 144.692 64.4743C143.918 64.8328 139.326 62.7125 137.212 60.3213C135.716 58.6273 133.962 55.4251 133.321 53.9825C132.843 55.1016 131.778 57.3355 130.658 58.5595C129.342 60 127.887 60.7978 126.396 61.4885Z" fill="white"/>
<path d="M134.616 76.1705C133.679 76.1763 132.747 76.0203 131.863 75.7093C129.457 74.8525 127.422 72.7148 126.396 69.9934C125.248 66.9486 125.679 62.9814 125.919 61.4164C125.931 61.3377 125.962 61.2631 126.01 61.1994C126.058 61.1357 126.121 61.0849 126.193 61.0514C127.793 60.3082 129.103 59.5454 130.302 58.2361C131.5 56.9268 132.571 54.5202 132.878 53.7945C132.915 53.7088 132.975 53.6356 133.053 53.5837C133.131 53.5317 133.221 53.5033 133.315 53.5016C133.408 53.5026 133.498 53.5303 133.576 53.5815C133.654 53.6327 133.715 53.7051 133.752 53.7902C134.345 55.1213 136.07 58.3104 137.561 59.9978C139.637 62.3475 143.885 64.1508 144.502 64.0262C144.802 63.859 145.079 63.6524 145.324 63.412C145.619 63.1281 145.949 62.8828 146.306 62.682C147.684 61.9716 149.586 62.6623 150.356 64.1639C151.012 65.4383 150.905 67.1126 150.058 68.5355C149.42 69.5767 148.468 70.3887 147.338 70.8545C146.209 71.3204 144.961 71.4161 143.774 71.1279C142.243 73.0273 140.54 74.4066 138.699 75.2612C137.418 75.8521 136.026 76.1621 134.616 76.1705ZM126.836 61.8164C126.606 63.447 126.289 66.9705 127.299 69.6525C128.226 72.1137 130.054 74.0372 132.189 74.8022C134.043 75.4579 136.273 75.3093 138.311 74.3782C140.094 73.5607 141.749 72.1792 143.229 70.2689C143.291 70.1906 143.375 70.1332 143.471 70.1042C143.566 70.0753 143.668 70.0763 143.763 70.1071C145.748 70.7628 148.158 69.8536 149.245 68.035C149.901 66.9202 150.017 65.5738 149.514 64.6077C148.98 63.5825 147.671 63.0776 146.765 63.5388C146.481 63.7056 146.216 63.9052 145.978 64.1333C145.659 64.4478 145.294 64.7123 144.896 64.918C143.802 65.4317 138.965 63.0404 136.849 60.6448C135.578 59.2044 134.152 56.741 133.335 55.1322C132.81 56.2383 131.944 57.8776 131.014 58.894C129.705 60.3279 128.233 61.1497 126.836 61.8164Z" fill="#141414"/>
<path d="M144.277 68.6907C144.197 68.6896 144.12 68.6689 144.05 68.6306C143.981 68.5922 143.922 68.5373 143.878 68.4708C143.835 68.4042 143.809 68.3281 143.802 68.249C143.795 68.1699 143.808 68.0904 143.839 68.0175C144.126 67.3648 144.597 66.8101 145.195 66.4218C145.793 66.0334 146.492 65.8283 147.205 65.8317C147.333 65.8351 147.454 65.8891 147.542 65.9816C147.63 66.0742 147.678 66.1979 147.675 66.3257C147.667 66.4518 147.611 66.5701 147.52 66.6572C147.428 66.7443 147.307 66.7937 147.181 66.7956C146.661 66.7968 146.152 66.9485 145.717 67.2325C145.282 67.5164 144.938 67.9204 144.727 68.3956C144.69 68.484 144.627 68.5592 144.547 68.6117C144.467 68.6643 144.373 68.6918 144.277 68.6907Z" fill="#141414"/>
<path d="M108.067 122.8C139.86 122.801 171.569 126.043 202.704 132.476C202.641 135.577 202.592 138.678 202.557 141.779C202.419 154.802 202.609 167.819 202.625 180.839C202.64 193.86 202.365 206.879 202.113 219.897C202.065 222.374 202.019 224.847 201.975 227.316C171.074 220.981 139.611 217.79 108.067 217.79H63.9634V122.8H108.067Z" fill="#141414"/>
<path d="M187.694 153.362C187.648 153.362 187.602 153.355 187.558 153.342C157.183 144.56 144.679 145.165 123.967 146.166C115.753 146.564 106.442 147.014 94.1859 147.014C94.0577 147.014 93.9348 146.963 93.8442 146.873C93.7535 146.782 93.7026 146.659 93.7026 146.531C93.7026 146.403 93.7535 146.28 93.8442 146.19C93.9348 146.099 94.0577 146.048 94.1859 146.048C106.431 146.048 115.718 145.611 123.925 145.202C144.738 144.195 157.301 143.589 187.832 152.415C187.943 152.448 188.039 152.52 188.101 152.617C188.164 152.715 188.19 152.831 188.174 152.946C188.158 153.061 188.101 153.166 188.013 153.242C187.926 153.319 187.814 153.361 187.698 153.362H187.694Z" fill="white"/>
<path d="M82.4542 147.154C82.3798 147.154 82.3063 147.137 82.2395 147.104C82.1728 147.071 82.1145 147.023 82.0694 146.964L75.5092 138.341C75.4676 138.291 75.4365 138.233 75.4178 138.171C75.3991 138.108 75.3933 138.043 75.4006 137.978C75.4079 137.913 75.4282 137.851 75.4603 137.794C75.4925 137.737 75.5357 137.688 75.5875 137.648C75.6393 137.609 75.6986 137.58 75.7617 137.564C75.8249 137.548 75.8906 137.545 75.955 137.555C76.0194 137.565 76.0811 137.588 76.1364 137.622C76.1917 137.657 76.2394 137.702 76.2768 137.755L82.3843 145.792L89.6201 132.313C89.6484 132.254 89.6884 132.202 89.7375 132.159C89.7867 132.116 89.844 132.083 89.906 132.063C89.968 132.043 90.0335 132.036 90.0984 132.042C90.1634 132.047 90.2265 132.066 90.284 132.097C90.3414 132.128 90.392 132.17 90.4327 132.221C90.4734 132.272 90.5034 132.331 90.5209 132.393C90.5383 132.456 90.5429 132.522 90.5343 132.587C90.5256 132.651 90.504 132.713 90.4707 132.769L82.8785 146.909C82.8403 146.981 82.7849 147.041 82.7173 147.085C82.6496 147.13 82.572 147.156 82.4914 147.163L82.4542 147.154Z" fill="white"/>
<path d="M187.694 178.54C187.648 178.54 187.602 178.533 187.558 178.52C157.183 169.738 144.679 170.343 123.967 171.344C115.753 171.742 106.442 172.192 94.1859 172.192C94.0577 172.192 93.9348 172.141 93.8442 172.051C93.7535 171.96 93.7026 171.837 93.7026 171.709C93.7026 171.581 93.7535 171.458 93.8442 171.368C93.9348 171.277 94.0577 171.226 94.1859 171.226C106.431 171.226 115.718 170.789 123.925 170.38C144.738 169.373 157.301 168.765 187.832 177.593C187.943 177.626 188.039 177.698 188.101 177.795C188.164 177.893 188.19 178.009 188.174 178.124C188.158 178.239 188.101 178.344 188.013 178.42C187.926 178.497 187.814 178.539 187.698 178.54H187.694Z" fill="white"/>
<path d="M82.4542 172.332C82.3795 172.332 82.3058 172.315 82.239 172.282C82.1721 172.248 82.1141 172.2 82.0694 172.14L75.5092 163.519C75.4676 163.469 75.4365 163.411 75.4178 163.349C75.3991 163.286 75.3933 163.221 75.4006 163.156C75.4079 163.091 75.4282 163.029 75.4603 162.972C75.4925 162.915 75.5357 162.866 75.5875 162.826C75.6393 162.787 75.6986 162.758 75.7617 162.742C75.8249 162.726 75.8906 162.723 75.955 162.733C76.0194 162.743 76.0811 162.766 76.1364 162.8C76.1917 162.835 76.2394 162.88 76.2768 162.933L82.3799 170.96L89.6157 157.48C89.6441 157.421 89.684 157.369 89.7332 157.326C89.7823 157.283 89.8396 157.251 89.9016 157.23C89.9637 157.21 90.0291 157.203 90.0941 157.209C90.159 157.215 90.2221 157.233 90.2796 157.264C90.337 157.295 90.3876 157.337 90.4283 157.388C90.4691 157.439 90.4991 157.498 90.5165 157.561C90.534 157.623 90.5385 157.689 90.5299 157.754C90.5213 157.818 90.4996 157.881 90.4663 157.937L82.8741 172.076C82.8359 172.148 82.7805 172.208 82.7129 172.253C82.6453 172.297 82.5676 172.324 82.487 172.33L82.4542 172.332Z" fill="white"/>
<path d="M187.694 203.716C187.648 203.716 187.602 203.709 187.558 203.696C157.183 194.914 144.679 195.519 123.967 196.52C115.753 196.918 106.442 197.368 94.1859 197.368C94.0577 197.368 93.9348 197.317 93.8442 197.227C93.7535 197.136 93.7026 197.013 93.7026 196.885C93.7026 196.757 93.7535 196.634 93.8442 196.544C93.9348 196.453 94.0577 196.402 94.1859 196.402C106.431 196.402 115.718 195.952 123.925 195.556C144.738 194.549 157.301 193.941 187.832 202.769C187.943 202.802 188.039 202.874 188.101 202.971C188.164 203.069 188.19 203.185 188.174 203.3C188.158 203.415 188.101 203.52 188.013 203.596C187.926 203.673 187.814 203.715 187.698 203.716H187.694Z" fill="white"/>
<path d="M82.4542 197.508C82.3797 197.509 82.306 197.492 82.2392 197.459C82.1723 197.426 82.1142 197.378 82.0694 197.318L75.5092 188.697C75.4676 188.647 75.4365 188.589 75.4178 188.527C75.3991 188.464 75.3933 188.399 75.4006 188.334C75.4079 188.269 75.4282 188.207 75.4603 188.15C75.4925 188.094 75.5357 188.044 75.5875 188.004C75.6393 187.965 75.6986 187.936 75.7617 187.92C75.8249 187.904 75.8906 187.901 75.955 187.911C76.0194 187.921 76.0811 187.944 76.1364 187.978C76.1917 188.013 76.2394 188.058 76.2768 188.111L82.3799 196.138L89.6157 182.658C89.6441 182.599 89.684 182.547 89.7332 182.504C89.7823 182.461 89.8396 182.429 89.9016 182.409C89.9637 182.388 90.0291 182.381 90.0941 182.387C90.159 182.393 90.2221 182.412 90.2796 182.442C90.337 182.473 90.3876 182.515 90.4283 182.566C90.4691 182.617 90.4991 182.676 90.5165 182.739C90.534 182.802 90.5385 182.867 90.5299 182.932C90.5213 182.997 90.4996 183.059 90.4663 183.115L82.8741 197.255C82.8359 197.326 82.7805 197.386 82.7129 197.431C82.6453 197.475 82.5676 197.502 82.487 197.508H82.4542Z" fill="white"/>
<path d="M152.783 124.601L151.69 123.416C150.008 121.583 147.964 120.119 145.687 119.117C143.409 118.115 140.948 117.597 138.46 117.596H130.564C128.845 117.597 127.173 118.161 125.804 119.201C124.435 120.242 123.445 121.701 122.985 123.357C121.504 128.645 119.864 135.803 121.518 136.767C124.179 138.317 128.839 127.185 128.839 127.185C128.839 127.185 124.623 137.873 127.284 139.425C129.945 140.977 135.593 127.714 135.593 127.714C135.593 127.714 131.506 137.652 134.391 138.538C137.275 139.423 141.268 128.577 141.268 128.577C141.268 128.577 139.271 135.436 141.924 135.88C144.576 136.324 147.609 124.426 147.609 124.426L152.783 124.601Z" fill="white"/>
<path d="M123.16 122.8C123.094 122.981 123.035 123.167 122.98 123.357C121.5 128.645 119.86 135.803 121.513 136.767C124.174 138.317 128.834 127.185 128.834 127.185C128.834 127.185 124.618 137.873 127.28 139.425C129.941 140.977 135.589 127.714 135.589 127.714C135.589 127.714 131.502 137.652 134.386 138.538C137.271 139.423 141.264 128.577 141.264 128.577C141.264 128.577 139.267 135.436 141.92 135.88C144.572 136.323 147.605 124.426 147.605 124.426L152.774 124.942L123.16 122.8Z" fill="white"/>
<path d="M107.805 122.8L106.93 121.764C105.248 119.931 103.202 118.467 100.924 117.466C98.6461 116.465 96.1847 115.948 93.6961 115.948H85.8108C82.2749 115.948 79.3666 118.352 78.2273 121.703C77.2848 124.474 75.6885 130.299 77.6478 130.981C80.2369 131.884 82.2967 125.613 82.2967 125.613C82.2967 125.613 79.5634 135.624 82.3886 136.262C85.3931 136.94 88.4939 126.426 88.4939 126.426C88.4939 126.426 85.4325 137.998 88.402 138.533C91.9379 139.169 95.1196 127.661 95.1196 127.661C95.1196 127.661 93.1734 136.367 96.0599 137.167C99.3399 138.079 102.861 122.769 102.861 122.769L107.805 122.8Z" fill="white"/>
<path d="M78.0196 123.279C77.9692 123.279 77.9191 123.272 77.8709 123.257C77.7491 123.217 77.648 123.131 77.5894 123.017C77.5308 122.904 77.5196 122.771 77.5582 122.649C77.6304 122.431 77.6982 122.212 77.7638 122.028C79.0233 118.334 82.1787 115.948 85.8043 115.948H93.7005C98.4065 115.941 102.935 117.741 106.353 120.975C106.433 121.065 106.477 121.181 106.475 121.302C106.474 121.422 106.428 121.537 106.346 121.626C106.263 121.714 106.151 121.768 106.031 121.778C105.911 121.788 105.792 121.752 105.697 121.679C102.457 118.616 98.1657 116.913 93.707 116.92H85.8108C82.6051 116.92 79.8083 119.051 78.6844 122.348C78.6209 122.538 78.5532 122.739 78.4854 122.953C78.4524 123.05 78.3895 123.133 78.3057 123.192C78.222 123.25 78.1218 123.281 78.0196 123.279Z" fill="#141414"/>
<path d="M457.588 315.314L465.568 365.263L484.736 371.499C487.844 372.511 487.888 376.892 484.8 377.965L436.233 394.844C434.813 395.338 433.301 395.511 431.805 395.351C430.31 395.191 428.869 394.702 427.585 393.919C426.302 393.137 425.207 392.079 424.381 390.823C423.555 389.567 423.017 388.144 422.807 386.656L413.308 319.497L457.588 315.314Z" fill="white"/>
<path d="M432.883 395.895C430.312 395.892 427.829 394.962 425.89 393.275C423.951 391.589 422.686 389.259 422.328 386.715L412.831 319.563C412.821 319.498 412.825 319.432 412.842 319.369C412.859 319.306 412.889 319.247 412.929 319.196C412.97 319.145 413.021 319.102 413.078 319.071C413.136 319.04 413.199 319.021 413.264 319.014L457.551 314.833C457.673 314.821 457.795 314.857 457.893 314.932C457.99 315.007 458.054 315.116 458.074 315.237L466.007 364.896L484.894 371.04C485.669 371.293 486.346 371.782 486.829 372.439C487.312 373.096 487.576 373.888 487.584 374.703C487.592 375.519 487.344 376.316 486.875 376.983C486.405 377.649 485.739 378.152 484.968 378.42L436.401 395.301C435.27 395.694 434.081 395.895 432.883 395.895ZM413.859 319.93L423.285 386.597C423.486 388.015 423.998 389.371 424.785 390.567C425.573 391.764 426.615 392.772 427.838 393.517C429.061 394.263 430.435 394.729 431.859 394.881C433.284 395.034 434.725 394.868 436.078 394.398L484.644 377.517C485.223 377.315 485.724 376.937 486.077 376.436C486.429 375.934 486.616 375.335 486.61 374.722C486.604 374.11 486.406 373.514 486.043 373.02C485.681 372.526 485.173 372.158 484.59 371.967L465.423 365.722C465.339 365.695 465.264 365.644 465.206 365.577C465.148 365.51 465.11 365.428 465.095 365.34L457.182 315.847L413.859 319.93Z" fill="#141414"/>
<path d="M426.528 381.062C426.411 381.062 426.297 381.019 426.209 380.941C426.121 380.864 426.064 380.756 426.049 380.64C426.035 380.523 426.063 380.405 426.129 380.308C426.195 380.211 426.294 380.141 426.408 380.111C446.115 375.04 465.15 364.938 465.332 364.837C465.445 364.777 465.577 364.764 465.7 364.801C465.822 364.839 465.925 364.923 465.985 365.036C466.046 365.149 466.059 365.281 466.021 365.404C465.984 365.527 465.899 365.629 465.786 365.69C465.596 365.79 446.458 375.948 426.644 381.047C426.607 381.057 426.568 381.062 426.528 381.062Z" fill="#141414"/>
<path d="M374.207 303.655L358.421 391.191C358.366 392.264 358.53 393.337 358.902 394.344C359.275 395.352 359.849 396.273 360.589 397.052C361.329 397.83 362.22 398.451 363.207 398.874C364.195 399.298 365.258 399.517 366.333 399.517H420.327C423.181 399.517 424.451 395.932 422.234 394.138L402.004 377.744L416.367 289.755L374.207 303.655Z" fill="white"/>
<path d="M420.327 400H366.333C365.192 400 364.064 399.768 363.017 399.318C361.969 398.868 361.024 398.21 360.238 397.383C359.453 396.557 358.844 395.58 358.449 394.511C358.053 393.442 357.88 392.303 357.938 391.165C357.938 391.145 357.938 391.126 357.938 391.104L373.724 303.569C373.739 303.484 373.777 303.404 373.834 303.338C373.891 303.272 373.965 303.223 374.047 303.196L416.207 289.303C416.286 289.277 416.37 289.272 416.452 289.288C416.533 289.304 416.609 289.341 416.672 289.395C416.736 289.449 416.784 289.518 416.812 289.596C416.84 289.674 416.848 289.759 416.835 289.84L402.518 377.552L422.529 393.762C423.092 394.219 423.499 394.839 423.695 395.537C423.892 396.235 423.867 396.977 423.625 397.66C423.383 398.344 422.935 398.936 422.343 399.354C421.751 399.773 421.043 399.999 420.318 400H420.327ZM358.902 391.257C358.854 392.262 359.011 393.267 359.363 394.21C359.714 395.154 360.254 396.015 360.95 396.744C361.645 397.472 362.481 398.052 363.407 398.447C364.333 398.843 365.33 399.046 366.337 399.045H420.331C420.858 399.045 421.371 398.883 421.801 398.579C422.231 398.276 422.557 397.846 422.733 397.35C422.908 396.854 422.926 396.316 422.783 395.809C422.64 395.303 422.343 394.853 421.934 394.522L401.705 378.129C401.639 378.075 401.588 378.005 401.558 377.926C401.528 377.846 401.519 377.76 401.532 377.677L415.768 290.463L374.636 304.015L358.902 391.257Z" fill="#141414"/>
<path d="M362.486 387.738C362.363 387.733 362.247 387.682 362.161 387.594C362.074 387.507 362.024 387.39 362.021 387.267C362.018 387.144 362.062 387.025 362.144 386.933C362.226 386.841 362.34 386.785 362.462 386.774C380.242 385.862 401.604 377.39 401.823 377.303C401.94 377.262 402.069 377.267 402.183 377.319C402.296 377.37 402.385 377.464 402.431 377.579C402.478 377.695 402.478 377.824 402.431 377.939C402.384 378.055 402.295 378.148 402.182 378.199C401.963 378.286 380.45 386.817 362.51 387.738H362.486Z" fill="#141414"/>
<path d="M350.368 156.881C345.486 162.679 341.302 169.03 337.903 175.803C331.597 188.367 321.604 208.179 321.015 208.702C320.141 209.471 313.043 214.166 313.043 214.166L311.794 219.736C311.794 219.736 309.583 223.384 310.263 224.544C310.943 225.705 313.432 224.066 313.432 224.066C313.432 224.066 310.838 228.098 311.32 229.825C311.801 231.552 314.202 230.306 314.202 230.306C314.202 230.306 312.761 233.954 313.913 235.298C315.065 236.643 318.044 234.146 319.38 232.995C320.393 232.089 321.356 231.127 322.262 230.114C322.262 230.114 318.995 235.01 319.765 236.739C320.534 238.468 324.182 236.739 327.928 231.169C331.673 225.6 335.045 216.061 336.198 214.525C337.35 212.988 359.289 179.22 359.289 179.22L380.21 153.427L379.116 122.741L350.368 156.881Z" fill="white"/>
<path d="M320.823 237.864C320.76 237.868 320.697 237.868 320.635 237.864C320.352 237.847 320.08 237.752 319.849 237.59C319.617 237.427 319.435 237.204 319.323 236.944C318.91 236.015 319.386 234.481 320.044 233.062L319.692 233.37C318.797 234.169 317.832 234.885 316.808 235.51C315.308 236.365 314.206 236.402 313.528 235.622C312.594 234.529 313.023 232.391 313.401 231.119C312.864 231.284 312.288 231.27 311.759 231.08C311.53 230.977 311.328 230.822 311.168 230.629C311.008 230.435 310.894 230.207 310.836 229.963C310.491 228.721 311.429 226.627 312.183 225.222C311.699 225.421 311.17 225.484 310.653 225.403C310.48 225.365 310.317 225.292 310.174 225.188C310.03 225.083 309.911 224.951 309.822 224.798C309.082 223.528 310.729 220.56 311.322 219.572L312.553 214.079C312.581 213.957 312.654 213.851 312.758 213.781C314.726 212.47 319.988 208.973 320.676 208.352C321.219 207.696 327.344 195.742 337.455 175.596C340.871 168.788 345.076 162.406 349.983 156.579L378.738 122.433C378.8 122.358 378.884 122.303 378.978 122.277C379.073 122.251 379.173 122.254 379.265 122.286C379.357 122.318 379.437 122.377 379.495 122.455C379.553 122.533 379.586 122.626 379.591 122.723L380.684 153.412C380.688 153.528 380.65 153.641 380.577 153.731L359.672 179.51C358.596 181.169 337.717 213.296 336.574 214.822C336.174 215.355 335.389 217.154 334.479 219.235C332.876 222.909 330.678 227.941 328.321 231.447C325.68 235.377 322.765 237.864 320.823 237.864ZM322.262 229.631C322.368 229.632 322.472 229.667 322.557 229.731C322.655 229.807 322.72 229.916 322.739 230.038C322.759 230.16 322.731 230.285 322.662 230.387C321.457 232.195 319.723 235.467 320.204 236.546C320.245 236.65 320.317 236.738 320.408 236.801C320.5 236.864 320.609 236.898 320.72 236.898C321.785 236.995 324.457 235.471 327.527 230.905C329.837 227.473 332.014 222.487 333.602 218.848C334.612 216.536 335.351 214.863 335.811 214.24C336.941 212.734 358.666 179.298 358.885 178.962L358.915 178.92L379.722 153.263L378.685 124.009L350.737 157.196C345.879 162.965 341.716 169.284 338.332 176.024C322.087 208.398 321.518 208.903 321.332 209.067C320.517 209.792 314.554 213.751 313.46 214.474L312.253 219.854C312.243 219.905 312.223 219.954 312.194 219.998C311.204 221.635 310.338 223.749 310.663 224.306C310.686 224.346 310.718 224.381 310.756 224.407C310.793 224.433 310.837 224.451 310.882 224.459C311.462 224.595 312.664 223.985 313.152 223.666C313.244 223.607 313.352 223.582 313.46 223.593C313.568 223.604 313.669 223.652 313.747 223.728C313.824 223.804 313.874 223.904 313.887 224.012C313.901 224.119 313.878 224.229 313.821 224.321C312.863 225.81 311.459 228.586 311.768 229.692C311.786 229.797 311.83 229.897 311.895 229.982C311.96 230.068 312.045 230.136 312.142 230.181C312.682 230.415 313.672 230.026 313.961 229.873C314.048 229.828 314.147 229.811 314.245 229.824C314.342 229.836 314.433 229.878 314.506 229.944C314.579 230.01 314.63 230.096 314.653 230.192C314.675 230.287 314.668 230.387 314.632 230.479C314.118 231.79 313.561 234.164 314.263 234.981C314.665 235.451 315.605 235.067 316.323 234.658C317.293 234.063 318.208 233.382 319.056 232.623C320.055 231.728 321.004 230.78 321.899 229.781C321.945 229.732 322.002 229.693 322.064 229.667C322.127 229.641 322.194 229.629 322.262 229.631Z" fill="#141414"/>
<path d="M314.191 230.78C314.11 230.78 314.032 230.759 313.961 230.72C313.891 230.682 313.832 230.626 313.788 230.559C313.745 230.491 313.719 230.414 313.713 230.334C313.707 230.254 313.721 230.174 313.753 230.101C313.987 229.604 318.175 224.133 319.454 222.468C319.491 222.414 319.539 222.368 319.595 222.333C319.65 222.298 319.712 222.275 319.777 222.265C319.842 222.255 319.908 222.258 319.971 222.274C320.035 222.29 320.094 222.319 320.146 222.359C320.198 222.399 320.241 222.449 320.273 222.506C320.305 222.564 320.325 222.627 320.332 222.692C320.339 222.757 320.333 222.823 320.313 222.885C320.294 222.948 320.262 223.006 320.219 223.056C318.173 225.722 314.842 230.107 314.624 230.518C314.582 230.597 314.519 230.662 314.443 230.709C314.367 230.755 314.28 230.779 314.191 230.78Z" fill="#141414"/>
<path d="M313.425 224.557C313.386 224.557 313.347 224.553 313.309 224.544C313.184 224.512 313.076 224.432 313.01 224.321C312.944 224.21 312.924 224.077 312.955 223.952C313.084 223.408 315.321 220.31 316.644 218.511C316.682 218.46 316.729 218.417 316.783 218.384C316.838 218.352 316.898 218.33 316.961 218.32C317.023 218.311 317.087 218.314 317.149 218.329C317.211 218.344 317.269 218.371 317.32 218.409C317.371 218.446 317.414 218.494 317.447 218.548C317.48 218.602 317.502 218.662 317.511 218.725C317.521 218.788 317.518 218.852 317.503 218.913C317.487 218.975 317.46 219.033 317.423 219.084C315.794 221.298 314.027 223.816 313.889 224.197C313.863 224.3 313.804 224.392 313.72 224.457C313.636 224.523 313.532 224.558 313.425 224.557Z" fill="#141414"/>
<path d="M467.798 68.8874C467.798 68.6688 465.985 55.6831 466.836 54.1945C467.687 52.706 470.772 52.2164 470.772 52.2164C470.772 52.2164 471.196 47.8601 473.324 47.329C475.452 46.7978 476.088 49.2415 476.088 49.2415C476.088 49.2415 477.894 46.3716 479.7 46.4787C481.507 46.5858 481.933 49.3486 481.933 49.3486C481.933 49.3486 483.953 47.8601 485.443 48.8153C486.932 49.7705 486.61 52.0044 486.61 52.0044C486.61 52.0044 488.207 51.5781 489.055 52.8546C489.904 54.1311 489.23 59.8754 486.825 59.8667C486.825 59.8667 485.018 66.0197 484.168 68.3563C483.625 69.847 483.074 91.1454 483.431 103.462C483.542 107.232 482.64 110.963 480.819 114.266C478.998 117.57 476.325 120.325 473.077 122.245L443.709 137.819L436.244 115.331L465.572 102.793L467.798 68.8874Z" fill="white"/>
<path d="M443.709 138.299C443.648 138.3 443.587 138.288 443.53 138.264C443.465 138.239 443.406 138.199 443.357 138.148C443.309 138.097 443.272 138.036 443.25 137.969L435.785 115.484C435.747 115.369 435.754 115.244 435.803 115.134C435.853 115.023 435.942 114.935 436.054 114.887L465.108 102.468L467.313 68.8918C467.313 68.8022 467.273 68.5574 467.225 68.188C465.788 56.8219 466.038 54.6164 466.416 53.9563C467.201 52.5836 469.427 51.9891 470.335 51.8077C470.496 50.647 471.128 47.3792 473.206 46.8612C474.737 46.4787 475.696 47.3617 476.197 48.2514C476.914 47.3311 478.272 45.8973 479.729 45.9978C481.279 46.0874 481.972 47.6546 482.25 48.5902C483.046 48.1661 484.487 47.6284 485.703 48.4109C486.919 49.1934 487.118 50.6317 487.124 51.4536C487.578 51.4227 488.032 51.511 488.441 51.7096C488.851 51.9082 489.201 52.2102 489.457 52.5858C490.21 53.7137 489.956 56.9574 488.972 58.7891C488.412 59.8317 487.745 60.2098 487.196 60.3191C486.814 61.6131 485.368 66.4743 484.62 68.5268C484.131 69.8754 483.538 90.671 483.914 103.451C484.027 107.308 483.104 111.124 481.242 114.503C479.379 117.882 476.644 120.7 473.322 122.664L443.935 138.249C443.865 138.284 443.787 138.301 443.709 138.299ZM436.841 115.6L443.994 137.124L472.858 121.823C476.027 119.946 478.635 117.254 480.411 114.029C482.187 110.803 483.066 107.16 482.956 103.48C482.593 91.1344 483.149 69.777 483.724 68.1967C484.559 65.8995 486.348 59.7967 486.37 59.7355C486.399 59.6355 486.46 59.5478 486.544 59.4855C486.628 59.4232 486.729 59.3897 486.833 59.3902C487.317 59.3902 487.752 59.0361 488.126 58.3366C489.031 56.6536 489.121 53.8186 488.659 53.1257C488.003 52.1508 486.752 52.4699 486.739 52.4699C486.662 52.4907 486.581 52.492 486.504 52.4737C486.426 52.4555 486.354 52.4182 486.295 52.3653C486.235 52.3125 486.19 52.2456 486.162 52.1708C486.135 52.0959 486.127 52.0155 486.138 51.9366C486.138 51.9169 486.39 49.9956 485.185 49.2219C483.98 48.4481 482.241 49.7246 482.224 49.7355C482.157 49.7845 482.079 49.8155 481.996 49.8255C481.914 49.8355 481.83 49.8241 481.754 49.7925C481.677 49.7609 481.61 49.7101 481.559 49.645C481.507 49.5799 481.474 49.5026 481.461 49.4208C481.461 49.3989 481.071 47.0426 479.676 46.9596H479.606C478.373 46.9596 476.952 48.7825 476.501 49.5016C476.45 49.5806 476.377 49.6432 476.292 49.682C476.206 49.7207 476.111 49.734 476.018 49.7202C475.925 49.7062 475.838 49.6651 475.768 49.6022C475.698 49.5392 475.648 49.4572 475.624 49.3661C475.57 49.1628 475.047 47.3989 473.438 47.7989C471.968 48.1661 471.36 51.1475 471.251 52.2667C471.242 52.3741 471.197 52.4754 471.124 52.5546C471.05 52.6337 470.953 52.6862 470.846 52.7038C470.05 52.8306 467.853 53.3923 467.251 54.4525C467.055 54.7956 466.753 56.8109 468.181 68.0852C468.275 68.8219 468.277 68.8525 468.277 68.9049V68.9377L466.051 102.844C466.045 102.932 466.015 103.018 465.964 103.09C465.913 103.163 465.842 103.22 465.76 103.255L436.841 115.6Z" fill="#141414"/>
<path d="M470.772 52.2164C470.938 52.0699 475.996 51.5606 476.628 52.8284C477.26 54.0961 474.984 56.494 472.961 56.9989C470.938 57.5038 474.478 59.6524 475.237 63.5716L470.772 52.2164Z" fill="white"/>
<path d="M475.237 64.0547C475.125 64.0543 475.017 64.0151 474.93 63.9438C474.844 63.8724 474.785 63.7734 474.763 63.6634C474.426 61.9148 473.477 60.5028 472.795 59.4711C472.156 58.5181 471.701 57.8317 471.933 57.2131C472.128 56.7126 472.675 56.5749 472.854 56.5312C474.107 56.2186 475.596 55.0186 476.105 53.9082C476.202 53.7006 476.342 53.3115 476.206 53.0339C475.83 52.2842 471.8 52.4132 470.991 52.6427C470.886 52.6917 470.767 52.7015 470.656 52.6703C470.544 52.6391 470.448 52.5689 470.383 52.4726C470.319 52.3762 470.292 52.2601 470.306 52.1453C470.321 52.0305 470.376 51.9247 470.462 51.847C470.827 51.5235 473.847 51.3574 475.412 51.6634C476.287 51.8339 476.838 52.1421 477.07 52.6033C477.302 53.0645 477.288 53.6656 476.982 54.306C476.346 55.6853 474.636 57.0711 473.088 57.458C472.993 57.4709 472.904 57.5078 472.828 57.5651C472.804 57.7421 473.265 58.4241 473.597 58.9246C474.334 60.0175 475.347 61.5301 475.721 63.4711C475.733 63.5334 475.732 63.5974 475.72 63.6596C475.707 63.7217 475.682 63.7808 475.647 63.8334C475.611 63.8859 475.565 63.931 475.513 63.966C475.46 64.0009 475.4 64.0251 475.338 64.0372C475.305 64.0456 475.271 64.0515 475.237 64.0547Z" fill="#141414"/>
<path d="M486.825 59.8666C486.825 59.8666 485.228 59.9912 485.266 58.3366C485.046 58.7357 484.717 59.0641 484.317 59.2835C483.918 59.5029 483.464 59.6043 483.009 59.5759C481.43 59.4623 481.316 56.7191 481.316 56.7191C481.316 56.7191 480.19 59.2743 478.649 59.388C477.107 59.5016 476.392 56.612 476.392 56.612C476.392 56.612 475.753 58.0393 474.625 58.341C473.497 58.6426 472.408 57.4666 472.408 57.4666L486.825 59.8666Z" fill="white"/>
<path d="M486.744 60.3519C486.226 60.3602 485.724 60.1756 485.336 59.8339C485.203 59.7067 485.091 59.5591 485.005 59.3967C484.729 59.6374 484.406 59.8196 484.057 59.9323C483.708 60.045 483.339 60.0859 482.974 60.0525C481.881 59.9738 481.334 58.9989 481.076 58.1246C480.538 58.9093 479.714 59.7902 478.684 59.8732C477.422 59.9716 476.654 58.6907 476.259 57.729C475.882 58.2381 475.354 58.6152 474.75 58.8066C473.359 59.1803 472.108 57.8623 472.056 57.8055C471.982 57.7102 471.947 57.5909 471.957 57.4709C471.967 57.351 472.021 57.239 472.109 57.157C472.197 57.0749 472.313 57.0287 472.433 57.0274C472.553 57.026 472.67 57.0697 472.76 57.1498C473.011 57.4142 473.812 58.0634 474.509 57.8776C475.246 57.6809 475.808 56.7563 475.961 56.4175C476.003 56.3259 476.071 56.2495 476.158 56.1989C476.245 56.1483 476.345 56.126 476.446 56.1352C476.546 56.1443 476.64 56.1844 476.717 56.2499C476.793 56.3154 476.847 56.403 476.871 56.5006C477.028 57.1366 477.676 58.9181 478.572 58.9181H478.622C479.646 58.8437 480.59 57.1694 480.883 56.5355C480.927 56.4357 481.004 56.3538 481.101 56.303C481.197 56.2522 481.308 56.2356 481.415 56.2559C481.523 56.2762 481.62 56.3321 481.691 56.4146C481.763 56.4972 481.804 56.6014 481.808 56.7104C481.808 56.7344 481.94 59.0273 483.053 59.1148C483.413 59.1385 483.772 59.0595 484.089 58.8869C484.405 58.7143 484.666 58.4552 484.841 58.1399C484.89 58.042 484.97 57.9634 485.069 57.917C485.168 57.8706 485.28 57.8592 485.387 57.8846C485.493 57.91 485.588 57.9706 485.655 58.0567C485.722 58.1428 485.759 58.2492 485.758 58.3585C485.741 58.4996 485.755 58.6427 485.799 58.778C485.842 58.9133 485.914 59.0378 486.009 59.1432C486.233 59.317 486.511 59.406 486.794 59.3946C486.859 59.3859 486.925 59.3906 486.988 59.4084C487.052 59.4261 487.11 59.4565 487.161 59.4977C487.212 59.539 487.255 59.5901 487.285 59.6481C487.316 59.7061 487.334 59.7697 487.339 59.8351C487.345 59.9005 487.336 59.9662 487.315 60.0283C487.294 60.0904 487.261 60.1476 487.217 60.1964C487.173 60.2451 487.12 60.2845 487.06 60.312C487.001 60.3395 486.936 60.3545 486.871 60.3563L486.744 60.3519Z" fill="#141414"/>
<path d="M485.266 58.8196C485.192 58.8202 485.118 58.8036 485.052 58.7712C484.985 58.7387 484.927 58.6914 484.882 58.6328C484.836 58.5742 484.805 58.5059 484.791 58.4333C484.776 58.3607 484.778 58.2857 484.798 58.2142C484.798 58.1967 485.303 56.2994 485.6 54.4044C485.626 54.2838 485.697 54.1777 485.799 54.1079C485.901 54.0381 486.025 54.0098 486.147 54.0288C486.269 54.0478 486.379 54.1127 486.455 54.2101C486.53 54.3076 486.566 54.4303 486.554 54.553C486.25 56.5005 485.753 58.3825 485.731 58.4612C485.704 58.564 485.644 58.6549 485.56 58.7198C485.475 58.7847 485.372 58.8198 485.266 58.8196Z" fill="#141414"/>
<path d="M481.319 57.2043H481.262C481.134 57.1895 481.018 57.1248 480.939 57.0244C480.859 56.924 480.823 56.7961 480.837 56.6688L481.423 51.5672C481.43 51.5039 481.449 51.4426 481.479 51.3867C481.509 51.3309 481.551 51.2818 481.6 51.2422C481.65 51.2027 481.707 51.1735 481.769 51.1565C481.83 51.1395 481.894 51.1349 481.957 51.1431C482.084 51.1579 482.201 51.2227 482.28 51.3231C482.36 51.4235 482.396 51.5514 482.381 51.6787L481.797 56.7803C481.783 56.8972 481.726 57.0048 481.638 57.0829C481.55 57.161 481.436 57.2042 481.319 57.2043Z" fill="#141414"/>
<path d="M432.199 99.3333C431.665 97.6415 430.985 96.0109 430.416 94.3322C429.899 92.7614 429.519 91.1489 429.279 89.5126C428.783 86.3104 428.51 83.0251 427.114 80.0787C425.815 77.3491 423.519 75.2208 420.699 74.1312C417.882 73.0383 414.766 73.3137 412.066 74.6361C411.484 74.9239 410.929 75.2634 410.408 75.6503C409.233 75.1063 407.924 74.9229 406.645 75.1235C403.583 75.5497 400.922 77.4885 398.823 79.8011C396.724 82.1137 394.935 84.8656 393.369 87.6328C391.725 90.5438 390.35 93.5983 389.26 96.7585C387.135 102.931 386.146 109.655 386.811 116.212C387.421 122.219 389.317 128.101 392.481 133.141C394.032 135.641 395.913 137.92 398.073 139.917C400.395 142.037 403.124 144.149 406.231 144.612C409.568 145.11 412.826 143.856 415.733 142.208C418.442 140.666 421.019 138.903 423.439 136.938C425.859 134.984 428.09 132.8 429.87 130.162C431.763 127.364 432.914 124.114 433.532 120.763C434.828 113.617 434.37 106.264 432.199 99.3333Z" fill="#141414"/>
<path d="M355.869 146.05C355.869 146.05 359.7 160.45 369.427 172.26L379.851 161.493C379.851 161.493 381.239 176.428 378.808 188.584C376.376 200.739 370.468 218.107 368.384 248.323C366.3 278.54 364.561 343.145 364.561 343.145H466.37C466.37 343.145 461.855 269.858 454.562 235.823C447.269 201.788 436.145 171.561 438.229 168.442C440.313 165.322 443.125 164.21 442.878 155.79C442.677 148.931 441.297 145.08 441.297 145.08L458.05 136.227C458.05 136.227 459.362 132.125 457.612 123.626C455.863 115.128 450.722 108.531 450.722 108.531C450.722 108.531 434.591 113.812 432.988 114.535C431.385 115.259 423.019 112.922 413.196 112.19C403.373 111.458 386.221 115.854 378.744 120.984C371.268 126.114 355.869 146.05 355.869 146.05Z" fill="url(#paint1_linear_98_389)"/>
<path d="M441.151 145.069C441.036 145.069 440.924 145.027 440.837 144.952C440.75 144.877 440.692 144.774 440.674 144.66C440.624 144.35 439.493 136.997 440.574 133.639C440.59 133.575 440.619 133.516 440.659 133.463C440.7 133.411 440.75 133.368 440.808 133.336C440.866 133.304 440.929 133.284 440.995 133.278C441.061 133.271 441.127 133.279 441.19 133.299C441.253 133.319 441.311 133.352 441.36 133.395C441.41 133.439 441.45 133.492 441.478 133.551C441.507 133.611 441.523 133.676 441.525 133.741C441.527 133.807 441.516 133.873 441.492 133.934C440.482 137.073 441.617 144.426 441.628 144.511C441.647 144.638 441.616 144.767 441.54 144.87C441.465 144.973 441.352 145.042 441.225 145.062L441.151 145.069Z" fill="#141414"/>
<path d="M380.205 161.517C380.116 161.517 380.029 161.492 379.953 161.446C379.877 161.4 379.815 161.334 379.774 161.255C379.732 161.177 379.714 161.088 379.719 160.999C379.725 160.911 379.754 160.825 379.805 160.752C380.072 160.352 386.365 154.632 387.627 153.497C388.536 152.676 389.647 152.109 390.846 151.854L393.032 151.392C393.156 151.371 393.282 151.398 393.386 151.468C393.489 151.538 393.562 151.645 393.588 151.768C393.614 151.89 393.592 152.017 393.526 152.124C393.459 152.23 393.355 152.306 393.234 152.337L391.047 152.798C390.015 153.017 389.06 153.505 388.278 154.214C384.793 157.37 380.866 160.99 380.597 161.309C380.554 161.374 380.495 161.426 380.427 161.462C380.359 161.499 380.282 161.517 380.205 161.517Z" fill="#141414"/>
<path d="M408.132 98.1639L402.254 113.443C402.254 113.443 412.293 135.98 415.689 139.069C419.085 142.157 417.126 114.026 417.126 114.026L418.16 100.013L408.132 98.1639Z" fill="white"/>
<path d="M402.483 113.329C402.425 113.328 402.366 113.318 402.311 113.298C402.251 113.276 402.197 113.241 402.151 113.198C402.105 113.154 402.068 113.101 402.042 113.043C402.016 112.985 402.002 112.923 402.001 112.859C401.999 112.796 402.01 112.732 402.033 112.673L407.672 97.9891C407.712 97.8835 407.788 97.7954 407.886 97.7402C407.985 97.685 408.1 97.6663 408.21 97.6874L418.247 99.541C418.365 99.5618 418.47 99.6255 418.543 99.7196C418.615 99.8138 418.65 99.9317 418.641 100.05L417.712 112.632C417.698 112.757 417.637 112.872 417.541 112.954C417.445 113.035 417.321 113.076 417.196 113.069C417.07 113.057 416.953 112.997 416.872 112.9C416.79 112.804 416.749 112.679 416.758 112.553L417.655 100.402L408.438 98.7016L402.943 113.012C402.909 113.106 402.846 113.187 402.764 113.244C402.681 113.301 402.583 113.33 402.483 113.329Z" fill="#141414"/>
<path d="M407.095 93.5278C407.218 93.9213 407.533 95.3573 408.676 93.989C409.82 92.6207 410.939 90.0393 412.192 88.33C413.445 86.6207 416.426 87.0951 420.18 87.2721C421.494 87.3503 422.791 86.9452 423.826 86.1333C423.826 86.1333 425.783 94.4787 423.388 101.309C420.994 108.14 412.206 107.648 409.358 104.807C406.511 101.965 405.899 100.638 405.899 100.638C405.899 100.638 403.454 101.661 401.351 98.9289C399.013 95.8907 399.914 92.5748 402.066 91.5453C404.217 90.5158 406.398 91.2852 407.095 93.5278Z" fill="white"/>
<path d="M415.142 107.261C412.715 107.261 410.36 106.49 409.019 105.148C406.949 103.08 406.03 101.788 405.669 101.213C404.795 101.403 402.744 101.534 400.97 99.2306C399.715 97.6 399.221 95.694 399.632 94.0022C399.764 93.386 400.033 92.8072 400.418 92.3083C400.803 91.8094 401.295 91.4031 401.858 91.1191C403.098 90.5268 404.375 90.4634 405.455 90.9333C405.963 91.1663 406.414 91.5071 406.777 91.9322C407.14 92.3573 407.406 92.8563 407.557 93.3945L407.583 93.4863C407.714 93.9235 407.801 94.0634 407.858 94.0983C408.029 93.9915 408.178 93.8527 408.296 93.6896C408.871 92.9989 409.452 91.9694 410.067 90.8765C410.588 89.9033 411.165 88.9611 411.794 88.0546C413.028 86.3759 415.512 86.5246 418.661 86.7126C419.155 86.7432 419.666 86.7738 420.191 86.7978C421.377 86.8594 422.547 86.4993 423.493 85.7814C423.556 85.7264 423.632 85.6884 423.713 85.6713C423.795 85.6542 423.88 85.6586 423.959 85.6839C424.039 85.7092 424.11 85.7546 424.167 85.8157C424.224 85.8769 424.263 85.9516 424.283 86.0328C424.366 86.3781 426.251 94.5923 423.834 101.478C422.828 104.348 420.6 106.308 417.559 107.003C416.765 107.179 415.955 107.265 415.142 107.261ZM405.901 100.155C405.993 100.156 406.083 100.183 406.16 100.232C406.238 100.282 406.299 100.352 406.339 100.435C406.339 100.435 406.979 101.746 409.699 104.466C411.248 106.013 414.539 106.697 417.353 106.052C419.266 105.615 421.79 104.411 422.931 101.152C424.853 95.659 423.891 89.0798 423.493 86.9443C422.481 87.53 421.322 87.8108 420.154 87.753C419.623 87.7268 419.107 87.6962 418.608 87.6656C415.765 87.4951 413.498 87.3595 412.577 88.6142C411.971 89.4906 411.415 90.4007 410.911 91.3399C410.275 92.4699 409.673 93.5388 409.043 94.2972C408.864 94.5158 408.315 95.1716 407.646 95.0295C406.977 94.8874 406.771 94.118 406.653 93.7464L406.629 93.6699C406.523 93.2634 406.328 92.8854 406.058 92.5628C405.789 92.2402 405.451 91.9808 405.07 91.8033C404.25 91.447 403.26 91.5082 402.278 91.9781C401.845 92.1999 401.466 92.5159 401.171 92.9028C400.876 93.2898 400.671 93.7379 400.572 94.2142C400.235 95.6219 400.662 97.2306 401.738 98.6295C403.592 101.034 405.696 100.197 405.717 100.188C405.776 100.166 405.838 100.155 405.901 100.155Z" fill="#141414"/>
<path d="M405.888 97.4863C405.791 97.4865 405.696 97.4574 405.616 97.4028C405.535 97.3482 405.473 97.2707 405.438 97.1803C404.563 94.9595 403.771 94.5158 403.378 94.4481C403.225 94.4308 403.07 94.4495 402.925 94.5026C402.78 94.5557 402.65 94.6418 402.545 94.7541C402.459 94.8453 402.342 94.9 402.217 94.9066C402.092 94.9132 401.97 94.8713 401.875 94.7895C401.781 94.7078 401.722 94.5926 401.71 94.4683C401.699 94.3439 401.736 94.2199 401.814 94.1224C402.03 93.8864 402.299 93.7061 402.6 93.5969C402.9 93.4877 403.223 93.4527 403.54 93.4951C404.596 93.6765 405.536 94.8065 406.336 96.8262C406.36 96.885 406.371 96.9479 406.37 97.0112C406.369 97.0745 406.356 97.137 406.331 97.1951C406.305 97.2531 406.269 97.3057 406.223 97.3497C406.178 97.3936 406.124 97.4282 406.065 97.4514C406.009 97.4744 405.949 97.4863 405.888 97.4863Z" fill="#141414"/>
<path d="M255.318 182.544L233.923 360.396L214.389 381.185C211.822 383.471 213.44 387.718 216.88 387.718H272.993C274.543 387.718 276.078 387.409 277.507 386.809C278.937 386.209 280.232 385.329 281.317 384.223C282.402 383.116 283.255 381.804 283.827 380.364C284.399 378.923 284.677 377.383 284.646 375.834L280.71 179.786L255.318 182.544Z" fill="white"/>
<path d="M272.993 388.197H216.878C216.021 388.197 215.184 387.937 214.479 387.452C213.773 386.966 213.232 386.278 212.927 385.477C212.622 384.677 212.567 383.803 212.771 382.971C212.974 382.139 213.426 381.389 214.066 380.82L233.462 360.177L254.843 182.487C254.857 182.378 254.908 182.276 254.988 182.2C255.067 182.123 255.171 182.076 255.281 182.066L280.679 179.305C280.746 179.298 280.813 179.305 280.877 179.325C280.94 179.345 280.999 179.379 281.049 179.423C281.099 179.467 281.14 179.521 281.168 179.582C281.196 179.642 281.211 179.708 281.213 179.775L285.149 375.825C285.181 377.44 284.89 379.045 284.293 380.546C283.696 382.046 282.805 383.413 281.673 384.565C280.541 385.718 279.19 386.632 277.699 387.256C276.209 387.879 274.609 388.199 272.993 388.197ZM255.751 182.979L234.402 360.448C234.39 360.55 234.345 360.646 234.275 360.721L214.739 381.51C214.238 381.946 213.881 382.525 213.718 383.168C213.554 383.812 213.591 384.491 213.823 385.113C214.056 385.735 214.473 386.271 215.019 386.65C215.565 387.029 216.213 387.232 216.878 387.233H272.993C274.479 387.233 275.95 386.936 277.321 386.361C278.691 385.786 279.932 384.943 280.973 383.882C282.013 382.821 282.831 381.564 283.379 380.183C283.928 378.802 284.195 377.326 284.165 375.84L280.244 180.328L255.751 182.979Z" fill="#141414"/>
<path d="M280.253 369.677H280.231C248.985 368.299 233.855 360.903 233.707 360.826C233.649 360.798 233.598 360.758 233.556 360.709C233.514 360.661 233.482 360.605 233.461 360.544C233.441 360.483 233.433 360.418 233.438 360.354C233.442 360.29 233.459 360.228 233.488 360.171C233.517 360.113 233.556 360.062 233.605 360.02C233.653 359.978 233.71 359.946 233.771 359.925C233.832 359.905 233.896 359.897 233.96 359.902C234.024 359.906 234.087 359.923 234.144 359.952C234.29 360.026 249.265 367.333 280.284 368.695C280.406 368.705 280.52 368.762 280.602 368.853C280.684 368.944 280.728 369.064 280.726 369.186C280.723 369.309 280.674 369.426 280.588 369.514C280.503 369.602 280.387 369.654 280.264 369.659L280.253 369.677Z" fill="#141414"/>
<path d="M302.374 178.164L299.247 272.638L320.882 390.407C321.084 391.507 321.041 392.638 320.758 393.72C320.474 394.801 319.955 395.808 319.239 396.667C318.522 397.526 317.626 398.218 316.613 398.692C315.599 399.166 314.494 399.412 313.375 399.412H261.721C261.139 399.412 260.566 399.269 260.052 398.996C259.538 398.723 259.099 398.327 258.774 397.845C258.449 397.363 258.247 396.808 258.187 396.229C258.126 395.651 258.209 395.066 258.427 394.527L273.881 371.974L263.759 285.965C262.633 276.4 262.275 266.761 262.687 257.139L266.238 174.343L302.374 178.164Z" fill="white"/>
<path d="M313.368 399.895H261.721C261.059 399.895 260.408 399.733 259.825 399.422C259.241 399.112 258.742 398.663 258.373 398.115C258.004 397.567 257.774 396.937 257.706 396.279C257.637 395.622 257.731 394.958 257.979 394.345C257.992 394.313 258.009 394.282 258.029 394.254L273.38 371.849L263.28 286.022C262.153 276.432 261.794 266.767 262.206 257.119L264.53 202.911L261.742 196.527C261.708 196.468 261.686 196.403 261.679 196.336C261.672 196.268 261.679 196.2 261.699 196.135C261.72 196.071 261.755 196.011 261.8 195.961C261.846 195.911 261.901 195.87 261.963 195.843C262.026 195.816 262.093 195.802 262.161 195.802C262.229 195.803 262.296 195.818 262.357 195.846C262.419 195.874 262.474 195.915 262.519 195.966C262.564 196.017 262.597 196.077 262.617 196.142L265.46 202.627C265.491 202.696 265.505 202.771 265.501 202.846L263.173 257.158C262.766 266.753 263.125 276.364 264.246 285.902L274.371 371.91C274.384 372.027 274.355 372.144 274.29 372.24L258.865 394.754C258.683 395.219 258.617 395.721 258.674 396.217C258.731 396.713 258.909 397.188 259.191 397.6C259.474 398.011 259.853 398.348 260.295 398.579C260.737 398.811 261.23 398.931 261.729 398.929H313.377C314.425 398.929 315.46 398.698 316.409 398.254C317.358 397.81 318.198 397.162 318.869 396.357C319.539 395.552 320.025 394.61 320.291 393.597C320.557 392.584 320.597 391.524 320.407 390.494L298.781 272.723C298.776 272.689 298.776 272.655 298.781 272.621L301.908 178.149C301.908 178.085 301.922 178.022 301.947 177.963C301.973 177.905 302.01 177.852 302.057 177.809C302.104 177.765 302.159 177.732 302.219 177.71C302.279 177.688 302.343 177.679 302.406 177.683C302.47 177.685 302.532 177.699 302.59 177.726C302.648 177.752 302.7 177.789 302.743 177.835C302.786 177.882 302.82 177.936 302.842 177.996C302.864 178.055 302.875 178.118 302.872 178.181L299.747 272.608L321.365 390.326C321.58 391.495 321.534 392.698 321.232 393.848C320.93 394.998 320.379 396.068 319.617 396.982C318.856 397.895 317.903 398.63 316.826 399.135C315.748 399.639 314.573 399.901 313.384 399.902L313.368 399.895Z" fill="#141414"/>
<path d="M313.145 381.139C292.781 380.793 273.881 372.498 273.693 372.415C273.593 372.354 273.519 372.258 273.484 372.146C273.45 372.034 273.457 371.914 273.505 371.807C273.553 371.7 273.638 371.614 273.745 371.565C273.851 371.516 273.972 371.507 274.084 371.541C274.27 371.624 292.999 379.847 313.161 380.181C313.289 380.181 313.412 380.232 313.502 380.323C313.593 380.413 313.644 380.536 313.644 380.664C313.644 380.793 313.593 380.915 313.502 381.006C313.412 381.097 313.289 381.148 313.161 381.148L313.145 381.139Z" fill="#141414"/>
<path d="M248.979 93.3006L224.885 76.0503L219.016 45.8623C219.143 45.4864 221.909 33.7792 221.658 31.3902C221.406 29.0011 217.258 27.7465 217.258 27.7465C217.258 27.7465 217.007 24.9836 214.868 24.8568C212.73 24.7301 211.977 26.1137 211.977 26.1137C211.977 26.1137 210.228 24.9836 208.71 25.7377C207.193 26.4918 207.075 27.7465 207.075 27.7465C207.075 27.7465 205.065 27.4973 204.184 28.8787C203.303 30.2601 203.309 32.0197 203.309 32.0197C203.309 32.0197 201.424 31.6415 201.297 33.6525C201.171 35.6634 201.8 39.5541 203.937 38.8044C203.937 38.8044 203.985 46.2361 204.615 48.3694L207.07 81.0929C207.429 88.4568 213.193 95.6809 219.563 99.4098L246.337 117.454L248.979 93.3006Z" fill="white"/>
<path d="M246.339 117.939C246.243 117.939 246.148 117.91 246.068 117.856L219.294 99.812C213.263 96.2798 206.979 89.1191 206.589 81.1191L204.134 48.4546C203.604 46.5596 203.478 41.1694 203.458 39.3814C203.063 39.3897 202.677 39.2624 202.365 39.0208C201.053 38.0328 200.722 35.1847 200.821 33.6219C200.867 32.8678 201.133 32.2994 201.615 31.93C201.977 31.6664 202.412 31.5207 202.861 31.5126C202.947 30.4905 203.263 29.5011 203.786 28.6186C204.556 27.4098 205.995 27.2459 206.714 27.2459C206.869 26.8203 207.107 26.4296 207.414 26.0964C207.721 25.7633 208.091 25.4942 208.503 25.3049C209.791 24.6623 211.188 25.1672 211.853 25.4907C212.29 25.012 213.23 24.2754 214.914 24.3759C216.753 24.4831 217.516 26.2404 217.713 27.3836C218.723 27.7399 221.912 29.0426 222.154 31.3399C222.408 33.7443 219.891 44.5005 219.53 45.882L225.323 75.7683L249.259 92.9093C249.327 92.9582 249.382 93.0243 249.417 93.1011C249.452 93.1779 249.466 93.2625 249.458 93.3464L246.818 117.508C246.809 117.591 246.779 117.671 246.731 117.738C246.682 117.806 246.616 117.86 246.54 117.895C246.477 117.923 246.409 117.938 246.339 117.939ZM203.935 38.3213C204.034 38.3214 204.131 38.3519 204.212 38.4087C204.276 38.4525 204.327 38.511 204.363 38.5791C204.399 38.6472 204.418 38.723 204.418 38.8C204.418 38.8743 204.473 46.1858 205.074 48.2317C205.083 48.2645 205.089 48.2982 205.091 48.3322L207.549 81.0601C207.921 88.6688 214.162 95.6896 219.795 98.9967L245.933 116.61L248.456 93.5279L224.595 76.4415C224.494 76.3704 224.425 76.2631 224.402 76.1421L218.544 45.9541C218.527 45.8733 218.533 45.7895 218.559 45.7115C218.695 45.2743 221.417 33.7377 221.183 31.4426C221.004 29.7443 218.192 28.5333 217.125 28.2098C217.033 28.1819 216.951 28.127 216.89 28.0522C216.829 27.9774 216.792 27.8861 216.784 27.7902C216.784 27.6962 216.539 25.4382 214.848 25.3399C213.058 25.2393 212.443 26.3038 212.406 26.3497C212.373 26.4067 212.329 26.4566 212.276 26.4964C212.224 26.5361 212.164 26.565 212.1 26.5814C212.036 26.5971 211.97 26.5998 211.905 26.5892C211.841 26.5787 211.779 26.5552 211.724 26.5202C211.708 26.5202 210.171 25.5497 208.933 26.1683C207.696 26.7869 207.565 27.7858 207.562 27.7945C207.556 27.8588 207.537 27.9212 207.507 27.978C207.476 28.0347 207.434 28.0846 207.383 28.1246C207.333 28.1644 207.275 28.1938 207.213 28.211C207.151 28.2283 207.086 28.2331 207.022 28.2251C207.005 28.2251 205.301 28.035 204.599 29.1366C203.803 30.3869 203.795 32.0044 203.795 32.0197C203.795 32.0912 203.779 32.1617 203.748 32.2264C203.717 32.291 203.673 32.348 203.618 32.3934C203.562 32.4386 203.498 32.4708 203.429 32.4878C203.359 32.5049 203.287 32.5062 203.217 32.4918C203.217 32.4918 202.603 32.3825 202.196 32.7104C201.951 32.9027 201.811 33.2328 201.783 33.694C201.689 35.1716 202.043 37.5803 202.944 38.2601C203.061 38.3505 203.201 38.4076 203.348 38.4253C203.495 38.443 203.644 38.4206 203.779 38.3606C203.828 38.3385 203.881 38.3251 203.935 38.3213Z" fill="#141414"/>
<path d="M213.296 33.2481C213.22 33.2475 213.145 33.2288 213.077 33.1934C213.005 33.1563 211.286 32.2404 210.853 29.7246C210.839 29.6016 210.872 29.4777 210.946 29.3784C211.02 29.2791 211.129 29.212 211.251 29.191C211.373 29.1699 211.499 29.1966 211.602 29.2654C211.705 29.3342 211.777 29.4399 211.805 29.5606C212.154 31.5847 213.469 32.3082 213.526 32.3388C213.62 32.3891 213.695 32.4694 213.739 32.567C213.783 32.6645 213.793 32.774 213.768 32.878C213.743 32.982 213.684 33.0748 213.601 33.1418C213.517 33.2088 213.414 33.2462 213.307 33.2481H213.296Z" fill="#141414"/>
<path d="M208.619 34.953C208.528 34.9534 208.438 34.9281 208.361 34.8802C208.284 34.8323 208.221 34.7636 208.181 34.682C208.127 34.5705 206.869 31.976 206.788 30.3104C206.782 30.2454 206.789 30.1799 206.809 30.1177C206.829 30.0555 206.861 29.998 206.904 29.9486C206.946 29.8992 206.999 29.859 207.057 29.8304C207.116 29.8018 207.18 29.7853 207.245 29.7821C207.31 29.7788 207.376 29.7888 207.437 29.8115C207.498 29.8341 207.554 29.8689 207.602 29.9138C207.649 29.9587 207.687 30.0127 207.713 30.0726C207.739 30.1325 207.752 30.197 207.753 30.2623C207.825 31.7399 209.036 34.2405 209.049 34.2667C209.086 34.3404 209.102 34.4222 209.098 34.5043C209.094 34.5863 209.068 34.6659 209.024 34.7353C208.981 34.8048 208.92 34.8619 208.847 34.9012C208.775 34.9404 208.694 34.9605 208.612 34.9596L208.619 34.953Z" fill="#141414"/>
<path d="M204.962 37.6109C204.858 37.6109 204.756 37.577 204.673 37.5143C204.589 37.4517 204.528 37.3636 204.499 37.2634L203.703 34.5574C203.676 34.4377 203.695 34.3121 203.757 34.2063C203.819 34.1004 203.919 34.0221 204.037 33.9873C204.155 33.9526 204.282 33.9639 204.391 34.019C204.501 34.0741 204.585 34.1689 204.628 34.2842L205.426 36.9902C205.462 37.1131 205.447 37.2452 205.386 37.3575C205.324 37.4698 205.221 37.5531 205.098 37.5891C205.054 37.6034 205.008 37.6108 204.962 37.6109Z" fill="#141414"/>
<path d="M212.859 39.7049C212.825 39.7081 212.791 39.7081 212.758 39.7049C212.633 39.6782 212.523 39.6029 212.454 39.4955C212.384 39.3881 212.36 39.2575 212.386 39.1323C212.824 37.0645 213.792 35.3858 214.499 34.1596C214.967 33.353 215.448 32.5159 215.351 32.2099C215.351 32.188 215.325 32.1246 215.159 32.0459C214.448 31.7137 212.754 30.7978 212.316 29.4536C212.232 29.2102 212.201 28.952 212.223 28.6956C212.245 28.4392 212.321 28.1904 212.445 27.9651C213.261 26.47 216.69 27.1366 217.368 27.2875C217.487 27.3206 217.589 27.3981 217.652 27.504C217.716 27.6099 217.737 27.7361 217.71 27.8568C217.683 27.9775 217.612 28.0834 217.509 28.1527C217.407 28.222 217.282 28.2495 217.16 28.2295C215.806 27.9323 213.639 27.7924 213.294 28.4263C213.232 28.5359 213.195 28.6574 213.185 28.7827C213.175 28.9079 213.192 29.0338 213.235 29.1519C213.453 29.8273 214.354 30.6011 215.577 31.1716C215.741 31.2381 215.89 31.3392 216.011 31.4683C216.133 31.5973 216.226 31.7511 216.283 31.9191C216.502 32.6317 216.021 33.4754 215.347 34.6426C214.632 35.8776 213.746 37.412 213.342 39.3312C213.316 39.4394 213.254 39.5356 213.166 39.6036C213.078 39.6716 212.97 39.7074 212.859 39.7049Z" fill="#141414"/>
<path d="M203.937 39.2874C203.828 39.2874 203.723 39.2508 203.638 39.1835C203.552 39.1163 203.492 39.0223 203.467 38.9168C203.442 38.8112 203.453 38.7003 203.498 38.6018C203.544 38.5033 203.621 38.423 203.718 38.3738C203.972 38.2205 204.179 38.0018 204.319 37.7406C204.458 37.4794 204.525 37.1855 204.512 36.8896C204.511 36.7873 204.543 36.6874 204.603 36.6043C204.663 36.5213 204.747 36.4594 204.845 36.4275C204.942 36.3957 205.047 36.3955 205.144 36.4271C205.242 36.4587 205.327 36.5204 205.387 36.6033C205.417 36.6426 206.161 37.635 207.182 37.2809C208.404 36.8568 208.144 34.5552 208.142 34.5333C208.128 34.4207 208.154 34.3067 208.216 34.2114C208.277 34.1161 208.371 34.0455 208.479 34.0122C208.588 33.9788 208.705 33.9847 208.809 34.0288C208.914 34.0729 209 34.1525 209.051 34.2536C209.089 34.3301 210.009 36.1137 211.275 35.5869C211.896 35.329 212.563 33.7115 212.841 32.6448C212.863 32.5626 212.906 32.4876 212.966 32.4273C213.025 32.3671 213.1 32.3236 213.182 32.3015C213.264 32.2793 213.351 32.2792 213.433 32.3011C213.515 32.323 213.59 32.3661 213.65 32.4262C214.103 32.8003 214.686 32.9796 215.27 32.9246C215.396 32.9221 215.517 32.9681 215.609 33.0531C215.7 33.1381 215.756 33.2553 215.763 33.3802C215.77 33.5051 215.728 33.6278 215.647 33.7227C215.565 33.8175 215.45 33.8769 215.325 33.8885C214.72 33.9308 214.116 33.8076 213.576 33.5322C213.265 34.4853 212.614 36.0721 211.636 36.4809C210.608 36.918 209.714 36.4809 209.071 35.882C208.947 36.7803 208.562 37.8208 207.488 38.1945C207.124 38.3232 206.734 38.3596 206.352 38.3005C205.97 38.2413 205.609 38.0885 205.301 37.8557C205.092 38.4425 204.677 38.9334 204.134 39.2372C204.072 39.2679 204.005 39.285 203.937 39.2874Z" fill="#141414"/>
<path d="M314.073 216.409C314.691 216.254 317.162 214.71 322.257 219.187C327.352 223.663 328.435 227.056 328.743 228.45C329.051 229.845 327.199 231.073 327.971 232.463C328.743 233.854 330.134 234.162 331.678 233.39C333.222 232.619 333.068 230.92 333.068 230.92C333.068 230.92 336.003 231.694 336.626 227.978C336.626 227.978 339.406 227.823 339.406 224.426C339.406 224.426 341.568 224.118 341.105 220.26C340.641 216.402 338.017 211.924 336.318 209.917C334.619 207.91 325.43 205.132 325.43 205.132L302.951 124.096L284.65 141.233L311.79 219.744L314.073 216.409Z" fill="white"/>
<path d="M330.108 234.282C329.041 234.282 328.14 233.738 327.549 232.697C327.003 231.714 327.47 230.793 327.847 230.052C328.118 229.519 328.376 229.014 328.284 228.555C327.663 225.757 325.472 222.643 321.942 219.55C317.541 215.683 315.306 216.49 314.466 216.789L314.383 216.817L312.196 220.017C312.146 220.091 312.076 220.149 311.994 220.186C311.912 220.222 311.822 220.235 311.733 220.223C311.645 220.211 311.561 220.174 311.492 220.117C311.423 220.061 311.371 219.986 311.341 219.902L284.204 141.39C284.173 141.302 284.169 141.206 284.191 141.116C284.214 141.025 284.262 140.942 284.331 140.879L302.629 123.744C302.69 123.687 302.764 123.647 302.844 123.627C302.925 123.607 303.009 123.608 303.089 123.63C303.169 123.652 303.242 123.694 303.301 123.752C303.36 123.811 303.403 123.883 303.425 123.963L325.824 204.752C327.527 205.276 335.052 207.679 336.687 209.609C338.323 211.539 341.094 216.125 341.586 220.205C341.977 223.484 340.597 224.487 339.88 224.796C339.729 227.506 337.86 228.223 337.037 228.409C336.779 229.6 336.248 230.463 335.456 230.975C334.883 231.335 334.211 231.507 333.534 231.467C333.485 231.966 333.309 232.444 333.023 232.856C332.737 233.269 332.351 233.601 331.901 233.823C331.347 234.114 330.733 234.271 330.108 234.282ZM315.931 215.537C317.366 215.537 319.533 216.151 322.577 218.815C326.253 222.046 328.549 225.338 329.215 228.337C329.393 229.134 329.03 229.851 328.708 230.481C328.33 231.228 328.111 231.709 328.393 232.229C329.25 233.76 330.685 233.346 331.455 232.957C332.688 232.341 332.581 230.977 332.579 230.964C332.572 230.887 332.583 230.809 332.613 230.737C332.642 230.665 332.688 230.601 332.747 230.551C332.807 230.501 332.877 230.466 332.953 230.449C333.028 230.432 333.107 230.433 333.182 230.452C333.782 230.578 334.407 230.472 334.932 230.155C335.553 229.749 335.959 228.992 336.139 227.908C336.157 227.8 336.211 227.701 336.293 227.627C336.375 227.554 336.479 227.51 336.589 227.504C336.825 227.489 338.914 227.268 338.914 224.444C338.913 224.327 338.954 224.215 339.03 224.127C339.106 224.039 339.212 223.981 339.327 223.965C339.388 223.965 341.011 223.628 340.615 220.332C340.151 216.459 337.499 212.087 335.937 210.243C334.625 208.686 327.799 206.369 325.279 205.609C325.201 205.585 325.13 205.542 325.073 205.484C325.016 205.425 324.975 205.353 324.954 205.274L302.702 124.995L285.208 141.37L311.93 218.68L313.679 216.135C313.746 216.038 313.846 215.969 313.961 215.941C314.007 215.928 314.066 215.906 314.138 215.88C314.71 215.656 315.318 215.54 315.931 215.537Z" fill="#141414"/>
<path d="M333.069 231.401C332.942 231.401 332.821 231.352 332.731 231.264C332.64 231.175 332.588 231.055 332.585 230.929C332.585 230.887 332.504 226.848 332.036 224.59C332.02 224.527 332.016 224.461 332.026 224.396C332.036 224.332 332.058 224.269 332.093 224.214C332.127 224.158 332.173 224.11 332.226 224.073C332.28 224.035 332.34 224.009 332.404 223.995C332.468 223.982 332.534 223.981 332.599 223.994C332.663 224.007 332.724 224.033 332.778 224.07C332.832 224.107 332.877 224.154 332.912 224.21C332.947 224.265 332.971 224.327 332.981 224.391C333.469 226.73 333.547 230.73 333.552 230.901C333.554 231.028 333.505 231.152 333.416 231.243C333.327 231.335 333.205 231.388 333.077 231.39L333.069 231.401Z" fill="#141414"/>
<path d="M336.626 228.47C336.501 228.47 336.38 228.421 336.291 228.334C336.201 228.246 336.149 228.127 336.145 228.002C336.145 227.956 335.996 223.482 335.708 222.186C335.684 222.062 335.71 221.933 335.779 221.828C335.849 221.723 335.957 221.649 336.081 221.622C336.204 221.596 336.333 221.618 336.44 221.686C336.547 221.753 336.623 221.86 336.652 221.982C336.948 223.364 337.09 227.784 337.09 227.972C337.093 228.099 337.046 228.223 336.958 228.316C336.871 228.409 336.75 228.464 336.622 228.468L336.626 228.47Z" fill="#141414"/>
<path d="M339.399 224.918C339.282 224.918 339.169 224.875 339.082 224.798C338.994 224.721 338.937 224.614 338.922 224.498L338.317 219.923C338.306 219.86 338.309 219.795 338.324 219.732C338.34 219.669 338.367 219.61 338.406 219.558C338.445 219.506 338.493 219.463 338.549 219.43C338.604 219.397 338.666 219.376 338.73 219.368C338.794 219.359 338.859 219.364 338.922 219.381C338.984 219.398 339.042 219.427 339.093 219.467C339.144 219.507 339.186 219.557 339.217 219.614C339.248 219.67 339.268 219.732 339.274 219.797L339.878 224.374C339.886 224.436 339.882 224.5 339.866 224.561C339.849 224.622 339.821 224.68 339.782 224.73C339.744 224.78 339.696 224.822 339.641 224.854C339.586 224.885 339.525 224.906 339.462 224.914C339.442 224.917 339.42 224.919 339.399 224.918Z" fill="#141414"/>
<path d="M288.116 142.179C288.414 141.287 306.845 129.104 306.845 129.104L301.705 113.134C300.757 110.191 298.977 107.584 296.58 105.63C294.182 103.675 291.27 102.456 288.195 102.12L278.246 101.027L265.092 101.261L241.144 86.306L234.306 112.459L251.548 123.751C251.548 123.751 251.251 128.505 248.874 132.369C246.497 136.234 248.576 140.391 253.028 145.742L253.921 182.887C253.921 182.887 259.271 185.266 275.326 185.266C291.381 185.266 299.483 182.713 299.483 182.713L288.116 142.179Z" fill="url(#paint2_linear_98_389)"/>
<path d="M288.116 142.662C288.011 142.662 287.909 142.628 287.825 142.564C287.742 142.501 287.681 142.412 287.653 142.31L283.03 126.081C283.011 126.019 283.004 125.955 283.011 125.891C283.017 125.827 283.036 125.765 283.067 125.708C283.098 125.651 283.139 125.602 283.19 125.561C283.24 125.521 283.297 125.491 283.359 125.474C283.421 125.456 283.486 125.451 283.55 125.459C283.614 125.466 283.676 125.487 283.732 125.519C283.787 125.551 283.836 125.594 283.875 125.645C283.915 125.696 283.943 125.754 283.959 125.816L288.58 142.048C288.598 142.109 288.603 142.173 288.596 142.236C288.589 142.299 288.569 142.36 288.538 142.416C288.507 142.471 288.466 142.52 288.416 142.559C288.366 142.599 288.309 142.628 288.248 142.645C288.205 142.656 288.161 142.662 288.116 142.662Z" fill="#141414"/>
<path d="M251.544 124.229C251.432 124.23 251.324 124.192 251.238 124.121C251.152 124.051 251.094 123.952 251.073 123.843C251.025 123.58 251.073 123.051 251.183 121.875C251.362 119.954 251.664 116.737 251.31 114.608C251.299 114.545 251.301 114.481 251.316 114.42C251.33 114.358 251.356 114.3 251.393 114.248C251.43 114.197 251.477 114.153 251.531 114.12C251.584 114.086 251.644 114.064 251.707 114.054C251.769 114.043 251.833 114.045 251.895 114.06C251.956 114.074 252.014 114.1 252.066 114.137C252.117 114.174 252.161 114.221 252.195 114.274C252.228 114.328 252.251 114.388 252.261 114.45C252.637 116.702 252.34 119.871 252.143 121.965C252.074 122.529 252.034 123.097 252.025 123.666C252.043 123.791 252.011 123.919 251.937 124.022C251.863 124.125 251.752 124.196 251.627 124.219C251.599 124.224 251.572 124.228 251.544 124.229Z" fill="#141414"/>
<path d="M286.503 70.0743C286.201 68.2601 284.878 65.2219 282.566 65.7464C282.721 63.9981 282.673 62.2377 282.422 60.5005C282.283 59.5631 282.048 58.6424 281.72 57.753C281.416 56.9486 281.005 56.177 280.19 55.7858C279.096 55.2787 278.178 55.6896 277.456 56.4175C277.019 55.0688 276.317 53.7508 274.926 53.3311C272.68 52.6557 271.285 54.8328 270.391 56.5071C269.72 57.7722 269.122 59.0741 268.598 60.4066C268.263 59.5497 267.902 58.7038 267.504 57.8732C266.802 56.4066 265.6 54.0197 263.568 55.1257C261.979 56 262.038 58.1858 261.904 59.7377L261.832 60.588L260.835 57.565C260.468 56.4503 260.056 55.1607 258.828 54.7235C257.419 54.2339 256.278 55.2852 255.576 56.3869C252.801 60.73 253.039 66.3191 254.572 71.0514C255.519 73.9825 256.921 76.7344 258.353 79.4623L258.366 79.482C258.592 80.4207 259.105 81.2657 259.833 81.8995C260.927 82.824 262.637 83.2831 263.988 82.7607C265.448 85.552 267.463 88.0156 269.91 90C271.329 91.1454 272.917 92.3213 274.675 92.8743C276.7 93.5104 278.611 92.7519 280.174 91.4579C282.969 89.1519 284.18 85.4448 285.075 82.059C285.612 80.0362 286.032 77.9839 286.332 75.9126C286.603 73.9716 286.826 72.0262 286.503 70.0743Z" fill="#141414"/>
<path d="M273.664 85.8885L278.256 101.032C278.256 101.032 274.377 114.699 264.633 114.413C256.647 114.179 265.103 101.266 265.103 101.266L264.281 88.2361L273.664 85.8885Z" fill="white"/>
<path d="M265.09 101.749C264.968 101.748 264.85 101.701 264.76 101.617C264.671 101.533 264.617 101.419 264.609 101.296L263.787 88.2645C263.78 88.1522 263.813 88.041 263.88 87.9503C263.946 87.8596 264.043 87.7952 264.152 87.7683L273.555 85.4208C273.675 85.3908 273.802 85.408 273.91 85.469C274.018 85.5301 274.098 85.6302 274.135 85.7487L278.713 100.892C278.748 101.014 278.734 101.144 278.673 101.256C278.612 101.367 278.51 101.45 278.389 101.487C278.267 101.523 278.136 101.511 278.024 101.452C277.912 101.393 277.827 101.292 277.789 101.172L273.343 86.4678L264.784 88.6055L265.58 101.235C265.584 101.298 265.576 101.362 265.555 101.422C265.535 101.482 265.502 101.537 265.46 101.585C265.418 101.633 265.367 101.671 265.31 101.699C265.253 101.727 265.191 101.743 265.127 101.746L265.09 101.749Z" fill="#141414"/>
<path d="M260.835 73.2437C260.835 73.2437 265.39 80.1945 272.825 81.3923C272.825 81.3923 274.137 77.5366 277.5 77.6765C280.378 77.7967 280.942 81.5781 280.319 83.4011C279.649 85.3683 277.5 88.1049 274.852 86.5464C274.852 86.5464 274.132 91.4601 269.457 93.1388C264.404 94.953 260.658 93.1279 258.545 87.1453C255.679 78.9967 260.835 73.2437 260.835 73.2437Z" fill="white"/>
<path d="M265.996 94.2885C264.948 94.2991 263.912 94.0751 262.963 93.6328C260.87 92.6382 259.245 90.5093 258.102 87.3071C255.163 78.9836 260.424 72.9792 260.476 72.9202C260.525 72.8644 260.586 72.8209 260.655 72.7932C260.724 72.7655 260.798 72.7543 260.872 72.7606C260.946 72.7669 261.017 72.7899 261.081 72.8277C261.145 72.8656 261.199 72.9174 261.24 72.9792C261.283 73.047 265.613 79.5366 272.525 80.8481C272.982 79.8076 274.493 77.0819 277.524 77.1934C278.047 77.208 278.56 77.3493 279.017 77.6051C279.474 77.861 279.862 78.2237 280.148 78.6623C281.147 80.1224 281.222 82.2732 280.784 83.5541C280.29 84.9989 279.101 86.7104 277.555 87.2808C276.798 87.562 275.963 87.5503 275.215 87.2481C274.843 88.6907 273.557 92.1836 269.639 93.5869C268.474 94.0285 267.241 94.2659 265.996 94.2885ZM260.817 74.0503C259.492 75.8995 258.635 78.0427 258.321 80.2958C258.007 82.549 258.244 84.8447 259.013 86.9858C260.056 89.9366 261.524 91.8798 263.387 92.7606C265.02 93.5366 267.015 93.5104 269.315 92.6841C273.651 91.1279 274.388 86.5224 274.397 86.4765C274.408 86.3982 274.439 86.3239 274.485 86.2601C274.532 86.1964 274.594 86.1452 274.665 86.111C274.737 86.0768 274.815 86.0608 274.894 86.0643C274.974 86.0678 275.05 86.0908 275.119 86.1311C275.426 86.3324 275.776 86.4594 276.141 86.5023C276.506 86.5452 276.876 86.5026 277.222 86.3781C278.464 85.9191 279.466 84.4328 279.872 83.2459C280.231 82.1923 280.135 80.3519 279.352 79.2087C279.151 78.895 278.877 78.6353 278.552 78.4523C278.228 78.2694 277.863 78.1689 277.491 78.1595C274.528 78.0437 273.306 81.5147 273.293 81.5497C273.257 81.6582 273.183 81.7502 273.085 81.8088C272.987 81.8674 272.872 81.8887 272.759 81.8688C266.339 80.8349 262.077 75.7486 260.815 74.0503H260.817Z" fill="#141414"/>
<path d="M275.735 84.4175C275.711 84.4196 275.687 84.4196 275.663 84.4175C275.6 84.4084 275.54 84.387 275.486 84.3546C275.431 84.3222 275.384 84.2794 275.346 84.2286C275.308 84.1779 275.281 84.1201 275.266 84.0588C275.25 83.9974 275.247 83.9336 275.256 83.871C275.291 83.635 275.626 81.5497 276.754 80.7606C276.942 80.6257 277.155 80.5316 277.381 80.4845C277.607 80.4375 277.841 80.4384 278.066 80.4874C278.128 80.5002 278.187 80.5251 278.24 80.5607C278.293 80.5962 278.338 80.6418 278.373 80.6948C278.407 80.7478 278.432 80.8071 278.444 80.8694C278.456 80.9317 278.455 80.9958 278.442 81.0579C278.43 81.12 278.405 81.1791 278.369 81.2316C278.333 81.2841 278.288 81.3291 278.235 81.364C278.182 81.3989 278.123 81.4231 278.06 81.4351C277.998 81.447 277.934 81.4466 277.872 81.4339C277.776 81.4118 277.677 81.4107 277.581 81.4307C277.485 81.4507 277.395 81.4913 277.316 81.5497C276.66 82.0197 276.293 83.5169 276.223 84.0109C276.205 84.1263 276.145 84.2312 276.056 84.306C275.966 84.3808 275.852 84.4205 275.735 84.4175Z" fill="#141414"/>
<path d="M536.804 241.589C571.439 241.589 599.517 213.523 599.517 178.903C599.517 144.282 571.439 116.216 536.804 116.216C502.169 116.216 474.092 144.282 474.092 178.903C474.092 213.523 502.169 241.589 536.804 241.589Z" fill="white"/>
<path d="M536.804 242.072C501.957 242.072 473.608 213.733 473.608 178.903C473.608 144.072 501.957 115.733 536.804 115.733C571.651 115.733 600 144.072 600 178.903C600 213.733 571.649 242.072 536.804 242.072ZM536.804 116.699C502.49 116.699 474.575 144.603 474.575 178.903C474.575 213.202 502.49 241.106 536.804 241.106C571.118 241.106 599.031 213.202 599.031 178.903C599.031 144.603 571.116 116.699 536.804 116.699Z" fill="#141414"/>
<path d="M536.804 307.93C536.676 307.93 536.553 307.879 536.462 307.789C536.372 307.698 536.321 307.575 536.321 307.447V241.589C536.316 241.523 536.326 241.457 536.348 241.395C536.37 241.332 536.405 241.275 536.45 241.227C536.495 241.178 536.55 241.14 536.611 241.113C536.671 241.087 536.737 241.074 536.803 241.074C536.869 241.074 536.935 241.087 536.996 241.113C537.056 241.14 537.111 241.178 537.156 241.227C537.201 241.275 537.236 241.332 537.258 241.395C537.281 241.457 537.29 241.523 537.285 241.589V307.447C537.286 307.51 537.273 307.573 537.249 307.632C537.225 307.69 537.19 307.744 537.145 307.788C537.1 307.833 537.047 307.869 536.989 307.893C536.93 307.918 536.868 307.93 536.804 307.93Z" fill="#141414"/>
<path d="M554.984 279.563H518.622C518.494 279.563 518.371 279.512 518.28 279.421C518.189 279.331 518.138 279.208 518.138 279.08C518.138 278.952 518.189 278.829 518.28 278.738C518.371 278.648 518.494 278.597 518.622 278.597H554.984C555.113 278.597 555.236 278.648 555.326 278.738C555.417 278.829 555.468 278.952 555.468 279.08C555.468 279.208 555.417 279.331 555.326 279.421C555.236 279.512 555.113 279.563 554.984 279.563Z" fill="#141414"/>
<path d="M512.206 166.12L517.686 206.595C517.849 207.805 518.446 208.916 519.366 209.72C520.286 210.524 521.467 210.966 522.689 210.966H543.738L553.519 162.761L539.354 159.22L512.206 166.12Z" fill="url(#paint3_linear_98_389)"/>
<path d="M519.621 165.489L519.304 148.245C519.28 146.803 519.829 145.411 520.83 144.373C521.831 143.335 523.202 142.736 524.644 142.706C527.635 142.649 530.366 144.933 530.421 147.923L530.504 165.484C530.559 168.474 528.156 170.769 525.162 170.826C523.721 170.846 522.33 170.297 521.293 169.297C520.255 168.297 519.654 166.929 519.621 165.489Z" fill="url(#paint4_linear_98_389)"/>
<path d="M554.704 165.425L554.386 148.221C554.327 145.04 551.699 142.508 548.516 142.567L548.092 142.575C544.909 142.634 542.377 145.261 542.435 148.443L542.754 165.646C542.813 168.828 545.441 171.359 548.624 171.3L549.048 171.292C552.231 171.234 554.763 168.607 554.704 165.425Z" fill="url(#paint5_linear_98_389)"/>
<path d="M530.771 167.084L530.421 148.144C530.392 146.56 530.994 145.029 532.094 143.888C533.194 142.747 534.703 142.09 536.288 142.061C537.873 142.032 539.405 142.634 540.546 143.734C541.687 144.833 542.345 146.341 542.374 147.926L542.723 166.866C542.752 168.45 542.151 169.981 541.05 171.122C539.95 172.262 538.442 172.92 536.857 172.949C535.272 172.978 533.74 172.376 532.599 171.276C531.457 170.176 530.8 168.668 530.771 167.084Z" fill="url(#paint6_linear_98_389)"/>
<path d="M536.745 173.432C535.054 173.426 533.433 172.76 532.226 171.576C531.02 170.392 530.325 168.783 530.29 167.093L529.94 148.153C529.939 148.09 529.95 148.027 529.973 147.968C529.996 147.909 530.03 147.855 530.074 147.81C530.118 147.764 530.171 147.728 530.229 147.703C530.287 147.678 530.349 147.664 530.412 147.663C530.476 147.66 530.54 147.669 530.6 147.692C530.66 147.714 530.715 147.748 530.761 147.792C530.807 147.837 530.844 147.89 530.869 147.949C530.893 148.008 530.905 148.072 530.904 148.136L531.254 167.075C531.268 167.796 531.423 168.507 531.713 169.167C532.002 169.828 532.419 170.424 532.94 170.922C533.455 171.429 534.066 171.827 534.738 172.092C535.41 172.357 536.128 172.484 536.85 172.466C538.306 172.437 539.692 171.832 540.702 170.783C541.713 169.735 542.266 168.328 542.24 166.872L541.89 147.932C541.889 147.804 541.938 147.681 542.026 147.589C542.115 147.497 542.237 147.443 542.365 147.44C542.429 147.438 542.492 147.449 542.552 147.471C542.612 147.494 542.666 147.529 542.712 147.573C542.758 147.617 542.794 147.67 542.819 147.729C542.844 147.788 542.857 147.851 542.857 147.915L543.207 166.855C543.237 168.567 542.586 170.221 541.397 171.453C540.208 172.686 538.578 173.397 536.865 173.43L536.745 173.432Z" fill="white"/>
<path d="M525.059 171.309C523.509 171.304 522.022 170.693 520.916 169.607C519.809 168.522 519.171 167.047 519.138 165.497C519.136 165.434 519.148 165.371 519.171 165.312C519.194 165.253 519.229 165.199 519.273 165.153C519.317 165.107 519.37 165.071 519.428 165.046C519.486 165.02 519.549 165.007 519.612 165.005C519.739 165.005 519.86 165.055 519.951 165.144C520.041 165.233 520.093 165.353 520.095 165.48C520.108 166.131 520.249 166.773 520.512 167.369C520.775 167.965 521.154 168.503 521.626 168.951C522.573 169.861 523.84 170.361 525.153 170.343C526.467 170.314 527.716 169.768 528.627 168.822C529.539 167.877 530.04 166.609 530.021 165.296C530.019 165.233 530.03 165.17 530.053 165.111C530.076 165.052 530.111 164.998 530.155 164.952C530.199 164.906 530.251 164.87 530.309 164.845C530.367 164.819 530.43 164.806 530.493 164.804C530.62 164.804 530.741 164.854 530.832 164.943C530.922 165.031 530.974 165.152 530.976 165.279C531.004 166.849 530.407 168.365 529.317 169.495C528.227 170.626 526.732 171.277 525.162 171.307L525.059 171.309Z" fill="white"/>
<path d="M519.913 167.795L519.62 151.961C519.566 149.054 517.165 146.74 514.256 146.794L513.908 146.8C510.999 146.854 508.685 149.255 508.739 152.163L509.032 167.996C509.086 170.903 511.487 173.217 514.396 173.163L514.744 173.157C517.653 173.103 519.967 170.702 519.913 167.795Z" fill="url(#paint7_linear_98_389)"/>
<path d="M514.283 173.642C513.88 173.642 513.477 173.6 513.083 173.515C513.021 173.502 512.962 173.476 512.91 173.44C512.858 173.405 512.813 173.359 512.779 173.306C512.745 173.253 512.721 173.193 512.709 173.131C512.698 173.069 512.699 173.005 512.712 172.943C512.725 172.881 512.751 172.823 512.786 172.771C512.822 172.718 512.868 172.674 512.921 172.64C512.974 172.605 513.034 172.582 513.096 172.57C513.158 172.559 513.222 172.559 513.284 172.573C513.643 172.649 514.01 172.683 514.377 172.675H514.723C515.991 172.649 517.196 172.122 518.077 171.209C518.957 170.297 519.44 169.073 519.42 167.805L519.127 151.974C519.126 151.91 519.137 151.847 519.16 151.788C519.183 151.729 519.218 151.675 519.262 151.63C519.306 151.584 519.359 151.547 519.417 151.522C519.475 151.497 519.538 151.483 519.601 151.482C519.665 151.48 519.728 151.491 519.788 151.514C519.847 151.536 519.902 151.571 519.947 151.615C519.993 151.659 520.03 151.712 520.055 151.771C520.08 151.83 520.093 151.893 520.093 151.956L520.386 167.788C520.409 169.311 519.828 170.781 518.77 171.878C517.712 172.974 516.264 173.608 514.74 173.642H514.397H514.283Z" fill="white"/>
<path d="M568.929 165.126C568.842 161.943 566.141 159.443 562.955 159.443H544.228C541.195 159.443 538.479 161.607 538.081 164.614C537.969 165.458 538.039 166.317 538.285 167.132C538.531 167.947 538.948 168.701 539.509 169.342C540.07 169.983 540.761 170.498 541.536 170.851C542.311 171.204 543.153 171.388 544.005 171.39H548.442L540.865 189.635L542.686 211.025H552.244C553.572 211.026 554.847 210.504 555.791 209.572C556.736 208.64 557.275 207.373 557.291 206.046C557.361 200.052 557.606 190.452 558.431 187.72C559.603 183.858 569.156 173.552 568.929 165.126Z" fill="url(#paint8_linear_98_389)"/>
<path d="M540.865 190.118C540.802 190.118 540.739 190.105 540.681 190.081C540.563 190.032 540.469 189.937 540.42 189.819C540.37 189.701 540.37 189.568 540.419 189.449L547.711 171.882H543.994C543.073 171.88 542.163 171.681 541.326 171.3C540.488 170.918 539.741 170.362 539.135 169.669C538.529 168.976 538.078 168.162 537.812 167.281C537.545 166.4 537.47 165.472 537.591 164.56C538.013 161.373 540.871 158.968 544.217 158.968H555.258C555.386 158.968 555.509 159.019 555.599 159.11C555.69 159.2 555.741 159.323 555.741 159.451C555.741 159.579 555.69 159.702 555.599 159.793C555.509 159.884 555.386 159.934 555.258 159.934H544.217C541.346 159.934 538.908 161.976 538.549 164.686C538.446 165.463 538.51 166.252 538.736 167.001C538.963 167.751 539.346 168.444 539.861 169.033C540.377 169.623 541.012 170.096 541.724 170.421C542.437 170.746 543.211 170.915 543.994 170.918H548.431C548.508 170.92 548.584 170.94 548.652 170.977C548.72 171.015 548.777 171.068 548.82 171.132C548.863 171.196 548.89 171.27 548.898 171.347C548.907 171.424 548.896 171.502 548.868 171.574L541.298 189.808C541.264 189.896 541.205 189.973 541.128 190.028C541.051 190.083 540.959 190.114 540.865 190.118Z" fill="white"/>
<path d="M63.6179 380.38H6.25619C6.19246 380.38 6.12941 380.367 6.07072 380.342C6.01203 380.317 5.95887 380.281 5.91431 380.236C5.86976 380.19 5.83469 380.136 5.81117 380.077C5.78766 380.018 5.77614 379.954 5.7773 379.891V264.077C5.7773 263.948 5.82822 263.826 5.91885 263.735C6.00948 263.644 6.13239 263.593 6.26056 263.593C6.38873 263.593 6.51165 263.644 6.60228 263.735C6.69291 263.826 6.74383 263.948 6.74383 264.077V379.416H63.6179C63.684 379.412 63.7502 379.421 63.8126 379.443C63.875 379.466 63.9321 379.5 63.9804 379.546C64.0288 379.591 64.0674 379.645 64.0937 379.706C64.1201 379.767 64.1337 379.832 64.1337 379.898C64.1337 379.965 64.1201 380.03 64.0937 380.091C64.0674 380.151 64.0288 380.206 63.9804 380.251C63.9321 380.296 63.875 380.331 63.8126 380.353C63.7502 380.376 63.684 380.385 63.6179 380.38Z" fill="#141414"/>
<path d="M6.13809 256.911C9.52806 256.911 12.2762 254.165 12.2762 250.776C12.2762 247.387 9.52806 244.64 6.13809 244.64C2.74812 244.64 0 247.387 0 250.776C0 254.165 2.74812 256.911 6.13809 256.911Z" fill="#141414"/>
<path d="M6.13809 236.704C9.52806 236.704 12.2762 233.957 12.2762 230.568C12.2762 227.18 9.52806 224.433 6.13809 224.433C2.74812 224.433 0 227.18 0 230.568C0 233.957 2.74812 236.704 6.13809 236.704Z" fill="#141414"/>
<path d="M6.13809 216.496C9.52806 216.496 12.2762 213.749 12.2762 210.361C12.2762 206.972 9.52806 204.225 6.13809 204.225C2.74812 204.225 0 206.972 0 210.361C0 213.749 2.74812 216.496 6.13809 216.496Z" fill="#141414"/>
<path d="M341.24 104.155C344.63 104.155 347.378 101.408 347.378 98.0197C347.378 94.6311 344.63 91.8842 341.24 91.8842C337.85 91.8842 335.102 94.6311 335.102 98.0197C335.102 101.408 337.85 104.155 341.24 104.155Z" fill="#141414"/>
<path d="M347.198 79.2106C347.977 75.9127 345.933 72.6082 342.634 71.8298C339.335 71.0514 336.029 73.0939 335.25 76.3918C334.471 79.6898 336.515 82.9943 339.814 83.7727C343.113 84.5511 346.419 82.5086 347.198 79.2106Z" fill="#141414"/>
<path d="M341.24 63.7399C344.63 63.7399 347.378 60.9929 347.378 57.6044C347.378 54.2158 344.63 51.4689 341.24 51.4689C337.85 51.4689 335.102 54.2158 335.102 57.6044C335.102 60.9929 337.85 63.7399 341.24 63.7399Z" fill="#141414"/>
<path d="M533.784 96.5311C533.656 96.5311 533.533 96.4803 533.443 96.3897C533.352 96.2991 533.301 96.1762 533.301 96.0481V0.966123H340.982V41.9672C340.987 42.0332 340.977 42.0995 340.955 42.1618C340.933 42.2241 340.898 42.2812 340.853 42.3296C340.808 42.3779 340.753 42.4165 340.692 42.4428C340.632 42.4692 340.566 42.4827 340.5 42.4827C340.434 42.4827 340.368 42.4692 340.308 42.4428C340.247 42.4165 340.192 42.3779 340.147 42.3296C340.102 42.2812 340.067 42.2241 340.045 42.1618C340.023 42.0995 340.013 42.0332 340.018 41.9672V0.483058C340.018 0.419725 340.03 0.35696 340.054 0.298365C340.078 0.23977 340.113 0.1865 340.158 0.141615C340.203 0.0967298 340.256 0.0611173 340.314 0.0368145C340.373 0.0125118 340.436 -6.54251e-07 340.499 0H533.784C533.848 -6.54251e-07 533.91 0.0125118 533.969 0.0368145C534.027 0.0611173 534.08 0.0967298 534.125 0.141615C534.17 0.1865 534.205 0.23977 534.229 0.298365C534.253 0.35696 534.266 0.419725 534.265 0.483058V96.0481C534.266 96.1114 534.253 96.1742 534.229 96.2328C534.205 96.2914 534.17 96.3446 534.125 96.3895C534.08 96.4344 534.027 96.47 533.969 96.4943C533.91 96.5186 533.848 96.5311 533.784 96.5311Z" fill="#141414"/>
</g>
<defs>
<linearGradient id="paint0_linear_98_389" x1="129.217" y1="152.333" x2="129.217" y2="81.4973" gradientUnits="userSpaceOnUse">
<stop stop-color="#DC1D47"/>
<stop offset="1" stop-color="#E54327"/>
</linearGradient>
<linearGradient id="paint1_linear_98_389" x1="411.122" y1="343.149" x2="411.122" y2="108.531" gradientUnits="userSpaceOnUse">
<stop stop-color="#DC1D47"/>
<stop offset="1" stop-color="#E54327"/>
</linearGradient>
<linearGradient id="paint2_linear_98_389" x1="270.577" y1="185.267" x2="270.577" y2="86.306" gradientUnits="userSpaceOnUse">
<stop stop-color="#DC1D47"/>
<stop offset="1" stop-color="#E54327"/>
</linearGradient>
<linearGradient id="paint3_linear_98_389" x1="532.863" y1="210.967" x2="532.863" y2="159.22" gradientUnits="userSpaceOnUse">
<stop stop-color="#DC1D47"/>
<stop offset="1" stop-color="#E54327"/>
</linearGradient>
<linearGradient id="paint4_linear_98_389" x1="524.904" y1="170.827" x2="524.904" y2="142.705" gradientUnits="userSpaceOnUse">
<stop stop-color="#DC1D47"/>
<stop offset="1" stop-color="#E54327"/>
</linearGradient>
<linearGradient id="paint5_linear_98_389" x1="548.57" y1="171.301" x2="548.57" y2="142.566" gradientUnits="userSpaceOnUse">
<stop stop-color="#DC1D47"/>
<stop offset="1" stop-color="#E54327"/>
</linearGradient>
<linearGradient id="paint6_linear_98_389" x1="536.572" y1="172.951" x2="536.572" y2="142.06" gradientUnits="userSpaceOnUse">
<stop stop-color="#DC1D47"/>
<stop offset="1" stop-color="#E54327"/>
</linearGradient>
<linearGradient id="paint7_linear_98_389" x1="514.326" y1="173.164" x2="514.326" y2="146.793" gradientUnits="userSpaceOnUse">
<stop stop-color="#DC1D47"/>
<stop offset="1" stop-color="#E54327"/>
</linearGradient>
<linearGradient id="paint8_linear_98_389" x1="553.482" y1="211.026" x2="553.482" y2="159.443" gradientUnits="userSpaceOnUse">
<stop stop-color="#DC1D47"/>
<stop offset="1" stop-color="#E54327"/>
</linearGradient>
<clipPath id="clip0_98_389">
<rect width="600" height="400" fill="white"/>
</clipPath>
</defs>
</svg>