<svg width="64" height="64" viewBox="0 0 64 64" fill="none" xmlns="http://www.w3.org/2000/svg">
<path d="M8.92003 57.6L3.78003 0H60.21L55.07 57.59L31.97 64L8.92003 57.6Z" fill="#435BA9"/>
<path d="M50.67 53.93L55.06 4.70996H32V59.1L50.67 53.93Z" fill="#4767B0"/>
<path d="M15.56 26.07L16.19 33.13H32V26.07H15.56ZM14.93 18.84H32V11.78H14.29L14.93 18.84ZM32 44.42L31.97 44.43L24.1 42.31L23.6 36.68H16.51L17.5 47.77L31.97 51.79L32 51.77V44.42Z" fill="#EBEBEB"/>
<path d="M31.98 26.07V33.13H40.68L39.86 42.29L31.98 44.42V51.77L46.46 47.76L46.57 46.57L48.23 27.97L48.4 26.07L49.68 11.77H31.98V18.83H41.93L41.29 26.06H31.98V26.07Z" fill="white"/>
</svg>
