<svg width="600" height="400" viewBox="0 0 600 400" fill="none" xmlns="http://www.w3.org/2000/svg">
<path d="M501.419 121.62H355.769V214.439H501.419V121.62Z" fill="white"/>
<path d="M501.419 214.92H355.769C355.706 214.92 355.643 214.908 355.585 214.883C355.526 214.859 355.473 214.823 355.428 214.779C355.384 214.734 355.348 214.68 355.324 214.622C355.3 214.563 355.288 214.5 355.288 214.437V121.62C355.288 121.556 355.3 121.494 355.324 121.435C355.348 121.376 355.384 121.323 355.428 121.278C355.473 121.233 355.526 121.198 355.585 121.173C355.643 121.149 355.706 121.137 355.769 121.137H501.419C501.547 121.137 501.669 121.188 501.759 121.279C501.85 121.369 501.9 121.492 501.9 121.62V214.437C501.9 214.565 501.85 214.687 501.759 214.778C501.669 214.868 501.547 214.92 501.419 214.92ZM356.251 213.956H500.936V122.101H356.251V213.956Z" fill="#141414"/>
<path d="M419.088 200.472H373.923C373.795 200.472 373.673 200.421 373.583 200.331C373.492 200.241 373.442 200.119 373.442 199.991V144.918C373.442 144.79 373.492 144.668 373.583 144.578C373.673 144.488 373.795 144.437 373.923 144.437H419.088C419.151 144.437 419.214 144.449 419.272 144.473C419.331 144.497 419.384 144.533 419.429 144.577C419.473 144.622 419.509 144.675 419.533 144.734C419.557 144.792 419.569 144.855 419.569 144.918V200C419.567 200.126 419.516 200.247 419.425 200.335C419.335 200.423 419.214 200.473 419.088 200.472ZM374.406 199.51H418.607V145.395H374.408L374.406 199.51Z" fill="#141414"/>
<path d="M486.201 144.431H431.915V162.216H486.201V144.431Z" fill="#141414"/>
<path d="M486.201 170.155H431.915V199.991H486.201V170.155Z" fill="#141414"/>
<path d="M486.201 133.732H373.925C373.803 133.724 373.688 133.669 373.604 133.58C373.521 133.49 373.474 133.372 373.474 133.249C373.474 133.127 373.521 133.009 373.604 132.919C373.688 132.83 373.803 132.775 373.925 132.767H486.201C486.323 132.775 486.438 132.83 486.521 132.919C486.605 133.009 486.652 133.127 486.652 133.249C486.652 133.372 486.605 133.49 486.521 133.58C486.438 133.669 486.323 133.724 486.201 133.732Z" fill="#141414"/>
<path d="M254.131 0.980865H398.781V92.8005H254.131V0.980865Z" fill="white" stroke="#141414"/>
<path d="M369.859 59.4536C369.796 59.454 369.733 59.4417 369.674 59.4173C369.615 59.3928 369.562 59.3569 369.518 59.3115C369.428 59.2213 369.377 59.0991 369.377 58.9716C369.377 58.8441 369.428 58.7219 369.518 58.6317L380.86 47.294L369.518 35.9585C369.427 35.8683 369.376 35.746 369.376 35.6183C369.376 35.4906 369.427 35.368 369.517 35.2776C369.607 35.1872 369.729 35.1363 369.857 35.136C369.985 35.1358 370.108 35.1864 370.198 35.2765L381.884 46.9552C381.974 47.0454 382.025 47.1676 382.025 47.2951C382.025 47.4226 381.974 47.5448 381.884 47.635L370.198 59.3115C370.154 59.3567 370.101 59.3926 370.043 59.417C369.985 59.4414 369.922 59.4538 369.859 59.4536Z" fill="#141414"/>
<path d="M278.235 59.4536C278.171 59.454 278.108 59.4417 278.05 59.4173C277.991 59.3928 277.938 59.3569 277.893 59.3115L266.205 47.6503C266.115 47.5601 266.064 47.4379 266.064 47.3104C266.064 47.1829 266.115 47.0607 266.205 46.9705L277.891 35.2918C277.982 35.2017 278.104 35.1511 278.232 35.1513C278.36 35.1515 278.482 35.2025 278.573 35.2929C278.663 35.3833 278.713 35.5059 278.713 35.6336C278.713 35.7613 278.662 35.8836 278.571 35.9738L267.229 47.3093L278.571 58.647C278.662 58.7372 278.712 58.8594 278.712 58.9869C278.712 59.1144 278.662 59.2366 278.571 59.3268C278.526 59.369 278.473 59.4019 278.416 59.4236C278.358 59.4454 278.296 59.4556 278.235 59.4536Z" fill="#141414"/>
<path d="M234.8 294.509C239.018 294.509 242.437 291.085 242.437 286.861C242.437 282.637 239.018 279.213 234.8 279.213C230.582 279.213 227.162 282.637 227.162 286.861C227.162 291.085 230.582 294.509 234.8 294.509Z" fill="#141414"/>
<path d="M257.091 294.509C261.309 294.509 264.729 291.085 264.729 286.861C264.729 282.637 261.309 279.213 257.091 279.213C252.873 279.213 249.454 282.637 249.454 286.861C249.454 291.085 252.873 294.509 257.091 294.509Z" fill="#141414"/>
<path d="M279.383 294.509C283.601 294.509 287.02 291.085 287.02 286.861C287.02 282.637 283.601 279.213 279.383 279.213C275.165 279.213 271.745 282.637 271.745 286.861C271.745 291.085 275.165 294.509 279.383 294.509Z" fill="#141414"/>
<path d="M326.455 287.344H295.004C294.881 287.336 294.767 287.282 294.683 287.192C294.599 287.103 294.553 286.985 294.553 286.862C294.553 286.74 294.599 286.622 294.683 286.532C294.767 286.443 294.881 286.389 295.004 286.38H325.974V178.925C325.974 178.797 326.024 178.675 326.115 178.585C326.205 178.494 326.327 178.444 326.455 178.444H355.763C355.885 178.452 356 178.506 356.083 178.596C356.167 178.685 356.214 178.803 356.214 178.926C356.214 179.048 356.167 179.166 356.083 179.256C356 179.345 355.885 179.399 355.763 179.408H326.938V286.861C326.938 286.989 326.887 287.112 326.797 287.203C326.706 287.293 326.583 287.344 326.455 287.344Z" fill="#141414"/>
<path d="M599.108 0.480865H453.459V93.3005H599.108V0.480865Z" fill="white"/>
<path d="M599.108 93.7814H453.459C453.396 93.7817 453.333 93.7695 453.274 93.7454C453.216 93.7213 453.163 93.6859 453.118 93.6412C453.073 93.5965 453.038 93.5434 453.014 93.4849C452.99 93.4264 452.977 93.3638 452.978 93.3005V0.480877C452.978 0.353341 453.028 0.231029 453.119 0.140848C453.209 0.0506664 453.331 0 453.459 0H599.108C599.236 0.000574991 599.358 0.0514244 599.448 0.141481C599.538 0.231539 599.589 0.353518 599.59 0.480877V93.3005C599.59 93.4281 599.539 93.5504 599.449 93.6406C599.358 93.7307 599.236 93.7814 599.108 93.7814ZM453.94 92.8197H598.625V0.963935H453.94V92.8197Z" fill="#141414"/>
<path d="M427.795 122.101C427.667 122.101 427.545 122.05 427.455 121.96C427.364 121.87 427.314 121.747 427.314 121.62V46.0787C427.314 45.9511 427.364 45.8288 427.455 45.7387C427.545 45.6485 427.667 45.5978 427.795 45.5978H453.459C453.581 45.606 453.696 45.6604 453.779 45.7499C453.863 45.8394 453.91 45.9573 453.91 46.0798C453.91 46.2023 453.863 46.3202 453.779 46.4097C453.696 46.4992 453.581 46.5535 453.459 46.5618H428.274V121.62C428.273 121.747 428.223 121.868 428.133 121.958C428.043 122.048 427.922 122.099 427.795 122.101Z" fill="#141414"/>
<path d="M427.806 127.899C431.278 127.894 434.088 125.077 434.083 121.606C434.079 118.136 431.26 115.326 427.789 115.331C424.317 115.336 421.507 118.153 421.512 121.624C421.516 125.095 424.335 127.904 427.806 127.899Z" fill="#141414"/>
<path d="M507.333 15.9919H478.06C477.938 15.9836 477.823 15.9292 477.74 15.8397C477.656 15.7501 477.609 15.6321 477.609 15.5096C477.609 15.387 477.656 15.269 477.74 15.1795C477.823 15.0899 477.938 15.0356 478.06 15.0273H507.333C507.455 15.0356 507.57 15.0899 507.654 15.1795C507.737 15.269 507.784 15.387 507.784 15.5096C507.784 15.6321 507.737 15.7501 507.654 15.8397C507.57 15.9292 507.455 15.9836 507.333 15.9919Z" fill="#141414"/>
<path d="M541.89 15.9919H512.619C512.553 15.9963 512.487 15.9872 512.425 15.9649C512.362 15.9427 512.305 15.9079 512.257 15.8627C512.208 15.8175 512.17 15.7628 512.144 15.7021C512.117 15.6413 512.104 15.5758 512.104 15.5096C512.104 15.4434 512.117 15.3779 512.144 15.3171C512.17 15.2564 512.208 15.2017 512.257 15.1565C512.305 15.1113 512.362 15.0765 512.425 15.0543C512.487 15.0321 512.553 15.0229 512.619 15.0273H541.89C541.956 15.0229 542.023 15.0321 542.085 15.0543C542.147 15.0765 542.204 15.1113 542.253 15.1565C542.301 15.2017 542.34 15.2564 542.366 15.3171C542.392 15.3779 542.406 15.4434 542.406 15.5096C542.406 15.5758 542.392 15.6413 542.366 15.7021C542.34 15.7628 542.301 15.8175 542.253 15.8627C542.204 15.9079 542.147 15.9427 542.085 15.9649C542.023 15.9872 541.956 15.9963 541.89 15.9919Z" fill="#141414"/>
<path d="M567.815 15.9919H547.181C547.059 15.9836 546.944 15.9292 546.86 15.8397C546.777 15.7501 546.73 15.6321 546.73 15.5096C546.73 15.387 546.777 15.269 546.86 15.1795C546.944 15.0899 547.059 15.0356 547.181 15.0273H567.815C567.937 15.0356 568.051 15.0899 568.135 15.1795C568.219 15.269 568.265 15.387 568.265 15.5096C568.265 15.6321 568.219 15.7501 568.135 15.8397C568.051 15.9292 567.937 15.9836 567.815 15.9919Z" fill="#141414"/>
<path d="M503.013 26.0334H478.06C477.932 26.0334 477.81 25.9827 477.72 25.8925C477.63 25.8022 477.579 25.6798 477.579 25.5522C477.579 25.4246 477.63 25.3022 477.72 25.212C477.81 25.1217 477.932 25.071 478.06 25.071H503.013C503.077 25.071 503.139 25.0835 503.198 25.1077C503.256 25.1319 503.309 25.1673 503.354 25.212C503.398 25.2567 503.434 25.3097 503.458 25.3681C503.482 25.4265 503.495 25.489 503.495 25.5522C503.495 25.6154 503.482 25.678 503.458 25.7364C503.434 25.7947 503.398 25.8478 503.354 25.8925C503.309 25.9371 503.256 25.9726 503.198 25.9968C503.139 26.0209 503.077 26.0334 503.013 26.0334Z" fill="#141414"/>
<path d="M533.257 26.0334H508.298C508.17 26.0334 508.048 25.9827 507.957 25.8925C507.867 25.8022 507.816 25.6798 507.816 25.5522C507.816 25.4246 507.867 25.3022 507.957 25.212C508.048 25.1217 508.17 25.071 508.298 25.071H533.257C533.321 25.071 533.383 25.0835 533.442 25.1077C533.5 25.1319 533.553 25.1673 533.598 25.212C533.642 25.2567 533.678 25.3097 533.702 25.3681C533.726 25.4265 533.739 25.489 533.739 25.5522C533.739 25.6154 533.726 25.678 533.702 25.7364C533.678 25.7947 533.642 25.8478 533.598 25.8925C533.553 25.9371 533.5 25.9726 533.442 25.9968C533.383 26.0209 533.321 26.0334 533.257 26.0334Z" fill="#141414"/>
<path d="M576.45 26.0334H538.537C538.474 26.0334 538.412 26.0209 538.353 25.9968C538.295 25.9726 538.242 25.9371 538.197 25.8925C538.152 25.8478 538.117 25.7947 538.093 25.7364C538.069 25.678 538.056 25.6154 538.056 25.5522C538.056 25.489 538.069 25.4265 538.093 25.3681C538.117 25.3097 538.152 25.2567 538.197 25.212C538.242 25.1673 538.295 25.1319 538.353 25.1077C538.412 25.0835 538.474 25.071 538.537 25.071H576.45C576.577 25.071 576.7 25.1217 576.79 25.212C576.88 25.3022 576.931 25.4246 576.931 25.5522C576.931 25.6798 576.88 25.8022 576.79 25.8925C576.7 25.9827 576.577 26.0334 576.45 26.0334Z" fill="#141414"/>
<path d="M498.7 36.0771H478.067C477.944 36.0689 477.83 36.0145 477.746 35.9249C477.662 35.8354 477.616 35.7174 477.616 35.5948C477.616 35.4723 477.662 35.3543 477.746 35.2647C477.83 35.1752 477.944 35.1208 478.067 35.1126H498.7C498.823 35.1208 498.937 35.1752 499.021 35.2647C499.105 35.3543 499.151 35.4723 499.151 35.5948C499.151 35.7174 499.105 35.8354 499.021 35.9249C498.937 36.0145 498.823 36.0689 498.7 36.0771Z" fill="#141414"/>
<path d="M533.257 36.0771H503.98C503.914 36.0816 503.848 36.0724 503.785 36.0502C503.723 36.0279 503.666 35.9932 503.618 35.9479C503.569 35.9027 503.531 35.848 503.504 35.7873C503.478 35.7266 503.464 35.6611 503.464 35.5948C503.464 35.5286 503.478 35.4631 503.504 35.4024C503.531 35.3416 503.569 35.287 503.618 35.2417C503.666 35.1965 503.723 35.1617 503.785 35.1395C503.848 35.1173 503.914 35.1081 503.98 35.1126H533.257C533.324 35.1081 533.39 35.1173 533.452 35.1395C533.515 35.1617 533.572 35.1965 533.62 35.2417C533.668 35.287 533.707 35.3416 533.733 35.4024C533.76 35.4631 533.773 35.5286 533.773 35.5948C533.773 35.6611 533.76 35.7266 533.733 35.7873C533.707 35.848 533.668 35.9027 533.62 35.9479C533.572 35.9932 533.515 36.0279 533.452 36.0502C533.39 36.0724 533.324 36.0816 533.257 36.0771Z" fill="#141414"/>
<path d="M559.171 36.0771H538.537C538.415 36.0689 538.3 36.0145 538.217 35.9249C538.133 35.8354 538.086 35.7174 538.086 35.5948C538.086 35.4723 538.133 35.3543 538.217 35.2647C538.3 35.1752 538.415 35.1208 538.537 35.1126H559.171C559.293 35.1208 559.408 35.1752 559.492 35.2647C559.575 35.3543 559.622 35.4723 559.622 35.5948C559.622 35.7174 559.575 35.8354 559.492 35.9249C559.408 36.0145 559.293 36.0689 559.171 36.0771Z" fill="#141414"/>
<path d="M498.7 56.1623H478.067C477.944 56.1541 477.83 56.0997 477.746 56.0102C477.662 55.9206 477.616 55.8026 477.616 55.6801C477.616 55.5575 477.662 55.4395 477.746 55.35C477.83 55.2604 477.944 55.2061 478.067 55.1978H498.7C498.823 55.2061 498.937 55.2604 499.021 55.35C499.105 55.4395 499.151 55.5575 499.151 55.6801C499.151 55.8026 499.105 55.9206 499.021 56.0102C498.937 56.0997 498.823 56.1541 498.7 56.1623Z" fill="#141414"/>
<path d="M533.257 56.1623H503.98C503.914 56.1668 503.848 56.1576 503.785 56.1354C503.723 56.1132 503.666 56.0784 503.618 56.0332C503.569 55.9879 503.531 55.9333 503.504 55.8725C503.478 55.8118 503.464 55.7463 503.464 55.6801C503.464 55.6139 503.478 55.5484 503.504 55.4876C503.531 55.4269 503.569 55.3722 503.618 55.327C503.666 55.2818 503.723 55.247 503.785 55.2247C503.848 55.2025 503.914 55.1934 503.98 55.1978H533.257C533.324 55.1934 533.39 55.2025 533.452 55.2247C533.515 55.247 533.572 55.2818 533.62 55.327C533.668 55.3722 533.707 55.4269 533.733 55.4876C533.76 55.5484 533.773 55.6139 533.773 55.6801C533.773 55.7463 533.76 55.8118 533.733 55.8725C533.707 55.9333 533.668 55.9879 533.62 56.0332C533.572 56.0784 533.515 56.1132 533.452 56.1354C533.39 56.1576 533.324 56.1668 533.257 56.1623Z" fill="#141414"/>
<path d="M485.735 66.2061H478.06C477.938 66.1978 477.823 66.1434 477.74 66.0539C477.656 65.9644 477.609 65.8464 477.609 65.7238C477.609 65.6012 477.656 65.4832 477.74 65.3937C477.823 65.3041 477.938 65.2498 478.06 65.2415H485.735C485.857 65.2498 485.972 65.3041 486.055 65.3937C486.139 65.4832 486.186 65.6012 486.186 65.7238C486.186 65.8464 486.139 65.9644 486.055 66.0539C485.972 66.1434 485.857 66.1978 485.735 66.2061Z" fill="#141414"/>
<path d="M554.613 66.2061H526.807C526.741 66.2105 526.675 66.2013 526.613 66.1791C526.55 66.1569 526.493 66.1221 526.445 66.0769C526.397 66.0317 526.358 65.977 526.332 65.9162C526.305 65.8555 526.292 65.79 526.292 65.7238C526.292 65.6576 526.305 65.5921 526.332 65.5313C526.358 65.4706 526.397 65.4159 526.445 65.3707C526.493 65.3255 526.55 65.2907 526.613 65.2685C526.675 65.2462 526.741 65.2371 526.807 65.2415H554.613C554.735 65.2498 554.85 65.3041 554.933 65.3937C555.017 65.4832 555.064 65.6012 555.064 65.7238C555.064 65.8464 555.017 65.9644 554.933 66.0539C554.85 66.1434 554.735 66.1978 554.613 66.2061Z" fill="#141414"/>
<path d="M520.775 66.2061H491.03C490.908 66.1978 490.793 66.1434 490.709 66.0539C490.626 65.9644 490.579 65.8464 490.579 65.7238C490.579 65.6012 490.626 65.4832 490.709 65.3937C490.793 65.3041 490.908 65.2498 491.03 65.2415H520.775C520.898 65.2498 521.012 65.3041 521.096 65.3937C521.18 65.4832 521.226 65.6012 521.226 65.7238C521.226 65.8464 521.18 65.9644 521.096 66.0539C521.012 66.1434 520.898 66.1978 520.775 66.2061Z" fill="#141414"/>
<path d="M507.333 76.2476H478.06C477.938 76.2393 477.823 76.1849 477.74 76.0954C477.656 76.0059 477.609 75.8879 477.609 75.7653C477.609 75.6427 477.656 75.5247 477.74 75.4352C477.823 75.3457 477.938 75.2913 478.06 75.283H507.333C507.455 75.2913 507.57 75.3457 507.654 75.4352C507.737 75.5247 507.784 75.6427 507.784 75.7653C507.784 75.8879 507.737 76.0059 507.654 76.0954C507.57 76.1849 507.455 76.2393 507.333 76.2476Z" fill="#141414"/>
<path d="M541.89 76.2476H512.619C512.553 76.252 512.487 76.2428 512.425 76.2206C512.362 76.1984 512.305 76.1636 512.257 76.1184C512.208 76.0732 512.17 76.0185 512.144 75.9577C512.117 75.897 512.104 75.8315 512.104 75.7653C512.104 75.6991 512.117 75.6336 512.144 75.5728C512.17 75.5121 512.208 75.4574 512.257 75.4122C512.305 75.367 512.362 75.3322 512.425 75.31C512.487 75.2877 512.553 75.2786 512.619 75.283H541.89C541.956 75.2786 542.023 75.2877 542.085 75.31C542.147 75.3322 542.204 75.367 542.253 75.4122C542.301 75.4574 542.34 75.5121 542.366 75.5728C542.392 75.6336 542.406 75.6991 542.406 75.7653C542.406 75.8315 542.392 75.897 542.366 75.9577C542.34 76.0185 542.301 76.0732 542.253 76.1184C542.204 76.1636 542.147 76.1984 542.085 76.2206C542.023 76.2428 541.956 76.252 541.89 76.2476Z" fill="#141414"/>
<path d="M576.449 76.2476H547.176C547.054 76.2393 546.94 76.1849 546.856 76.0954C546.772 76.0059 546.726 75.8879 546.726 75.7653C546.726 75.6427 546.772 75.5247 546.856 75.4352C546.94 75.3457 547.054 75.2913 547.176 75.283H576.449C576.572 75.2913 576.686 75.3457 576.77 75.4352C576.854 75.5247 576.9 75.6427 576.9 75.7653C576.9 75.8879 576.854 76.0059 576.77 76.0954C576.686 76.1849 576.572 76.2393 576.449 76.2476Z" fill="#141414"/>
<path d="M355.769 158.402H326.461C326.398 158.402 326.335 158.39 326.277 158.366C326.218 158.342 326.165 158.307 326.121 158.262C326.076 158.217 326.04 158.164 326.016 158.106C325.992 158.047 325.98 157.985 325.98 157.921V96.6711C325.989 96.5488 326.043 96.4343 326.132 96.3507C326.222 96.267 326.34 96.2205 326.463 96.2205C326.585 96.2205 326.703 96.267 326.793 96.3507C326.882 96.4343 326.937 96.5488 326.945 96.6711V157.436H355.769C355.897 157.436 356.019 157.487 356.11 157.577C356.2 157.667 356.251 157.789 356.251 157.917C356.251 158.044 356.2 158.167 356.11 158.257C356.019 158.347 355.897 158.398 355.769 158.398V158.402Z" fill="#141414"/>
<path d="M51.0171 274.122C55.2437 274.122 58.67 270.705 58.67 266.49C58.67 262.274 55.2437 258.857 51.0171 258.857C46.7905 258.857 43.3642 262.274 43.3642 266.49C43.3642 270.705 46.7905 274.122 51.0171 274.122Z" fill="#141414"/>
<path d="M51.0171 296.4C55.2437 296.4 58.67 292.983 58.67 288.767C58.67 284.552 55.2437 281.134 51.0171 281.134C46.7905 281.134 43.3642 284.552 43.3642 288.767C43.3642 292.983 46.7905 296.4 51.0171 296.4Z" fill="#141414"/>
<path d="M51.0171 318.678C55.2437 318.678 58.67 315.26 58.67 311.045C58.67 306.829 55.2437 303.412 51.0171 303.412C46.7905 303.412 43.3642 306.829 43.3642 311.045C43.3642 315.26 46.7905 318.678 51.0171 318.678Z" fill="#141414"/>
<path d="M184.265 354.249H51.0171C50.8893 354.249 50.7667 354.199 50.6761 354.108C50.5855 354.018 50.5343 353.896 50.5338 353.768V326.664C50.542 326.542 50.5964 326.428 50.6859 326.344C50.7755 326.26 50.8935 326.214 51.016 326.214C51.1386 326.214 51.2566 326.26 51.3461 326.344C51.4357 326.428 51.4901 326.542 51.4983 326.664V353.292H184.259C184.381 353.3 184.496 353.354 184.579 353.444C184.663 353.533 184.71 353.651 184.71 353.774C184.71 353.896 184.663 354.014 184.579 354.104C184.496 354.193 184.381 354.247 184.259 354.256L184.265 354.249Z" fill="#141414"/>
<path d="M566.478 252.737C570.705 252.737 574.131 249.319 574.131 245.104C574.131 240.888 570.705 237.471 566.478 237.471C562.252 237.471 558.825 240.888 558.825 245.104C558.825 249.319 562.252 252.737 566.478 252.737Z" fill="#141414"/>
<path d="M566.478 230.459C570.705 230.459 574.131 227.042 574.131 222.826C574.131 218.611 570.705 215.193 566.478 215.193C562.252 215.193 558.825 218.611 558.825 222.826C558.825 227.042 562.252 230.459 566.478 230.459Z" fill="#141414"/>
<path d="M566.478 208.181C570.705 208.181 574.131 204.764 574.131 200.549C574.131 196.333 570.705 192.916 566.478 192.916C562.252 192.916 558.825 196.333 558.825 200.549C558.825 204.764 562.252 208.181 566.478 208.181Z" fill="#141414"/>
<path d="M566.476 185.416C566.348 185.416 566.226 185.366 566.136 185.276C566.046 185.185 565.995 185.063 565.995 184.935V166.975H501.419C501.353 166.979 501.287 166.97 501.224 166.948C501.162 166.926 501.105 166.891 501.056 166.846C501.008 166.801 500.969 166.746 500.943 166.685C500.917 166.625 500.903 166.559 500.903 166.493C500.903 166.427 500.917 166.361 500.943 166.301C500.969 166.24 501.008 166.185 501.056 166.14C501.105 166.095 501.162 166.06 501.224 166.038C501.287 166.016 501.353 166.006 501.419 166.011H566.476C566.604 166.011 566.727 166.062 566.818 166.152C566.908 166.243 566.959 166.366 566.959 166.494V184.935C566.959 184.999 566.947 185.062 566.923 185.12C566.898 185.179 566.863 185.232 566.818 185.276C566.773 185.321 566.719 185.356 566.661 185.38C566.602 185.404 566.539 185.417 566.476 185.416Z" fill="#141414"/>
<path d="M119.414 329.932L95.5648 353.767L119.414 377.601L143.264 353.767L119.414 329.932Z" fill="white"/>
<path d="M119.412 378.083C119.349 378.083 119.286 378.071 119.228 378.047C119.17 378.023 119.117 377.988 119.073 377.943L95.2218 354.098C95.1317 354.008 95.081 353.886 95.081 353.758C95.081 353.631 95.1317 353.509 95.2218 353.418L119.062 329.593C119.152 329.503 119.274 329.453 119.402 329.453C119.529 329.453 119.652 329.503 119.742 329.593L143.593 353.418C143.683 353.509 143.733 353.631 143.733 353.758C143.733 353.886 143.683 354.008 143.593 354.098L119.753 377.943C119.708 377.988 119.655 378.023 119.596 378.047C119.538 378.071 119.475 378.083 119.412 378.083ZM96.2454 353.768L119.412 376.92L142.58 353.768L119.412 330.614L96.2454 353.768Z" fill="#141414"/>
<path d="M329.915 306.312H184.265V399.132H329.915V306.312Z" fill="white"/>
<path d="M329.913 399.613H184.265C184.202 399.613 184.139 399.601 184.081 399.576C184.022 399.552 183.969 399.516 183.924 399.471C183.88 399.427 183.844 399.373 183.82 399.315C183.796 399.256 183.784 399.193 183.784 399.13V306.31C183.784 306.183 183.835 306.06 183.925 305.97C184.015 305.88 184.138 305.829 184.265 305.829H329.913C330.041 305.829 330.163 305.88 330.254 305.97C330.344 306.06 330.396 306.183 330.396 306.31V399.126C330.397 399.189 330.385 399.253 330.361 399.312C330.337 399.371 330.301 399.425 330.256 399.47C330.211 399.515 330.158 399.551 330.099 399.576C330.04 399.6 329.977 399.613 329.913 399.613ZM184.747 398.649H329.432V306.793H184.747V398.649Z" fill="#141414"/>
<path d="M255.742 321.762H202.946V374.525H255.742V321.762Z" fill="#141414"/>
<path d="M311.042 324.169H272.985C272.863 324.161 272.749 324.106 272.665 324.017C272.581 323.927 272.535 323.809 272.535 323.687C272.535 323.564 272.581 323.446 272.665 323.357C272.749 323.267 272.863 323.213 272.985 323.204H311.042C311.164 323.213 311.279 323.267 311.363 323.357C311.446 323.446 311.493 323.564 311.493 323.687C311.493 323.809 311.446 323.927 311.363 324.017C311.279 324.106 311.164 324.161 311.042 324.169Z" fill="#141414"/>
<path d="M311.042 334.597H272.985C272.858 334.597 272.735 334.547 272.645 334.456C272.555 334.366 272.504 334.244 272.504 334.116C272.504 333.989 272.555 333.866 272.645 333.776C272.735 333.686 272.858 333.635 272.985 333.635H311.042C311.17 333.635 311.292 333.686 311.382 333.776C311.472 333.866 311.523 333.989 311.523 334.116C311.523 334.244 311.472 334.366 311.382 334.456C311.292 334.547 311.17 334.597 311.042 334.597Z" fill="#141414"/>
<path d="M311.042 345.028H272.985C272.863 345.02 272.749 344.965 272.665 344.876C272.581 344.786 272.535 344.668 272.535 344.546C272.535 344.423 272.581 344.305 272.665 344.216C272.749 344.126 272.863 344.072 272.985 344.063H311.042C311.164 344.072 311.279 344.126 311.363 344.216C311.446 344.305 311.493 344.423 311.493 344.546C311.493 344.668 311.446 344.786 311.363 344.876C311.279 344.965 311.164 345.02 311.042 345.028Z" fill="#141414"/>
<path d="M155.594 293.961C150.607 293.957 145.825 291.975 142.298 288.45C138.771 284.926 136.788 280.147 136.784 275.163C136.786 274.542 136.821 273.922 136.887 273.305C129.868 271.526 123.142 268.743 116.918 265.043C116.53 265.527 116.116 265.99 115.678 266.431C113.948 268.243 111.872 269.691 109.573 270.69C107.274 271.688 104.799 272.218 102.293 272.247C99.7861 272.277 97.2991 271.805 94.9776 270.86C92.6561 269.915 90.5471 268.516 88.7743 266.745C87.0016 264.974 85.6009 262.867 84.6547 260.547C83.7084 258.227 83.2357 255.742 83.2642 253.237C83.2927 250.732 83.8219 248.258 84.8206 245.961C85.8194 243.663 87.2677 241.588 89.0803 239.858C89.5204 239.42 89.9841 239.006 90.4691 238.619C86.765 232.401 83.9789 225.682 82.1973 218.669C81.5798 218.735 80.9592 218.77 80.3382 218.772C77.821 218.848 75.3139 218.419 72.9658 217.509C70.6177 216.6 68.4763 215.228 66.6686 213.476C64.8608 211.723 63.4236 209.626 62.4422 207.308C61.4607 204.99 60.955 202.499 60.955 199.982C60.955 197.466 61.4607 194.974 62.4422 192.657C63.4236 190.339 64.8608 188.242 66.6686 186.489C68.4763 184.737 70.6177 183.365 72.9658 182.456C75.3139 181.546 77.821 181.117 80.3382 181.193C80.9592 181.195 81.5798 181.23 82.1973 181.296C83.9788 174.284 86.7649 167.565 90.4691 161.349C89.9846 160.96 89.521 160.547 89.0803 160.109C87.2425 158.385 85.7703 156.309 84.7511 154.005C83.7319 151.701 83.1866 149.215 83.1474 146.696C83.1083 144.178 83.5762 141.676 84.5234 139.342C85.4705 137.007 86.8776 134.887 88.661 133.106C90.4443 131.326 92.5676 129.922 94.9046 128.977C97.2416 128.033 99.7447 127.568 102.265 127.61C104.786 127.651 107.272 128.199 109.577 129.219C111.881 130.24 113.957 131.714 115.681 133.552C116.118 133.992 116.532 134.455 116.921 134.938C123.144 131.237 129.87 128.454 136.889 126.675C136.823 126.058 136.788 125.438 136.787 124.817C136.787 119.832 138.768 115.051 142.296 111.525C145.823 108 150.608 106.02 155.596 106.02C160.585 106.02 165.369 108 168.897 111.525C172.424 115.051 174.406 119.832 174.406 124.817C174.404 125.438 174.369 126.058 174.301 126.675C181.32 128.454 188.046 131.237 194.27 134.938C194.66 134.455 195.075 133.993 195.512 133.552C197.243 131.74 199.318 130.292 201.617 129.293C203.916 128.294 206.391 127.764 208.898 127.735C211.404 127.706 213.891 128.177 216.213 129.122C218.534 130.067 220.643 131.466 222.416 133.237C224.189 135.008 225.589 137.116 226.535 139.435C227.482 141.755 227.954 144.24 227.926 146.745C227.897 149.25 227.368 151.724 226.37 154.022C225.371 156.319 223.922 158.394 222.11 160.125C221.669 160.561 221.205 160.975 220.721 161.364C224.425 167.58 227.211 174.299 228.993 181.311C229.61 181.245 230.231 181.211 230.852 181.209C233.369 181.132 235.876 181.561 238.224 182.471C240.572 183.381 242.714 184.752 244.522 186.505C246.329 188.257 247.767 190.354 248.748 192.672C249.729 194.99 250.235 197.481 250.235 199.998C250.235 202.515 249.729 205.006 248.748 207.324C247.767 209.641 246.329 211.739 244.522 213.491C242.714 215.243 240.572 216.615 238.224 217.525C235.876 218.434 233.369 218.864 230.852 218.787C230.231 218.785 229.61 218.751 228.993 218.684C227.211 225.697 224.425 232.416 220.721 238.634C221.206 239.022 221.669 239.436 222.11 239.873C223.905 241.608 225.336 243.682 226.32 245.976C227.304 248.269 227.822 250.735 227.842 253.23C227.863 255.726 227.386 258.2 226.44 260.509C225.494 262.818 224.097 264.916 222.331 266.68C220.565 268.444 218.465 269.839 216.154 270.784C213.843 271.729 211.367 272.204 208.871 272.182C206.374 272.161 203.906 271.643 201.612 270.658C199.318 269.674 197.243 268.242 195.507 266.448C195.069 266.008 194.654 265.546 194.265 265.062C188.042 268.763 181.316 271.546 174.296 273.325C174.365 273.942 174.4 274.562 174.401 275.182C174.392 280.163 172.407 284.937 168.882 288.457C165.356 291.977 160.578 293.956 155.594 293.961ZM116.809 263.941C116.896 263.941 116.982 263.965 117.056 264.011C123.419 267.843 130.321 270.698 137.532 272.483C137.646 272.511 137.746 272.58 137.813 272.677C137.879 272.773 137.908 272.891 137.893 273.008C137.802 273.725 137.754 274.448 137.749 275.172C137.733 277.614 138.22 280.034 139.179 282.282C140.138 284.529 141.549 286.555 143.323 288.235C145.098 289.914 147.2 291.212 149.497 292.046C151.794 292.881 154.239 293.235 156.679 293.086C159.119 292.938 161.502 292.29 163.681 291.183C165.86 290.076 167.788 288.533 169.346 286.65C170.904 284.768 172.058 282.585 172.737 280.238C173.416 277.892 173.605 275.431 173.292 273.008C173.279 272.891 173.308 272.773 173.375 272.677C173.442 272.58 173.542 272.511 173.656 272.483C180.867 270.698 187.769 267.843 194.132 264.011C194.232 263.95 194.352 263.929 194.467 263.95C194.583 263.97 194.686 264.033 194.759 264.125C195.201 264.698 195.678 265.243 196.188 265.757C199.533 269.102 204.071 270.981 208.802 270.982C213.534 270.983 218.072 269.105 221.419 265.762C224.765 262.419 226.646 257.884 226.646 253.155C226.647 248.426 224.768 243.891 221.423 240.546C220.908 240.038 220.363 239.561 219.789 239.119C219.697 239.046 219.634 238.943 219.613 238.827C219.592 238.712 219.613 238.593 219.673 238.492C223.51 232.136 226.369 225.24 228.155 218.035C228.185 217.922 228.255 217.823 228.352 217.757C228.449 217.691 228.566 217.661 228.682 217.674C229.401 217.766 230.124 217.814 230.848 217.819C233.291 217.834 235.712 217.348 237.959 216.39C240.207 215.432 242.234 214.022 243.914 212.249C245.594 210.476 246.892 208.377 247.727 206.082C248.561 203.787 248.915 201.345 248.767 198.907C248.618 196.47 247.97 194.089 246.862 191.912C245.755 189.735 244.212 187.809 242.329 186.253C240.446 184.697 238.263 183.544 235.915 182.865C233.568 182.187 231.106 181.998 228.682 182.31C228.565 182.324 228.448 182.294 228.351 182.227C228.254 182.161 228.185 182.061 228.155 181.948C226.368 174.744 223.509 167.848 219.673 161.493C219.613 161.392 219.592 161.272 219.613 161.156C219.635 161.041 219.697 160.937 219.789 160.863C221.781 159.312 223.419 157.355 224.596 155.122C225.774 152.89 226.462 150.432 226.617 147.914C226.771 145.395 226.388 142.872 225.493 140.512C224.597 138.153 223.21 136.01 221.423 134.227C218.074 130.888 213.536 129.013 208.805 129.013C204.075 129.013 199.537 130.888 196.188 134.227C195.678 134.74 195.201 135.285 194.759 135.858C194.687 135.95 194.583 136.013 194.467 136.034C194.352 136.055 194.233 136.034 194.132 135.974C187.769 132.142 180.867 129.286 173.656 127.502C173.541 127.473 173.441 127.404 173.374 127.307C173.307 127.21 173.278 127.092 173.292 126.975C173.59 124.56 173.389 122.109 172.703 119.775C172.017 117.44 170.859 115.27 169.303 113.399C167.746 111.528 165.822 109.996 163.65 108.896C161.478 107.796 159.104 107.152 156.673 107.004C154.243 106.856 151.808 107.207 149.518 108.035C147.229 108.863 145.133 110.15 143.36 111.818C141.587 113.486 140.175 115.499 139.21 117.733C138.245 119.967 137.748 122.375 137.749 124.809C137.754 125.532 137.802 126.255 137.893 126.973C137.908 127.089 137.879 127.207 137.813 127.305C137.746 127.402 137.647 127.471 137.532 127.499C130.321 129.284 123.419 132.14 117.056 135.972C116.955 136.032 116.836 136.053 116.721 136.032C116.605 136.011 116.501 135.948 116.429 135.856C115.986 135.283 115.509 134.739 115 134.225C113.28 132.501 111.225 131.147 108.961 130.246C106.697 129.346 104.272 128.919 101.837 128.991C99.4012 129.063 97.0064 129.633 94.7997 130.666C92.5931 131.699 90.6216 133.172 89.0066 134.995C87.3916 136.819 86.1675 138.953 85.4097 141.268C84.6519 143.582 84.3764 146.027 84.6004 148.451C84.8243 150.876 85.5428 153.229 86.7117 155.366C87.8805 157.503 89.4749 159.377 91.3965 160.874C91.4897 160.947 91.5531 161.051 91.5744 161.167C91.5958 161.283 91.5737 161.403 91.5124 161.504C87.6775 167.859 84.8191 174.755 83.0328 181.958C83.0043 182.073 82.935 182.173 82.8379 182.24C82.7408 182.306 82.6227 182.335 82.5057 182.321C80.0898 182.024 77.6386 182.225 75.3032 182.91C72.9678 183.596 70.7975 184.752 68.9261 186.307C67.0547 187.863 65.5217 189.785 64.4216 191.955C63.3215 194.125 62.6776 196.497 62.5296 198.925C62.3815 201.353 62.7324 203.785 63.5607 206.073C64.389 208.36 65.6771 210.454 67.3456 212.225C69.0142 213.996 71.0279 215.407 73.2628 216.371C75.4976 217.335 77.9063 217.831 80.3404 217.829C81.0644 217.825 81.7874 217.776 82.5057 217.685C82.6222 217.672 82.7397 217.701 82.8365 217.767C82.9333 217.834 83.003 217.932 83.0328 218.046C84.8192 225.25 87.6776 232.146 91.5124 238.503C91.5736 238.603 91.5956 238.723 91.5742 238.838C91.5528 238.954 91.4896 239.058 91.3965 239.13C89.48 240.628 87.8907 242.503 86.7263 244.638C85.5619 246.774 84.847 249.124 84.6257 251.546C84.4044 253.968 84.6812 256.409 85.4393 258.72C86.1974 261.031 87.4206 263.162 89.0337 264.982C90.6468 266.803 92.6156 268.275 94.8191 269.306C97.0225 270.338 99.4138 270.908 101.846 270.982C104.278 271.056 106.7 270.631 108.962 269.734C111.223 268.838 113.278 267.488 114.998 265.768C115.508 265.254 115.986 264.709 116.429 264.135C116.473 264.076 116.53 264.028 116.596 263.994C116.662 263.961 116.735 263.942 116.809 263.941ZM155.594 257.996C123.578 257.996 97.5336 231.985 97.5336 199.991C97.5336 167.998 123.578 141.987 155.594 141.987C187.61 141.987 213.654 168.009 213.654 199.991C213.654 231.974 187.607 257.996 155.594 257.996ZM155.594 142.951C124.11 142.951 98.496 168.54 98.496 200C98.496 231.46 124.11 257.049 155.594 257.049C187.078 257.049 212.679 231.46 212.679 200C212.679 168.54 187.078 142.951 155.594 142.951Z" fill="#141414"/>
<path d="M139.033 33.5912C138.132 30.8896 136.299 28.4175 133.729 27.1869C131.159 25.9563 127.843 26.1617 125.713 28.0612C124.243 29.3727 123.46 31.2918 123.13 33.2262C122.614 36.2579 123.143 39.5169 124.895 42.0459C126.647 44.5748 129.678 46.2557 132.749 46.0743C139.704 45.6546 140.828 38.9836 139.033 33.5912Z" fill="#141414"/>
<path d="M184.322 64.9486C183.87 61.9672 183.421 58.8808 184.202 55.9672C184.878 53.447 186.45 51.1453 186.527 48.5355C186.61 45.694 184.832 43.071 182.524 41.4448C180.217 39.8185 177.431 39.071 174.681 38.4808C168.232 37.0991 161.643 36.4792 155.049 36.6339C149.861 36.7584 144.391 37.4776 140.282 40.6776C136.172 43.8776 134.134 48.9442 132.524 53.8798C127.791 68.4 125.545 83.6065 123.318 98.7256C122.951 101.211 122.601 103.843 123.559 106.157C124.912 109.436 128.447 111.148 131.76 112.341C145.758 117.386 160.942 118.319 175.786 117.401C179.399 117.182 183.159 116.798 186.232 114.868C193.403 110.363 189.648 100.059 188.638 93.3377C187.197 83.8761 185.759 74.4131 184.322 64.9486Z" fill="#141414"/>
<path d="M279.718 78.6618L279.717 78.6606C278.965 77.3327 278.249 75.9903 277.55 74.6275C277.815 74.2343 278.082 73.84 278.348 73.4447C288.155 58.9163 298.873 43.0373 307.267 34.3675C310.947 30.5681 313.506 28.5287 315.186 27.6865C316.033 27.2616 316.575 27.1838 316.893 27.25C317.151 27.3038 317.338 27.4695 317.447 27.8563C317.565 28.2703 317.569 28.8798 317.44 29.6594C317.312 30.4288 317.062 31.3206 316.712 32.2751C316.011 34.1842 314.924 36.3021 313.68 38.127L312.658 39.6264L314.303 38.8626L314.303 38.8625L314.303 38.8624L314.304 38.8622L314.304 38.8619L314.314 38.8576C314.323 38.8535 314.338 38.847 314.358 38.8385C314.398 38.8215 314.459 38.7965 314.539 38.7664C314.698 38.7063 314.929 38.6266 315.212 38.5511C315.781 38.3992 316.537 38.27 317.32 38.3388C318.097 38.407 318.889 38.6683 319.565 39.2874C320.242 39.9076 320.847 40.927 321.177 42.591L321.248 42.951L321.611 42.9908L321.611 42.9908L321.612 42.9909L321.612 42.9909L321.613 42.991L321.616 42.9914C321.621 42.9921 321.631 42.9934 321.644 42.9954C321.671 42.9995 321.712 43.0064 321.767 43.0174C321.875 43.0394 322.033 43.0771 322.219 43.139C322.594 43.2635 323.071 43.4811 323.503 43.852C323.93 44.2188 324.32 44.741 324.527 45.4957C324.735 46.2547 324.765 47.2799 324.419 48.6609L324.333 49.0066L324.629 49.2L324.629 49.2001L324.629 49.2002L324.63 49.2006L324.63 49.2009L324.631 49.2013L324.635 49.204C324.641 49.2081 324.651 49.2155 324.666 49.226C324.694 49.2472 324.739 49.2811 324.794 49.3275C324.904 49.4207 325.055 49.5626 325.212 49.7519C325.526 50.1311 325.851 50.6872 325.929 51.4181C326.083 52.8525 325.297 55.2447 320.714 58.5519L320.576 58.6516L320.527 58.8149L321.007 58.9574C320.527 58.8149 320.527 58.815 320.527 58.8151L320.527 58.8158L320.526 58.8186L320.523 58.8302L320.509 58.877C320.496 58.9187 320.477 58.9812 320.452 59.0638C320.402 59.229 320.326 59.4747 320.226 59.7954C320.026 60.4369 319.726 61.3787 319.33 62.5781C318.538 64.9769 317.361 68.4055 315.821 72.5215C312.783 80.6417 308.335 91.4309 302.65 102.264C302.165 101.991 301.682 101.712 301.201 101.428L301.2 101.427C298.897 100.072 296.694 98.5569 294.605 96.8921C292.503 95.1678 290.538 93.282 288.73 91.2521L288.729 91.2513C285.279 87.3931 282.257 83.1718 279.718 78.6618Z" fill="white" stroke="#141414"/>
<path d="M155.594 257.515C163.555 257.524 171.431 255.879 178.721 252.684C186.012 249.489 192.559 244.815 197.946 238.957L196.872 192.092C195.991 189.571 194.334 187.394 192.139 185.871C189.944 184.348 187.324 183.558 184.653 183.613L138.862 184.566C136.275 184.621 133.766 185.466 131.673 186.988C129.58 188.51 128.004 190.636 127.157 193.08C125.914 196.656 118.143 214.938 109.762 234.828C115.132 241.888 122.064 247.609 130.015 251.545C137.966 255.481 146.721 257.524 155.594 257.515Z" fill="#141414"/>
<path d="M197.535 239C197.41 239.001 197.29 238.953 197.201 238.869C197.112 238.784 197.061 238.669 197.058 238.548L196 193.475C195.998 193.414 196.009 193.354 196.032 193.297C196.054 193.24 196.088 193.188 196.131 193.144C196.174 193.099 196.226 193.064 196.284 193.039C196.341 193.015 196.403 193.001 196.465 193C196.59 193 196.71 193.048 196.799 193.132C196.888 193.217 196.939 193.333 196.942 193.454L198 238.527C198.001 238.588 197.99 238.648 197.968 238.705C197.945 238.761 197.911 238.813 197.868 238.857C197.825 238.901 197.773 238.936 197.716 238.961C197.659 238.985 197.597 238.999 197.535 239Z" fill="#141414"/>
<path d="M34.4756 149.401C34.4756 149.401 53.5914 185.574 82.6828 184.737C111.774 183.899 124.302 157.939 124.302 157.939C124.302 157.939 115.691 184.319 125.199 191.381C134.707 198.444 203.265 205.246 208.027 183.607C211.428 168.153 208.617 157.902 210.371 145.618C210.371 145.618 257.859 151.403 281.642 133.274C296.716 121.786 307.669 94.1661 307.669 94.1661C307.669 94.1661 297.941 73.4252 278.287 72.6667L267.57 87.6874C264.631 91.8111 260.771 95.1936 256.296 97.5668C251.821 99.94 246.854 101.239 241.79 101.36L126.498 104.133C114.561 104.42 103.435 110.389 96.7528 120.273C89.3974 131.132 77.5474 143.375 62.1432 141.661L34.4756 149.401Z" fill="url(#paint0_linear_102_397)"/>
<path d="M77.5977 157.939H33.0758C32.6096 157.939 32.1527 157.809 31.7562 157.564C31.3598 157.319 31.0397 156.968 30.8318 156.551L0.266251 95.2131C0.0743396 94.8309 -0.0164728 94.406 0.00245375 93.9788C0.0213803 93.5516 0.149415 93.1363 0.374374 92.7726C0.599333 92.4089 0.913725 92.1087 1.2876 91.9008C1.66148 91.6928 2.0824 91.584 2.51028 91.5847H47.0321C47.498 91.5847 47.9546 91.7147 48.3506 91.9598C48.7467 92.205 49.0664 92.5558 49.2739 92.9726L79.8417 154.317C80.0321 154.699 80.1217 155.123 80.102 155.549C80.0823 155.976 79.954 156.39 79.7292 156.753C79.5044 157.115 79.1906 157.415 78.8176 157.622C78.4446 157.83 78.0246 157.939 77.5977 157.939Z" fill="#141414"/>
<path d="M28.2422 121.403C27.2142 120.966 26.171 121.963 25.5476 122.887C23.8425 125.414 22.6313 128.241 21.9782 131.217C22.49 125.68 23.0003 120.143 23.5092 114.605C23.6732 112.826 23.4217 110.452 21.6654 110.101C20.3072 109.834 19.1633 111.102 18.4569 112.286C17.0085 114.73 16.0364 117.426 15.5917 120.232L17.5601 108.761C17.7132 107.886 17.8554 106.92 17.4551 106.116C16.6 104.396 13.8004 104.71 12.6303 106.234C12.4573 106.462 12.3065 106.705 12.1797 106.962C12.2431 106.702 12.3022 106.439 12.3525 106.179C12.6981 104.308 12.1338 101.891 10.2791 101.458C9.12643 101.187 7.91475 101.862 7.21704 102.824C6.51934 103.786 6.26782 104.981 6.08628 106.151C5.30281 111.236 5.70855 116.433 7.27172 121.335C10.1303 132.793 18.0785 143.178 27.6342 150.127C25.2283 141.602 29.0361 132.791 29.2789 123.95C29.3095 122.979 29.1433 121.779 28.2422 121.403Z" fill="white"/>
<path d="M27.6364 150.619C27.535 150.619 27.4361 150.587 27.3542 150.527C17.0308 143.023 9.542 132.428 6.80586 121.456C5.22703 116.491 4.81832 111.228 5.61168 106.079C5.80196 104.861 6.08192 103.591 6.82774 102.546C7.57356 101.502 8.93835 100.649 10.3819 100.99C12.1316 101.399 12.9693 103.34 12.9212 105.279C13.7167 104.686 14.7017 104.406 15.6901 104.49C16.6984 104.588 17.4748 105.091 17.8773 105.904C18.3628 106.881 18.1682 108.015 18.0238 108.844L17.2167 113.543C17.4705 113.032 17.7424 112.532 18.0326 112.044C19.1108 110.225 20.4384 109.366 21.7507 109.626C23.4064 109.952 24.2397 111.827 23.9794 114.654L22.8552 126.842C23.4778 125.365 24.2425 123.952 25.1386 122.623C26.1382 121.145 27.3652 120.527 28.4194 120.962C29.0624 121.231 29.8192 121.972 29.7645 123.978C29.6726 127.257 29.0952 130.562 28.5353 133.755C27.5467 139.397 26.6128 144.726 28.0979 150.011C28.1177 150.082 28.1208 150.158 28.1068 150.231C28.0929 150.304 28.0623 150.372 28.0174 150.431C27.9726 150.491 27.9147 150.539 27.8482 150.572C27.7817 150.605 27.7085 150.623 27.6342 150.623L27.6364 150.619ZM9.7476 101.889C8.88586 101.889 8.06349 102.483 7.61074 103.115C6.98084 103.989 6.73588 105.134 6.56309 106.236C5.79364 111.248 6.19412 116.37 7.73322 121.202C10.3272 131.598 17.2627 141.635 26.8512 148.962C25.7839 143.878 26.6981 138.658 27.5861 133.596C28.1394 130.435 28.7125 127.167 28.7999 123.958C28.8218 123.152 28.7103 122.133 28.0497 121.858C27.3433 121.567 26.4969 122.343 25.937 123.169C24.2694 125.648 23.0824 128.417 22.4375 131.333C22.4181 131.459 22.3493 131.573 22.2464 131.648C22.1434 131.723 22.0147 131.755 21.8885 131.736C21.7624 131.716 21.6491 131.647 21.5736 131.544C21.4981 131.442 21.4666 131.313 21.4861 131.187L23.0171 114.575C23.074 113.967 23.2664 110.92 21.5626 110.586C20.3225 110.337 19.2596 111.878 18.8615 112.553C17.5435 114.781 16.6263 117.222 16.1516 119.766L16.0554 120.332C16.0345 120.458 15.9643 120.571 15.8604 120.645C15.7564 120.72 15.6271 120.75 15.5009 120.729C15.3748 120.708 15.262 120.638 15.1876 120.534C15.1132 120.43 15.0831 120.301 15.1039 120.175C15.1346 119.983 15.1674 119.79 15.2024 119.598L17.0877 108.691C17.243 107.786 17.3458 106.984 17.0265 106.341C16.8842 106.086 16.679 105.872 16.4306 105.719C16.1821 105.566 15.8986 105.479 15.607 105.467C15.1198 105.425 14.6298 105.502 14.1786 105.691C13.7274 105.879 13.3283 106.173 13.0152 106.549C12.8597 106.754 12.7242 106.973 12.6106 107.204C12.5576 107.311 12.4671 107.394 12.3565 107.438C12.2458 107.481 12.1229 107.482 12.0115 107.441C11.9 107.399 11.8079 107.318 11.753 107.213C11.698 107.107 11.6841 106.985 11.7139 106.87C11.7751 106.619 11.8341 106.367 11.8801 106.114C12.1578 104.616 11.8123 102.334 10.1719 101.961C10.0338 101.92 9.8914 101.896 9.7476 101.889Z" fill="#141414"/>
<path d="M9.87007 121.838C9.7521 121.839 9.63813 121.795 9.54983 121.717C9.46152 121.639 9.40502 121.531 9.39108 121.414C8.84524 116.766 9.51676 112.057 11.3398 107.746C11.3894 107.629 11.4838 107.536 11.6021 107.487C11.7205 107.439 11.8531 107.44 11.9708 107.49C12.0886 107.539 12.1818 107.633 12.23 107.752C12.2782 107.87 12.2774 108.003 12.2278 108.12C10.4704 112.277 9.82302 116.819 10.3491 121.301C10.3639 121.427 10.3278 121.555 10.2487 121.655C10.1695 121.756 10.0539 121.821 9.92694 121.836L9.87007 121.838Z" fill="#141414"/>
<path d="M15.7754 129.801C15.6631 129.801 15.5544 129.761 15.4681 129.69C15.3818 129.618 15.3234 129.518 15.303 129.408C14.8004 126.732 14.7163 123.995 15.0536 121.294C15.0693 121.167 15.1347 121.052 15.2354 120.974C15.3361 120.895 15.4638 120.86 15.5906 120.875C15.7173 120.891 15.8327 120.956 15.9112 121.057C15.9898 121.158 16.0251 121.285 16.0094 121.412C15.6856 124.015 15.7668 126.652 16.25 129.231C16.2731 129.356 16.2455 129.486 16.1734 129.591C16.1013 129.696 15.9904 129.768 15.8651 129.792C15.8356 129.798 15.8055 129.801 15.7754 129.801Z" fill="#141414"/>
<path d="M154.409 75.8316L151.038 100.153C150.951 100.782 150.664 101.367 150.219 101.822C149.775 102.276 149.196 102.576 148.569 102.678L141.052 103.888C141.052 103.888 161.298 121.705 181.545 103.093L173.763 102.205C172.998 102.118 172.293 101.749 171.785 101.17C171.277 100.591 171.003 99.8448 171.016 99.0754L171.35 79.0426C171.35 79.0426 169.598 65.777 154.409 75.8316Z" fill="white"/>
<path d="M149.12 69.5082C147.722 70.6011 147.088 72.5224 147.396 74.2689C147.705 76.0153 148.882 77.5475 150.406 78.4568C151.959 79.3419 153.753 79.7137 155.531 79.5191C156.504 79.4295 157.519 79.2044 158.437 79.541C159.148 79.8033 159.697 80.365 160.27 80.8525C162.978 83.1934 166.783 84.247 170.289 83.5147C173.796 82.7825 176.895 80.2361 178.194 76.9071C179.266 74.1552 179.121 71.0776 178.649 68.1639C177.746 62.5792 175.72 57.235 173.4 52.0809C169.336 53.0237 165.117 53.0878 161.027 52.2688C161.993 55.106 162.03 58.1771 161.13 61.0363C160.231 63.8954 158.444 66.3937 156.027 68.1683C155.611 68.4765 154.955 69.0798 154.441 69.1891C153.798 69.3268 153.396 68.8984 152.729 68.7344C152.108 68.5873 151.461 68.5803 150.837 68.7142C150.213 68.848 149.626 69.1193 149.12 69.5082Z" fill="white"/>
<path d="M168.063 84.2251C165.089 84.2158 162.215 83.1497 159.955 81.2175C159.859 81.1344 159.761 81.0492 159.664 80.9617C159.209 80.5574 158.778 80.1727 158.271 79.9869C157.637 79.753 156.913 79.8382 156.147 79.93C155.955 79.9519 155.765 79.9738 155.574 79.9913C153.695 80.1931 151.8 79.7993 150.157 78.8656C148.451 77.8448 147.241 76.1552 146.922 74.3454C146.574 72.3781 147.337 70.2798 148.823 69.1213C149.387 68.691 150.039 68.3912 150.733 68.2434C151.427 68.0956 152.145 68.1036 152.836 68.2667C153.088 68.333 153.333 68.4245 153.566 68.5399C153.901 68.6929 154.089 68.7585 154.332 68.7169C154.625 68.6557 155.087 68.2798 155.426 68.0219L155.734 67.7814C157.746 66.2986 159.314 64.2941 160.268 61.9847C161.501 58.9345 161.607 55.5449 160.565 52.424C160.538 52.3436 160.533 52.2576 160.549 52.1744C160.566 52.0912 160.604 52.0138 160.659 51.9497C160.715 51.8863 160.787 51.8387 160.867 51.8119C160.948 51.785 161.034 51.7798 161.117 51.7967C165.139 52.6 169.287 52.5366 173.284 51.6109C173.392 51.5854 173.507 51.5985 173.607 51.6479C173.707 51.6974 173.787 51.7801 173.833 51.882C175.773 56.177 178.126 61.9016 179.128 68.0852C179.508 70.4415 179.871 73.9366 178.644 77.0841C177.31 80.5093 174.071 83.2197 170.39 83.9891C169.625 84.1476 168.845 84.2268 168.063 84.2251ZM157.304 78.8721C157.747 78.8671 158.187 78.9411 158.604 79.0907C159.282 79.3399 159.802 79.8055 160.307 80.2535L160.585 80.4984C163.21 82.765 166.884 83.7421 170.191 83.0557C173.561 82.3497 176.534 79.8732 177.746 76.7453C178.887 73.8142 178.535 70.4918 178.183 68.2492C177.227 62.3475 175.005 56.8437 173.122 52.6448C169.374 53.46 165.503 53.5454 161.722 52.8962C162.577 56.0263 162.381 59.3503 161.165 62.3585C160.145 64.8301 158.468 66.9759 156.316 68.5639C156.23 68.6273 156.134 68.7038 156.031 68.7825C155.594 69.1279 155.056 69.5563 154.542 69.6568C153.975 69.7792 153.551 69.5847 153.175 69.4142C152.996 69.3231 152.808 69.2499 152.615 69.1956C152.066 69.066 151.495 69.0596 150.943 69.1767C150.392 69.2939 149.873 69.5318 149.424 69.8732C148.214 70.8197 147.593 72.5464 147.88 74.1705C148.151 75.7005 149.192 77.1541 150.662 78.0306C152.128 78.8606 153.818 79.2093 155.493 79.0273C155.677 79.0098 155.859 78.988 156.042 78.9661C156.461 78.91 156.882 78.8786 157.304 78.8721Z" fill="#141414"/>
<path d="M155.439 77.0841C155.356 77.0848 155.274 77.0639 155.201 77.0232C155.129 76.9826 155.068 76.9237 155.025 76.8524C154.694 76.3223 154.24 75.8805 153.7 75.5649C153.161 75.2492 152.553 75.0693 151.928 75.0404C151.865 75.0381 151.803 75.0234 151.745 74.9972C151.688 74.9709 151.636 74.9336 151.593 74.8873C151.55 74.841 151.517 74.7867 151.494 74.7274C151.472 74.6682 151.462 74.6052 151.465 74.542C151.466 74.4788 151.48 74.4165 151.506 74.3587C151.532 74.301 151.569 74.249 151.615 74.2058C151.661 74.1626 151.716 74.1291 151.775 74.1073C151.835 74.0855 151.898 74.0757 151.961 74.0786C152.747 74.1092 153.512 74.3329 154.191 74.7298C154.869 75.1267 155.439 75.6845 155.85 76.3541C155.894 76.427 155.918 76.5103 155.919 76.5955C155.921 76.6808 155.899 76.7648 155.858 76.8391C155.816 76.9134 155.755 76.9752 155.681 77.0183C155.608 77.0613 155.524 77.084 155.439 77.0841Z" fill="#141414"/>
<path d="M109.769 235.298C109.704 235.299 109.64 235.286 109.581 235.261C109.463 235.211 109.369 235.117 109.321 234.999C109.272 234.88 109.273 234.747 109.322 234.629L113.356 225.078C119.963 209.421 125.671 195.897 126.697 192.922C126.739 192.802 126.827 192.703 126.942 192.647C127.057 192.591 127.189 192.583 127.31 192.625C127.43 192.667 127.529 192.755 127.585 192.87C127.641 192.984 127.649 193.117 127.607 193.237C126.564 196.245 120.849 209.779 114.233 225.451L110.204 235.005C110.167 235.091 110.107 235.164 110.029 235.216C109.952 235.268 109.862 235.297 109.769 235.298Z" fill="#141414"/>
<path d="M155.594 257.996C123.578 257.996 97.5336 231.985 97.5336 199.991C97.5336 199.864 97.5843 199.741 97.6746 199.651C97.7648 199.561 97.8872 199.51 98.0148 199.51C98.1424 199.51 98.2648 199.561 98.355 199.651C98.4453 199.741 98.496 199.864 98.496 199.991C98.496 231.445 124.11 257.04 155.594 257.04C187.078 257.04 212.679 231.451 212.679 199.991C212.687 199.869 212.741 199.754 212.831 199.671C212.921 199.587 213.039 199.541 213.161 199.541C213.284 199.541 213.402 199.587 213.491 199.671C213.581 199.754 213.635 199.869 213.643 199.991C213.654 231.976 187.607 257.996 155.594 257.996Z" fill="#141414"/>
<path d="M37.2292 80.7934C37.1654 80.7939 37.1021 80.7816 37.0431 80.7572C36.9842 80.7328 36.9307 80.6968 36.8859 80.6513C36.7962 80.5609 36.746 80.4388 36.746 80.3115C36.746 80.1842 36.7962 80.062 36.8859 79.9716L64.864 52.212C64.9548 52.1222 65.0776 52.072 65.2053 52.0726C65.3331 52.0733 65.4554 52.1246 65.5453 52.2153C65.6352 52.306 65.6854 52.4287 65.6848 52.5564C65.6842 52.6841 65.6328 52.8063 65.542 52.8962L37.5683 80.6557C37.4777 80.7443 37.3559 80.7937 37.2292 80.7934Z" fill="#141414"/>
<path d="M65.2052 80.7934C65.1106 80.7938 65.0179 80.7663 64.9388 80.7143C64.8597 80.6623 64.7977 80.5882 64.7606 80.5011C64.7235 80.4141 64.7129 80.3181 64.7301 80.225C64.7473 80.132 64.7916 80.0461 64.8575 79.9782L99.1762 44.3497C99.2165 44.2946 99.2681 44.2486 99.3276 44.215C99.387 44.1813 99.453 44.1607 99.521 44.1545C99.5891 44.1482 99.6577 44.1566 99.7222 44.1789C99.7868 44.2013 99.8459 44.2371 99.8955 44.2841C99.9452 44.331 99.9842 44.388 100.01 44.4512C100.036 44.5144 100.048 44.5824 100.046 44.6507C100.043 44.7189 100.026 44.7858 99.9959 44.847C99.9655 44.9082 99.9224 44.9622 99.8695 45.0055L65.553 80.6557C65.5072 80.7008 65.4529 80.7363 65.3931 80.7599C65.3334 80.7836 65.2695 80.795 65.2052 80.7934Z" fill="#141414"/>
<path d="M72.2916 110.245C72.1969 110.245 72.1043 110.217 72.0254 110.164C71.9465 110.112 71.8849 110.037 71.8482 109.95C71.8115 109.863 71.8015 109.767 71.8193 109.674C71.8371 109.581 71.8819 109.495 71.9482 109.427L89.4827 91.4841C89.572 91.3928 89.694 91.3407 89.8218 91.3393C89.9495 91.3378 90.0726 91.3872 90.164 91.4764C90.2554 91.5657 90.3075 91.6876 90.3089 91.8153C90.3104 91.943 90.261 92.066 90.1717 92.1573L72.6416 110.1C72.5961 110.147 72.5416 110.184 72.4815 110.209C72.4213 110.233 72.3567 110.246 72.2916 110.245Z" fill="#141414"/>
<path d="M469.174 197.159C469.174 197.159 455.889 201.001 456.926 187.161C457.853 174.717 462.216 184.245 463.981 183.692C465.882 183.097 464.312 179.266 466.766 178.955C469.171 178.649 471.035 182.162 473.45 181.55C475.864 180.938 480.667 177.237 485.33 179.919C489.23 182.162 489.416 186.752 489.416 186.752C489.416 186.752 494.243 187.161 495.356 194.505C496.469 201.849 486.452 215.519 486.452 215.519L469.174 197.159Z" fill="#141414"/>
<path d="M486.492 216.26L469.025 197.681C467.756 197.991 462.713 198.992 459.353 196.273C457.105 194.45 456.127 191.368 456.444 187.11C456.757 182.914 457.459 180.824 458.723 180.334C459.946 179.862 461.18 181.025 462.271 182.052C462.735 182.49 463.601 183.298 463.837 183.22C464.388 183.047 464.515 182.404 464.657 181.364C464.812 180.23 465.025 178.678 466.704 178.463C468.06 178.295 469.185 179.102 470.276 179.882C471.315 180.627 472.301 181.336 473.338 181.071C474.041 180.851 474.725 180.577 475.385 180.251C477.951 179.089 481.831 177.329 485.58 179.489C489.027 181.471 489.735 185.119 489.873 186.328C491.126 186.603 494.862 187.961 495.842 194.415C496.972 201.871 487.257 215.222 486.844 215.786L486.492 216.26ZM469.329 196.601L486.389 214.743C488.117 212.286 495.833 200.87 494.877 194.56C493.832 187.67 489.409 187.22 489.37 187.215L488.948 187.18L488.93 186.756C488.93 186.713 488.698 182.398 485.085 180.317C481.765 178.407 478.305 179.976 475.77 181.124C475.06 181.475 474.322 181.767 473.563 181.998C472.096 182.367 470.884 181.499 469.71 180.658C468.727 179.954 467.798 179.287 466.822 179.414C465.969 179.521 465.79 180.16 465.606 181.489C465.462 182.555 465.296 183.764 464.119 184.133C463.338 184.378 462.536 183.622 461.606 182.745C460.766 181.956 459.719 180.973 459.069 181.226C458.597 181.41 457.757 182.424 457.402 187.176C457.109 191.11 457.969 193.908 459.957 195.521C463.354 198.278 468.983 196.693 469.04 196.675L469.329 196.601Z" fill="white"/>
<path d="M489.678 209.659L496.762 230.367C496.985 231.017 497.376 231.597 497.894 232.049C498.412 232.5 499.04 232.808 499.715 232.94L502.871 233.552C502.871 233.552 494.667 251.353 480.844 248.372C467.022 245.39 470.062 233.552 470.062 233.552L472.986 233.316C473.397 233.282 473.796 233.16 474.155 232.956C474.514 232.752 474.824 232.472 475.063 232.136C475.302 231.8 475.465 231.416 475.54 231.01C475.615 230.604 475.6 230.187 475.497 229.788L472.216 217.062C472.216 217.062 485.606 206.269 489.678 209.659Z" fill="white"/>
<path d="M483.917 249.18C482.85 249.179 481.786 249.064 480.744 248.837C476.183 247.854 472.925 245.821 471.052 242.793C468.353 238.422 469.541 233.631 469.594 233.427C469.619 233.329 469.676 233.241 469.754 233.177C469.833 233.112 469.929 233.073 470.031 233.067L472.955 232.833C473.297 232.805 473.628 232.703 473.926 232.534C474.223 232.365 474.48 232.133 474.679 231.854C474.878 231.575 475.013 231.256 475.075 230.92C475.137 230.583 475.125 230.237 475.04 229.906L471.759 217.178C471.736 217.089 471.74 216.995 471.769 216.907C471.798 216.82 471.851 216.742 471.923 216.684C473.325 215.554 485.746 205.742 490.002 209.285C490.071 209.342 490.122 209.418 490.149 209.504L497.235 230.212C497.431 230.781 497.773 231.289 498.227 231.685C498.681 232.08 499.231 232.35 499.822 232.466L502.978 233.08C503.05 233.094 503.118 233.124 503.176 233.167C503.234 233.211 503.282 233.268 503.315 233.332C503.348 233.397 503.366 233.469 503.368 233.542C503.37 233.615 503.354 233.687 503.324 233.753C503.23 233.921 496.043 249.18 483.917 249.18ZM470.46 233.998C470.254 235.123 469.78 238.911 471.879 242.304C473.607 245.093 476.658 246.977 480.947 247.902C492.869 250.474 500.632 236.857 502.163 233.913L499.628 233.421C498.87 233.272 498.165 232.927 497.583 232.419C497.001 231.912 496.563 231.261 496.312 230.531L489.271 209.958C486.139 207.666 476.544 214.249 472.758 217.252L475.969 229.676C476.09 230.144 476.107 230.632 476.019 231.107C475.931 231.582 475.74 232.032 475.46 232.425C475.18 232.819 474.817 233.146 474.397 233.385C473.976 233.623 473.509 233.767 473.027 233.805L470.46 233.998Z" fill="#141414"/>
<path d="M484.849 212.879C484.849 212.879 481.415 220.802 472.424 219.34C463.432 217.878 463.205 206.444 464.008 194.295C465.32 194.929 466.903 195.37 469.202 195.301C473.104 195.182 481.214 193.62 481.595 192.726C480.134 196.16 479.576 199.685 481.4 201.886C482.117 202.846 483.467 203.539 485.855 203.58C485.855 203.58 486.995 199.775 490.387 201.982C493.779 204.19 492.517 213.513 484.849 212.879Z" fill="white"/>
<path d="M474.572 220C473.826 219.998 473.082 219.936 472.347 219.814C462.754 218.253 462.765 205.805 463.526 194.262C463.532 194.184 463.557 194.107 463.599 194.041C463.641 193.974 463.699 193.918 463.767 193.878C463.835 193.839 463.912 193.816 463.991 193.813C464.07 193.81 464.148 193.826 464.22 193.86C465.685 194.573 467.266 194.879 469.187 194.82C473.143 194.699 480.479 193.182 481.17 192.498C481.225 192.382 481.324 192.293 481.445 192.25C481.566 192.207 481.699 192.214 481.815 192.269C481.931 192.324 482.021 192.423 482.064 192.544C482.107 192.665 482.1 192.798 482.045 192.914C480.89 195.622 479.908 199.325 481.778 201.578C482.469 202.503 483.727 203.003 485.531 203.088C485.774 202.509 486.38 201.39 487.52 200.973C488.458 200.629 489.51 200.835 490.656 201.58C492.517 202.791 493.187 205.851 492.213 208.693C491.146 211.805 488.508 213.537 485.144 213.381C484.436 214.728 481.256 220 474.572 220ZM464.445 195.014C463.756 205.943 463.887 217.462 472.503 218.863C481.019 220.249 484.374 212.763 484.407 212.688C484.447 212.596 484.515 212.519 484.601 212.467C484.688 212.415 484.788 212.392 484.888 212.4C489.304 212.772 490.84 209.711 491.295 208.382C492.117 205.978 491.603 203.355 490.122 202.387C489.247 201.814 488.48 201.641 487.845 201.875C486.778 202.267 486.314 203.703 486.314 203.718C486.284 203.817 486.223 203.904 486.14 203.966C486.057 204.027 485.957 204.061 485.853 204.061C483.552 204.022 481.916 203.386 481.021 202.173C479.49 200.317 479.361 197.423 480.674 193.766C477.83 194.822 471.503 195.711 469.224 195.781C467.409 195.832 465.871 195.591 464.445 195.014Z" fill="#141414"/>
<path d="M487.089 208.498C487.036 208.498 486.983 208.489 486.933 208.472C486.812 208.431 486.712 208.343 486.656 208.228C486.599 208.114 486.591 207.981 486.632 207.86C486.824 207.204 487.112 206.58 487.485 206.007C487.699 205.681 487.983 205.407 488.316 205.204C488.648 205.001 489.022 204.873 489.409 204.831C489.534 204.825 489.656 204.868 489.751 204.949C489.846 205.03 489.907 205.144 489.921 205.268C489.931 205.394 489.89 205.518 489.808 205.615C489.726 205.711 489.61 205.771 489.484 205.781C489.238 205.817 489.004 205.905 488.796 206.04C488.587 206.174 488.41 206.351 488.276 206.56C487.96 207.057 487.716 207.597 487.552 208.164C487.521 208.262 487.459 208.347 487.375 208.407C487.292 208.467 487.191 208.499 487.089 208.498Z" fill="#141414"/>
<path d="M508.21 322.498L466.289 317.252L462.284 326.822L494.752 342.625C494.752 342.625 510.835 331.543 508.21 322.498Z" fill="url(#paint1_linear_102_397)"/>
<path d="M468.31 323.351C436.869 304.653 399.265 285.709 382.391 290.332C350.735 299.001 357.876 339.77 376.501 355.497C389.452 366.426 409.95 383.912 467.877 397.388C525.804 410.863 518.662 355.923 518.662 355.923C518.662 355.923 508.728 348.872 494.055 339.366L468.31 323.351Z" fill="white"/>
<path d="M484.641 400C479.538 400 473.913 399.286 467.767 397.858C409.998 384.409 388.949 366.636 376.372 356.017L376.191 355.864C370.544 351.095 365.857 344.013 362.991 335.919C360.058 327.631 359.334 319.019 360.957 311.657C362.668 303.906 367.753 293.834 382.262 289.858C399.633 285.106 438.776 305.217 468.557 322.929C468.666 322.994 468.746 323.101 468.777 323.225C468.808 323.348 468.789 323.479 468.723 323.589C468.658 323.699 468.551 323.778 468.427 323.809C468.303 323.84 468.172 323.821 468.063 323.755C425.586 298.492 396.004 287.091 382.518 290.787C368.47 294.636 363.551 304.374 361.898 311.864C358.7 326.358 365.253 345.36 376.814 355.119L376.994 355.272C390.313 366.518 410.442 383.515 467.979 396.911C485.601 401.014 498.895 399.152 507.493 391.377C520.323 379.779 518.45 358.511 518.21 356.186C516.814 355.2 507.239 348.474 493.795 339.764C493.737 339.732 493.686 339.688 493.646 339.635C493.606 339.583 493.577 339.523 493.561 339.458C493.545 339.394 493.542 339.327 493.553 339.262C493.564 339.197 493.588 339.135 493.624 339.079C493.66 339.024 493.707 338.976 493.763 338.94C493.818 338.903 493.88 338.878 493.945 338.867C494.01 338.855 494.077 338.857 494.141 338.872C494.206 338.887 494.266 338.916 494.319 338.955C508.833 348.354 518.844 355.454 518.945 355.526C518.999 355.564 519.045 355.613 519.079 355.67C519.113 355.727 519.135 355.79 519.144 355.856C519.174 356.092 522.039 379.53 508.151 392.09C502.329 397.36 494.457 400 484.641 400Z" fill="#141414"/>
<path d="M427.795 384.588C427.717 384.586 427.642 384.566 427.574 384.529C427.506 384.491 427.448 384.438 427.405 384.374C427.362 384.31 427.335 384.236 427.327 384.159C427.319 384.082 427.329 384.004 427.357 383.932C432.714 370.549 456.191 345.488 457.188 344.428C457.23 344.378 457.282 344.337 457.34 344.308C457.399 344.279 457.462 344.261 457.528 344.257C457.593 344.253 457.658 344.263 457.72 344.285C457.781 344.307 457.838 344.341 457.885 344.386C457.933 344.431 457.971 344.484 457.997 344.544C458.024 344.604 458.037 344.669 458.038 344.734C458.038 344.799 458.025 344.864 458 344.924C457.975 344.984 457.937 345.039 457.89 345.084C457.647 345.344 433.54 371.073 428.252 384.286C428.215 384.377 428.152 384.455 428.07 384.508C427.989 384.562 427.893 384.59 427.795 384.588Z" fill="#141414"/>
<path d="M495.894 366.223C495.781 366.223 495.672 366.183 495.586 366.109C479.62 352.737 407.253 313.808 406.525 313.416C406.469 313.386 406.42 313.346 406.38 313.297C406.34 313.248 406.31 313.191 406.292 313.131C406.273 313.07 406.267 313.006 406.274 312.944C406.28 312.881 406.299 312.82 406.329 312.764C406.359 312.708 406.4 312.659 406.449 312.619C406.498 312.579 406.554 312.549 406.615 312.531C406.675 312.513 406.739 312.507 406.802 312.513C406.865 312.519 406.926 312.538 406.982 312.568C407.71 312.959 480.175 351.934 496.205 365.373C496.281 365.436 496.336 365.521 496.361 365.617C496.387 365.713 496.383 365.814 496.349 365.907C496.315 366 496.253 366.08 496.171 366.137C496.09 366.193 495.993 366.223 495.894 366.223Z" fill="#141414"/>
<path d="M492.447 338.328C483.191 346.081 475.208 353.351 469.814 359.346C469.814 359.346 440.609 381.014 429.881 394.122C429.486 394.606 429.235 395.191 429.159 395.811C429.083 396.431 429.184 397.06 429.451 397.624C429.717 398.189 430.139 398.667 430.666 399.002C431.193 399.338 431.805 399.517 432.429 399.519H522.825C532.188 399.519 541.204 395.975 548.058 389.6C557.789 380.549 572.462 366.758 584.833 354.533C591.693 347.752 596.417 339.111 598.421 329.678C600.424 320.244 599.62 310.431 596.108 301.449L595.786 300.632C589.712 285.207 570.787 279.543 557.272 289.15C543.314 299.073 525.504 312.017 508.842 325.082L492.447 338.328Z" fill="white"/>
<path d="M522.833 400H432.429C431.713 399.999 431.011 399.795 430.406 399.412C429.801 399.028 429.317 398.481 429.01 397.834C428.704 397.187 428.587 396.466 428.674 395.755C428.761 395.045 429.047 394.373 429.501 393.818C439.962 381.032 468.253 359.904 469.48 358.99C474.491 353.425 482.111 346.35 492.13 337.958C492.228 337.876 492.355 337.837 492.482 337.848C492.609 337.859 492.727 337.921 492.809 338.018C492.891 338.116 492.931 338.243 492.92 338.37C492.908 338.498 492.847 338.615 492.749 338.697C482.743 347.075 475.145 354.133 470.164 359.681C470.143 359.705 470.119 359.726 470.092 359.744C469.801 359.963 440.813 381.526 430.247 394.439C429.907 394.853 429.693 395.354 429.628 395.884C429.563 396.415 429.65 396.953 429.879 397.436C430.108 397.919 430.47 398.327 430.922 398.612C431.375 398.897 431.899 399.048 432.434 399.047H522.829C532.072 399.059 540.975 395.56 547.734 389.259C557.745 379.945 572.252 366.308 584.498 354.201C591.294 347.487 595.973 338.93 597.955 329.588C599.938 320.246 599.137 310.527 595.653 301.635L595.333 300.82C593.947 297.283 591.773 294.108 588.975 291.537C586.178 288.966 582.831 287.065 579.189 285.979C575.547 284.893 571.706 284.651 567.956 285.27C564.206 285.89 560.647 287.355 557.548 289.554C539.021 302.726 522.731 314.811 509.135 325.471C509.035 325.55 508.907 325.586 508.781 325.57C508.654 325.555 508.538 325.49 508.459 325.39C508.381 325.29 508.345 325.162 508.36 325.036C508.375 324.909 508.44 324.793 508.54 324.715C522.149 314.044 538.45 301.95 556.99 288.769C560.208 286.482 563.905 284.957 567.8 284.311C571.695 283.665 575.687 283.915 579.471 285.041C583.256 286.168 586.733 288.141 589.64 290.812C592.547 293.483 594.807 296.78 596.248 300.455L596.569 301.274C600.121 310.342 600.937 320.251 598.915 329.778C596.894 339.304 592.124 348.029 585.196 354.876C572.948 366.986 558.427 380.636 548.41 389.954C541.469 396.425 532.326 400.016 522.833 400Z" fill="#141414"/>
<path d="M505.349 400C505.243 400.001 505.14 399.966 505.056 399.902C504.972 399.838 504.911 399.748 504.883 399.646C504.855 399.544 504.861 399.435 504.902 399.337C504.942 399.239 505.013 399.157 505.104 399.104C526.926 386.273 551.896 364.061 568.724 342.516C570.951 339.674 573.234 336.595 574.569 333.163C574.591 333.104 574.626 333.05 574.669 333.004C574.713 332.958 574.765 332.922 574.823 332.896C574.881 332.871 574.943 332.857 575.007 332.855C575.07 332.854 575.133 332.865 575.192 332.887C575.251 332.91 575.305 332.944 575.351 332.988C575.396 333.032 575.433 333.084 575.459 333.142C575.484 333.2 575.498 333.262 575.5 333.325C575.501 333.388 575.49 333.451 575.467 333.51C574.085 337.067 571.749 340.201 569.483 343.108C552.588 364.748 527.51 387.043 505.594 399.939C505.519 399.98 505.435 400.001 505.349 400Z" fill="#141414"/>
<path d="M509.929 392.787C509.86 392.787 509.793 392.772 509.73 392.744C509.667 392.716 509.611 392.675 509.566 392.623C498.324 379.729 485.286 368.516 470.853 359.327C470.754 359.254 470.687 359.147 470.664 359.026C470.641 358.906 470.665 358.781 470.731 358.677C470.797 358.574 470.9 358.499 471.019 358.469C471.138 358.438 471.264 358.454 471.372 358.514C485.881 367.749 498.988 379.019 510.292 391.978C510.353 392.048 510.393 392.133 510.406 392.225C510.42 392.316 510.407 392.41 510.368 392.494C510.33 392.578 510.268 392.65 510.19 392.7C510.112 392.75 510.022 392.776 509.929 392.776V392.787Z" fill="#141414"/>
<path d="M521.187 382.89C521.122 382.89 521.058 382.877 520.999 382.852C520.939 382.827 520.886 382.79 520.841 382.743C509.082 370.656 496.249 359.661 482.5 349.893C482.448 349.856 482.405 349.81 482.371 349.756C482.337 349.703 482.315 349.643 482.304 349.581C482.294 349.519 482.295 349.455 482.309 349.393C482.324 349.332 482.35 349.273 482.386 349.222C482.423 349.17 482.469 349.127 482.523 349.093C482.576 349.059 482.636 349.037 482.698 349.026C482.761 349.015 482.825 349.017 482.886 349.031C482.948 349.046 483.006 349.072 483.058 349.108C496.855 358.91 509.733 369.945 521.532 382.076C521.599 382.144 521.643 382.23 521.661 382.323C521.679 382.416 521.669 382.513 521.632 382.6C521.595 382.688 521.533 382.762 521.454 382.814C521.374 382.867 521.281 382.894 521.187 382.894V382.89Z" fill="#141414"/>
<path d="M440.456 242.966C442.478 240.237 445.054 237.966 448.015 236.301C450.976 234.636 454.255 233.615 457.639 233.305C461.536 232.944 466.424 232.562 471.875 232.284C472.177 233.275 472.601 234.225 473.139 235.11C474.718 237.709 477.192 239.701 479.95 240.953C482.719 242.227 485.782 242.725 488.812 242.393C491.765 242.037 494.573 240.78 496.614 238.584C498.276 236.791 500.273 234.627 500.782 232.28C505.299 232.515 509.8 232.987 514.266 233.694C518.644 234.393 522.818 236.033 526.5 238.502C530.182 240.97 533.283 244.208 535.591 247.991C544.18 261.998 559.053 286.898 559.849 306.935C561.131 339.226 508.669 325.528 508.669 325.528L449.758 320.118L415.628 293.718C415.628 293.718 426.259 262.135 440.456 242.966Z" fill="url(#paint2_linear_102_397)"/>
<path d="M508.007 318.999C508.098 319.617 508.023 320.248 507.788 320.827C507.552 321.406 507.166 321.911 506.67 322.291C506.173 322.67 505.583 322.909 504.963 322.984C504.342 323.058 503.713 322.966 503.14 322.715C498 320.439 492.431 319.29 486.809 319.346L462.49 319.591C462.49 319.591 460.591 288.267 494.973 292.05C494.982 292.042 505.349 301.064 508.007 318.999Z" fill="white"/>
<path d="M480.403 320.184C480.287 320.184 480.175 320.142 480.088 320.067C480 319.991 479.943 319.887 479.926 319.773C479.648 317.864 480.088 315.757 481.166 313.836C482.052 312.262 483.353 310.776 485.131 309.327C485.506 308.998 485.924 308.723 486.373 308.509C486.432 308.475 486.497 308.454 486.564 308.447C486.631 308.44 486.699 308.447 486.764 308.468C486.828 308.489 486.887 308.523 486.937 308.568C486.987 308.614 487.027 308.669 487.055 308.731C487.082 308.793 487.096 308.859 487.096 308.927C487.096 308.994 487.081 309.061 487.054 309.123C487.026 309.184 486.985 309.239 486.935 309.284C486.884 309.329 486.825 309.363 486.761 309.384C486.392 309.565 486.05 309.795 485.741 310.066C484.053 311.449 482.83 312.835 482.008 314.302C481.032 316.037 480.632 317.928 480.879 319.626C480.889 319.689 480.886 319.753 480.87 319.814C480.855 319.875 480.827 319.933 480.789 319.984C480.752 320.035 480.704 320.077 480.65 320.11C480.595 320.142 480.535 320.164 480.473 320.173C480.45 320.178 480.426 320.182 480.403 320.184Z" fill="#141414"/>
<path d="M472.542 319.733C472.519 319.735 472.497 319.735 472.474 319.733C472.411 319.725 472.351 319.704 472.296 319.672C472.242 319.64 472.194 319.597 472.156 319.546C472.118 319.496 472.09 319.438 472.075 319.377C472.059 319.316 472.056 319.252 472.065 319.189C472.365 317.067 472.8 314.581 473.736 312.234C474.725 309.76 476.184 307.731 477.959 306.369C478.061 306.292 478.189 306.257 478.315 306.274C478.442 306.291 478.556 306.357 478.634 306.458C478.712 306.559 478.746 306.687 478.73 306.813C478.713 306.94 478.647 307.055 478.546 307.132C476.91 308.389 475.556 310.275 474.631 312.597C473.732 314.85 473.318 317.266 473.019 319.331C473 319.444 472.942 319.546 472.854 319.62C472.767 319.694 472.656 319.734 472.542 319.733Z" fill="#141414"/>
<path d="M466.245 319.733C466.127 319.734 466.013 319.691 465.925 319.612C465.837 319.534 465.78 319.426 465.766 319.309C464.662 310.061 470.558 304.459 470.81 304.227C470.903 304.14 471.027 304.094 471.155 304.099C471.282 304.103 471.403 304.158 471.49 304.251C471.577 304.345 471.623 304.469 471.619 304.596C471.614 304.724 471.559 304.844 471.466 304.931C471.409 304.986 465.679 310.45 466.724 319.198C466.739 319.325 466.703 319.452 466.624 319.553C466.545 319.653 466.429 319.718 466.302 319.733H466.245Z" fill="#141414"/>
<path d="M403.104 324.332H491.811C492.338 324.339 492.854 324.186 493.294 323.895C493.77 323.573 494.124 323.1 494.3 322.553C494.475 322.005 494.461 321.415 494.26 320.876C493.213 318.691 491.052 317.912 487.854 317.912H397.284L398.458 321.106C398.812 322.053 399.446 322.869 400.276 323.445C401.106 324.022 402.093 324.331 403.104 324.332Z" fill="#141414"/>
<path d="M402.601 324.332C401.734 324.332 400.887 324.071 400.169 323.585C399.452 323.098 398.897 322.407 398.576 321.602L382.873 282.205C382.667 281.691 382.591 281.133 382.651 280.582C382.711 280.031 382.905 279.503 383.216 279.044C383.527 278.586 383.946 278.21 384.436 277.95C384.926 277.69 385.472 277.554 386.027 277.554H440.544C442.147 277.554 443.711 278.051 445.021 278.976C446.33 279.901 447.32 281.208 447.855 282.719L462.597 324.332H402.601Z" fill="#141414"/>
<path d="M455.377 318.785H401.326C401.203 318.777 401.089 318.723 401.005 318.633C400.921 318.544 400.875 318.426 400.875 318.303C400.875 318.18 400.921 318.062 401.005 317.973C401.089 317.883 401.203 317.829 401.326 317.821H455.377C455.499 317.829 455.614 317.883 455.698 317.973C455.781 318.062 455.828 318.18 455.828 318.303C455.828 318.426 455.781 318.544 455.698 318.633C455.614 318.723 455.499 318.777 455.377 318.785Z" fill="white"/>
<defs>
<linearGradient id="paint0_linear_102_397" x1="171.079" y1="198.262" x2="171.079" y2="72.6667" gradientUnits="userSpaceOnUse">
<stop stop-color="#DC1D47"/>
<stop offset="1" stop-color="#E54327"/>
</linearGradient>
<linearGradient id="paint1_linear_102_397" x1="485.393" y1="342.626" x2="485.393" y2="317.252" gradientUnits="userSpaceOnUse">
<stop stop-color="#DC1D47"/>
<stop offset="1" stop-color="#E54327"/>
</linearGradient>
<linearGradient id="paint2_linear_102_397" x1="487.753" y1="328.415" x2="487.753" y2="232.28" gradientUnits="userSpaceOnUse">
<stop stop-color="#DC1D47"/>
<stop offset="1" stop-color="#E54327"/>
</linearGradient>
</defs>
</svg>
