<svg width="400" height="400" viewBox="0 0 400 400" fill="none" xmlns="http://www.w3.org/2000/svg">
<g clip-path="url(#clip0_113_357)">
<path d="M400 200C400 301.978 323.674 386.13 225.022 398.446C216.826 399.467 208.478 400 200 400C186.174 400 172.685 398.598 159.652 395.924C150.793 394.109 142.163 391.717 133.772 388.772C113.62 381.707 94.9456 371.5 78.337 358.75C30.7065 322.196 0 264.685 0 200C0 89.5435 89.5435 0 200 0C310.457 0 400 89.5435 400 200Z" fill="white"/>
<path d="M394.467 61.3043H176.739V185.511H394.467V61.3043Z" fill="white"/>
<path fill-rule="evenodd" clip-rule="evenodd" d="M181.793 191.043H400V66.3587H181.793V191.043ZM182.283 190.565H399.522V66.837H182.283V190.565Z" fill="#141414"/>
<path fill-rule="evenodd" clip-rule="evenodd" d="M353.446 117.217C353.38 117.217 353.326 117.196 353.272 117.152L340.761 104.641C340.663 104.543 340.663 104.391 340.761 104.304L353.272 91.7935C353.37 91.6957 353.522 91.6957 353.609 91.7935C353.707 91.8913 353.707 92.0435 353.609 92.1304L341.272 104.467L353.609 116.804C353.707 116.902 353.707 117.054 353.609 117.141C353.576 117.196 353.511 117.217 353.446 117.217Z" fill="#141414"/>
<path fill-rule="evenodd" clip-rule="evenodd" d="M373.946 117.217C373.88 117.217 373.826 117.196 373.772 117.152C373.674 117.054 373.674 116.902 373.772 116.815L386.109 104.478L373.772 92.1413C373.674 92.0435 373.674 91.8913 373.772 91.8043C373.87 91.7174 374.022 91.7065 374.109 91.8043L386.62 104.315C386.717 104.413 386.717 104.565 386.62 104.652L374.109 117.163C374.065 117.196 374 117.217 373.946 117.217Z" fill="#141414"/>
<path fill-rule="evenodd" clip-rule="evenodd" d="M358.337 116.446C358.304 116.446 358.272 116.435 358.239 116.424C358.12 116.37 358.065 116.228 358.12 116.109L368.913 92.5435C368.967 92.4239 369.109 92.3696 369.228 92.4239C369.348 92.4783 369.402 92.6196 369.348 92.7391L358.554 116.304C358.522 116.402 358.435 116.446 358.337 116.446Z" fill="#141414"/>
<path fill-rule="evenodd" clip-rule="evenodd" d="M234.402 158.185C234.37 158.185 234.337 158.174 234.304 158.163C226.685 154.739 219.783 150 213.793 144.065C200.489 130.913 193.109 113.359 193 94.6522C192.902 75.9457 200.087 58.3152 213.239 45.0109C226.391 31.7065 243.946 24.3261 262.652 24.2174C262.783 24.2174 262.924 24.2174 263.054 24.2174C281.62 24.2174 299.087 31.3913 312.293 44.4565C325.598 57.6087 332.978 75.163 333.087 93.8696C333.185 112.576 326 130.207 312.848 143.511C308.087 148.326 302.685 152.413 296.804 155.652C296.685 155.717 296.543 155.674 296.478 155.554C296.413 155.435 296.457 155.293 296.576 155.228C302.413 152.011 307.772 147.957 312.5 143.174C339.478 115.902 339.228 71.7609 311.957 44.7935C284.685 17.8261 240.543 18.0652 213.576 45.337C200.522 58.5652 193.38 76.0761 193.478 94.6522C193.587 113.239 200.913 130.663 214.13 143.728C220.087 149.62 226.935 154.326 234.5 157.728C234.62 157.783 234.674 157.924 234.62 158.043C234.587 158.13 234.489 158.185 234.402 158.185Z" fill="#141414"/>
<path fill-rule="evenodd" clip-rule="evenodd" d="M218.543 50.4891C218.478 50.4891 218.424 50.4674 218.37 50.4239C218.272 50.3261 218.272 50.1739 218.37 50.087C236.163 32.087 262.848 26.5217 286.359 35.9022C286.478 35.9565 286.544 36.087 286.489 36.2174C286.435 36.337 286.304 36.4022 286.174 36.3478C262.848 27.0435 236.359 32.5652 218.696 50.4239C218.663 50.4674 218.609 50.4891 218.543 50.4891Z" fill="#141414"/>
<path fill-rule="evenodd" clip-rule="evenodd" d="M263.13 183.337C251.109 183.337 241.326 173.565 241.304 161.543L241.272 139.717L284.924 139.663L284.946 161.489C284.967 173.522 275.185 183.326 263.152 183.337C263.152 183.337 263.141 183.337 263.13 183.337ZM241.761 140.185L241.793 161.533C241.804 173.293 251.38 182.848 263.141 182.848C263.152 182.848 263.163 182.848 263.174 182.848C274.946 182.837 284.511 173.25 284.489 161.478L284.467 140.13L241.761 140.185Z" fill="#141414"/>
<path fill-rule="evenodd" clip-rule="evenodd" d="M318.935 94.0217C318.978 124.891 293.989 149.935 263.12 149.978C232.25 150.022 207.207 125.033 207.163 94.163C207.12 63.2935 232.109 38.25 262.978 38.2065C293.837 38.163 318.891 63.1522 318.935 94.0217Z" fill="#141414"/>
<path fill-rule="evenodd" clip-rule="evenodd" d="M262.946 169.141C257.478 169.141 252.348 168.837 248.467 168.293C244.304 167.707 242.196 166.924 242.196 165.967C242.196 165.837 242.304 165.728 242.435 165.728C242.565 165.728 242.674 165.837 242.674 165.967C242.674 167.076 249.891 168.663 262.924 168.663C262.989 168.663 263.065 168.663 263.13 168.663C276.304 168.641 283.587 167.033 283.587 165.913C283.587 165.783 283.696 165.674 283.826 165.674C283.957 165.674 284.065 165.783 284.065 165.913C284.065 166.859 281.957 167.652 277.804 168.25C273.88 168.815 268.674 169.13 263.13 169.141C263.076 169.141 263.011 169.141 262.946 169.141Z" fill="#141414"/>
<path fill-rule="evenodd" clip-rule="evenodd" d="M262.946 159.674C257.478 159.674 252.348 159.37 248.467 158.826C244.304 158.239 242.196 157.457 242.196 156.511C242.196 156.38 242.304 156.272 242.435 156.272C242.565 156.272 242.674 156.38 242.674 156.511C242.674 157.62 249.957 159.217 263.141 159.207C276.315 159.185 283.598 157.576 283.598 156.467C283.598 156.337 283.707 156.228 283.837 156.228C283.967 156.228 284.076 156.337 284.076 156.467C284.076 157.413 281.967 158.207 277.815 158.804C273.891 159.37 268.685 159.685 263.141 159.696C263.065 159.674 263.011 159.674 262.946 159.674Z" fill="#141414"/>
<path fill-rule="evenodd" clip-rule="evenodd" d="M255.641 136.62C255.544 136.62 255.457 136.565 255.424 136.478L237.804 95.2283C237.75 95.1087 237.804 94.9674 237.935 94.913C238.054 94.8587 238.196 94.913 238.25 95.0435L255.87 136.293C255.924 136.413 255.87 136.554 255.739 136.609C255.707 136.62 255.674 136.62 255.641 136.62Z" fill="white"/>
<path fill-rule="evenodd" clip-rule="evenodd" d="M270.565 136.609C270.533 136.609 270.5 136.598 270.467 136.587C270.348 136.533 270.293 136.391 270.337 136.272L287.848 94.9783C287.902 94.8587 288.043 94.8044 288.163 94.8478C288.283 94.9022 288.348 95.0435 288.293 95.1631L270.783 136.457C270.75 136.554 270.663 136.609 270.565 136.609Z" fill="white"/>
<path fill-rule="evenodd" clip-rule="evenodd" d="M253.011 100.359C250.87 100.359 248.728 99.837 246.859 98.7826C246.739 98.7174 246.707 98.5652 246.772 98.4565C246.837 98.337 246.989 98.3044 247.098 98.3696C251.272 100.75 256.859 100.293 260.63 97.3261C257.207 95.587 254.424 92.5435 253.261 88.8587C252.457 86.3044 252.522 83.8152 253.446 81.837C254.533 79.5109 256.978 77.9891 259.261 78.2174C261.957 78.4891 263.87 80.8696 264.75 83.0217C266.728 87.8152 265.359 93.7609 261.511 97.2174C263.652 98.1739 266.022 98.6087 268.37 98.3696C274.685 97.7283 280.141 92.2826 280.783 85.9674C280.793 85.837 280.913 85.7391 281.043 85.75C281.174 85.7609 281.272 85.8804 281.261 86.0109C280.587 92.5435 274.946 98.1739 268.413 98.837C265.902 99.087 263.37 98.5978 261.098 97.5435C258.848 99.4022 255.924 100.359 253.011 100.359ZM258.804 78.663C256.848 78.663 254.826 80.0217 253.88 82.0326C253.011 83.8913 252.957 86.2609 253.717 88.7065C254.859 92.337 257.63 95.3261 261.033 96.9891C261.065 96.9674 261.087 96.9457 261.109 96.9131C264.87 93.5978 266.217 87.8261 264.304 83.1848C263.467 81.163 261.696 78.9239 259.207 78.6739C259.076 78.6739 258.935 78.663 258.804 78.663Z" fill="white"/>
<path fill-rule="evenodd" clip-rule="evenodd" d="M176.141 369.739C170.967 375.946 165.391 385.022 159.652 395.924C150.793 394.109 142.163 391.717 133.772 388.772C113.62 381.707 94.9457 371.5 78.337 358.75C93.0109 311.196 107.522 286.989 107.522 286.989L135.587 282.891L163.63 278.804L176.141 369.739Z" fill="url(#paint0_linear_113_357)"/>
<path fill-rule="evenodd" clip-rule="evenodd" d="M225.022 398.446C216.826 399.467 208.478 400 200 400C186.174 400 172.685 398.598 159.652 395.924C150.793 394.109 142.163 391.717 133.772 388.772L135.587 282.891L135.62 281.283L173.848 276.63C199.326 306.87 215.185 352.207 225.022 398.446Z" fill="url(#paint1_linear_113_357)"/>
<path fill-rule="evenodd" clip-rule="evenodd" d="M143.522 222.228C143.522 222.228 183.446 236.565 190.772 222.609C198.38 208.109 207.315 191.37 212.12 183.326C222.033 166.761 239.076 143.739 242.272 146.163C244.087 147.543 242.413 151.163 237.293 160.543C238.033 160.326 240.413 160.228 241.88 161.783C244.065 164.087 242.685 166.359 242.663 166.62C242.902 166.533 245.728 165.62 247.446 166.913C249.391 168.37 249.62 170.424 249.163 172.272C249.772 172.054 252.511 171.587 254.098 172.913C256.174 174.641 255.685 177.587 254.511 179.478C252.359 182.946 246.261 192.283 243.663 197.641C240.435 204.304 228.12 231.663 219.489 250.891C214.087 262.924 202.37 270.88 189.185 271.467L163.565 271.337L143.522 222.228Z" fill="white"/>
<path fill-rule="evenodd" clip-rule="evenodd" d="M143.522 222.228C143.522 222.228 183.446 236.565 190.772 222.609C198.38 208.109 207.315 191.37 212.12 183.326C222.033 166.761 239.076 143.739 242.272 146.163C244.087 147.543 242.413 151.163 237.293 160.543C238.033 160.326 240.413 160.228 241.88 161.783C244.065 164.087 242.685 166.359 242.663 166.62C242.902 166.533 245.728 165.62 247.446 166.913C249.391 168.37 249.62 170.424 249.163 172.272C249.772 172.054 252.511 171.587 254.098 172.913C256.174 174.641 255.685 177.587 254.511 179.478C252.359 182.946 246.261 192.283 243.663 197.641C240.435 204.304 228.12 231.663 219.489 250.891C214.087 262.924 202.37 270.88 189.185 271.467L163.565 271.337L143.522 222.228Z" fill="white" stroke="#141414" stroke-miterlimit="10"/>
<path fill-rule="evenodd" clip-rule="evenodd" d="M248.783 184.391C248.739 184.391 248.696 184.38 248.663 184.359C245.761 182.576 244.717 178.815 246.293 175.804L246.413 175.576L244.707 177.63C243.391 179.207 241.141 179.63 239.348 178.62C238.337 178.054 237.62 177.13 237.315 176.011C237.022 174.891 237.174 173.728 237.772 172.739L239.152 170.413C237.967 171.457 236.174 171.587 234.848 170.63C233.424 169.609 233 167.674 233.859 166.152L236.109 162.141C236.174 162.022 236.315 161.989 236.435 162.054C236.554 162.12 236.587 162.261 236.522 162.38L234.272 166.391C233.533 167.707 233.902 169.37 235.13 170.25C236.435 171.185 238.272 170.902 239.239 169.62L241.141 167.087C241.217 166.989 241.359 166.967 241.467 167.033C241.576 167.109 241.609 167.25 241.543 167.359L238.185 172.989C237.663 173.87 237.511 174.902 237.783 175.891C238.054 176.88 238.685 177.707 239.587 178.207C241.174 179.098 243.174 178.728 244.337 177.326L247.478 173.533C247.554 173.435 247.696 173.413 247.793 173.489C247.891 173.554 247.935 173.696 247.88 173.793L246.717 176.011C245.261 178.804 246.217 182.293 248.913 183.946C249.022 184.011 249.065 184.163 248.989 184.272C248.946 184.359 248.87 184.391 248.783 184.391Z" fill="#141414"/>
<path fill-rule="evenodd" clip-rule="evenodd" d="M55.413 308.217C61.3043 319.848 75.9783 323.837 87.0217 316.902C108.402 303.467 153.152 277.815 184.772 276.641C184.772 276.641 188.391 248.826 156.967 223.707C156.967 223.707 130.62 212.12 90.5435 216.065C80.0978 217.098 64.7391 220.804 60.2174 234.413C53.7283 253.935 44.6196 286.891 55.413 308.217Z" fill="white"/>
<path fill-rule="evenodd" clip-rule="evenodd" d="M55.413 308.217C61.3043 319.848 75.9783 323.837 87.0217 316.902C108.402 303.467 153.152 277.815 184.772 276.641C184.772 276.641 188.391 248.826 156.967 223.707C156.967 223.707 130.62 212.12 90.5435 216.065C80.0978 217.098 64.7391 220.804 60.2174 234.413C53.7283 253.935 44.6196 286.891 55.413 308.217Z" fill="white" stroke="#141414" stroke-miterlimit="10"/>
<path fill-rule="evenodd" clip-rule="evenodd" d="M56.6304 266.076C67.6848 278 95.1087 304.794 97.6848 307.522C102.489 312.609 127.598 340.587 123.946 344.641C122.207 346.576 117.12 341.413 115.457 339.609C116.087 341.728 119.38 349.587 116.935 351.185C114.054 353.054 108.696 344.293 108.522 344.207C109.38 346.293 113.13 354.446 111.337 355.717C109.011 357.359 103.239 350.815 101.609 348.783C101.5 349.217 106.196 356.446 103.5 358.533C101.522 360.065 96.2391 354.043 93.9456 351.446C89.6739 346.924 44.6413 306.174 36.5652 295.261C20.4239 273.435 47.9565 264.88 56.6304 266.076Z" fill="white"/>
<path fill-rule="evenodd" clip-rule="evenodd" d="M56.6304 266.076C67.6848 278 95.1087 304.794 97.6848 307.522C102.489 312.609 127.598 340.587 123.946 344.641C122.207 346.576 117.12 341.413 115.457 339.609C116.087 341.728 119.38 349.587 116.935 351.185C114.054 353.054 108.696 344.293 108.522 344.207C109.38 346.293 113.13 354.446 111.337 355.717C109.011 357.359 103.239 350.815 101.609 348.783C101.5 349.217 106.196 356.446 103.5 358.533C101.522 360.065 96.2391 354.043 93.9456 351.446C89.6739 346.924 44.6413 306.174 36.5652 295.261C20.4239 273.435 47.9565 264.88 56.6304 266.076Z" fill="white" stroke="#141414" stroke-miterlimit="10"/>
<path fill-rule="evenodd" clip-rule="evenodd" d="M115.707 339.728C115.609 339.728 115.522 339.674 115.489 339.587C114.913 338.25 114.239 336.946 113.489 335.707C112.141 333.478 110.5 331.413 108.63 329.565C108.533 329.467 108.533 329.326 108.63 329.228C108.728 329.13 108.88 329.13 108.967 329.228C110.87 331.109 112.533 333.196 113.902 335.467C114.663 336.728 115.348 338.054 115.935 339.402C115.989 339.522 115.935 339.663 115.804 339.717C115.772 339.728 115.739 339.728 115.707 339.728Z" fill="#141414"/>
<path fill-rule="evenodd" clip-rule="evenodd" d="M108.75 344.413C108.663 344.413 108.587 344.37 108.543 344.293C108.391 344.022 108.239 343.761 108.076 343.489C106.717 341.261 105.087 339.196 103.217 337.348C103.12 337.25 103.12 337.109 103.217 337.011C103.315 336.913 103.467 336.913 103.554 337.011C105.457 338.88 107.109 340.978 108.489 343.239C108.652 343.511 108.815 343.783 108.967 344.054C109.033 344.174 108.989 344.315 108.88 344.38C108.837 344.402 108.793 344.413 108.75 344.413Z" fill="#141414"/>
<path fill-rule="evenodd" clip-rule="evenodd" d="M101.554 348.837C101.478 348.837 101.402 348.804 101.359 348.739C100.359 347.359 99.2283 346.054 98 344.848C97.9022 344.761 97.9022 344.609 98 344.511C98.0978 344.413 98.25 344.413 98.337 344.511C99.5761 345.739 100.728 347.065 101.739 348.456C101.815 348.565 101.793 348.717 101.685 348.793C101.652 348.815 101.598 348.837 101.554 348.837Z" fill="#141414"/>
<path fill-rule="evenodd" clip-rule="evenodd" d="M32.2174 278.043C32.2174 278.043 32.6413 253.087 66.2174 225.337C73.7935 219.076 91.2717 221.728 97.4674 229.348C104.717 238.261 103.402 251.348 94.5326 258.652L54.0978 291.902L32.2174 278.043Z" fill="white"/>
<path fill-rule="evenodd" clip-rule="evenodd" d="M32.2174 278.043C32.2174 278.043 32.6413 253.087 66.2174 225.337C73.7935 219.076 91.2717 221.728 97.4674 229.348C104.717 238.261 103.402 251.348 94.5326 258.652L54.0978 291.902L32.2174 278.043Z" fill="white" stroke="#141414" stroke-miterlimit="10"/>
<path fill-rule="evenodd" clip-rule="evenodd" d="M138.924 182.826C138.924 194.109 129.772 203.261 118.478 203.261C107.185 203.261 98.0326 194.109 98.0326 182.826C98.0326 171.543 107.185 162.391 118.478 162.391C129.772 162.402 138.924 171.543 138.924 182.826Z" fill="#141414"/>
<path fill-rule="evenodd" clip-rule="evenodd" d="M132.598 193.022C130.011 191.587 125.576 187.772 124.152 190.359L107.38 217.163C105.957 219.75 114.533 218.848 117.12 220.283C119.707 221.707 122.967 220.772 124.391 218.185L134.696 200.283C136.13 197.696 135.185 194.446 132.598 193.022Z" fill="white"/>
<path fill-rule="evenodd" clip-rule="evenodd" d="M132.598 193.022C130.011 191.587 125.576 187.772 124.152 190.359L107.38 217.163C105.957 219.75 114.533 218.848 117.12 220.283C119.707 221.707 122.967 220.772 124.391 218.185L134.696 200.283C136.13 197.696 135.185 194.446 132.598 193.022Z" fill="white" stroke="#141414" stroke-miterlimit="10"/>
<path fill-rule="evenodd" clip-rule="evenodd" d="M130.587 220.717C130.337 223.109 123.696 224.38 115.761 223.565C107.815 222.75 101.576 220.141 101.826 217.761C102.076 215.37 108.717 214.098 116.652 214.913C124.598 215.728 130.837 218.326 130.587 220.717Z" fill="white"/>
<path fill-rule="evenodd" clip-rule="evenodd" d="M130.587 220.717C130.337 223.109 123.696 224.38 115.761 223.565C107.815 222.75 101.576 220.141 101.826 217.761C102.076 215.37 108.717 214.098 116.652 214.913C124.598 215.728 130.837 218.326 130.587 220.717Z" fill="white" stroke="#141414" stroke-miterlimit="10"/>
<path fill-rule="evenodd" clip-rule="evenodd" d="M146.13 200.391C143.804 204.728 130.207 202.87 130.207 202.87L118.348 193.62C115.261 187.424 117.772 179.902 123.978 176.804C130.174 173.717 137.707 176.228 140.793 182.435C140.804 182.435 148.5 195.967 146.13 200.391Z" fill="white"/>
<path fill-rule="evenodd" clip-rule="evenodd" d="M146.13 200.391C143.804 204.728 130.207 202.87 130.207 202.87L118.348 193.62C115.261 187.424 117.772 179.902 123.978 176.804C130.174 173.717 137.707 176.228 140.793 182.435C140.804 182.435 148.5 195.967 146.13 200.391Z" fill="white" stroke="#141414" stroke-miterlimit="10"/>
<path fill-rule="evenodd" clip-rule="evenodd" d="M138.957 196.902C138.337 196.902 137.728 196.728 137.185 196.37C136.152 195.685 135.587 194.435 135.728 193.185C135.761 192.88 136.033 192.663 136.337 192.696C136.63 192.728 136.848 193.011 136.815 193.315C136.717 194.152 137.098 194.989 137.783 195.446C138.489 195.924 139.424 195.924 140.141 195.446C140.391 195.283 140.728 195.359 140.891 195.62C141.054 195.88 140.978 196.217 140.728 196.391C140.185 196.728 139.565 196.902 138.957 196.902Z" fill="#141414"/>
<path d="M132.022 195.848C132.892 195.848 133.598 194.67 133.598 193.217C133.598 191.765 132.892 190.587 132.022 190.587C131.151 190.587 130.446 191.765 130.446 193.217C130.446 194.67 131.151 195.848 132.022 195.848Z" fill="#141414"/>
<path d="M137.293 190.587C138.164 190.587 138.87 189.643 138.87 188.478C138.87 187.314 138.164 186.37 137.293 186.37C136.423 186.37 135.717 187.314 135.717 188.478C135.717 189.643 136.423 190.587 137.293 190.587Z" fill="#141414"/>
<path fill-rule="evenodd" clip-rule="evenodd" d="M109.413 195.902C109.413 195.902 127.033 196.674 138.174 179.065C149.315 161.457 118.739 162.489 106.043 168.446C97.913 172.261 109.413 195.902 109.413 195.902Z" fill="#141414"/>
<path fill-rule="evenodd" clip-rule="evenodd" d="M113.935 175.12C113.935 175.12 127.109 113.261 98.8478 117.043C70.587 120.837 113.935 175.12 113.935 175.12Z" fill="#141414"/>
<path fill-rule="evenodd" clip-rule="evenodd" d="M110.402 171.63C110.402 171.63 72.0761 140.87 64.8261 161.793C57.5761 182.707 110.402 171.63 110.402 171.63Z" fill="#141414"/>
<path fill-rule="evenodd" clip-rule="evenodd" d="M102.261 171.815C102.261 171.815 79.6956 173.304 83.75 182.652C87.8043 192 102.261 171.815 102.261 171.815Z" fill="#141414"/>
<path fill-rule="evenodd" clip-rule="evenodd" d="M112.25 173.207C112.25 173.207 78.7609 100.848 64.4348 129.587C50.1087 158.315 112.25 173.207 112.25 173.207Z" fill="#141414"/>
<path fill-rule="evenodd" clip-rule="evenodd" d="M270.739 344.826C270.609 344.826 270.5 344.717 270.5 344.587V343.152C270.5 343.022 270.609 342.913 270.739 342.913C270.87 342.913 270.978 343.022 270.978 343.152V344.587C270.978 344.717 270.87 344.826 270.739 344.826Z" fill="white"/>
</g>
<defs>
<linearGradient id="paint0_linear_113_357" x1="127.241" y1="395.926" x2="127.241" y2="278.804" gradientUnits="userSpaceOnUse">
<stop stop-color="#DC1D47"/>
<stop offset="1" stop-color="#E54327"/>
</linearGradient>
<linearGradient id="paint1_linear_113_357" x1="179.399" y1="400.002" x2="179.399" y2="276.63" gradientUnits="userSpaceOnUse">
<stop stop-color="#DC1D47"/>
<stop offset="1" stop-color="#E54327"/>
</linearGradient>
<clipPath id="clip0_113_357">
<rect width="400" height="400" fill="white"/>
</clipPath>
</defs>
</svg>
