<svg width="32" height="32" viewBox="0 0 32 32" fill="none" xmlns="http://www.w3.org/2000/svg">
<g clip-path="url(#clip0_83_443)">
<path d="M1 21.2104V23.2446C1 23.966 1.58652 24.5508 2.31009 24.5508H29.6899C30.4135 24.5508 31 23.966 31 23.2446V21.2104H1Z" stroke="#141414" stroke-miterlimit="10" stroke-linecap="round" stroke-linejoin="round"/>
<path d="M16.2317 12.7807C14.0784 12.9164 12.3032 11.1463 12.4392 8.99939C12.5517 7.22548 13.989 5.79244 15.7682 5.68034C17.9215 5.54465 19.6967 7.31463 19.5607 9.46158C19.4482 11.2355 18.0109 12.6686 16.2317 12.7807ZM22.9326 7.5524C21.8723 7.5562 21.3402 6.27919 22.0888 5.53276C22.6071 5.01613 22.6071 4.17843 22.0888 3.66179L21.5548 3.12934C21.0404 2.61639 20.2245 2.6415 19.712 3.15626C18.9649 3.90644 17.6831 3.37857 17.6831 2.32303C17.6831 1.59241 17.089 1.00009 16.3561 1.00009H15.6438C14.911 1.00009 14.3169 1.59241 14.3169 2.32303C14.3169 3.37701 13.0388 3.90487 12.2913 3.15958C11.7731 2.64295 10.933 2.64295 10.4148 3.15958L9.91113 3.66179C9.39291 4.17849 9.39291 5.01613 9.91113 5.53276C10.6597 6.27919 10.1276 7.5562 9.06732 7.5524C8.33987 7.5498 7.74512 8.10724 7.74512 8.83261V9.58562C7.74512 10.3163 8.33926 10.9086 9.07204 10.9086C10.1291 10.9086 10.6586 12.1829 9.91113 12.9282C9.39291 13.4449 9.39291 14.2825 9.91113 14.7992L10.4148 15.3014C10.933 15.8181 11.7731 15.8181 12.2913 15.3014C13.0388 14.5561 14.3169 15.084 14.3169 16.1379C14.3169 16.8685 14.911 17.4609 15.6438 17.4609H16.3561C17.089 17.4609 17.6831 16.8686 17.6831 16.138C17.6831 15.084 18.9611 14.5561 19.7087 15.3014C20.2268 15.8181 21.067 15.8181 21.5852 15.3014L22.0888 14.7992C22.6071 14.2825 22.6071 13.4449 22.0888 12.9282C21.3402 12.1818 21.8723 10.9048 22.9326 10.9086C23.6601 10.9112 24.2548 10.3538 24.2548 9.62842V8.83261C24.2548 8.10724 23.6601 7.5498 22.9326 7.5524Z" stroke="#DC1D47" stroke-miterlimit="10" stroke-linecap="round" stroke-linejoin="round"/>
<path d="M7.54363 5.20834H2.31009C1.58658 5.20834 1 5.79312 1 6.5145V21.21H31V6.5145C31 5.79312 30.4135 5.20834 29.69 5.20834H24.4662" stroke="#141414" stroke-miterlimit="10" stroke-linecap="round" stroke-linejoin="round"/>
<path d="M22.3375 31H9.6621C9.00965 31 8.48071 30.4727 8.48071 29.8222C8.48071 29.1716 9.00965 28.6443 9.6621 28.6443H22.3375C22.9899 28.6443 23.5189 29.1716 23.5189 29.8222C23.5189 30.4727 22.9899 31 22.3375 31Z" stroke="#141414" stroke-miterlimit="10" stroke-linecap="round" stroke-linejoin="round"/>
<path d="M20.687 28.6436C19.5619 27.8222 18.8806 26.5077 18.8806 25.0924V24.5498" stroke="#141414" stroke-miterlimit="10" stroke-linecap="round" stroke-linejoin="round"/>
<path d="M13.1193 24.5498V25.0924C13.1193 26.5077 12.438 27.8221 11.313 28.6436" stroke="#141414" stroke-miterlimit="10" stroke-linecap="round" stroke-linejoin="round"/>
</g>
<defs>
<clipPath id="clip0_83_443">
<rect width="32" height="32" fill="white"/>
</clipPath>
</defs>
</svg>
