<svg width="50" height="50" viewBox="0 0 50 50" fill="none" xmlns="http://www.w3.org/2000/svg">
<g clip-path="url(#clip0_74_359)">
<path d="M36.0361 48.6489H13.9639M18.6936 39.1895H31.3062V48.6489H18.6936V39.1895Z" stroke="#141414" stroke-miterlimit="10" stroke-linecap="round" stroke-linejoin="round"/>
<path d="M12.1635 7.6582H4.50444C4.09037 7.6581 3.68035 7.73965 3.29782 7.8982C2.91531 8.0567 2.56779 8.2891 2.27518 8.5821C1.98221 8.8747 1.74981 9.2222 1.59128 9.6047C1.43275 9.98725 1.35121 10.3973 1.35132 10.8114V36.0366C1.35121 36.4507 1.43275 36.8607 1.59128 37.2432C1.74981 37.6257 1.98221 37.9733 2.27518 38.2659C2.56779 38.5589 2.91531 38.7913 3.29782 38.9498C3.68035 39.1083 4.09037 39.1898 4.50444 39.1898H45.4954C45.9094 39.1898 46.3196 39.1083 46.702 38.9498C47.0846 38.7913 47.432 38.5589 47.7247 38.2659C48.0177 37.9733 48.25 37.6257 48.4086 37.2432C48.5671 36.8607 48.6486 36.4507 48.6485 36.0366V10.8114C48.6486 10.3973 48.5671 9.98725 48.4086 9.6047C48.25 9.2222 48.0177 8.8747 47.7247 8.5821C47.432 8.2891 47.0846 8.0567 46.702 7.8982C46.3196 7.73965 45.9094 7.6581 45.4954 7.6582H37.8363" stroke="#141414" stroke-miterlimit="10" stroke-linecap="round" stroke-linejoin="round"/>
<path d="M28.153 4.90278C29.2952 5.19761 30.3902 5.65191 31.4056 6.25231L33.9186 3.73929L38.378 8.19856L35.8649 10.7117C36.4657 11.7269 36.9201 12.8219 37.2145 13.9641H40.7657V20.2705H37.2145C36.9197 21.4127 36.4653 22.5075 35.8649 23.5229L38.378 26.036L33.9186 30.4954L31.4056 27.9823C30.3903 28.5831 29.2953 29.0374 28.153 29.3318V32.8831H21.8467V29.3318C20.7045 29.037 19.6095 28.5828 18.5942 27.9823L16.0813 30.4954L11.6219 26.036L14.1349 23.5229C13.5341 22.5078 13.0798 21.4128 12.7854 20.2705H9.23413V13.9641H12.7854C13.0801 12.822 13.5345 11.7271 14.1349 10.7117L11.6219 8.19856L16.0813 3.73929L18.5942 6.25231C19.6095 5.65161 20.7045 5.19726 21.8468 4.90278V1.35156H28.1532L28.153 4.90278Z" stroke="#DC1D47" stroke-miterlimit="10" stroke-linecap="round" stroke-linejoin="round"/>
<path d="M25 23.4232C28.4828 23.4232 31.3063 20.5997 31.3063 17.1169C31.3063 13.6339 28.4828 10.8105 25 10.8105C21.5171 10.8105 18.6936 13.6339 18.6936 17.1169C18.6936 20.5997 21.5171 23.4232 25 23.4232Z" stroke="#DC1D47" stroke-miterlimit="10" stroke-linecap="round" stroke-linejoin="round"/>
</g>
<defs>
<clipPath id="clip0_74_359">
<rect width="50" height="50" fill="white"/>
</clipPath>
</defs>
</svg>
