<svg width="100" height="100" viewBox="0 0 100 100" fill="none" xmlns="http://www.w3.org/2000/svg">
<path d="M72.0722 97.2973H27.9278M37.3873 78.3784H62.6124V97.2973H37.3873V78.3784Z" stroke="#141414" stroke-width="0.98" stroke-miterlimit="10" stroke-linecap="round" stroke-linejoin="round"/>
<path d="M24.327 15.3155H9.00895C8.18081 15.3153 7.36076 15.4784 6.5957 15.7955C5.83068 16.1125 5.13565 16.5773 4.55043 17.1633C3.96449 17.7485 3.49968 18.4435 3.18262 19.2085C2.86557 19.9736 2.70249 20.7936 2.7027 21.6218V72.0722C2.70249 72.9005 2.86557 73.7205 3.18262 74.4854C3.49968 75.2505 3.96449 75.9457 4.55043 76.5308C5.13565 77.1168 5.83068 77.5816 6.5957 77.8987C7.36076 78.2157 8.18081 78.3786 9.00895 78.3786H90.9908C91.8189 78.3786 92.6392 78.2157 93.4041 77.8987C94.1692 77.5816 94.8641 77.1168 95.4495 76.5308C96.0354 75.9457 96.5 75.2505 96.8173 74.4854C97.1343 73.7205 97.2973 72.9005 97.297 72.0722V21.6218C97.2973 20.7936 97.1343 19.9736 96.8173 19.2085C96.5 18.4435 96.0354 17.7485 95.4495 17.1633C94.8641 16.5773 94.1692 16.1125 93.4041 15.7955C92.6392 15.4784 91.8189 15.3153 90.9908 15.3155H75.6727" stroke="#141414" stroke-width="0.98" stroke-miterlimit="10" stroke-linecap="round" stroke-linejoin="round"/>
<path d="M56.3062 9.80514C58.5905 10.3948 60.7805 11.3034 62.8114 12.5042L67.8373 7.47816L76.7562 16.3967L71.73 21.423C72.9316 23.4534 73.8403 25.6433 74.4292 27.9278H81.5316V40.5405H74.4292C73.8395 42.8249 72.9308 45.0146 71.73 47.0454L76.7562 52.0716L67.8373 60.9903L62.8114 55.9641C60.7808 57.1657 58.5908 58.0743 56.3062 58.6632V65.7657H43.6935V58.6632C41.4092 58.0735 39.2192 57.1651 37.1886 55.9641L32.1627 60.9903L23.2439 52.0716L28.27 47.0454C27.0684 45.0151 26.1597 42.8251 25.5709 40.5405H18.4684V27.9278H25.5709C26.1604 25.6435 27.0692 23.4537 28.27 21.423L23.2439 16.3967L32.1627 7.47816L37.1886 12.5042C39.2192 11.3028 41.4092 10.3941 43.6938 9.80514V2.7027H56.3065L56.3062 9.80514Z" stroke="#DC1D47" stroke-width="0.98" stroke-miterlimit="10" stroke-linecap="round" stroke-linejoin="round"/>
<path d="M50 46.847C56.9657 46.847 62.6127 41.2 62.6127 34.2343C62.6127 27.2684 56.9657 21.6216 50 21.6216C43.0343 21.6216 37.3873 27.2684 37.3873 34.2343C37.3873 41.2 43.0343 46.847 50 46.847Z" stroke="#DC1D47" stroke-width="0.98" stroke-miterlimit="10" stroke-linecap="round" stroke-linejoin="round"/>
</svg>
