<svg width="32" height="32" viewBox="0 0 32 32" fill="none" xmlns="http://www.w3.org/2000/svg">
<path d="M31 5.99998C31 5.73739 30.9484 5.47736 30.8479 5.23474C30.7474 4.99213 30.6002 4.77168 30.4145 4.58599C30.2288 4.40016 30.0083 4.25275 29.7656 4.1522C29.5229 4.05165 29.2627 3.99993 29 4H2.99998C2.73735 3.99998 2.47729 4.05172 2.23467 4.15227C1.99205 4.25282 1.77162 4.4002 1.586 4.58599C1.40026 4.77166 1.25291 4.99209 1.15237 5.2347C1.05182 5.47732 1.00005 5.73736 1 5.99998V10H31V5.99998Z" stroke="#141414" stroke-miterlimit="10" stroke-linecap="round" stroke-linejoin="round"/>
<path d="M31 10H1V29C1.00005 29.2626 1.05182 29.5227 1.15237 29.7653C1.25291 30.0079 1.40026 30.2283 1.586 30.414C1.77162 30.5998 1.99205 30.7472 2.23467 30.8477C2.47729 30.9483 2.73735 31 2.99998 31H29C29.2627 31.0001 29.5229 30.9484 29.7656 30.8478C30.0083 30.7472 30.2288 30.5998 30.4145 30.414C30.6002 30.2283 30.7474 30.0079 30.8479 29.7653C30.9484 29.5226 31 29.2626 31 29V10Z" stroke="#141414" stroke-miterlimit="10" stroke-linecap="round" stroke-linejoin="round"/>
<path d="M11 1.99996V5.99998" stroke="#141414" stroke-miterlimit="10" stroke-linecap="round" stroke-linejoin="round"/>
<path d="M21 1.99996V5.99998" stroke="#141414" stroke-miterlimit="10" stroke-linecap="round" stroke-linejoin="round"/>
<circle cx="16" cy="20" r="5.5" stroke="#DC1D47"/>
<path d="M13 20L14.5 22L18.5 18.5" stroke="#DC1D47" stroke-linecap="round"/>
</svg>
