<svg width="100" height="100" viewBox="0 0 100 100" fill="none" xmlns="http://www.w3.org/2000/svg">
<path d="M83.2088 43.7262C84.0562 46.7177 84.5091 49.8753 84.5091 53.138C84.5091 67.0527 76.2553 79.0556 64.3794 84.5133" stroke="#141414" stroke-width="0.98" stroke-linecap="round" stroke-linejoin="round"/>
<path d="M35.6188 84.5133C23.7428 79.0556 15.4889 67.0527 15.4889 53.138C15.4889 49.8753 15.9419 46.7177 16.7914 43.7262" stroke="#141414" stroke-width="0.98" stroke-linecap="round" stroke-linejoin="round"/>
<path d="M29.0423 25.7247C34.8535 21.2727 42.1191 18.6269 50 18.6269C57.8809 18.6269 65.1468 21.2727 70.9579 25.7247" stroke="#141414" stroke-width="0.98" stroke-linecap="round" stroke-linejoin="round"/>
<path d="M65.6856 90.785V97.0588H34.3123V90.785C34.3123 82.1271 41.3418 75.0994 49.9979 75.0994C58.6541 75.0994 65.6856 82.1291 65.6856 90.785Z" stroke="#141414" stroke-width="0.98" stroke-linecap="round" stroke-linejoin="round"/>
<path d="M34.3144 37.4503V43.7241H2.94118V37.4503C2.94118 28.7924 9.97071 21.7648 18.6268 21.7648C27.2829 21.7648 34.3144 28.7943 34.3144 37.4503Z" stroke="#141414" stroke-width="0.98" stroke-linecap="round" stroke-linejoin="round"/>
<path d="M97.0588 37.4503V43.7241H65.6856V37.4503C65.6856 28.7924 72.7153 21.7648 81.3712 21.7648C90.0274 21.7648 97.0588 28.7943 97.0588 37.4503Z" stroke="#141414" stroke-width="0.98" stroke-linecap="round" stroke-linejoin="round"/>
<path d="M18.6268 2.94116C23.8209 2.94116 28.0386 7.15887 28.0386 12.3529C28.0386 17.547 23.8209 21.7647 18.6268 21.7647C13.4328 21.7647 9.21506 17.5489 9.21506 12.3529C9.21506 7.15693 13.4328 2.94116 18.6268 2.94116Z" stroke="#DC1D47" stroke-width="0.98" stroke-linecap="round" stroke-linejoin="round"/>
<path d="M81.3732 2.94116C86.5671 2.94116 90.785 7.15887 90.785 12.3529C90.785 17.547 86.5671 21.7647 81.3732 21.7647C76.1791 21.7647 71.9615 17.5489 71.9615 12.3529C71.9615 7.15693 76.1791 2.94116 81.3732 2.94116Z" stroke="#DC1D47" stroke-width="0.98" stroke-linecap="round" stroke-linejoin="round"/>
<path d="M50 56.2738C55.1941 56.2738 59.4118 60.4914 59.4118 65.6856C59.4118 70.8794 55.1941 75.0973 50 75.0973C44.8059 75.0973 40.5882 70.8814 40.5882 65.6856C40.5882 60.4894 44.8059 56.2738 50 56.2738Z" stroke="#DC1D47" stroke-width="0.98" stroke-linecap="round" stroke-linejoin="round"/>
</svg>
