<svg width="32" height="32" viewBox="0 0 32 32" fill="none" xmlns="http://www.w3.org/2000/svg">
<path d="M29.8125 16.625V27.2969C29.8125 28.3279 28.9686 29.1719 27.9375 29.1719H4.0625C3.03144 29.1719 2.1875 28.3281 2.1875 27.2969V16.6875" stroke="#141414" stroke-miterlimit="22.9256" stroke-linecap="round" stroke-linejoin="round"/>
<path d="M13.5625 19.7812C6.95069 19.4032 1 17.5125 1 14.1092V9.67188C1 8.63919 1.84225 7.79688 2.875 7.79688H29.25C30.2827 7.79688 31.125 8.63925 31.125 9.67188V14.1092C31.125 17.5338 25.0991 19.4268 18.4375 19.7882" stroke="#141414" stroke-miterlimit="22.9256" stroke-linecap="round" stroke-linejoin="round"/>
<path fill-rule="evenodd" clip-rule="evenodd" d="M13.6875 17.9219H18.3125V20.0781C18.3125 21.2641 17.3422 22.2344 16.1562 22.2344H15.8438C14.6578 22.2344 13.6875 21.2641 13.6875 20.0781V17.9219Z" stroke="#DC1D47" stroke-miterlimit="22.9256" stroke-linecap="round" stroke-linejoin="round"/>
<path d="M9 7.625V4.842C9 3.73438 9.90625 2.82812 11.0139 2.82812H21.4861C22.5938 2.82812 23.5 3.73438 23.5 4.842V7.625" stroke="#141414" stroke-miterlimit="22.9256" stroke-linecap="round" stroke-linejoin="round"/>
</svg>
