<svg width="32" height="32" viewBox="0 0 32 32" fill="none" xmlns="http://www.w3.org/2000/svg">
<g clip-path="url(#clip0_82_416)">
<path d="M18.5223 30.75H13.7927" stroke="#141414" stroke-miterlimit="10" stroke-linecap="round" stroke-linejoin="round"/>
<path d="M9.81323 13.6917C11.3978 11.9861 13.654 10.9199 16.1577 10.9199C18.6626 10.9199 20.9199 11.9871 22.5046 13.6943" stroke="#141414" stroke-miterlimit="10" stroke-linecap="round" stroke-linejoin="round"/>
<path d="M18.5222 30.75V29.6451C18.5222 26.1348 21.3507 23.2892 24.8399 23.2892C28.329 23.2892 31.1575 26.1348 31.1575 29.6451V30.75H18.5222Z" stroke="#141414" stroke-miterlimit="10" stroke-linecap="round" stroke-linejoin="round"/>
<path d="M1.15747 30.75V29.6451C1.15747 26.1348 3.98595 23.2892 7.47512 23.2892C10.9643 23.2892 13.7928 26.1348 13.7928 29.6451V30.75H1.15747Z" stroke="#141414" stroke-miterlimit="10" stroke-linecap="round" stroke-linejoin="round"/>
<path d="M21.2237 5.83518C21.2237 8.64342 18.961 10.9199 16.1696 10.9199C13.3783 10.9199 11.1155 8.64342 11.1155 5.83518C11.1155 3.02694 13.3783 0.750431 16.1696 0.750431C18.961 0.750431 21.2237 3.02694 21.2237 5.83518Z" stroke="#DC1D47" stroke-miterlimit="10" stroke-linecap="round" stroke-linejoin="round"/>
<path d="M29.8941 18.2043C29.8941 21.0126 27.6313 23.2891 24.84 23.2891C22.0487 23.2891 19.7859 21.0126 19.7859 18.2043C19.7859 15.3961 22.0487 13.1196 24.84 13.1196C27.6313 13.1196 29.8941 15.3961 29.8941 18.2043Z" stroke="#DC1D47" stroke-miterlimit="10" stroke-linecap="round" stroke-linejoin="round"/>
<path d="M12.5621 18.2377C12.5621 21.0642 10.2846 23.3555 7.47509 23.3555C4.6657 23.3555 2.38818 21.0642 2.38818 18.2377C2.38818 15.4113 4.6657 13.1199 7.47509 13.1199C10.2846 13.1199 12.5621 15.4113 12.5621 18.2377Z" stroke="#DC1D47" stroke-miterlimit="10" stroke-linecap="round" stroke-linejoin="round"/>
</g>
<defs>
<clipPath id="clip0_82_416">
<rect width="32" height="32" fill="white"/>
</clipPath>
</defs>
</svg>
