<svg width="50" height="50" viewBox="0 0 50 50" fill="none" xmlns="http://www.w3.org/2000/svg">
<g clip-path="url(#clip0_74_349)">
<path d="M41.6044 21.8633C42.0281 23.359 42.2545 24.9378 42.2545 26.5692C42.2545 33.5265 38.1276 39.528 32.1897 42.2568" stroke="#141414" stroke-linecap="round" stroke-linejoin="round"/>
<path d="M17.8093 42.2568C11.8713 39.528 7.74438 33.5265 7.74438 26.5692C7.74438 24.9378 7.97089 23.359 8.39564 21.8633" stroke="#141414" stroke-linecap="round" stroke-linejoin="round"/>
<path d="M14.5212 12.8624C17.4268 10.6364 21.0596 9.31348 25.0001 9.31348C28.9405 9.31348 32.5735 10.6364 35.479 12.8624" stroke="#141414" stroke-linecap="round" stroke-linejoin="round"/>
<path d="M32.8429 45.3926V48.5295H17.1562V45.3926C17.1562 41.0637 20.671 37.5498 24.999 37.5498C29.3271 37.5498 32.8429 41.0647 32.8429 45.3926Z" stroke="#141414" stroke-linecap="round" stroke-linejoin="round"/>
<path d="M17.1573 18.7256V21.8625H1.4707V18.7256C1.4707 14.3966 4.98547 10.8828 9.31351 10.8828C13.6416 10.8828 17.1573 14.3976 17.1573 18.7256Z" stroke="#141414" stroke-linecap="round" stroke-linejoin="round"/>
<path d="M48.5294 18.7256V21.8625H32.8428V18.7256C32.8428 14.3966 36.3576 10.8828 40.6856 10.8828C45.0137 10.8828 48.5294 14.3976 48.5294 18.7256Z" stroke="#141414" stroke-linecap="round" stroke-linejoin="round"/>
<path d="M9.31329 1.4707C11.9103 1.4707 14.0192 3.57956 14.0192 6.17657C14.0192 8.77362 11.9103 10.8825 9.31329 10.8825C6.71629 10.8825 4.60742 8.77457 4.60742 6.17657C4.60742 3.57859 6.71629 1.4707 9.31329 1.4707Z" stroke="#DC1D47" stroke-linecap="round" stroke-linejoin="round"/>
<path d="M40.6866 1.4707C43.2835 1.4707 45.3925 3.57956 45.3925 6.17657C45.3925 8.77362 43.2835 10.8825 40.6866 10.8825C38.0895 10.8825 35.9807 8.77457 35.9807 6.17657C35.9807 3.57859 38.0895 1.4707 40.6866 1.4707Z" stroke="#DC1D47" stroke-linecap="round" stroke-linejoin="round"/>
<path d="M25.0001 28.1367C27.5971 28.1367 29.706 30.2455 29.706 32.8426C29.706 35.4395 27.5971 37.5485 25.0001 37.5485C22.403 37.5485 20.2942 35.4405 20.2942 32.8426C20.2942 30.2445 22.403 28.1367 25.0001 28.1367Z" stroke="#DC1D47" stroke-linecap="round" stroke-linejoin="round"/>
</g>
<defs>
<clipPath id="clip0_74_349">
<rect width="50" height="50" fill="white"/>
</clipPath>
</defs>
</svg>
