<svg width="32" height="32" viewBox="0 0 32 32" fill="none" xmlns="http://www.w3.org/2000/svg">
<path d="M8.469 13.4166C8.469 13.9802 8.01217 14.4371 7.44855 14.4371C6.88499 14.4371 6.4281 13.9802 6.4281 13.4166C6.4281 12.8531 6.88499 12.3962 7.44855 12.3962C8.01217 12.3962 8.469 12.8531 8.469 13.4166Z" stroke="#DC1D47" stroke-miterlimit="10" stroke-linecap="round" stroke-linejoin="round"/>
<path d="M20.1531 13.4166C20.1531 13.9802 19.6963 14.4371 19.1327 14.4371C18.5691 14.4371 18.1122 13.9802 18.1122 13.4166C18.1122 12.8531 18.5691 12.3962 19.1327 12.3962C19.6963 12.3962 20.1531 12.8531 20.1531 13.4166Z" stroke="#DC1D47" stroke-miterlimit="10" stroke-linecap="round" stroke-linejoin="round"/>
<path d="M26.8728 21.2472V23.9327C26.8728 25.7664 25.3863 27.2529 23.5527 27.2529C21.7189 27.2529 20.2325 25.7664 20.2325 23.9327V21.2472" stroke="#141414" stroke-miterlimit="10" stroke-linecap="round" stroke-linejoin="round"/>
<path d="M27.8382 20.2196C27.8382 20.7528 27.406 21.185 26.8729 21.185C26.3398 21.185 25.9076 20.7528 25.9076 20.2196C25.9076 19.6865 26.3398 19.2543 26.8729 19.2543C27.406 19.2543 27.8382 19.6865 27.8382 20.2196Z" stroke="#141414" stroke-miterlimit="10" stroke-linecap="round" stroke-linejoin="round"/>
<path d="M21.1978 20.2196C21.1978 20.7528 20.7656 21.185 20.2325 21.185C19.6994 21.185 19.2672 20.7528 19.2672 20.2196C19.2672 19.6865 19.6994 19.2543 20.2325 19.2543C20.7656 19.2543 21.1978 19.6865 21.1978 20.2196Z" stroke="#141414" stroke-miterlimit="10" stroke-linecap="round" stroke-linejoin="round"/>
<path d="M12.2342 9.87633H5.19466C4.61999 9.87633 4.13744 10.3089 4.07485 10.8802L2.00684 29.7507C1.93374 30.4175 2.45589 31 3.12671 31H17.1357C16.7122 31 16.3825 30.6323 16.4286 30.2113L17.7343 18.2972C17.7534 18.123 17.8361 17.962 17.9666 17.8451C18.097 17.7281 18.2661 17.6634 18.4413 17.6634H23.2498L22.5064 10.8802C22.4438 10.3089 21.9612 9.87633 21.3865 9.87633H14.347" stroke="#141414" stroke-miterlimit="10" stroke-linecap="round" stroke-linejoin="round"/>
<path d="M29.9167 23.2754L29.3711 18.2972C29.3521 18.123 29.2693 17.962 29.1389 17.8451C29.0084 17.7281 28.8393 17.6634 28.6641 17.6634H18.4413C18.2661 17.6634 18.097 17.7281 17.9665 17.8451C17.8361 17.962 17.7533 18.123 17.7342 18.2972L16.4286 30.2112C16.3825 30.6322 16.7121 31 17.1357 31H29.9698C30.3933 31 30.7229 30.6322 30.6768 30.2112L30.1482 25.3881" stroke="#141414" stroke-miterlimit="10" stroke-linecap="round" stroke-linejoin="round"/>
<path d="M19.1326 12.3339V6.84208C19.1326 3.61557 16.5171 1 13.2906 1C10.0642 1 7.44855 3.61557 7.44855 6.84208V12.3339" stroke="#DC1D47" stroke-miterlimit="10" stroke-linecap="round" stroke-linejoin="round"/>
</svg>
