<svg width="64" height="64" viewBox="0 0 64 64" fill="none" xmlns="http://www.w3.org/2000/svg">
<path d="M31.99 32.01C31.99 26.13 36.42 21.34 41.9 21.34C47.36 21.34 51.81 26.11 51.81 32.01C51.81 37.89 47.38 42.68 41.9 42.68C36.44 42.68 31.99 37.89 31.99 32.01Z" fill="#47B8E9"/>
<path d="M12.19 53.33C12.19 47.45 16.62 42.66 22.1 42.66H32.01V53.33C32.01 59.21 27.58 64 22.1 64C16.62 64 12.19 59.23 12.19 53.33Z" fill="#48BA7F"/>
<path d="M31.99 0.02V21.34H41.9C47.36 21.34 51.81 16.57 51.81 10.67C51.81 4.79 47.38 0 41.9 0H31.99V0.02Z" fill="#F37264"/>
<path d="M12.19 10.7C12.19 16.58 16.62 21.37 22.1 21.37H32.01V0.0200195H22.1C16.62 0.0200195 12.19 4.79002 12.19 10.7Z" fill="#F05023"/>
<path d="M12.19 32.01C12.19 37.89 16.62 42.68 22.1 42.68H32.01V21.34H22.1C16.62 21.34 12.19 26.13 12.19 32.01Z" fill="#8162AA"/>
</svg>
