<svg width="32" height="32" viewBox="0 0 32 32" fill="none" xmlns="http://www.w3.org/2000/svg">
<path d="M13.7614 6.06715C13.3688 5.50747 12.5374 4.6557 11.1787 4.80745C10.0279 4.93597 9.16946 4.56667 8.62433 4.20112" stroke="#141414" stroke-miterlimit="10" stroke-linecap="round" stroke-linejoin="round"/>
<path d="M13.6433 6.65954C13.6433 6.65954 10.4393 6.4292 9.24451 8.47119" stroke="#141414" stroke-miterlimit="10" stroke-linecap="round" stroke-linejoin="round"/>
<path d="M19.5713 7.64085C17.8503 8.07546 16.1501 8.07552 14.4289 7.64085C13.8298 7.48952 13.4902 6.81588 13.7058 6.20351L13.713 6.18305C13.8937 5.66961 14.4064 5.3815 14.9089 5.50765C16.318 5.86144 17.6817 5.86156 19.0913 5.50765C19.5937 5.3815 20.1064 5.66967 20.2871 6.18305L20.2944 6.20357C20.51 6.81594 20.1704 7.48952 19.5713 7.64085Z" stroke="#141414" stroke-miterlimit="10" stroke-linecap="round" stroke-linejoin="round"/>
<path d="M19.5713 5.50971C20.3834 4.33048 21.743 2.1199 21.1306 1.32686C20.8403 0.951106 20.5928 1.46147 19.9925 1.46147C19.2872 1.46147 19.2872 0.999999 18.5819 0.999999C17.8767 0.999999 17.8767 1.46147 17.1714 1.46147C16.4663 1.46147 16.4663 0.999999 15.7611 0.999999C15.0559 0.999999 15.0559 1.46147 14.3507 1.46147C13.7498 1.46147 13.5032 0.944466 13.2111 1.32046C12.6031 2.10299 13.9146 4.29021 14.716 5.47929" stroke="#141414" stroke-miterlimit="10" stroke-linecap="round" stroke-linejoin="round"/>
<path d="M22.0688 8.59704C21.5062 8.09586 20.8936 7.6001 20.2285 7.11232" stroke="#141414" stroke-miterlimit="10" stroke-linecap="round" stroke-linejoin="round"/>
<path d="M13.867 7.2628C8.26931 11.4545 6.51971 16.2261 7.09038 19.9399" stroke="#141414" stroke-miterlimit="10" stroke-linecap="round" stroke-linejoin="round"/>
<path d="M25.9125 23.3341C28.1451 20.1957 28.0916 15.0041 23.5785 10.0812" stroke="#141414" stroke-miterlimit="10" stroke-linecap="round" stroke-linejoin="round"/>
<path d="M14.3975 26.1499H19.5174" stroke="#141414" stroke-miterlimit="10" stroke-linecap="round" stroke-linejoin="round"/>
<path d="M4.80017 28.7722L9.94398 30.6867C10.5006 30.8939 11.0898 31 11.6837 31H18.4382C19.3834 31 20.3092 30.7314 21.1076 30.2254L29.5649 24.8665C30.1228 24.371 30.2262 23.5383 29.8064 22.9214C29.3472 22.2465 28.5873 22.1291 27.7513 22.5244L19.5173 26.15L19.5271 24.814C19.418 23.7176 18.5738 22.8375 17.4827 22.6831L12.4685 22.1059C11.3118 21.9422 10.7338 21.5546 9.72547 20.9647C8.34881 20.1594 6.78262 19.7349 5.1877 19.7349H4.80017" stroke="#141414" stroke-miterlimit="10" stroke-linecap="round" stroke-linejoin="round"/>
<path d="M4.80015 23.5825V29.5526C4.80015 30.0282 4.41468 30.4137 3.93915 30.4137H1.86106C1.38553 30.4137 1 30.0282 1 29.5526V19.0096C1 18.534 1.38553 18.1486 1.86106 18.1486H3.93915C4.41468 18.1486 4.80015 18.534 4.80015 19.0096V21.4662" stroke="#141414" stroke-miterlimit="10" stroke-linecap="round" stroke-linejoin="round"/>
<path d="M18.7569 11.9832C18.7569 11.9832 17.8536 11.1501 16.4613 11.5695C15.1829 11.9546 14.8654 13.7039 15.7341 14.3852C16.233 14.7764 16.9836 15.0982 17.9952 15.4557C20.2592 16.256 19.4222 19.449 17.1192 19.4643C16.2205 19.4702 15.8003 19.4133 15.0108 18.8967" stroke="#DC1D47" stroke-miterlimit="10" stroke-linecap="round" stroke-linejoin="round"/>
<path d="M17.1193 10.3737V20.6298" stroke="#DC1D47" stroke-miterlimit="10" stroke-linecap="round" stroke-linejoin="round"/>
</svg>
