<svg width="64" height="64" viewBox="0 0 64 64" fill="none" xmlns="http://www.w3.org/2000/svg">
<g clip-path="url(#clip0_54_602)">
<path d="M39.24 23.1L32.84 29.06L26.9 17.07L29.97 10.18C30.77 8.77996 32.02 8.79996 32.8 10.18L39.24 23.1Z" fill="#F9A01B"/>
<path d="M26.89 17.0699L32.83 29.0599L8.90002 51.3199L26.89 17.0699Z" fill="#F58020"/>
<path d="M46.24 13.99C47.38 12.89 48.57 13.27 48.87 14.82L55.1 51.02L34.45 63.42C33.73 63.82 31.81 63.99 31.81 63.99C31.81 63.99 30.06 63.78 29.4 63.39L8.90002 51.32L46.24 13.99Z" fill="#FFCB2A"/>
<path d="M26.89 17.07L8.90002 51.32L16.91 1.26996C17.21 -0.290044 18.09 -0.440044 18.89 0.939956L26.89 17.07Z" fill="#F9A01B"/>
</g>
<defs>
<clipPath id="clip0_54_602">
<rect width="64" height="64" fill="white"/>
</clipPath>
</defs>
</svg>
