<svg width="35" height="35" viewBox="0 0 35 35" fill="none" xmlns="http://www.w3.org/2000/svg">
<g clip-path="url(#clip0_46_322)">
<path d="M31.5289 28.0353H3.50264C1.95482 28.0353 0.700012 26.7865 0.700012 25.246V3.48933C0.700012 1.94879 1.95482 0.700012 3.50264 0.700012H31.5289C33.0768 0.700012 34.3315 1.94879 34.3315 3.48933V25.246C34.3315 26.7865 33.0768 28.0353 31.5289 28.0353Z" stroke="#141414" stroke-width="0.89" stroke-miterlimit="10" stroke-linecap="round" stroke-linejoin="round"/>
<path d="M9.10788 34.3315H25.9236" stroke="#141414" stroke-width="0.89" stroke-miterlimit="10" stroke-linecap="round" stroke-linejoin="round"/>
<path d="M21.7197 34.3315V28.2102" stroke="#141414" stroke-width="0.89" stroke-miterlimit="10" stroke-linecap="round" stroke-linejoin="round"/>
<path d="M13.3118 34.2734V28.2102" stroke="#141414" stroke-width="0.89" stroke-miterlimit="10" stroke-linecap="round" stroke-linejoin="round"/>
<path d="M0.700012 21.7391H34.3" stroke="#141414" stroke-width="0.89" stroke-miterlimit="10" stroke-linecap="round" stroke-linejoin="round"/>
<path d="M22.6305 6.99615L27.0895 11.2499L22.6305 15.5036" stroke="#DC1D47" stroke-width="0.89" stroke-miterlimit="10" stroke-linecap="round" stroke-linejoin="round"/>
<path d="M12.2608 15.5036L7.80185 11.2499L12.2608 6.99615" stroke="#DC1D47" stroke-width="0.89" stroke-miterlimit="10" stroke-linecap="round" stroke-linejoin="round"/>
<path d="M18.5667 6.99615L16.4648 15.5036" stroke="#DC1D47" stroke-width="0.89" stroke-miterlimit="10" stroke-linecap="round" stroke-linejoin="round"/>
<path d="M19.0943 24.8872C19.0943 25.767 18.3806 26.4804 17.5 26.4804C16.6194 26.4804 15.9058 25.767 15.9058 24.8872C15.9058 24.0074 16.6194 23.294 17.5 23.294C18.3806 23.294 19.0943 24.0074 19.0943 24.8872Z" stroke="#141414" stroke-width="0.89"/>
</g>
<defs>
<clipPath id="clip0_46_322">
<rect width="35" height="35" fill="white"/>
</clipPath>
</defs>
</svg>
