<svg width="100" height="100" viewBox="0 0 100 100" fill="none" xmlns="http://www.w3.org/2000/svg">
<path d="M83.8788 36.8235H70.7594L62.4744 25.2157C61.8753 24.3744 60.9626 23.8182 59.9503 23.6756L46.7738 21.7933C45.9038 21.665 44.9912 21.8646 44.2497 22.3209L29.1909 31.7326C28.592 32.1035 28.1214 32.6167 27.8219 33.2444L20.2925 48.3032C19.3656 50.157 20.1214 52.4244 21.9752 53.3512C22.5171 53.622 23.0875 53.7506 23.6579 53.7506C25.0412 53.7506 26.3674 52.9947 27.0376 51.6685L34.0965 37.565L44.0644 31.3335L39.0021 48.0035C38.845 48.6026 38.7738 49.2015 38.7594 49.8003C38.7594 49.8573 38.7309 49.9144 38.7309 49.9859V73.2585L31.6865 89.1017C30.4174 91.9538 31.7006 95.2906 34.5527 96.5597C35.2944 96.8876 36.0785 97.0447 36.8485 97.0447C39.0162 97.0447 41.0697 95.7897 42.0109 93.6935L49.5403 76.7523C49.8541 76.025 50.025 75.255 50.025 74.4565V60.5385L61.3191 68.0676V80.1176C61.3191 83.2406 63.8576 85.7647 66.9662 85.7647C70.075 85.7647 72.6132 83.2406 72.6132 80.1176V65.0588C72.6132 63.1765 71.6721 61.4082 70.1035 60.3673L54.1465 49.7291L59.1088 33.4297L65.7971 42.7844C66.51 43.7826 67.6365 44.3529 68.8629 44.3529H83.9218C86.0038 44.3529 87.6865 42.6703 87.6865 40.5882C87.6865 38.5062 86.0038 36.8235 83.9218 36.8235H83.8788Z" stroke="#141414" stroke-width="0.98" stroke-linecap="round" stroke-linejoin="round"/>
<path d="M57.5262 21.7647C62.7241 21.7647 66.9379 17.5509 66.9379 12.3529C66.9379 7.15496 62.7241 2.94116 57.5262 2.94116C52.3282 2.94116 48.1144 7.15496 48.1144 12.3529C48.1144 17.5509 52.3282 21.7647 57.5262 21.7647Z" stroke="#DC1D47" stroke-width="0.98" stroke-linecap="round" stroke-linejoin="round"/>
<path d="M97.0556 74.4703H80.1144V85.7644H61.2909V97.0585H14.232" stroke="#141414" stroke-width="0.98" stroke-linecap="round" stroke-linejoin="round"/>
<path d="M10.4706 48.1153L2.94118 61.1565L22.5031 72.4506L30.0326 59.4094L10.4706 48.1153Z" stroke="#DC1D47" stroke-width="0.98" stroke-linecap="round" stroke-linejoin="round"/>
</svg>
