<svg width="50" height="50" viewBox="0 0 50 50" fill="none" xmlns="http://www.w3.org/2000/svg">
<g clip-path="url(#clip0_74_344)">
<path d="M41.9395 18.4121H35.3798L31.2373 12.6082C30.9377 12.1876 30.4814 11.9095 29.9752 11.8382L23.387 10.897C22.952 10.8329 22.4957 10.9327 22.1249 11.1608L14.5955 15.8667C14.2961 16.0521 14.0608 16.3087 13.911 16.6226L10.1463 24.152C9.68285 25.0789 10.0608 26.2126 10.9877 26.676C11.2586 26.8114 11.5438 26.8757 11.829 26.8757C12.5207 26.8757 13.1838 26.4977 13.5189 25.8346L17.0483 18.7829L22.0323 15.6671L19.5011 24.0021C19.4226 24.3017 19.387 24.6011 19.3798 24.9005C19.3798 24.929 19.3655 24.9576 19.3655 24.9933V36.6296L15.8433 44.5512C15.2088 45.9773 15.8504 47.6457 17.2764 48.2802C17.6473 48.4442 18.0393 48.5227 18.4243 48.5227C19.5082 48.5227 20.5349 47.8952 21.0055 46.8471L24.7702 38.3765C24.9271 38.0129 25.0126 37.6279 25.0126 37.2286V30.2696L30.6596 34.0342V40.0592C30.6596 41.6207 31.9289 42.8827 33.4832 42.8827C35.0376 42.8827 36.3067 41.6207 36.3067 40.0592V32.5298C36.3067 31.5886 35.8361 30.7045 35.0518 30.184L27.0733 24.8649L29.5545 16.7152L32.8986 21.3926C33.255 21.8917 33.8183 22.1768 34.4315 22.1768H41.9609C43.0019 22.1768 43.8433 21.3355 43.8433 20.2945C43.8433 19.2535 43.0019 18.4121 41.9609 18.4121H41.9395Z" stroke="#141414" stroke-linecap="round" stroke-linejoin="round"/>
<path d="M28.763 10.8825C31.362 10.8825 33.4689 8.77557 33.4689 6.17657C33.4689 3.5776 31.362 1.4707 28.763 1.4707C26.164 1.4707 24.0571 3.5776 24.0571 6.17657C24.0571 8.77557 26.164 10.8825 28.763 10.8825Z" stroke="#DC1D47" stroke-linecap="round" stroke-linejoin="round"/>
<path d="M48.5278 37.2354H40.0572V42.8824H30.6454V48.5295H7.11597" stroke="#141414" stroke-linecap="round" stroke-linejoin="round"/>
<path d="M5.23541 24.0576L1.4707 30.5782L11.2517 36.2253L15.0164 29.7047L5.23541 24.0576Z" stroke="#DC1D47" stroke-linecap="round" stroke-linejoin="round"/>
</g>
<defs>
<clipPath id="clip0_74_344">
<rect width="50" height="50" fill="white"/>
</clipPath>
</defs>
</svg>
