<svg width="32" height="32" viewBox="0 0 32 32" fill="none" xmlns="http://www.w3.org/2000/svg">
<g clip-path="url(#clip0_83_460)">
<path d="M26.2277 11.2281H22.0438L19.4029 7.52749C19.3089 7.39515 19.1889 7.2835 19.05 7.19944C18.9112 7.11539 18.7566 7.06071 18.5958 7.03882L14.3955 6.44035C14.1147 6.39918 13.8286 6.45953 13.5884 6.61056L8.78961 9.60842C8.59887 9.72279 8.44606 9.89086 8.35033 10.0916L5.95095 14.8904C5.88069 15.0319 5.83918 15.186 5.82877 15.3437C5.81836 15.5014 5.83929 15.6596 5.89033 15.8091C5.94138 15.9587 6.02154 16.0967 6.12619 16.2151C6.23083 16.3335 6.35787 16.43 6.50001 16.4991C6.67008 16.5851 6.85852 16.6284 7.04907 16.6254C7.2763 16.6303 7.50025 16.5705 7.69471 16.4528C7.88917 16.3352 8.04611 16.1646 8.14719 15.961L10.3983 11.4642L13.5774 9.47664L11.9631 14.7915C11.916 14.9802 11.8902 15.1736 11.8863 15.368C11.8863 15.368 11.8863 15.4065 11.8863 15.4284V22.8462L9.64064 27.8975C9.54371 28.1134 9.49039 28.3463 9.48377 28.5828C9.47715 28.8193 9.51733 29.0548 9.60203 29.2757C9.68674 29.4967 9.81426 29.6987 9.9773 29.8702C10.1403 30.0417 10.3357 30.1792 10.5521 30.2749C10.9891 30.4674 11.4845 30.4789 11.93 30.3071C12.3755 30.1353 12.7349 29.7941 12.9295 29.358L15.3289 23.9553C15.4317 23.7257 15.4841 23.4766 15.4826 23.225V18.7996L19.0844 21.199V25.0424C19.0844 25.5201 19.2742 25.9781 19.6119 26.3159C19.9497 26.6536 20.4077 26.8433 20.8853 26.8433C21.363 26.8433 21.821 26.6536 22.1588 26.3159C22.4965 25.9781 22.6863 25.5201 22.6863 25.0424V20.2382C22.6854 19.9418 22.6119 19.6502 22.4721 19.3889C22.3324 19.1275 22.1306 18.9045 21.8846 18.7393L16.8003 15.3461L18.3816 10.152L20.512 13.1334C20.6226 13.2892 20.7692 13.4161 20.9394 13.5031C21.1095 13.5901 21.2982 13.6346 21.4893 13.633H26.2881C26.5922 13.6124 26.8772 13.4771 27.0854 13.2544C27.2935 13.0316 27.4093 12.7382 27.4093 12.4333C27.4093 12.1285 27.2935 11.835 27.0854 11.6123C26.8772 11.3896 26.5922 11.2542 26.2881 11.2336L26.2277 11.2281Z" stroke="#141414" stroke-linecap="round" stroke-linejoin="round"/>
<path d="M17.8274 6.42344C19.4831 6.42344 20.8253 5.08126 20.8253 3.42559C20.8253 1.76992 19.4831 0.427734 17.8274 0.427734C16.1718 0.427734 14.8296 1.76992 14.8296 3.42559C14.8296 5.08126 16.1718 6.42344 17.8274 6.42344Z" stroke="#DC1D47" stroke-linecap="round" stroke-linejoin="round"/>
<path d="M30.4275 23.2236H25.0303V26.8255H19.0291V30.4273H4.02881" stroke="#141414" stroke-linecap="round" stroke-linejoin="round"/>
<path d="M2.8242 14.8246L0.424805 18.9805L6.66335 22.5823L9.06274 18.4264L2.8242 14.8246Z" stroke="#DC1D47" stroke-linecap="round" stroke-linejoin="round"/>
</g>
<defs>
<clipPath id="clip0_83_460">
<rect width="32" height="32" fill="white"/>
</clipPath>
</defs>
</svg>
