<svg width="64" height="64" viewBox="0 0 64 64" fill="none" xmlns="http://www.w3.org/2000/svg">
<g clip-path="url(#clip0_54_614)">
<path fill-rule="evenodd" clip-rule="evenodd" d="M59.38 49.78C55.51 56.4 49.4 61.42 42.16 63.93C40.53 64.26 39.96 63.23 39.96 62.36V53.36C40.04 52.25 39.89 51.13 39.52 50.08C39.15 49.04 38.56 48.08 37.8 47.28C44.92 46.47 52.39 43.69 52.39 31.09C52.43 27.85 51.26 24.71 49.11 22.29C50.08 19.46 49.97 16.36 48.79 13.61C48.79 13.61 46.11 12.73 40.01 16.97C34.78 15.5 29.24 15.5 24.01 16.97C17.88 12.74 15.22 13.61 15.22 13.61C14.04 16.36 13.93 19.46 14.91 22.29C12.74 24.7 11.56 27.85 11.61 31.09C11.61 43.66 19.08 46.48 26.18 47.3C25.02 48.48 24.31 50.04 24.18 51.69C22.32 52.51 17.7 53.96 14.85 48.96C14.35 48.05 13.64 47.27 12.79 46.68C11.94 46.09 10.97 45.71 9.95 45.57C9.95 45.57 6.84 45.57 9.74 47.57C9.74 47.57 11.83 48.57 13.28 52.37C13.28 52.37 15.16 58.24 24.06 56.24V62.35C24.06 63.23 23.48 64.24 21.88 63.94C14.62 61.44 8.5 56.43 4.62 49.8C0.690004 43.1 -0.799996 35.23 0.410004 27.55C1.6 19.91 5.43 12.93 11.23 7.82C16.97 2.79 24.34 0.01 31.97 0H32.04C39.66 0.01 47.02 2.79 52.74 7.82C58.55 12.92 62.39 19.9 63.58 27.54C64.8 35.22 63.32 43.08 59.38 49.78Z" fill="#191718"/>
</g>
<defs>
<clipPath id="clip0_54_614">
<rect width="64" height="64" fill="white"/>
</clipPath>
</defs>
</svg>
