<svg width="64" height="64" viewBox="0 0 64 64" fill="none" xmlns="http://www.w3.org/2000/svg">
<path d="M32.53 2.10999L6.37 47.43L8.72 48.79L34.88 3.45999L32.53 2.10999Z" fill="#DA2590"/>
<path d="M58.16 43.8101H5.83002V46.5201H58.16V43.8101Z" fill="#DA2590"/>
<path d="M8.21999 42.98L6.85999 45.33L33.03 60.44L34.39 58.09L8.21999 42.98Z" fill="#DA2590"/>
<path d="M30.96 3.58997L29.6 5.93997L55.77 21.05L57.13 18.7L30.96 3.58997Z" fill="#DA2590"/>
<path d="M33.05 3.57996L6.87 18.7L8.22999 21.05L34.4 5.92996L33.05 3.57996Z" fill="#DA2590"/>
<path d="M31.48 2.10999L29.13 3.46999L55.3 48.79L57.65 47.43L31.48 2.10999Z" fill="#DA2590"/>
<path d="M10.62 16.9H7.90997V47.13H10.62V16.9Z" fill="#DA2590"/>
<path d="M56.1 16.9H53.39V47.13H56.1V16.9Z" fill="#DA2590"/>
<path d="M54.16 44.1L31.39 57.24L32.57 59.29L55.33 46.15L54.16 44.1Z" fill="#DA2590"/>
<path d="M59.7 48C59.14 48.98 58.29 49.77 57.28 50.27C56.27 50.77 55.13 50.96 54.01 50.81C52.89 50.66 51.84 50.19 50.99 49.44C50.14 48.7 49.53 47.71 49.24 46.62C48.95 45.53 48.98 44.37 49.35 43.3C49.71 42.23 50.39 41.29 51.28 40.6C52.18 39.91 53.26 39.51 54.39 39.43C55.52 39.36 56.64 39.62 57.62 40.19C58.93 40.95 59.89 42.19 60.28 43.65C60.65 45.14 60.45 46.69 59.7 48Z" fill="#DA2590"/>
<path d="M14.18 21.73C13.62 22.71 12.77 23.5 11.76 24C10.75 24.5 9.61 24.69 8.49 24.54C7.37 24.39 6.32 23.92 5.47 23.17C4.62 22.42 4 21.45 3.71 20.36C3.42 19.27 3.45 18.11 3.82 17.04C4.18 15.97 4.86 15.03 5.75 14.34C6.65 13.65 7.73 13.25 8.86 13.17C9.99 13.1 11.11 13.36 12.09 13.93C13.4 14.69 14.36 15.93 14.75 17.39C15.14 18.86 14.93 20.42 14.18 21.73Z" fill="#DA2590"/>
<path d="M4.30998 48.01C3.73998 47.03 3.47998 45.91 3.54998 44.78C3.61998 43.65 4.02998 42.57 4.71998 41.67C5.40998 40.77 6.34998 40.1 7.41998 39.74C8.48998 39.38 9.63998 39.34 10.74 39.63C11.83 39.92 12.81 40.53 13.56 41.38C14.3 42.23 14.78 43.28 14.93 44.4C15.08 45.52 14.89 46.66 14.39 47.67C13.89 48.68 13.1 49.53 12.12 50.09C10.81 50.84 9.24998 51.05 7.78998 50.66C6.30998 50.27 5.05998 49.31 4.30998 48.01Z" fill="#DA2590"/>
<path d="M49.83 21.73C49.26 20.75 49 19.63 49.07 18.5C49.14 17.37 49.55 16.29 50.24 15.39C50.93 14.49 51.87 13.82 52.94 13.46C54.01 13.1 55.16 13.06 56.26 13.35C57.35 13.64 58.33 14.25 59.08 15.1C59.83 15.95 60.3 17 60.45 18.12C60.6 19.24 60.41 20.38 59.91 21.39C59.41 22.4 58.62 23.24 57.64 23.81C56.33 24.56 54.77 24.77 53.31 24.38C51.83 23.99 50.58 23.04 49.83 21.73Z" fill="#DA2590"/>
<path d="M32.01 64C30.88 64 29.78 63.67 28.84 63.04C27.9 62.41 27.17 61.52 26.74 60.48C26.31 59.44 26.19 58.29 26.41 57.18C26.63 56.07 27.17 55.05 27.97 54.26C28.77 53.46 29.79 52.92 30.89 52.7C32 52.48 33.15 52.59 34.19 53.03C35.23 53.46 36.13 54.19 36.75 55.13C37.38 56.07 37.71 57.17 37.71 58.3C37.71 59.05 37.57 59.79 37.28 60.49C36.99 61.18 36.57 61.81 36.04 62.35C35.51 62.88 34.88 63.3 34.18 63.59C33.5 63.86 32.76 64 32.01 64Z" fill="#DA2590"/>
<path d="M32.01 11.42C30.88 11.42 29.78 11.08 28.84 10.46C27.9 9.83004 27.17 8.94004 26.74 7.90004C26.31 6.86004 26.19 5.71004 26.41 4.60004C26.63 3.49004 27.17 2.47004 27.97 1.68004C28.77 0.88004 29.79 0.34004 30.89 0.12004C32 -0.10996 33.15 4.03523e-05 34.19 0.43004C35.23 0.86004 36.13 1.59004 36.75 2.53004C37.38 3.47004 37.71 4.57004 37.71 5.70004C37.71 6.45004 37.57 7.19004 37.28 7.89004C37 8.60004 36.58 9.23004 36.05 9.76004C35.52 10.29 34.89 10.71 34.19 11C33.5 11.28 32.76 11.43 32.01 11.42Z" fill="#DA2590"/>
</svg>
