<svg width="32" height="32" viewBox="0 0 32 32" fill="none" xmlns="http://www.w3.org/2000/svg">
<path d="M28.1751 8.7244C28.1598 7.91446 28.1451 7.14927 28.1451 6.4091C28.1451 5.82914 27.675 5.35904 27.095 5.35904C22.6043 5.35904 19.1852 4.06835 16.3352 1.29733C15.9275 0.900796 15.2787 0.900982 14.8712 1.29733C12.0215 4.06835 8.60297 5.35904 4.11255 5.35904C3.53259 5.35904 3.06242 5.82914 3.06242 6.4091C3.06242 7.14946 3.04792 7.9149 3.03236 8.72502C2.88846 16.2626 2.69134 26.5857 15.2592 30.9421C15.482 31.0193 15.7243 31.0193 15.947 30.9421C28.5159 26.5855 28.3191 16.2621 28.1751 8.7244Z" stroke="#141414" stroke-miterlimit="10"/>
<path d="M17.4671 13.8249V9.88687H13.741V13.8249H9.80272V17.551H13.741V21.489H17.4671V17.551H21.4048V13.8249H17.4671Z" stroke="#DC1D47" stroke-miterlimit="10" stroke-linejoin="round"/>
</svg>
