<svg width="2743" height="1830" viewBox="0 0 2743 1830" fill="none" xmlns="http://www.w3.org/2000/svg">
<path d="M1978.27 2.2002H372.88C352.804 2.2002 336.53 18.4746 336.53 38.5502V1242.08C336.53 1262.16 352.804 1278.43 372.88 1278.43H1978.27C1998.35 1278.43 2014.62 1262.16 2014.62 1242.08V38.5502C2014.62 18.4746 1998.35 2.2002 1978.27 2.2002Z" fill="white"/>
<path d="M1978.27 1280.63H372.89C362.668 1280.62 352.868 1276.55 345.639 1269.33C338.41 1262.1 334.343 1252.3 334.33 1242.08V38.56C334.343 28.3373 338.41 18.5371 345.639 11.3086C352.867 4.08003 362.667 0.0132298 372.89 0H1978.27C1988.49 0.0132298 1998.29 4.08003 2005.52 11.3086C2012.75 18.5371 2016.82 28.3373 2016.83 38.56V1242.08C2016.82 1252.3 2012.75 1262.1 2005.52 1269.33C1998.29 1276.55 1988.49 1280.62 1978.27 1280.63ZM372.89 4.39999C363.834 4.41058 355.153 8.01331 348.751 14.4175C342.348 20.8218 338.748 29.5044 338.74 38.56V1242.08C338.751 1251.13 342.352 1259.81 348.754 1266.22C355.156 1272.62 363.836 1276.22 372.89 1276.23H1978.27C1987.32 1276.22 1996.01 1272.62 2002.41 1266.22C2008.81 1259.82 2012.41 1251.13 2012.42 1242.08V38.56C2012.41 29.5036 2008.82 20.8194 2002.41 14.4146C1996.01 8.0098 1987.33 4.40794 1978.27 4.39999H372.89Z" fill="black"/>
<path d="M525.138 86.3125C532.858 78.5919 532.858 66.0742 525.138 58.3535C517.417 50.6328 504.899 50.6329 497.179 58.3535C489.458 66.0742 489.458 78.5918 497.179 86.3125C504.899 94.0332 517.417 94.0332 525.138 86.3125Z" fill="#E0E0E0"/>
<path d="M588.077 76.836C590.585 66.2093 584.003 55.5614 573.377 53.0533C562.75 50.5452 552.102 57.1266 549.594 67.7533C547.086 78.38 553.667 89.0279 564.294 91.536C574.921 94.0441 585.568 87.4627 588.077 76.836Z" fill="#E0E0E0"/>
<path d="M645.783 76.8394C648.291 66.2127 641.71 55.5649 631.083 53.0568C620.457 50.5486 609.809 57.13 607.301 67.7567C604.793 78.3834 611.374 89.0313 622.001 91.5394C632.627 94.0475 643.275 87.4661 645.783 76.8394Z" fill="#E0E0E0"/>
<path d="M1715.54 95.77H822.91C817.606 95.77 812.518 93.6629 808.768 89.9122C805.017 86.1614 802.91 81.0743 802.91 75.77C802.91 70.4657 805.017 65.3786 808.768 61.6279C812.518 57.8772 817.606 55.77 822.91 55.77H1715.54C1720.84 55.77 1725.93 57.8772 1729.68 61.6279C1733.43 65.3786 1735.54 70.4657 1735.54 75.77C1735.54 81.0743 1733.43 86.1614 1729.68 89.9122C1725.93 93.6629 1720.84 95.77 1715.54 95.77Z" fill="#E0E0E0"/>
<path d="M1972.9 1240H378.27C377.98 1240 377.693 1239.95 377.425 1239.84C377.157 1239.73 376.913 1239.56 376.708 1239.36C376.503 1239.15 376.34 1238.91 376.228 1238.64C376.117 1238.38 376.06 1238.09 376.06 1237.8V141C376.06 140.414 376.293 139.852 376.707 139.437C377.122 139.023 377.684 138.79 378.27 138.79H1972.9C1973.48 138.793 1974.04 139.027 1974.46 139.441C1974.87 139.855 1975.1 140.416 1975.1 141V1237.81C1975.1 1238.39 1974.86 1238.95 1974.45 1239.36C1974.04 1239.77 1973.48 1240 1972.9 1240ZM380.47 1235.6H1970.69V143.22H380.47V1235.6Z" fill="black"/>
<path d="M2288.8 201.16H1129.82C1115.22 201.16 1103.39 212.993 1103.39 227.59V1028.88C1103.39 1043.48 1115.22 1055.31 1129.82 1055.31H2288.8C2303.4 1055.31 2315.23 1043.48 2315.23 1028.88V227.59C2315.23 212.993 2303.4 201.16 2288.8 201.16Z" fill="white"/>
<path d="M1896.31 1057.51H1133.41C1124.86 1057.49 1116.66 1054.08 1110.62 1048.03C1104.58 1041.97 1101.19 1033.77 1101.19 1025.22V231.22C1101.19 222.666 1104.58 214.461 1110.62 208.406C1116.66 202.35 1124.86 198.938 1133.41 198.92H2285.22C2293.77 198.938 2301.97 202.35 2308.01 208.406C2314.05 214.461 2317.44 222.666 2317.44 231.22V802.49C2317.4 803.049 2317.15 803.573 2316.74 803.956C2316.33 804.338 2315.8 804.551 2315.24 804.551C2314.67 804.551 2314.14 804.338 2313.73 803.956C2313.32 803.573 2313.07 803.049 2313.03 802.49V231.25C2313.03 223.866 2310.11 216.783 2304.89 211.554C2299.68 206.325 2292.6 203.378 2285.22 203.36H1133.41C1126.03 203.378 1118.95 206.325 1113.74 211.554C1108.52 216.783 1105.6 223.866 1105.6 231.25V1025.25C1105.6 1032.63 1108.52 1039.72 1113.74 1044.95C1118.95 1050.17 1126.03 1053.12 1133.41 1053.14H1896.31C1896.89 1053.14 1897.45 1053.37 1897.87 1053.78C1898.28 1054.2 1898.51 1054.76 1898.51 1055.34C1898.51 1055.92 1898.28 1056.48 1897.87 1056.9C1897.45 1057.31 1896.89 1057.54 1896.31 1057.54V1057.51Z" fill="black"/>
<path d="M1651.9 278.35H1182.02V423.1H1651.9V278.35Z" fill="white"/>
<path d="M1651.89 425.3H1182C1181.42 425.3 1180.85 425.069 1180.44 424.656C1180.03 424.244 1179.79 423.684 1179.79 423.1V278.35C1179.79 277.764 1180.02 277.202 1180.44 276.787C1180.85 276.373 1181.41 276.14 1182 276.14H1651.87C1652.46 276.14 1653.02 276.373 1653.43 276.787C1653.85 277.202 1654.08 277.764 1654.08 278.35V423.1C1654.08 423.681 1653.85 424.238 1653.44 424.649C1653.03 425.061 1652.47 425.295 1651.89 425.3ZM1184.22 420.89H1649.69V280.55H1184.22V420.89Z" fill="black"/>
<path d="M2236.61 278.35H1723.41V606.4H2236.61V278.35Z" fill="#E0E0E0"/>
<path d="M2236.61 648.6H1723.41V976.65H2236.61V648.6Z" fill="white"/>
<path d="M2236.61 978.85H1723.41C1723.12 978.851 1722.83 978.795 1722.57 978.685C1722.3 978.575 1722.05 978.414 1721.85 978.209C1721.64 978.005 1721.48 977.762 1721.37 977.494C1721.26 977.227 1721.2 976.94 1721.2 976.65V648.6C1721.2 648.31 1721.26 648.023 1721.37 647.756C1721.48 647.488 1721.64 647.245 1721.85 647.041C1722.05 646.836 1722.3 646.674 1722.57 646.564C1722.83 646.455 1723.12 646.399 1723.41 646.4H2236.61C2236.9 646.399 2237.19 646.455 2237.45 646.565C2237.72 646.675 2237.96 646.837 2238.17 647.041C2238.37 647.246 2238.54 647.489 2238.65 647.756C2238.76 648.024 2238.81 648.311 2238.81 648.6V976.65C2238.81 976.939 2238.76 977.226 2238.65 977.493C2238.54 977.761 2238.37 978.004 2238.17 978.209C2237.96 978.413 2237.72 978.575 2237.45 978.685C2237.19 978.795 2236.9 978.851 2236.61 978.85ZM1725.61 974.45H2234.41V650.8H1725.61V974.45Z" fill="black"/>
<path d="M1651.9 463.47H1182.02V542.46H1651.9V463.47Z" fill="white"/>
<path d="M1651.89 544.67H1182C1181.42 544.67 1180.85 544.439 1180.44 544.026C1180.03 543.614 1179.79 543.054 1179.79 542.47V463.47C1179.79 463.18 1179.85 462.893 1179.96 462.626C1180.07 462.358 1180.23 462.115 1180.44 461.911C1180.64 461.706 1180.89 461.545 1181.16 461.435C1181.42 461.325 1181.71 461.269 1182 461.27H1651.87C1652.16 461.269 1652.45 461.325 1652.71 461.435C1652.98 461.545 1653.23 461.706 1653.43 461.911C1653.64 462.115 1653.8 462.358 1653.91 462.626C1654.02 462.893 1654.08 463.18 1654.08 463.47V542.47C1654.08 543.051 1653.85 543.608 1653.44 544.019C1653.03 544.431 1652.47 544.665 1651.89 544.67ZM1184.22 540.26H1649.69V465.67H1184.22V540.26Z" fill="black"/>
<path d="M1651.9 601.26H1182.02V978.12H1651.9V601.26Z" fill="white"/>
<path d="M1651.89 980.32H1182C1181.71 980.321 1181.42 980.265 1181.16 980.155C1180.89 980.046 1180.64 979.884 1180.44 979.679C1180.23 979.475 1180.07 979.232 1179.96 978.964C1179.85 978.697 1179.79 978.41 1179.79 978.12V601.26C1179.79 600.97 1179.85 600.683 1179.96 600.416C1180.07 600.148 1180.23 599.905 1180.44 599.701C1180.64 599.496 1180.89 599.335 1181.16 599.225C1181.42 599.115 1181.71 599.059 1182 599.06H1651.87C1652.16 599.059 1652.45 599.115 1652.71 599.225C1652.98 599.335 1653.23 599.496 1653.43 599.701C1653.64 599.905 1653.8 600.148 1653.91 600.416C1654.02 600.683 1654.08 600.97 1654.08 601.26V978.12C1654.08 978.702 1653.85 979.26 1653.44 979.672C1653.03 980.085 1652.47 980.317 1651.89 980.32ZM1184.22 975.92H1649.69V603.46H1184.22V975.92Z" fill="black"/>
<path d="M1494.66 869.38C1494.22 869.382 1493.8 869.254 1493.43 869.012C1493.07 868.771 1492.79 868.426 1492.62 868.023C1492.45 867.62 1492.41 867.176 1492.49 866.749C1492.58 866.321 1492.79 865.928 1493.1 865.62L1569.42 789.3L1493.1 713C1492.87 712.8 1492.69 712.556 1492.57 712.283C1492.44 712.01 1492.37 711.714 1492.36 711.413C1492.35 711.112 1492.4 710.812 1492.51 710.533C1492.63 710.253 1492.79 709.998 1493.01 709.786C1493.22 709.573 1493.47 709.405 1493.75 709.294C1494.03 709.183 1494.33 709.13 1494.63 709.139C1494.93 709.148 1495.23 709.218 1495.5 709.346C1495.78 709.473 1496.02 709.655 1496.22 709.88L1574.09 787.76C1574.5 788.173 1574.73 788.732 1574.73 789.315C1574.73 789.898 1574.5 790.458 1574.09 790.87L1496.22 868.75C1496.01 868.953 1495.77 869.113 1495.5 869.221C1495.24 869.329 1494.95 869.383 1494.66 869.38Z" fill="black"/>
<path d="M1332.14 869.38C1331.85 869.381 1331.56 869.325 1331.3 869.215C1331.03 869.106 1330.79 868.944 1330.58 868.74L1252.71 790.86C1252.3 790.448 1252.07 789.888 1252.07 789.305C1252.07 788.722 1252.3 788.163 1252.71 787.75L1330.58 709.87C1331 709.496 1331.55 709.296 1332.11 709.313C1332.68 709.33 1333.21 709.561 1333.61 709.959C1334.01 710.358 1334.24 710.894 1334.26 711.457C1334.27 712.02 1334.07 712.569 1333.7 712.99L1257.38 789.3L1333.7 865.62C1334.01 865.928 1334.22 866.321 1334.31 866.749C1334.39 867.176 1334.35 867.62 1334.18 868.023C1334.01 868.426 1333.73 868.771 1333.37 869.012C1333 869.254 1332.58 869.382 1332.14 869.38Z" fill="black"/>
<path d="M1371.92 871.28C1371.57 871.279 1371.23 871.197 1370.92 871.04C1370.65 870.912 1370.42 870.733 1370.22 870.511C1370.03 870.29 1369.88 870.032 1369.78 869.752C1369.69 869.472 1369.65 869.176 1369.68 868.882C1369.7 868.588 1369.78 868.302 1369.92 868.04L1451.1 708.49C1451.23 708.232 1451.41 708.002 1451.63 707.814C1451.85 707.626 1452.11 707.483 1452.38 707.393C1452.66 707.304 1452.95 707.269 1453.24 707.292C1453.53 707.314 1453.81 707.394 1454.06 707.525C1454.32 707.656 1454.55 707.837 1454.74 708.057C1454.93 708.277 1455.07 708.532 1455.16 708.808C1455.25 709.083 1455.29 709.373 1455.26 709.662C1455.24 709.951 1455.16 710.232 1455.03 710.49L1373.84 870.04C1373.66 870.403 1373.39 870.71 1373.05 870.929C1372.72 871.148 1372.32 871.269 1371.92 871.28Z" fill="black"/>
<path d="M2722.81 275.93H2424.64C2415.08 275.93 2407.33 283.68 2407.33 293.24V591.51C2407.33 601.07 2415.08 608.82 2424.64 608.82H2722.81C2732.37 608.82 2740.12 601.07 2740.12 591.51V293.24C2740.12 283.68 2732.37 275.93 2722.81 275.93Z" fill="white"/>
<path d="M2722.8 611H2424.64C2419.47 610.994 2414.51 608.937 2410.85 605.28C2407.19 601.622 2405.14 596.662 2405.13 591.49V293.24C2405.14 288.066 2407.19 283.106 2410.85 279.446C2414.51 275.787 2419.47 273.728 2424.64 273.72H2722.8C2727.97 273.728 2732.94 275.787 2736.59 279.446C2740.25 283.105 2742.31 288.065 2742.32 293.24V591.51C2742.31 596.68 2740.24 601.634 2736.59 605.287C2732.93 608.94 2727.97 610.994 2722.8 611ZM2424.64 278.13C2420.63 278.135 2416.79 279.729 2413.96 282.561C2411.13 285.394 2409.54 289.234 2409.53 293.24V591.51C2409.54 595.516 2411.13 599.356 2413.96 602.188C2416.79 605.021 2420.63 606.614 2424.64 606.62H2722.8C2726.81 606.617 2730.65 605.024 2733.48 602.191C2736.31 599.358 2737.91 595.516 2737.91 591.51V293.24C2737.91 289.233 2736.31 285.391 2733.48 282.558C2730.65 279.725 2726.81 278.132 2722.8 278.13H2424.64Z" fill="black"/>
<path d="M2712.74 517.34C2712.74 517.34 2660.44 381.34 2612.61 381.34C2564.78 381.34 2539.39 486 2521.46 486C2503.53 486 2500.53 445.64 2481.11 445.64C2461.69 445.64 2434.78 517.39 2434.78 517.39C2434.78 517.39 2712.74 514.85 2712.74 517.34Z" fill="white"/>
<path d="M2712.74 519.54C2712.39 519.544 2712.05 519.465 2711.74 519.31C2702.4 517.75 2541.56 518.59 2434.74 519.54C2434.38 519.553 2434.03 519.473 2433.71 519.308C2433.39 519.144 2433.12 518.9 2432.92 518.6C2432.72 518.313 2432.59 517.981 2432.54 517.632C2432.5 517.284 2432.54 516.929 2432.66 516.6C2435.47 509.11 2460.66 443.41 2481.05 443.41C2492.27 443.41 2498.26 454.57 2504.05 465.41C2509.13 474.88 2513.93 483.82 2521.39 483.82C2526.87 483.82 2535.54 467.23 2543.93 451.19C2559.81 420.8 2581.56 379.19 2612.55 379.19C2661.33 379.19 2712.55 511.03 2714.74 516.64C2714.83 516.893 2714.88 517.161 2714.88 517.43C2714.88 517.944 2714.7 518.442 2714.37 518.837C2714.04 519.233 2713.59 519.503 2713.08 519.6C2712.97 519.587 2712.85 519.567 2712.74 519.54ZM2481.11 447.79C2467.11 447.79 2446.28 493.79 2437.99 515.11C2452.42 514.99 2512.85 514.48 2572.82 514.21C2669.6 513.77 2699.67 514.21 2709.36 514.81C2700.97 494.06 2654.3 383.51 2612.61 383.51C2584.29 383.51 2563.25 423.76 2547.89 453.15C2537.27 473.47 2529.6 488.15 2521.45 488.15C2511.35 488.15 2505.69 477.61 2500.23 467.41C2494.77 457.21 2489.7 447.79 2481.11 447.79Z" fill="black"/>
<path d="M2509.37 402.166C2520.92 402.144 2530.27 392.755 2530.25 381.196C2530.23 369.637 2520.84 360.284 2509.29 360.306C2497.74 360.328 2488.39 369.717 2488.41 381.276C2488.43 392.835 2497.82 402.188 2509.37 402.166Z" fill="white"/>
<path d="M2509.31 404.44C2504.74 404.44 2500.26 403.084 2496.46 400.542C2492.66 398 2489.69 394.388 2487.94 390.162C2486.19 385.935 2485.73 381.285 2486.62 376.798C2487.52 372.311 2489.72 368.19 2492.95 364.955C2496.19 361.72 2500.31 359.517 2504.8 358.625C2509.28 357.732 2513.93 358.19 2518.16 359.941C2522.39 361.692 2526 364.656 2528.54 368.46C2531.08 372.264 2532.44 376.735 2532.44 381.31C2532.43 387.443 2530 393.323 2525.66 397.66C2521.32 401.996 2515.44 404.435 2509.31 404.44ZM2509.31 362.58C2505.6 362.572 2501.98 363.664 2498.89 365.717C2495.81 367.771 2493.4 370.693 2491.98 374.115C2490.55 377.536 2490.18 381.304 2490.89 384.94C2491.61 388.576 2493.39 391.917 2496.01 394.54C2498.63 397.164 2501.97 398.951 2505.6 399.677C2509.24 400.403 2513 400.035 2516.43 398.618C2519.85 397.202 2522.78 394.801 2524.84 391.72C2526.9 388.639 2528 385.016 2528 381.31C2527.99 376.351 2526.02 371.596 2522.52 368.086C2519.02 364.576 2514.27 362.596 2509.31 362.58Z" fill="black"/>
<path d="M2376.69 426H2083.05C2082.47 426 2081.91 425.768 2081.49 425.356C2081.08 424.943 2080.85 424.384 2080.85 423.8C2080.85 423.217 2081.08 422.657 2081.49 422.245C2081.91 421.832 2082.47 421.6 2083.05 421.6H2376.69C2377.27 421.6 2377.83 421.832 2378.25 422.245C2378.66 422.657 2378.89 423.217 2378.89 423.8C2378.89 424.384 2378.66 424.943 2378.25 425.356C2377.83 425.768 2377.27 426 2376.69 426Z" fill="black"/>
<path d="M932.489 868.208C948.997 868.185 962.36 854.78 962.337 838.266C962.314 821.753 948.913 808.385 932.405 808.408C915.898 808.431 902.534 821.836 902.557 838.35C902.58 854.863 915.981 868.231 932.489 868.208Z" fill="#E0E0E0"/>
<path d="M932.477 780.948C948.985 780.925 962.348 767.519 962.325 751.006C962.302 734.493 948.901 721.125 932.393 721.148C915.886 721.171 902.522 734.576 902.545 751.089C902.568 767.603 915.969 780.971 932.477 780.948Z" fill="#E0E0E0"/>
<path d="M932.465 693.708C948.973 693.685 962.336 680.28 962.313 663.766C962.29 647.253 948.889 633.885 932.382 633.908C915.874 633.931 902.51 647.336 902.533 663.85C902.557 680.363 915.957 693.731 932.465 693.708Z" fill="#E0E0E0"/>
<path d="M932.28 591.86C931.991 591.861 931.704 591.806 931.436 591.695C931.169 591.585 930.926 591.423 930.721 591.219C930.517 591.014 930.355 590.771 930.245 590.504C930.135 590.236 930.079 589.949 930.08 589.66V362C930.079 361.71 930.135 361.423 930.245 361.155C930.355 360.887 930.516 360.643 930.721 360.438C930.925 360.233 931.168 360.07 931.436 359.959C931.703 359.847 931.99 359.79 932.28 359.79H1213.71C1214.01 359.77 1214.31 359.812 1214.6 359.913C1214.89 360.015 1215.15 360.174 1215.37 360.381C1215.59 360.588 1215.77 360.838 1215.89 361.115C1216.01 361.393 1216.07 361.692 1216.07 361.995C1216.07 362.298 1216.01 362.597 1215.89 362.875C1215.77 363.153 1215.59 363.403 1215.37 363.61C1215.15 363.816 1214.89 363.975 1214.6 364.077C1214.31 364.179 1214.01 364.221 1213.71 364.2H934.48V589.7C934.472 590.278 934.236 590.828 933.824 591.233C933.412 591.637 932.857 591.863 932.28 591.86Z" fill="black"/>
<path d="M2254.35 1006.32L2310.18 1169.55L2348.57 1177.01C2348.57 1177.01 2289.99 1304.18 2191.26 1282.88C2092.53 1261.58 2114.26 1177.01 2114.26 1177.01L2135.14 1175.32C2138.08 1175.08 2140.93 1174.21 2143.49 1172.75C2146.05 1171.3 2148.26 1169.3 2149.97 1166.9C2151.68 1164.5 2152.84 1161.76 2153.38 1158.86C2153.92 1155.96 2153.82 1152.98 2153.08 1150.13L2129.61 1059.21C2129.61 1059.21 2225.26 982.1 2254.35 1006.32Z" fill="white"/>
<path d="M2213.12 1287.44C2205.62 1287.43 2198.13 1286.62 2190.8 1285.03C2158.58 1278.03 2135.56 1263.74 2122.38 1242.4C2103.38 1211.67 2111.75 1177.89 2112.11 1176.46C2112.23 1176.01 2112.48 1175.61 2112.84 1175.31C2113.2 1175.02 2113.65 1174.85 2114.11 1174.82L2134.99 1173.13C2137.61 1172.92 2140.15 1172.14 2142.44 1170.85C2144.72 1169.55 2146.7 1167.77 2148.22 1165.63C2149.75 1163.49 2150.78 1161.05 2151.26 1158.46C2151.74 1155.88 2151.65 1153.22 2150.99 1150.68L2127.51 1059.76C2127.41 1059.35 2127.42 1058.92 2127.55 1058.52C2127.69 1058.11 2127.93 1057.76 2128.26 1057.49C2132.26 1054.3 2225.68 979.55 2255.81 1004.62C2256.12 1004.88 2256.35 1005.23 2256.48 1005.62L2311.9 1167.62L2349.04 1174.84C2349.37 1174.9 2349.68 1175.04 2349.94 1175.24C2350.21 1175.44 2350.43 1175.7 2350.58 1176C2350.73 1176.29 2350.81 1176.62 2350.82 1176.95C2350.83 1177.29 2350.76 1177.62 2350.62 1177.92C2339.56 1200.28 2325.42 1220.98 2308.62 1239.42C2279.19 1271.13 2246.57 1287.44 2213.12 1287.44ZM2116.05 1179.08C2114.69 1185.91 2110.33 1214.57 2126.15 1240.13C2138.68 1260.38 2160.74 1274.04 2191.72 1280.72C2279.89 1299.72 2336.38 1196.32 2345.32 1178.63L2309.76 1171.71C2309.38 1171.64 2309.03 1171.46 2308.73 1171.21C2308.44 1170.95 2308.22 1170.63 2308.1 1170.26L2252.47 1007.63C2226.17 987.33 2142.71 1051.63 2132.09 1060.04L2155.2 1149.58C2156.02 1152.74 2156.13 1156.05 2155.54 1159.26C2154.94 1162.47 2153.65 1165.52 2151.76 1168.18C2149.86 1170.84 2147.41 1173.06 2144.57 1174.67C2141.73 1176.28 2138.57 1177.26 2135.31 1177.52L2116.05 1179.08Z" fill="black"/>
<path d="M2231 812.3C2242.32 815.784 2252.72 821.756 2261.44 829.779C2270.16 837.803 2276.97 847.674 2281.38 858.67C2285.81 869.96 2287.57 882.14 2291.77 893.52C2295.97 904.9 2303.45 916.03 2314.87 920.14C2320.58 922.14 2326.8 922.31 2332.69 923.8C2344.52 926.8 2354.97 935.98 2357.91 947.8C2360.85 959.62 2355.14 973.47 2344.04 978.52C2346.11 983.671 2346.7 989.3 2345.74 994.768C2344.78 1000.24 2342.3 1005.33 2338.6 1009.46C2334.89 1013.59 2330.1 1016.61 2324.77 1018.16C2319.43 1019.71 2313.78 1019.73 2308.43 1018.23C2308.04 1041.97 2290.73 1063.03 2269.5 1073.69C2248.27 1084.35 2223.75 1086.23 2200 1085.69C2155 1084.62 2109.79 1075.2 2069.95 1054.3C2059.65 1048.9 2049.56 1042.6 2042.03 1033.75C2034.5 1024.9 2029.73 1013.1 2031.51 1001.6C2015.66 991.51 2000.07 979.6 1991.31 963.01C1982.55 946.42 1982.31 924.01 1995.31 910.4C2005.81 899.4 2022.47 896.16 2033.07 885.28C2042.27 875.83 2045.42 862.28 2050.16 849.95C2056.09 834.55 2065.32 819.95 2078.71 810.34C2095.04 798.55 2116.96 796.13 2136 801.96C2146.35 805.13 2153.18 811.12 2161.89 816.96C2170.32 822.61 2180.97 813.56 2189.96 811.39C2203.48 808.076 2217.64 808.39 2231 812.3Z" fill="black"/>
<path d="M2218.81 1056.34C2211.26 1074.6 2199.81 1091.57 2184.19 1103.64C2168.57 1115.71 2148.44 1122.57 2128.81 1120.29C2095.96 1116.48 2070.24 1087.94 2059.81 1056.58C2049.38 1025.22 2051.13 991.26 2053.34 958.27C2053.34 958.27 2067.45 908.7 2104.29 892.37C2111.29 964.46 2235.29 911.3 2202.54 1012.69C2202.54 1012.69 2225.22 985.2 2239.54 986.76C2255.05 988.44 2268.08 1002.45 2268.93 1018.02C2269.78 1033.59 2259.19 1048.8 2244.65 1054.47C2236.42 1057.67 2228.48 1059.8 2218.81 1056.34Z" fill="white"/>
<path d="M2136.34 1122.92C2133.74 1122.92 2131.14 1122.78 2128.56 1122.48C2097.56 1118.87 2069.7 1093.29 2057.67 1057.28C2046.67 1024.34 2049.12 987.62 2051.1 958.13C2051.11 957.974 2051.13 957.819 2051.18 957.67C2051.76 955.61 2066 906.92 2103.35 890.36C2103.67 890.217 2104.02 890.153 2104.36 890.172C2104.71 890.191 2105.05 890.293 2105.35 890.47C2105.65 890.646 2105.91 890.891 2106.09 891.185C2106.28 891.479 2106.4 891.813 2106.43 892.16C2109.43 922.61 2133.62 929.43 2159.28 936.65C2177.93 941.9 2197.21 947.33 2205.68 963.15C2211.12 973.29 2211.68 986.76 2207.26 1004.15C2215.26 995.84 2229.26 983.46 2239.76 984.57C2256.14 986.35 2270.2 1001.3 2271.11 1017.9C2272 1034.13 2261.2 1050.37 2245.44 1056.52C2238.34 1059.28 2230 1061.94 2220.05 1059.06C2211.75 1078.36 2199.85 1094.34 2185.54 1105.39C2170.84 1116.73 2153.28 1122.92 2136.34 1122.92ZM2055.48 958.66C2053.53 987.73 2051.14 1023.85 2061.85 1055.89C2071.26 1084.06 2095.7 1114.23 2129.06 1118.1C2147.17 1120.2 2166.78 1114.3 2182.85 1101.9C2197.01 1090.97 2208.74 1074.9 2216.77 1055.5C2216.99 1054.98 2217.4 1054.56 2217.91 1054.33C2218.43 1054.1 2219.02 1054.08 2219.55 1054.27C2228.04 1057.27 2235.13 1055.81 2243.83 1052.41C2257.88 1046.94 2267.5 1032.53 2266.71 1018.14C2265.92 1003.6 2253.61 990.5 2239.28 988.95C2228.48 987.81 2210.28 1006.7 2204.19 1014.09C2203.86 1014.48 2203.41 1014.75 2202.91 1014.85C2202.41 1014.94 2201.89 1014.86 2201.44 1014.62C2200.99 1014.37 2200.65 1013.98 2200.46 1013.5C2200.27 1013.03 2200.25 1012.51 2200.4 1012.02C2207.1 991.28 2207.56 976.02 2201.8 965.23C2194.21 951.06 2176.66 946.12 2158.09 940.9C2132.95 933.82 2106.99 926.51 2102.42 895.67C2070.1 912 2056.51 955.23 2055.48 958.66Z" fill="black"/>
<path d="M2222 1037.39C2221.55 1037.39 2221.11 1037.25 2220.74 1036.99C2220.37 1036.73 2220.08 1036.36 2219.93 1035.94C2219.78 1035.51 2219.76 1035.05 2219.88 1034.62C2219.99 1034.18 2220.24 1033.79 2220.59 1033.5C2226.3 1028.71 2231.22 1023.04 2235.15 1016.7C2235.46 1016.2 2235.95 1015.85 2236.52 1015.72C2237.09 1015.59 2237.69 1015.69 2238.19 1015.99C2238.68 1016.3 2239.03 1016.8 2239.17 1017.37C2239.3 1017.94 2239.2 1018.53 2238.89 1019.03C2234.72 1025.76 2229.49 1031.79 2223.42 1036.87C2223.02 1037.2 2222.52 1037.39 2222 1037.39Z" fill="black"/>
<path d="M1902.81 1244.27C1917.25 1224.78 1935.65 1208.55 1956.8 1196.66C1977.95 1184.77 2001.37 1177.48 2025.53 1175.27C2053.37 1172.7 2088.27 1169.97 2127.2 1167.98C2129.35 1175.06 2132.37 1181.84 2136.2 1188.17C2147.48 1206.74 2165.15 1221.04 2184.84 1229.91C2204.53 1238.78 2226.6 1242.81 2248.13 1240.21C2269.22 1237.66 2289.28 1228.68 2303.85 1212.98C2315.73 1200.19 2329.98 1184.72 2333.63 1167.98C2365.91 1169.63 2398.07 1172.97 2430 1178C2493.26 1187.91 2547.74 1226.22 2582.3 1280.14C2657.68 1397.76 2741.51 1521.94 2741.51 1665.14C2741.51 1828 2350.51 1813.86 2350.51 1813.86H1969.3L1725.55 1606.76C1725.55 1606.76 1801.42 1381.21 1902.81 1244.27Z" fill="url(#paint0_linear_66_522)"/>
<path d="M2385.25 1787.46C2388.13 1806.89 2350.49 1813.94 2350.49 1813.94H2233.86L2060.18 1791.61C2060.18 1791.61 2046.62 1567.83 2292.18 1594.86C2292.17 1594.86 2366.27 1659.32 2385.25 1787.46Z" fill="white"/>
<path d="M2350.49 1816.14H2233.86H2233.58L2059.9 1793.8C2059.39 1793.73 2058.92 1793.49 2058.57 1793.12C2058.22 1792.74 2058.01 1792.25 2057.98 1791.74C2057.92 1790.8 2052.98 1697.01 2114.84 1638.14C2155.45 1599.47 2215.2 1584.14 2292.41 1592.67C2292.99 1592.73 2293.52 1593.03 2293.89 1593.48C2294.25 1593.94 2294.42 1594.52 2294.36 1595.1C2294.3 1595.68 2294 1596.21 2293.55 1596.58C2293.09 1596.94 2292.51 1597.11 2291.93 1597.05C2216.08 1588.7 2157.53 1603.59 2117.93 1641.3C2062.28 1694.3 2062 1776.45 2062.34 1789.66L2234 1811.73H2350.49C2350.79 1811.71 2351.09 1811.75 2351.38 1811.85C2351.67 1811.95 2351.93 1812.11 2352.15 1812.32C2352.37 1812.53 2352.55 1812.78 2352.67 1813.05C2352.79 1813.33 2352.85 1813.63 2352.85 1813.93C2352.85 1814.24 2352.79 1814.54 2352.67 1814.81C2352.55 1815.09 2352.37 1815.34 2352.15 1815.55C2351.93 1815.76 2351.67 1815.92 2351.38 1816.02C2351.09 1816.12 2350.79 1816.16 2350.49 1816.14Z" fill="black"/>
<path d="M2188.1 1794.68C2187.57 1794.68 2187.06 1794.49 2186.66 1794.14C2186.26 1793.8 2186 1793.32 2185.92 1792.8C2183.98 1779.43 2187.07 1764.65 2194.64 1751.17C2200.88 1740.07 2210.05 1729.65 2222.64 1719.31C2225.23 1717.03 2228.12 1715.13 2231.23 1713.64C2231.5 1713.48 2231.8 1713.38 2232.1 1713.35C2232.41 1713.32 2232.73 1713.35 2233.02 1713.44C2233.32 1713.54 2233.59 1713.7 2233.82 1713.9C2234.05 1714.11 2234.23 1714.37 2234.36 1714.65C2234.48 1714.94 2234.55 1715.24 2234.54 1715.55C2234.54 1715.86 2234.47 1716.17 2234.34 1716.45C2234.22 1716.73 2234.03 1716.99 2233.79 1717.19C2233.56 1717.4 2233.29 1717.55 2232.99 1717.64C2230.26 1718.96 2227.72 1720.64 2225.44 1722.64C2213.25 1732.64 2204.44 1742.64 2198.44 1753.25C2191.35 1765.89 2188.44 1779.68 2190.24 1792.08C2190.28 1792.37 2190.27 1792.66 2190.2 1792.94C2190.13 1793.22 2190 1793.48 2189.83 1793.72C2189.66 1793.95 2189.44 1794.14 2189.19 1794.29C2188.94 1794.44 2188.67 1794.54 2188.38 1794.58L2188.1 1794.68Z" fill="black"/>
<path d="M2132 1791.46C2131.9 1791.47 2131.79 1791.47 2131.69 1791.46C2131.11 1791.38 2130.59 1791.07 2130.24 1790.6C2129.89 1790.13 2129.74 1789.55 2129.82 1788.97C2131.96 1773.88 2135.04 1756.21 2141.69 1739.57C2148.69 1722.09 2158.95 1707.78 2171.44 1698.19C2171.67 1698.01 2171.93 1697.88 2172.21 1697.81C2172.49 1697.73 2172.78 1697.71 2173.07 1697.75C2173.35 1697.79 2173.63 1697.88 2173.88 1698.02C2174.13 1698.17 2174.35 1698.36 2174.53 1698.59C2174.71 1698.82 2174.84 1699.08 2174.91 1699.36C2174.99 1699.64 2175.01 1699.93 2174.97 1700.22C2174.93 1700.5 2174.84 1700.78 2174.69 1701.03C2174.55 1701.28 2174.36 1701.5 2174.13 1701.68C2162.26 1710.79 2152.46 1724.46 2145.78 1741.2C2139.31 1757.41 2136.28 1774.76 2134.18 1789.59C2134.1 1790.11 2133.84 1790.59 2133.44 1790.93C2133.04 1791.27 2132.53 1791.46 2132 1791.46Z" fill="black"/>
<path d="M2087 1791.46C2086.46 1791.46 2085.94 1791.26 2085.54 1790.9C2085.13 1790.55 2084.88 1790.05 2084.81 1789.52C2077 1724.07 2120.01 1683.21 2120.45 1682.8C2120.88 1682.4 2121.45 1682.19 2122.03 1682.21C2122.62 1682.23 2123.17 1682.49 2123.56 1682.92C2123.96 1683.34 2124.17 1683.91 2124.15 1684.5C2124.13 1685.08 2123.88 1685.63 2123.45 1686.03C2123.03 1686.42 2081.65 1725.84 2089.19 1789.03C2089.26 1789.61 2089.09 1790.19 2088.73 1790.65C2088.37 1791.11 2087.84 1791.41 2087.26 1791.48L2087 1791.46Z" fill="black"/>
<path d="M1636.05 1825.55H2269.58C2273.34 1825.61 2277.03 1824.53 2280.17 1822.46C2283.57 1820.16 2286.1 1816.78 2287.35 1812.87C2288.6 1808.96 2288.5 1804.75 2287.07 1800.9C2279.6 1785.23 2264.16 1779.72 2241.33 1779.72H1594.48L1602.87 1802.53C1605.4 1809.29 1609.93 1815.12 1615.86 1819.23C1621.79 1823.34 1628.83 1825.55 1636.05 1825.55Z" fill="black"/>
<path d="M1605.07 1809.47L1491.82 1525.24C1489.41 1519.45 1489.26 1512.98 1491.38 1507.08C1493.12 1502.47 1496.22 1498.49 1500.28 1495.68C1504.33 1492.88 1509.15 1491.37 1514.08 1491.37H1903.45C1914.9 1491.37 1926.07 1494.92 1935.42 1501.53C1944.77 1508.13 1951.84 1517.48 1955.66 1528.27L2060.93 1825.55H1628.79C1623.68 1825.55 1618.69 1824.02 1614.46 1821.15C1610.23 1818.28 1606.96 1814.22 1605.07 1809.47Z" fill="black"/>
<path d="M1744.3 1631.93C1748.23 1622.44 1743.73 1611.56 1734.23 1607.63C1724.74 1603.7 1713.86 1608.2 1709.93 1617.69C1706 1627.18 1710.51 1638.06 1720 1642C1729.49 1645.93 1740.37 1641.42 1744.3 1631.93Z" fill="url(#paint1_linear_66_522)"/>
<path d="M2588.15 1601.12H2588.1L2304.85 1595.75C2304.56 1595.74 2304.28 1595.68 2304.01 1595.57C2303.75 1595.45 2303.51 1595.29 2303.31 1595.08C2303.11 1594.87 2302.95 1594.62 2302.84 1594.35C2302.74 1594.09 2302.68 1593.8 2302.69 1593.51C2302.71 1592.93 2302.95 1592.38 2303.37 1591.97C2303.79 1591.57 2304.35 1591.35 2304.93 1591.35L2588.19 1596.72C2588.77 1596.72 2589.33 1596.95 2589.75 1597.36C2590.16 1597.78 2590.39 1598.34 2590.39 1598.92C2590.39 1599.5 2590.16 1600.06 2589.75 1600.48C2589.33 1600.89 2588.77 1601.12 2588.19 1601.12H2588.15Z" fill="black"/>
<path d="M2493.55 1585.05C2493.08 1585.05 2492.62 1584.9 2492.24 1584.62C2491.86 1584.34 2491.59 1583.94 2491.45 1583.49C2481.2 1549.4 2467.14 1516.58 2449.53 1485.65C2446.45 1480.25 2441.64 1473.12 2435.18 1473.12H2434.81C2434.52 1473.12 2434.23 1473.07 2433.97 1472.97C2433.7 1472.86 2433.45 1472.7 2433.24 1472.5C2432.83 1472.09 2432.58 1471.54 2432.57 1470.95C2432.57 1470.37 2432.79 1469.81 2433.19 1469.39C2433.6 1468.97 2434.16 1468.73 2434.74 1468.72C2443.74 1468.36 2449.67 1476.99 2453.36 1483.46C2471.14 1514.68 2485.33 1547.8 2495.66 1582.21C2495.83 1582.77 2495.77 1583.37 2495.49 1583.88C2495.22 1584.4 2494.75 1584.78 2494.19 1584.95C2493.98 1585.01 2493.77 1585.05 2493.55 1585.05Z" fill="black"/>
<path d="M2575.01 731.22C2591.52 731.22 2604.9 717.833 2604.9 701.32C2604.9 684.807 2591.52 671.42 2575.01 671.42C2558.5 671.42 2545.12 684.807 2545.12 701.32C2545.12 717.833 2558.5 731.22 2575.01 731.22Z" fill="#E0E0E0"/>
<path d="M2575.01 818.49C2591.52 818.49 2604.9 805.103 2604.9 788.59C2604.9 772.077 2591.52 758.69 2575.01 758.69C2558.5 758.69 2545.12 772.077 2545.12 788.59C2545.12 805.103 2558.5 818.49 2575.01 818.49Z" fill="#E0E0E0"/>
<path d="M2575.01 905.75C2591.52 905.75 2604.9 892.364 2604.9 875.85C2604.9 859.337 2591.52 845.95 2575.01 845.95C2558.5 845.95 2545.12 859.337 2545.12 875.85C2545.12 892.364 2558.5 905.75 2575.01 905.75Z" fill="#E0E0E0"/>
<path d="M2575.1 1122.93H2434.81C2434.25 1122.89 2433.73 1122.64 2433.34 1122.23C2432.96 1121.82 2432.75 1121.29 2432.75 1120.72C2432.75 1120.16 2432.96 1119.63 2433.34 1119.22C2433.73 1118.81 2434.25 1118.56 2434.81 1118.52H2572.89V950.06C2572.93 949.501 2573.18 948.977 2573.59 948.594C2574 948.212 2574.53 947.999 2575.09 947.999C2575.66 947.999 2576.19 948.212 2576.6 948.594C2577.01 948.977 2577.26 949.501 2577.3 950.06V1120.72C2577.3 1121.3 2577.07 1121.87 2576.66 1122.28C2576.24 1122.69 2575.68 1122.93 2575.1 1122.93Z" fill="black"/>
<path d="M556.9 207.61H554.19C553.942 207.612 553.706 207.713 553.532 207.889C553.357 208.065 553.26 208.302 553.26 208.55V241.64H508.6V208.55C508.6 208.301 508.501 208.061 508.325 207.885C508.148 207.709 507.909 207.61 507.66 207.61H505C504.752 207.612 504.516 207.713 504.342 207.889C504.167 208.065 504.07 208.302 504.07 208.55V281.39C504.07 281.637 504.168 281.873 504.342 282.047C504.517 282.222 504.753 282.32 505 282.32H507.7C507.823 282.321 507.945 282.298 508.059 282.252C508.173 282.206 508.276 282.138 508.364 282.051C508.451 281.965 508.521 281.862 508.568 281.748C508.615 281.635 508.64 281.513 508.64 281.39V246.2H553.3V281.39C553.3 281.637 553.398 281.873 553.572 282.047C553.747 282.222 553.983 282.32 554.23 282.32H556.94C557.186 282.32 557.423 282.222 557.597 282.047C557.772 281.873 557.87 281.637 557.87 281.39V208.55C557.87 208.424 557.845 208.299 557.796 208.183C557.746 208.067 557.674 207.962 557.584 207.874C557.493 207.787 557.386 207.718 557.269 207.673C557.151 207.627 557.026 207.606 556.9 207.61Z" fill="black"/>
<path d="M634.18 207.61H578.45C578.327 207.61 578.205 207.634 578.092 207.682C577.978 207.729 577.875 207.798 577.789 207.886C577.702 207.973 577.634 208.077 577.588 208.191C577.542 208.305 577.519 208.427 577.52 208.55V211.25C577.52 211.497 577.618 211.733 577.792 211.907C577.967 212.082 578.203 212.18 578.45 212.18H604V281.39C604 281.513 604.024 281.635 604.072 281.748C604.119 281.862 604.189 281.965 604.276 282.051C604.363 282.138 604.467 282.206 604.581 282.252C604.695 282.298 604.817 282.321 604.94 282.32H607.64C607.887 282.32 608.123 282.222 608.298 282.047C608.472 281.873 608.57 281.637 608.57 281.39V212.18H634.15C634.397 212.18 634.633 212.082 634.808 211.907C634.982 211.733 635.08 211.497 635.08 211.25V208.55C635.083 208.307 634.99 208.072 634.822 207.896C634.654 207.721 634.423 207.618 634.18 207.61Z" fill="black"/>
<path d="M725 207.61H721C720.818 207.61 720.64 207.663 720.487 207.762C720.334 207.862 720.214 208.003 720.14 208.17L691 275.11L661.88 208.17C661.801 208.009 661.681 207.872 661.532 207.774C661.382 207.675 661.209 207.619 661.03 207.61H657.18C657.057 207.61 656.935 207.634 656.822 207.682C656.708 207.729 656.605 207.799 656.519 207.886C656.432 207.973 656.364 208.077 656.318 208.191C656.272 208.305 656.249 208.427 656.25 208.55V281.39C656.249 281.513 656.272 281.634 656.318 281.748C656.364 281.861 656.433 281.964 656.519 282.051C656.606 282.137 656.709 282.206 656.823 282.252C656.936 282.298 657.058 282.321 657.18 282.32H659.88C660.127 282.32 660.363 282.222 660.538 282.048C660.712 281.873 660.81 281.637 660.81 281.39V217.33L689.1 281.76C689.171 281.927 689.289 282.069 689.441 282.168C689.592 282.268 689.769 282.321 689.95 282.32H692.1C692.281 282.319 692.457 282.266 692.608 282.167C692.759 282.067 692.878 281.926 692.95 281.76L721.4 217V281.41C721.399 281.533 721.422 281.654 721.468 281.768C721.514 281.881 721.583 281.984 721.669 282.071C721.756 282.157 721.859 282.226 721.973 282.272C722.086 282.318 722.208 282.341 722.33 282.34H725.03C725.277 282.34 725.513 282.242 725.688 282.068C725.862 281.893 725.96 281.657 725.96 281.41V208.55C725.96 208.425 725.935 208.301 725.887 208.186C725.838 208.07 725.767 207.966 725.678 207.878C725.588 207.791 725.482 207.722 725.366 207.676C725.25 207.63 725.125 207.607 725 207.61Z" fill="black"/>
<path d="M795.41 277.76H759V208.55C759 208.302 758.902 208.065 758.728 207.889C758.554 207.713 758.317 207.612 758.07 207.61H755.32C755.197 207.61 755.075 207.634 754.962 207.682C754.848 207.729 754.745 207.798 754.659 207.886C754.572 207.973 754.504 208.077 754.458 208.191C754.412 208.305 754.389 208.427 754.39 208.55V281.39C754.389 281.512 754.412 281.634 754.458 281.747C754.504 281.861 754.573 281.964 754.659 282.05C754.746 282.137 754.849 282.206 754.962 282.252C755.076 282.298 755.197 282.321 755.32 282.32H795.44C795.562 282.321 795.684 282.298 795.797 282.252C795.911 282.206 796.014 282.137 796.101 282.05C796.187 281.964 796.256 281.861 796.302 281.747C796.348 281.634 796.371 281.512 796.37 281.39V278.69C796.371 278.565 796.347 278.441 796.299 278.325C796.251 278.21 796.18 278.105 796.09 278.018C796 277.931 795.894 277.863 795.777 277.819C795.66 277.775 795.535 277.754 795.41 277.76Z" fill="black"/>
<path d="M496.36 322.36H796.34L770 629.66L646.35 662.95L523.43 628.93L496.36 322.36Z" fill="#E0E0E0"/>
<path d="M523.43 353.09H769.27L747.69 604.93L646.35 632.21L545.62 604.33L523.43 353.09Z" fill="white"/>
<path d="M551.6 385.07H741.1L737.92 422.24L594.77 422.23L597.7 459.54L734.66 460.23L724.46 579.2L646.35 600.23L568.7 578.74L563.25 517.02L602.45 516.98L605.01 546.25L646.35 557.22L687.69 546.61L691.35 497.96L561.67 499.07L551.6 385.07Z" fill="#E0E0E0"/>
<path d="M1199.11 1132.44H856.52C854.485 1132.47 852.488 1131.89 850.79 1130.77C848.951 1129.53 847.583 1127.7 846.907 1125.59C846.23 1123.47 846.284 1121.19 847.06 1119.11C851.06 1110.64 859.45 1107.66 871.79 1107.66H1221.59L1217.05 1119.99C1215.68 1123.65 1213.23 1126.8 1210.03 1129.02C1206.82 1131.25 1203.01 1132.44 1199.11 1132.44Z" fill="black"/>
<path d="M1212.39 1132.44L1277.24 969.69C1278.04 967.699 1278.34 965.542 1278.11 963.409C1277.88 961.275 1277.14 959.23 1275.93 957.453C1274.73 955.676 1273.11 954.221 1271.22 953.216C1269.32 952.211 1267.21 951.687 1265.06 951.69H1054.51C1048.31 951.699 1042.27 953.627 1037.22 957.208C1032.16 960.789 1028.34 965.848 1026.27 971.69L969.35 1132.45L1212.39 1132.44Z" fill="black"/>
<path d="M1154.06 1016.5C1158.46 1016.5 1162.02 1012.94 1162.02 1008.54C1162.02 1004.14 1158.46 1000.58 1154.06 1000.58C1149.66 1000.58 1146.1 1004.14 1146.1 1008.54C1146.1 1012.94 1149.66 1016.5 1154.06 1016.5Z" fill="url(#paint2_linear_66_522)"/>
<path d="M366.97 1500.47C521.532 1500.47 646.83 1375.17 646.83 1220.61C646.83 1066.05 521.532 940.75 366.97 940.75C212.407 940.75 87.1099 1066.05 87.1099 1220.61C87.1099 1375.17 212.407 1500.47 366.97 1500.47Z" fill="white"/>
<path d="M367 1502.67C211.47 1502.67 84.9399 1376.14 84.9399 1220.61C84.9399 1065.08 211.44 938.55 367 938.55C522.56 938.55 649 1065.08 649 1220.61C649 1376.14 522.49 1502.67 367 1502.67ZM367 943C213.9 943 89.3399 1067.55 89.3399 1220.65C89.3399 1373.75 213.87 1498.26 367 1498.26C520.13 1498.26 644.65 1373.71 644.65 1220.61C644.65 1067.51 520.07 943 367 943Z" fill="black"/>
<path d="M374.11 1433H374C243.34 1423.53 212.59 1358 211.34 1355.27C211.153 1354.75 211.17 1354.18 211.386 1353.67C211.603 1353.16 212.003 1352.75 212.508 1352.52C213.013 1352.29 213.585 1352.27 214.11 1352.44C214.634 1352.62 215.074 1352.98 215.34 1353.47C215.64 1354.12 246.5 1419.35 374.34 1428.6C374.629 1428.61 374.913 1428.68 375.176 1428.8C375.439 1428.92 375.675 1429.09 375.872 1429.3C376.069 1429.51 376.222 1429.76 376.323 1430.03C376.424 1430.3 376.47 1430.59 376.46 1430.88C376.449 1431.17 376.382 1431.45 376.262 1431.72C376.141 1431.98 375.971 1432.22 375.759 1432.41C375.547 1432.61 375.299 1432.76 375.028 1432.86C374.757 1432.96 374.469 1433.01 374.18 1433H374.11Z" fill="black"/>
<path d="M30.38 1783.81C30.0655 1783.81 29.7543 1783.74 29.47 1783.61C28.9383 1783.37 28.5237 1782.93 28.3174 1782.38C28.1111 1781.84 28.13 1781.23 28.37 1780.7L185.64 1434.57C185.918 1434.1 186.359 1433.75 186.879 1433.59C187.399 1433.42 187.961 1433.46 188.457 1433.68C188.953 1433.91 189.349 1434.31 189.567 1434.81C189.785 1435.31 189.811 1435.87 189.64 1436.39L32.38 1782.52C32.2065 1782.9 31.9254 1783.23 31.5705 1783.46C31.2157 1783.69 30.8023 1783.81 30.38 1783.81Z" fill="black"/>
<path d="M20.8099 1827.8C31.9274 1827.8 40.9399 1818.79 40.9399 1807.67C40.9399 1796.55 31.9274 1787.54 20.8099 1787.54C9.69244 1787.54 0.679932 1796.55 0.679932 1807.67C0.679932 1818.79 9.69244 1827.8 20.8099 1827.8Z" fill="black"/>
<path d="M703.56 1783.81C703.138 1783.81 702.726 1783.69 702.371 1783.46C702.017 1783.23 701.735 1782.9 701.56 1782.52L544.28 1436.39C544.072 1435.87 544.073 1435.28 544.285 1434.76C544.496 1434.23 544.9 1433.81 545.414 1433.58C545.928 1433.34 546.512 1433.32 547.045 1433.5C547.579 1433.69 548.021 1434.07 548.28 1434.57L705.55 1780.7C705.67 1780.96 705.738 1781.25 705.748 1781.54C705.758 1781.82 705.712 1782.11 705.61 1782.38C705.509 1782.65 705.355 1782.9 705.158 1783.11C704.96 1783.32 704.723 1783.49 704.46 1783.61C704.178 1783.74 703.871 1783.81 703.56 1783.81Z" fill="black"/>
<path d="M713.13 1827.8C724.247 1827.8 733.26 1818.79 733.26 1807.67C733.26 1796.55 724.247 1787.54 713.13 1787.54C702.013 1787.54 693 1796.55 693 1807.67C693 1818.79 702.013 1827.8 713.13 1827.8Z" fill="black"/>
<path d="M713.13 1828.9C708.931 1828.9 704.826 1827.65 701.335 1825.32C697.844 1822.99 695.123 1819.67 693.516 1815.79C691.909 1811.91 691.489 1807.65 692.308 1803.53C693.127 1799.41 695.149 1795.63 698.118 1792.66C701.087 1789.69 704.87 1787.67 708.988 1786.85C713.106 1786.03 717.375 1786.45 721.254 1788.06C725.134 1789.66 728.449 1792.38 730.782 1795.87C733.115 1799.37 734.36 1803.47 734.36 1807.67C734.355 1813.3 732.116 1818.7 728.136 1822.68C724.156 1826.66 718.759 1828.89 713.13 1828.9ZM713.13 1788.64C709.372 1788.64 705.699 1789.75 702.574 1791.84C699.45 1793.93 697.014 1796.9 695.576 1800.37C694.138 1803.84 693.762 1807.66 694.495 1811.35C695.228 1815.03 697.038 1818.42 699.695 1821.07C702.352 1823.73 705.738 1825.54 709.423 1826.27C713.109 1827.01 716.929 1826.63 720.401 1825.19C723.873 1823.75 726.84 1821.32 728.928 1818.2C731.016 1815.07 732.13 1811.4 732.13 1807.64C732.114 1802.61 730.107 1797.78 726.547 1794.22C722.988 1790.66 718.164 1788.66 713.13 1788.64Z" fill="#E0E0E0"/>
<path d="M1490 1783.81C1489.58 1783.81 1489.17 1783.69 1488.81 1783.46C1488.46 1783.24 1488.18 1782.91 1488 1782.53L1203.44 1164.27C1203.32 1164.01 1203.25 1163.72 1203.24 1163.43C1203.23 1163.15 1203.27 1162.86 1203.38 1162.59C1203.48 1162.32 1203.63 1162.07 1203.82 1161.85C1204.02 1161.64 1204.26 1161.47 1204.52 1161.35C1204.78 1161.23 1205.07 1161.16 1205.36 1161.15C1205.64 1161.14 1205.93 1161.18 1206.2 1161.29C1206.47 1161.39 1206.72 1161.54 1206.94 1161.73C1207.15 1161.93 1207.32 1162.17 1207.44 1162.43L1492 1780.69C1492.24 1781.22 1492.26 1781.83 1492.06 1782.37C1491.86 1782.92 1491.45 1783.36 1490.92 1783.61C1490.63 1783.74 1490.32 1783.81 1490 1783.81Z" fill="black"/>
<path d="M1499.61 1827.8C1510.73 1827.8 1519.74 1818.79 1519.74 1807.67C1519.74 1796.55 1510.73 1787.54 1499.61 1787.54C1488.49 1787.54 1479.48 1796.55 1479.48 1807.67C1479.48 1818.79 1488.49 1827.8 1499.61 1827.8Z" fill="black"/>
<path d="M1261.9 1133.2H673.68V1160.71H1261.9V1133.2Z" fill="white"/>
<path d="M1261.9 1162.92H673.68C673.39 1162.92 673.103 1162.86 672.836 1162.75C672.568 1162.64 672.325 1162.48 672.121 1162.27C671.916 1162.07 671.755 1161.82 671.645 1161.55C671.535 1161.29 671.479 1161 671.48 1160.71V1133.2C671.479 1132.91 671.535 1132.62 671.645 1132.36C671.755 1132.09 671.917 1131.85 672.121 1131.64C672.326 1131.44 672.569 1131.27 672.837 1131.16C673.104 1131.05 673.391 1131 673.68 1131H1261.9C1262.19 1131 1262.48 1131.05 1262.74 1131.16C1263.01 1131.27 1263.26 1131.44 1263.46 1131.64C1263.67 1131.85 1263.83 1132.09 1263.94 1132.36C1264.05 1132.62 1264.11 1132.91 1264.11 1133.2V1160.71C1264.11 1161.3 1263.88 1161.86 1263.46 1162.27C1263.05 1162.69 1262.49 1162.92 1261.9 1162.92ZM675.9 1158.51H1259.7V1135.4H675.88L675.9 1158.51Z" fill="black"/>
<path d="M737.36 603.65C718.36 584.09 689.59 588.56 666.02 595.95C638.52 604.56 613.3 618.87 586.35 628.9C573.638 633.803 560.383 637.161 546.87 638.9C534.601 640.26 522.219 640.26 509.95 638.9C484.95 636.31 460.61 629.23 436.6 621.97C412.59 614.71 388.36 606.97 363.49 602.58C337.28 597.95 310.78 597.87 284.83 604.21C231.92 617.13 181.56 653.21 158.46 703.37C147.537 727.212 142.559 753.347 143.953 779.535C145.346 805.722 153.069 831.182 166.46 853.73C179.733 875.91 198.035 894.658 219.89 908.46C243.6 923.46 270.64 932.95 297.75 939.62C352.363 952.924 409.331 953.266 464.1 940.62C515.524 928.735 563.613 905.426 604.8 872.42C643.9 841.081 676.046 801.944 699.19 757.5C704 748.24 708.35 738.75 712.31 729.09C729.85 710.03 747.31 688.17 752.52 662.24C756.63 642.07 752 618.65 737.36 603.65Z" fill="black"/>
<path d="M547.92 791.41L592.76 734.18C595.91 730.18 619.92 721.73 623.67 725.18L646.31 770.83C647.863 772.266 648.843 774.217 649.068 776.321C649.292 778.425 648.746 780.538 647.53 782.27L614.53 829.27C611.78 833.203 608.012 836.313 603.629 838.267C599.245 840.221 594.413 840.944 589.65 840.36C577.31 838.83 560.65 832.74 547.16 813.28C544.945 810.027 543.825 806.153 543.962 802.221C544.099 798.288 545.485 794.501 547.92 791.41Z" fill="white"/>
<path d="M542.71 799.44C542.295 799.437 541.89 799.317 541.54 799.094C541.19 798.872 540.909 798.555 540.731 798.18C540.552 797.806 540.483 797.389 540.531 796.977C540.578 796.564 540.741 796.174 541 795.85L595.27 728.52C595.451 728.295 595.675 728.107 595.929 727.969C596.182 727.83 596.461 727.743 596.748 727.712C597.036 727.68 597.326 727.706 597.604 727.787C597.881 727.869 598.14 728.004 598.365 728.185C598.59 728.366 598.778 728.59 598.916 728.844C599.055 729.097 599.142 729.376 599.174 729.663C599.205 729.95 599.179 730.241 599.098 730.519C599.016 730.796 598.881 731.055 598.7 731.28L544.43 798.62C544.223 798.877 543.961 799.084 543.663 799.226C543.366 799.368 543.04 799.441 542.71 799.44Z" fill="black"/>
<path d="M610.06 837.39C609.596 837.394 609.143 837.246 608.77 836.97C608.535 836.801 608.336 836.586 608.184 836.339C608.032 836.093 607.93 835.818 607.885 835.532C607.839 835.246 607.851 834.953 607.918 834.672C607.986 834.39 608.109 834.124 608.28 833.89L650.54 775.72C650.883 775.248 651.4 774.932 651.977 774.841C652.554 774.75 653.143 774.892 653.615 775.235C654.087 775.579 654.403 776.095 654.494 776.672C654.585 777.249 654.443 777.838 654.1 778.31L611.84 836.48C611.637 836.763 611.37 836.993 611.06 837.151C610.751 837.31 610.408 837.391 610.06 837.39Z" fill="black"/>
<path d="M620.38 706.28C620.38 706.28 618.3 696.75 608.91 696.35C599.52 695.95 591.26 704.21 589.99 713.35C588.72 722.49 594.21 732.03 602.52 736.1C607.21 738.4 611.8 740.1 617.69 738.5C621.25 749.67 627.15 760.27 635.8 768.19C644.45 776.11 655.99 781.19 667.7 780.78C687.31 780.16 703.94 764.57 711.7 746.54C719.46 728.51 720.08 708.35 720.42 688.73C720.42 688.73 692.27 710.52 652.52 682.45C646.26 701 636.33 710.71 620.38 706.28Z" fill="white"/>
<path d="M666.5 783C655.18 783 643.5 778.24 634.31 769.81C626.45 762.62 620.22 752.71 616.22 741.06C610.3 742.06 605.57 740.06 601.55 738.06C592.2 733.48 586.42 722.95 587.81 713.06C589.29 702.38 598.98 693.71 609.01 694.14C616.84 694.48 620.8 700.43 622.16 704.46C635.16 707.46 644.16 700.27 650.42 681.77C650.528 681.443 650.712 681.146 650.957 680.905C651.202 680.663 651.502 680.483 651.83 680.38C652.156 680.277 652.501 680.25 652.838 680.3C653.176 680.35 653.498 680.477 653.78 680.67C691.78 707.49 718.78 687.22 719.06 687.01C719.388 686.755 719.782 686.598 720.195 686.557C720.609 686.516 721.025 686.594 721.396 686.78C721.768 686.966 722.079 687.254 722.294 687.609C722.509 687.965 722.618 688.374 722.61 688.79C722.31 706.41 721.93 728.34 713.71 747.44C704.71 768.44 686.64 782.44 667.77 783C667.35 783 666.93 783 666.5 783ZM617.69 736.3C618.157 736.299 618.612 736.447 618.99 736.722C619.368 736.997 619.648 737.385 619.79 737.83C623.52 749.57 629.57 759.5 637.29 766.56C645.99 774.56 657.04 778.89 667.63 778.56C687.15 777.94 702.81 761.56 709.63 745.65C716.9 728.75 717.77 709.16 718.09 692.65C709.22 697.43 684.84 706.65 653.58 685.83C646.35 704.98 634.99 712.55 619.75 708.32C619.366 708.211 619.018 708 618.743 707.709C618.469 707.419 618.277 707.06 618.19 706.67C618.12 706.33 616.31 698.78 608.78 698.46C601.08 698.22 593.3 705.2 592.13 713.59C591 721.69 595.76 730.3 603.45 734.06C608.36 736.48 612.17 737.62 617.09 736.31C617.29 736.289 617.492 736.296 617.69 736.33V736.3Z" fill="black"/>
<path d="M615.54 728C615.081 728.001 614.633 727.858 614.26 727.59C613.886 727.323 613.607 726.945 613.46 726.51C611.788 721.715 608.429 717.692 604.01 715.19C603.499 714.905 603.123 714.429 602.964 713.866C602.804 713.303 602.875 712.7 603.16 712.19C603.445 711.679 603.921 711.303 604.484 711.144C605.047 710.984 605.649 711.055 606.16 711.34C611.525 714.38 615.602 719.267 617.63 725.09C617.818 725.643 617.779 726.248 617.523 726.773C617.266 727.297 616.812 727.699 616.26 727.89C616.028 727.965 615.784 728.003 615.54 728Z" fill="black"/>
<path d="M719.31 691.76C718.812 691.765 718.327 691.601 717.935 691.294C717.543 690.988 717.266 690.557 717.15 690.073C717.034 689.589 717.085 689.08 717.296 688.629C717.507 688.178 717.864 687.812 718.31 687.59C723.576 684.969 728.091 681.053 731.43 676.21C731.762 675.729 732.271 675.399 732.845 675.293C733.42 675.187 734.014 675.314 734.495 675.645C734.976 675.977 735.306 676.486 735.412 677.061C735.518 677.635 735.392 678.229 735.06 678.71C731.3 684.171 726.21 688.584 720.27 691.53C719.972 691.681 719.644 691.76 719.31 691.76Z" fill="black"/>
<path d="M555.44 1512.28L411.34 1771.2C397.21 1796.58 415.57 1827.8 444.62 1827.8H857.49C859.467 1827.81 861.398 1827.2 863.022 1826.08C864.646 1824.95 865.884 1823.35 866.569 1821.49C867.254 1819.64 867.353 1817.62 866.852 1815.71C866.352 1813.79 865.276 1812.08 863.77 1810.8L747.12 1710.85L867.17 1497.08L555.44 1512.28Z" fill="white"/>
<path d="M857.49 1830H444.62C437.602 1830 430.706 1828.16 424.616 1824.68C418.525 1821.19 413.45 1816.18 409.893 1810.13C406.337 1804.08 404.423 1797.2 404.339 1790.19C404.256 1783.17 406.008 1776.25 409.42 1770.12L553.52 1511.21C553.704 1510.88 553.967 1510.61 554.285 1510.41C554.603 1510.21 554.966 1510.1 555.34 1510.08L867.06 1494.91C867.45 1494.9 867.836 1494.99 868.18 1495.17C868.523 1495.35 868.812 1495.63 869.015 1495.96C869.219 1496.29 869.33 1496.67 869.338 1497.06C869.346 1497.45 869.25 1497.84 869.06 1498.18L749.9 1710.38L865.17 1809.16C867.005 1810.74 868.314 1812.84 868.921 1815.18C869.528 1817.52 869.403 1819.99 868.563 1822.26C867.724 1824.53 866.21 1826.49 864.225 1827.87C862.24 1829.25 859.879 1830 857.46 1830H857.49ZM556.77 1514.42L413.26 1772.27C410.22 1777.73 408.659 1783.89 408.733 1790.14C408.807 1796.4 410.513 1802.52 413.682 1807.91C416.851 1813.3 421.372 1817.76 426.799 1820.87C432.225 1823.97 438.369 1825.6 444.62 1825.6H857.49C859.01 1825.6 860.494 1825.13 861.741 1824.26C862.989 1823.4 863.94 1822.17 864.468 1820.74C864.995 1819.31 865.072 1817.76 864.69 1816.29C864.308 1814.82 863.484 1813.5 862.33 1812.51L745.69 1712.51C745.302 1712.18 745.042 1711.72 744.952 1711.22C744.863 1710.72 744.95 1710.2 745.2 1709.76L863.3 1499.46L556.77 1514.42Z" fill="black"/>
<path d="M551.21 1737.16C510.21 1737.16 473.47 1733.16 439.59 1725.16C439.021 1725.03 438.528 1724.67 438.22 1724.18C437.911 1723.68 437.812 1723.08 437.945 1722.51C438.078 1721.95 438.431 1721.45 438.927 1721.14C439.423 1720.84 440.021 1720.74 440.59 1720.87C483.3 1731.01 530.7 1734.62 585.49 1731.87C634.16 1729.45 683.26 1722.33 730.74 1715.44C731.318 1715.36 731.906 1715.51 732.374 1715.86C732.842 1716.21 733.151 1716.73 733.235 1717.3C733.318 1717.88 733.169 1718.47 732.819 1718.94C732.469 1719.41 731.948 1719.72 731.37 1719.8C683.79 1726.7 634.59 1733.8 585.71 1736.27C573.903 1736.86 562.403 1737.16 551.21 1737.16Z" fill="black"/>
<path d="M764.2 1476.42L927.2 1786.42C933.77 1798.91 943.629 1809.37 955.71 1816.67C967.791 1823.96 981.636 1827.82 995.75 1827.82H1297.25C1299.09 1827.8 1300.88 1827.22 1302.38 1826.15C1303.88 1825.08 1305.01 1823.58 1305.63 1821.84C1306.25 1820.11 1306.32 1818.23 1305.84 1816.45C1305.35 1814.67 1304.33 1813.09 1302.92 1811.91L1175.51 1707.91L1082.27 1518.12L764.2 1476.42Z" fill="white"/>
<path d="M1297.27 1830H995.77C981.25 1830.02 967.002 1826.06 954.573 1818.56C942.144 1811.05 932.009 1800.28 925.27 1787.42L762.27 1477.42C762.083 1477.06 761.997 1476.66 762.021 1476.26C762.046 1475.85 762.18 1475.46 762.41 1475.13C762.638 1474.79 762.956 1474.53 763.328 1474.37C763.699 1474.21 764.109 1474.15 764.51 1474.21L1082.59 1515.86C1082.95 1515.91 1083.29 1516.04 1083.59 1516.25C1083.88 1516.46 1084.12 1516.74 1084.28 1517.07L1177.28 1706.44L1304.28 1810.15C1306.06 1811.61 1307.35 1813.58 1307.97 1815.8C1308.59 1818.02 1308.51 1820.38 1307.74 1822.55C1306.96 1824.72 1305.54 1826.6 1303.65 1827.93C1301.77 1829.25 1299.52 1829.97 1297.22 1829.97L1297.27 1830ZM768.13 1479.16L929.13 1785.37C935.495 1797.52 945.069 1807.7 956.81 1814.79C968.552 1821.88 982.013 1825.62 995.73 1825.6H1297.23C1298.62 1825.6 1299.98 1825.16 1301.12 1824.36C1302.26 1823.55 1303.12 1822.42 1303.59 1821.1C1304.06 1819.79 1304.11 1818.37 1303.74 1817.02C1303.36 1815.68 1302.59 1814.48 1301.51 1813.6L1174.1 1709.6C1173.86 1709.4 1173.66 1709.15 1173.52 1708.87L1080.79 1520.13L768.13 1479.16Z" fill="black"/>
<path d="M997.94 1735.21C963.763 1735.21 929.609 1733.41 895.62 1729.83C895.039 1729.77 894.506 1729.48 894.139 1729.03C893.771 1728.57 893.599 1727.99 893.66 1727.41C893.721 1726.83 894.01 1726.3 894.464 1725.93C894.918 1725.56 895.499 1725.39 896.08 1725.45C986.75 1735.01 1078.31 1731.76 1168.08 1715.8C1168.36 1715.75 1168.66 1715.76 1168.94 1715.82C1169.22 1715.88 1169.49 1716 1169.73 1716.16C1169.96 1716.33 1170.17 1716.54 1170.32 1716.78C1170.48 1717.03 1170.58 1717.3 1170.63 1717.58C1170.69 1717.87 1170.68 1718.16 1170.62 1718.44C1170.55 1718.73 1170.44 1718.99 1170.27 1719.23C1170.11 1719.47 1169.9 1719.67 1169.65 1719.83C1169.41 1719.98 1169.13 1720.09 1168.85 1720.14C1112.43 1730.17 1055.24 1735.21 997.94 1735.21Z" fill="black"/>
<path d="M504 1565.8C504 1565.8 799.71 1654.07 1097.74 1526.25C1097.74 1526.25 1020.51 1381.57 956.23 1274.18C936.554 1241.31 908.695 1214.11 875.371 1195.22C842.047 1176.33 804.395 1166.41 766.09 1166.41H268.25L234.85 1231.62C197.57 1304.4 245.16 1391.94 326.53 1400.16C430.27 1410.65 524.08 1416.84 598.18 1414.51L504 1565.8Z" fill="#DC1D47"/>
<path d="M815.56 1585.49C815.212 1585.49 814.87 1585.41 814.56 1585.25C814.295 1585.12 814.058 1584.94 813.864 1584.72C813.669 1584.5 813.521 1584.24 813.428 1583.96C813.335 1583.68 813.298 1583.39 813.321 1583.09C813.344 1582.8 813.425 1582.51 813.56 1582.25C841.291 1528.52 863.087 1471.93 878.56 1413.48C889.42 1372.4 899.33 1319.48 879.47 1274.48C866.21 1244.48 839.86 1217.97 798.9 1193.58C798.397 1193.28 798.034 1192.8 797.889 1192.23C797.745 1191.66 797.831 1191.06 798.13 1190.56C798.428 1190.06 798.914 1189.69 799.48 1189.55C800.047 1189.41 800.647 1189.49 801.15 1189.79C842.92 1214.67 869.86 1241.79 883.5 1272.7C903.91 1318.94 893.86 1372.81 882.82 1414.58C867.28 1473.34 845.381 1530.23 817.51 1584.25C817.333 1584.62 817.056 1584.93 816.712 1585.15C816.367 1585.37 815.968 1585.49 815.56 1585.49Z" fill="black"/>
<path d="M600.63 1415.78C600.07 1415.75 599.542 1415.51 599.153 1415.11C598.764 1414.7 598.543 1414.16 598.536 1413.6C598.528 1413.04 598.734 1412.5 599.112 1412.08C599.489 1411.67 600.011 1411.41 600.57 1411.37L662.51 1409.56C663.09 1409.55 663.65 1409.77 664.073 1410.17C664.496 1410.57 664.749 1411.11 664.78 1411.69C664.789 1411.98 664.741 1412.27 664.639 1412.54C664.536 1412.81 664.381 1413.06 664.182 1413.27C663.983 1413.48 663.744 1413.65 663.48 1413.77C663.215 1413.89 662.93 1413.95 662.64 1413.96L600.7 1415.78H600.63Z" fill="black"/>
<path d="M268.25 1166.41H521.86L559.94 1090.53C559.94 1090.53 609.94 1141.98 673.68 1133.2C737.42 1124.42 807.16 1069.44 867.17 1069.99C867.17 1069.99 884.52 1073.68 893.9 1088.07C903.28 1102.46 916.99 1100.31 919.34 1091.15C921.69 1081.99 906.27 1055.97 906.27 1055.97C906.27 1055.97 914.27 1067.75 925.34 1087.59C933.85 1102.92 943.2 1086.59 943.2 1086.59C943.2 1086.59 957.65 1077.06 953.53 1053.92C955.167 1051.42 956.251 1048.6 956.708 1045.65C957.165 1042.7 956.985 1039.69 956.18 1036.81C953.45 1026.89 925.09 972.05 846.58 982.26C795.19 988.95 745.8 1001.26 717.81 1008.99C710.342 1011.04 702.418 1010.7 695.156 1008.01C687.893 1005.31 681.659 1000.41 677.33 993.99C669.89 982.99 661.66 968.52 656.33 952.59C642.05 909.7 624.33 804.36 563.87 804.3C518.35 804.3 478.16 816.3 371.22 982.23C297.39 1096.83 268.25 1166.41 268.25 1166.41Z" fill="url(#paint3_linear_66_522)"/>
<path d="M268.25 1168.62C267.957 1168.62 267.668 1168.56 267.4 1168.44C267.133 1168.33 266.89 1168.17 266.685 1167.96C266.481 1167.76 266.319 1167.51 266.209 1167.25C266.1 1166.98 266.044 1166.69 266.046 1166.4C266.048 1166.11 266.107 1165.83 266.22 1165.56C266.51 1164.87 296.28 1094.49 369.4 981.01C476.28 815.14 517.4 802.07 563.66 802.07H563.91C616.17 802.13 637.17 877.17 651.07 926.82C653.79 936.55 656.14 944.95 658.45 951.82C662.87 965.1 669.84 978.82 679.16 992.69C683.225 998.733 689.087 1003.34 695.918 1005.87C702.749 1008.4 710.201 1008.71 717.22 1006.77C742.86 999.7 793.73 986.77 846.29 979.98C923.73 969.9 954.29 1021.71 958.29 1036.13C959.138 1039.17 959.359 1042.35 958.937 1045.47C958.516 1048.6 957.462 1051.61 955.84 1054.31C959.33 1075.96 947.38 1086.13 944.84 1088.01C943.68 1089.9 939.31 1096.29 933.39 1096.29C929.61 1096.29 926.26 1093.68 923.44 1088.61L921.35 1084.87C921.882 1087.09 921.937 1089.4 921.51 1091.65C920.934 1093.9 919.707 1095.94 917.982 1097.5C916.257 1099.06 914.11 1100.07 911.81 1100.42C904.81 1101.58 897.4 1097.42 892.08 1089.22C883.83 1076.55 868.84 1072.6 866.94 1072.14C835 1071.91 799.33 1088.06 764.77 1103.65C734.71 1117.22 703.62 1131.25 674.01 1135.33C617.43 1143.15 571.07 1103.83 560.6 1094.13L523.86 1167.35C523.595 1167.87 523.133 1168.27 522.576 1168.45C522.019 1168.63 521.413 1168.59 520.89 1168.32C520.368 1168.05 519.972 1167.59 519.79 1167.04C519.608 1166.48 519.655 1165.87 519.92 1165.35L558 1089.54C558.157 1089.23 558.387 1088.96 558.67 1088.75C558.954 1088.54 559.282 1088.41 559.628 1088.35C559.975 1088.3 560.329 1088.33 560.661 1088.44C560.994 1088.55 561.295 1088.74 561.54 1088.99C562.04 1089.5 611.54 1139.52 673.4 1130.99C702.4 1126.99 733.17 1113.1 762.95 1099.66C798.03 1083.83 834.2 1067.45 867.21 1067.75C867.357 1067.74 867.504 1067.74 867.65 1067.75C868.39 1067.91 886 1071.8 895.76 1086.75C900.87 1094.59 907.03 1096.68 911.08 1096C912.538 1095.8 913.903 1095.17 914.999 1094.19C916.095 1093.2 916.872 1091.92 917.23 1090.49C918.78 1084.49 910.23 1066.73 904.39 1056.97C904.076 1056.48 903.97 1055.88 904.095 1055.31C904.221 1054.74 904.568 1054.24 905.06 1053.93C905.552 1053.62 906.149 1053.51 906.719 1053.64C907.289 1053.76 907.786 1054.11 908.1 1054.6C908.19 1054.72 916.34 1066.7 927.28 1086.4C928.65 1088.86 930.82 1091.8 933.39 1091.82C936.8 1091.82 940.24 1087.13 941.28 1085.32C941.454 1085.02 941.693 1084.77 941.98 1084.58C942.51 1084.22 955.15 1075.46 951.36 1054.13C951.307 1053.83 951.315 1053.53 951.384 1053.24C951.453 1052.95 951.581 1052.67 951.76 1052.43C953.206 1050.21 954.157 1047.7 954.55 1045.08C954.944 1042.46 954.77 1039.78 954.04 1037.23C950.53 1024.41 920.39 974.71 846.85 984.23C794.55 991.04 743.91 1003.86 718.38 1010.9C710.471 1013.09 702.074 1012.74 694.376 1009.89C686.679 1007.04 680.072 1001.85 675.49 995.04C665.95 980.87 658.81 966.76 654.26 953.1C651.92 946.1 649.55 937.63 646.82 927.85C633.28 879.47 612.82 806.37 563.89 806.32H563.66C518.81 806.32 478.78 819.22 373.09 983.24C300.18 1096.39 270.56 1166.41 270.27 1167.11C270.128 1167.54 269.858 1167.91 269.497 1168.18C269.136 1168.45 268.701 1168.6 268.25 1168.62Z" fill="black"/>
<path d="M943.69 1087.76H943.59C943.301 1087.75 943.017 1087.68 942.755 1087.55C942.493 1087.43 942.258 1087.26 942.063 1087.05C941.868 1086.83 941.717 1086.58 941.619 1086.31C941.52 1086.04 941.477 1085.75 941.49 1085.46C941.819 1077.56 940.575 1069.66 937.828 1062.24C935.081 1054.82 930.887 1048.02 925.49 1042.24C925.144 1041.81 924.975 1041.26 925.014 1040.71C925.054 1040.16 925.3 1039.64 925.704 1039.26C926.108 1038.88 926.639 1038.67 927.193 1038.67C927.746 1038.66 928.281 1038.87 928.69 1039.24C934.496 1045.46 939.009 1052.77 941.965 1060.74C944.921 1068.72 946.262 1077.2 945.91 1085.7C945.872 1086.26 945.621 1086.79 945.208 1087.17C944.796 1087.55 944.253 1087.76 943.69 1087.76Z" fill="black"/>
<path d="M953.65 1057C953.188 1057 952.738 1056.85 952.363 1056.58C951.989 1056.31 951.708 1055.93 951.56 1055.49C947.474 1043.2 940.358 1032.14 930.87 1023.33C930.658 1023.13 930.487 1022.9 930.366 1022.63C930.245 1022.37 930.178 1022.09 930.167 1021.8C930.157 1021.51 930.203 1021.22 930.304 1020.95C930.405 1020.68 930.558 1020.43 930.755 1020.21C930.952 1020 931.189 1019.83 931.452 1019.71C931.715 1019.59 931.999 1019.52 932.289 1019.51C932.578 1019.5 932.866 1019.55 933.138 1019.65C933.409 1019.75 933.658 1019.9 933.87 1020.1C943.899 1029.42 951.42 1041.11 955.74 1054.1C955.832 1054.37 955.87 1054.66 955.85 1054.95C955.83 1055.24 955.753 1055.52 955.624 1055.78C955.495 1056.04 955.316 1056.27 955.097 1056.46C954.879 1056.65 954.625 1056.8 954.35 1056.89C954.123 1056.96 953.887 1057 953.65 1057Z" fill="black"/>
<path d="M804.61 1086C804.108 1086 803.621 1085.83 803.23 1085.51C802.839 1085.2 802.567 1084.76 802.46 1084.27L782.9 993.44C782.777 992.869 782.885 992.272 783.202 991.78C783.519 991.289 784.018 990.943 784.59 990.82C785.161 990.697 785.759 990.806 786.25 991.123C786.741 991.44 787.087 991.939 787.21 992.51L806.77 1083.34C806.892 1083.91 806.782 1084.51 806.465 1084.99C806.148 1085.48 805.65 1085.83 805.08 1085.95C804.926 1085.99 804.768 1086 804.61 1086Z" fill="black"/>
<path d="M553.68 1088.94C553.361 1088.94 553.045 1088.87 552.755 1088.74C552.465 1088.61 552.207 1088.41 552 1088.17C513.687 1043.3 487.758 989.201 476.78 931.23C476.727 930.946 476.73 930.654 476.79 930.371C476.849 930.088 476.964 929.819 477.128 929.581C477.291 929.342 477.5 929.138 477.742 928.98C477.985 928.822 478.256 928.713 478.54 928.66C478.824 928.607 479.116 928.61 479.399 928.67C479.682 928.73 479.951 928.844 480.189 929.008C480.428 929.171 480.632 929.38 480.79 929.622C480.948 929.865 481.057 930.136 481.11 930.42C491.94 987.636 517.532 1041.03 555.35 1085.31C555.623 1085.63 555.799 1086.02 555.857 1086.44C555.915 1086.85 555.852 1087.28 555.677 1087.66C555.501 1088.04 555.22 1088.37 554.866 1088.59C554.512 1088.82 554.1 1088.94 553.68 1088.94Z" fill="black"/>
<defs>
<linearGradient id="paint0_linear_66_522" x1="2233.55" y1="1814.18" x2="2233.55" y2="1167.98" gradientUnits="userSpaceOnUse">
<stop stop-color="#DC1D47"/>
<stop offset="1" stop-color="#E54327"/>
</linearGradient>
<linearGradient id="paint1_linear_66_522" x1="1744.3" y1="1631.93" x2="1709.93" y2="1617.69" gradientUnits="userSpaceOnUse">
<stop stop-color="#DC1D47"/>
<stop offset="1" stop-color="#E54327"/>
</linearGradient>
<linearGradient id="paint2_linear_66_522" x1="1154.06" y1="1016.5" x2="1154.06" y2="1000.58" gradientUnits="userSpaceOnUse">
<stop stop-color="#DC1D47"/>
<stop offset="1" stop-color="#E54327"/>
</linearGradient>
<linearGradient id="paint3_linear_66_522" x1="612.618" y1="1166.42" x2="612.618" y2="804.3" gradientUnits="userSpaceOnUse">
<stop stop-color="#DC1D47"/>
<stop offset="1" stop-color="#E54327"/>
</linearGradient>
</defs>
</svg>
