<svg width="600" height="400" viewBox="0 0 600 400" fill="none" xmlns="http://www.w3.org/2000/svg">
<path d="M88.2227 320.54C125.342 320.54 155.433 290.449 155.433 253.33C155.433 216.211 125.342 186.12 88.2227 186.12C51.1036 186.12 21.0126 216.211 21.0126 253.33C21.0126 290.449 51.1036 320.54 88.2227 320.54Z" fill="white"/>
<path d="M88.2227 321.024C50.8976 321.024 20.5308 290.655 20.5308 253.33C20.5308 216.005 50.8976 185.638 88.2227 185.638C125.548 185.638 155.915 216.005 155.915 253.33C155.915 290.655 125.552 321.024 88.2227 321.024ZM88.2227 186.602C51.4276 186.602 21.4944 216.537 21.4944 253.33C21.4944 290.123 51.4298 320.058 88.2227 320.058C125.016 320.058 154.951 290.125 154.951 253.33C154.951 216.535 125.016 186.604 88.2227 186.604V186.602Z" fill="#141414"/>
<path d="M91.6393 296.15H91.6043C75.2546 294.968 65.5412 289.992 60.2563 286.025C54.4961 281.695 52.6563 277.681 52.5906 277.512C52.5497 277.398 52.5534 277.273 52.6008 277.161C52.6482 277.049 52.7359 276.96 52.8465 276.91C52.957 276.86 53.0823 276.854 53.1972 276.893C53.3122 276.931 53.4084 277.011 53.4667 277.118C53.539 277.275 60.9549 292.964 91.681 295.189C91.7442 295.191 91.8064 295.206 91.864 295.232C91.9216 295.259 91.9734 295.296 92.0165 295.342C92.0597 295.389 92.0932 295.443 92.1153 295.503C92.1374 295.562 92.1476 295.625 92.1453 295.688C92.143 295.752 92.1282 295.814 92.1019 295.871C92.0756 295.929 92.0381 295.981 91.9918 296.024C91.9454 296.067 91.891 296.101 91.8316 296.123C91.7723 296.145 91.7092 296.155 91.6459 296.153L91.6393 296.15Z" fill="#141414"/>
<path d="M7.13122 389.47C7.06237 389.47 6.99432 389.455 6.93191 389.426C6.81584 389.373 6.72553 389.276 6.68078 389.157C6.63602 389.037 6.64048 388.905 6.69318 388.788L44.4628 305.66C44.4882 305.601 44.525 305.548 44.5713 305.503C44.6176 305.459 44.6723 305.424 44.7322 305.401C44.7921 305.377 44.8561 305.367 44.9203 305.368C44.9845 305.37 45.0477 305.385 45.1061 305.412C45.1646 305.439 45.2171 305.477 45.2605 305.524C45.304 305.571 45.3376 305.627 45.3592 305.687C45.3809 305.748 45.3903 305.812 45.3868 305.876C45.3833 305.94 45.367 306.003 45.3389 306.061L7.57145 389.196C7.53158 389.279 7.46902 389.348 7.39107 389.397C7.31313 389.445 7.223 389.47 7.13122 389.47Z" fill="#141414"/>
<path d="M4.83373 400.081C7.50332 400.081 9.66746 397.917 9.66746 395.247C9.66746 392.578 7.50332 390.414 4.83373 390.414C2.16413 390.414 0 392.578 0 395.247C0 397.917 2.16413 400.081 4.83373 400.081Z" fill="#141414"/>
<path d="M169.06 388.539C168.968 388.538 168.877 388.512 168.8 388.462C168.722 388.411 168.66 388.34 168.622 388.256L130.85 305.132C130.805 305.017 130.805 304.889 130.851 304.775C130.897 304.66 130.986 304.567 131.099 304.516C131.211 304.465 131.339 304.459 131.456 304.5C131.573 304.54 131.67 304.624 131.726 304.734L169.496 387.86C169.549 387.976 169.553 388.108 169.508 388.228C169.464 388.347 169.373 388.444 169.257 388.497C169.195 388.525 169.128 388.539 169.06 388.539Z" fill="#141414"/>
<path d="M171.355 399.152C174.025 399.152 176.189 396.988 176.189 394.319C176.189 391.649 174.025 389.485 171.355 389.485C168.686 389.485 166.522 391.649 166.522 394.319C166.522 396.988 168.686 399.152 171.355 399.152Z" fill="#141414"/>
<path d="M234.054 399.52H157.2C146.906 399.52 139.836 389.191 143.547 379.59L186.739 267.947H266.414L223.341 379.283L236.669 393.46C237.152 393.97 237.476 394.611 237.599 395.303C237.722 395.995 237.639 396.708 237.36 397.353C237.082 397.998 236.62 398.548 236.032 398.933C235.445 399.318 234.757 399.522 234.054 399.52Z" fill="white"/>
<path d="M234.051 400.002H157.2C154.742 400.005 152.319 399.408 150.144 398.263C147.968 397.117 146.105 395.459 144.715 393.43C143.326 391.402 142.452 389.065 142.17 386.623C141.889 384.18 142.207 381.706 143.098 379.415L186.29 267.772C186.324 267.683 186.384 267.606 186.462 267.551C186.54 267.496 186.633 267.465 186.728 267.463H266.403C266.482 267.465 266.56 267.485 266.629 267.523C266.699 267.562 266.758 267.616 266.801 267.682C266.844 267.746 266.871 267.819 266.88 267.895C266.889 267.972 266.879 268.049 266.852 268.12L223.891 379.182L237.032 393.138C237.577 393.718 237.94 394.444 238.077 395.227C238.214 396.01 238.119 396.816 237.803 397.546C237.487 398.276 236.965 398.897 236.3 399.334C235.635 399.77 234.858 400.003 234.062 400.002H234.051ZM187.07 268.438L143.998 379.778C143.166 381.923 142.87 384.239 143.135 386.525C143.4 388.81 144.218 390.997 145.518 392.895C146.819 394.793 148.562 396.346 150.598 397.419C152.633 398.492 154.899 399.052 157.2 399.052H234.051C234.659 399.052 235.253 398.875 235.76 398.541C236.268 398.208 236.667 397.734 236.908 397.176C237.149 396.619 237.221 396.003 237.117 395.405C237.012 394.807 236.734 394.253 236.318 393.811L222.989 379.636C222.927 379.569 222.884 379.486 222.867 379.397C222.85 379.307 222.859 379.215 222.892 379.13L265.711 268.451L187.07 268.438Z" fill="#141414"/>
<path d="M223.188 379.653H155.919C155.791 379.653 155.669 379.603 155.578 379.512C155.488 379.422 155.437 379.299 155.437 379.171C155.437 379.044 155.488 378.921 155.578 378.831C155.669 378.74 155.791 378.69 155.919 378.69H223.188C223.316 378.69 223.439 378.74 223.529 378.831C223.619 378.921 223.67 379.044 223.67 379.171C223.67 379.299 223.619 379.422 223.529 379.512C223.439 379.603 223.316 379.653 223.188 379.653Z" fill="#141414"/>
<path d="M80.0402 232.004L72.2453 254.631C66.415 271.55 78.9845 289.175 96.8805 289.175H208.21L257.73 390.6C259.153 393.516 261.367 395.973 264.119 397.692C266.871 399.411 270.05 400.322 273.295 400.322H354.014C356.296 400.322 357.247 397.4 355.403 396.058L333.825 380.345L286.636 269.722C281.863 258.532 273.907 248.991 263.756 242.286C253.606 235.58 241.709 232.005 229.544 232.004H80.0402Z" fill="white"/>
<path d="M354.014 400.804H273.295C269.965 400.789 266.704 399.847 263.88 398.082C261.056 396.317 258.78 393.799 257.307 390.812L207.903 289.657H96.8805C92.6527 289.657 88.4861 288.647 84.7275 286.711C80.9689 284.776 77.7272 281.97 75.2724 278.528C72.8175 275.086 71.2205 271.107 70.6143 266.923C70.0082 262.739 70.4104 258.471 71.7876 254.473L79.5824 231.849C79.6155 231.754 79.6773 231.671 79.7593 231.613C79.8413 231.554 79.9395 231.523 80.0402 231.523H229.544C241.806 231.511 253.801 235.109 264.032 241.868C274.264 248.627 282.279 258.248 287.08 269.531L334.215 380.034L355.679 395.668C356.159 396.023 356.515 396.52 356.697 397.089C356.879 397.658 356.878 398.27 356.693 398.838C356.508 399.406 356.149 399.901 355.667 400.254C355.186 400.607 354.605 400.799 354.008 400.804H354.014ZM80.384 232.488L72.7009 254.789C71.3741 258.641 70.9866 262.754 71.5708 266.785C72.155 270.817 73.6939 274.651 76.0593 277.968C78.4248 281.285 81.5484 283.988 85.17 285.854C88.7917 287.719 92.8066 288.693 96.8805 288.693H208.21C208.301 288.692 208.39 288.717 208.467 288.764C208.545 288.812 208.607 288.881 208.648 288.962L258.17 390.387C259.563 393.215 261.717 395.597 264.39 397.267C267.064 398.937 270.15 399.828 273.302 399.84H354.021C354.416 399.838 354.8 399.711 355.118 399.477C355.437 399.244 355.674 398.916 355.795 398.54C355.916 398.164 355.916 397.759 355.794 397.384C355.672 397.008 355.435 396.681 355.116 396.448L333.538 380.735C333.468 380.684 333.413 380.615 333.378 380.536L286.191 269.91C281.464 258.801 273.572 249.328 263.498 242.674C253.425 236.019 241.615 232.477 229.542 232.488H80.384Z" fill="#141414"/>
<path d="M333.825 380.827H266.414C266.286 380.827 266.163 380.776 266.073 380.686C265.983 380.596 265.932 380.473 265.932 380.345C265.932 380.218 265.983 380.095 266.073 380.005C266.163 379.914 266.286 379.863 266.414 379.863H333.825C333.953 379.863 334.075 379.914 334.166 380.005C334.256 380.095 334.307 380.218 334.307 380.345C334.307 380.473 334.256 380.596 334.166 380.686C334.075 380.776 333.953 380.827 333.825 380.827Z" fill="#141414"/>
<path d="M196.777 158.657L195.837 146.732L167.645 140.672L127.02 222.479L176.693 220.799L196.777 158.657Z" fill="white"/>
<path d="M164.386 226.452L195.971 146.399C195.971 146.399 242.573 171.424 225.908 226.452H164.386Z" fill="url(#paint0_linear_117_207)"/>
<path d="M194.411 215.129C194.351 215.129 194.291 215.118 194.234 215.096C194.115 215.049 194.02 214.956 193.969 214.839C193.918 214.722 193.916 214.589 193.962 214.47L208.418 177.822C208.441 177.763 208.475 177.709 208.519 177.663C208.563 177.618 208.616 177.581 208.674 177.556C208.732 177.53 208.794 177.517 208.858 177.516C208.921 177.514 208.984 177.526 209.043 177.549C209.102 177.572 209.156 177.607 209.201 177.651C209.247 177.694 209.283 177.747 209.309 177.805C209.334 177.863 209.348 177.926 209.349 177.989C209.35 178.052 209.339 178.115 209.316 178.174L194.86 214.825C194.824 214.914 194.763 214.991 194.683 215.046C194.603 215.1 194.508 215.129 194.411 215.129Z" fill="#141414"/>
<path d="M167.645 140.672L115.915 271.789L80.971 269.34C79.0179 269.204 77.1183 268.641 75.4055 267.693C73.6927 266.745 72.2081 265.433 71.0558 263.85C69.9034 262.267 69.1113 260.452 68.7349 258.53C68.3585 256.609 68.4069 254.629 68.8768 252.728C70.6837 245.424 73.3908 236.488 77.2718 228.071C83.0648 215.51 97.5397 187.066 109.248 165.951C120.475 145.707 143.746 135.006 166.274 140.326C166.733 140.437 167.19 140.552 167.645 140.672Z" fill="url(#paint1_linear_117_207)"/>
<path d="M283.926 225.929H218.23L240.059 165.876H305.754L283.926 225.929Z" fill="#141414"/>
<path d="M198.371 218.756H286.771L283.926 226.452H195.057L198.371 218.756Z" fill="#141414"/>
<path d="M289.654 226.413H182.672C182.037 226.424 181.413 226.242 180.883 225.892C180.308 225.503 179.881 224.933 179.67 224.272C179.458 223.612 179.475 222.899 179.717 222.249C180.979 219.604 183.588 218.673 187.442 218.673H296.673L295.256 222.525C294.83 223.667 294.065 224.651 293.063 225.346C292.062 226.041 290.872 226.413 289.654 226.413Z" fill="#141414"/>
<path d="M290.254 226.413C291.299 226.414 292.32 226.101 293.186 225.515C294.051 224.93 294.721 224.098 295.109 223.128L314.048 175.581C314.297 174.96 314.391 174.287 314.32 173.621C314.249 172.955 314.016 172.317 313.641 171.762C313.266 171.207 312.761 170.753 312.17 170.438C311.579 170.124 310.92 169.959 310.25 169.959H244.499C242.565 169.959 240.679 170.559 239.101 171.675C237.522 172.791 236.328 174.369 235.683 176.192L217.905 226.409L290.254 226.413Z" fill="#141414"/>
<path d="M271.928 197.222C273.479 197.222 274.736 195.965 274.736 194.414C274.736 192.864 273.479 191.607 271.928 191.607C270.378 191.607 269.121 192.864 269.121 194.414C269.121 195.965 270.378 197.222 271.928 197.222Z" fill="url(#paint2_linear_117_207)"/>
<path d="M135.57 195.978L149.532 161.798L111.344 173.857L100.043 202.689C95.5466 214.154 103.948 226.562 116.264 226.652C134.223 226.776 156.563 226.908 173.537 226.89C175.341 214.903 180.852 202.901 184.078 196.637C159.312 196.28 135.57 195.978 135.57 195.978Z" fill="url(#paint3_linear_117_207)"/>
<path d="M144.388 196.46H135.57C135.493 196.458 135.417 196.438 135.349 196.401C135.281 196.363 135.223 196.31 135.18 196.246C135.137 196.181 135.11 196.107 135.102 196.03C135.093 195.953 135.104 195.875 135.132 195.803L149.092 161.623C149.14 161.504 149.234 161.41 149.352 161.36C149.469 161.311 149.602 161.31 149.721 161.358C149.839 161.406 149.934 161.499 149.983 161.617C150.033 161.735 150.034 161.868 149.986 161.987L136.284 195.496H144.388C144.515 195.496 144.638 195.547 144.728 195.637C144.819 195.728 144.87 195.85 144.87 195.978C144.87 196.106 144.819 196.228 144.728 196.319C144.638 196.409 144.515 196.46 144.388 196.46Z" fill="#141414"/>
<path d="M170.376 227.374C153.146 227.374 131.446 227.239 116.261 227.133C113.335 227.113 110.457 226.382 107.876 225.001C105.295 223.62 103.089 221.632 101.449 219.208C99.8081 216.785 98.7819 213.998 98.4588 211.089C98.1356 208.18 98.5253 205.236 99.5941 202.511L110.895 173.682C110.919 173.623 110.953 173.569 110.997 173.524C111.041 173.478 111.094 173.442 111.152 173.416C111.21 173.391 111.272 173.377 111.335 173.376C111.399 173.375 111.462 173.386 111.521 173.409C111.58 173.433 111.633 173.467 111.679 173.511C111.725 173.555 111.761 173.608 111.787 173.666C111.812 173.724 111.826 173.786 111.827 173.85C111.828 173.913 111.817 173.976 111.793 174.035L100.492 202.864C99.4835 205.443 99.1168 208.228 99.4235 210.98C99.7303 213.731 100.701 216.367 102.253 218.66C103.805 220.954 105.89 222.835 108.331 224.144C110.771 225.452 113.493 226.147 116.261 226.17C132.388 226.279 155.873 226.422 173.53 226.409C173.658 226.409 173.781 226.459 173.871 226.55C173.961 226.64 174.012 226.763 174.012 226.89C174.012 227.018 173.961 227.141 173.871 227.231C173.781 227.321 173.658 227.372 173.53 227.372L170.376 227.374Z" fill="#141414"/>
<path d="M220.592 197.794L220.592 197.794H220.605C221.352 197.817 222.063 198.12 222.598 198.642C223.134 199.166 223.453 199.873 223.491 200.622C223.529 201.371 223.284 202.106 222.803 202.682C222.323 203.258 221.644 203.631 220.9 203.728L220.9 203.728L206.944 205.57L205.124 205.811L206.814 206.526L206.814 206.526L206.814 206.526L206.814 206.527L206.817 206.528L206.831 206.534C206.844 206.539 206.864 206.548 206.89 206.561C206.943 206.585 207.021 206.622 207.118 206.672C207.313 206.771 207.583 206.918 207.879 207.11C208.48 207.501 209.143 208.045 209.532 208.702C209.903 209.329 210.03 210.059 209.579 210.928C209.107 211.84 207.975 212.953 205.675 214.208L205.187 214.475L205.503 214.931L205.503 214.931L205.503 214.931L205.503 214.932L205.503 214.932L205.508 214.939C205.513 214.947 205.521 214.958 205.531 214.974C205.551 215.005 205.581 215.053 205.618 215.116C205.692 215.241 205.793 215.423 205.897 215.645C206.106 216.094 206.313 216.682 206.349 217.283C206.385 217.874 206.257 218.459 205.819 218.963C205.374 219.476 204.556 219.966 203.089 220.247L202.676 220.326L202.683 220.746L202.683 220.746L202.683 220.747V220.747L202.683 220.747L202.683 220.753L202.683 220.785C202.683 220.815 202.682 220.861 202.679 220.921C202.674 221.04 202.661 221.215 202.634 221.429C202.58 221.859 202.467 222.439 202.234 223.044C201.77 224.246 200.847 225.52 198.957 225.966C198.838 225.994 198.572 226.027 198.135 226.06C197.71 226.092 197.152 226.121 196.471 226.148C195.11 226.202 193.269 226.246 191.029 226.281C186.677 226.348 180.833 226.381 174.114 226.39C175.965 214.85 181.192 203.36 184.375 197.142C199.208 197.36 213.325 197.592 220.592 197.794Z" fill="white" stroke="#141414"/>
<path d="M127.02 197.023C126.956 197.024 126.893 197.013 126.834 196.99C126.775 196.967 126.722 196.933 126.676 196.889C126.63 196.845 126.594 196.792 126.568 196.734C126.543 196.677 126.529 196.614 126.528 196.551C126.527 196.488 126.538 196.425 126.561 196.366C126.584 196.307 126.618 196.253 126.662 196.207C126.706 196.162 126.758 196.125 126.816 196.1C126.874 196.074 126.937 196.06 127 196.059L133.082 195.823C133.145 195.819 133.209 195.828 133.269 195.85C133.329 195.871 133.384 195.905 133.43 195.948C133.477 195.991 133.515 196.043 133.541 196.101C133.567 196.159 133.582 196.221 133.583 196.285C133.588 196.413 133.541 196.537 133.454 196.631C133.367 196.725 133.247 196.781 133.119 196.786L127.037 197.023H127.02Z" fill="#141414"/>
<path d="M180.344 85.8997C178.727 86.6929 177.307 87.8376 176.19 89.2499C175.072 90.6622 174.284 92.3064 173.883 94.0625C173.486 95.865 173.513 97.7354 173.151 99.5379C172.79 101.34 171.934 103.196 170.317 104.085C169.509 104.523 168.578 104.696 167.728 105.059C166.024 105.786 164.662 107.418 164.513 109.265C164.364 111.111 165.54 113.056 167.328 113.548C167.138 114.371 167.183 115.231 167.457 116.029C167.731 116.828 168.224 117.534 168.879 118.066C169.534 118.599 170.325 118.938 171.163 119.043C172 119.149 172.851 119.018 173.618 118.665C174.24 122.222 177.341 124.972 180.78 126.068C184.218 127.163 187.948 126.865 191.498 126.214C198.225 124.981 204.793 122.491 210.277 118.404C211.694 117.348 213.059 116.164 213.981 114.652C214.903 113.141 215.334 111.26 214.793 109.576C216.933 107.683 218.99 105.528 219.912 102.823C220.834 100.118 220.328 96.7476 218.052 95.0174C216.217 93.62 213.637 93.5237 211.788 92.1417C210.181 90.9415 209.379 88.9791 208.38 87.2444C207.123 85.0718 205.393 83.105 203.152 81.9727C200.421 80.5929 197.072 80.7484 194.352 82.0778C192.874 82.8005 191.991 83.8628 190.824 84.9469C189.692 85.996 187.878 84.89 186.476 84.7783C184.369 84.6055 182.254 84.9923 180.344 85.8997Z" fill="#141414"/>
<path d="M194.584 146.268L192.013 145.113L198.207 130.047C198.207 130.047 200.544 109.996 181.507 119.37L171.053 141.362L169.301 141.005C169.301 141.005 181.654 160.217 194.584 146.268Z" fill="white"/>
<path d="M184.643 151.813C178.377 151.813 173.158 146.601 170.817 143.815C170.734 143.716 170.695 143.59 170.706 143.462C170.717 143.335 170.779 143.217 170.877 143.135C170.975 143.052 171.102 143.013 171.229 143.024C171.357 143.035 171.475 143.097 171.557 143.195C175.225 147.562 182.582 154.122 190.642 148.999C190.75 148.93 190.881 148.907 191.006 148.935C191.131 148.963 191.239 149.04 191.308 149.148C191.376 149.256 191.399 149.387 191.371 149.511C191.343 149.636 191.267 149.745 191.159 149.814C188.916 151.239 186.722 151.813 184.643 151.813Z" fill="#141414"/>
<path d="M194.584 146.743C194.516 146.743 194.449 146.728 194.387 146.699L191.814 145.547C191.7 145.495 191.61 145.401 191.564 145.285C191.518 145.168 191.519 145.039 191.566 144.923L197.736 129.92C197.811 129.143 198.439 121.468 194.262 118.531C191.571 116.634 187.403 117.037 181.87 119.731L171.489 141.57C171.442 141.666 171.365 141.745 171.269 141.793C171.173 141.841 171.064 141.857 170.959 141.837L168.714 141.381C168.589 141.356 168.478 141.282 168.407 141.175C168.337 141.069 168.311 140.938 168.336 140.813C168.361 140.687 168.436 140.577 168.542 140.506C168.649 140.436 168.779 140.41 168.905 140.435L170.779 140.816L181.073 119.166C181.12 119.071 181.197 118.994 181.292 118.947C187.241 116.017 191.792 115.614 194.819 117.751C199.666 121.173 198.728 129.747 198.684 130.111C198.68 130.154 198.669 130.197 198.652 130.238L192.633 144.872L194.779 145.836C194.88 145.881 194.963 145.959 195.013 146.058C195.063 146.156 195.078 146.269 195.055 146.377C195.032 146.485 194.972 146.582 194.886 146.651C194.8 146.721 194.693 146.758 194.582 146.758L194.584 146.743Z" fill="#141414"/>
<path d="M187.972 122.263C189.54 124.826 191.658 127.101 194.295 128.542C196.932 129.984 200.11 130.536 203.003 129.725C207.846 128.372 211.028 123.474 211.856 118.514C212.684 113.553 211.604 108.498 210.487 103.594C210.487 103.594 207.202 96.487 201.273 94.9101C201.93 105.903 182.05 100.87 189.383 115.318C189.383 115.318 185.327 111.728 183.209 112.304C180.92 112.926 179.297 115.34 179.54 117.699C179.783 120.058 181.73 122.09 184.052 122.594C185.366 122.881 186.61 123.01 187.972 122.263Z" fill="white"/>
<path d="M200.22 130.582C198.067 130.564 195.953 130.009 194.07 128.965C191.661 127.651 189.508 125.557 187.801 122.887C186.382 123.512 185.079 123.312 183.955 123.065C181.382 122.506 179.325 120.268 179.067 117.747C178.795 115.119 180.563 112.526 183.088 111.834C184.564 111.431 186.682 112.664 188.126 113.704C187.214 111.387 187.03 109.477 187.587 107.9C188.504 105.272 191.31 103.975 194.002 102.731C197.633 101.058 201.065 99.4788 200.791 94.9342C200.787 94.8579 200.801 94.7818 200.832 94.7119C200.863 94.642 200.91 94.5805 200.969 94.5322C201.028 94.4839 201.098 94.4503 201.172 94.4342C201.247 94.418 201.324 94.4197 201.398 94.4392C207.465 96.0555 210.787 103.088 210.925 103.388C210.941 103.419 210.952 103.451 210.958 103.485C211.959 107.88 213.205 113.34 212.331 118.597C211.372 124.348 207.763 128.891 203.133 130.194C202.184 130.455 201.204 130.585 200.22 130.582ZM187.972 121.775C188.055 121.775 188.137 121.796 188.209 121.837C188.281 121.877 188.341 121.936 188.384 122.007C190.038 124.71 192.162 126.825 194.517 128.115C197.191 129.576 200.233 129.992 202.865 129.256C207.721 127.899 210.636 122.841 211.372 118.43C212.211 113.393 211.002 108.056 210.021 103.756C209.745 103.189 206.777 97.3018 201.762 95.5671C201.692 100.254 197.819 102.035 194.396 103.614C191.768 104.827 189.271 105.975 188.483 108.213C187.887 109.924 188.318 112.175 189.797 115.093C189.847 115.193 189.861 115.307 189.836 115.416C189.812 115.525 189.749 115.622 189.661 115.691C189.572 115.759 189.463 115.795 189.351 115.791C189.239 115.787 189.132 115.745 189.048 115.671C187.972 114.72 184.842 112.344 183.318 112.76C181.27 113.316 179.783 115.507 180.002 117.64C180.221 119.773 181.958 121.641 184.137 122.114C185.489 122.41 186.562 122.465 187.725 121.83C187.801 121.789 187.886 121.771 187.972 121.775Z" fill="#141414"/>
<path d="M186.998 119.644C186.91 119.644 186.824 119.62 186.75 119.574C185.704 118.946 184.764 118.156 183.966 117.232C183.925 117.185 183.893 117.129 183.873 117.069C183.854 117.009 183.846 116.945 183.85 116.882C183.855 116.819 183.872 116.757 183.9 116.701C183.929 116.644 183.968 116.594 184.016 116.552C184.064 116.511 184.119 116.479 184.179 116.459C184.239 116.439 184.303 116.432 184.366 116.436C184.429 116.441 184.491 116.458 184.547 116.486C184.604 116.514 184.654 116.554 184.696 116.602C185.427 117.448 186.288 118.173 187.247 118.748C187.338 118.802 187.409 118.885 187.448 118.983C187.487 119.081 187.493 119.189 187.465 119.291C187.436 119.393 187.375 119.483 187.291 119.547C187.206 119.61 187.103 119.644 186.998 119.644Z" fill="#141414"/>
<path d="M326.341 80.8623C327.787 81.6244 363.807 80.8623 363.807 80.8623C363.807 80.8623 341.942 23.992 333.639 9.17544C325.336 -5.64113 300.604 -1.19068 293.121 13.1002C285.637 27.3912 304.61 32.3738 304.61 32.3738L326.341 80.8623Z" fill="#141414"/>
<path d="M328.652 146.101C328.652 146.101 319.762 207.017 323.641 270.541C324.398 283.04 328.3 295.146 334.983 305.736C341.666 316.326 350.915 325.056 361.873 331.119L433.354 378.663L422.694 400.322H431.551C436.782 400.325 441.934 399.044 446.555 396.592C451.175 394.14 455.123 390.591 458.052 386.257C463.497 378.186 469.356 368.297 470.808 361.289C472.461 353.301 473.436 344.687 473.022 336.049C472.937 334.34 472.454 332.674 471.61 331.185C470.767 329.696 469.588 328.425 468.166 327.472C453.367 317.535 405.424 284.326 393.827 263.58C380.066 238.958 376.525 154.411 376.525 154.411L328.652 146.101Z" fill="#141414"/>
<path d="M431.544 400.804H422.687C422.605 400.805 422.524 400.785 422.452 400.745C422.379 400.706 422.318 400.649 422.274 400.579C422.23 400.51 422.205 400.43 422.201 400.348C422.196 400.265 422.213 400.183 422.249 400.11L432.723 378.832L361.594 331.524C350.576 325.419 341.277 316.632 334.557 305.978C327.838 295.323 323.916 283.145 323.155 270.571C319.317 207.726 328.082 146.644 328.17 146.033C328.19 145.905 328.26 145.79 328.365 145.713C328.417 145.676 328.476 145.649 328.539 145.634C328.602 145.619 328.667 145.617 328.731 145.628L376.586 153.94C376.695 153.959 376.794 154.015 376.866 154.097C376.939 154.18 376.982 154.285 376.987 154.395C377.022 155.239 380.691 239.109 394.239 263.35C405.794 284.026 453.943 317.354 468.425 327.085C469.907 328.081 471.136 329.409 472.015 330.963C472.895 332.517 473.401 334.255 473.493 336.038C473.872 343.91 473.123 352.442 471.27 361.398C470.054 367.261 465.738 375.72 458.44 386.537C455.469 390.937 451.463 394.54 446.773 397.027C442.083 399.515 436.853 400.812 431.544 400.804ZM423.46 399.84H431.544C436.697 399.847 441.773 398.588 446.324 396.172C450.875 393.756 454.763 390.259 457.645 385.987C464.772 375.424 469.156 366.852 470.328 361.192C472.168 352.315 472.908 343.864 472.534 336.073C472.449 334.44 471.986 332.85 471.18 331.427C470.375 330.004 469.249 328.788 467.893 327.875C453.365 318.122 405.061 284.68 393.4 263.819C380.218 240.233 376.332 161.1 376.043 154.822L329.059 146.662C328.236 152.591 320.474 210.753 324.123 270.51C325.673 295.916 339.87 318.409 362.1 330.698L433.614 378.263C433.711 378.328 433.782 378.426 433.812 378.539C433.843 378.652 433.832 378.772 433.781 378.878L423.46 399.84Z" fill="#141414"/>
<path d="M434.727 372.883C434.635 372.884 434.546 372.858 434.468 372.809C434.391 372.76 434.329 372.69 434.29 372.607C434.251 372.525 434.237 372.433 434.248 372.342C434.259 372.251 434.296 372.165 434.354 372.095C445.13 359.068 457.351 344.304 461.427 326.622C461.442 326.561 461.468 326.502 461.505 326.451C461.542 326.399 461.588 326.356 461.642 326.322C461.696 326.289 461.756 326.266 461.818 326.256C461.881 326.246 461.945 326.248 462.007 326.262C462.068 326.277 462.127 326.303 462.178 326.34C462.229 326.377 462.273 326.423 462.307 326.477C462.34 326.531 462.363 326.591 462.373 326.653C462.383 326.716 462.381 326.78 462.367 326.841C458.23 344.744 445.941 359.602 435.099 372.71C435.054 372.765 434.997 372.809 434.932 372.839C434.868 372.868 434.798 372.884 434.727 372.883Z" fill="#141414"/>
<path d="M396.552 151.257C409.255 169.354 419.378 343.382 421.84 389.273C421.916 390.695 421.702 392.118 421.211 393.455C420.719 394.791 419.96 396.014 418.981 397.048C418.001 398.082 416.821 398.905 415.513 399.468C414.204 400.031 412.795 400.322 411.371 400.322H334.784C331.83 400.322 330.606 396.535 333.002 394.805L352.878 380.464L347.652 189.013L333.181 169.462L334.861 151.042L396.552 151.257Z" fill="#141414"/>
<path d="M411.371 400.804H334.784C334.038 400.804 333.312 400.567 332.709 400.128C332.106 399.689 331.657 399.071 331.428 398.361C331.198 397.651 331.2 396.887 331.432 396.178C331.664 395.469 332.114 394.852 332.719 394.415L352.389 380.216L347.174 189.178L337.781 176.505C337.743 176.454 337.716 176.396 337.7 176.335C337.685 176.274 337.682 176.21 337.691 176.147C337.701 176.084 337.722 176.024 337.755 175.97C337.787 175.916 337.83 175.868 337.881 175.831C337.932 175.793 337.99 175.766 338.052 175.75C338.113 175.735 338.177 175.732 338.239 175.741C338.302 175.751 338.362 175.772 338.417 175.805C338.471 175.838 338.518 175.881 338.556 175.931L348.035 188.731C348.094 188.81 348.127 188.906 348.129 189.005L353.355 380.451C353.357 380.529 353.34 380.607 353.306 380.677C353.271 380.747 353.219 380.808 353.156 380.853L333.28 395.197C332.841 395.514 332.513 395.963 332.345 396.478C332.176 396.993 332.175 397.548 332.342 398.064C332.508 398.58 332.834 399.029 333.272 399.348C333.71 399.668 334.238 399.84 334.78 399.84H411.371C412.73 399.841 414.075 399.564 415.324 399.027C416.573 398.491 417.699 397.705 418.634 396.719C419.569 395.732 420.293 394.565 420.762 393.29C421.231 392.014 421.436 390.656 421.362 389.299C418.611 338.025 408.659 169.339 396.162 151.533C396.089 151.428 396.06 151.299 396.082 151.173C396.104 151.047 396.175 150.935 396.279 150.862C396.384 150.788 396.513 150.759 396.639 150.781C396.765 150.803 396.877 150.874 396.951 150.979C409.603 168.995 419.573 337.906 422.326 389.248C422.406 390.736 422.182 392.224 421.667 393.622C421.153 395.02 420.359 396.299 419.335 397.38C418.31 398.462 417.076 399.323 415.707 399.911C414.339 400.5 412.865 400.804 411.375 400.804H411.371Z" fill="white"/>
<path d="M379.188 383.554C371.515 383.553 363.852 383.027 356.25 381.981C356.188 381.973 356.127 381.952 356.072 381.92C356.017 381.888 355.969 381.846 355.931 381.796C355.893 381.745 355.864 381.688 355.848 381.626C355.832 381.565 355.828 381.501 355.836 381.438C355.845 381.375 355.866 381.315 355.898 381.26C355.93 381.205 355.972 381.157 356.022 381.119C356.073 381.08 356.13 381.052 356.192 381.036C356.253 381.02 356.317 381.016 356.38 381.024C375.643 383.683 395.222 382.952 414.233 378.863C414.358 378.836 414.489 378.86 414.597 378.93C414.704 378.999 414.779 379.109 414.806 379.234C414.833 379.359 414.809 379.49 414.739 379.597C414.669 379.705 414.56 379.78 414.435 379.807C402.851 382.296 391.036 383.552 379.188 383.554Z" fill="white"/>
<path d="M303.747 60.5308C303.747 60.5308 290.652 60.049 287.525 72.763C282.818 91.9029 280.915 180.901 280.757 207.021C280.749 208.699 280.081 210.305 278.897 211.494C277.713 212.683 276.109 213.358 274.432 213.373C266.641 213.425 254.425 215.011 254.797 224.479H303.811C306.107 224.479 308.308 223.567 309.931 221.944C311.555 220.321 312.467 218.119 312.467 215.823V123.389L303.747 60.5308Z" fill="white"/>
<path d="M303.811 224.965H254.797C254.672 224.965 254.552 224.917 254.462 224.83C254.372 224.744 254.32 224.626 254.315 224.501C254.212 221.908 255.014 219.7 256.698 217.93C260.607 213.837 268.499 212.928 274.438 212.893C275.987 212.875 277.466 212.25 278.559 211.153C279.651 210.056 280.27 208.574 280.282 207.025C280.455 178.954 282.457 91.3839 287.071 72.6469C290.254 59.7029 303.647 60.0424 303.78 60.049C303.893 60.0531 304.001 60.0972 304.085 60.1734C304.169 60.2495 304.223 60.3529 304.238 60.4651L312.957 123.323C312.959 123.345 312.959 123.367 312.957 123.389V215.828C312.954 218.252 311.989 220.576 310.275 222.289C308.56 224.002 306.235 224.965 303.811 224.965ZM255.27 223.999H303.811C305.978 223.997 308.055 223.135 309.587 221.603C311.12 220.072 311.982 217.994 311.985 215.828V123.424L303.327 61.0039C301.106 61.0345 290.72 61.7836 287.996 72.8725C283.396 91.524 281.412 178.982 281.241 207.023C281.226 208.825 280.505 210.549 279.233 211.826C277.962 213.102 276.24 213.83 274.438 213.852C268.694 213.892 261.078 214.746 257.397 218.596C256.004 220.047 255.24 221.988 255.27 223.999Z" fill="#141414"/>
<path d="M274.653 224.781C274.561 224.781 274.471 224.755 274.393 224.705C274.315 224.656 274.254 224.585 274.215 224.501C273.532 223.014 274.331 221.305 275.477 220.388C276.622 219.47 278.068 219.124 279.344 218.82L286.016 217.227C288.081 216.734 290.081 216.053 290.742 214.417C290.795 214.307 290.889 214.221 291.004 214.176C291.118 214.132 291.245 214.133 291.359 214.179C291.473 214.225 291.565 214.312 291.617 214.424C291.669 214.535 291.676 214.662 291.638 214.779C290.812 216.82 288.554 217.613 286.239 218.165L279.57 219.757C278.389 220.039 277.053 220.357 276.079 221.139C275.249 221.796 274.62 223.071 275.091 224.098C275.118 224.155 275.133 224.218 275.136 224.281C275.138 224.344 275.128 224.408 275.106 224.467C275.084 224.526 275.051 224.581 275.007 224.627C274.964 224.674 274.912 224.711 274.855 224.737C274.792 224.767 274.723 224.782 274.653 224.781Z" fill="#141414"/>
<path d="M310.114 202.122H310.073C300.587 201.332 291.06 201.181 281.554 201.668C281.491 201.672 281.428 201.662 281.368 201.641C281.308 201.62 281.253 201.587 281.206 201.545C281.159 201.502 281.121 201.451 281.094 201.394C281.066 201.337 281.051 201.275 281.047 201.212C281.044 201.148 281.053 201.085 281.074 201.025C281.095 200.966 281.128 200.911 281.171 200.863C281.213 200.816 281.264 200.778 281.321 200.751C281.379 200.724 281.441 200.708 281.504 200.705C291.053 200.214 300.625 200.367 310.154 201.16C310.281 201.165 310.402 201.221 310.489 201.315C310.575 201.409 310.621 201.534 310.616 201.662C310.611 201.789 310.555 201.91 310.461 201.997C310.367 202.083 310.242 202.129 310.114 202.124V202.122Z" fill="#141414"/>
<path d="M378.404 149.518L327.073 150.876C327.073 150.876 290.641 120.18 302.981 61.5164L301.785 57.1492C301.785 57.1492 326.854 51.2882 338.12 53.8047C338.12 53.8047 342.349 57.6398 343.769 62.526C345.188 67.4123 378.404 149.518 378.404 149.518Z" fill="url(#paint4_linear_117_207)"/>
<path d="M313.581 81.3463C313.489 81.3455 313.398 81.318 313.32 81.2672C313.243 81.2165 313.181 81.1444 313.144 81.0597C313.106 80.9751 313.093 80.8813 313.107 80.7896C313.121 80.6979 313.161 80.6121 313.222 80.5425L318.419 74.6859C318.507 74.5982 318.624 74.5472 318.748 74.5433C318.871 74.5394 318.992 74.583 319.084 74.6651C319.177 74.7473 319.234 74.8617 319.245 74.9849C319.256 75.1081 319.219 75.2307 319.142 75.3277L313.943 81.182C313.898 81.2334 313.842 81.2746 313.78 81.3029C313.717 81.3312 313.65 81.346 313.581 81.3463Z" fill="#141414"/>
<path d="M324.313 33.1535L334.64 57.1492L318.781 75.0079L306.498 45.458L324.313 33.1535Z" fill="white"/>
<path d="M310.905 56.5425C310.811 56.541 310.719 56.5121 310.641 56.4591C310.563 56.4062 310.503 56.3316 310.467 56.2446L307.854 49.961C307.805 49.8428 307.805 49.7099 307.854 49.5916C307.903 49.4733 307.996 49.3793 308.115 49.3302C308.233 49.2811 308.366 49.281 308.484 49.3299C308.602 49.3788 308.696 49.4726 308.745 49.5908L311.358 55.8745C311.407 55.9927 311.407 56.1254 311.358 56.2436C311.309 56.3618 311.216 56.4559 311.098 56.5052C311.037 56.5311 310.971 56.5437 310.905 56.5425Z" fill="#141414"/>
<path d="M320.581 33.9486L323.544 27.2663C323.544 27.2663 326.368 22.794 331.648 25.6303C336.929 28.4666 335.328 39.3298 323.936 38.2172C323.936 38.2172 319.322 52.5344 307.291 51.6036C295.26 50.6728 289.036 37.8734 294.507 21.2017C294.507 21.2017 299.687 22.0997 304.431 19.4255C304.444 19.4255 306.741 30.1004 320.581 33.9486Z" fill="white"/>
<path d="M308.41 52.1271C308.036 52.1271 307.657 52.1117 307.269 52.0811C302.232 51.6912 298.132 49.3193 295.398 45.2214C291.456 39.3079 290.963 30.4903 294.062 21.0484C294.1 20.9394 294.175 20.8472 294.274 20.7879C294.373 20.7286 294.49 20.7061 294.603 20.7243C294.654 20.7243 299.676 21.5565 304.207 19.0028C304.273 18.9657 304.347 18.9447 304.422 18.9412C304.497 18.9378 304.572 18.9521 304.641 18.983C304.71 19.0139 304.771 19.0605 304.818 19.1191C304.866 19.1777 304.899 19.2466 304.915 19.3204C304.937 19.4233 307.289 29.5573 320.31 33.3572L323.106 27.0692L323.139 27.0079C323.172 26.9597 326.269 22.1895 331.9 25.2054C334.487 26.5939 335.676 29.8683 334.728 32.9915C333.779 36.1147 330.54 39.2072 324.291 38.7297C323.457 40.9133 318.77 52.1271 308.41 52.1271ZM294.853 21.7339C291.984 30.7465 292.468 39.0955 296.2 44.6892C298.76 48.5308 302.615 50.756 307.339 51.1218C318.853 52.0154 323.435 38.1997 323.481 38.0683C323.515 37.9637 323.584 37.8739 323.676 37.8138C323.768 37.7536 323.877 37.7267 323.987 37.7376C329.9 38.3158 332.929 35.5211 333.781 32.7111C334.598 30.026 333.606 27.2357 331.423 26.0552C326.742 23.5474 324.217 27.1108 323.963 27.4963L321.019 34.1347C320.972 34.2399 320.888 34.3248 320.784 34.3741C320.68 34.4235 320.561 34.4341 320.45 34.4041C308.404 31.0619 304.899 22.4874 304.142 20.1329C300.197 22.1391 296.15 21.8851 294.853 21.7339Z" fill="#141414"/>
<path d="M323.661 35.7007C323.574 35.701 323.49 35.6781 323.415 35.6345C323.341 35.5909 323.28 35.5281 323.238 35.4527C323.196 35.3773 323.175 35.292 323.177 35.2058C323.18 35.1196 323.205 35.0357 323.251 34.9626C324.453 33.0489 326.345 31.671 328.536 31.1145C328.66 31.0834 328.791 31.1029 328.901 31.1686C329.011 31.2343 329.09 31.3409 329.121 31.4649C329.152 31.5889 329.132 31.7202 329.067 31.8299C329.001 31.9396 328.894 32.0186 328.77 32.0497C326.82 32.5467 325.137 33.7759 324.07 35.4817C324.026 35.5496 323.965 35.6053 323.893 35.6436C323.822 35.6818 323.742 35.7015 323.661 35.7007Z" fill="#141414"/>
<path d="M386.69 217.317C386.69 217.317 344.301 114.125 340.297 102.026C336.293 89.9274 336.552 66.5669 342.792 58.6954C342.792 58.6954 365.946 54.856 386.065 91.6796C406.184 128.503 425.342 183.805 425.342 183.805C425.342 183.805 415.499 206.16 386.69 217.317Z" fill="white"/>
<path d="M356.034 61.017C364.439 64.4644 375.658 72.625 386.065 91.6796C406.184 128.501 425.342 183.805 425.342 183.805C425.342 183.805 415.499 206.16 386.69 217.315C386.69 217.315 373.159 184.375 360.664 153.532L356.034 61.017Z" fill="white"/>
<path d="M386.69 217.799C386.595 217.797 386.504 217.768 386.426 217.715C386.348 217.662 386.288 217.588 386.251 217.501C386.118 217.17 372.578 184.21 360.226 153.716C360.178 153.598 360.179 153.465 360.229 153.347C360.279 153.229 360.374 153.136 360.493 153.088C360.551 153.064 360.614 153.052 360.678 153.053C360.741 153.053 360.803 153.066 360.862 153.091C360.92 153.116 360.973 153.152 361.017 153.197C361.061 153.243 361.096 153.296 361.119 153.355C372.696 181.928 385.314 212.678 386.963 216.695C413.6 206.202 423.848 185.846 424.829 183.779C423.59 180.229 404.945 127.222 385.651 91.9095C375.042 72.4914 363.594 64.6352 355.865 61.466C355.804 61.4442 355.747 61.4101 355.699 61.3659C355.652 61.3217 355.613 61.2683 355.587 61.2089C355.56 61.1494 355.546 61.0852 355.545 61.0201C355.544 60.955 355.556 60.8904 355.58 60.8301C355.605 60.7698 355.642 60.7151 355.688 60.6694C355.734 60.6236 355.789 60.5877 355.85 60.5638C355.91 60.5399 355.975 60.5286 356.04 60.5304C356.105 60.5323 356.169 60.5473 356.228 60.5746C364.113 63.8051 375.756 71.7839 386.501 91.4561C406.41 127.892 425.618 183.102 425.811 183.663C425.85 183.778 425.845 183.904 425.795 184.015C425.697 184.234 415.541 206.682 386.876 217.781C386.815 217.799 386.752 217.805 386.69 217.799Z" fill="#141414"/>
<path d="M388.632 101.384C382.187 85.12 346.116 77.8902 346.116 77.8902L358.6 118.825L339.984 118.93C341.02 128.591 340.47 138.356 338.357 147.84C350.622 150.109 364.51 151.655 376.065 150.065C403.368 146.305 395.08 117.649 388.632 101.384Z" fill="white"/>
<path d="M339.991 118.928L322.513 119.026C322.513 119.026 324.635 107.913 318.774 108.038C312.913 108.163 312.968 122.193 309.243 124.153C309.243 124.153 299.218 129.059 295.085 130.104C290.952 131.149 284.975 132.329 285.908 136.469C285.908 136.469 280.619 139.504 286.149 143.039C286.149 143.039 288.245 148.042 307.195 140.595C307.942 140.302 321.65 144.741 338.363 147.836C340.477 138.353 341.026 128.588 339.991 118.928Z" fill="white"/>
<path d="M324.467 145.343C324.429 145.343 324.391 145.339 324.355 145.33C319.806 144.235 315.833 143.19 312.931 142.422C310.176 141.692 307.788 141.059 307.324 141.057C289.7 147.974 286.325 144.312 285.779 143.37C284.001 142.207 283.114 140.943 283.151 139.609C283.19 137.916 284.719 136.69 285.378 136.239C284.761 132.172 290.173 130.831 294.152 129.843L294.971 129.64C299.008 128.619 308.936 123.772 309.037 123.726C309.153 123.67 309.287 123.663 309.408 123.705C309.53 123.748 309.63 123.837 309.686 123.953C309.742 124.069 309.75 124.203 309.707 124.325C309.665 124.446 309.576 124.546 309.459 124.602C309.048 124.804 299.343 129.541 295.208 130.588L294.384 130.794C290.477 131.762 285.624 132.967 286.384 136.377C286.407 136.476 286.398 136.58 286.359 136.674C286.32 136.768 286.252 136.847 286.165 136.9C286.145 136.913 284.161 138.079 284.126 139.649C284.104 140.648 284.877 141.653 286.423 142.641C286.506 142.693 286.57 142.77 286.609 142.86C286.625 142.893 288.999 147.24 307.035 140.153C307.431 139.999 308.329 140.214 313.194 141.502C316.091 142.268 320.058 143.32 324.583 144.404C324.696 144.433 324.795 144.502 324.861 144.599C324.927 144.695 324.956 144.813 324.943 144.929C324.929 145.045 324.874 145.153 324.787 145.231C324.7 145.31 324.588 145.354 324.471 145.356L324.467 145.343Z" fill="#141414"/>
<path d="M286.6 142.242C286.562 142.242 286.524 142.238 286.487 142.229C286.362 142.199 286.255 142.122 286.188 142.013C286.121 141.904 286.1 141.773 286.13 141.649C286.581 139.765 288.169 138.65 289.075 138.144C290.17 137.546 291.364 137.196 292.521 136.856L293.208 136.651C297.018 135.5 300.635 133.788 303.94 131.572C305.061 130.818 306.183 129.962 306.787 128.81C306.847 128.697 306.949 128.612 307.072 128.575C307.194 128.537 307.326 128.549 307.439 128.609C307.552 128.669 307.637 128.771 307.674 128.894C307.712 129.016 307.699 129.148 307.639 129.261C306.93 130.601 305.697 131.547 304.472 132.371C301.091 134.641 297.391 136.395 293.493 137.575L292.796 137.781C291.688 138.105 290.545 138.438 289.542 138.992C288.228 139.706 287.339 140.744 287.074 141.863C287.05 141.971 286.99 142.067 286.904 142.136C286.818 142.205 286.711 142.242 286.6 142.242Z" fill="#141414"/>
<path d="M287.525 136.502C287.407 136.502 287.292 136.459 287.204 136.381C287.115 136.303 287.058 136.194 287.044 136.077C287.03 135.96 287.06 135.841 287.127 135.744C287.195 135.647 287.296 135.578 287.411 135.551L292.648 134.283C295.495 133.591 298.445 132.877 300.874 131.193C300.979 131.128 301.106 131.106 301.227 131.132C301.348 131.157 301.455 131.228 301.525 131.33C301.595 131.432 301.624 131.557 301.605 131.679C301.586 131.801 301.521 131.912 301.424 131.988C298.848 133.773 295.674 134.541 292.882 135.22L287.645 136.488C287.606 136.498 287.565 136.502 287.525 136.502Z" fill="#141414"/>
<path d="M365.745 151.185C357.838 151.185 348.644 150.221 338.276 148.302C338.212 148.291 338.151 148.267 338.097 148.231C338.043 148.195 337.996 148.149 337.96 148.095C337.924 148.041 337.9 147.98 337.888 147.917C337.877 147.853 337.878 147.787 337.892 147.724C340 138.296 340.547 128.587 339.511 118.982C339.504 118.915 339.511 118.847 339.532 118.782C339.552 118.718 339.586 118.658 339.631 118.608C339.676 118.558 339.731 118.518 339.793 118.49C339.854 118.462 339.921 118.448 339.988 118.448L357.948 118.347L345.665 78.0303C345.647 77.9698 345.641 77.9062 345.647 77.8432C345.653 77.7803 345.671 77.7191 345.701 77.6633C345.731 77.6075 345.771 77.5581 345.82 77.5179C345.869 77.4777 345.926 77.4476 345.986 77.4291C346.047 77.4107 346.11 77.4044 346.173 77.4106C346.236 77.4168 346.297 77.4353 346.353 77.4651C346.409 77.4948 346.458 77.5353 346.499 77.5842C346.539 77.6331 346.569 77.6895 346.587 77.75L359.071 118.684C359.095 118.758 359.1 118.836 359.088 118.912C359.075 118.988 359.045 119.06 358.999 119.123C358.954 119.183 358.896 119.232 358.829 119.266C358.763 119.299 358.689 119.317 358.614 119.317L340.538 119.42C341.491 128.79 340.956 138.252 338.952 147.455C353.927 150.192 366.398 150.911 376.017 149.588C383.555 148.55 388.862 145.481 391.786 140.468C396.458 132.463 395.249 119.377 388.192 101.573C388.167 101.514 388.155 101.45 388.155 101.386C388.155 101.322 388.167 101.258 388.192 101.199C388.217 101.14 388.254 101.087 388.299 101.042C388.345 100.997 388.399 100.962 388.459 100.938C388.519 100.915 388.582 100.903 388.646 100.905C388.71 100.906 388.773 100.92 388.832 100.946C388.891 100.972 388.943 101.009 388.987 101.056C389.031 101.103 389.065 101.158 389.088 101.218C396.261 119.311 397.448 132.68 392.618 140.954C389.535 146.237 383.991 149.463 376.144 150.543C372.696 150.993 369.222 151.207 365.745 151.185Z" fill="#141414"/>
<path d="M513.908 224.558H107.947V232.806H513.908V224.558Z" fill="white"/>
<path d="M514.392 233.288H130.747V232.324H513.427V225.04H173.933V224.074H514.392V233.288Z" fill="#141414"/>
<path d="M564.217 389.303C564.125 389.304 564.034 389.277 563.957 389.228C563.879 389.178 563.817 389.107 563.779 389.023L492.933 235.097C492.879 234.981 492.874 234.848 492.918 234.728C492.962 234.608 493.052 234.51 493.169 234.456C493.285 234.403 493.417 234.397 493.538 234.441C493.658 234.486 493.755 234.576 493.809 234.692L564.655 388.62C564.681 388.677 564.696 388.74 564.699 388.803C564.701 388.866 564.691 388.929 564.669 388.989C564.647 389.048 564.614 389.103 564.571 389.149C564.528 389.195 564.476 389.233 564.418 389.259C564.355 389.289 564.286 389.304 564.217 389.303Z" fill="#141414"/>
<path d="M566.6 400.322C569.367 400.322 571.611 398.078 571.611 395.311C571.611 392.543 569.367 390.3 566.6 390.3C563.832 390.3 561.589 392.543 561.589 395.311C561.589 398.078 563.832 400.322 566.6 400.322Z" fill="#141414"/>
<path d="M82.2128 389.303C82.1432 389.304 82.0744 389.289 82.0113 389.259C81.9538 389.233 81.902 389.195 81.8589 389.149C81.8159 389.103 81.7824 389.048 81.7605 388.989C81.7385 388.929 81.7285 388.866 81.7309 388.803C81.7334 388.74 81.7483 388.677 81.7748 388.62L152.621 234.692C152.674 234.576 152.772 234.486 152.892 234.441C153.012 234.397 153.145 234.403 153.261 234.456C153.377 234.51 153.467 234.608 153.512 234.728C153.556 234.848 153.55 234.981 153.497 235.097L82.6508 389.023C82.6125 389.107 82.5508 389.178 82.4731 389.228C82.3954 389.277 82.3051 389.304 82.2128 389.303Z" fill="#141414"/>
<path d="M79.8299 400.322C82.5975 400.322 84.841 398.078 84.841 395.311C84.841 392.543 82.5975 390.3 79.8299 390.3C77.0623 390.3 74.8188 392.543 74.8188 395.311C74.8188 398.078 77.0623 400.322 79.8299 400.322Z" fill="#141414"/>
<path d="M372.629 224.556H494.792C495.518 224.567 496.23 224.359 496.836 223.96C497.492 223.516 497.98 222.864 498.222 222.11C498.463 221.355 498.443 220.541 498.165 219.799C496.724 216.776 493.748 215.714 489.346 215.714H364.613L366.231 220.112C366.717 221.416 367.591 222.541 368.734 223.335C369.878 224.13 371.236 224.555 372.629 224.556Z" fill="#141414"/>
<path d="M372.629 224.556H371.947C370.753 224.556 369.587 224.198 368.598 223.528C367.61 222.858 366.846 221.907 366.404 220.797L344.776 166.522C344.494 165.813 344.39 165.046 344.473 164.287C344.556 163.528 344.823 162.801 345.251 162.169C345.68 161.537 346.256 161.02 346.93 160.662C347.604 160.304 348.356 160.117 349.119 160.116H363.874L372.629 224.556Z" fill="#141414"/>
<path d="M372.629 225.04H371.947C370.656 225.044 369.393 224.658 368.324 223.933C367.255 223.208 366.43 222.178 365.955 220.977L344.329 166.702C344.017 165.919 343.901 165.072 343.992 164.235C344.082 163.397 344.377 162.594 344.85 161.897C345.323 161.199 345.959 160.628 346.704 160.234C347.449 159.839 348.279 159.634 349.121 159.634H363.874V160.598H349.121C348.437 160.598 347.762 160.767 347.157 161.088C346.552 161.409 346.035 161.873 345.651 162.439C345.267 163.006 345.027 163.659 344.953 164.339C344.879 165.02 344.972 165.709 345.225 166.345L366.851 220.62C367.254 221.642 367.956 222.518 368.866 223.134C369.775 223.75 370.849 224.078 371.947 224.074H372.64L372.629 225.04Z" fill="white"/>
<path d="M363.863 160.116H424.19C426.399 160.115 428.554 160.798 430.358 162.073C432.163 163.347 433.528 165.15 434.265 167.232L454.565 224.556H372.629L363.863 160.116Z" fill="#141414"/>
<path d="M375.846 219.612C374.821 219.612 373.82 219.304 372.972 218.729C372.124 218.154 371.468 217.338 371.089 216.386L352.529 169.81C352.287 169.201 352.197 168.543 352.268 167.892C352.338 167.241 352.567 166.617 352.935 166.075C353.302 165.533 353.796 165.089 354.375 164.781C354.953 164.474 355.598 164.313 356.253 164.313H420.683C422.579 164.311 424.429 164.897 425.978 165.991C427.526 167.084 428.698 168.631 429.33 170.419L446.751 219.612H375.846Z" fill="white"/>
<path d="M386.403 171.974L402.224 211.191C402.969 213.037 402.076 214.533 400.229 214.533C398.383 214.533 396.287 213.037 395.54 211.191L379.723 171.974C378.978 170.13 379.872 168.632 381.718 168.632C383.564 168.632 385.662 170.13 386.403 171.974Z" fill="#141414"/>
<path d="M402.06 171.507L417.88 210.725C418.625 212.571 417.731 214.067 415.885 214.067C414.038 214.067 411.942 212.571 411.195 210.725L395.382 171.507C394.638 169.663 395.529 168.165 397.375 168.165C399.222 168.165 401.316 169.663 402.06 171.507Z" fill="#141414"/>
<path d="M417.827 171.507L433.649 210.725C434.394 212.571 433.5 214.067 431.654 214.067C429.808 214.067 427.712 212.571 426.965 210.725L411.152 171.507C410.407 169.663 411.301 168.165 413.147 168.165C414.993 168.165 417.083 169.663 417.827 171.507Z" fill="#141414"/>
<path d="M370.811 171.974L386.622 211.191C387.366 213.037 386.473 214.533 384.629 214.533C382.784 214.533 380.686 213.037 379.937 211.191L364.118 171.974C363.373 170.13 364.264 168.632 366.111 168.632C367.957 168.632 370.066 170.13 370.811 171.974Z" fill="#141414"/>
<path d="M388.479 177.11L402.229 211.191C402.974 213.037 402.08 214.533 400.234 214.533C398.387 214.533 396.291 213.037 395.544 211.191L381.803 177.11C381.059 175.263 381.952 173.768 383.796 173.768C385.64 173.768 387.734 175.263 388.479 177.11Z" fill="white"/>
<path d="M400.234 215.015C398.177 215.015 395.921 213.414 395.095 211.371L381.348 177.289C380.91 176.212 380.96 175.154 381.475 174.387C381.957 173.676 382.778 173.292 383.788 173.292C385.844 173.292 388.102 174.893 388.926 176.937L402.676 211.018C403.114 212.098 403.063 213.156 402.546 213.92C402.067 214.623 401.245 215.015 400.234 215.015ZM383.788 174.249C383.109 174.249 382.57 174.49 382.276 174.928C381.941 175.423 381.928 176.153 382.241 176.928L395.991 211.009C396.668 212.687 398.571 214.052 400.234 214.052C400.915 214.052 401.451 213.811 401.747 213.373C402.082 212.878 402.093 212.146 401.78 211.371L388.032 177.289C387.355 175.612 385.452 174.249 383.788 174.249Z" fill="#141414"/>
<path d="M430.222 202.242L433.649 210.725C434.394 212.571 433.5 214.067 431.654 214.067C429.808 214.067 427.712 212.571 426.965 210.725L423.537 202.242C422.792 200.398 423.684 198.9 425.53 198.9C427.377 198.9 429.477 200.402 430.222 202.242Z" fill="url(#paint5_linear_117_207)"/>
<path d="M409.774 190.632L417.878 210.725C418.622 212.571 417.729 214.067 415.882 214.067C414.036 214.067 411.94 212.571 411.193 210.725L403.09 190.632C402.345 188.786 403.239 187.29 405.083 187.29C406.927 187.29 409.029 188.794 409.774 190.632Z" fill="white"/>
<path d="M415.885 214.549C413.828 214.549 411.572 212.948 410.749 210.904L402.645 190.812C402.207 189.734 402.257 188.676 402.774 187.91C403.254 187.198 404.075 186.814 405.085 186.814C407.141 186.814 409.4 188.415 410.223 190.459L418.327 210.552C418.765 211.631 418.714 212.687 418.197 213.454C417.722 214.157 416.897 214.549 415.885 214.549ZM405.083 187.772C404.404 187.772 403.867 188.012 403.571 188.451C403.236 188.945 403.223 189.675 403.536 190.45L411.64 210.543C412.317 212.221 414.22 213.585 415.882 213.585C416.564 213.585 417.1 213.342 417.396 212.906C417.731 212.409 417.744 211.68 417.431 210.904L409.327 190.812C408.65 189.134 406.747 187.772 405.083 187.772Z" fill="#141414"/>
<path d="M375.246 182.968L386.635 211.191C387.379 213.037 386.486 214.533 384.642 214.533C382.798 214.533 380.699 213.037 379.95 211.191L368.561 182.968C367.817 181.122 368.708 179.626 370.554 179.626C372.401 179.626 374.501 181.129 375.246 182.968Z" fill="white"/>
<path d="M384.637 215.015C382.581 215.015 380.323 213.414 379.499 211.371L368.11 183.148C367.672 182.07 367.723 181.013 368.239 180.246C368.721 179.534 369.54 179.151 370.552 179.151C372.609 179.151 374.865 180.752 375.69 182.795L387.079 211.018C387.517 212.098 387.467 213.156 386.95 213.92C386.468 214.623 385.647 215.015 384.637 215.015ZM370.554 180.108C369.873 180.108 369.337 180.349 369.041 180.785C368.708 181.282 368.695 182.011 369.008 182.787L380.397 211.009C381.074 212.687 382.977 214.052 384.642 214.052C385.321 214.052 385.859 213.811 386.153 213.373C386.488 212.878 386.501 212.148 386.188 211.371L374.799 183.148C374.12 181.473 372.217 180.108 370.554 180.108Z" fill="#141414"/>
<path d="M457.349 276.649L496.457 390.26C496.85 391.404 496.964 392.624 496.791 393.82C496.617 395.017 496.16 396.154 495.458 397.138C494.756 398.122 493.829 398.925 492.754 399.478C491.68 400.032 490.489 400.321 489.28 400.322H440.194L402.303 283.789L457.349 276.649Z" fill="white"/>
<path d="M489.28 400.804H440.194C440.092 400.804 439.993 400.771 439.911 400.712C439.828 400.652 439.767 400.568 439.736 400.471L401.846 283.938C401.823 283.871 401.816 283.799 401.825 283.729C401.834 283.658 401.858 283.59 401.896 283.53C401.934 283.47 401.984 283.419 402.044 283.381C402.104 283.343 402.172 283.318 402.242 283.309L457.281 276.172C457.392 276.157 457.503 276.182 457.598 276.24C457.693 276.299 457.764 276.388 457.8 276.494L496.908 390.103C497.327 391.318 497.449 392.617 497.264 393.889C497.08 395.162 496.594 396.372 495.847 397.419C495.101 398.466 494.115 399.319 492.972 399.908C491.829 400.497 490.561 400.804 489.275 400.804H489.28ZM440.544 399.84H489.28C490.411 399.84 491.527 399.569 492.533 399.051C493.539 398.533 494.407 397.782 495.064 396.861C495.721 395.94 496.149 394.875 496.312 393.755C496.476 392.635 496.369 391.493 496.001 390.422L457.016 277.19L402.943 284.199L440.544 399.84Z" fill="#141414"/>
<path d="M449.162 384.875C448 384.877 446.838 384.813 445.682 384.684C445.555 384.67 445.438 384.606 445.359 384.506C445.279 384.406 445.242 384.278 445.256 384.151C445.27 384.024 445.334 383.907 445.435 383.827C445.535 383.747 445.662 383.711 445.789 383.725C452.055 384.434 458.343 382.989 464.769 381.316C472.873 379.206 481.01 376.854 488.982 374.325C489.104 374.286 489.236 374.297 489.35 374.356C489.464 374.414 489.55 374.516 489.589 374.638C489.627 374.76 489.616 374.892 489.558 375.006C489.499 375.12 489.397 375.206 489.275 375.244C481.286 377.778 473.123 380.137 465.013 382.253C459.673 383.639 454.423 384.875 449.162 384.875Z" fill="#141414"/>
<path d="M551.356 235.686L560.314 258.902C566.552 275.068 554.558 292.44 537.234 292.335C496.185 292.088 434.777 291.842 434.777 292.585C434.777 293.531 461.769 370.176 470.026 393.603C470.294 394.364 470.376 395.179 470.264 395.978C470.153 396.778 469.851 397.539 469.384 398.198C468.918 398.857 468.3 399.394 467.583 399.765C466.865 400.136 466.07 400.329 465.262 400.329H383.805C381.085 400.329 379.959 396.842 382.167 395.252L402.316 380.737C402.316 380.737 379.977 334.864 364.297 290.353C354.879 263.661 374.753 235.693 403.063 235.693L551.356 235.686Z" fill="white"/>
<path d="M465.262 400.804H383.805C383.11 400.804 382.433 400.584 381.871 400.175C381.309 399.766 380.892 399.189 380.678 398.528C380.465 397.866 380.467 397.154 380.683 396.494C380.9 395.834 381.321 395.259 381.884 394.853L401.699 380.575C399.557 376.14 378.617 332.453 363.835 290.506C359.306 277.654 361.229 263.898 369.109 252.763C376.989 241.628 389.379 235.204 403.057 235.204H551.365C551.462 235.204 551.558 235.234 551.638 235.289C551.719 235.344 551.781 235.422 551.816 235.513L560.772 258.729C562.237 262.526 562.756 266.623 562.284 270.665C561.811 274.708 560.361 278.575 558.059 281.931C555.757 285.288 552.672 288.033 549.071 289.93C545.47 291.827 541.462 292.819 537.391 292.819H537.238C476.537 292.451 439.775 292.499 435.382 292.944C436.987 298.161 454.318 347.563 470.49 393.443C470.784 394.277 470.874 395.169 470.751 396.045C470.629 396.921 470.298 397.755 469.787 398.477C469.276 399.199 468.599 399.787 467.813 400.193C467.027 400.599 466.156 400.811 465.271 400.81L465.262 400.804ZM403.048 236.168C389.688 236.168 377.613 242.421 369.897 253.321C362.181 264.222 360.322 277.632 364.746 290.187C380.244 334.161 402.52 380.061 402.744 380.518C402.793 380.621 402.805 380.737 402.777 380.848C402.749 380.958 402.683 381.055 402.59 381.121L382.441 395.637C382.043 395.925 381.747 396.331 381.594 396.797C381.442 397.263 381.441 397.766 381.592 398.232C381.742 398.699 382.037 399.106 382.434 399.395C382.83 399.684 383.308 399.84 383.799 399.84H465.256C465.986 399.84 466.706 399.665 467.354 399.33C468.003 398.995 468.562 398.508 468.984 397.912C469.406 397.317 469.679 396.628 469.78 395.905C469.881 395.182 469.806 394.445 469.564 393.756C453.473 348.102 434.289 293.489 434.289 292.569C434.29 292.436 434.344 292.309 434.438 292.215C434.762 291.893 435.434 291.225 537.229 291.838H537.385C541.298 291.839 545.152 290.886 548.614 289.063C552.076 287.24 555.042 284.602 557.255 281.375C559.469 278.149 560.863 274.432 561.318 270.546C561.773 266.659 561.274 262.721 559.865 259.071L551.028 236.168H403.048Z" fill="#141414"/>
<path d="M425.848 388.482C417.558 388.482 410.606 386.644 405.12 383.006C404.466 382.594 403.864 382.104 403.326 381.548C403.239 381.453 403.193 381.328 403.198 381.2C403.203 381.072 403.259 380.951 403.354 380.863C403.448 380.776 403.573 380.73 403.701 380.735C403.83 380.74 403.951 380.796 404.038 380.891C404.521 381.393 405.064 381.834 405.654 382.205C412.245 386.585 421.051 388.28 431.838 387.229C436.825 386.743 441.841 385.751 446.69 384.791C450.693 383.999 454.833 383.179 458.955 382.645C459.081 382.629 459.21 382.664 459.311 382.742C459.412 382.82 459.478 382.935 459.494 383.062C459.511 383.189 459.476 383.317 459.398 383.419C459.319 383.52 459.204 383.586 459.077 383.602C454.99 384.132 450.866 384.949 446.88 385.738C442.007 386.701 436.97 387.698 431.932 388.188C429.831 388.383 427.803 388.48 425.848 388.482Z" fill="#141414"/>
<path d="M431.24 293.216H410.63C410.503 293.216 410.38 293.165 410.29 293.074C410.199 292.984 410.149 292.862 410.149 292.734C410.149 292.606 410.199 292.483 410.29 292.393C410.38 292.303 410.503 292.252 410.63 292.252H431.24C431.368 292.252 431.49 292.303 431.581 292.393C431.671 292.483 431.722 292.606 431.722 292.734C431.722 292.862 431.671 292.984 431.581 293.074C431.49 293.165 431.368 293.216 431.24 293.216Z" fill="#141414"/>
<path d="M560.196 284.231H478.491C474.32 284.231 470.939 287.613 470.939 291.783V292.615C470.939 296.786 474.32 300.167 478.491 300.167H560.196C564.366 300.167 567.747 296.786 567.747 292.615V291.783C567.747 287.613 564.366 284.231 560.196 284.231Z" fill="#141414"/>
<path d="M446.081 389.303C446.011 389.304 445.942 389.289 445.879 389.259C445.822 389.233 445.77 389.195 445.727 389.149C445.684 389.103 445.65 389.048 445.628 388.989C445.606 388.929 445.596 388.866 445.599 388.803C445.601 388.74 445.616 388.677 445.643 388.62L488.112 296.343C488.166 296.227 488.264 296.137 488.384 296.093C488.504 296.049 488.637 296.054 488.753 296.108C488.869 296.161 488.959 296.259 489.003 296.379C489.048 296.499 489.042 296.632 488.988 296.748L446.519 389.023C446.48 389.107 446.419 389.178 446.341 389.228C446.263 389.277 446.173 389.304 446.081 389.303Z" fill="#141414"/>
<path d="M443.698 400.322C446.465 400.322 448.709 398.078 448.709 395.311C448.709 392.543 446.465 390.3 443.698 390.3C440.93 390.3 438.687 392.543 438.687 395.311C438.687 398.078 440.93 400.322 443.698 400.322Z" fill="#141414"/>
<path d="M592.606 389.303C592.514 389.304 592.423 389.277 592.346 389.228C592.268 389.178 592.206 389.107 592.168 389.023L549.698 296.748C549.644 296.632 549.639 296.499 549.683 296.379C549.727 296.259 549.817 296.161 549.934 296.108C550.05 296.054 550.183 296.049 550.303 296.093C550.423 296.137 550.52 296.227 550.574 296.343L593.044 388.62C593.071 388.677 593.085 388.74 593.088 388.803C593.09 388.866 593.08 388.929 593.058 388.989C593.036 389.048 593.003 389.103 592.96 389.149C592.917 389.195 592.865 389.233 592.807 389.259C592.744 389.289 592.676 389.304 592.606 389.303Z" fill="#141414"/>
<path d="M594.989 400.322C597.756 400.322 600 398.078 600 395.311C600 392.543 597.756 390.3 594.989 390.3C592.221 390.3 589.978 392.543 589.978 395.311C589.978 398.078 592.221 400.322 594.989 400.322Z" fill="#141414"/>
<path d="M430.686 199.443C425.092 198.129 417.619 195.198 410.716 194.3C393.521 192.062 387.309 204.075 386.711 206.248C386.535 206.877 386.496 207.537 386.596 208.183C386.696 208.829 386.933 209.447 387.292 209.993C386.389 215.061 389.554 217.148 389.554 217.148C389.554 217.148 391.602 220.736 393.466 217.367C395.875 213.022 397.643 210.442 397.643 210.442C397.643 210.442 394.263 216.137 394.78 218.147C395.297 220.158 398.297 220.626 400.352 217.473C401.817 215.225 403.587 213.622 406.206 213.513C406.259 213.513 406.307 213.513 406.482 213.513C406.946 213.513 411.027 213.546 414.222 214.1C419.321 214.987 424.475 217.604 425.342 218.053L430.686 199.443Z" fill="white"/>
<path d="M396.944 220.241C396.774 220.241 396.604 220.227 396.436 220.199C395.932 220.123 395.462 219.901 395.084 219.559C394.706 219.218 394.437 218.772 394.311 218.279C394.218 217.787 394.23 217.281 394.346 216.794C394.195 217.059 394.044 217.332 393.889 217.613C393.271 218.723 392.537 219.29 391.709 219.295H391.698C390.402 219.295 389.445 217.895 389.193 217.484C388.637 217.07 386.019 214.842 386.784 210.1C386.429 209.508 386.199 208.849 386.106 208.165C386.014 207.48 386.062 206.784 386.247 206.119C386.534 205.07 388.245 201.37 392.189 198.234C395.571 195.553 401.537 192.607 410.777 193.812C415.221 194.39 419.954 195.823 424.137 197.097C426.533 197.82 428.796 198.506 430.804 198.977C430.868 198.99 430.928 199.016 430.98 199.054C431.033 199.092 431.077 199.14 431.111 199.196C431.143 199.252 431.164 199.314 431.173 199.379C431.181 199.444 431.176 199.509 431.159 199.572L425.813 218.189C425.793 218.257 425.759 218.32 425.712 218.374C425.665 218.427 425.606 218.47 425.541 218.498C425.475 218.526 425.405 218.539 425.333 218.536C425.262 218.534 425.193 218.515 425.129 218.482C423.756 217.777 418.909 215.416 414.15 214.577C411.084 214.047 407.231 214.001 406.484 213.997H406.23C404.075 214.087 402.389 215.241 400.755 217.738C399.719 219.341 398.324 220.241 396.944 220.241ZM397.643 209.971C397.728 209.971 397.811 209.993 397.885 210.036C397.959 210.078 398.02 210.14 398.062 210.214C398.105 210.288 398.126 210.371 398.126 210.457C398.125 210.542 398.102 210.625 398.059 210.698C396.791 212.836 394.907 216.719 395.247 218.04C395.325 218.352 395.494 218.634 395.734 218.849C395.974 219.064 396.272 219.203 396.591 219.247C397.483 219.396 398.828 218.938 399.949 217.221C401.07 215.504 402.947 213.178 406.184 213.042H406.484C407.24 213.042 411.169 213.094 414.306 213.638C418.71 214.404 423.169 216.445 425.037 217.361L430.075 199.787C428.163 199.318 426.058 198.692 423.842 198.011C419.702 196.76 415.009 195.339 410.644 194.771C394.537 192.675 387.938 203.561 387.169 206.379C387.01 206.938 386.972 207.525 387.059 208.099C387.145 208.674 387.354 209.223 387.671 209.711C387.709 209.763 387.737 209.823 387.752 209.887C387.767 209.95 387.769 210.016 387.758 210.081C386.922 214.783 389.782 216.732 389.811 216.75C389.874 216.792 389.926 216.848 389.964 216.914C390.183 217.308 390.945 218.336 391.69 218.336C392.255 218.336 392.73 217.678 393.03 217.148C395.424 212.834 397.211 210.21 397.229 210.186C397.274 210.118 397.335 210.062 397.408 210.025C397.48 209.987 397.561 209.969 397.643 209.971Z" fill="#141414"/>
<path d="M389.445 217.416C389.321 217.415 389.202 217.367 389.113 217.282C389.024 217.196 388.971 217.079 388.965 216.956C388.888 215.094 389.182 213.236 389.829 211.489C390.477 209.742 391.465 208.142 392.737 206.78C392.778 206.727 392.829 206.683 392.889 206.651C392.948 206.619 393.013 206.599 393.08 206.594C393.147 206.589 393.214 206.598 393.278 206.62C393.341 206.642 393.399 206.677 393.448 206.723C393.497 206.769 393.536 206.825 393.562 206.887C393.588 206.949 393.601 207.016 393.6 207.083C393.599 207.15 393.583 207.217 393.555 207.278C393.527 207.339 393.486 207.393 393.435 207.437C392.253 208.704 391.335 210.193 390.733 211.817C390.132 213.442 389.859 215.17 389.931 216.901C389.936 217.029 389.891 217.153 389.805 217.248C389.719 217.342 389.599 217.398 389.471 217.405L389.445 217.416Z" fill="#141414"/>
<path d="M387.266 210.67C387.214 210.669 387.162 210.661 387.112 210.646C387.052 210.626 386.996 210.594 386.949 210.552C386.901 210.511 386.861 210.46 386.833 210.403C386.805 210.347 386.788 210.285 386.784 210.222C386.779 210.158 386.788 210.095 386.808 210.035C387.753 207.189 389.401 204.628 391.598 202.588C391.644 202.545 391.699 202.511 391.758 202.489C391.818 202.467 391.881 202.457 391.944 202.459C392.007 202.462 392.07 202.477 392.127 202.503C392.185 202.529 392.237 202.567 392.28 202.613C392.323 202.66 392.357 202.714 392.379 202.774C392.401 202.833 392.411 202.896 392.409 202.96C392.406 203.023 392.392 203.085 392.365 203.143C392.339 203.201 392.301 203.252 392.255 203.296C390.176 205.224 388.618 207.646 387.723 210.337C387.692 210.434 387.631 210.518 387.548 210.578C387.466 210.638 387.367 210.67 387.266 210.67Z" fill="#141414"/>
<path d="M474.862 217.674C474.747 217.675 474.635 217.634 474.549 217.558C474.5 217.517 474.46 217.467 474.431 217.411C474.402 217.354 474.385 217.293 474.38 217.23C474.375 217.166 474.383 217.103 474.403 217.043C474.423 216.982 474.454 216.927 474.496 216.879C482.777 207.181 488.382 195.488 490.754 182.958C490.765 182.895 490.789 182.836 490.824 182.783C490.858 182.73 490.903 182.684 490.955 182.648C491.008 182.612 491.066 182.587 491.128 182.574C491.19 182.561 491.254 182.56 491.317 182.572C491.379 182.584 491.438 182.608 491.491 182.642C491.544 182.677 491.59 182.721 491.626 182.774C491.662 182.826 491.687 182.885 491.7 182.947C491.713 183.009 491.714 183.073 491.702 183.135C489.298 195.831 483.619 207.679 475.228 217.505C475.183 217.558 475.127 217.601 475.063 217.63C475 217.659 474.931 217.674 474.862 217.674Z" fill="#141414"/>
<path d="M566.348 250.135C559.543 229.858 532.729 174.002 528.591 165.375C527.135 162.344 525.637 159.242 523.258 156.872C517.783 151.397 509.151 151.009 501.416 151.296C483.29 151.971 474.209 151.456 467.783 156.08C450.89 168.237 454.885 198.072 443.86 199.533C441.126 199.896 434.825 198.876 432.64 198.506C429.791 198.039 426.971 197.418 424.19 196.646L419.912 216.548C424.968 219.106 430.159 221.387 435.463 223.379C443.036 226.227 446.915 227.646 451.416 227.582C458.768 227.482 464.356 224.477 466.217 223.45C468.879 221.979 471.328 220.153 473.497 218.022C476.126 224.323 477.562 228.483 478.138 231.126C478.259 231.68 478.557 233.097 479.722 234.039C480.764 234.882 482.23 234.898 483.57 234.874L492.02 234.722C495.258 242.033 498.499 249.343 501.742 256.651C503.087 259.682 504.491 262.798 506.9 265.076C509.828 267.845 513.897 269.043 517.873 269.706C528.942 271.559 540.272 269.98 551.363 268.261C554.749 267.735 558.198 267.177 561.256 265.632C564.313 264.088 566.974 261.362 567.568 257.987C568.021 255.345 567.2 252.671 566.348 250.135Z" fill="url(#paint6_linear_117_207)"/>
<path d="M474.189 217.674C474.074 217.675 473.963 217.633 473.876 217.558C473.779 217.475 473.719 217.357 473.71 217.229C473.7 217.102 473.741 216.976 473.824 216.879C478.198 211.751 481.844 206.044 484.656 199.918C484.71 199.802 484.807 199.712 484.927 199.668C485.047 199.623 485.18 199.628 485.296 199.682C485.412 199.735 485.502 199.833 485.547 199.953C485.591 200.072 485.586 200.205 485.532 200.321C482.683 206.528 478.989 212.311 474.555 217.505C474.51 217.558 474.454 217.601 474.391 217.63C474.328 217.659 474.259 217.674 474.189 217.674Z" fill="#141414"/>
<path d="M464.741 106.847C464.741 106.847 454.447 128.645 463.766 136.992C473.086 145.339 489.965 132.844 489.965 132.844C489.965 132.844 475.523 100.569 464.741 106.847Z" fill="white"/>
<path d="M471.842 140.374C468.832 140.374 465.902 139.55 463.444 137.351C453.968 128.862 463.882 107.543 464.305 106.641C464.346 106.55 464.413 106.473 464.498 106.422C466.149 105.46 467.974 105.289 469.925 105.918C479.781 109.087 489.976 131.681 490.406 132.638C490.451 132.738 490.46 132.851 490.432 132.958C490.404 133.064 490.341 133.158 490.252 133.223C489.731 133.617 480.469 140.374 471.842 140.374ZM465.113 107.188C464.272 109.041 455.523 128.961 464.088 136.631C472.321 144.005 487.015 134.316 489.361 132.688C487.994 129.743 478.41 109.676 469.629 106.844C467.98 106.31 466.502 106.426 465.113 107.188Z" fill="#141414"/>
<path d="M550.859 170.717C549.028 165.101 545.767 159.969 541.625 155.773C539.527 153.646 537.188 151.831 534.781 150.059C532.374 148.287 529.846 146.513 527.717 144.364C525.599 142.213 523.966 139.634 522.928 136.799C521.832 133.847 521.25 130.733 520.691 127.645C520.133 124.556 519.596 121.53 518.681 118.551C517.774 115.555 516.594 112.649 515.155 109.869C512.347 104.455 508.538 99.113 503.597 95.451C501.085 93.5916 498.198 92.2797 495.093 91.8307C491.906 91.3685 488.673 91.7343 485.57 92.5315C484.989 92.6805 484.415 92.8491 483.844 93.0265C481.318 92.3979 478.795 91.7715 476.264 91.167C473.506 90.51 470.74 89.8529 467.893 89.7434C465.365 89.6514 462.713 89.9953 460.556 91.408C458.135 92.9915 456.929 95.6416 456.434 98.4165C455.466 103.848 456.78 110.066 461.373 113.529C463.276 114.961 465.479 115.907 467.647 116.856C469.781 117.786 472.001 118.717 473.78 120.25C475.97 122.132 476.859 124.771 476.642 127.625C476.406 130.75 475.295 133.757 474.671 136.806C473.55 142.295 473.182 148.633 476.581 153.438C479.831 158.038 486.082 159.88 488.353 165.25C489.558 168.097 489.483 171.334 489.133 174.35C488.741 177.73 488.003 181.059 487.753 184.458C487.512 187.715 487.692 191.028 488.802 194.127C489.721 196.626 491.123 198.919 492.929 200.875C496.652 204.973 501.648 207.759 506.867 209.483C513.385 211.636 520.459 212.356 527.236 211.053C532.998 209.945 538.517 207.361 542.889 203.418C551.921 195.26 554.565 182.09 550.859 170.717Z" fill="#141414"/>
<path d="M96.0898 43.2744C100.248 43.2744 103.62 39.9031 103.62 35.7445C103.62 31.5859 100.248 28.2147 96.0898 28.2147C91.9312 28.2147 88.56 31.5859 88.56 35.7445C88.56 39.9031 91.9312 43.2744 96.0898 43.2744Z" fill="#141414"/>
<path d="M118.062 43.2744C122.22 43.2744 125.592 39.9031 125.592 35.7445C125.592 31.5859 122.22 28.2147 118.062 28.2147C113.903 28.2147 110.532 31.5859 110.532 35.7445C110.532 39.9031 113.903 43.2744 118.062 43.2744Z" fill="#141414"/>
<path d="M140.034 43.2744C144.192 43.2744 147.563 39.9031 147.563 35.7445C147.563 31.5859 144.192 28.2147 140.034 28.2147C135.875 28.2147 132.504 31.5859 132.504 35.7445C132.504 39.9031 135.875 43.2744 140.034 43.2744Z" fill="#141414"/>
<path d="M253.08 154.544C253.016 154.545 252.953 154.532 252.895 154.508C252.836 154.484 252.783 154.449 252.738 154.404C252.693 154.359 252.657 154.306 252.633 154.247C252.608 154.189 252.596 154.126 252.596 154.062V36.2307H155.433C155.31 36.2225 155.196 36.168 155.112 36.0784C155.028 35.9887 154.981 35.8705 154.981 35.7478C154.981 35.6251 155.028 35.5069 155.112 35.4173C155.196 35.3276 155.31 35.2731 155.433 35.2649H253.08C253.207 35.2655 253.33 35.3164 253.42 35.4066C253.51 35.4969 253.561 35.6191 253.562 35.7467V154.067C253.56 154.194 253.509 154.315 253.419 154.405C253.329 154.494 253.207 154.544 253.08 154.544Z" fill="#141414"/>
<defs>
<linearGradient id="paint0_linear_117_207" x1="196.949" y1="226.454" x2="196.949" y2="146.399" gradientUnits="userSpaceOnUse">
<stop stop-color="#DC1D47"/>
<stop offset="1" stop-color="#E54327"/>
</linearGradient>
<linearGradient id="paint1_linear_117_207" x1="118.067" y1="271.791" x2="118.067" y2="138.969" gradientUnits="userSpaceOnUse">
<stop stop-color="#DC1D47"/>
<stop offset="1" stop-color="#E54327"/>
</linearGradient>
<linearGradient id="paint2_linear_117_207" x1="271.929" y1="197.222" x2="271.929" y2="191.607" gradientUnits="userSpaceOnUse">
<stop stop-color="#DC1D47"/>
<stop offset="1" stop-color="#E54327"/>
</linearGradient>
<linearGradient id="paint3_linear_117_207" x1="141.448" y1="226.893" x2="141.448" y2="161.798" gradientUnits="userSpaceOnUse">
<stop stop-color="#DC1D47"/>
<stop offset="1" stop-color="#E54327"/>
</linearGradient>
<linearGradient id="paint4_linear_117_207" x1="339.419" y1="150.877" x2="339.419" y2="53.1769" gradientUnits="userSpaceOnUse">
<stop stop-color="#DC1D47"/>
<stop offset="1" stop-color="#E54327"/>
</linearGradient>
<linearGradient id="paint5_linear_117_207" x1="428.593" y1="214.067" x2="428.593" y2="198.9" gradientUnits="userSpaceOnUse">
<stop stop-color="#DC1D47"/>
<stop offset="1" stop-color="#E54327"/>
</linearGradient>
<linearGradient id="paint6_linear_117_207" x1="493.808" y1="270.541" x2="493.808" y2="151.227" gradientUnits="userSpaceOnUse">
<stop stop-color="#DC1D47"/>
<stop offset="1" stop-color="#E54327"/>
</linearGradient>
</defs>
</svg>
