<svg width="600" height="400" viewBox="0 0 600 400" fill="none" xmlns="http://www.w3.org/2000/svg">
<path d="M286.45 57.4038H44.9919V201.479H286.45V57.4038Z" fill="white"/>
<path d="M286.45 201.968H44.9919C44.9288 201.968 44.8663 201.956 44.8079 201.932C44.7496 201.908 44.6966 201.873 44.6519 201.828C44.6073 201.783 44.572 201.73 44.548 201.672C44.524 201.614 44.5118 201.551 44.512 201.488V57.4038C44.5118 57.3407 44.524 57.2782 44.548 57.2198C44.572 57.1615 44.6073 57.1085 44.6519 57.0639C44.6966 57.0192 44.7496 56.9839 44.8079 56.9599C44.8663 56.9359 44.9288 56.9237 44.9919 56.924H286.45C286.513 56.9237 286.576 56.9359 286.634 56.9599C286.693 56.9839 286.746 57.0192 286.79 57.0639C286.835 57.1085 286.87 57.1615 286.894 57.2198C286.918 57.2782 286.93 57.3407 286.93 57.4038V201.479C286.932 201.543 286.92 201.607 286.897 201.666C286.873 201.725 286.838 201.779 286.793 201.825C286.749 201.87 286.695 201.906 286.636 201.931C286.577 201.956 286.514 201.968 286.45 201.968ZM45.4717 201.008H285.97V57.8836H45.4717V201.008Z" fill="#141414"/>
<path d="M525.5 65C525.383 65 525.272 64.9551 525.189 64.8751C525.107 64.7952 525.06 64.6867 525.06 64.5737C525.06 64.4606 525.107 64.3521 525.189 64.2722C525.272 64.1922 525.383 64.1473 525.5 64.1473C528.589 64.1473 531.61 63.2589 534.178 61.5945C536.747 59.9301 538.749 57.5644 539.932 54.7966C541.114 52.0288 541.423 48.9832 540.82 46.0449C540.218 43.1066 538.73 40.4076 536.545 38.2893C534.361 36.1709 531.578 34.7282 528.547 34.1438C525.517 33.5593 522.377 33.8593 519.522 35.0057C516.668 36.1522 514.228 38.0937 512.512 40.5846C510.795 43.0756 509.879 46.0042 509.879 49C509.879 49.1131 509.833 49.2215 509.751 49.3015C509.668 49.3814 509.556 49.4264 509.44 49.4264C509.323 49.4264 509.211 49.3814 509.129 49.3015C509.046 49.2215 509 49.1131 509 49C509 45.8355 509.968 42.7421 511.781 40.1109C513.594 37.4797 516.171 35.4289 519.186 34.2179C522.201 33.0069 525.518 32.6901 528.719 33.3074C531.92 33.9248 534.86 35.4487 537.167 37.6863C539.475 39.9239 541.046 42.7749 541.683 45.8786C542.32 48.9823 541.993 52.1993 540.744 55.1229C539.495 58.0466 537.38 60.5454 534.667 62.3035C531.953 64.0616 528.763 65 525.5 65Z" fill="#141414"/>
<path d="M165.723 74.1915C165.596 74.1915 165.474 74.141 165.384 74.051C165.294 73.961 165.243 73.839 165.243 73.7117C165.243 73.5844 165.294 73.4624 165.384 73.3724C165.474 73.2824 165.596 73.2319 165.723 73.2319C169.095 73.2319 172.391 72.2321 175.194 70.3589C177.998 68.4857 180.183 65.8233 181.473 62.7083C182.763 59.5933 183.101 56.1657 182.443 52.8588C181.785 49.552 180.162 46.5144 177.777 44.1303C175.393 41.7462 172.356 40.1226 169.049 39.4648C165.742 38.807 162.314 39.1446 159.2 40.4349C156.085 41.7252 153.422 43.9102 151.549 46.7136C149.676 49.517 148.676 52.8129 148.676 56.1846C148.676 56.2476 148.664 56.31 148.639 56.3682C148.615 56.4264 148.58 56.4793 148.535 56.5239C148.491 56.5684 148.438 56.6038 148.38 56.6279C148.321 56.652 148.259 56.6644 148.196 56.6644C148.133 56.6644 148.071 56.652 148.012 56.6279C147.954 56.6038 147.901 56.5684 147.857 56.5239C147.812 56.4793 147.777 56.4264 147.753 56.3682C147.729 56.31 147.716 56.2476 147.716 56.1846C147.716 52.6231 148.772 49.1417 150.751 46.1804C152.73 43.2192 155.542 40.9112 158.832 39.5483C162.123 38.1854 165.743 37.8288 169.236 38.5236C172.729 39.2184 175.938 40.9334 178.456 43.4517C180.974 45.97 182.689 49.1786 183.384 52.6716C184.079 56.1646 183.722 59.7852 182.36 63.0755C180.997 66.3659 178.689 69.1782 175.727 71.1568C172.766 73.1355 169.285 74.1915 165.723 74.1915Z" fill="#141414"/>
<path d="M229.655 74.1915C229.528 74.1915 229.406 74.141 229.316 74.051C229.226 73.961 229.175 73.839 229.175 73.7117C229.175 73.5844 229.226 73.4624 229.316 73.3724C229.406 73.2824 229.528 73.2319 229.655 73.2319C233.027 73.2336 236.324 72.2353 239.128 70.3631C241.933 68.491 244.119 65.8292 245.411 62.7143C246.702 59.5995 247.041 56.1716 246.384 52.8642C245.728 49.5567 244.105 46.5184 241.721 44.1334C239.337 41.7484 236.3 40.1239 232.993 39.4655C229.686 38.807 226.257 39.1441 223.142 40.4341C220.026 41.7241 217.364 43.9091 215.49 46.7127C213.616 49.5163 212.616 52.8126 212.616 56.1846C212.616 56.3118 212.566 56.4339 212.476 56.5239C212.386 56.6139 212.264 56.6644 212.137 56.6644C212.009 56.6644 211.887 56.6139 211.797 56.5239C211.707 56.4339 211.657 56.3118 211.657 56.1846C211.657 52.6231 212.713 49.1417 214.691 46.1804C216.67 43.2192 219.482 40.9112 222.773 39.5483C226.063 38.1854 229.684 37.8288 233.177 38.5236C236.67 39.2184 239.878 40.9334 242.397 43.4517C244.915 45.97 246.63 49.1786 247.325 52.6716C248.019 56.1646 247.663 59.7852 246.3 63.0755C244.937 66.3659 242.629 69.1782 239.668 71.1568C236.707 73.1355 233.225 74.1915 229.664 74.1915H229.655Z" fill="#141414"/>
<path d="M110.267 87.35H71.3589V126.258H110.267V87.35Z" fill="#E4E4E4"/>
<path d="M158.225 87.35H119.316V126.258H158.225V87.35Z" fill="#E4E4E4"/>
<path d="M206.182 87.35H167.274V126.258H206.182V87.35Z" fill="#E4E4E4"/>
<path d="M254.14 87.35H215.232V126.258H254.14V87.35Z" fill="#E4E4E4"/>
<path d="M302.099 87.35H263.191V126.258H302.099V87.35Z" fill="#E4E4E4"/>
<path d="M110.267 133.443H71.3589V172.351H110.267V133.443Z" fill="#E4E4E4"/>
<path d="M158.225 133.443H119.316V172.351H158.225V133.443Z" fill="#E4E4E4"/>
<path d="M206.182 133.443H167.274V172.351H206.182V133.443Z" fill="#E4E4E4"/>
<path d="M254.14 133.443H215.232V172.351H254.14V133.443Z" fill="#E4E4E4"/>
<path d="M302.099 133.443H263.191V172.351H302.099V133.443Z" fill="#E4E4E4"/>
<path d="M110.267 179.538H71.3589V218.446H110.267V179.538Z" fill="#E4E4E4"/>
<path d="M158.225 179.538H119.316V218.446H158.225V179.538Z" fill="#E4E4E4"/>
<path d="M206.182 179.538H167.274V218.446H206.182V179.538Z" fill="#141414"/>
<path d="M489.5 105C518.495 105 542 81.4949 542 52.5C542 23.505 518.495 0 489.5 0C460.505 0 437 23.505 437 52.5C437 81.4949 460.505 105 489.5 105Z" fill="white"/>
<path d="M489.499 105C460.55 105 437 81.4483 437 52.4991C437 23.5499 460.55 0 489.499 0C518.448 0 542 23.5518 542 52.4991C542 81.4464 518.448 105 489.499 105ZM489.499 0.838968C461.01 0.838968 437.833 24.0157 437.833 52.5047C437.833 80.9937 461.01 104.161 489.499 104.161C517.988 104.161 541.165 80.988 541.165 52.4991C541.165 24.0101 517.984 0.833287 489.499 0.833287V0.838968Z" fill="#141414"/>
<path d="M489.5 21C489.303 21.0003 489.107 20.9889 488.925 20.9666C488.743 20.9443 488.577 20.9114 488.437 20.87C488.298 20.8285 488.187 20.7792 488.112 20.725C488.037 20.6708 487.999 20.6127 488 20.554V9.44595C488 9.32768 488.158 9.21425 488.439 9.13062C488.721 9.04699 489.102 9 489.5 9C489.898 9 490.279 9.04699 490.561 9.13062C490.842 9.21425 491 9.32768 491 9.44595V20.554C491.001 20.6127 490.963 20.6708 490.888 20.725C490.813 20.7792 490.702 20.8285 490.563 20.87C490.423 20.9114 490.257 20.9443 490.075 20.9666C489.893 20.9889 489.697 21.0003 489.5 21Z" fill="#141414"/>
<path d="M489.5 96C489.302 96 489.107 95.9884 488.924 95.9659C488.742 95.9433 488.576 95.9103 488.437 95.8687C488.298 95.827 488.187 95.7776 488.112 95.7233C488.037 95.669 487.999 95.6108 488 95.552V84.4459C488 84.3277 488.158 84.2142 488.439 84.1306C488.721 84.047 489.102 84 489.5 84C489.898 84 490.279 84.047 490.561 84.1306C490.842 84.2142 491 84.3277 491 84.4459V95.552C491.001 95.6108 490.963 95.669 490.888 95.7233C490.813 95.7776 490.702 95.827 490.563 95.8687C490.424 95.9103 490.258 95.9433 490.076 95.9659C489.893 95.9884 489.698 96 489.5 96Z" fill="#141414"/>
<path d="M457.554 54H446.446C446.328 54 446.214 53.842 446.131 53.5607C446.047 53.2794 446 52.8978 446 52.5C446 52.1022 446.047 51.7206 446.131 51.4393C446.214 51.158 446.328 51 446.446 51H457.554C457.672 51 457.786 51.158 457.869 51.4393C457.953 51.7206 458 52.1022 458 52.5C458 52.8978 457.953 53.2794 457.869 53.5607C457.786 53.842 457.672 54 457.554 54Z" fill="#141414"/>
<path d="M532.554 54H521.446C521.328 54 521.214 53.842 521.131 53.5607C521.047 53.2794 521 52.8978 521 52.5C521 52.1022 521.047 51.7206 521.131 51.4393C521.214 51.158 521.328 51 521.446 51H532.554C532.672 51 532.786 51.158 532.869 51.4393C532.953 51.7206 533 52.1022 533 52.5C533 52.8978 532.953 53.2794 532.869 53.5607C532.786 53.842 532.672 54 532.554 54Z" fill="#141414"/>
<path d="M481.414 72C481.357 71.9996 481.301 71.988 481.248 71.9658C481.147 71.9208 481.068 71.8373 481.028 71.7336C480.988 71.6299 480.991 71.5145 481.035 71.4127L489.495 52.1032C489.51 52.0686 489.53 52.036 489.553 52.0063L513.265 23.1514C513.3 23.1091 513.343 23.0741 513.391 23.0484C513.439 23.0228 513.492 23.0069 513.546 23.0018C513.6 22.9967 513.655 23.0024 513.707 23.0186C513.759 23.0348 513.808 23.0612 513.85 23.0963C513.892 23.1314 513.926 23.1744 513.952 23.223C513.977 23.2716 513.993 23.3248 513.998 23.3795C514.003 23.4342 513.998 23.4894 513.982 23.5419C513.965 23.5944 513.939 23.6432 513.904 23.6855L490.23 52.4948L481.795 71.751C481.763 71.8253 481.709 71.8885 481.641 71.9327C481.574 71.9769 481.495 72.0003 481.414 72Z" fill="#141414"/>
<path d="M310.876 247.086H385.552C385.996 247.093 386.431 246.966 386.802 246.721C387.203 246.45 387.501 246.053 387.648 245.592C387.796 245.131 387.784 244.634 387.615 244.18C386.743 242.333 384.915 241.683 382.224 241.683H305.977L306.965 244.372C307.263 245.169 307.798 245.856 308.496 246.341C309.195 246.825 310.026 247.085 310.876 247.086Z" fill="#141414"/>
<path d="M310.453 247.086C309.723 247.085 309.01 246.866 308.406 246.456C307.803 246.046 307.336 245.465 307.066 244.787L293.844 211.61C293.67 211.176 293.604 210.706 293.654 210.24C293.704 209.775 293.867 209.329 294.129 208.941C294.391 208.554 294.745 208.236 295.158 208.017C295.572 207.798 296.033 207.684 296.501 207.684H342.391C343.742 207.685 345.06 208.105 346.162 208.886C347.264 209.668 348.097 210.772 348.546 212.047L360.954 247.088L310.453 247.086Z" fill="#141414"/>
<path d="M354.882 242.488H309.38C309.253 242.488 309.131 242.437 309.041 242.347C308.951 242.257 308.9 242.135 308.9 242.008C308.9 241.881 308.951 241.759 309.041 241.669C309.131 241.579 309.253 241.528 309.38 241.528H354.882C355.009 241.528 355.131 241.579 355.221 241.669C355.311 241.759 355.361 241.881 355.361 242.008C355.361 242.135 355.311 242.257 355.221 242.347C355.131 242.437 355.009 242.488 354.882 242.488Z" fill="white"/>
<path d="M518.345 327.308C552.035 327.308 579.347 299.996 579.347 266.305C579.347 232.614 552.035 205.303 518.345 205.303C484.654 205.303 457.342 232.614 457.342 266.305C457.342 299.996 484.654 327.308 518.345 327.308Z" fill="white"/>
<path d="M518.345 327.785C484.444 327.785 456.862 300.206 456.862 266.305C456.862 232.405 484.444 204.823 518.345 204.823C552.245 204.823 579.827 232.403 579.827 266.305C579.827 300.208 552.245 327.785 518.345 327.785ZM518.345 205.782C484.974 205.782 457.824 232.933 457.824 266.305C457.824 299.678 484.974 326.826 518.345 326.826C551.715 326.826 578.867 299.68 578.867 266.31C578.867 232.939 551.717 205.782 518.345 205.782Z" fill="#141414"/>
<path d="M515.243 305.211C515.18 305.214 515.117 305.203 515.058 305.181C514.999 305.159 514.945 305.126 514.899 305.083C514.853 305.04 514.815 304.988 514.789 304.931C514.763 304.874 514.748 304.812 514.746 304.749C514.744 304.686 514.754 304.623 514.776 304.564C514.798 304.505 514.831 304.451 514.874 304.404C514.917 304.358 514.969 304.321 515.026 304.295C515.083 304.269 515.145 304.254 515.208 304.252C543.065 302.234 549.794 288.018 549.857 287.874C549.915 287.768 550.011 287.688 550.125 287.65C550.24 287.611 550.364 287.617 550.474 287.667C550.585 287.717 550.672 287.806 550.719 287.917C550.766 288.028 550.77 288.153 550.729 288.266C550.457 288.873 543.75 303.148 515.274 305.209L515.243 305.211Z" fill="#141414"/>
<path d="M591.714 389.067C591.622 389.067 591.532 389.04 591.455 388.99C591.377 388.94 591.316 388.869 591.278 388.786L556.995 313.338C556.95 313.224 556.951 313.096 556.997 312.982C557.043 312.868 557.131 312.775 557.243 312.724C557.355 312.673 557.482 312.667 557.599 312.708C557.715 312.748 557.811 312.832 557.868 312.941L592.15 388.389C592.203 388.505 592.207 388.636 592.162 388.755C592.118 388.874 592.028 388.971 591.912 389.024C591.85 389.052 591.782 389.067 591.714 389.067Z" fill="#141414"/>
<path d="M597.852 395.947C598.779 393.709 597.716 391.143 595.478 390.216C593.24 389.289 590.675 390.352 589.748 392.59C588.821 394.828 589.883 397.393 592.121 398.32C594.359 399.247 596.925 398.185 597.852 395.947Z" fill="#141414"/>
<path d="M444.975 389.067C444.907 389.067 444.839 389.053 444.777 389.024C444.661 388.971 444.571 388.874 444.527 388.755C444.482 388.636 444.487 388.505 444.539 388.389L478.821 312.941C478.845 312.881 478.881 312.826 478.927 312.78C478.973 312.733 479.028 312.697 479.088 312.673C479.148 312.649 479.213 312.637 479.278 312.638C479.343 312.64 479.407 312.654 479.466 312.681C479.525 312.708 479.578 312.747 479.622 312.795C479.666 312.843 479.699 312.899 479.721 312.961C479.742 313.022 479.751 313.087 479.746 313.152C479.741 313.217 479.724 313.28 479.694 313.338L445.414 388.786C445.375 388.87 445.313 388.941 445.236 388.991C445.158 389.041 445.068 389.067 444.975 389.067Z" fill="#141414"/>
<path d="M444.57 398.321C446.808 397.394 447.871 394.829 446.944 392.591C446.017 390.353 443.451 389.29 441.213 390.217C438.975 391.144 437.913 393.71 438.84 395.948C439.767 398.186 442.332 399.248 444.57 398.321Z" fill="#141414"/>
<path d="M247.461 389.067C247.392 389.068 247.324 389.053 247.261 389.024C247.203 388.997 247.152 388.96 247.109 388.914C247.066 388.867 247.033 388.813 247.011 388.754C246.989 388.695 246.979 388.632 246.981 388.569C246.984 388.506 246.999 388.444 247.025 388.387L309.053 253.622C309.079 253.565 309.116 253.513 309.162 253.469C309.208 253.426 309.262 253.393 309.322 253.371C309.381 253.349 309.444 253.339 309.507 253.342C309.57 253.344 309.632 253.36 309.69 253.387C309.805 253.44 309.894 253.537 309.939 253.657C309.983 253.776 309.978 253.908 309.925 254.024L247.898 388.788C247.859 388.872 247.798 388.942 247.721 388.992C247.643 389.041 247.553 389.068 247.461 389.067Z" fill="#141414"/>
<path d="M249.637 395.252C250.194 392.895 248.734 390.532 246.376 389.976C244.018 389.419 241.656 390.88 241.1 393.237C240.543 395.595 242.003 397.957 244.361 398.514C246.719 399.07 249.081 397.61 249.637 395.252Z" fill="#141414"/>
<path d="M297.19 253.247L425.409 253.247V247.249L297.19 247.249V253.247Z" fill="white"/>
<path d="M425.407 253.729H297.19C297.062 253.729 296.94 253.679 296.85 253.589C296.759 253.499 296.708 253.377 296.708 253.249V247.251C296.708 247.188 296.72 247.126 296.745 247.067C296.769 247.009 296.804 246.956 296.849 246.911C296.894 246.867 296.947 246.831 297.006 246.807C297.064 246.783 297.127 246.771 297.19 246.771H425.407C425.47 246.771 425.532 246.783 425.591 246.807C425.649 246.831 425.702 246.867 425.747 246.911C425.791 246.956 425.827 247.009 425.851 247.067C425.875 247.126 425.887 247.188 425.887 247.251V253.249C425.887 253.377 425.836 253.499 425.746 253.589C425.656 253.679 425.534 253.729 425.407 253.729ZM297.67 252.769H424.927V247.731H297.678L297.67 252.769Z" fill="#141414"/>
<path d="M407.343 146.787C409.227 152.239 413.625 156.455 417.967 160.069C419.098 162.041 420.316 163.96 421.62 165.827C427.907 174.758 435.984 182.282 445.337 187.922C455.19 193.863 466.254 197.507 477.709 198.585C489.907 199.738 502.205 198.02 513.62 193.568C519.291 191.344 524.853 188.506 529.542 184.585C533.865 180.97 537.277 176.39 539.503 171.215C541.744 165.956 542.676 160.232 542.22 154.534C541.765 148.837 539.934 143.334 536.886 138.498C530.443 128.332 518.519 121.992 506.713 120.731C500.924 120.112 495.201 120.897 489.672 122.653C484.427 124.321 479.439 126.686 474.437 128.958C469.436 131.231 464.404 133.451 459.083 134.736C456.472 135.388 453.797 135.748 451.106 135.811C448.135 135.826 445.173 135.483 442.284 134.791C436.177 133.403 430.308 131.041 424.118 129.975C418.811 129.063 412.475 128.928 408.929 133.702C406.215 137.366 405.884 142.56 407.343 146.787Z" fill="#141414"/>
<path d="M452.819 172.741L443.047 160.268C442.36 159.395 437.124 157.555 436.308 158.305L431.379 168.268C431.04 168.581 430.827 169.006 430.778 169.465C430.729 169.923 430.848 170.383 431.112 170.761L438.299 181.012C438.899 181.869 439.72 182.546 440.675 182.971C441.63 183.397 442.683 183.554 443.721 183.426C446.411 183.095 450.046 181.767 452.984 177.524C453.47 176.814 453.716 175.966 453.687 175.106C453.657 174.245 453.353 173.417 452.819 172.741Z" fill="white"/>
<path d="M453.955 174.499C453.883 174.5 453.812 174.484 453.747 174.453C453.682 174.422 453.625 174.376 453.58 174.32L441.752 159.642C441.679 159.542 441.648 159.419 441.664 159.296C441.68 159.174 441.742 159.063 441.838 158.986C441.934 158.908 442.056 158.871 442.179 158.881C442.301 158.891 442.416 158.948 442.498 159.04L454.328 173.718C454.385 173.789 454.42 173.874 454.431 173.964C454.441 174.054 454.426 174.145 454.387 174.226C454.348 174.308 454.287 174.377 454.21 174.425C454.134 174.473 454.045 174.499 453.955 174.499Z" fill="#141414"/>
<path d="M439.274 182.774C439.198 182.775 439.123 182.757 439.056 182.722C438.988 182.688 438.93 182.638 438.886 182.576L429.675 169.895C429.6 169.792 429.569 169.664 429.589 169.538C429.609 169.412 429.678 169.299 429.781 169.224C429.884 169.149 430.012 169.119 430.138 169.138C430.264 169.158 430.377 169.227 430.452 169.33L439.662 182.011C439.715 182.083 439.746 182.167 439.753 182.256C439.761 182.344 439.743 182.433 439.703 182.512C439.663 182.591 439.601 182.658 439.526 182.704C439.45 182.75 439.363 182.775 439.274 182.774Z" fill="#141414"/>
<path d="M437.023 154.202C437.023 154.202 437.477 152.126 439.525 152.039C441.573 151.951 443.372 153.751 443.649 155.746C443.926 157.742 442.729 159.818 440.919 160.706C439.896 161.208 438.894 161.579 437.61 161.23C436.836 163.664 435.549 165.976 433.664 167.701C431.78 169.426 429.263 170.536 426.709 170.447C422.436 170.309 418.811 166.911 417.112 162.983C415.413 159.055 415.286 154.658 415.212 150.381C415.212 150.381 421.348 155.129 430.013 149.013C431.378 153.031 433.56 155.16 437.023 154.202Z" fill="white"/>
<path d="M426.971 170.925H426.694C422.582 170.794 418.652 167.751 416.68 163.173C414.89 159.009 414.807 154.231 414.741 150.39C414.739 150.299 414.763 150.21 414.81 150.132C414.857 150.055 414.925 149.992 415.006 149.951C415.087 149.911 415.178 149.894 415.268 149.903C415.358 149.912 415.444 149.946 415.516 150.001C415.755 150.185 421.494 154.446 429.745 148.621C429.806 148.577 429.876 148.549 429.95 148.538C430.024 148.526 430.1 148.532 430.171 148.555C430.242 148.579 430.307 148.618 430.36 148.671C430.414 148.723 430.454 148.788 430.478 148.859C431.841 152.891 433.804 154.47 436.637 153.805C436.934 152.933 437.797 151.624 439.503 151.557C441.684 151.463 443.8 153.352 444.125 155.681C444.428 157.845 443.167 160.139 441.13 161.134C440.258 161.57 439.224 161.991 437.93 161.788C437.058 164.327 435.701 166.486 433.987 168.054C431.983 169.884 429.44 170.925 426.971 170.925ZM415.716 151.24C415.788 154.833 415.976 159.092 417.564 162.787C419.058 166.259 422.469 169.825 426.724 169.96C429.016 170.028 431.442 169.088 433.339 167.343C435.021 165.803 436.34 163.635 437.154 161.079C437.191 160.962 437.272 160.863 437.38 160.804C437.488 160.745 437.615 160.729 437.734 160.761C438.805 161.046 439.636 160.796 440.707 160.272C442.382 159.45 443.42 157.574 443.174 155.807C442.919 153.98 441.224 152.453 439.544 152.512C437.902 152.582 437.509 154.231 437.492 154.3C437.473 154.385 437.431 154.463 437.371 154.526C437.312 154.589 437.236 154.635 437.152 154.658C433.834 155.583 431.354 153.932 429.78 149.757C422.964 154.283 417.651 152.283 415.716 151.24Z" fill="#141414"/>
<path d="M438.079 158.937C438.003 158.937 437.927 158.919 437.86 158.884C437.792 158.849 437.733 158.799 437.689 158.736C437.645 158.674 437.616 158.603 437.605 158.527C437.593 158.452 437.6 158.375 437.625 158.303C438.065 157.032 438.954 155.967 440.125 155.306C440.18 155.275 440.24 155.255 440.303 155.248C440.365 155.241 440.429 155.246 440.489 155.263C440.55 155.28 440.607 155.309 440.656 155.348C440.706 155.387 440.747 155.435 440.778 155.49C440.809 155.545 440.828 155.606 440.836 155.668C440.843 155.731 440.838 155.794 440.821 155.855C440.804 155.916 440.775 155.972 440.736 156.022C440.697 156.071 440.649 156.113 440.594 156.143C439.63 156.689 438.898 157.566 438.535 158.612C438.502 158.707 438.44 158.79 438.359 158.848C438.277 158.906 438.179 158.937 438.079 158.937Z" fill="#141414"/>
<path d="M415.457 151.029C415.381 151.029 415.307 151.011 415.239 150.979C413.945 150.336 412.836 149.374 412.017 148.185C411.981 148.133 411.956 148.074 411.943 148.012C411.93 147.951 411.929 147.887 411.94 147.825C411.952 147.763 411.975 147.704 412.01 147.651C412.044 147.598 412.088 147.552 412.14 147.516C412.192 147.48 412.251 147.455 412.313 147.442C412.374 147.429 412.438 147.428 412.5 147.439C412.562 147.451 412.621 147.474 412.674 147.509C412.727 147.543 412.773 147.587 412.809 147.639C413.536 148.695 414.52 149.549 415.668 150.119C415.765 150.168 415.843 150.247 415.889 150.346C415.935 150.444 415.947 150.555 415.921 150.661C415.896 150.766 415.836 150.86 415.75 150.927C415.664 150.994 415.559 151.03 415.45 151.029H415.457Z" fill="#141414"/>
<path d="M451.178 329.881L482.586 386.319C485.666 391.85 481.665 398.655 475.334 398.655H385.34C384.911 398.656 384.491 398.524 384.138 398.279C383.786 398.034 383.517 397.686 383.368 397.283C383.219 396.881 383.197 396.442 383.305 396.026C383.413 395.61 383.646 395.237 383.973 394.958L409.398 373.182L383.225 326.584L451.178 329.881Z" fill="white"/>
<path d="M475.338 399.137H385.34C384.813 399.138 384.298 398.976 383.865 398.675C383.431 398.374 383.101 397.947 382.918 397.452C382.735 396.957 382.708 396.418 382.841 395.907C382.974 395.397 383.26 394.939 383.661 394.596L408.787 373.065L382.812 326.811C382.77 326.736 382.749 326.651 382.751 326.565C382.753 326.479 382.778 326.395 382.823 326.322C382.868 326.248 382.933 326.189 383.01 326.15C383.087 326.111 383.174 326.095 383.26 326.104L451.207 329.413C451.288 329.416 451.368 329.441 451.437 329.484C451.507 329.527 451.564 329.588 451.604 329.659L483.011 386.094C483.755 387.431 484.137 388.939 484.119 390.468C484.101 391.997 483.684 393.496 482.909 394.814C482.134 396.133 481.028 397.226 479.7 397.986C478.373 398.746 476.87 399.146 475.34 399.146L475.338 399.137ZM384.073 327.096L409.81 372.938C409.864 373.035 409.884 373.147 409.865 373.257C409.846 373.366 409.789 373.466 409.705 373.538L384.278 395.325C384.027 395.541 383.848 395.828 383.765 396.149C383.682 396.469 383.7 396.807 383.815 397.118C383.929 397.429 384.137 397.696 384.408 397.886C384.68 398.075 385.003 398.177 385.334 398.178H475.332C476.694 398.178 478.033 397.822 479.215 397.146C480.398 396.469 481.383 395.496 482.074 394.321C482.764 393.147 483.136 391.812 483.152 390.45C483.168 389.088 482.828 387.745 482.165 386.555L450.884 330.35L384.073 327.096Z" fill="#141414"/>
<path d="M452.099 378.899C449.66 378.899 447.151 378.835 444.572 378.707C433.919 378.175 423.197 376.62 412.824 375.115C412.762 375.106 412.701 375.085 412.647 375.053C412.593 375.021 412.545 374.978 412.508 374.928C412.47 374.877 412.442 374.82 412.426 374.759C412.411 374.698 412.407 374.634 412.416 374.572C412.424 374.509 412.445 374.448 412.477 374.394C412.509 374.339 412.552 374.291 412.603 374.253C412.654 374.216 412.712 374.188 412.773 374.173C412.835 374.158 412.899 374.156 412.961 374.166C423.311 375.667 434.013 377.22 444.62 377.747C456.563 378.343 466.895 377.558 476.206 375.348C476.269 375.33 476.334 375.326 476.398 375.334C476.463 375.342 476.525 375.364 476.581 375.397C476.636 375.429 476.685 375.473 476.724 375.526C476.762 375.578 476.789 375.637 476.804 375.701C476.819 375.764 476.821 375.829 476.809 375.893C476.798 375.957 476.774 376.018 476.739 376.072C476.703 376.127 476.657 376.173 476.603 376.209C476.549 376.245 476.488 376.27 476.424 376.282C469.048 378.033 461.041 378.899 452.099 378.899Z" fill="#141414"/>
<path d="M405.677 322.064L370.14 389.632C368.708 392.355 366.559 394.634 363.926 396.224C361.292 397.815 358.274 398.655 355.198 398.655H289.48C289.079 398.65 288.689 398.523 288.363 398.29C288.036 398.057 287.789 397.729 287.654 397.352C287.52 396.974 287.504 396.564 287.609 396.177C287.714 395.79 287.936 395.445 288.243 395.187L316.015 372.515L336.34 331.144L405.677 322.064Z" fill="white"/>
<path d="M355.198 399.137H289.48C288.978 399.137 288.488 398.982 288.078 398.692C287.667 398.403 287.357 397.994 287.188 397.521C287.019 397.048 287.001 396.534 287.136 396.05C287.27 395.567 287.551 395.136 287.94 394.819L315.64 372.212L335.924 330.935C335.958 330.864 336.01 330.802 336.074 330.756C336.139 330.71 336.214 330.681 336.292 330.671L405.626 321.591C405.714 321.579 405.802 321.591 405.883 321.627C405.963 321.662 406.033 321.719 406.082 321.792C406.133 321.864 406.162 321.949 406.168 322.037C406.173 322.125 406.154 322.213 406.113 322.291L370.579 389.857C369.109 392.662 366.898 395.011 364.186 396.648C361.474 398.284 358.365 399.145 355.198 399.137ZM336.659 331.589L316.447 372.729C316.416 372.791 316.373 372.846 316.32 372.89L288.548 395.56C288.311 395.752 288.139 396.013 288.057 396.306C287.974 396.6 287.985 396.912 288.087 397.199C288.189 397.486 288.378 397.735 288.627 397.91C288.877 398.085 289.175 398.179 289.48 398.178H355.198C358.188 398.183 361.123 397.368 363.683 395.822C366.243 394.277 368.33 392.059 369.717 389.41L404.819 322.669L336.659 331.589Z" fill="#141414"/>
<path d="M354.727 378.474C342.238 378.473 329.774 377.374 317.478 375.189C317.415 375.18 317.354 375.158 317.299 375.124C317.244 375.091 317.196 375.047 317.158 374.995C317.121 374.943 317.094 374.884 317.08 374.821C317.066 374.758 317.064 374.693 317.075 374.63C317.087 374.567 317.11 374.507 317.145 374.453C317.18 374.399 317.226 374.353 317.279 374.317C317.332 374.281 317.392 374.256 317.455 374.243C317.518 374.231 317.583 374.231 317.646 374.245C337.21 377.722 357.166 378.43 376.928 376.347C376.991 376.341 377.054 376.346 377.114 376.364C377.175 376.382 377.231 376.412 377.28 376.452C377.329 376.491 377.37 376.54 377.4 376.596C377.43 376.651 377.449 376.712 377.456 376.775C377.462 376.837 377.456 376.901 377.439 376.961C377.421 377.022 377.391 377.078 377.351 377.127C377.312 377.176 377.263 377.217 377.207 377.247C377.152 377.277 377.091 377.296 377.028 377.302C369.62 378.082 362.176 378.473 354.727 378.474Z" fill="#141414"/>
<path d="M462.4 341.557C462.4 341.557 397.945 360.796 332.981 332.935C332.981 332.935 349.817 301.399 363.826 277.989C368.114 270.826 374.186 264.897 381.449 260.78C388.712 256.663 396.918 254.499 405.267 254.499H513.775L521.053 268.713C529.18 284.578 518.807 303.658 501.07 305.451C478.457 307.737 458.009 309.087 441.859 308.577L462.4 341.557Z" fill="url(#paint0_linear_101_285)"/>
<path d="M394.479 345.838C394.389 345.84 394.301 345.816 394.224 345.77C394.147 345.724 394.084 345.658 394.043 345.579C387.968 333.805 383.196 321.404 379.809 308.596C377.41 299.492 375.211 287.75 379.659 277.669C382.634 270.931 388.505 265.018 397.611 259.598C397.665 259.565 397.726 259.542 397.789 259.532C397.852 259.521 397.916 259.524 397.978 259.539C398.04 259.554 398.099 259.581 398.15 259.619C398.202 259.657 398.245 259.705 398.278 259.76C398.31 259.815 398.332 259.876 398.341 259.939C398.349 260.002 398.346 260.067 398.329 260.128C398.313 260.19 398.284 260.248 398.245 260.299C398.206 260.349 398.157 260.391 398.102 260.423C389.175 265.738 383.43 271.507 380.538 278.057C376.21 287.872 378.37 299.399 380.736 308.352C384.105 321.092 388.854 333.427 394.898 345.138C394.927 345.195 394.944 345.258 394.949 345.322C394.954 345.386 394.946 345.45 394.926 345.511C394.905 345.572 394.873 345.628 394.831 345.676C394.789 345.725 394.737 345.764 394.68 345.792C394.617 345.822 394.548 345.837 394.479 345.838Z" fill="#141414"/>
<path d="M441.329 308.841H441.316L427.812 308.446C427.749 308.445 427.687 308.431 427.629 308.406C427.572 308.381 427.519 308.345 427.475 308.3C427.387 308.208 427.338 308.086 427.34 307.958C427.342 307.831 427.395 307.71 427.486 307.621C427.578 307.533 427.7 307.484 427.828 307.486H427.841L441.342 307.881C441.469 307.883 441.59 307.935 441.679 308.026C441.768 308.117 441.817 308.24 441.815 308.367C441.813 308.495 441.761 308.616 441.67 308.705C441.579 308.793 441.456 308.842 441.329 308.841Z" fill="#141414"/>
<path d="M513.782 254.49H458.5L450.199 237.956C450.199 237.956 439.294 249.168 425.407 247.256C411.52 245.343 396.311 233.358 383.231 233.476C383.231 233.476 379.449 234.28 377.406 237.419C375.362 240.558 372.372 240.086 371.859 238.091C371.347 236.095 374.71 230.42 374.71 230.42C374.71 230.42 372.952 232.989 370.553 237.312C368.697 240.654 366.659 237.094 366.659 237.094C366.659 237.094 363.51 235.015 364.406 229.971C364.049 229.427 363.813 228.813 363.713 228.17C363.613 227.527 363.653 226.87 363.828 226.243C364.424 224.082 370.607 212.125 387.72 214.352C398.922 215.809 409.688 218.496 415.788 220.178C417.416 220.626 419.144 220.552 420.727 219.965C422.31 219.378 423.669 218.308 424.611 216.906C426.231 214.507 428.026 211.353 429.191 207.883C432.303 198.535 436.17 175.572 449.344 175.557C459.268 175.557 468.027 178.174 491.339 214.343C507.428 239.323 513.782 254.49 513.782 254.49Z" fill="white"/>
<path d="M513.782 254.968C513.688 254.967 513.597 254.939 513.519 254.886C513.442 254.834 513.381 254.76 513.346 254.674C513.28 254.523 506.818 239.251 490.933 214.596C467.896 178.846 459.168 176.03 449.394 176.03H449.342C438.676 176.041 434.218 191.978 431.267 202.522C430.67 204.655 430.155 206.496 429.645 208.027C428.652 211.006 427.095 214.081 425.016 217.168C424.017 218.652 422.577 219.784 420.899 220.405C419.221 221.025 417.39 221.102 415.666 220.625C410.102 219.098 399.066 216.295 387.663 214.812C371.637 212.729 365.065 223.563 364.297 226.354C364.141 226.911 364.104 227.494 364.191 228.066C364.277 228.637 364.483 229.184 364.797 229.67C364.836 229.722 364.865 229.782 364.88 229.846C364.895 229.91 364.897 229.976 364.886 230.04C364.06 234.688 366.814 236.599 366.932 236.677C366.993 236.72 367.044 236.775 367.082 236.839C367.301 237.234 368.057 238.254 368.801 238.254C369.364 238.254 369.837 237.6 370.134 237.074C372.518 232.78 374.298 230.169 374.315 230.143C374.385 230.041 374.493 229.97 374.614 229.945C374.736 229.92 374.863 229.944 374.968 230.01C375.072 230.077 375.147 230.182 375.176 230.302C375.206 230.423 375.187 230.551 375.124 230.658C373.863 232.786 371.988 236.651 372.326 237.964C372.403 238.276 372.572 238.557 372.811 238.771C373.05 238.986 373.347 239.124 373.665 239.168C374.537 239.317 375.892 238.861 377.004 237.149C379.133 233.877 382.972 233.035 383.133 233.005C383.229 232.995 383.327 232.995 383.423 233.005C390.544 233.005 398.377 236.54 405.954 239.958C412.447 242.889 419.158 245.919 425.474 246.789C438.964 248.647 449.75 237.74 449.857 237.628C449.909 237.573 449.975 237.531 450.047 237.507C450.12 237.482 450.198 237.476 450.273 237.489C450.349 237.5 450.421 237.53 450.483 237.575C450.544 237.62 450.595 237.68 450.629 237.748L458.932 254.29C458.961 254.346 458.978 254.407 458.983 254.47C458.988 254.533 458.98 254.597 458.961 254.657C458.941 254.717 458.91 254.772 458.869 254.82C458.828 254.868 458.778 254.908 458.722 254.936C458.665 254.965 458.604 254.982 458.541 254.987C458.478 254.992 458.415 254.985 458.355 254.965C458.295 254.946 458.239 254.914 458.191 254.873C458.143 254.832 458.103 254.782 458.075 254.726L450.064 238.767C447.985 240.691 439.416 247.967 428.587 247.969C427.502 247.97 426.418 247.897 425.343 247.751C418.89 246.861 412.113 243.803 405.559 240.846C398.076 237.467 390.339 233.975 383.423 233.975H383.29C382.876 234.075 379.602 234.948 377.809 237.7C376.649 239.48 375.039 240.394 373.51 240.141C373.009 240.066 372.541 239.845 372.165 239.505C371.789 239.165 371.522 238.722 371.397 238.23C371.302 237.741 371.313 237.237 371.429 236.752L370.974 237.565C370.358 238.673 369.63 239.236 368.806 239.24C367.514 239.24 366.561 237.847 366.308 237.436C365.756 237.024 363.152 234.819 363.909 230.088C363.556 229.499 363.327 228.844 363.235 228.163C363.143 227.482 363.191 226.79 363.375 226.128C364.247 222.982 370.919 211.689 387.79 213.887C399.249 215.377 410.335 218.186 415.926 219.726C417.456 220.15 419.081 220.081 420.57 219.53C422.059 218.98 423.338 217.975 424.225 216.657C426.255 213.643 427.773 210.646 428.737 207.75C429.241 206.241 429.754 204.411 430.347 202.297C433.376 191.472 437.952 175.117 449.346 175.103H449.399C459.479 175.103 468.444 177.939 491.744 214.11C507.681 238.843 514.17 254.183 514.235 254.335C514.26 254.394 514.272 254.456 514.273 254.519C514.273 254.582 514.261 254.645 514.237 254.703C514.213 254.761 514.178 254.814 514.133 254.859C514.089 254.904 514.036 254.939 513.978 254.964C513.914 254.979 513.847 254.98 513.782 254.968Z" fill="#141414"/>
<path d="M366.55 237.345C366.427 237.344 366.309 237.297 366.22 237.212C366.131 237.128 366.077 237.012 366.07 236.889C365.995 235.036 366.288 233.187 366.933 231.448C367.577 229.709 368.561 228.116 369.826 226.76C369.916 226.682 370.032 226.639 370.151 226.642C370.27 226.644 370.384 226.69 370.471 226.772C370.558 226.853 370.611 226.964 370.62 227.083C370.63 227.202 370.595 227.32 370.522 227.414C369.345 228.675 368.431 230.157 367.832 231.774C367.233 233.391 366.961 235.111 367.032 236.834C367.036 236.898 367.026 236.961 367.005 237.02C366.984 237.079 366.951 237.134 366.909 237.181C366.867 237.228 366.815 237.266 366.758 237.293C366.701 237.32 366.64 237.335 366.577 237.338L366.55 237.345Z" fill="#141414"/>
<path d="M364.38 230.632C364.328 230.632 364.277 230.624 364.227 230.608C364.107 230.567 364.007 230.481 363.95 230.367C363.894 230.253 363.884 230.122 363.924 230.001C364.866 227.168 366.506 224.617 368.694 222.586C368.788 222.499 368.912 222.453 369.039 222.457C369.167 222.462 369.287 222.517 369.374 222.611C369.46 222.704 369.507 222.828 369.502 222.956C369.497 223.083 369.442 223.203 369.349 223.29C367.279 225.21 365.728 227.621 364.838 230.3C364.806 230.396 364.745 230.48 364.663 230.54C364.581 230.599 364.482 230.632 364.38 230.632Z" fill="#141414"/>
<path d="M396.867 236.963C396.833 236.967 396.799 236.967 396.765 236.963C396.703 236.95 396.645 236.925 396.593 236.889C396.542 236.853 396.497 236.808 396.463 236.755C396.429 236.702 396.406 236.643 396.395 236.581C396.384 236.519 396.385 236.455 396.398 236.394L400.66 216.594C400.687 216.469 400.762 216.361 400.87 216.291C400.977 216.222 401.107 216.199 401.232 216.226C401.356 216.252 401.465 216.328 401.534 216.435C401.603 216.542 401.627 216.672 401.6 216.797L397.336 236.595C397.311 236.7 397.251 236.794 397.166 236.861C397.081 236.928 396.976 236.964 396.867 236.963Z" fill="#141414"/>
<path d="M451.564 237.604C451.45 237.604 451.34 237.563 451.253 237.489C451.156 237.406 451.096 237.288 451.086 237.162C451.077 237.035 451.117 236.909 451.2 236.813C459.442 227.159 465.021 215.521 467.384 203.05C467.393 202.985 467.415 202.924 467.448 202.868C467.482 202.813 467.526 202.764 467.579 202.727C467.632 202.689 467.691 202.662 467.755 202.648C467.818 202.634 467.884 202.633 467.947 202.645C468.011 202.656 468.072 202.681 468.126 202.717C468.18 202.753 468.226 202.8 468.261 202.854C468.297 202.909 468.32 202.97 468.332 203.034C468.343 203.098 468.341 203.163 468.326 203.226C465.934 215.863 460.281 227.656 451.929 237.437C451.884 237.489 451.828 237.532 451.765 237.561C451.702 237.59 451.634 237.605 451.564 237.604Z" fill="#141414"/>
<path d="M528.604 399.137H185.303C185.175 399.137 185.053 399.087 184.963 398.997C184.873 398.907 184.823 398.785 184.823 398.657C184.823 398.53 184.873 398.408 184.963 398.318C185.053 398.228 185.175 398.178 185.303 398.178H528.604C528.732 398.178 528.854 398.228 528.944 398.318C529.034 398.408 529.084 398.53 529.084 398.657C529.084 398.785 529.034 398.907 528.944 398.997C528.854 399.087 528.732 399.137 528.604 399.137Z" fill="#141414"/>
<path d="M34.1136 333.725C21.0926 325.635 11.3388 313.659 6.89159 300.289C15.653 301.336 23.9454 305.122 29.9063 310.8L32.2488 312.843L42.995 335.228H38.1704L34.1136 333.725Z" fill="white"/>
<path d="M34.1114 334.207C34.0218 334.206 33.9341 334.181 33.8584 334.133C20.6803 325.943 10.9418 313.977 6.43573 300.442C6.41015 300.365 6.40438 300.283 6.41896 300.203C6.43355 300.124 6.46801 300.049 6.51916 299.987C6.5703 299.924 6.63646 299.875 6.71149 299.845C6.78651 299.815 6.86796 299.804 6.94828 299.814C15.7533 300.865 24.242 304.743 30.2378 310.451C30.2908 310.492 30.3347 310.543 30.3666 310.602C30.3985 310.661 30.4177 310.726 30.4231 310.792C30.4284 310.859 30.4197 310.926 30.3975 310.99C30.3753 311.053 30.3402 311.111 30.2943 311.159C30.2484 311.208 30.1928 311.247 30.1311 311.273C30.0694 311.299 30.003 311.312 29.936 311.31C29.8691 311.309 29.8031 311.294 29.7424 311.266C29.6817 311.237 29.6276 311.197 29.5835 311.146C23.9127 305.742 15.93 302.019 7.60042 300.865C12.1392 313.89 21.6204 325.393 34.3732 333.317C34.4615 333.373 34.5293 333.455 34.5666 333.553C34.6038 333.651 34.6084 333.757 34.5796 333.858C34.5508 333.958 34.4903 334.046 34.407 334.109C34.3238 334.172 34.2223 334.207 34.118 334.207H34.1114Z" fill="#141414"/>
<path d="M38.1704 333.557C38.0846 333.557 38.0003 333.535 37.9263 333.491C37.8523 333.448 37.7912 333.385 37.7495 333.311C32.1354 323.164 24.1068 313.79 14.5319 306.202C14.4825 306.163 14.4413 306.114 14.4107 306.059C14.38 306.004 14.3606 305.943 14.3534 305.88C14.3462 305.818 14.3514 305.754 14.3688 305.694C14.3861 305.633 14.4152 305.576 14.4545 305.527C14.4937 305.477 14.5423 305.436 14.5975 305.406C14.6526 305.375 14.7133 305.356 14.776 305.348C14.8386 305.341 14.9021 305.346 14.9628 305.364C15.0235 305.381 15.0801 305.41 15.1295 305.449C24.8026 313.116 32.914 322.588 38.5892 332.846C38.62 332.901 38.6397 332.962 38.6469 333.025C38.6542 333.088 38.6489 333.151 38.6315 333.212C38.6141 333.273 38.5848 333.33 38.5453 333.379C38.5059 333.429 38.457 333.47 38.4016 333.5C38.3303 333.538 38.251 333.557 38.1704 333.557Z" fill="#141414"/>
<path d="M14.6519 162.48C24.5541 183.388 31.9611 205.39 36.72 228.03L38.0832 234.99L37.3329 242.32C35.6078 261.587 36.4402 280.997 39.8084 300.045C43.08 311.77 49.5993 335.219 49.5993 335.219H42.995L41.1847 332.1C28.3774 305.09 16.1023 277.673 9.79896 248.979C3.49565 220.285 3.41276 190.012 14.6519 162.48Z" fill="white"/>
<path d="M41.1847 332.589C41.0934 332.589 41.0041 332.563 40.9269 332.514C40.8498 332.465 40.7879 332.396 40.7484 332.314C28.3665 306.193 15.738 278.251 9.32348 249.09C2.23062 216.81 3.87078 187.604 14.2004 162.299C14.2358 162.212 14.2961 162.137 14.3736 162.084C14.4512 162.031 14.5426 162.002 14.6366 162C14.729 162.001 14.8193 162.027 14.898 162.076C14.9767 162.124 15.0409 162.193 15.0837 162.275C25.0006 183.221 32.4192 205.261 37.1867 227.941C37.2128 228.065 37.1882 228.195 37.1185 228.302C37.0839 228.354 37.0394 228.4 36.9873 228.435C36.9352 228.471 36.8766 228.496 36.8149 228.509C36.6902 228.535 36.5603 228.51 36.4538 228.44C36.3472 228.371 36.2727 228.261 36.2467 228.137C31.5708 205.894 24.336 184.267 14.6867 163.688C4.79992 188.574 3.31243 217.234 10.2679 248.894C16.6541 277.955 29.2563 305.84 41.6187 331.91C41.6739 332.024 41.6819 332.155 41.6411 332.275C41.6002 332.394 41.5138 332.493 41.4006 332.549C41.3327 332.579 41.2587 332.593 41.1847 332.589Z" fill="#141414"/>
<path d="M42.995 329.295C42.8913 329.295 42.7905 329.262 42.7075 329.199C42.6246 329.137 42.5639 329.05 42.5347 328.951C27.9653 280.092 18.3879 229.882 13.9495 179.091C13.9438 178.967 13.9862 178.846 14.0678 178.753C14.1494 178.659 14.2639 178.601 14.3874 178.591C14.5108 178.58 14.6337 178.617 14.7301 178.695C14.8266 178.773 14.8892 178.885 14.9049 179.008C19.3394 229.735 28.9051 279.881 43.4552 328.678C43.4732 328.738 43.4792 328.802 43.4728 328.864C43.4663 328.927 43.4475 328.987 43.4175 329.043C43.3875 329.098 43.3469 329.147 43.298 329.187C43.249 329.226 43.1927 329.256 43.1324 329.273C43.088 329.288 43.0416 329.295 42.995 329.295Z" fill="#141414"/>
<path d="M59.5144 330.85C62.8079 304.322 75.3098 278.707 94.9678 258.21C95.415 285.222 85.4801 312.287 67.1155 334.085L66.2561 335.228H59.0193L59.5144 330.85Z" fill="white"/>
<path d="M67.1221 334.565C67.0306 334.565 66.941 334.538 66.8639 334.489C66.7868 334.44 66.7254 334.37 66.6869 334.287C66.6484 334.204 66.6344 334.112 66.6466 334.021C66.6588 333.93 66.6966 333.845 66.7556 333.775C84.8215 312.331 94.6516 285.962 94.5077 259.4C75.4625 279.604 63.2201 304.954 59.9965 330.911C59.9895 330.974 59.97 331.035 59.9392 331.09C59.9085 331.145 59.867 331.194 59.8172 331.233C59.7675 331.272 59.7104 331.301 59.6495 331.317C59.5885 331.334 59.5248 331.338 59.4621 331.33C59.3355 331.314 59.2203 331.249 59.1418 331.148C59.0634 331.048 59.0279 330.92 59.0434 330.794C62.3237 304.263 74.9739 278.369 94.6233 257.878C94.6895 257.81 94.7743 257.763 94.867 257.744C94.9597 257.724 95.0562 257.732 95.1444 257.766C95.2326 257.801 95.3086 257.861 95.363 257.939C95.4173 258.016 95.4476 258.108 95.4499 258.203C95.8861 285.397 85.9666 312.455 67.4841 334.395C67.4396 334.447 67.3841 334.49 67.3217 334.519C67.2592 334.549 67.1911 334.564 67.1221 334.565Z" fill="#141414"/>
<path d="M63.3706 333.631C63.3062 333.632 63.2424 333.619 63.183 333.594C63.125 333.569 63.0724 333.533 63.0282 333.488C62.9841 333.443 62.9493 333.39 62.9258 333.331C62.9023 333.273 62.8906 333.21 62.8913 333.147C62.892 333.084 62.9052 333.022 62.93 332.964L85.526 279.813C85.5443 279.747 85.5765 279.686 85.6206 279.633C85.6646 279.58 85.7194 279.538 85.7813 279.508C85.8432 279.479 85.9107 279.463 85.9793 279.461C86.0479 279.46 86.1159 279.473 86.1789 279.501C86.2419 279.528 86.2983 279.568 86.3443 279.619C86.3903 279.67 86.4249 279.73 86.4457 279.796C86.4665 279.861 86.473 279.93 86.4649 279.998C86.4567 280.066 86.434 280.132 86.3984 280.19L63.8024 333.339C63.7663 333.424 63.7063 333.497 63.6297 333.549C63.5531 333.601 63.4631 333.629 63.3706 333.631Z" fill="#141414"/>
<path d="M48.7705 333.701C31.4156 285.209 32.5018 231.875 51.824 183.948C62.472 207.419 65.8483 233.001 65.3052 258.227C64.7621 283.453 60.4131 308.486 56.0727 333.433L55.667 335.228H49.2372L48.7705 333.701Z" fill="white"/>
<path d="M48.7704 334.181C48.6715 334.181 48.5751 334.15 48.4943 334.093C48.4135 334.036 48.3522 333.955 48.319 333.862C30.8987 285.185 31.9827 231.88 51.3725 183.767C51.4078 183.68 51.468 183.605 51.5455 183.551C51.623 183.498 51.7145 183.468 51.8087 183.466C51.9032 183.462 51.9967 183.487 52.0766 183.538C52.1565 183.589 52.219 183.663 52.2558 183.75C61.9725 205.172 66.3979 229.539 65.7785 258.238C65.2332 283.538 60.8122 308.948 56.5373 333.516C56.5264 333.578 56.5034 333.637 56.4695 333.69C56.4357 333.744 56.3917 333.79 56.34 333.826C56.2884 333.862 56.2301 333.888 56.1685 333.902C56.1069 333.915 56.0432 333.917 55.9811 333.906C55.9189 333.895 55.8595 333.872 55.8063 333.838C55.753 333.804 55.707 333.76 55.6707 333.709C55.6344 333.657 55.6087 333.599 55.595 333.537C55.5813 333.476 55.5798 333.412 55.5907 333.35C59.8612 308.817 64.2735 283.451 64.8166 258.216C65.423 230.124 61.1764 206.217 51.8414 185.176C32.9446 232.793 32.0067 285.438 49.2241 333.54C49.2456 333.599 49.2551 333.662 49.2521 333.725C49.2491 333.788 49.2337 333.849 49.2067 333.906C49.1797 333.963 49.1417 334.014 49.0949 334.057C49.0481 334.099 48.9935 334.131 48.934 334.152C48.8817 334.172 48.8262 334.181 48.7704 334.181Z" fill="#141414"/>
<path d="M51.6909 331.354C51.6279 331.354 51.5656 331.341 51.5075 331.317C51.4494 331.292 51.3966 331.257 51.3523 331.212C51.3079 331.167 51.2728 331.114 51.249 331.056C51.2251 330.998 51.213 330.935 51.2133 330.872L51.6626 207.816C51.6631 207.689 51.714 207.567 51.8039 207.478C51.8938 207.388 52.0155 207.338 52.1424 207.338C52.2055 207.338 52.268 207.351 52.3262 207.375C52.3844 207.399 52.4373 207.435 52.4817 207.48C52.5261 207.524 52.5612 207.577 52.585 207.636C52.6087 207.694 52.6206 207.757 52.6201 207.82L52.1708 330.876C52.1702 331.003 52.1194 331.125 52.0295 331.214C51.9395 331.304 51.8178 331.354 51.6909 331.354Z" fill="#141414"/>
<path d="M81.0778 332.194H23.1505V399.657H81.0778V332.194Z" fill="url(#paint1_linear_101_285)"/>
<path d="M81.0756 400.137H0.52403C0.396769 400.137 0.274721 400.087 0.184734 399.997C0.094747 399.907 0.0441966 399.785 0.0441966 399.657C0.0441966 399.53 0.094747 399.408 0.184734 399.318C0.274721 399.228 0.396769 399.178 0.52403 399.178H81.0756C81.2029 399.178 81.3249 399.228 81.4149 399.318C81.5049 399.408 81.5554 399.53 81.5554 399.657C81.5554 399.785 81.5049 399.907 81.4149 399.997C81.3249 400.087 81.2029 400.137 81.0756 400.137Z" fill="#141414"/>
<path d="M286.45 237.604H186.727C186.6 237.604 186.478 237.553 186.388 237.463C186.298 237.373 186.248 237.252 186.247 237.125V226.546C186.247 226.419 186.298 226.297 186.388 226.207C186.478 226.117 186.6 226.067 186.727 226.067C186.854 226.067 186.976 226.117 187.066 226.207C187.156 226.297 187.207 226.419 187.207 226.546V236.647H286.446C286.573 236.647 286.695 236.698 286.785 236.787C286.875 236.877 286.926 237 286.926 237.127C286.926 237.254 286.875 237.376 286.785 237.466C286.695 237.556 286.573 237.607 286.446 237.607L286.45 237.604Z" fill="#141414"/>
<path d="M327.3 196.112C327.172 196.112 327.05 196.061 326.96 195.971C326.87 195.881 326.82 195.759 326.82 195.632V57.4038C326.82 57.3408 326.832 57.2784 326.856 57.2202C326.88 57.1619 326.916 57.109 326.96 57.0645C327.005 57.0199 327.058 56.9846 327.116 56.9605C327.174 56.9364 327.237 56.924 327.3 56.924H427.828C427.955 56.924 428.077 56.9745 428.167 57.0645C428.257 57.1545 428.308 57.2765 428.308 57.4038C428.308 57.5311 428.257 57.6531 428.167 57.7431C428.077 57.8331 427.955 57.8836 427.828 57.8836H327.777V195.643C327.774 195.768 327.723 195.887 327.634 195.974C327.545 196.062 327.425 196.111 327.3 196.112Z" fill="#141414"/>
<defs>
<linearGradient id="paint0_linear_101_285" x1="428.426" y1="348.031" x2="428.426" y2="254.499" gradientUnits="userSpaceOnUse">
<stop stop-color="#DC1D47"/>
<stop offset="1" stop-color="#E54327"/>
</linearGradient>
<linearGradient id="paint1_linear_101_285" x1="52.1155" y1="399.659" x2="52.1155" y2="332.194" gradientUnits="userSpaceOnUse">
<stop stop-color="#DC1D47"/>
<stop offset="1" stop-color="#E54327"/>
</linearGradient>
</defs>
</svg>
