<svg width="64" height="64" viewBox="0 0 64 64" fill="none" xmlns="http://www.w3.org/2000/svg">
<path d="M8.94 57.5L3.81 0H60.19L55.07 57.5L31.94 64" fill="#E35126"/>
<path d="M32.06 59L50.68 53.88L55.06 4.63H32.06" fill="#EF672B"/>
<path d="M32.06 26H22.68L22.06 18.75H32.06V11.75H31.94H14.31L14.43 13.63L16.18 33.13H32.06V26ZM32.06 44.38H31.94L24.06 42.26L23.56 36.64H19.81H16.56L17.44 47.76L31.94 51.76H32.06V44.38Z" fill="#EBEBEB"/>
<path d="M31.94 26V33.12H40.69L39.81 42.24L31.93 44.36V51.74L46.43 47.74L46.55 46.49L48.17 27.87L48.44 26H46.44H31.94ZM31.94 11.75V16.13V18.75H49.06L49.18 17.25L49.56 13.63L49.68 11.75H31.94Z" fill="white"/>
</svg>
