<svg width="64" height="64" viewBox="0 0 64 64" fill="none" xmlns="http://www.w3.org/2000/svg">
<path d="M48.34 21.05L48.3 21.07V13.45C50.35 12.49 51.66 10.43 51.68 8.16001V7.99001C51.68 4.74001 49.05 2.11001 45.82 2.11001H45.65C42.41 2.11001 39.79 4.74001 39.79 7.99001V8.17001C39.8 9.28001 40.12 10.37 40.73 11.31C41.33 12.25 42.19 12.99 43.2 13.46V21.08C40.31 21.52 37.59 22.73 35.32 24.56L14.45 8.28001C14.6 7.74001 14.68 7.19001 14.69 6.63001V6.62001C14.68 2.97001 11.73 0.0100098 8.08999 0.0100098C4.43999 0.0100098 1.48999 2.97001 1.48999 6.62001C1.48999 10.27 4.43999 13.23 8.07999 13.23C9.21999 13.22 10.35 12.91 11.33 12.33L31.87 28.34C30.07 31.07 29.11 34.27 29.11 37.54C29.11 40.97 30.17 44.31 32.13 47.12L25.89 53.38C25.39 53.23 24.86 53.15 24.34 53.15C21.35 53.15 18.93 55.58 18.93 58.57C18.93 61.57 21.35 63.99 24.34 63.99C27.33 63.99 29.75 61.56 29.75 58.57V58.55C29.75 58.02 29.66 57.49 29.5 56.99L35.68 50.79C38.6 53.04 42.17 54.26 45.85 54.26C55.05 54.26 62.51 46.78 62.51 37.56C62.51 29.3 56.48 22.28 48.34 21.05ZM45.62 46.13C40.89 46.13 37.05 42.3 37.05 37.57C37.05 32.84 40.89 29 45.62 29C50.35 29 54.18 32.84 54.18 37.57C54.18 42.3 50.35 46.13 45.62 46.13Z" fill="#F4795B"/>
</svg>
