<svg width="64" height="64" viewBox="0 0 64 64" fill="none" xmlns="http://www.w3.org/2000/svg">
<g clip-path="url(#clip0_54_639)">
<path d="M11.33 0.0100098H52.66C58.93 0.0100098 64 5.20001 64 11.63V52.37C64 58.8 58.93 63.99 52.67 63.99H11.33C5.07 63.99 0 58.8 0 52.37V11.63C0 5.20001 5.07 0.0100098 11.33 0.0100098Z" fill="#301111"/>
<path d="M39.39 44.56L29.66 16.39C29.63 16.25 29.52 16.17 29.31 16.17H22.4C22.27 16.2 22.16 16.33 22.19 16.47C22.19 17.07 22.14 17.68 22.03 18.25C21.92 18.58 21.84 18.88 21.76 19.15L13.17 44.5C13.09 44.83 13.17 44.99 13.46 44.99H18.47C18.71 45.02 18.93 44.86 18.98 44.61L21.01 38.18H30.93L33.12 44.7C33.18 44.89 33.36 45.03 33.55 45H39.12C39.39 45 39.47 44.86 39.39 44.56ZM22.56 32.63C22.96 31.48 23.36 30.19 23.73 28.81C24.16 27.44 24.56 26.07 24.96 24.76C25.34 23.58 25.63 22.41 25.87 21.23H25.92C26.11 21.88 26.3 22.59 26.51 23.36C26.72 24.15 26.96 24.94 27.23 25.79C27.49 26.64 27.73 27.46 28 28.31C28.24 29.13 28.48 29.92 28.72 30.66C28.96 31.37 29.17 32.06 29.33 32.63H22.56Z" fill="#F89A1C"/>
<path d="M48.33 23.63V44.69C48.33 44.99 48.22 45.13 47.98 45.13H42.75C42.48 45.12 42.35 44.96 42.35 44.69V23.63C42.35 23.36 42.46 23.25 42.7 23.25H47.98C48.22 23.25 48.33 23.39 48.33 23.63Z" fill="#F89A1C"/>
<path d="M42.96 19.99C42.35 19.31 42.03 18.4 42.05 17.47C42.02 16.54 42.37 15.67 43.01 15.04C43.65 14.41 44.5 14.08 45.38 14.08C46.42 14.08 47.22 14.41 47.81 15.04C48.4 15.7 48.72 16.57 48.69 17.47C48.72 18.4 48.4 19.3 47.76 19.99C47.15 20.65 46.24 21.01 45.33 20.95C44.45 20.98 43.6 20.62 42.96 19.99Z" fill="#F89A1C"/>
</g>
<defs>
<clipPath id="clip0_54_639">
<rect width="64" height="64" fill="white"/>
</clipPath>
</defs>
</svg>
