<svg width="64" height="64" viewBox="0 0 64 64" fill="none" xmlns="http://www.w3.org/2000/svg">
<g clip-path="url(#clip0_54_644)">
<path d="M58.2 0H5.8C2.6 0 0 2.6 0 5.8V58.2C0 61.4 2.6 64 5.8 64H58.2C61.4 64 64 61.4 64 58.2V5.8C64 2.6 61.4 0 58.2 0Z" fill="#DC3B5F"/>
<path d="M17.48 16.2899C17.48 14.1099 19.26 12.4399 21.39 12.4399C23.52 12.4399 25.3 14.1099 25.3 16.2899C25.3 18.4699 23.52 20.1399 21.39 20.1399C19.26 20.1399 17.48 18.4699 17.48 16.2899Z" fill="white"/>
<path d="M55.11 41.8699C53.61 47.1099 50.91 49.29 47.52 49.29C43.56 49.29 41.66 46.9299 41.66 43.7099C41.66 42.7999 41.77 41.82 42.06 40.84L43.96 34.06C44.19 33.31 44.25 32.62 44.25 31.99C44.25 29.8 42.93 28.4799 40.8 28.4799C38.1 28.4799 36.32 30.42 35.4 34.16L31.72 48.9199H25.28L26.44 44.2799C24.55 47.3799 21.92 49.31 18.68 49.31C14.77 49.31 12.93 47.0499 12.93 43.66C12.93 42.7999 13.05 41.75 13.28 40.77L16.21 28.79H11.67L13.05 23.7H23.95L19.64 40.81C19.36 41.9 19.24 42.8099 19.24 43.4399C19.24 44.5299 19.78 44.85 20.62 45.04C21.13 45.15 25.22 45.07 27.44 40.13L30.27 28.79H25.67L27.05 23.7H36.88L35.62 29.4799C37.35 26.2599 40.8 23.2 44.19 23.2C47.81 23.2 50.8 25.7899 50.8 30.7299C50.8 31.99 50.63 33.3699 50.17 34.9199L48.33 41.5299C48.16 42.2199 48.04 42.79 48.04 43.31C48.04 44.46 48.5 45.0299 49.36 45.0299C50.22 45.0299 51.32 44.4 52.58 40.8899L55.11 41.8699Z" fill="white"/>
</g>
<defs>
<clipPath id="clip0_54_644">
<rect width="64" height="64" fill="white"/>
</clipPath>
</defs>
</svg>
