<svg width="64" height="64" viewBox="0 0 64 64" fill="none" xmlns="http://www.w3.org/2000/svg">
<g clip-path="url(#clip0_54_648)">
<path d="M0 32C0 24.35 0 16.7 0 9.04C0 3.87 3.87 0 9.04 0C24.35 0 39.65 0 54.96 0C60.13 0 64 3.87 64 9.04C64 24.35 64 39.65 64 54.96C64 60.13 60.13 64 54.96 64C39.65 64 24.35 64 9.04 64C3.87 64 0 60.13 0 54.96C0 47.31 0 39.66 0 32ZM60.44 32.01C60.44 24.46 60.44 16.92 60.44 9.37C60.44 5.75 58.24 3.56 54.6 3.56C44.95 3.56 35.29 3.56 25.64 3.56C20.15 3.56 14.65 3.55 9.16 3.56C6.47 3.56 4.45 5.04 3.76 7.46C3.56 8.16 3.53 8.88 3.53 9.6C3.53 24.53 3.53 39.47 3.53 54.4C3.53 58.33 5.69 60.47 9.63 60.47C24.59 60.47 39.55 60.47 54.51 60.47C58.25 60.47 60.44 58.29 60.44 54.57C60.44 47.05 60.44 39.53 60.44 32.01Z" fill="black"/>
<path d="M35.54 32C35.54 33.71 35.54 35.41 35.54 37.12C35.54 40.11 33.69 42.3 30.74 42.61C29.13 42.78 27.49 42.8 25.87 42.58C23.29 42.22 21.37 40.11 21.32 37.49C21.26 33.84 21.25 30.18 21.32 26.53C21.37 23.6 23.69 21.35 26.62 21.31C28.14 21.29 29.66 21.14 31.17 21.41C33.79 21.89 35.53 23.99 35.54 26.64C35.54 28.43 35.54 30.21 35.54 32ZM24.92 31.99C24.92 33.75 24.91 35.51 24.92 37.27C24.93 38.42 25.54 39.07 26.68 39.11C27.85 39.15 29.03 39.15 30.2 39.11C31.3 39.07 31.99 38.37 31.99 37.27C32.01 33.78 32.01 30.28 31.99 26.79C31.98 25.61 31.27 24.94 30.07 24.92C29 24.91 27.94 24.91 26.87 24.92C25.53 24.93 24.92 25.53 24.91 26.87C24.91 28.57 24.92 30.28 24.92 31.99Z" fill="black"/>
<path d="M46.06 42.69C45.31 42.64 44.4 42.76 43.5 42.58C40.97 42.08 39.17 40 39.08 37.43C39.04 36.34 39.79 35.45 40.8 35.39C41.77 35.33 42.62 36.16 42.7 37.25C42.79 38.51 43.36 39.08 44.62 39.1C45.71 39.12 46.81 39.13 47.9 39.1C49.1 39.07 49.75 38.38 49.77 37.18C49.81 35.38 49.56 35.01 47.88 34.45C46.34 33.94 44.82 33.39 43.26 32.92C40.05 31.96 38.8 29.44 39.1 26.35C39.4 23.33 41.62 21.32 44.68 21.31C46.12 21.31 47.56 21.17 48.99 21.43C51.4 21.86 53.22 23.93 53.33 26.37C53.38 27.53 52.73 28.36 51.7 28.45C50.69 28.54 49.89 27.79 49.78 26.65C49.67 25.57 49.03 24.94 47.96 24.92C46.79 24.9 45.61 24.9 44.44 24.92C43.4 24.94 42.76 25.59 42.7 26.61C42.6 28.63 42.83 28.97 44.75 29.61C46.41 30.16 48.08 30.71 49.73 31.29C51.95 32.07 53.28 33.91 53.32 36.25C53.33 37.1 53.39 37.95 53.14 38.79C52.45 41.09 50.45 42.64 48.05 42.68C47.44 42.7 46.82 42.69 46.06 42.69Z" fill="black"/>
<path d="M17.77 35.54C17.77 37.32 17.77 39.11 17.77 40.89C17.77 41.99 17.06 42.76 16.04 42.79C15.03 42.82 14.24 42.06 14.23 40.97C14.22 37.35 14.22 33.73 14.23 30.1C14.23 29 14.98 28.28 16.04 28.3C17.06 28.32 17.77 29.09 17.77 30.18C17.77 31.97 17.77 33.76 17.77 35.54Z" fill="black"/>
<path d="M17.76 23.08C17.76 24.92 17.76 24.92 15.88 24.92C14.22 24.92 14.22 24.92 14.22 23.25C14.22 21.3 14.22 21.3 16.07 21.3C17.76 21.29 17.76 21.29 17.76 23.08Z" fill="black"/>
</g>
<defs>
<clipPath id="clip0_54_648">
<rect width="64" height="64" fill="white"/>
</clipPath>
</defs>
</svg>
