<svg width="64" height="64" viewBox="0 0 64 64" fill="none" xmlns="http://www.w3.org/2000/svg">
<path d="M4.06 0.190027C10.29 -0.0699729 16.53 0.270027 22.77 0.160027C29.65 -0.0599729 36.53 0.120027 43.41 0.150027C48.87 0.160027 54.33 0.120027 59.8 0.170027C58.08 19.28 56.35 38.38 54.76 57.5C47.44 59.6 40.12 61.66 32.8 63.75C31.86 64.14 30.9 63.78 30 63.53C23.04 61.51 16.09 59.52 9.12 57.58C7.3 38.46 5.59 19.33 4.06 0.190027ZM32.04 5.17003C31.78 14.59 32 24.02 31.93 33.44C32 42.06 31.81 50.68 32.03 59.3C38.18 57.84 44.25 56.04 50.32 54.27C51.85 37.91 53.33 21.55 54.61 5.17003C47.09 5.10003 39.56 5.19003 32.04 5.17003ZM24.22 41.97C20.61 40.97 17.04 39.83 13.38 39.04C13.27 41.23 13.31 43.42 13.56 45.6C18.92 46.92 24.17 48.65 29.54 49.94C29.58 37.46 29.52 24.98 29.56 12.5C27.81 12.46 26.06 12.43 24.31 12.39C24.11 22.25 24.3 32.11 24.22 41.97Z" fill="#D6BB31"/>
<path d="M32.04 5.16999C39.56 5.18999 47.08 5.09999 54.6 5.17999C53.32 21.56 51.84 37.92 50.31 54.28C44.24 56.05 38.17 57.85 32.02 59.31C31.79 50.69 31.99 42.07 31.92 33.45C32.01 24.02 31.79 14.6 32.04 5.16999ZM34.15 12.5C34.17 20.61 34.18 28.73 34.15 36.85C37.82 36.25 41.49 35.56 45.15 34.89C45.09 36.78 45.02 38.67 44.94 40.56C41.37 41.52 37.81 42.51 34.22 43.39C34.16 45.57 34.16 47.75 34.18 49.93C38.7 48.91 43.15 47.62 47.64 46.48C48.2 46.22 49.28 46.25 49.23 45.36C49.77 39.53 50.11 33.67 50.64 27.82C46.92 28.13 43.24 28.76 39.52 29.02C39.49 25.71 39.48 22.39 39.53 19.08C43.44 19.08 47.35 19.08 51.26 19.09C51.51 16.88 51.73 14.66 51.9 12.44C45.98 12.47 40.06 12.39 34.15 12.5Z" fill="#FED940"/>
<path d="M24.22 41.97C24.3 32.11 24.11 22.25 24.31 12.4C26.06 12.44 27.81 12.46 29.56 12.51C29.52 24.99 29.57 37.47 29.54 49.95C24.17 48.66 18.92 46.93 13.56 45.61C13.31 43.43 13.27 41.24 13.38 39.05C17.04 39.83 20.61 40.98 24.22 41.97Z" fill="#EBEBEB"/>
</svg>
