<svg width="64" height="64" viewBox="0 0 64 64" fill="none" xmlns="http://www.w3.org/2000/svg">
<g clip-path="url(#clip0_54_662)">
<path d="M11.44 32.21L10.24 31.02C6.4 27.18 5.29 21.8 6.66 16.94C2.82 16.08 0 12.67 0 8.57004C0 3.88004 3.84 0.0400391 8.53 0.0400391C12.8 0.0400391 16.3 3.11004 16.98 7.21004C21.59 6.10004 26.62 7.38004 30.21 10.97L30.72 11.48L24.4 17.8L23.89 17.29C21.84 15.24 18.51 15.24 16.47 17.29C14.43 19.34 14.42 22.67 16.47 24.71L30.64 38.88L24.32 45.2L17.66 38.54L11.44 32.21Z" fill="#7CC245"/>
<path d="M18.52 25.22L32.69 11.05C36.44 7.3 41.9 6.1 46.68 7.47C47.28 3.29 50.86 0.130005 55.13 0.130005C59.82 0.130005 63.66 3.97 63.66 8.66C63.66 13.01 60.42 16.6 56.24 17.11C57.61 21.89 56.41 27.27 52.66 31.02L52.15 31.53L46.01 25.21L46.52 24.7C48.57 22.65 48.57 19.32 46.52 17.28C44.47 15.24 41.14 15.23 39.1 17.28L24.92 31.44L18.52 25.22Z" fill="#FAA743"/>
<path d="M46.93 57.0499C42.07 58.4999 36.6 57.3899 32.76 53.5499L32.25 53.0399L38.56 46.7299L39.07 47.2399C41.12 49.2899 44.45 49.2899 46.49 47.2399C48.53 45.1899 48.54 41.8599 46.49 39.8199L32.34 25.6399L38.65 19.3199L52.9 33.5799C56.48 37.1599 57.76 42.2799 56.66 46.9799C60.84 47.5799 64 51.1599 64 55.4299C64 60.1199 60.16 63.9599 55.47 63.9599C51.2 63.8699 47.7 60.8799 46.93 57.0499Z" fill="#EF4824"/>
<path d="M44.46 39.3L30.29 53.46C26.62 57.13 21.5 58.32 16.89 57.22C16.04 61.06 12.62 63.88 8.53 63.88C3.84 63.87 0 60.03 0 55.34C0 51.33 2.82 47.92 6.57 47.06C5.37 42.28 6.57 37.16 10.24 33.49L10.75 32.98L17.06 39.3L16.55 39.81C14.5 41.86 14.5 45.19 16.55 47.23C18.6 49.28 21.93 49.28 23.97 47.23L38.14 33.06L44.46 39.3Z" fill="#5191CD"/>
</g>
<defs>
<clipPath id="clip0_54_662">
<rect width="64" height="64" fill="white"/>
</clipPath>
</defs>
</svg>
