<svg width="64" height="64" viewBox="0 0 64 64" fill="none" xmlns="http://www.w3.org/2000/svg">
<path d="M62.42 45.63C62.2 46.22 54.1 67 27.09 62.08C26.66 62 26.23 61.85 25.83 61.72L25.53 61.63C25.12 61.5 24.71 61.37 24.31 61.23L24.2 61.17L23.1 60.76L22.82 60.65C22.43 60.5 22.04 60.34 21.66 60.17L21.45 60.08L20.45 59.62L20.19 59.5L20.04 59.43L19.41 59.1C19.24 59.02 19.08 58.94 18.92 58.85L18.04 58.36L17.72 58.16C17.33 57.92 16.94 57.69 16.55 57.44L16.23 57.22C15.98 57.06 15.73 56.9 15.48 56.73L15.12 56.48L14.35 55.93L13.98 55.65L13.29 55.11L12.95 54.84L11.96 54C11.65 53.73 11.35 53.46 11.05 53.18L10.78 52.92L10.12 52.27L9.84997 52C9.56997 51.72 9.28997 51.42 9.01997 51.13C9.00997 51.12 8.99997 51.11 8.96997 51.08C8.69997 50.78 8.42997 50.46 8.15997 50.15L7.93997 49.88L7.35997 49.16L7.11997 48.86C6.90997 48.58 6.69997 48.3 6.48997 48.02L6.34997 47.84C6.11997 47.51 5.88997 47.18 5.65997 46.84L5.45997 46.52L4.97997 45.77L4.73997 45.38L4.32997 44.67C4.24997 44.54 4.16997 44.41 4.09997 44.27C4.04997 44.2 4.00997 44.13 3.96997 44.05L3.76997 43.66C3.65997 43.45 3.54997 43.25 3.44997 43.04C-0.880024 34.37 -1.58003 23.78 4.07997 15.64L8.49997 10.03C3.50997 19.67 5.74997 31.43 12.04 39.93L12.73 40.85L12.93 41.12L13.53 41.86L13.73 42.12C14 42.44 14.28 42.76 14.56 43.07C14.57 43.08 14.59 43.1 14.6 43.11C14.85 43.41 15.12 43.69 15.4 43.98L15.66 44.24L16.32 44.9L16.58 45.15L17.51 46C17.54 46.03 17.58 46.05 17.61 46.08L18.49 46.83L18.81 47.11L19.52 47.67L19.87 47.93L20.66 48.5C20.73 48.56 20.84 48.63 20.93 48.69L21.76 49.24C21.87 49.31 21.97 49.38 22.08 49.45C22.47 49.7 22.86 49.94 23.25 50.17L23.55 50.34C23.85 50.51 24.15 50.68 24.45 50.84L24.95 51.1C25.2 51.25 25.45 51.38 25.7 51.5L25.98 51.63L26.95 52.08L27.18 52.18C27.56 52.35 27.94 52.51 28.33 52.66L28.63 52.78C28.98 52.91 29.33 53.04 29.69 53.17L29.86 53.23C30.26 53.36 30.67 53.5 31.07 53.62L31.38 53.71C31.79 53.83 32.2 53.96 32.63 54.06C43.89 56.62 55.74 54.32 62.42 45.63Z" fill="#0D6BAE"/>
<path d="M20.98 28.8C17.79 22.58 17.56 14.67 21.66 8.78003L24.98 4.03003C22.25 8.63003 21.92 14.3 23.48 19.35C24.98 24.22 28.12 28.52 32.12 31.66L32.38 31.86C32.75 32.15 33.13 32.43 33.52 32.7L34.07 33.06C34.16 33.12 34.24 33.18 34.33 33.23C34.61 33.41 34.89 33.58 35.18 33.75L35.35 33.84C35.58 33.97 35.81 34.1 36.05 34.23L36.38 34.38L36.93 34.66C37.29 34.84 37.66 35.01 38.03 35.17L38.27 35.27C38.57 35.39 38.87 35.51 39.17 35.63L39.57 35.77L40.41 36.06C40.53 36.1 40.65 36.14 40.77 36.18C41.17 36.31 41.57 36.42 41.97 36.53C51.07 38.89 59.59 35.87 63.99 29.53C63.99 29.53 59.11 45.83 37.96 42.33C37.57 42.26 37.16 42.1 36.77 41.98L36.4 41.86C36.12 41.76 35.84 41.67 35.57 41.57L35.19 41.43C34.89 41.32 34.59 41.2 34.29 41.07L34.05 40.97C33.68 40.81 33.31 40.64 32.95 40.46C32.92 40.44 32.9 40.43 32.87 40.42L32.34 40.15C32.27 40.1 32.16 40.06 32.07 40.01L31.32 39.61L31.2 39.54C30.91 39.37 30.63 39.2 30.35 39.02C30.26 38.97 30.18 38.91 30.1 38.86C29.93 38.74 29.75 38.63 29.58 38.51L29.55 38.49C29.16 38.22 28.78 37.94 28.4 37.65L28.15 37.46C27.77 37.14 27.4 36.86 27.04 36.54C27.02 36.53 27.01 36.52 27 36.51C26.68 36.23 26.37 35.94 26.06 35.64L25.82 35.4C25.5 35.09 25.2 34.78 24.9 34.45C24.08 33.75 23.4 32.7 22.79 31.82C22.12 30.86 21.52 29.85 20.98 28.8Z" fill="#0D6BAE"/>
<path d="M35.47 15.5499C33.79 11.6299 34.03 7.22991 36.44 3.65991L38.25 1.15991C34.91 7.18991 38.09 14.6199 43.21 18.4999C44.11 19.1799 45.07 19.7699 46.09 20.2599C46.62 20.5099 47.17 20.7399 47.73 20.9399C48.16 21.0999 48.66 21.2599 49.11 21.3699C54.77 22.7499 59.4 21.8199 62.19 17.9299C61.24 19.4799 57.94 27.2199 46.58 25.0199L45.83 24.8199L45.6 24.7499L45.08 24.5499C40.86 22.9799 37.24 19.7199 35.47 15.5499Z" fill="#0D6BAE"/>
</svg>
