<svg width="64" height="64" viewBox="0 0 64 64" fill="none" xmlns="http://www.w3.org/2000/svg">
<g clip-path="url(#clip0_54_671)">
<path d="M63.99 31.05C63.96 30.89 63.89 30.74 63.79 30.61L55.93 20.81C55.81 20.67 55.66 20.56 55.48 20.5C55.3 20.44 55.11 20.43 54.93 20.47L45.85 22.62C45.69 22.66 45.55 22.74 45.43 22.85C45.31 22.95 45.22 23.09 45.17 23.24C45.11 23.39 45.09 23.55 45.12 23.71C45.15 23.87 45.21 24.02 45.3 24.15L51.77 33.29L32.36 38.57L15.66 10.7C15.56 10.54 15.41 10.4 15.24 10.32C15.07 10.23 14.87 10.2 14.68 10.23L0.84999 12.09C0.68999 12.11 0.53999 12.17 0.40999 12.26C0.27999 12.36 0.16999 12.48 0.0999902 12.62C0.0299902 12.76 -0.0100098 12.92 -0.0100098 13.08C-0.0100098 13.24 0.0299902 13.39 0.10999 13.53L16.39 44.15C16.5 44.35 16.66 44.5 16.86 44.59C17.05 44.68 17.28 44.7 17.49 44.65L31.43 40.86L38.89 53.3C38.98 53.45 39.1 53.57 39.25 53.65C39.4 53.74 39.57 53.78 39.74 53.78L39.78 53.76C39.88 53.76 39.99 53.74 40.09 53.7L61.78 46.11C61.92 46.06 62.06 45.98 62.16 45.87C62.26 45.76 62.34 45.63 62.39 45.48C62.43 45.34 62.44 45.18 62.42 45.03C62.4 44.88 62.34 44.73 62.25 44.61L55.03 34.43L63.28 32.18C63.44 32.13 63.58 32.05 63.7 31.94C63.82 31.83 63.91 31.69 63.96 31.53C64.01 31.38 64.02 31.21 63.99 31.05ZM17.76 42.54L2.50999 13.84L14.3 12.28L30.42 39.11L17.76 42.54ZM59.87 44.7L40.18 51.59L33.42 40.32L52.99 35L59.87 44.7ZM53.81 32.74L47.76 24.21L54.79 22.54L61.34 30.69L53.81 32.74Z" fill="#EF5540"/>
</g>
<defs>
<clipPath id="clip0_54_671">
<rect width="64" height="64" fill="white"/>
</clipPath>
</defs>
</svg>
