<svg width="32" height="32" viewBox="0 0 32 32" fill="none" xmlns="http://www.w3.org/2000/svg">
<path d="M15.9711 7.43509C14.8747 7.43509 13.8028 7.76075 12.8911 8.37091C11.9794 8.98107 11.2688 9.84832 10.8491 10.863C10.4294 11.8777 10.3194 12.9943 10.5331 14.0716C10.7468 15.1489 11.2745 16.1385 12.0496 16.9154C12.8247 17.6923 13.8124 18.2215 14.8877 18.4361C15.963 18.6507 17.0777 18.5412 18.0908 18.1212C19.104 17.7013 19.9701 16.9899 20.5797 16.0769C21.1892 15.1639 21.5149 14.0904 21.5155 12.9921C21.5138 11.5193 20.9292 10.1073 19.8899 9.0656C18.8505 8.02392 17.4413 7.43756 15.9711 7.43509Z" stroke="#DC1D47" stroke-miterlimit="10"/>
<path d="M15.9711 1C9.36984 1 4 6.37865 4 12.9915V13.323C4 16.6671 5.91367 20.5643 9.68849 24.9052C11.3922 26.86 13.2474 28.6768 15.2369 30.3388L15.9711 30.9334L16.7047 30.3394C18.694 28.6772 20.5492 26.8604 22.2531 24.9058C26.028 20.5643 27.9416 16.6671 27.9416 13.323V12.9891C27.9416 6.37923 22.5718 1 15.9711 1Z" stroke="#141414" stroke-miterlimit="10"/>
</svg>
