<svg width="164" height="36" viewBox="0 0 164 36" fill="none" xmlns="http://www.w3.org/2000/svg">
<g clip-path="url(#clip0_60_89)">
<path d="M11.5887 0.5C7.24844 4.84685 3.36532 9.6254 2.86613e-06 14.761V3.85416C-0.00057328 3.4142 0.0857184 2.97844 0.253947 2.57175C0.422176 2.16507 0.669048 1.79544 0.980464 1.48397C1.29188 1.17249 1.66174 0.925282 2.06892 0.756452C2.4761 0.587622 2.91262 0.500478 3.35356 0.5H11.5887ZM0 27.1611V17.3533C2.74029 12.9095 5.87267 8.71855 9.35983 4.83052C10.7001 3.33281 12.0927 1.8893 13.5377 0.5H29.3679C17.4905 7.13614 7.74554 16.0114 0 27.1611ZM35 3.85416V11.3937C22.0954 16.5353 10.959 24.4039 1.59091 34.9996C1.10401 34.6986 0.702279 34.2784 0.423849 33.7789C0.145418 33.2794 -0.000481315 32.7174 1.19291e-06 32.1459V29.5749C7.24691 18.5464 16.5653 9.64082 27.9553 2.85812C29.3306 2.04291 30.7534 1.30646 32.1565 0.536457C32.9493 0.659854 33.6717 1.06213 34.1932 1.67059C34.7147 2.27905 35.0009 3.05356 35 3.85416ZM34.9999 12.8361V24.5581C27.1179 27.1192 19.6487 30.8048 12.8244 35.5H3.352C3.22625 35.5 3.1006 35.493 2.97565 35.4789C11.7366 25.5455 22.7023 17.7919 34.9985 12.8361H34.9999ZM15.2185 35.4999C21.3728 31.4828 28.0217 28.2761 35 25.9601V32.1456C35.0003 32.3891 34.9738 32.632 34.9211 32.8698C34.7581 33.6154 34.3442 34.2828 33.7484 34.7611C33.1525 35.2395 32.4105 35.4999 31.6458 35.4991L15.2185 35.4999Z" fill="url(#paint0_linear_60_89)"/>
<path d="M158.724 13.1667C160.112 13.1667 161.186 13.4461 161.948 14.0049C162.71 14.545 163.238 15.2807 163.531 16.212C163.844 17.1247 164 18.1491 164 19.2852V26.7726C164 27.1824 163.853 27.527 163.56 27.8063C163.287 28.0671 162.945 28.1975 162.535 28.1975C162.105 28.1975 161.753 28.0671 161.479 27.8063C161.206 27.527 161.069 27.1824 161.069 26.7726V19.3131C161.069 18.6426 160.971 18.0466 160.776 17.5251C160.581 16.9849 160.239 16.5566 159.75 16.2399C159.281 15.9047 158.617 15.737 157.757 15.737C156.956 15.737 156.253 15.9047 155.647 16.2399C155.041 16.5566 154.562 16.9849 154.211 17.5251C153.878 18.0466 153.712 18.6426 153.712 19.3131V26.7726C153.712 27.1824 153.566 27.527 153.273 27.8063C152.999 28.0671 152.657 28.1975 152.247 28.1975C151.817 28.1975 151.465 28.0671 151.192 27.8063C150.918 27.527 150.781 27.1824 150.781 26.7726V14.9268C150.781 14.5171 150.918 14.1818 151.192 13.9211C151.465 13.6417 151.817 13.502 152.247 13.502C152.657 13.502 152.999 13.6417 153.273 13.9211C153.566 14.1818 153.712 14.5171 153.712 14.9268V16.4914L153.185 16.7707C153.322 16.361 153.556 15.9512 153.888 15.5415C154.24 15.1131 154.66 14.722 155.149 14.3681C155.637 13.9956 156.184 13.7069 156.79 13.502C157.396 13.2785 158.04 13.1667 158.724 13.1667ZM145.21 13.2785C145.64 13.2785 145.991 13.4182 146.265 13.6976C146.539 13.9583 146.675 14.2936 146.675 14.7033V26.7726C146.675 27.1824 146.539 27.527 146.265 27.8063C145.991 28.0671 145.64 28.1975 145.21 28.1975C144.8 28.1975 144.448 28.0671 144.155 27.8063C143.881 27.527 143.744 27.1824 143.744 26.7726V24.7611L144.36 24.8449C144.36 25.1801 144.213 25.5527 143.92 25.9624C143.647 26.3722 143.266 26.7726 142.777 27.1638C142.289 27.5363 141.712 27.8529 141.048 28.1137C140.384 28.3558 139.67 28.4768 138.908 28.4768C137.56 28.4768 136.349 28.1509 135.274 27.499C134.199 26.8285 133.349 25.9159 132.724 24.7611C132.099 23.6063 131.786 22.2932 131.786 20.8218C131.786 19.3131 132.099 17.9907 132.724 16.8546C133.349 15.6998 134.189 14.7965 135.245 14.1446C136.319 13.4927 137.511 13.1667 138.82 13.1667C139.661 13.1667 140.432 13.2971 141.136 13.5579C141.859 13.8186 142.484 14.1539 143.012 14.5636C143.539 14.9734 143.94 15.4111 144.213 15.8767C144.507 16.3237 144.653 16.7521 144.653 17.1619L143.744 17.2457V14.7033C143.744 14.3122 143.881 13.9769 144.155 13.6976C144.448 13.4182 144.8 13.2785 145.21 13.2785ZM139.231 25.9065C140.149 25.9065 140.96 25.683 141.663 25.236C142.367 24.789 142.914 24.1837 143.305 23.42C143.696 22.6378 143.891 21.7717 143.891 20.8218C143.891 19.8533 143.696 18.9872 143.305 18.2236C142.914 17.4599 142.367 16.8546 141.663 16.4076C140.96 15.9605 140.149 15.737 139.231 15.737C138.332 15.737 137.531 15.9605 136.827 16.4076C136.144 16.8546 135.596 17.4599 135.186 18.2236C134.795 18.9872 134.6 19.8533 134.6 20.8218C134.6 21.7717 134.795 22.6378 135.186 23.42C135.596 24.1837 136.144 24.789 136.827 25.236C137.531 25.683 138.332 25.9065 139.231 25.9065ZM123.343 13.2505C124.691 13.2505 125.736 13.5299 126.479 14.0887C127.221 14.6288 127.739 15.3645 128.032 16.2958C128.345 17.2271 128.501 18.2515 128.501 19.369V26.7726C128.501 27.1824 128.355 27.527 128.062 27.8063C127.788 28.0671 127.446 28.1975 127.036 28.1975C126.606 28.1975 126.254 28.0671 125.98 27.8063C125.707 27.527 125.57 27.1824 125.57 26.7726V19.369C125.57 18.7171 125.472 18.1211 125.277 17.581C125.101 17.0408 124.779 16.6124 124.31 16.2958C123.86 15.9792 123.225 15.8208 122.405 15.8208C121.643 15.8208 120.959 15.9792 120.353 16.2958C119.767 16.6124 119.308 17.0408 118.976 17.581C118.663 18.1211 118.507 18.7171 118.507 19.369V26.7726C118.507 27.1824 118.36 27.527 118.067 27.8063C117.793 28.0671 117.451 28.1975 117.041 28.1975C116.611 28.1975 116.259 28.0671 115.986 27.8063C115.712 27.527 115.576 27.1824 115.576 26.7726V8.94803C115.576 8.53827 115.712 8.20302 115.986 7.94226C116.259 7.66288 116.611 7.52319 117.041 7.52319C117.451 7.52319 117.793 7.66288 118.067 7.94226C118.36 8.20302 118.507 8.53827 118.507 8.94803V16.5752L117.979 16.8546C118.116 16.4448 118.34 16.0257 118.653 15.5973C118.985 15.169 119.386 14.7778 119.855 14.4239C120.343 14.0701 120.881 13.7907 121.467 13.5858C122.053 13.3623 122.678 13.2505 123.343 13.2505ZM104.065 13.6696H110.952C111.343 13.6696 111.666 13.8 111.92 14.0607C112.193 14.3029 112.33 14.6102 112.33 14.9827C112.33 15.3366 112.193 15.6346 111.92 15.8767C111.666 16.1189 111.343 16.2399 110.952 16.2399H104.065C103.674 16.2399 103.342 16.1189 103.068 15.8767C102.814 15.616 102.687 15.3087 102.687 14.9548C102.687 14.5823 102.814 14.2749 103.068 14.0328C103.342 13.7907 103.674 13.6696 104.065 13.6696ZM107.142 10.0377C107.572 10.0377 107.924 10.1773 108.197 10.4567C108.471 10.7175 108.608 11.0527 108.608 11.4625V24.4258C108.608 24.7611 108.666 25.0311 108.783 25.236C108.901 25.4409 109.057 25.5806 109.252 25.6551C109.467 25.7296 109.682 25.7669 109.897 25.7669C110.112 25.7669 110.298 25.7296 110.454 25.6551C110.63 25.5806 110.835 25.5433 111.07 25.5433C111.304 25.5433 111.519 25.6458 111.714 25.8507C111.91 26.0555 112.007 26.3349 112.007 26.6888C112.007 27.1358 111.754 27.499 111.245 27.7784C110.737 28.0578 110.19 28.1975 109.604 28.1975C109.272 28.1975 108.881 28.1695 108.432 28.1137C107.982 28.0578 107.543 27.9181 107.113 27.6946C106.702 27.4711 106.361 27.1172 106.087 26.6329C105.813 26.13 105.677 25.4316 105.677 24.5376V11.4625C105.677 11.0527 105.813 10.7175 106.087 10.4567C106.38 10.1773 106.732 10.0377 107.142 10.0377ZM94.9246 13.1667C96.3119 13.1667 97.3866 13.4461 98.1487 14.0049C98.9107 14.545 99.4383 15.2807 99.7314 16.212C100.044 17.1247 100.2 18.1491 100.2 19.2852V26.7726C100.2 27.1824 100.054 27.527 99.7607 27.8063C99.4871 28.0671 99.1452 28.1975 98.7348 28.1975C98.305 28.1975 97.9533 28.0671 97.6797 27.8063C97.4062 27.527 97.2694 27.1824 97.2694 26.7726V19.3131C97.2694 18.6426 97.1717 18.0466 96.9763 17.5251C96.7809 16.9849 96.4389 16.5566 95.9504 16.2399C95.4815 15.9047 94.8171 15.737 93.9574 15.737C93.1563 15.737 92.4528 15.9047 91.8471 16.2399C91.2414 16.5566 90.7627 16.9849 90.411 17.5251C90.0788 18.0466 89.9127 18.6426 89.9127 19.3131V26.7726C89.9127 27.1824 89.7661 27.527 89.473 27.8063C89.1995 28.0671 88.8575 28.1975 88.4472 28.1975C88.0173 28.1975 87.6656 28.0671 87.3921 27.8063C87.1185 27.527 86.9817 27.1824 86.9817 26.7726V14.9268C86.9817 14.5171 87.1185 14.1818 87.3921 13.9211C87.6656 13.6417 88.0173 13.502 88.4472 13.502C88.8575 13.502 89.1995 13.6417 89.473 13.9211C89.7661 14.1818 89.9127 14.5171 89.9127 14.9268V16.4914L89.3851 16.7707C89.5219 16.361 89.7564 15.9512 90.0885 15.5415C90.4403 15.1131 90.8604 14.722 91.3488 14.3681C91.8373 13.9956 92.3845 13.7069 92.9902 13.502C93.5959 13.2785 94.2407 13.1667 94.9246 13.1667ZM81.4102 13.2785C81.84 13.2785 82.1918 13.4182 82.4653 13.6976C82.7389 13.9583 82.8756 14.2936 82.8756 14.7033V26.7726C82.8756 27.1824 82.7389 27.527 82.4653 27.8063C82.1918 28.0671 81.84 28.1975 81.4102 28.1975C80.9998 28.1975 80.6481 28.0671 80.355 27.8063C80.0815 27.527 79.9447 27.1824 79.9447 26.7726V24.7611L80.5602 24.8449C80.5602 25.1801 80.4136 25.5527 80.1206 25.9624C79.847 26.3722 79.466 26.7726 78.9775 27.1638C78.489 27.5363 77.9126 27.8529 77.2482 28.1137C76.5839 28.3558 75.8707 28.4768 75.1086 28.4768C73.7604 28.4768 72.5489 28.1509 71.4743 27.499C70.3996 26.8285 69.5496 25.9159 68.9243 24.7611C68.2991 23.6063 67.9864 22.2932 67.9864 20.8218C67.9864 19.3131 68.2991 17.9907 68.9243 16.8546C69.5496 15.6998 70.3898 14.7965 71.4449 14.1446C72.5196 13.4927 73.7115 13.1667 75.0207 13.1667C75.8609 13.1667 76.6327 13.2971 77.3362 13.5579C78.0591 13.8186 78.6844 14.1539 79.212 14.5636C79.7395 14.9734 80.1401 15.4111 80.4136 15.8767C80.7067 16.3237 80.8533 16.7521 80.8533 17.1619L79.9447 17.2457V14.7033C79.9447 14.3122 80.0815 13.9769 80.355 13.6976C80.6481 13.4182 80.9998 13.2785 81.4102 13.2785ZM75.431 25.9065C76.3494 25.9065 77.1603 25.683 77.8637 25.236C78.5671 24.789 79.1143 24.1837 79.5051 23.42C79.8958 22.6378 80.0912 21.7717 80.0912 20.8218C80.0912 19.8533 79.8958 18.9872 79.5051 18.2236C79.1143 17.4599 78.5671 16.8546 77.8637 16.4076C77.1603 15.9605 76.3494 15.737 75.431 15.737C74.5322 15.737 73.7311 15.9605 73.0277 16.4076C72.3438 16.8546 71.7967 17.4599 71.3863 18.2236C70.9955 18.9872 70.8001 19.8533 70.8001 20.8218C70.8001 21.7717 70.9955 22.6378 71.3863 23.42C71.7967 24.1837 72.3438 24.789 73.0277 25.236C73.7311 25.683 74.5322 25.9065 75.431 25.9065ZM46.5241 8.61278C46.7586 8.61278 47.0028 8.66865 47.2568 8.78041C47.5108 8.89216 47.7062 9.05048 47.843 9.25535L55.2876 20.0675L54.0273 20.0116L61.6185 9.25535C61.9311 8.82697 62.3317 8.61278 62.8202 8.61278C63.211 8.61278 63.5529 8.75247 63.846 9.03185C64.1586 9.2926 64.315 9.62786 64.315 10.0377V26.7726C64.315 27.1824 64.1782 27.527 63.9046 27.8063C63.6311 28.0671 63.2696 28.1975 62.8202 28.1975C62.3512 28.1975 61.9702 28.0671 61.6771 27.8063C61.4036 27.527 61.2668 27.1824 61.2668 26.7726V12.608L62.2047 12.8035L55.7566 22.1628C55.6198 22.3305 55.444 22.4795 55.229 22.6098C55.0141 22.7216 54.7894 22.7682 54.5549 22.7495C54.34 22.7682 54.1153 22.7216 53.8808 22.6098C53.6658 22.4795 53.49 22.3305 53.3532 22.1628L47.1396 12.9432L47.843 11.8257V26.7726C47.843 27.1824 47.7062 27.527 47.4327 27.8063C47.1787 28.0671 46.8367 28.1975 46.4069 28.1975C45.9965 28.1975 45.6546 28.0671 45.381 27.8063C45.127 27.527 45 27.1824 45 26.7726V10.0377C45 9.64649 45.1465 9.31123 45.4396 9.03185C45.7523 8.75247 46.1138 8.61278 46.5241 8.61278Z" fill="#141414"/>
</g>
<defs>
<linearGradient id="paint0_linear_60_89" x1="17.5008" y1="35.5005" x2="17.5008" y2="0.5" gradientUnits="userSpaceOnUse">
<stop stop-color="#DC1D47"/>
<stop offset="1" stop-color="#E54327"/>
</linearGradient>
<clipPath id="clip0_60_89">
<rect width="164" height="36" fill="white"/>
</clipPath>
</defs>
</svg>
