<svg width="192" height="44" viewBox="0 0 192 44" fill="none" xmlns="http://www.w3.org/2000/svg">
<g clip-path="url(#clip0_1790_6)">
<path d="M66.808 32.5567H64V31.5879H70.8371V32.5567H68.0148V40.413H66.808V32.5567Z" fill="black" stroke="black" stroke-width="0.5" stroke-miterlimit="10"/>
<path d="M80.0706 36.2745H76.4816V39.4578H80.4823V40.413H75.2891V31.5879H80.275V32.5431H76.4788V35.3329H80.0677L80.0706 36.2745Z" fill="black" stroke="black" stroke-width="0.5" stroke-miterlimit="10"/>
<path d="M91.9086 40.1227C91.4713 40.3316 90.594 40.5406 89.4696 40.5406C86.8658 40.5406 84.9067 38.9693 84.9067 36.0765C84.9067 33.1836 86.8658 31.4414 89.728 31.4414C90.8779 31.4414 91.6048 31.6775 91.9199 31.8349L91.6331 32.7657C91.1817 32.5568 90.5371 32.3994 89.7705 32.3994C87.607 32.3994 86.1674 33.721 86.1674 36.0385C86.1674 38.1986 87.4678 39.5881 89.7165 39.5881C90.4435 39.5881 91.1817 39.4442 91.6615 39.2217L91.9086 40.1227Z" fill="black" stroke="black" stroke-width="0.5" stroke-miterlimit="10"/>
<path d="M98.0186 31.585V35.2785H102.485V31.585H103.692V40.4102H102.485V36.2717H98.0186V40.4102H96.8262V31.585H98.0186Z" fill="black" stroke="black" stroke-width="0.5" stroke-miterlimit="10"/>
<path d="M109.183 40.4129V31.5878H110.484L113.442 36.0519C114.126 37.0858 114.66 38.0166 115.1 38.9203L115.128 38.9067C115.018 37.729 114.992 36.6543 114.992 35.2785V31.585H116.116V40.4102H114.91L111.98 35.9325C111.335 34.9501 110.719 33.9433 110.253 32.9853L110.213 32.9989C110.282 34.1115 110.31 35.1726 110.31 36.638V40.4102H109.186L109.183 40.4129Z" fill="black" stroke="black" stroke-width="0.5" stroke-miterlimit="10"/>
<path d="M129.516 35.9085C129.516 38.9451 127.585 40.5571 125.229 40.5571C122.872 40.5571 121.077 38.7497 121.077 36.0794C121.077 33.2788 122.9 31.4443 125.365 31.4443C127.83 31.4443 129.516 33.2897 129.516 35.9085ZM122.35 36.0523C122.35 37.9383 123.417 39.6263 125.294 39.6263C127.171 39.6263 128.252 37.9628 128.252 35.96C128.252 34.2042 127.293 32.3724 125.308 32.3724C123.324 32.3724 122.35 34.1147 122.35 36.0523Z" fill="black" stroke="black" stroke-width="0.5" stroke-miterlimit="10"/>
<path d="M134.487 31.585H135.68V39.4549H139.626V40.4102H134.49L134.487 31.585Z" fill="black" stroke="black" stroke-width="0.5" stroke-miterlimit="10"/>
<path d="M151.736 35.9084C151.736 38.9451 149.806 40.5571 147.449 40.5571C145.093 40.5571 143.298 38.7497 143.298 36.0794C143.298 33.2788 145.121 31.4443 147.585 31.4443C150.049 31.4443 151.736 33.2897 151.736 35.9084ZM144.569 36.0523C144.569 37.9383 145.637 39.6263 147.514 39.6263C149.391 39.6263 150.473 37.9627 150.473 35.96C150.473 34.2042 149.514 32.3724 147.529 32.3724C145.543 32.3724 144.569 34.1146 144.569 36.0523Z" fill="black" stroke="black" stroke-width="0.5" stroke-miterlimit="10"/>
<path d="M163.735 40.0201C163.202 40.2047 162.145 40.5059 160.899 40.5059C159.502 40.5059 158.352 40.164 157.446 39.3417C156.651 38.609 156.157 37.4312 156.157 36.0554C156.171 33.423 158.062 31.499 161.157 31.499C162.224 31.499 163.063 31.7215 163.46 31.906L163.173 32.8369C162.679 32.6279 162.062 32.4569 161.131 32.4569C158.886 32.4569 157.418 33.7921 157.418 36.0065C157.418 38.2209 158.829 39.5669 160.981 39.5669C161.762 39.5669 162.296 39.4611 162.571 39.3308V36.6985H160.694V35.7813H163.735V40.0201Z" fill="black" stroke="black" stroke-width="0.5" stroke-miterlimit="10"/>
<path d="M170.175 31.585V40.4102H168.982V31.585H170.175Z" fill="black" stroke="black" stroke-width="0.5" stroke-miterlimit="10"/>
<path d="M180.463 36.2746H176.876V39.4578H180.877V40.413H175.684V31.5879H180.67V32.5432H176.873V35.3329H180.463V36.2746Z" fill="black" stroke="black" stroke-width="0.5" stroke-miterlimit="10"/>
<path d="M185.683 39.0234C186.217 39.3382 186.998 39.5987 187.822 39.5987C189.039 39.5987 189.752 38.9827 189.752 38.0926C189.752 37.2676 189.258 36.7954 188.012 36.3368C186.504 35.8266 185.573 35.0803 185.573 33.8347C185.573 32.4588 186.764 31.4385 188.559 31.4385C189.505 31.4385 190.189 31.6474 190.601 31.87L190.271 32.8008C189.97 32.6434 189.355 32.3829 188.517 32.3829C187.256 32.3829 186.776 33.102 186.776 33.7045C186.776 34.5294 187.338 34.9365 188.613 35.406C190.175 35.9813 190.97 36.7031 190.97 37.9976C190.97 39.3599 189.917 40.5377 187.736 40.5377C186.844 40.5377 185.873 40.288 185.379 39.9759L185.68 39.0207L185.683 39.0234Z" fill="black" stroke="black" stroke-width="0.5" stroke-miterlimit="10"/>
<path d="M54 1H52V41H54V1Z" fill="black"/>
<path d="M25.6215 27.7616L22.0026 30.7187L18.378 27.7918V8.92698L13.1393 14.1642L9.27891 10.3041L17.889 1.69359C20.1498 -0.564529 23.8473 -0.564529 26.1057 1.69359L34.5203 10.1094L30.6623 13.9695L25.6215 8.92698V27.7616ZM42.3062 26.1061L26.1081 42.3047C23.8519 44.5651 20.1521 44.5651 17.896 42.3047L1.69559 26.1037C-0.565198 23.8456 -0.565198 20.1479 1.69559 17.8898L5.1089 14.4748L8.96692 18.3349L6.07515 21.2283L18.378 33.5319L22.0008 36.7011L25.6212 33.5342L37.9243 21.2283L34.7228 18.0242L38.5809 14.1664L42.3062 17.8921C44.5646 20.1502 44.5646 23.8456 42.3062 26.1061Z" fill="url(#paint0_linear_1790_6)"/>
<path d="M75.357 8.15178C75.4516 8.02272 75.5307 7.89367 75.6295 7.77866C76.2127 7.09888 76.9964 6.7002 77.9171 6.53537C78.345 6.4587 78.7898 6.43186 79.2275 6.42675C80.1793 6.41397 81.1324 6.40247 82.0842 6.43825C82.9569 6.47148 83.8069 6.64015 84.5864 7.02221C85.7952 7.61511 86.4405 8.55046 86.6001 9.76692C86.6438 10.0979 86.6481 10.4327 86.6481 10.7662C86.6509 14.5203 86.6481 18.2745 86.6481 22.03C86.6481 22.0824 86.6481 22.1347 86.6481 22.1999H82.9244C82.9201 22.122 82.9103 22.044 82.9103 21.9661C82.9103 18.562 82.9103 15.1567 82.9103 11.7526C82.9103 11.391 82.899 11.0319 82.7606 10.6857C82.5657 10.1975 82.1957 9.88065 81.6436 9.72986C81.3428 9.64809 81.0421 9.60081 80.7258 9.60847C80.2908 9.6187 79.8559 9.62125 79.421 9.60847C79.0425 9.59697 78.6867 9.67492 78.3393 9.7912C77.7208 9.9982 77.4102 10.4314 77.2972 10.9936C77.2591 11.1802 77.2421 11.3731 77.2421 11.5622C77.2407 15.057 77.2421 18.5518 77.2435 22.0466C77.2435 22.1373 77.2478 22.214 77.1037 22.214C75.9162 22.2114 74.73 22.2127 73.5198 22.2127C73.5156 22.1411 73.5071 22.0747 73.5071 22.0082C73.5057 18.6783 73.5071 15.3484 73.4987 12.0171C73.4987 11.6427 73.4831 11.2619 73.4012 10.8965C73.2614 10.264 72.8166 9.85637 72.1134 9.70942C71.8479 9.65448 71.5711 9.62509 71.2986 9.61486C70.8637 9.59953 70.4288 9.61997 69.9938 9.60847C69.6154 9.59825 69.2581 9.6762 68.9093 9.78864C68.2358 10.0059 67.8997 10.4748 67.8079 11.0907C67.7641 11.3833 67.7514 11.6823 67.7514 11.9788C67.7472 15.2563 67.7486 18.5339 67.7472 21.8102C67.7472 21.9405 67.7472 22.0709 67.7472 22.2114C67.6568 22.2114 67.5933 22.2114 67.5297 22.2114C66.4368 22.2114 65.3438 22.2114 64.2494 22.2114C64.0207 22.2114 64.0178 22.2114 64.0178 22.0031C64.0122 19.3619 64.0065 16.722 64.0023 14.0808C64.0009 12.9295 63.9967 11.7795 64.0051 10.6282C64.0094 10.0608 64.0574 9.49475 64.2607 8.95041C64.6914 7.79272 65.6036 7.08993 66.8604 6.71681C67.6145 6.4932 68.3953 6.41525 69.1861 6.41781C70.1562 6.42164 71.1277 6.38586 72.095 6.43697C73.2431 6.49703 74.2824 6.82926 75.0237 7.6905C75.1437 7.83105 75.2412 7.98822 75.3556 8.14795L75.357 8.15178Z" fill="#141414"/>
<path d="M156.221 6.42045C156.341 6.42045 156.444 6.42045 156.548 6.42045C160.009 6.42045 163.472 6.42045 166.933 6.42045C167.917 6.42045 168.879 6.54056 169.781 6.91496C171.035 7.4363 171.759 8.32948 171.984 9.55106C172.047 9.89479 172.077 10.2475 172.078 10.595C172.087 13.0075 172.083 15.42 172.081 17.8325C172.081 18.4075 172.028 18.9761 171.83 19.5268C171.398 20.7344 170.469 21.4883 169.162 21.8946C168.468 22.1106 167.743 22.2 167.015 22.2064C165.041 22.223 163.065 22.2243 161.091 22.2064C160.045 22.1974 159.021 22.0428 158.089 21.5713C156.965 21.0027 156.312 20.1312 156.088 18.9966C156.033 18.7154 155.999 18.4279 155.996 18.143C155.989 17.3316 155.971 16.5189 156.016 15.7101C156.102 14.1856 156.904 13.0803 158.487 12.4836C159.067 12.2651 159.68 12.1386 160.314 12.1245C161.266 12.1041 162.216 12.0734 163.168 12.0683C164.82 12.0581 166.471 12.0645 168.123 12.0632C168.181 12.0632 168.239 12.0632 168.322 12.0632C168.302 11.3068 168.384 10.5388 167.656 9.98423C167.338 9.74273 166.957 9.60984 166.54 9.60856C163.167 9.60217 159.793 9.60217 156.42 9.60217C156.273 9.60217 156.216 9.57662 156.216 9.42839C156.223 8.43682 156.221 7.44525 156.221 6.41406V6.42045ZM168.329 15.2143C168.226 15.2143 168.157 15.2143 168.086 15.2143C166.224 15.2143 164.361 15.2181 162.5 15.2117C161.989 15.2104 161.481 15.2117 160.982 15.3408C160.376 15.4967 159.919 15.7982 159.788 16.3847C159.676 16.8882 159.689 17.398 159.799 17.9015C159.878 18.2631 160.08 18.5634 160.446 18.7538C160.782 18.9288 161.147 19.0298 161.534 19.0311C163.12 19.0374 164.706 19.0362 166.293 19.0349C167.375 19.0336 168.033 18.534 168.221 17.6894C168.403 16.8754 168.286 16.0538 168.329 15.2155V15.2143Z" fill="#141414"/>
<path d="M101.594 12.0668C101.584 11.5595 101.607 11.074 101.416 10.6037C101.176 10.0121 100.524 9.616 99.7977 9.61345C96.4242 9.60322 93.0507 9.60578 89.6772 9.60322C89.6207 9.60322 89.5628 9.59556 89.4993 9.59172V6.433C89.601 6.42789 89.6984 6.41895 89.7958 6.41895C93.2809 6.41895 96.7659 6.41895 100.251 6.41895C101.217 6.41895 102.16 6.54417 103.046 6.9109C104.301 7.43096 105.027 8.32415 105.253 9.54444C105.318 9.89328 105.347 10.2511 105.349 10.605C105.357 13.0124 105.353 15.4198 105.351 17.8271C105.351 18.4022 105.298 18.9708 105.102 19.5215C104.671 20.729 103.743 21.4842 102.437 21.8931C101.742 22.1103 101.018 22.1998 100.291 22.2062C98.3164 22.2228 96.3409 22.2266 94.3668 22.2062C93.3204 22.1959 92.2967 22.0464 91.3633 21.5749C90.2336 21.0038 89.577 20.1285 89.3567 18.9874C89.2988 18.6909 89.2677 18.3868 89.2649 18.0865C89.2578 17.2969 89.2409 16.5059 89.2861 15.7175C89.3722 14.2007 90.1616 13.0954 91.7375 12.4949C92.3291 12.27 92.9519 12.1422 93.5986 12.1269C94.4445 12.1064 95.2889 12.0758 96.1347 12.0707C97.8857 12.0617 99.6381 12.0668 101.389 12.0655C101.447 12.0655 101.506 12.0655 101.594 12.0655V12.0668ZM101.6 15.2128C101.495 15.2128 101.424 15.2128 101.355 15.2128C99.4927 15.2128 97.6301 15.2153 95.769 15.2102C95.2578 15.2089 94.7481 15.2102 94.251 15.3393C93.6466 15.4964 93.1877 15.7967 93.0578 16.3845C92.9476 16.888 92.9589 17.3978 93.0705 17.9013C93.1482 18.2565 93.3458 18.5542 93.7031 18.7433C94.0434 18.9248 94.4134 19.027 94.8074 19.0283C96.3988 19.0347 97.9916 19.0372 99.5831 19.0308C100.642 19.027 101.295 18.5414 101.488 17.6994C101.676 16.8816 101.556 16.0536 101.6 15.2115V15.2128Z" fill="#141414"/>
<path d="M140.953 9.61322V22.2008H137.191C137.191 22.0922 137.191 21.9836 137.191 21.8737C137.191 15.2879 137.191 8.70087 137.19 2.11509C137.19 1.78159 137.184 1.4468 137.18 1.1133C137.18 1.02896 137.177 0.962517 137.315 0.962517C138.497 0.965072 139.678 0.962517 140.86 0.959961C140.882 0.959961 140.905 0.963794 140.949 0.967628V6.43022C141.032 6.43022 141.095 6.43022 141.158 6.43022C143.591 6.43022 146.025 6.41617 148.457 6.44044C149.312 6.44939 150.144 6.63595 150.909 7.00651C152.211 7.63647 152.889 8.64209 153.046 9.94545C153.093 10.3339 153.091 10.7287 153.093 11.121C153.094 14.764 153.093 18.407 153.091 22.05C153.091 22.0973 153.091 22.1446 153.091 22.2149H152.912C151.801 22.2149 150.691 22.2123 149.579 22.2174C149.424 22.2174 149.379 22.1791 149.379 22.0398C149.38 18.5668 149.379 15.0924 149.376 11.6194C149.376 11.2616 149.335 10.9115 149.174 10.578C148.971 10.1576 148.619 9.88795 148.145 9.74483C147.844 9.65411 147.536 9.60811 147.211 9.60939C145.2 9.61705 143.191 9.61322 141.18 9.61322H140.953Z" fill="#141414"/>
<path d="M120.49 22.1869C120.49 21.9148 120.49 21.64 120.49 21.3653C120.49 18.0992 120.492 14.8332 120.483 11.5659C120.483 11.3039 120.437 11.0356 120.361 10.7838C120.194 10.2318 119.769 9.89833 119.167 9.73988C118.833 9.65172 118.495 9.60827 118.144 9.61083C116.733 9.61977 115.321 9.57505 113.913 9.62616C112.775 9.66833 112.177 10.1705 112.029 11.1161C111.998 11.309 111.99 11.5071 111.99 11.7026C111.988 15.1603 111.99 18.6168 111.99 22.0745C111.99 22.1115 111.987 22.1473 111.984 22.1997H108.224C108.224 22.1422 108.224 22.086 108.224 22.0285C108.224 18.1465 108.214 14.2659 108.231 10.3839C108.235 9.4856 108.458 8.62564 109.102 7.89985C109.706 7.21623 110.518 6.83289 111.44 6.62589C112.069 6.48405 112.71 6.42144 113.359 6.42272C115.452 6.42783 117.545 6.40099 119.636 6.44316C120.783 6.46616 121.88 6.73194 122.801 7.40534C123.589 7.98163 124.018 8.74192 124.158 9.63383C124.22 10.0312 124.237 10.4363 124.238 10.8388C124.244 14.3221 124.241 17.8066 124.241 21.2899C124.241 21.5544 124.237 21.8202 124.237 22.0847C124.237 22.1652 124.22 22.215 124.112 22.215C122.919 22.2125 121.726 22.2112 120.533 22.2099C120.529 22.2099 120.523 22.2048 120.49 22.1882V22.1869Z" fill="#141414"/>
<path d="M178.709 22.2069H174.95V22.0319C174.95 18.1448 174.939 14.2577 174.959 10.3719C174.965 9.38292 175.233 8.44757 176.022 7.6975C176.751 7.00621 177.677 6.68421 178.697 6.52448C179.321 6.42737 179.946 6.4197 180.576 6.4197C182.504 6.42226 184.433 6.39798 186.359 6.44015C187.512 6.46571 188.614 6.72893 189.539 7.41C190.324 7.98884 190.752 8.74913 190.887 9.64232C190.948 10.0448 190.966 10.4563 190.966 10.8626C190.972 14.4149 190.969 17.9685 190.968 21.5207C190.968 21.7111 190.972 21.9028 190.958 22.0932C190.955 22.1341 190.885 22.2056 190.845 22.2056C189.646 22.212 188.449 22.2108 187.224 22.2108C187.224 22.1469 187.224 22.0906 187.224 22.0344C187.222 18.5665 187.224 15.0985 187.21 11.6306C187.21 11.3124 187.15 10.984 187.048 10.6799C186.878 10.1752 186.452 9.88254 185.901 9.7356C185.568 9.64743 185.231 9.6027 184.879 9.60526C183.504 9.6142 182.128 9.58354 180.753 9.61548C179.31 9.6487 178.767 10.3553 178.732 11.3737C178.695 12.465 178.718 13.5575 178.718 14.65C178.718 17.1162 178.718 19.581 178.718 22.0472C178.718 22.0932 178.714 22.1405 178.709 22.2031V22.2069Z" fill="#141414"/>
<path d="M127.391 22.2044C127.391 21.8556 127.391 21.517 127.391 21.1784C127.391 14.889 127.391 8.5997 127.39 2.31164C127.39 1.91425 127.386 1.51685 127.378 1.11818C127.377 1.01596 127.4 0.964844 127.534 0.964844C128.662 0.968677 129.79 0.964844 130.919 0.967399C131.146 0.967399 131.147 0.972511 131.146 1.17951C131.143 2.61065 131.14 4.04306 131.137 5.4742C131.137 5.73359 131.15 5.99426 131.14 6.25366C131.136 6.3776 131.166 6.41849 131.311 6.41722C132.198 6.41338 133.086 6.41722 133.973 6.41977C134.423 6.41977 134.875 6.41977 135.333 6.41977C135.341 6.46577 135.35 6.49005 135.35 6.51561C135.35 7.48035 135.35 8.44636 135.354 9.4111C135.354 9.56188 135.309 9.60788 135.134 9.6066C133.864 9.60021 132.595 9.6066 131.325 9.60277C131.176 9.60277 131.14 9.6411 131.14 9.77144C131.143 11.3355 131.137 12.8995 131.137 14.4648C131.137 16.9948 131.137 19.5236 131.14 22.0537C131.14 22.1648 131.112 22.2159 130.974 22.2159C129.816 22.2121 128.658 22.2134 127.5 22.2134C127.477 22.2134 127.455 22.2095 127.391 22.2044Z" fill="#141414"/>
</g>
<defs>
<linearGradient id="paint0_linear_1790_6" x1="22.001" y1="44.0007" x2="22.001" y2="0" gradientUnits="userSpaceOnUse">
<stop stop-color="#DC1D47"/>
<stop offset="1" stop-color="#E54327"/>
</linearGradient>
<clipPath id="clip0_1790_6">
<rect width="192" height="44" fill="white"/>
</clipPath>
</defs>
</svg>
