<svg width="192" height="44" viewBox="0 0 192 44" fill="none" xmlns="http://www.w3.org/2000/svg">
<g clip-path="url(#clip0_1790_6)">
<path d="M66.808 32.5567H64V31.5879H70.8371V32.5567H68.0148V40.413H66.808V32.5567Z" fill="black" stroke="black" stroke-width="0.5" stroke-miterlimit="10"/>
<path d="M80.0706 36.2745H76.4816V39.4578H80.4823V40.413H75.2891V31.5879H80.275V32.5431H76.4788V35.3329H80.0677L80.0706 36.2745Z" fill="black" stroke="black" stroke-width="0.5" stroke-miterlimit="10"/>
<path d="M91.9086 40.1227C91.4713 40.3316 90.594 40.5406 89.4696 40.5406C86.8658 40.5406 84.9067 38.9693 84.9067 36.0765C84.9067 33.1836 86.8658 31.4414 89.728 31.4414C90.8779 31.4414 91.6048 31.6775 91.9199 31.8349L91.6331 32.7657C91.1817 32.5568 90.5371 32.3994 89.7705 32.3994C87.607 32.3994 86.1674 33.721 86.1674 36.0385C86.1674 38.1986 87.4678 39.5881 89.7165 39.5881C90.4435 39.5881 91.1817 39.4442 91.6615 39.2217L91.9086 40.1227Z" fill="black" stroke="black" stroke-width="0.5" stroke-miterlimit="10"/>
<path d="M98.0186 31.585V35.2785H102.485V31.585H103.692V40.4102H102.485V36.2717H98.0186V40.4102H96.8262V31.585H98.0186Z" fill="black" stroke="black" stroke-width="0.5" stroke-miterlimit="10"/>
<path d="M109.183 40.4129V31.5878H110.484L113.442 36.0519C114.126 37.0858 114.66 38.0166 115.1 38.9203L115.128 38.9067C115.018 37.729 114.992 36.6543 114.992 35.2785V31.585H116.116V40.4102H114.91L111.98 35.9325C111.335 34.9501 110.719 33.9433 110.253 32.9853L110.213 32.9989C110.282 34.1115 110.31 35.1726 110.31 36.638V40.4102H109.186L109.183 40.4129Z" fill="black" stroke="black" stroke-width="0.5" stroke-miterlimit="10"/>
<path d="M129.516 35.9085C129.516 38.9451 127.585 40.5571 125.229 40.5571C122.872 40.5571 121.077 38.7497 121.077 36.0794C121.077 33.2788 122.9 31.4443 125.365 31.4443C127.83 31.4443 129.516 33.2897 129.516 35.9085ZM122.35 36.0523C122.35 37.9383 123.417 39.6263 125.294 39.6263C127.171 39.6263 128.252 37.9628 128.252 35.96C128.252 34.2042 127.293 32.3724 125.308 32.3724C123.324 32.3724 122.35 34.1147 122.35 36.0523Z" fill="black" stroke="black" stroke-width="0.5" stroke-miterlimit="10"/>
<path d="M134.487 31.585H135.68V39.4549H139.626V40.4102H134.49L134.487 31.585Z" fill="black" stroke="black" stroke-width="0.5" stroke-miterlimit="10"/>
<path d="M151.736 35.9084C151.736 38.9451 149.806 40.5571 147.449 40.5571C145.093 40.5571 143.298 38.7497 143.298 36.0794C143.298 33.2788 145.121 31.4443 147.585 31.4443C150.049 31.4443 151.736 33.2897 151.736 35.9084ZM144.569 36.0523C144.569 37.9383 145.637 39.6263 147.514 39.6263C149.391 39.6263 150.473 37.9627 150.473 35.96C150.473 34.2042 149.514 32.3724 147.529 32.3724C145.543 32.3724 144.569 34.1146 144.569 36.0523Z" fill="black" stroke="black" stroke-width="0.5" stroke-miterlimit="10"/>
<path d="M163.735 40.0201C163.202 40.2047 162.145 40.5059 160.899 40.5059C159.502 40.5059 158.352 40.164 157.446 39.3417C156.651 38.609 156.157 37.4312 156.157 36.0554C156.171 33.423 158.062 31.499 161.157 31.499C162.224 31.499 163.063 31.7215 163.46 31.906L163.173 32.8369C162.679 32.6279 162.062 32.4569 161.131 32.4569C158.886 32.4569 157.418 33.7921 157.418 36.0065C157.418 38.2209 158.829 39.5669 160.981 39.5669C161.762 39.5669 162.296 39.4611 162.571 39.3308V36.6985H160.694V35.7813H163.735V40.0201Z" fill="black" stroke="black" stroke-width="0.5" stroke-miterlimit="10"/>
<path d="M170.175 31.585V40.4102H168.982V31.585H170.175Z" fill="black" stroke="black" stroke-width="0.5" stroke-miterlimit="10"/>
<path d="M180.463 36.2746H176.876V39.4578H180.877V40.413H175.684V31.5879H180.67V32.5432H176.873V35.3329H180.463V36.2746Z" fill="black" stroke="black" stroke-width="0.5" stroke-miterlimit="10"/>
<path d="M185.683 39.0234C186.217 39.3382 186.998 39.5987 187.822 39.5987C189.039 39.5987 189.752 38.9827 189.752 38.0926C189.752 37.2676 189.258 36.7954 188.012 36.3368C186.504 35.8266 185.573 35.0803 185.573 33.8347C185.573 32.4588 186.764 31.4385 188.559 31.4385C189.505 31.4385 190.189 31.6474 190.601 31.87L190.271 32.8008C189.97 32.6434 189.355 32.3829 188.517 32.3829C187.256 32.3829 186.776 33.102 186.776 33.7045C186.776 34.5294 187.338 34.9365 188.613 35.406C190.175 35.9813 190.97 36.7031 190.97 37.9976C190.97 39.3599 189.917 40.5377 187.736 40.5377C186.844 40.5377 185.873 40.288 185.379 39.9759L185.68 39.0207L185.683 39.0234Z" fill="black" stroke="black" stroke-width="0.5" stroke-miterlimit="10"/>
<path d="M54 1H52V41H54V1Z" fill="black"/>
<path d="M25.6215 27.7616L22.0026 30.7187L18.378 27.7918V8.92698L13.1393 14.1642L9.27891 10.3041L17.889 1.69359C20.1498 -0.564529 23.8473 -0.564529 26.1057 1.69359L34.5203 10.1094L30.6623 13.9695L25.6215 8.92698V27.7616ZM42.3062 26.1061L26.1081 42.3047C23.8519 44.5651 20.1521 44.5651 17.896 42.3047L1.69559 26.1037C-0.565198 23.8456 -0.565198 20.1479 1.69559 17.8898L5.1089 14.4748L8.96692 18.3349L6.07515 21.2283L18.378 33.5319L22.0008 36.7011L25.6212 33.5342L37.9243 21.2283L34.7228 18.0242L38.5809 14.1664L42.3062 17.8921C44.5646 20.1502 44.5646 23.8456 42.3062 26.1061Z" fill="url(#paint0_linear_1790_6)"/>
<path d="M64 21.8986V6.44998C64.0516 6.44565 64.1006 6.43701 64.1509 6.43701C64.8358 6.43701 65.5194 6.43989 66.2044 6.43413C66.3675 6.43413 66.4585 6.48454 66.5129 6.66168C66.6325 7.05916 66.7779 7.44657 66.9125 7.83973C66.9342 7.90166 66.9546 7.96359 66.9818 8.02119C67.0633 8.18825 67.134 8.19545 67.2318 8.03703C67.6749 7.31839 68.2905 6.8201 69.0258 6.48022C69.5939 6.21811 70.2014 6.13602 70.8102 6.1101C71.4762 6.08273 72.1462 6.08561 72.8121 6.10722C74.0421 6.14898 75.1456 6.53494 76.0059 7.51714C76.1323 7.66115 76.2397 7.82389 76.347 7.98375C76.4816 8.18537 76.559 8.19113 76.6854 7.99095C77.2426 7.11245 78.0295 6.56519 78.9795 6.293C79.39 6.1749 79.8262 6.12306 80.253 6.11154C81.2138 6.08561 82.1774 6.07841 83.1382 6.10866C84.6169 6.15618 85.8564 6.71785 86.6895 8.07736C87.0754 8.70815 87.2616 9.40951 87.3105 10.1526C87.3323 10.4911 87.3309 10.8324 87.3309 11.1723C87.3309 14.6402 87.3282 18.1081 87.3282 21.5774C87.3282 21.9332 87.354 21.8971 87.0156 21.8957C86.0765 21.8914 85.1374 21.8827 84.1983 21.8885C84.0298 21.8885 83.9904 21.8367 83.9904 21.6696C83.9944 18.7202 83.9931 15.7721 83.9917 12.8227C83.9917 12.2265 84.0026 11.6288 83.9809 11.0326C83.9632 10.5386 83.8449 10.0705 83.4535 9.74363C83.1926 9.52616 82.899 9.39367 82.5511 9.39511C81.3008 9.40231 80.0505 9.39943 78.8001 9.39799C77.9806 9.39799 77.4683 9.97261 77.3704 10.6668C77.3364 10.9073 77.316 11.1535 77.316 11.3969C77.312 14.7511 77.3133 18.1066 77.3133 21.4608C77.3133 21.9087 77.3147 21.8971 76.8961 21.8943C75.991 21.8885 75.0858 21.8914 74.1807 21.9015C74.0135 21.9029 73.9755 21.8511 73.9768 21.6797C73.9823 18.3601 73.9823 15.042 73.9782 11.7224C73.9782 11.371 73.9782 11.0167 73.9333 10.6696C73.8423 9.98269 73.4223 9.59385 72.8135 9.40519C72.7605 9.38935 72.7007 9.39799 72.645 9.39655C71.6556 9.39655 70.6648 9.40231 69.6754 9.39367C69.0937 9.38935 68.595 9.61257 68.1601 9.99277C67.5879 10.4939 67.3691 11.1809 67.3215 11.9384C67.3079 12.1645 67.312 12.3921 67.312 12.6182C67.312 15.6382 67.3147 18.6597 67.3202 21.6797C67.3202 21.8352 67.2944 21.8957 67.1258 21.8943C66.1419 21.8856 65.1579 21.8928 64.1726 21.8943C64.1223 21.8943 64.072 21.8943 64 21.8943V21.8986Z" fill="black"/>
<path d="M91.9584 9.6844C91.9516 9.61384 91.9408 9.55479 91.9408 9.49718C91.9353 8.53659 91.9326 7.57601 91.9244 6.61398C91.9244 6.4858 91.9421 6.42676 92.0903 6.42676C94.8899 6.43252 97.6909 6.42676 100.491 6.4354C101.135 6.43828 101.78 6.49157 102.381 6.77672C103.706 7.40463 104.513 8.46891 104.753 9.9854C104.811 10.3526 104.815 10.7328 104.816 11.1087C104.822 14.6069 104.822 18.105 104.825 21.6017C104.825 21.632 104.822 21.6622 104.825 21.691C104.842 21.8451 104.787 21.9071 104.634 21.897C104.398 21.8811 104.16 21.8826 103.922 21.8811C103.464 21.8811 103.006 21.8768 102.548 21.8869C102.412 21.8898 102.343 21.8408 102.299 21.7069C102.161 21.2849 102.014 20.8658 101.869 20.4467C101.836 20.3546 101.79 20.2682 101.734 20.1429C101.647 20.2509 101.582 20.3229 101.528 20.4021C100.769 21.5009 99.7526 22.1389 98.4629 22.1778C97.0794 22.2196 95.689 22.2513 94.3082 22.162C92.9152 22.0712 91.8986 21.2518 91.2273 19.97C90.9269 19.3969 90.8032 18.7661 90.7625 18.118C90.7108 17.3 90.7054 16.4791 90.9147 15.6827C91.2816 14.2886 92.1174 13.3309 93.4058 12.8283C93.9005 12.6353 94.4183 12.546 94.9483 12.5474C97.0467 12.5489 99.1465 12.5474 101.245 12.5474H101.472C101.427 11.944 101.557 11.3464 101.393 10.7616C101.258 10.285 100.973 9.96091 100.519 9.79098C100.302 9.70889 100.087 9.68008 99.8586 9.68008C97.2954 9.68296 94.7336 9.68152 92.1704 9.68152C92.1038 9.68152 92.0359 9.68152 91.9584 9.68152V9.6844ZM101.466 15.4767C101.275 15.4767 101.105 15.4767 100.936 15.4767C99.387 15.4767 97.8363 15.4724 96.287 15.4796C95.8766 15.4825 95.4621 15.5012 95.0544 15.5545C94.5705 15.6164 94.2797 15.9347 94.1655 16.433C94.0609 16.8867 94.065 17.3461 94.1234 17.8026C94.2172 18.54 94.489 18.8323 95.178 18.9778C95.2759 18.9979 95.3805 18.9951 95.4811 18.9951C96.5955 18.9951 97.71 18.9878 98.8244 18.9994C99.1506 19.0023 99.4645 18.9619 99.7757 18.8626C100.511 18.6278 101.015 18.1338 101.303 17.3806C101.538 16.7657 101.457 16.1248 101.468 15.4753L101.466 15.4767Z" fill="black"/>
<path d="M169.356 20.1404C169.26 20.2614 169.192 20.3392 169.134 20.4227C168.38 21.5057 167.371 22.1394 166.095 22.1797C164.717 22.2229 163.334 22.2488 161.958 22.1667C160.564 22.0832 159.543 21.2767 158.862 19.9993C158.551 19.416 158.423 18.7766 158.383 18.1156C158.331 17.2976 158.325 16.4767 158.536 15.6803C158.906 14.2862 159.742 13.3299 161.031 12.8287C161.521 12.6386 162.033 12.5493 162.558 12.5493C164.661 12.5493 166.767 12.5493 168.87 12.5493H169.12C169.086 11.9517 169.095 11.3655 169.009 10.7952C168.933 10.2926 168.601 9.96714 168.135 9.79144C167.916 9.70935 167.702 9.68199 167.473 9.68199C164.917 9.68487 162.359 9.68343 159.803 9.68343C159.735 9.68343 159.668 9.68343 159.583 9.68343C159.574 9.6143 159.561 9.55237 159.561 9.49045C159.555 8.52986 159.553 7.56927 159.545 6.60724C159.545 6.47187 159.576 6.42578 159.716 6.42578C162.465 6.43154 165.214 6.42578 167.964 6.43154C168.66 6.43298 169.358 6.47043 170.007 6.77862C171.325 7.40365 172.129 8.46505 172.373 9.9729C172.43 10.3286 172.438 10.6973 172.438 11.0602C172.443 14.5699 172.443 18.0796 172.445 21.5892C172.445 21.631 172.441 21.6728 172.445 21.7145C172.46 21.8571 172.397 21.8974 172.267 21.896C171.554 21.8874 170.841 21.8859 170.129 21.8874C170.009 21.8874 169.96 21.8254 169.925 21.7189C169.784 21.2983 169.638 20.8778 169.491 20.4587C169.459 20.3665 169.415 20.2773 169.356 20.1376V20.1404ZM169.089 15.4786C168.908 15.4786 168.747 15.4786 168.584 15.4786C167.027 15.4786 165.473 15.4743 163.917 15.4815C163.499 15.4844 163.081 15.5031 162.668 15.5578C162.191 15.6198 161.9 15.9337 161.788 16.4248C161.67 16.9433 161.684 17.4689 161.769 17.9888C161.832 18.3719 162.008 18.696 162.369 18.8385C162.586 18.9249 162.827 18.9898 163.056 18.9926C164.26 19.0085 165.466 19.0042 166.67 19.0027C166.794 19.0027 166.919 18.9854 167.04 18.9609C168.044 18.755 168.724 18.1645 169.006 17.106C169.148 16.5732 169.069 16.0302 169.088 15.4801L169.089 15.4786Z" fill="black"/>
<path d="M140.441 21.8682V0.959961H143.779V7.99515C143.801 8.00379 143.821 8.01243 143.843 8.01963C143.893 7.96347 143.953 7.9145 143.993 7.85113C144.442 7.11665 145.087 6.65724 145.856 6.38073C146.423 6.17767 147.012 6.1071 147.606 6.10422C148.653 6.09846 149.701 6.07398 150.746 6.11142C151.743 6.14598 152.689 6.38649 153.482 7.09793C154.442 7.96059 154.922 9.06375 154.926 10.3786C154.938 13.8883 154.929 17.398 154.929 20.9076C154.929 21.1698 154.925 21.4333 154.936 21.6954C154.943 21.8509 154.896 21.9028 154.745 21.8999C154.078 21.8855 153.411 21.8798 152.744 21.8783C152.404 21.8783 152.065 21.887 151.726 21.8999C151.622 21.9042 151.59 21.8711 151.59 21.7588C151.59 18.4766 151.588 15.196 151.582 11.9138C151.582 11.4803 151.588 11.0411 151.53 10.6134C151.44 9.95665 151.022 9.58797 150.436 9.41515C150.367 9.39499 150.29 9.40075 150.217 9.40075C148.849 9.40075 147.479 9.40363 146.11 9.39931C145.53 9.39787 145.03 9.62253 144.6 10.0099C143.984 10.5673 143.772 11.319 143.77 12.1414C143.762 14.1706 143.77 16.1998 143.77 18.2289C143.77 19.3811 143.766 20.5332 143.772 21.6853C143.772 21.8625 143.718 21.9028 143.559 21.8999C142.564 21.8884 141.568 21.887 140.573 21.8826C140.535 21.8826 140.496 21.8754 140.441 21.8697V21.8682Z" fill="black"/>
<path d="M179.815 21.8694C179.75 21.8752 179.694 21.8838 179.64 21.8838C178.65 21.8896 177.661 21.8896 176.67 21.9025C176.51 21.904 176.476 21.8536 176.477 21.6908C176.481 16.8029 176.48 11.9136 176.48 7.02567C176.48 6.87589 176.483 6.72756 176.478 6.57778C176.474 6.47265 176.507 6.42656 176.613 6.428C177.32 6.43521 178.028 6.43953 178.734 6.43665C178.893 6.43665 178.96 6.50721 179.009 6.65987C179.146 7.0948 179.297 7.52541 179.451 7.95458C179.474 8.02082 179.535 8.11875 179.577 8.11731C179.638 8.11731 179.718 8.05251 179.758 7.99202C180.322 7.09912 181.122 6.5533 182.086 6.28687C182.524 6.1659 182.99 6.12125 183.445 6.11117C184.565 6.08669 185.686 6.0766 186.805 6.11117C187.706 6.13997 188.577 6.33871 189.322 6.9335C190.333 7.73999 190.923 8.80283 190.947 10.1465C190.98 11.9669 190.959 13.7872 190.961 15.6076C190.961 17.4697 190.961 19.3319 190.961 21.194C190.961 21.325 190.963 21.4561 190.967 21.5871C190.977 21.8925 190.978 21.8939 190.697 21.8939C189.736 21.8939 188.774 21.8939 187.813 21.8997C187.685 21.8997 187.636 21.8694 187.638 21.7196C187.642 18.4073 187.643 15.0935 187.639 11.7811C187.639 11.4066 187.636 11.0279 187.589 10.6578C187.5 9.97656 187.079 9.59492 186.478 9.40626C186.425 9.39042 186.367 9.39618 186.31 9.39618C184.929 9.39618 183.55 9.39618 182.169 9.39618C181.504 9.39618 180.951 9.67269 180.493 10.1638C179.992 10.7024 179.82 11.3822 179.819 12.1123C179.814 15.2879 179.816 18.4634 179.816 21.639V21.868L179.815 21.8694Z" fill="black"/>
<path d="M112.195 21.8694C112.131 21.8751 112.082 21.8838 112.032 21.8838C111.03 21.8895 110.03 21.8924 109.028 21.8996C108.917 21.8996 108.855 21.8895 108.855 21.7383C108.86 16.8014 108.858 11.866 108.858 6.92913C108.858 6.8096 108.862 6.69007 108.857 6.57053C108.851 6.46108 108.894 6.42508 108.997 6.42508C109.709 6.43228 110.422 6.4366 111.135 6.43516C111.272 6.43516 111.336 6.49709 111.379 6.6267C111.523 7.06595 111.671 7.50376 111.825 7.93869C111.849 8.00926 111.908 8.10575 111.961 8.11439C112.014 8.12303 112.1 8.0467 112.138 7.98621C112.62 7.21141 113.304 6.71455 114.111 6.39628C114.661 6.18025 115.243 6.11112 115.826 6.10536C116.94 6.09384 118.056 6.07512 119.169 6.10968C120.156 6.13993 121.094 6.38043 121.878 7.07747C122.786 7.88684 123.308 8.9108 123.327 10.1681C123.354 11.9337 123.336 13.7008 123.338 15.4679C123.338 17.3775 123.338 19.2886 123.338 21.1983C123.338 21.3596 123.332 21.5223 123.35 21.6807C123.369 21.8535 123.308 21.8982 123.153 21.8939C122.712 21.8809 122.271 21.8766 121.829 21.8766C121.28 21.878 120.732 21.8867 120.183 21.8982C120.066 21.9011 120.012 21.8766 120.013 21.7311C120.017 18.3827 120.019 15.0344 120.015 11.686C120.015 11.3346 120.011 10.9803 119.962 10.6347C119.865 9.96212 119.443 9.59055 118.85 9.40477C118.797 9.38893 118.737 9.39613 118.681 9.39613C117.301 9.39613 115.921 9.39613 114.54 9.39613C113.877 9.39613 113.323 9.67264 112.866 10.1666C112.367 10.7067 112.196 11.3864 112.195 12.1166C112.191 15.2922 112.192 18.4677 112.192 21.6433V21.8665L112.195 21.8694Z" fill="black"/>
<path d="M131.621 6.43282C131.733 6.43282 131.828 6.43282 131.923 6.43282C133.394 6.43282 134.864 6.4357 136.335 6.42994C136.502 6.42994 136.564 6.47459 136.562 6.65893C136.549 7.24363 136.551 7.82834 136.551 8.41304C136.551 8.53978 136.51 8.63195 136.419 8.72268C136.151 8.98767 135.893 9.26562 135.639 9.54501C135.545 9.64726 135.447 9.69047 135.311 9.68903C134.147 9.68471 132.98 9.68615 131.816 9.68615C131.755 9.68615 131.693 9.68615 131.623 9.68615C131.619 9.73367 131.613 9.7668 131.613 9.80136C131.615 12.1056 131.612 14.4084 131.624 16.7127C131.626 17.0367 131.68 17.3665 131.756 17.6805C131.851 18.0693 132.093 18.3689 132.456 18.4999C132.756 18.6079 133.078 18.6972 133.392 18.7044C134.512 18.7289 135.632 18.7131 136.752 18.7131C136.818 18.7131 136.886 18.7131 136.988 18.7131C136.988 18.8931 136.988 19.0573 136.988 19.2215C136.988 20.051 136.987 20.8805 136.992 21.7101C136.992 21.857 136.952 21.903 136.808 21.9016C135.275 21.8886 133.742 21.8728 132.209 21.88C130.953 21.8858 129.962 21.3356 129.175 20.3361C128.564 19.5599 128.316 18.644 128.299 17.6502C128.29 17.1851 128.29 16.7199 128.29 16.2533C128.292 14.1463 128.294 12.0394 128.297 9.93241C128.297 9.85609 128.297 9.7812 128.297 9.69047H125.701C125.695 9.60838 125.682 9.53925 125.682 9.47156C125.68 8.51097 125.68 7.55039 125.673 6.58836C125.673 6.43426 125.75 6.42994 125.856 6.42994C126.665 6.43282 127.474 6.42994 128.284 6.43714C128.417 6.43714 128.466 6.39826 128.501 6.26144C128.853 4.88753 129.216 3.51649 129.568 2.14258C129.596 2.02881 129.652 1.99712 129.746 1.99712C130.334 1.99568 130.923 1.9928 131.511 1.99856C131.548 1.99856 131.597 2.06625 131.616 2.11378C131.634 2.15986 131.621 2.21891 131.62 2.27363C131.619 3.62307 131.617 4.97106 131.615 6.32049C131.615 6.34929 131.619 6.3781 131.623 6.43426L131.621 6.43282Z" fill="black"/>
</g>
<defs>
<linearGradient id="paint0_linear_1790_6" x1="22.001" y1="44.0007" x2="22.001" y2="0" gradientUnits="userSpaceOnUse">
<stop stop-color="#DC1D47"/>
<stop offset="1" stop-color="#E54327"/>
</linearGradient>
<clipPath id="clip0_1790_6">
<rect width="192" height="44" fill="white"/>
</clipPath>
</defs>
</svg>