<!-- <svg width="600" height="400" viewBox="0 0 600 400" fill="none" xmlns="http://www.w3.org/2000/svg">
<g clip-path="url(#clip0_120_81)">
<path d="M434.009 316.785H263.361C262.163 316.766 260.973 316.986 259.861 317.431C258.749 317.876 257.736 318.539 256.883 319.379C256.029 320.219 255.351 321.221 254.888 322.325C254.425 323.43 254.187 324.615 254.187 325.813C254.187 327.011 254.425 328.196 254.888 329.301C255.351 330.406 256.029 331.407 256.883 332.247C257.736 333.088 258.749 333.75 259.861 334.195C260.973 334.64 262.163 334.86 263.361 334.841H434.014C435.212 334.86 436.401 334.64 437.514 334.195C438.626 333.75 439.638 333.088 440.492 332.247C441.346 331.407 442.024 330.406 442.487 329.301C442.949 328.196 443.188 327.011 443.188 325.813C443.188 324.615 442.949 323.43 442.487 322.325C442.024 321.221 441.346 320.219 440.492 319.379C439.638 318.539 438.626 317.876 437.514 317.431C436.401 316.986 435.212 316.766 434.014 316.785H434.009Z" fill="white"/>
<path d="M411.935 278.289H285.43V316.807H411.935V278.289Z" fill="white"/>
<path d="M411.935 317.29H285.43C285.302 317.29 285.179 317.239 285.089 317.148C284.998 317.058 284.947 316.935 284.947 316.807V278.289C284.955 278.166 285.01 278.052 285.099 277.968C285.189 277.884 285.307 277.838 285.429 277.838C285.552 277.838 285.67 277.884 285.759 277.968C285.849 278.052 285.903 278.166 285.911 278.289V316.321H411.454V278.289C411.454 278.161 411.505 278.039 411.595 277.948C411.685 277.858 411.808 277.808 411.935 277.808C412.063 277.808 412.185 277.858 412.276 277.948C412.366 278.039 412.417 278.161 412.417 278.289V316.807C412.417 316.87 412.405 316.933 412.381 316.991C412.356 317.05 412.321 317.103 412.276 317.148C412.232 317.193 412.179 317.228 412.12 317.253C412.062 317.277 411.999 317.29 411.935 317.29Z" fill="#141414"/>
<path d="M434.009 335.322H263.361C262.095 335.35 260.836 335.124 259.658 334.658C258.48 334.192 257.407 333.496 256.502 332.611C255.596 331.725 254.877 330.668 254.386 329.501C253.895 328.334 253.642 327.08 253.642 325.814C253.642 324.548 253.895 323.295 254.386 322.128C254.877 320.961 255.596 319.903 256.502 319.018C257.407 318.132 258.48 317.436 259.658 316.97C260.836 316.505 262.095 316.279 263.361 316.306H272.546C272.668 316.314 272.782 316.369 272.866 316.458C272.95 316.548 272.996 316.666 272.996 316.788C272.996 316.91 272.95 317.028 272.866 317.118C272.782 317.207 272.668 317.262 272.546 317.27H263.361C261.093 317.27 258.918 318.17 257.315 319.773C255.711 321.376 254.811 323.55 254.811 325.816C254.811 328.083 255.711 330.257 257.315 331.86C258.918 333.462 261.093 334.363 263.361 334.363H434.014C436.281 334.363 438.456 333.462 440.06 331.86C441.663 330.257 442.564 328.083 442.564 325.816C442.564 323.55 441.663 321.376 440.06 319.773C438.456 318.17 436.281 317.27 434.014 317.27H424.042C423.976 317.274 423.909 317.265 423.847 317.243C423.785 317.221 423.727 317.186 423.679 317.141C423.631 317.096 423.592 317.041 423.566 316.98C423.539 316.92 423.526 316.854 423.526 316.788C423.526 316.722 423.539 316.656 423.566 316.596C423.592 316.535 423.631 316.48 423.679 316.435C423.727 316.39 423.785 316.355 423.847 316.333C423.909 316.311 423.976 316.302 424.042 316.306H434.014C435.28 316.279 436.539 316.505 437.717 316.97C438.895 317.436 439.968 318.132 440.873 319.018C441.778 319.903 442.497 320.961 442.988 322.128C443.479 323.295 443.732 324.548 443.732 325.814C443.732 327.08 443.479 328.334 442.988 329.501C442.497 330.668 441.778 331.725 440.873 332.611C439.968 333.496 438.895 334.192 437.717 334.658C436.539 335.124 435.28 335.35 434.014 335.322H434.009Z" fill="#141414"/>
<path d="M543.274 0H155.755C146.502 0 139 7.49813 139 16.7475V260.778C139 270.028 146.502 277.526 155.755 277.526H543.274C552.528 277.526 560.03 270.028 560.03 260.778V16.7475C560.03 7.49813 552.528 0 543.274 0Z" fill="white"/>
<path d="M543.306 278.49H155.787C151.217 278.484 146.836 276.668 143.605 273.438C140.374 270.208 138.556 265.829 138.551 261.261V17.2284C138.556 12.6608 140.374 8.28166 143.605 5.05184C146.836 1.82201 151.217 0.00520664 155.787 0H543.306C547.877 0.00404859 552.259 1.82027 555.492 5.05016C558.725 8.28005 560.543 12.6598 560.549 17.2284V261.261C560.543 265.83 558.725 270.21 555.492 273.439C552.259 276.669 547.877 278.486 543.306 278.49ZM155.787 0.963935C151.473 0.968564 147.337 2.68362 144.286 5.7328C141.236 8.78198 139.52 12.9162 139.515 17.2284V261.261C139.52 265.573 141.236 269.708 144.286 272.757C147.337 275.806 151.473 277.521 155.787 277.526H543.306C547.621 277.521 551.757 275.806 554.808 272.757C557.859 269.708 559.575 265.574 559.58 261.261V17.2284C559.575 12.916 557.859 8.78179 554.808 5.73267C551.757 2.68355 547.621 0.968563 543.306 0.963935H155.787Z" fill="#141414"/>
<path d="M477.888 42.494H172.827C172.699 42.494 172.577 42.4433 172.487 42.3531C172.396 42.2629 172.346 42.1406 172.346 42.0131C172.346 41.8856 172.396 41.7632 172.487 41.6731C172.577 41.5829 172.699 41.5322 172.827 41.5322H477.888C478.015 41.5322 478.138 41.5829 478.228 41.6731C478.318 41.7632 478.369 41.8856 478.369 42.0131C478.369 42.1406 478.318 42.2629 478.228 42.3531C478.138 42.4433 478.015 42.494 477.888 42.494Z" fill="#141414"/>
<path d="M275.898 175.087H172.481C172.418 175.087 172.355 175.075 172.296 175.051C172.238 175.026 172.185 174.991 172.14 174.946C172.095 174.901 172.06 174.848 172.036 174.789C172.012 174.73 172 174.668 172 174.604V71.4809C172 71.3533 172.051 71.231 172.141 71.1408C172.231 71.0507 172.353 71 172.481 71H275.917C276.045 71 276.168 71.0506 276.258 71.1407C276.349 71.2308 276.4 71.3531 276.401 71.4809V174.604C276.401 174.669 276.388 174.734 276.362 174.794C276.337 174.854 276.299 174.908 276.252 174.953C276.205 174.998 276.15 175.033 276.089 175.056C276.028 175.08 275.963 175.09 275.898 175.087ZM172.951 174.124H275.417V71.9639H172.951V174.124Z" fill="#141414"/>
<path d="M235.667 148H212.333M217.333 138H230.667V148H217.333V138Z" stroke="#141414" stroke-miterlimit="10" stroke-linecap="round" stroke-linejoin="round"/>
<path d="M212.452 104.667H202.333C200.493 104.667 199 106.159 199 108V134.667C199 135.104 199.086 135.538 199.254 135.942C199.421 136.347 199.667 136.714 199.977 137.023C200.286 137.333 200.653 137.579 201.058 137.746C201.462 137.914 201.896 138 202.333 138H245.666C246.104 138 246.538 137.914 246.942 137.746C247.346 137.579 247.714 137.333 248.023 137.023C248.333 136.714 248.579 136.347 248.746 135.942C248.914 135.538 249 135.104 249 134.667V108C249 106.159 247.507 104.667 245.666 104.667H235.547" fill="white"/>
<path d="M212.452 104.667H202.333C200.493 104.667 199 106.159 199 108V134.667C199 135.104 199.086 135.538 199.254 135.942C199.421 136.347 199.667 136.714 199.977 137.023C200.286 137.333 200.653 137.579 201.058 137.746C201.462 137.914 201.896 138 202.333 138H245.666C246.104 138 246.538 137.914 246.942 137.746C247.346 137.579 247.714 137.333 248.023 137.023C248.333 136.714 248.579 136.347 248.746 135.942C248.914 135.538 249 135.104 249 134.667V108C249 106.159 247.507 104.667 245.666 104.667H235.547" stroke="#141414" stroke-miterlimit="10" stroke-linecap="round" stroke-linejoin="round"/>
<path d="M224 124.667C231.364 124.667 237.333 118.697 237.333 111.333C237.333 103.97 231.364 98 224 98C216.636 98 210.667 103.97 210.667 111.333C210.667 118.697 216.636 124.667 224 124.667Z" fill="white" stroke="#141414" stroke-miterlimit="10" stroke-linecap="round" stroke-linejoin="round"/>
<path d="M233.426 120.759L242.333 129.667" stroke="#141414" stroke-miterlimit="10" stroke-linecap="round" stroke-linejoin="round"/>
<path d="M404.92 175.087H301.483C301.355 175.087 301.232 175.037 301.142 174.946C301.051 174.855 301 174.732 301 174.604V71.4809C301.001 71.3531 301.052 71.2308 301.142 71.1407C301.233 71.0506 301.355 71 301.483 71H404.92C405.047 71 405.17 71.0507 405.26 71.1408C405.35 71.231 405.401 71.3533 405.401 71.4809V174.604C405.401 174.668 405.389 174.73 405.365 174.789C405.341 174.848 405.305 174.901 405.261 174.946C405.216 174.991 405.163 175.026 405.104 175.051C405.046 175.075 404.983 175.087 404.92 175.087ZM301.973 174.124H404.436V71.9639H301.982L301.973 174.124Z" fill="#141414"/>
<path d="M352.784 148C339.89 144.316 331 132.427 331 119.016V104.328L352.784 98L374.568 104.328V119.016C374.568 132.427 365.679 144.316 352.784 148Z" fill="white" stroke="#141414" stroke-miterlimit="10" stroke-linecap="round" stroke-linejoin="round"/>
<path d="M352.784 135.344C348.818 135.344 344.241 131.199 343.541 119.784H362.028C361.327 131.199 356.75 135.344 352.784 135.344Z" fill="white" stroke="#141414" stroke-miterlimit="10" stroke-linecap="round" stroke-linejoin="round"/>
<path d="M348 119.301V114.801C348 112.315 350.015 110.301 352.5 110.301C354.985 110.301 357 112.315 357 114.801V119.301" fill="white"/>
<path d="M348 119.301V114.801C348 112.315 350.015 110.301 352.5 110.301C354.985 110.301 357 112.315 357 114.801V119.301" stroke="#141414" stroke-miterlimit="10" stroke-linecap="round" stroke-linejoin="round"/>
<path d="M352.784 126.008V129.12" stroke="#141414" stroke-miterlimit="10" stroke-linecap="round" stroke-linejoin="round"/>
<path d="M276.244 192.837H172.827C172.705 192.829 172.59 192.775 172.506 192.685C172.423 192.596 172.376 192.478 172.376 192.355C172.376 192.233 172.423 192.115 172.506 192.025C172.59 191.936 172.705 191.881 172.827 191.873H276.263C276.329 191.869 276.396 191.878 276.458 191.9C276.52 191.922 276.577 191.957 276.626 192.002C276.674 192.048 276.713 192.102 276.739 192.163C276.765 192.224 276.779 192.289 276.779 192.355C276.779 192.421 276.765 192.487 276.739 192.548C276.713 192.608 276.674 192.663 276.626 192.708C276.577 192.753 276.52 192.788 276.458 192.81C276.396 192.832 276.329 192.842 276.263 192.837H276.244Z" fill="#141414"/>
<path d="M276.244 210.24H172.827C172.705 210.232 172.59 210.178 172.506 210.088C172.423 209.999 172.376 209.881 172.376 209.758C172.376 209.636 172.423 209.518 172.506 209.429C172.59 209.339 172.705 209.285 172.827 209.276H276.263C276.329 209.272 276.396 209.281 276.458 209.303C276.52 209.326 276.577 209.36 276.626 209.406C276.674 209.451 276.713 209.505 276.739 209.566C276.765 209.627 276.779 209.692 276.779 209.758C276.779 209.825 276.765 209.89 276.739 209.951C276.713 210.011 276.674 210.066 276.626 210.111C276.577 210.157 276.52 210.191 276.458 210.214C276.396 210.236 276.329 210.245 276.263 210.24H276.244Z" fill="#141414"/>
<path d="M276.244 227.642H172.827C172.705 227.633 172.59 227.579 172.506 227.489C172.423 227.4 172.376 227.282 172.376 227.16C172.376 227.037 172.423 226.919 172.506 226.83C172.59 226.74 172.705 226.686 172.827 226.678H276.263C276.329 226.673 276.396 226.682 276.458 226.705C276.52 226.727 276.577 226.762 276.626 226.807C276.674 226.852 276.713 226.907 276.739 226.967C276.765 227.028 276.779 227.093 276.779 227.16C276.779 227.226 276.765 227.291 276.739 227.352C276.713 227.413 276.674 227.467 276.626 227.512C276.577 227.558 276.52 227.592 276.458 227.615C276.396 227.637 276.329 227.646 276.263 227.642H276.244Z" fill="#141414"/>
<path d="M404.629 192.837H301.193C301.127 192.842 301.061 192.832 300.998 192.81C300.936 192.788 300.879 192.753 300.83 192.708C300.782 192.663 300.743 192.608 300.717 192.548C300.691 192.487 300.677 192.421 300.677 192.355C300.677 192.289 300.691 192.224 300.717 192.163C300.743 192.102 300.782 192.048 300.83 192.002C300.879 191.957 300.936 191.922 300.998 191.9C301.061 191.878 301.127 191.869 301.193 191.873H404.629C404.752 191.881 404.866 191.936 404.95 192.025C405.034 192.115 405.08 192.233 405.08 192.355C405.08 192.478 405.034 192.596 404.95 192.685C404.866 192.775 404.752 192.829 404.629 192.837Z" fill="#141414"/>
<path d="M404.629 210.24H301.193C301.127 210.245 301.061 210.236 300.998 210.214C300.936 210.191 300.879 210.157 300.83 210.111C300.782 210.066 300.743 210.011 300.717 209.951C300.691 209.89 300.677 209.825 300.677 209.758C300.677 209.692 300.691 209.627 300.717 209.566C300.743 209.505 300.782 209.451 300.83 209.406C300.879 209.36 300.936 209.326 300.998 209.303C301.061 209.281 301.127 209.272 301.193 209.276H404.629C404.752 209.285 404.866 209.339 404.95 209.429C405.034 209.518 405.08 209.636 405.08 209.758C405.08 209.881 405.034 209.999 404.95 210.088C404.866 210.178 404.752 210.232 404.629 210.24Z" fill="#141414"/>
<path d="M404.629 227.642H301.193C301.127 227.646 301.061 227.637 300.998 227.615C300.936 227.592 300.879 227.558 300.83 227.512C300.782 227.467 300.743 227.413 300.717 227.352C300.691 227.291 300.677 227.226 300.677 227.16C300.677 227.093 300.691 227.028 300.717 226.967C300.743 226.907 300.782 226.852 300.83 226.807C300.879 226.762 300.936 226.727 300.998 226.705C301.061 226.682 301.127 226.673 301.193 226.678H404.629C404.752 226.686 404.866 226.74 404.95 226.83C405.034 226.919 405.08 227.037 405.08 227.16C405.08 227.282 405.034 227.4 404.95 227.489C404.866 227.579 404.752 227.633 404.629 227.642Z" fill="#141414"/>
<path d="M483.451 192.837H429.605C429.539 192.842 429.473 192.832 429.41 192.81C429.348 192.788 429.291 192.753 429.242 192.708C429.194 192.663 429.155 192.608 429.129 192.548C429.103 192.487 429.089 192.421 429.089 192.355C429.089 192.289 429.103 192.224 429.129 192.163C429.155 192.102 429.194 192.048 429.242 192.002C429.291 191.957 429.348 191.922 429.41 191.9C429.473 191.878 429.539 191.869 429.605 191.873H483.451C483.517 191.869 483.583 191.878 483.646 191.9C483.708 191.922 483.765 191.957 483.813 192.002C483.862 192.048 483.9 192.102 483.927 192.163C483.953 192.224 483.967 192.289 483.967 192.355C483.967 192.421 483.953 192.487 483.927 192.548C483.9 192.608 483.862 192.663 483.813 192.708C483.765 192.753 483.708 192.788 483.646 192.81C483.583 192.832 483.517 192.842 483.451 192.837Z" fill="#141414"/>
<path d="M509.417 210.24H429.598C429.532 210.245 429.466 210.236 429.404 210.214C429.341 210.191 429.284 210.157 429.236 210.111C429.187 210.066 429.149 210.011 429.123 209.951C429.096 209.89 429.083 209.825 429.083 209.758C429.083 209.692 429.096 209.627 429.123 209.566C429.149 209.505 429.187 209.451 429.236 209.406C429.284 209.36 429.341 209.326 429.404 209.303C429.466 209.281 429.532 209.272 429.598 209.276H509.417C509.483 209.272 509.549 209.281 509.612 209.303C509.674 209.326 509.731 209.36 509.78 209.406C509.828 209.451 509.867 209.505 509.893 209.566C509.919 209.627 509.933 209.692 509.933 209.758C509.933 209.825 509.919 209.89 509.893 209.951C509.867 210.011 509.828 210.066 509.78 210.111C509.731 210.157 509.674 210.191 509.612 210.214C509.549 210.236 509.483 210.245 509.417 210.24Z" fill="#141414"/>
<path d="M533.032 227.642H429.596C429.53 227.646 429.464 227.637 429.401 227.615C429.339 227.592 429.282 227.558 429.234 227.512C429.185 227.467 429.147 227.413 429.12 227.352C429.094 227.291 429.08 227.226 429.08 227.16C429.08 227.093 429.094 227.028 429.12 226.967C429.147 226.907 429.185 226.852 429.234 226.807C429.282 226.762 429.339 226.727 429.401 226.705C429.464 226.682 429.53 226.673 429.596 226.678H533.032C533.155 226.686 533.269 226.74 533.353 226.83C533.437 226.919 533.483 227.037 533.483 227.16C533.483 227.282 533.437 227.4 533.353 227.489C533.269 227.579 533.155 227.633 533.032 227.642Z" fill="#141414"/>
<path d="M179.849 31.3902C178.235 31.3863 176.659 30.9046 175.32 30.0059C173.98 29.1071 172.937 27.8318 172.323 26.3409C171.708 24.85 171.549 23.2104 171.866 21.6293C172.184 20.0483 172.962 18.5966 174.104 17.4577C175.247 16.3189 176.701 15.5439 178.283 15.2308C179.866 14.9176 181.506 15.0803 182.996 15.6983C184.486 16.3163 185.76 17.3618 186.656 18.7029C187.551 20.0439 188.03 21.6203 188.03 23.2328C188.025 25.3983 187.161 27.4734 185.627 29.0028C184.093 30.5321 182.015 31.3908 179.849 31.3902ZM179.849 16.0394C178.426 16.0432 177.037 16.4684 175.856 17.2612C174.675 18.054 173.755 19.1788 173.214 20.4936C172.672 21.8084 172.532 23.2541 172.812 24.6482C173.092 26.0423 173.779 27.3222 174.786 28.3262C175.794 29.3303 177.076 30.0135 178.472 30.2894C179.867 30.5654 181.313 30.4218 182.627 29.8768C183.941 29.3317 185.064 28.4097 185.854 27.2272C186.644 26.0447 187.065 24.6547 187.065 23.2328C187.06 21.3232 186.297 19.4935 184.945 18.1451C183.592 16.7966 181.759 16.0393 179.849 16.0394Z" fill="#141414"/>
<path d="M202.314 31.3901C200.7 31.3867 199.124 30.9053 197.785 30.0069C196.445 29.1084 195.401 27.8332 194.786 26.3424C194.171 24.8515 194.012 23.2119 194.329 21.6307C194.646 20.0494 195.425 18.5976 196.567 17.4585C197.709 16.3194 199.163 15.5442 200.746 15.2309C202.328 14.9175 203.968 15.0801 205.459 15.698C206.949 16.316 208.222 17.3615 209.118 18.7026C210.014 20.0437 210.493 21.6201 210.493 23.2328C210.488 25.3979 209.624 27.4727 208.091 29.002C206.558 30.5313 204.48 31.3902 202.314 31.3901ZM202.314 16.0393C200.891 16.0432 199.502 16.4684 198.321 17.2612C197.14 18.054 196.221 19.1788 195.679 20.4936C195.137 21.8083 194.998 23.2541 195.277 24.6482C195.557 26.0423 196.244 27.3222 197.252 28.3262C198.259 29.3303 199.541 30.0134 200.937 30.2894C202.332 30.5654 203.778 30.4218 205.092 29.8767C206.406 29.3317 207.529 28.4097 208.319 27.2272C209.109 26.0447 209.53 24.6547 209.53 23.2328C209.525 21.3231 208.763 19.4935 207.41 18.145C206.057 16.7966 204.224 16.0393 202.314 16.0393Z" fill="#141414"/>
<path d="M224.779 30.9071C229.03 30.9071 232.477 27.4712 232.477 23.2328C232.477 18.9944 229.03 15.5585 224.779 15.5585C220.528 15.5585 217.081 18.9944 217.081 23.2328C217.081 27.4712 220.528 30.9071 224.779 30.9071Z" fill="#141414"/>
<path d="M140.963 208.039C137.985 208.023 135.04 207.422 132.294 206.269C127.973 204.47 123.934 201.386 120.284 197.089C115.123 198.741 108.876 196.553 105.93 192.009C103.999 189.034 103.645 185.482 105.005 182.743C106.562 179.602 110.494 178.05 113.411 179.425C114.2 179.834 114.935 180.34 115.598 180.931C116.302 181.508 116.967 182.052 117.743 182.38C119.274 183.036 121.242 182.743 122.887 181.644C124.227 180.748 125.364 179.384 126.466 177.351C129.35 171.972 130.191 165.732 128.835 159.781C128.809 159.663 128.829 159.54 128.891 159.436C128.952 159.332 129.05 159.254 129.166 159.219C129.281 159.183 129.406 159.193 129.515 159.244C129.624 159.296 129.71 159.387 129.755 159.499C129.915 159.672 130.584 160.017 132.788 160.704L133.156 160.82C134.487 161.266 135.853 161.598 137.241 161.812C139.986 162.236 142.783 162.21 145.52 161.735C146.905 161.497 148.267 161.142 149.592 160.675C149.991 160.52 150.379 160.341 150.755 160.138C151.613 159.701 152.505 159.263 153.353 159.246H153.382C155.702 159.246 156.588 162.409 157.176 164.505C157.292 164.92 157.394 165.279 157.489 165.558C158.917 169.711 159.852 173.113 160.434 176.269C161.652 182.892 161.355 188.844 159.544 193.958C157.405 200.009 152.955 204.831 147.643 206.855C145.507 207.651 143.243 208.053 140.963 208.039ZM120.442 196.066C120.512 196.066 120.582 196.081 120.646 196.111C120.709 196.141 120.766 196.184 120.811 196.238C124.415 200.535 128.404 203.613 132.666 205.388C137.571 207.429 142.905 207.639 147.3 205.965C152.352 204.039 156.59 199.436 158.637 193.648C160.386 188.693 160.675 182.909 159.485 176.452C158.912 173.34 157.989 169.978 156.577 165.875C156.472 165.572 156.358 165.2 156.249 164.769C155.739 162.953 154.969 160.214 153.379 160.214H153.364C152.734 160.214 151.949 160.619 151.19 161.003C150.778 161.225 150.351 161.42 149.913 161.587C148.537 162.07 147.122 162.435 145.684 162.68C142.844 163.173 139.943 163.2 137.094 162.761C135.652 162.538 134.231 162.192 132.847 161.727L132.502 161.62C131.66 161.372 130.832 161.08 130.02 160.745C131.068 166.58 130.114 172.598 127.313 177.823C126.132 180.009 124.907 181.471 123.422 182.459C121.513 183.735 119.193 184.05 117.369 183.281C116.462 182.901 115.712 182.284 114.986 181.69C114.383 181.151 113.717 180.688 113.002 180.31C110.579 179.172 107.179 180.542 105.867 183.185C104.677 185.589 105.02 188.848 106.741 191.491C109.516 195.77 115.464 197.786 120.282 196.081C120.334 196.066 120.388 196.061 120.442 196.066Z" fill="#141414"/>
<path d="M111.913 187.158C113.327 187.11 114.724 187.472 115.937 188.199C117.149 188.926 118.126 189.988 118.749 191.257L111.913 187.158Z" fill="white"/>
<path d="M68.9828 329.919H68.9019C68.7759 329.898 68.6634 329.827 68.5893 329.723C68.5151 329.619 68.4852 329.49 68.5061 329.364L74.4498 293.534C74.4707 293.408 74.5408 293.296 74.6448 293.221C74.7488 293.147 74.878 293.117 75.0042 293.138C75.1303 293.159 75.243 293.229 75.3174 293.333C75.3919 293.436 75.422 293.566 75.4011 293.692L69.4486 329.517C69.4298 329.628 69.373 329.728 69.288 329.802C69.203 329.875 69.0951 329.917 68.9828 329.919Z" fill="#141414"/>
<path d="M170.095 329.777C169.979 329.777 169.867 329.735 169.779 329.659C169.692 329.583 169.635 329.478 169.618 329.364C168.234 319.775 163.057 296.284 159.517 286.54C159.491 286.479 159.478 286.414 159.478 286.349C159.478 286.283 159.492 286.218 159.518 286.157C159.544 286.097 159.583 286.043 159.631 285.998C159.678 285.953 159.735 285.918 159.797 285.896C159.859 285.873 159.925 285.864 159.99 285.868C160.056 285.872 160.12 285.889 160.179 285.919C160.238 285.948 160.29 285.99 160.332 286.04C160.374 286.091 160.406 286.149 160.424 286.212C163.976 296.007 169.172 319.6 170.571 329.226C170.589 329.353 170.556 329.481 170.479 329.583C170.403 329.686 170.289 329.754 170.162 329.773L170.095 329.777Z" fill="#141414"/>
<path d="M41.1621 340.886C41.0398 340.878 40.9253 340.824 40.8416 340.734C40.7579 340.645 40.7113 340.527 40.7113 340.404C40.7113 340.282 40.7579 340.164 40.8416 340.074C40.9253 339.985 41.0398 339.931 41.1621 339.922L114.67 338.532C114.796 338.534 114.918 338.583 115.009 338.671C115.101 338.759 115.155 338.878 115.162 339.004C115.163 339.068 115.152 339.131 115.128 339.19C115.105 339.249 115.07 339.303 115.026 339.349C114.982 339.394 114.93 339.431 114.872 339.456C114.813 339.481 114.751 339.495 114.687 339.496L41.1796 340.886H41.1621Z" fill="#141414"/>
<path d="M101.366 227.158L90.128 237.781L109.424 268.907L121.911 250.345L134.625 267.548L142.082 242.14L136.782 233.504L120.297 239.58L101.366 227.158Z" fill="white"/>
<path d="M120.297 240.061C120.203 240.061 120.111 240.034 120.033 239.983L101.099 227.563C101 227.489 100.933 227.381 100.911 227.259C100.89 227.138 100.915 227.013 100.983 226.91C101.051 226.807 101.155 226.733 101.275 226.705C101.395 226.676 101.522 226.695 101.628 226.756L120.359 239.043L136.615 233.051C136.676 233.024 136.741 233.01 136.807 233.01C136.874 233.009 136.939 233.022 137 233.048C137.061 233.074 137.116 233.112 137.162 233.16C137.207 233.207 137.243 233.264 137.265 233.326C137.288 233.388 137.298 233.454 137.294 233.521C137.29 233.587 137.273 233.651 137.243 233.71C137.214 233.769 137.172 233.822 137.121 233.864C137.07 233.906 137.011 233.938 136.948 233.956L120.464 240.031C120.41 240.051 120.354 240.061 120.297 240.061Z" fill="#141414"/>
<path d="M99.5395 110.075C105.641 118.727 105.383 129.387 98.9665 133.885C92.5504 138.384 82.4036 135.013 76.3024 126.362C70.2011 117.71 70.4592 107.048 76.8753 102.552C83.2914 98.0558 93.4383 101.422 99.5395 110.075Z" fill="#141414"/>
<path d="M128.913 247.138C128.913 247.138 101.687 242.187 74.5376 244.757C47.3883 247.328 22.2596 222.681 42.2449 199.575C62.2302 176.469 90.8709 133.813 129.206 126.928C167.541 120.043 161.492 150.038 159.301 162.497C154.851 187.837 176.329 197.573 172.332 219.463C168.334 241.354 128.913 247.138 128.913 247.138Z" fill="#141414"/>
<path d="M112.51 191.203L94.9219 237.47C94.9219 237.47 70.9697 234.681 76.5526 241.072C86.144 252.06 123.88 274.65 137.261 273.789C158.425 272.429 154.482 248.561 138.711 241.149L130.571 238.375L141.794 200.854L112.51 191.203Z" fill="white"/>
<path d="M156.581 175.356C157.648 181.149 157.675 187.247 155.707 192.801C153.738 198.355 149.605 203.293 144.086 205.407C139.301 207.229 133.823 206.792 129.095 204.823C124.367 202.854 120.348 199.455 117.068 195.538C112.018 197.326 105.867 195.243 102.961 190.757C101.281 188.169 100.693 184.731 102.062 181.968C103.431 179.205 107.037 177.557 109.832 178.873C111.426 179.623 112.559 181.153 114.181 181.835C115.99 182.598 118.148 182.148 119.779 181.057C121.411 179.966 122.581 178.314 123.514 176.591C126.465 171.106 127.323 164.738 125.931 158.668C126.062 159.234 129.089 160.091 129.627 160.272C130.984 160.728 132.379 161.067 133.795 161.284C136.591 161.715 139.439 161.688 142.227 161.205C143.64 160.962 145.03 160.601 146.382 160.123C147.454 159.745 148.844 158.735 149.986 158.722C152.374 158.696 153.085 163.033 153.662 164.709C154.852 168.193 155.914 171.732 156.581 175.356Z" fill="white"/>
<path d="M115.371 190.731C115.279 190.732 115.189 190.706 115.111 190.657C115.034 190.607 114.972 190.537 114.933 190.454C114.351 189.271 113.44 188.282 112.308 187.605C111.177 186.929 109.874 186.593 108.557 186.639C108.432 186.64 108.312 186.593 108.222 186.507C108.132 186.422 108.078 186.305 108.072 186.18C108.066 186.056 108.107 185.934 108.189 185.84C108.27 185.746 108.385 185.687 108.509 185.675C111.52 185.54 114.522 187.321 115.804 190.047C115.831 190.104 115.846 190.166 115.849 190.229C115.852 190.292 115.843 190.355 115.822 190.415C115.8 190.474 115.768 190.529 115.725 190.576C115.683 190.623 115.631 190.66 115.574 190.687C115.51 190.716 115.441 190.731 115.371 190.731Z" fill="#141414"/>
<path d="M146.438 361.035C146.323 361.034 146.213 360.992 146.126 360.918C146.039 360.843 145.982 360.739 145.964 360.626C145.947 360.513 145.97 360.397 146.03 360.299C146.09 360.202 146.182 360.129 146.291 360.093L152.467 358.126C152.527 358.106 152.591 358.099 152.654 358.105C152.717 358.11 152.778 358.128 152.835 358.157C152.891 358.186 152.941 358.225 152.982 358.274C153.023 358.322 153.053 358.378 153.073 358.438C153.092 358.499 153.099 358.562 153.094 358.625C153.089 358.688 153.071 358.75 153.042 358.806C153.013 358.862 152.973 358.912 152.925 358.953C152.876 358.994 152.82 359.024 152.76 359.044L146.582 361.011C146.536 361.027 146.487 361.036 146.438 361.035Z" fill="#141414"/>
<path d="M207.51 359.19C206.59 368.1 205.28 375.68 198.68 381.76C196.54 383.76 188.4 387.76 186.68 389.24C183.31 392.06 176.49 391.19 172.14 390.59C155.21 388.27 123.88 383.19 105.21 381.79L99.79 395.62C99.79 395.62 0.0399927 399.99 0.0399927 357.88C0.220277 348.089 1.56302 338.354 4.03999 328.88C5.74999 310.95 15.69 266.88 22.95 256.82C31.56 244.92 46.28 238.73 60.84 236.55C66.71 235.68 86.84 236.16 86.84 236.16C86.84 236.16 104.54 254.16 130.73 240.16C137.98 238.99 151.91 242.09 157.64 246.68C163.37 251.27 167.64 257.41 171.46 263.68C183.27 282.68 188.94 303.75 196.19 324.91C198.65 332.34 208.36 351.32 207.51 359.19Z" fill="url(#paint0_linear_120_81)"/>
<path d="M90.4379 389.151C89.6901 394.178 99.4564 395.997 99.4564 395.997H129.724L174.799 390.226C174.799 390.226 178.317 332.364 114.591 339.354C114.589 339.354 95.3627 356.021 90.4379 389.151Z" fill="white"/>
<path d="M141.601 390.932C141.577 390.935 141.554 390.935 141.531 390.932C141.468 390.923 141.407 390.902 141.353 390.87C141.298 390.838 141.25 390.795 141.212 390.744C141.174 390.693 141.147 390.635 141.131 390.574C141.116 390.512 141.112 390.449 141.122 390.386C141.594 387.162 140.835 383.575 138.985 380.292C137.43 377.538 135.134 374.941 131.963 372.351C131.365 371.826 130.699 371.385 129.982 371.039C129.88 370.98 129.804 370.885 129.768 370.773C129.732 370.66 129.738 370.539 129.785 370.431C129.833 370.323 129.918 370.237 130.026 370.187C130.133 370.138 130.254 370.13 130.367 370.165C131.166 370.545 131.909 371.034 132.573 371.619C135.841 374.283 138.211 376.969 139.825 379.831C141.78 383.302 142.58 387.103 142.077 390.541C142.056 390.652 141.997 390.751 141.91 390.823C141.823 390.894 141.713 390.933 141.601 390.932Z" fill="#141414"/>
<path d="M156.169 390.099C156.053 390.1 155.941 390.058 155.854 389.982C155.766 389.906 155.709 389.801 155.693 389.686C155.146 385.846 154.361 381.356 152.677 377.155C150.927 372.812 148.384 369.264 145.292 366.899C145.242 366.861 145.2 366.813 145.168 366.758C145.136 366.703 145.116 366.643 145.107 366.58C145.099 366.518 145.103 366.454 145.119 366.393C145.136 366.332 145.164 366.274 145.202 366.224C145.241 366.174 145.289 366.132 145.344 366.1C145.398 366.068 145.459 366.048 145.522 366.039C145.584 366.031 145.648 366.035 145.709 366.051C145.77 366.068 145.828 366.096 145.878 366.134C149.108 368.607 151.769 372.292 153.573 376.797C155.295 381.092 156.093 385.654 156.635 389.551C156.644 389.613 156.641 389.677 156.625 389.738C156.609 389.8 156.581 389.857 156.543 389.908C156.505 389.958 156.458 390.001 156.403 390.033C156.349 390.065 156.289 390.086 156.226 390.095L156.169 390.099Z" fill="#141414"/>
<path d="M167.84 390.099H167.783C167.656 390.084 167.541 390.018 167.462 389.917C167.383 389.817 167.347 389.689 167.361 389.562C169.329 373.186 158.553 362.965 158.444 362.864C158.35 362.778 158.295 362.657 158.29 362.529C158.285 362.402 158.331 362.277 158.418 362.184C158.505 362.09 158.626 362.035 158.754 362.03C158.882 362.025 159.006 362.071 159.1 362.158C159.213 362.263 170.342 372.799 168.319 389.678C168.304 389.794 168.247 389.901 168.159 389.979C168.071 390.056 167.958 390.099 167.84 390.099Z" fill="#141414"/>
<path d="M284.866 399H120.456C119.48 399.016 118.522 398.738 117.705 398.202C116.824 397.609 116.168 396.737 115.843 395.726C115.518 394.714 115.544 393.623 115.917 392.628C117.856 388.576 121.862 387.151 127.787 387.151H295.657L293.471 393.052C292.812 394.801 291.636 396.308 290.098 397.371C288.56 398.433 286.735 399.002 284.866 399Z" fill="#141414"/>
<path d="M285.797 399C287.402 399.001 288.971 398.521 290.301 397.623C291.631 396.725 292.661 395.449 293.258 393.96L322.363 321.173C322.742 320.22 322.882 319.189 322.77 318.17C322.659 317.151 322.298 316.175 321.722 315.327C321.145 314.48 320.368 313.786 319.461 313.308C318.554 312.83 317.543 312.582 316.517 312.585H215.473C212.505 312.58 209.607 313.495 207.179 315.203C204.752 316.911 202.913 319.329 201.915 322.124L174.602 399H285.797Z" fill="#141414"/>
<path d="M288.161 388.346H187.981C187.859 388.338 187.744 388.284 187.66 388.194C187.577 388.105 187.53 387.987 187.53 387.864C187.53 387.742 187.577 387.624 187.66 387.535C187.744 387.445 187.859 387.391 187.981 387.383H288.161C288.227 387.378 288.293 387.387 288.356 387.409C288.418 387.432 288.475 387.466 288.524 387.512C288.572 387.557 288.61 387.611 288.637 387.672C288.663 387.733 288.677 387.798 288.677 387.864C288.677 387.931 288.663 387.996 288.637 388.057C288.61 388.118 288.572 388.172 288.524 388.217C288.475 388.263 288.418 388.297 288.356 388.319C288.293 388.342 288.227 388.351 288.161 388.346Z" fill="white"/>
<path d="M83.3117 76.4874C83.4993 75.4532 83.4634 74.3908 83.2063 73.3715C82.9492 72.3523 82.4769 71.3999 81.8211 70.5781C81.1653 69.7564 80.3413 69.0845 79.4042 68.6074C78.4672 68.1303 77.4388 67.8591 76.3883 67.812C76.1836 64.7991 75.5267 61.8341 74.4398 59.0164C75.335 58.5425 76.1234 57.8902 76.7565 57.0998C77.3895 56.3094 77.8538 55.3977 78.1205 54.4209C78.3873 53.4442 78.4508 52.4231 78.3073 51.4208C78.1638 50.4186 77.8163 49.4563 77.2862 48.5936C76.756 47.7308 76.0546 46.9858 75.2252 46.4046C74.3957 45.8234 73.4559 45.4184 72.4637 45.2144C71.4715 45.0105 70.448 45.012 69.4564 45.219C68.4648 45.4259 67.5262 45.8338 66.6985 46.4175C66.4522 46.5905 66.217 46.7788 65.9943 46.9814C63.7088 44.9947 61.1385 43.3613 58.3689 42.1355C58.4601 41.849 58.5331 41.5569 58.5876 41.2612C58.8456 39.3583 58.3566 37.4294 57.2232 35.8789C56.0897 34.3284 54.3999 33.2766 52.5077 32.9439C50.6155 32.6113 48.668 33.0237 47.0733 34.0946C45.4786 35.1655 44.3605 36.8118 43.9534 38.6885C43.9035 38.9851 43.8706 39.2843 43.855 39.5847C40.8317 39.7893 37.856 40.445 35.0268 41.5301C34.5399 40.5937 33.8587 39.7718 33.0288 39.1195C32.1989 38.4671 31.2393 37.9991 30.2141 37.7468C29.1889 37.4946 28.1216 37.4637 27.0835 37.6565C26.0455 37.8492 25.0604 38.261 24.1942 38.8644C23.328 39.4679 22.6006 40.249 22.0604 41.1558C21.5202 42.0625 21.1797 43.074 21.0616 44.1227C20.9436 45.1715 21.0507 46.2333 21.3758 47.2373C21.7009 48.2414 22.2365 49.1646 22.9469 49.9454C20.955 52.22 19.3156 54.7804 18.0834 57.541C17.7964 57.4508 17.5044 57.3778 17.2087 57.3224C16.2439 57.1352 15.2516 57.1418 14.2894 57.3417C13.3272 57.5417 12.4144 57.931 11.6043 58.4871C10.7942 59.0432 10.1028 59.7548 9.57061 60.5806C9.03837 61.4063 8.67587 62.3297 8.50422 63.2969C8.33257 64.2641 8.35521 65.2558 8.57081 66.2142C8.78642 67.1725 9.19067 68.0784 9.76003 68.8791C10.3294 69.6797 11.0525 70.3591 11.8871 70.8777C12.7218 71.3962 13.6514 71.7436 14.6217 71.8995C14.9184 71.9494 15.2178 71.9822 15.5183 71.9978C15.7252 75.0116 16.3835 77.9772 17.4711 80.7956C17.2041 80.9355 16.9456 81.0909 16.697 81.2612C15.9001 81.8209 15.2212 82.5321 14.6993 83.354C14.1773 84.176 13.8225 85.0926 13.6549 86.0517C13.4874 87.0107 13.5105 87.9933 13.7229 88.9434C13.9353 89.8935 14.3328 90.7925 14.8928 91.5891C15.4528 92.3856 16.1643 93.0641 16.9866 93.5858C17.809 94.1075 18.7261 94.4622 19.6855 94.6297C20.645 94.7971 21.6281 94.774 22.5787 94.5617C23.5292 94.3494 24.4286 93.9521 25.2255 93.3923C25.4711 93.2183 25.7062 93.03 25.9297 92.8284C28.2144 94.8151 30.784 96.4485 33.5529 97.6743C33.4629 97.9612 33.3898 98.2531 33.3343 98.5486C33.1022 100.438 33.6047 102.345 34.7381 103.876C35.8715 105.406 37.5493 106.443 39.4254 106.773C41.3015 107.103 43.2327 106.701 44.8207 105.649C46.4087 104.598 47.5323 102.977 47.9597 101.121C48.0118 100.826 48.0446 100.527 48.0581 100.227C51.0822 100.023 54.0586 99.3672 56.8884 98.282C57.0278 98.5489 57.1841 98.8066 57.3564 99.0535C58.4906 100.646 60.208 101.727 62.1351 102.061C64.0623 102.395 66.0434 101.955 67.6479 100.837C69.2523 99.7189 70.3503 98.013 70.7033 96.0901C71.0562 94.1672 70.6355 92.1828 69.5326 90.5683C69.3577 90.3236 69.1686 90.0893 68.9662 89.8667C70.959 87.5927 72.5985 85.0322 73.8297 82.271C74.1164 82.3623 74.4085 82.4353 74.7044 82.4896C76.6417 82.8307 78.6352 82.3905 80.2484 81.2656C81.8617 80.1406 82.9632 78.4225 83.3117 76.4874ZM59.5498 72.2973C59.0835 74.987 57.8291 77.478 55.9454 79.4545C54.0617 81.4311 51.6334 82.8044 48.9682 83.4005C46.303 83.9965 43.5207 83.7885 40.9739 82.8028C38.4271 81.8171 36.2302 80.098 34.6616 77.8633C33.093 75.6287 32.2233 72.9789 32.1625 70.2498C32.1018 67.5206 32.8528 64.8348 34.3204 62.5326C35.788 60.2304 37.9062 58.4154 40.4066 57.3175C42.9071 56.2195 45.6773 55.888 48.3664 56.365C51.9599 57.0018 55.1545 59.0361 57.2506 62.0222C59.3466 65.0084 60.1734 68.7031 59.5498 72.2973Z" fill="white"/>
<path d="M40.6448 107.716C40.1815 107.716 39.7191 107.675 39.2627 107.596C38.241 107.417 37.2645 107.04 36.389 106.484C35.5135 105.928 34.7563 105.205 34.1606 104.356C33.5649 103.508 33.1424 102.55 32.9173 101.538C32.6922 100.526 32.6689 99.48 32.8488 98.459C32.8794 98.2907 32.9166 98.118 32.9625 97.9366C30.4212 96.7706 28.0507 95.2639 25.9166 93.4579C25.7701 93.576 25.6279 93.6765 25.4792 93.7814C23.7583 94.9774 21.6339 95.4443 19.5698 95.0802C17.5057 94.7162 15.6695 93.5507 14.462 91.8382C13.8667 90.9902 13.4447 90.033 13.2204 89.0215C12.9961 88.01 12.9738 86.9642 13.1548 85.9441C13.3359 84.924 13.7167 83.9497 14.2753 83.0771C14.834 82.2044 15.5596 81.4507 16.4105 80.859C16.5526 80.7607 16.7013 80.6645 16.8632 80.5705C15.8927 77.9553 15.2857 75.2194 15.059 72.4393C14.871 72.4219 14.696 72.3978 14.5255 72.3672C13.4823 72.2123 12.4807 71.8499 11.5801 71.3014C10.6795 70.7529 9.89809 70.0294 9.28207 69.1738C8.66606 68.3182 8.22796 67.3478 7.99369 66.32C7.75943 65.2922 7.73374 64.2278 7.91816 63.1899C8.10258 62.152 8.49337 61.1616 9.0674 60.2773C9.64143 59.393 10.3871 58.6328 11.2602 58.0415C12.1333 57.4502 13.1162 57.04 14.1507 56.835C15.1852 56.63 16.2503 56.6345 17.283 56.8481C17.4536 56.8787 17.6242 56.9158 17.8079 56.9617C18.9795 54.4281 20.4914 52.0661 22.3018 49.941C22.1837 49.7967 22.0831 49.6568 21.9781 49.5169C21.3825 48.6687 20.9605 47.7111 20.7361 46.6994C20.5118 45.6876 20.4896 44.6415 20.6708 43.6212C20.8521 42.6008 21.2332 41.6263 21.7923 40.7535C22.3514 39.8808 23.0774 39.127 23.9288 38.5355C25.6493 37.3397 27.7734 36.8728 29.8371 37.2369C31.9009 37.6009 33.7367 38.7664 34.9438 40.4787C35.0422 40.6186 35.1384 40.7672 35.2346 40.929C37.864 39.9596 40.6134 39.3529 43.4067 39.1257C43.4242 38.9399 43.4483 38.765 43.4789 38.5967C43.7563 37.0586 44.4831 35.6371 45.5677 34.5112C46.6523 33.3854 48.046 32.6057 49.5733 32.2705C51.1005 31.9353 52.6929 32.0595 54.1496 32.6275C55.6063 33.1955 56.8621 34.1819 57.7588 35.4623C58.3565 36.3069 58.7802 37.2619 59.0055 38.2716C59.2307 39.2814 59.253 40.3258 59.0709 41.3443C59.0403 41.5126 59.0031 41.6853 58.9572 41.8645C61.4948 43.0305 63.8622 44.5357 65.9943 46.3388C66.1409 46.2186 66.283 46.1202 66.4317 46.0131C68.1525 44.8178 70.2763 44.3513 72.3399 44.7154C74.4035 45.0794 76.2393 46.2444 77.4467 47.9563C78.0424 48.8044 78.4646 49.7618 78.6891 50.7735C78.9136 51.7852 78.936 52.8313 78.755 53.8516C78.5739 54.872 78.193 55.8465 77.6342 56.7193C77.0753 57.5922 76.3494 58.346 75.4982 58.9377C75.3583 59.0339 75.2096 59.1301 75.0478 59.2262C76.0164 61.8412 76.6233 64.5761 76.8519 67.3552C77.0399 67.3749 77.2149 67.3989 77.3833 67.4273C78.4272 67.5813 79.4295 67.943 80.3311 68.4911C81.2326 69.0392 82.0149 69.7626 82.6317 70.6183C83.2485 71.474 83.6873 72.4448 83.9221 73.473C84.1568 74.5013 84.1828 75.5662 83.9984 76.6047C83.814 77.6431 83.4231 78.6341 82.8487 79.5188C82.2743 80.4036 81.5281 81.1641 80.6544 81.7555C79.7806 82.3468 78.797 82.7569 77.7619 82.9615C76.7267 83.166 75.661 83.1609 74.6279 82.9464C74.4595 82.9158 74.2846 82.8787 74.1009 82.8328C72.9319 85.3721 71.4207 87.7394 69.6092 89.8689C69.7272 90.0131 69.8278 90.153 69.9328 90.2929C70.5281 91.141 70.9501 92.0982 71.1744 93.1097C71.3987 94.1211 71.421 95.1669 71.24 96.187C71.059 97.2071 70.6782 98.1814 70.1195 99.0541C69.5608 99.9267 68.8352 100.68 67.9843 101.272C66.2636 102.469 64.1391 102.936 62.0748 102.572C60.0105 102.208 58.1743 101.042 56.9672 99.329C56.8688 99.1891 56.7725 99.0404 56.6763 98.8787C54.0492 99.845 51.303 100.45 48.5129 100.678C48.4955 100.863 48.4714 101.038 48.4408 101.207C48.1119 103.033 47.1507 104.686 45.7255 105.876C44.3003 107.066 42.5018 107.717 40.6448 107.716ZM25.9166 92.341C26.0324 92.341 26.1442 92.3829 26.2315 92.459C28.4837 94.4151 31.0164 96.0228 33.7454 97.2284C33.8534 97.2758 33.9401 97.3613 33.9889 97.4686C34.0377 97.5758 34.0452 97.6974 34.01 97.8098C33.9262 98.0781 33.8583 98.3511 33.8066 98.6273C33.649 99.523 33.6694 100.441 33.8668 101.329C34.0642 102.217 34.4346 103.057 34.9569 103.802C35.4792 104.546 36.1431 105.181 36.9108 105.669C37.6785 106.157 38.5349 106.49 39.4311 106.647C41.2423 106.965 43.106 106.554 44.6148 105.503C46.1235 104.452 47.1547 102.847 47.483 101.038C47.5299 100.761 47.5605 100.482 47.5748 100.201C47.5807 100.085 47.6281 99.9756 47.7085 99.8921C47.7889 99.8086 47.8967 99.7568 48.0122 99.7465C50.9896 99.5455 53.9202 98.9009 56.7069 97.8339C56.816 97.7915 56.9368 97.7903 57.0467 97.8306C57.1566 97.8708 57.248 97.9497 57.3039 98.0525C57.7617 98.9247 58.4007 99.6891 59.1781 100.294C59.9555 100.9 60.8534 101.332 61.8115 101.562C62.7696 101.792 63.766 101.815 64.7336 101.629C65.7013 101.443 66.618 101.052 67.4223 100.483C68.1689 99.9635 68.8056 99.3018 69.2958 98.5358C69.786 97.7698 70.1201 96.9146 70.279 96.0193C70.4378 95.124 70.4183 94.2062 70.2216 93.3184C70.0248 92.4306 69.6547 91.5904 69.1324 90.8459C68.9701 90.6163 68.7933 90.3973 68.6032 90.1902C68.5254 90.1016 68.4825 89.9878 68.4825 89.87C68.4825 89.7521 68.5254 89.6383 68.6032 89.5497C70.5648 87.3119 72.1785 84.7919 73.3902 82.0743C73.4382 81.9675 73.5235 81.8818 73.6301 81.8331C73.7367 81.7845 73.8574 81.7762 73.9697 81.8098C74.2387 81.8939 74.5126 81.9617 74.7897 82.0131C76.6009 82.3315 78.4646 81.9202 79.9734 80.8692C81.4822 79.8183 82.5134 78.213 82.8416 76.4044C82.9991 75.508 82.9785 74.5895 82.7807 73.7011C82.5829 72.8128 82.212 71.9721 81.6891 71.2272C81.1661 70.4822 80.5014 69.8475 79.733 69.3594C78.9645 68.8713 78.1074 68.5394 77.2105 68.3825C76.9326 68.3362 76.6522 68.3063 76.3708 68.2929C76.2534 68.2863 76.1425 68.2371 76.0588 68.1546C75.975 68.0722 75.9243 67.962 75.9159 67.8448C75.7099 64.8782 75.0582 61.9595 73.9828 59.1869C73.9403 59.0775 73.939 58.9565 73.9792 58.8463C74.0195 58.736 74.0985 58.6442 74.2015 58.588C74.4516 58.4574 74.6933 58.3114 74.9253 58.1508C75.6723 57.6331 76.3096 56.973 76.8008 56.2085C77.292 55.444 77.6274 54.5901 77.7877 53.6958C77.948 52.8015 77.93 51.8843 77.7349 50.9969C77.5398 50.1095 77.1714 49.2693 76.6507 48.5246C75.5912 47.0227 73.981 46 72.1707 45.6791C70.3605 45.3581 68.4966 45.7649 66.985 46.8109C66.7556 46.9728 66.5365 47.1487 66.3289 47.3377C66.2407 47.4153 66.1272 47.4581 66.0096 47.4581C65.8921 47.4581 65.7786 47.4153 65.6904 47.3377C63.4421 45.3819 60.9129 43.7742 58.1874 42.5683C58.0797 42.5206 57.9931 42.4351 57.9439 42.3281C57.8948 42.221 57.8865 42.0997 57.9206 41.9869C58.0044 41.7186 58.0723 41.4456 58.124 41.1694C58.2821 40.2731 58.2619 39.3545 58.0643 38.4661C57.8668 37.5777 57.4959 36.737 56.9728 35.992C56.4498 35.2471 55.7848 34.6126 55.0161 34.1249C54.2474 33.6372 53.39 33.3058 52.4929 33.1497C50.6816 32.8302 48.8173 33.241 47.3082 34.2921C45.7992 35.3433 44.7682 36.9493 44.4411 38.7585C44.394 39.0347 44.3641 39.3135 44.3514 39.5934C44.3453 39.7115 44.296 39.8232 44.213 39.9074C44.13 39.9916 44.019 40.0424 43.9009 40.0503C40.9209 40.2504 37.9877 40.8966 35.1996 41.9672C35.0902 42.0092 34.9692 42.0103 34.8591 41.9701C34.7489 41.9299 34.6571 41.8512 34.6004 41.7486C34.469 41.4998 34.323 41.2589 34.1631 41.0273C33.1024 39.5239 31.4899 38.5009 29.6774 38.1815C27.865 37.8621 25.9996 38.2722 24.4886 39.3224C23.7413 39.8416 23.104 40.5032 22.6132 41.2693C22.1224 42.0354 21.7879 42.8908 21.6288 43.7865C21.4697 44.6822 21.4891 45.6004 21.6861 46.4885C21.883 47.3766 22.2535 48.2171 22.7763 48.9617C22.9397 49.1905 23.1164 49.4094 23.3055 49.6175C23.3842 49.7056 23.4277 49.8196 23.4277 49.9377C23.4277 50.0558 23.3842 50.1698 23.3055 50.2579C21.347 52.4943 19.7356 55.012 18.5251 57.7268C18.4774 57.8344 18.3918 57.9208 18.2846 57.9695C18.1774 58.0182 18.056 58.026 17.9434 57.9913C17.0046 57.6994 16.0144 57.6109 15.0386 57.7315C14.0629 57.8521 13.1241 58.1792 12.2847 58.6908C11.4453 59.2024 10.7246 59.887 10.1705 60.6988C9.61648 61.5106 9.24184 62.4311 9.07154 63.3989C8.9134 64.2952 8.93367 65.2138 9.13121 66.1022C9.32874 66.9906 9.69966 67.8313 10.2227 68.5763C10.7458 69.3212 11.4107 69.9557 12.1794 70.4434C12.9481 70.9312 13.8056 71.2625 14.7026 71.4186C14.9811 71.4661 15.2623 71.4967 15.5445 71.5104C15.6618 71.5166 15.7727 71.5657 15.8562 71.6483C15.9397 71.7309 15.9898 71.8413 15.9972 71.9585C16.2 74.9237 16.848 77.8416 17.9194 80.6142C17.962 80.7239 17.9634 80.8453 17.9232 80.9559C17.8829 81.0664 17.8039 81.1586 17.7007 81.2153C17.4506 81.3447 17.2095 81.4907 16.9791 81.6525C16.2319 82.1713 15.5947 82.8325 15.104 83.5982C14.6132 84.3639 14.2787 85.2189 14.1196 86.1143C13.9605 87.0096 13.9799 87.9275 14.1768 88.8153C14.3737 89.703 14.7441 90.5432 15.2668 91.2874C16.3278 92.791 17.9407 93.8141 19.7535 94.1335C21.5664 94.4529 23.432 94.0427 24.9434 92.9924C25.1729 92.8306 25.392 92.6547 25.5995 92.4656C25.6865 92.387 25.7993 92.3427 25.9166 92.341ZM45.9631 84.1377C45.1266 84.1371 44.2918 84.0639 43.468 83.9191C39.845 83.278 36.6093 81.2641 34.4353 78.2971C32.2613 75.3301 31.3168 71.639 31.7985 67.993C32.2803 64.3471 34.1512 61.0277 37.0214 58.7266C39.8915 56.4255 43.5393 55.3203 47.2046 55.6414C50.8699 55.9625 54.2698 57.6851 56.6957 60.4501C59.1216 63.2151 60.3863 66.8092 60.2262 70.4833C60.0662 74.1575 58.4937 77.6281 55.8365 80.1719C53.1793 82.7157 49.6424 84.1363 45.9631 84.1377ZM45.9478 56.6426C42.8256 56.6442 39.8031 57.7417 37.4078 59.7436C35.0125 61.7454 33.3967 64.5245 32.8422 67.5956C32.5397 69.3135 32.5789 71.0742 32.9577 72.777C33.3365 74.4797 34.0473 76.0912 35.0496 77.5191C36.0519 78.947 37.326 80.1635 38.799 81.0989C40.272 82.0343 41.9151 82.6703 43.6342 82.9705C47.1062 83.5834 50.6798 82.796 53.5723 80.7808C56.4648 78.7656 58.4404 75.6867 59.0665 72.2186C59.3715 70.4996 59.3342 68.7374 58.9565 67.0329C58.5789 65.3285 57.8685 63.7152 56.8659 62.2857C55.8633 60.8562 54.5884 59.6385 53.1141 58.7024C51.6399 57.7663 49.9953 57.1302 48.2746 56.8306C47.5061 56.6981 46.7276 56.633 45.9478 56.6361V56.6426Z" fill="#141414"/>
<path d="M108.572 27.749L108.549 27.8807C108.457 28.3125 108.282 28.7228 108.033 29.0886C107.759 29.491 107.402 29.8303 106.986 30.0838C106.571 30.3373 106.106 30.4991 105.622 30.5583C105.139 30.6176 104.648 30.5729 104.184 30.4274L103.802 30.3077L103.638 30.6734C103.011 32.0782 102.177 33.381 101.163 34.5385L100.898 34.841L101.169 35.1382C101.262 35.2401 101.349 35.3472 101.43 35.4591C101.931 36.2061 102.119 37.12 101.954 38.0044C101.789 38.891 101.281 39.677 100.54 40.1928C99.8 40.7085 98.8864 40.9127 97.9967 40.7611C97.1083 40.6098 96.3149 40.1158 95.7873 39.3857C95.7088 39.2729 95.6373 39.1554 95.5733 39.0339L95.3872 38.6807L95.0143 38.8234C93.5736 39.3749 92.0587 39.7086 90.5195 39.8133L90.1188 39.8406L90.1006 40.2418C90.0943 40.3793 90.0796 40.5162 90.0566 40.6518C89.9727 41.1104 89.7962 41.5472 89.538 41.9356C89.2793 42.3246 88.9439 42.6568 88.5524 42.9119C88.1609 43.1671 87.7214 43.3398 87.2608 43.4194C86.8003 43.4991 86.3283 43.484 85.8738 43.3752C85.4192 43.2664 84.9916 43.0661 84.6172 42.7866C84.2427 42.507 83.9292 42.1541 83.6958 41.7494C83.4624 41.3447 83.3141 40.8967 83.2597 40.4328C83.2054 39.9688 83.2463 39.4987 83.3799 39.0511L83.4934 38.6709L83.1304 38.5107C81.7173 37.8871 80.4058 37.0552 79.2397 36.0427L78.9365 35.7795L78.6406 36.0508C78.5393 36.1436 78.4319 36.2294 78.3189 36.3076L78.3103 36.3136L78.3019 36.32C77.9341 36.601 77.5132 36.8047 77.0645 36.9189C76.6159 37.0331 76.1488 37.0553 75.6913 36.9843C75.2338 36.9133 74.7954 36.7505 74.4026 36.5057C74.0097 36.2609 73.6704 35.9393 73.4052 35.56C73.14 35.1808 72.9543 34.7519 72.8593 34.299C72.7643 33.8462 72.762 33.3789 72.8524 32.9251C72.9428 32.4714 73.1242 32.0406 73.3856 31.6587C73.6469 31.2768 73.9829 30.9517 74.3733 30.703L74.3804 30.6985L74.3873 30.6937C74.5009 30.6152 74.6194 30.5441 74.7422 30.4809L75.1016 30.2956L74.9557 29.9185C74.4013 28.4849 74.0661 26.976 73.9616 25.4426L73.9344 25.0437L73.5351 25.0238C73.3961 25.0168 73.2578 25.0014 73.1207 24.9776C72.661 24.8953 72.223 24.72 71.8336 24.4624C71.444 24.2046 71.1111 23.8699 70.8556 23.4789C70.6001 23.0878 70.4273 22.6487 70.3479 22.1885C70.2684 21.7283 70.2839 21.2567 70.3935 20.8027C70.503 20.3488 70.7043 19.9219 70.985 19.5485C71.2656 19.1751 71.6197 18.863 72.0255 18.6314C72.4313 18.3998 72.8802 18.2535 73.3446 18.2017C73.8091 18.1498 74.2792 18.1934 74.7261 18.3298L75.1068 18.446L75.2686 18.0824C75.8938 16.6773 76.726 15.3737 77.7376 14.2151L78.0033 13.9107L77.7292 13.6138C77.6364 13.5134 77.5507 13.4067 77.4725 13.2946L77.4725 13.2945C77.2145 12.9245 77.032 12.5073 76.9354 12.0668C76.8387 11.6263 76.8298 11.1711 76.9091 10.7272C77.0694 9.83059 77.5794 9.0343 78.3271 8.51351C78.6973 8.25565 79.1148 8.07319 79.5556 7.97656C79.9963 7.87992 80.4519 7.87102 80.8961 7.95035C81.3403 8.02968 81.7646 8.19569 82.1446 8.43888C82.5243 8.68184 82.8523 8.99707 83.1102 9.36662C83.1894 9.4818 83.2619 9.60149 83.3272 9.72508L83.5137 10.0777L83.8861 9.93492C85.3264 9.38268 86.8413 9.04906 88.3805 8.94514L88.7789 8.91824L88.7996 8.51941C88.8067 8.38061 88.8215 8.24232 88.8439 8.10516C88.9279 7.64707 89.1043 7.21081 89.3623 6.8229C89.621 6.43387 89.9563 6.10163 90.3478 5.8465C90.7394 5.59136 91.1788 5.41869 91.6394 5.33904C92.1 5.25938 92.5719 5.27442 93.0265 5.38324C93.481 5.49205 93.9086 5.69235 94.283 5.97189C94.6575 6.25143 94.971 6.60433 95.2044 7.00903C95.4378 7.41373 95.5862 7.86174 95.6405 8.32568C95.6948 8.78962 95.6539 9.25975 95.5203 9.70736L95.4067 10.088L95.7703 10.248C97.1833 10.8696 98.4948 11.7001 99.6607 12.7115L99.9606 12.9716L100.256 12.7066C100.36 12.613 100.47 12.5254 100.584 12.4444C100.953 12.186 101.369 12.0026 101.809 11.9048C102.249 11.8069 102.704 11.7967 103.148 11.8745C103.592 11.9524 104.016 12.117 104.397 12.3587C104.777 12.6005 105.106 12.9148 105.365 13.2836C105.624 13.6525 105.807 14.0686 105.905 14.5084C106.003 14.9481 106.013 15.4028 105.935 15.8465C105.858 16.2902 105.693 16.7143 105.451 17.0944C105.209 17.4744 104.895 17.803 104.526 18.0617C104.413 18.1407 104.294 18.2124 104.172 18.2763L103.815 18.4618L103.959 18.8368C104.51 20.2709 104.842 21.7798 104.943 23.3126L104.969 23.7124L105.369 23.7325C105.855 23.7569 106.33 23.8842 106.762 24.1059C107.194 24.3277 107.575 24.6388 107.878 25.0187C108.18 25.3986 108.399 25.8385 108.519 26.3092C108.639 26.7799 108.657 27.2707 108.572 27.749ZM97.0093 25.719L97.016 25.6806V25.6709C97.3504 23.684 96.8884 21.6448 95.7292 19.9952C94.5624 18.3349 92.7846 17.2049 90.7856 16.853L90.7855 16.853C89.2918 16.5903 87.7537 16.7764 86.3658 17.3877C84.9779 17.999 83.8026 19.008 82.9886 20.2872C82.1745 21.5663 81.7583 23.0581 81.7927 24.5738C81.827 26.0894 82.3104 27.5608 83.1816 28.8018C84.0527 30.0428 85.2726 30.9976 86.6867 31.5454C88.1009 32.0933 89.6458 32.2095 91.1261 31.8795C92.6063 31.5495 93.9554 30.7881 95.0027 29.6915C96.0499 28.5949 96.7483 27.2124 97.0093 25.719Z" fill="white" stroke="#141414" stroke-width="0.9"/>
<path d="M554.289 316.016C554.827 312.561 555.221 309.181 555.877 305.756C560.946 279.286 575.794 278.937 575.645 258.034C575.621 254.825 575.512 239.361 564.56 232.272C562.796 231.131 558.238 228.106 553.29 229.505C547.344 231.188 544.562 238.187 541.343 246.611C540.263 249.439 537.26 257.774 535.397 275.433C534.522 283.787 534.253 290.773 534.183 295.66L534.122 300.311C534.122 300.311 546.434 318.797 545.911 331.568C550.427 324.491 553.784 319.922 553.784 319.922L554.289 316.016Z" fill="white"/>
<path d="M554.291 316.499C554.266 316.502 554.242 316.502 554.217 316.499C554.154 316.49 554.094 316.468 554.04 316.435C553.986 316.402 553.938 316.359 553.901 316.308C553.864 316.256 553.837 316.198 553.822 316.137C553.807 316.075 553.805 316.011 553.814 315.949C553.998 314.766 554.164 313.592 554.331 312.423C554.645 310.215 554.969 307.933 555.402 305.671C557.906 292.607 562.767 285.859 567.058 279.905C571.447 273.813 575.237 268.554 575.162 258.047C575.079 246.174 571.226 237.166 564.298 232.692L564.213 232.637C562.378 231.448 558.09 228.668 553.421 229.984C547.586 231.634 544.772 239 541.794 246.799C539.145 253.728 537.155 263.382 535.876 275.498C535.17 282.196 534.761 288.987 534.665 295.684C534.663 295.811 534.611 295.931 534.521 296.02C534.431 296.109 534.31 296.158 534.183 296.158C534.055 296.156 533.934 296.103 533.844 296.012C533.755 295.92 533.706 295.797 533.707 295.669C533.805 288.945 534.214 282.117 534.925 275.398C536.211 263.199 538.222 253.461 540.899 246.454C543.961 238.425 546.865 230.838 553.165 229.057C558.249 227.619 562.966 230.676 564.755 231.828L564.838 231.883C572.055 236.545 576.059 245.837 576.144 258.047C576.221 268.871 572.346 274.25 567.858 280.478C563.627 286.349 558.831 293.004 556.369 305.861C555.931 308.102 555.614 310.37 555.304 312.567C555.135 313.741 554.969 314.919 554.783 316.106C554.762 316.22 554.7 316.322 554.61 316.394C554.52 316.466 554.407 316.504 554.291 316.499Z" fill="#141414"/>
<path d="M544.405 314.974C544.289 314.974 544.178 314.932 544.091 314.857C544.003 314.782 543.946 314.679 543.928 314.565L543.735 313.317C543.079 309.146 542.423 304.834 542.46 299.529C542.522 291.804 544.367 285.321 545.848 280.115C546.025 279.492 546.198 278.891 546.357 278.309C547.352 274.733 548.155 272.482 549.172 269.636C549.883 267.645 550.687 265.389 551.722 262.204C553.97 255.299 555.955 248.156 557.626 240.976C557.64 240.914 557.667 240.856 557.704 240.805C557.74 240.753 557.787 240.71 557.841 240.676C557.894 240.643 557.954 240.621 558.017 240.61C558.079 240.6 558.143 240.602 558.204 240.616C558.266 240.631 558.324 240.657 558.376 240.694C558.427 240.731 558.471 240.777 558.504 240.831C558.538 240.885 558.56 240.944 558.57 241.007C558.581 241.069 558.579 241.133 558.564 241.195C556.891 248.408 554.899 255.57 552.642 262.502C551.601 265.695 550.794 267.966 550.082 269.955C549.071 272.784 548.275 275.02 547.289 278.561C547.127 279.144 546.957 279.75 546.777 280.373C545.312 285.527 543.497 291.938 543.427 299.531C543.386 304.757 544.048 309.033 544.691 313.166L544.884 314.416C544.893 314.479 544.89 314.543 544.875 314.604C544.86 314.666 544.833 314.724 544.795 314.775C544.758 314.826 544.71 314.869 544.656 314.901C544.602 314.934 544.542 314.956 544.479 314.965C544.454 314.97 544.43 314.973 544.405 314.974Z" fill="#141414"/>
<path d="M552.181 262.838C552.087 262.836 551.996 262.807 551.918 262.754C551.841 262.702 551.78 262.627 551.744 262.541L549.157 256.318C549.132 256.259 549.119 256.197 549.119 256.133C549.119 256.07 549.132 256.007 549.156 255.948C549.18 255.89 549.215 255.836 549.26 255.791C549.305 255.746 549.358 255.711 549.417 255.686C549.475 255.662 549.538 255.649 549.602 255.649C549.665 255.649 549.728 255.661 549.787 255.686C549.845 255.71 549.899 255.745 549.944 255.79C549.989 255.835 550.024 255.888 550.049 255.946L552.636 262.172C552.684 262.29 552.684 262.423 552.636 262.541C552.587 262.659 552.493 262.754 552.376 262.803C552.314 262.828 552.247 262.839 552.181 262.838Z" fill="#141414"/>
<path d="M547.567 276.377C547.454 276.377 547.344 276.338 547.258 276.266C547.171 276.194 547.112 276.094 547.092 275.983C547.071 275.872 547.091 275.757 547.146 275.659C547.202 275.561 547.29 275.486 547.396 275.446C551.094 274.045 557.092 271.73 557.762 271.354C557.837 271.284 557.933 271.239 558.035 271.225C558.162 271.211 558.289 271.247 558.389 271.326C558.49 271.405 558.555 271.52 558.571 271.647C558.63 272.141 558.639 272.215 547.737 276.346C547.683 276.367 547.625 276.378 547.567 276.377ZM557.615 271.63C557.61 271.673 557.61 271.717 557.615 271.761C557.608 271.713 557.608 271.664 557.615 271.616V271.63Z" fill="#141414"/>
<path d="M535.703 291.592C535.622 291.592 535.543 291.572 535.473 291.534C535.402 291.496 535.342 291.441 535.298 291.374L531.768 286.027C531.734 285.975 531.71 285.915 531.697 285.853C531.685 285.791 531.686 285.727 531.698 285.665C531.711 285.603 531.736 285.544 531.771 285.492C531.807 285.439 531.852 285.394 531.905 285.36C531.958 285.325 532.017 285.301 532.079 285.289C532.142 285.277 532.205 285.277 532.268 285.29C532.33 285.302 532.389 285.327 532.441 285.362C532.493 285.398 532.538 285.443 532.573 285.496L536.105 290.843C536.175 290.95 536.2 291.08 536.175 291.206C536.149 291.331 536.074 291.441 535.967 291.511C535.889 291.564 535.797 291.593 535.703 291.592Z" fill="#141414"/>
<path d="M543.797 311.004C543.679 311.005 543.565 310.961 543.477 310.882C543.43 310.84 543.392 310.789 543.364 310.732C543.336 310.675 543.32 310.613 543.317 310.55C543.313 310.487 543.322 310.424 543.343 310.364C543.363 310.304 543.396 310.249 543.438 310.202L549.78 303.081C549.865 302.986 549.984 302.928 550.112 302.92C550.239 302.913 550.364 302.957 550.46 303.042C550.555 303.126 550.613 303.246 550.62 303.373C550.628 303.501 550.584 303.626 550.499 303.721L544.157 310.843C544.112 310.894 544.057 310.934 543.994 310.962C543.932 310.99 543.865 311.004 543.797 311.004Z" fill="#141414"/>
<path d="M533.357 354.36C532.849 350.242 531.959 345.459 530.042 340.495C518.744 311.258 483.734 306.644 483.093 285.505C483.038 283.643 482.959 278.657 486.428 275.669C491.457 271.332 501.491 273.321 506.936 275.409C508.302 275.945 509.63 276.573 510.911 277.289C517.524 281.125 541.131 300.746 546.064 327.562L546.64 330.528C546.64 330.528 538.218 346.167 536.23 356.583C536.086 357.201 535.336 357.439 535.336 357.439H533.547L533.357 354.36Z" fill="white"/>
<path d="M533.357 354.847C533.239 354.847 533.126 354.805 533.037 354.727C532.949 354.649 532.892 354.542 532.878 354.425C532.222 349.179 531.19 344.808 529.598 340.674C523.975 326.128 512.387 317.702 502.164 310.268C491.849 302.766 482.942 296.279 482.616 285.527C482.564 283.791 482.397 278.51 486.115 275.308C491.438 270.718 501.816 272.934 507.108 274.965C508.499 275.508 509.85 276.147 511.152 276.878C516.945 280.237 541.446 299.8 546.539 327.472C546.554 327.536 546.557 327.602 546.546 327.667C546.535 327.732 546.511 327.794 546.475 327.849C546.439 327.904 546.392 327.951 546.338 327.988C546.283 328.024 546.222 328.049 546.157 328.061C546.092 328.073 546.026 328.072 545.962 328.057C545.898 328.042 545.837 328.015 545.784 327.976C545.731 327.937 545.686 327.888 545.653 327.832C545.62 327.775 545.598 327.712 545.59 327.647C540.56 300.325 516.385 281.026 510.669 277.71C509.41 277.008 508.105 276.391 506.763 275.863C502.02 274.045 491.731 271.739 486.743 276.038C483.377 278.939 483.526 283.874 483.576 285.496C483.887 295.787 492.619 302.137 502.728 309.487C513.059 317 524.769 325.516 530.501 340.327C532.126 344.534 533.188 348.976 533.844 354.316C533.86 354.443 533.824 354.571 533.746 354.671C533.667 354.772 533.551 354.838 533.425 354.854L533.357 354.847Z" fill="#141414"/>
<path d="M540.234 339.581C540.129 339.581 540.027 339.546 539.943 339.482C539.859 339.418 539.799 339.329 539.771 339.227C533.158 315.278 518.72 295.815 499.122 284.425C498.247 283.92 498.118 283.844 498.029 283.662C497.974 283.558 497.958 283.438 497.986 283.323C498.013 283.209 498.082 283.108 498.178 283.04C498.274 282.973 498.392 282.943 498.509 282.956C498.626 282.969 498.735 283.024 498.814 283.111C498.912 283.186 499.251 283.383 499.612 283.592C519.431 295.109 534.026 314.777 540.707 338.972C540.724 339.033 540.728 339.096 540.721 339.159C540.713 339.222 540.693 339.283 540.661 339.338C540.63 339.393 540.588 339.441 540.538 339.48C540.488 339.519 540.431 339.547 540.37 339.564C540.326 339.576 540.28 339.582 540.234 339.581Z" fill="#141414"/>
<path d="M504.913 297.579C504.787 297.584 504.665 297.54 504.571 297.456C504.478 297.372 504.421 297.255 504.413 297.129C504.405 297.004 504.446 296.88 504.528 296.785C504.61 296.69 504.726 296.63 504.852 296.62L514.964 295.345C515.087 295.336 515.21 295.375 515.306 295.453C515.401 295.532 515.464 295.644 515.479 295.767C515.494 295.89 515.462 296.014 515.388 296.114C515.315 296.213 515.206 296.281 515.084 296.303L504.972 297.575L504.913 297.579Z" fill="#141414"/>
<path d="M524.332 306.801H524.29C524.163 306.789 524.046 306.728 523.964 306.63C523.882 306.532 523.842 306.406 523.853 306.279L524.76 295.787C524.765 295.724 524.782 295.662 524.811 295.606C524.84 295.549 524.88 295.499 524.928 295.459C524.977 295.418 525.033 295.387 525.094 295.369C525.154 295.35 525.218 295.343 525.281 295.35C525.408 295.361 525.525 295.423 525.607 295.521C525.689 295.619 525.729 295.745 525.718 295.872L524.811 306.364C524.799 306.483 524.744 306.594 524.656 306.675C524.567 306.756 524.452 306.801 524.332 306.801Z" fill="#141414"/>
<path d="M536.311 328.021C536.245 328.02 536.18 328.007 536.119 327.981L530.586 325.557C530.487 325.496 530.414 325.4 530.379 325.289C530.345 325.177 530.352 325.057 530.4 324.951C530.447 324.844 530.532 324.758 530.637 324.709C530.743 324.66 530.863 324.651 530.975 324.683L536.506 327.118C536.608 327.162 536.691 327.24 536.742 327.338C536.794 327.437 536.809 327.55 536.786 327.659C536.763 327.767 536.703 327.865 536.617 327.934C536.53 328.004 536.422 328.041 536.311 328.04V328.021Z" fill="#141414"/>
<path d="M594.354 300.924C593.577 300.436 590.032 298.368 582.643 299.955C567.598 303.184 555.783 317.442 554.652 318.847C535.517 342.454 532.064 372.771 536.003 374.124C536.899 374.43 540.234 370.626 546.867 362.976C563.207 344.148 562.984 344.327 564.184 342.991C583.175 321.877 600.35 319.47 599.499 309.046C599.202 305.551 596.783 302.447 594.354 300.924Z" fill="white"/>
<path d="M536.11 374.624C536.016 374.625 535.923 374.609 535.834 374.578C535.231 374.37 534.776 373.745 534.481 372.72C532.594 366.143 537.046 339.776 554.265 318.543C555.577 316.934 567.458 302.72 582.538 299.483C589.536 297.979 593.31 299.702 594.605 300.515C597.054 302.045 599.661 305.267 599.967 309.004C600.448 314.906 595.48 318.318 587.959 323.494C581.399 328.003 573.244 333.619 564.53 343.31C564.029 343.868 563.775 344.161 562.448 345.699C560.583 347.861 556.699 352.36 547.219 363.286C539.379 372.32 537.278 374.624 536.11 374.624ZM587.773 299.85C586.081 299.865 584.395 300.057 582.744 300.425C567.987 303.592 556.301 317.568 555.017 319.151C538.01 340.134 533.567 366.021 535.412 372.454C535.6 373.109 535.85 373.546 536.123 373.656C537.057 373.529 541.227 368.725 546.493 362.655C555.975 351.726 559.857 347.232 561.722 345.07C563.058 343.522 563.312 343.227 563.817 342.666C572.608 332.891 581.167 327 587.417 322.698C594.918 317.538 599.445 314.423 599.007 309.081C598.729 305.678 596.341 302.742 594.096 301.332C593.247 300.801 591.242 299.85 587.773 299.85Z" fill="#141414"/>
<path d="M541.229 359.352C541.174 359.352 541.119 359.342 541.068 359.323C541.008 359.302 540.953 359.27 540.906 359.228C540.859 359.185 540.821 359.134 540.794 359.077C540.766 359.02 540.751 358.958 540.747 358.895C540.744 358.832 540.753 358.769 540.774 358.709C545.325 345.785 554.91 327.863 574.729 315.896C579.783 312.855 585.162 310.389 590.765 308.545C590.825 308.525 590.888 308.517 590.952 308.522C591.015 308.527 591.076 308.543 591.133 308.572C591.189 308.6 591.24 308.639 591.281 308.687C591.323 308.735 591.354 308.79 591.374 308.85C591.394 308.91 591.402 308.974 591.397 309.037C591.393 309.1 591.376 309.161 591.348 309.218C591.319 309.274 591.28 309.325 591.232 309.366C591.185 309.407 591.129 309.439 591.069 309.459C585.534 311.282 580.221 313.717 575.228 316.72C555.654 328.541 546.182 346.252 541.684 359.031C541.651 359.124 541.589 359.205 541.507 359.263C541.426 359.32 541.329 359.351 541.229 359.352Z" fill="#141414"/>
<path d="M578.156 314.974C578.129 314.976 578.102 314.976 578.075 314.974C578.012 314.963 577.953 314.941 577.899 314.907C577.845 314.874 577.798 314.83 577.762 314.778C577.725 314.727 577.699 314.668 577.684 314.607C577.67 314.545 577.668 314.481 577.679 314.419C578.088 311.99 578.735 307.986 578.735 307.579C578.744 307.457 578.798 307.342 578.887 307.259C578.977 307.175 579.095 307.129 579.218 307.129C579.34 307.129 579.458 307.175 579.548 307.259C579.637 307.342 579.692 307.457 579.7 307.579C579.7 308.187 578.808 313.516 578.63 314.574C578.611 314.686 578.553 314.787 578.466 314.86C578.379 314.933 578.269 314.973 578.156 314.974Z" fill="#141414"/>
<path d="M575.068 323.299L566.072 323.094C565.949 323.084 565.835 323.029 565.752 322.938C565.67 322.848 565.624 322.729 565.626 322.607C565.627 322.484 565.675 322.367 565.76 322.278C565.845 322.19 565.96 322.137 566.082 322.13L575.079 322.335C575.201 322.345 575.315 322.401 575.398 322.491C575.481 322.581 575.526 322.7 575.525 322.823C575.523 322.945 575.475 323.063 575.391 323.151C575.306 323.24 575.191 323.293 575.068 323.299Z" fill="#141414"/>
<path d="M554.963 334.384C554.835 334.384 554.712 334.333 554.622 334.243C554.531 334.153 554.48 334.03 554.479 333.903V327.127C554.475 327.061 554.484 326.994 554.506 326.932C554.528 326.87 554.563 326.813 554.608 326.764C554.654 326.716 554.708 326.677 554.769 326.651C554.83 326.625 554.895 326.611 554.961 326.611C555.028 326.611 555.093 326.625 555.154 326.651C555.215 326.677 555.269 326.716 555.315 326.764C555.36 326.813 555.394 326.87 555.417 326.932C555.439 326.994 555.448 327.061 555.444 327.127V333.903C555.443 334.03 555.392 334.152 555.302 334.242C555.212 334.332 555.09 334.383 554.963 334.384Z" fill="#141414"/>
<path d="M547.774 344.98C547.657 344.98 547.545 344.938 547.456 344.861C547.368 344.784 547.311 344.678 547.295 344.562C547.28 344.447 547.306 344.329 547.371 344.231C547.435 344.134 547.533 344.063 547.645 344.032L553.231 342.502C553.353 342.472 553.481 342.492 553.589 342.555C553.697 342.619 553.776 342.722 553.81 342.843C553.843 342.964 553.828 343.094 553.767 343.204C553.707 343.314 553.606 343.396 553.486 343.433L547.901 344.963C547.86 344.974 547.817 344.98 547.774 344.98Z" fill="#141414"/>
<path d="M525.965 398.591H563.883L570.817 353.879H519.031L525.965 398.591Z" fill="#141414"/>
<path d="M532.92 175.087H429.483C429.355 175.087 429.232 175.037 429.142 174.946C429.051 174.855 429 174.732 429 174.604V71.4809C429.001 71.3531 429.052 71.2308 429.142 71.1407C429.233 71.0506 429.355 71 429.483 71H532.92C533.047 71.0006 533.169 71.0514 533.259 71.1415C533.349 71.2315 533.4 71.3535 533.401 71.4809V174.604C533.401 174.732 533.35 174.855 533.26 174.945C533.17 175.036 533.047 175.087 532.92 175.087ZM429.973 174.124H532.445V71.9639H429.973V174.124Z" fill="#141414"/>
<path d="M481 108C489.278 108 496 114.722 496 123C496 131.279 489.278 138 481 138C472.722 138 466 131.279 466 123C466 114.722 472.722 108 481 108Z" fill="white" stroke="#141414" stroke-miterlimit="10" stroke-linecap="round" stroke-linejoin="round"/>
<path d="M461 98C463.759 98 466 100.241 466 103C466 105.76 463.759 108 461 108C458.241 108 456 105.76 456 103C456 100.241 458.241 98 461 98Z" fill="white" stroke="#141414" stroke-miterlimit="10" stroke-linecap="round" stroke-linejoin="round"/>
<path d="M461 148C463.759 148 466 145.76 466 143C466 140.241 463.759 138 461 138C458.241 138 456 140.241 456 143C456 145.76 458.241 148 461 148Z" fill="white" stroke="#141414" stroke-miterlimit="10" stroke-linecap="round" stroke-linejoin="round"/>
<path d="M501 98C498.241 98 496 100.241 496 103C496 105.76 498.241 108 501 108C503.759 108 506 105.76 506 103C506 100.241 503.759 98 501 98Z" fill="white" stroke="#141414" stroke-miterlimit="10" stroke-linecap="round" stroke-linejoin="round"/>
<path d="M501 148C498.241 148 496 145.76 496 143C496 140.241 498.241 138 501 138C503.759 138 506 140.241 506 143C506 145.76 503.759 148 501 148Z" fill="white" stroke="#141414" stroke-miterlimit="10" stroke-linecap="round" stroke-linejoin="round"/>
<path d="M472.667 135.471V133C472.667 128.401 476.401 124.667 481 124.667C485.599 124.667 489.333 128.401 489.333 133V135.471C486.948 137.068 484.082 138 481 138C477.918 138 475.052 137.068 472.667 135.471Z" fill="white" stroke="#141414" stroke-miterlimit="10" stroke-linecap="round" stroke-linejoin="round"/>
<path d="M464.535 106.535L470.396 112.396Z" fill="white"/>
<path d="M464.535 106.535L470.396 112.396" stroke="#141414" stroke-miterlimit="10" stroke-linecap="round" stroke-linejoin="round"/>
<path d="M464.535 139.465L470.396 133.605Z" fill="white"/>
<path d="M464.535 139.465L470.396 133.605" stroke="#141414" stroke-miterlimit="10" stroke-linecap="round" stroke-linejoin="round"/>
<path d="M497.465 106.535L491.604 112.396Z" fill="white"/>
<path d="M497.465 106.535L491.604 112.396" stroke="#141414" stroke-miterlimit="10" stroke-linecap="round" stroke-linejoin="round"/>
<path d="M497.465 139.465L491.604 133.605Z" fill="white"/>
<path d="M497.465 139.465L491.604 133.605" stroke="#141414" stroke-miterlimit="10" stroke-linecap="round" stroke-linejoin="round"/>
<path d="M481 114.667C483.759 114.667 486 116.908 486 119.667C486 122.427 483.759 124.667 481 124.667C478.241 124.667 476 122.427 476 119.667C476 116.908 478.241 114.667 481 114.667Z" fill="white" stroke="#141414" stroke-miterlimit="10" stroke-linecap="round" stroke-linejoin="round"/>
<path d="M0 400H600" stroke="#141414"/>
</g>
<defs>
<linearGradient id="paint0_linear_120_81" x1="103.806" y1="395.752" x2="103.806" y2="236.028" gradientUnits="userSpaceOnUse">
<stop stop-color="#DC1D47"/>
<stop offset="1" stop-color="#E54327"/>
</linearGradient>
<clipPath id="clip0_120_81">
<rect width="600" height="400" fill="white"/>
</clipPath>
</defs>
</svg> -->


<svg width="600" height="400" viewBox="0 0 600 400" fill="none" xmlns="http://www.w3.org/2000/svg">
<path d="M33.8119 25.036C37.9672 25.036 41.3358 21.6548 41.3358 17.484C41.3358 13.3132 37.9672 9.93213 33.8119 9.93213C29.6566 9.93213 26.2881 13.3132 26.2881 17.484C26.2881 21.6548 29.6566 25.036 33.8119 25.036Z" fill="#141414"/>
<path d="M55.7699 25.036C59.9252 25.036 63.2938 21.6548 63.2938 17.484C63.2938 13.3132 59.9252 9.93213 55.7699 9.93213C51.6146 9.93213 48.2461 13.3132 48.2461 17.484C48.2461 21.6548 51.6146 25.036 55.7699 25.036Z" fill="#141414"/>
<path d="M77.7284 25.036C81.8837 25.036 85.2523 21.6548 85.2523 17.484C85.2523 13.3132 81.8837 9.93213 77.7284 9.93213C73.5731 9.93213 70.2046 13.3132 70.2046 17.484C70.2046 21.6548 73.5731 25.036 77.7284 25.036Z" fill="#141414"/>
<path d="M190.706 136.638C190.44 136.638 190.224 136.422 190.224 136.155V17.9673H93.1185C92.8523 17.9673 92.6362 17.7509 92.6362 17.4843C92.6362 17.2176 92.8523 17.0012 93.1185 17.0012H190.706C190.972 17.0012 191.188 17.2176 191.188 17.4843V136.155C191.188 136.422 190.972 136.638 190.706 136.638Z" fill="#141414"/>
<path d="M513.474 276.706C513.474 283.421 508.053 288.863 501.368 288.863H145.218C138.532 288.863 133.112 283.421 133.112 276.706V272.251L137.653 268.184L506.351 267.622L513.474 272.251V276.706Z" fill="white"/>
<path d="M147.182 44.4307H499.404C507.17 44.4307 513.474 50.7454 513.474 58.5247V272.251H133.112V58.5247C133.112 50.7454 139.416 44.4307 147.182 44.4307Z" fill="white"/>
<path d="M513.474 272.734H133.112C132.845 272.734 132.629 272.518 132.629 272.251V58.5246C132.629 50.4874 139.158 43.9475 147.182 43.9475H499.403C507.427 43.9475 513.956 50.4874 513.956 58.5246V272.251C513.956 272.518 513.74 272.734 513.474 272.734ZM133.592 271.768H512.991V58.5246C512.991 51.0185 506.895 44.9136 499.403 44.9136H147.182C139.688 44.9136 133.594 51.0207 133.594 58.5246V271.768H133.592Z" fill="#141414"/>
<path d="M500.484 259.688H146.102C145.836 259.688 145.62 259.471 145.62 259.204V58.8853C145.62 57.8405 146.468 56.9924 147.509 56.9924H499.074C500.117 56.9924 500.964 57.8427 500.964 58.8853V259.204C500.964 259.471 500.748 259.688 500.482 259.688H500.484ZM146.586 258.721H500.002V58.8853C500.002 58.3739 499.587 57.9586 499.076 57.9586H147.511C147.001 57.9586 146.586 58.3739 146.586 58.8853V258.721Z" fill="#141414"/>
<path d="M501.37 289.346H145.218C138.277 289.346 132.629 283.676 132.629 276.706C132.629 276.439 132.845 276.223 133.112 276.223C133.378 276.223 133.594 276.439 133.594 276.706C133.594 283.143 138.809 288.38 145.218 288.38H501.37C507.778 288.38 512.993 283.143 512.993 276.706C512.993 276.439 513.21 276.223 513.476 276.223C513.742 276.223 513.958 276.439 513.958 276.706C513.958 283.676 508.311 289.346 501.37 289.346Z" fill="#141414"/>
<path d="M253.864 288.864H392.721V313.825C392.721 320.418 387.377 325.771 380.796 325.771H265.789C259.208 325.771 253.864 320.418 253.864 313.825V288.864Z" fill="white"/>
<path d="M380.796 326.254H265.789C258.948 326.254 253.382 320.678 253.382 313.825V288.863C253.382 288.597 253.598 288.38 253.864 288.38H392.721C392.987 288.38 393.203 288.597 393.203 288.863V313.825C393.203 320.678 387.637 326.254 380.796 326.254ZM254.346 289.347V313.825C254.346 320.147 259.481 325.287 265.789 325.287H380.796C387.107 325.287 392.239 320.144 392.239 313.825V289.347H254.344H254.346Z" fill="#141414"/>
<path d="M387.55 298.015H259.038C258.772 298.015 258.556 297.799 258.556 297.532C258.556 297.265 258.772 297.049 259.038 297.049H387.55C387.816 297.049 388.032 297.265 388.032 297.532C388.032 297.799 387.816 298.015 387.55 298.015Z" fill="#141414"/>
<path d="M424.752 95.9323H285.029C281.701 95.9323 279.004 93.2306 279.004 89.8973C279.004 86.5639 281.701 83.8623 285.029 83.8623H424.752C428.08 83.8623 430.777 86.5639 430.777 89.8973C430.777 93.2306 428.08 95.9323 424.752 95.9323Z" fill="#141414"/>
<path d="M593.975 95.9323H454.252C450.924 95.9323 448.227 93.2306 448.227 89.8973C448.227 86.5639 450.924 83.8623 454.252 83.8623H593.975C597.303 83.8623 600 86.5639 600 89.8973C600 93.2306 597.303 95.9323 593.975 95.9323Z" fill="#141414"/>
<path d="M404.843 127.464H285.029C281.701 127.464 279.004 124.763 279.004 121.43C279.004 118.096 281.701 115.395 285.029 115.395H404.843C408.17 115.395 410.868 118.096 410.868 121.43C410.868 124.763 408.17 127.464 404.843 127.464Z" fill="#141414"/>
<path d="M566.92 127.464H434.343C431.015 127.464 428.318 124.763 428.318 121.43C428.318 118.096 431.015 115.395 434.343 115.395H566.92C570.247 115.395 572.944 118.096 572.944 121.43C572.944 124.763 570.247 127.464 566.92 127.464Z" fill="#141414"/>
<path d="M439.684 158.997H325.214C321.886 158.997 319.189 156.295 319.189 152.962C319.189 149.628 321.886 146.927 325.214 146.927H439.684C443.012 146.927 445.709 149.628 445.709 152.962C445.709 156.295 443.012 158.997 439.684 158.997Z" fill="#141414"/>
<path d="M548.985 158.997H469.184C465.856 158.997 463.159 156.295 463.159 152.962C463.159 149.628 465.856 146.927 469.184 146.927H548.985C552.313 146.927 555.01 149.628 555.01 152.962C555.01 156.295 552.313 158.997 548.985 158.997Z" fill="#141414"/>
<path d="M409.82 190.529H285.029C281.701 190.529 279.004 187.827 279.004 184.494C279.004 181.161 281.701 178.459 285.029 178.459H409.82C413.148 178.459 415.845 181.161 415.845 184.494C415.845 187.827 413.148 190.529 409.82 190.529Z" fill="#141414"/>
<path d="M593.976 190.529H439.32C435.992 190.529 433.295 187.827 433.295 184.494C433.295 181.161 435.992 178.459 439.32 178.459H593.976C597.303 178.459 600 181.161 600 184.494C600 187.827 597.303 190.529 593.976 190.529Z" fill="#141414"/>
<path d="M449.637 222.059H325.212C321.884 222.059 319.187 219.357 319.187 216.024C319.187 212.691 321.884 209.989 325.212 209.989H449.637C452.964 209.989 455.661 212.691 455.661 216.024C455.661 219.357 452.964 222.059 449.637 222.059Z" fill="#141414"/>
<path d="M563.932 222.059H479.136C475.808 222.059 473.111 219.357 473.111 216.024C473.111 212.691 475.808 209.989 479.136 209.989H563.932C567.26 209.989 569.957 212.691 569.957 216.024C569.957 219.357 567.26 222.059 563.932 222.059Z" fill="#141414"/>
<path d="M236.682 143.528H0.481934V337.79H236.682V143.528Z" fill="white"/>
<path d="M236.682 338.273H0.482241C0.216027 338.273 0 338.057 0 337.79V143.528C0 143.261 0.216027 143.045 0.482241 143.045H236.682C236.949 143.045 237.165 143.261 237.165 143.528V337.79C237.165 338.057 236.949 338.273 236.682 338.273ZM0.964483 337.307H236.2V144.011H0.964483V337.307Z" fill="#141414"/>
<path d="M103.872 143.528L98.9313 176.693L96.147 176.846C96.147 176.846 102.473 196.651 118.945 199.388C135.416 202.125 133.694 183.102 133.694 183.102L124.043 178.715L127.336 151.989L103.872 143.53V143.528Z" fill="white"/>
<path d="M124.043 179.196C124.023 179.196 124.003 179.196 123.984 179.191C123.72 179.158 123.532 178.918 123.565 178.654L126.812 152.31L104.262 144.181L99.4091 176.763C99.3698 177.027 99.1233 177.204 98.8614 177.169C98.5974 177.13 98.4163 176.883 98.4555 176.621L103.396 143.456C103.418 143.311 103.501 143.187 103.625 143.113C103.749 143.038 103.898 143.023 104.035 143.073L127.499 151.532C127.711 151.609 127.842 151.821 127.813 152.046L124.521 178.772C124.49 179.016 124.283 179.196 124.043 179.196Z" fill="#141414"/>
<path d="M143.865 121.277C146.957 119.161 149.366 115.891 149.962 112.184C150.678 107.738 148.674 103.102 145.351 100.079C142.028 97.0558 137.541 95.5279 133.068 95.2023C128.595 94.8744 124.108 95.67 119.773 96.8241C115.415 97.9848 111.092 99.5411 107.422 102.171C103.752 104.8 100.769 108.612 99.8611 113.047C97.7946 112.505 95.7391 113.954 94.3273 115.563C90.3864 120.057 88.8437 126.553 90.3384 132.35C91.8332 138.147 96.3239 143.073 101.938 145.082C108.496 147.427 116.061 145.76 121.754 141.738C126.4 138.457 129.889 133.768 132.368 128.682C133.546 126.262 133.509 124.982 136.241 124.374C138.949 123.773 141.556 122.855 143.863 121.277H143.865Z" fill="#141414"/>
<path d="M104.3 137.797C103.499 135.926 100.924 135.292 99.1043 136.188C97.2844 137.084 96.2217 139.108 95.9577 141.126C95.5998 143.849 96.5861 146.78 98.7028 148.52C100.819 150.26 104.051 150.612 106.36 149.139C110.621 153.703 116.644 158.138 122.861 158.56C126.356 158.796 130.079 158.205 132.798 155.987C134.694 154.439 135.953 152.212 136.671 149.867C137.389 147.521 137.596 145.051 137.668 142.599C137.88 135.53 136.998 128.431 135.069 121.628C134.757 120.529 134.404 119.41 133.695 118.516C132.693 117.25 131.118 116.599 129.575 116.144C126.051 115.104 122.256 114.82 118.697 115.722C115.136 116.625 111.835 118.778 109.882 121.902C108.009 124.896 107.47 128.568 107.654 132.101C107.841 135.683 104.298 137.797 104.298 137.797H104.3Z" fill="white"/>
<path d="M124.285 159.093C123.774 159.093 123.288 159.075 122.829 159.043C115.709 158.559 109.499 153.141 106.274 149.751C103.876 151.06 100.629 150.726 98.3966 148.894C96.232 147.115 95.0864 144.041 95.4792 141.062C95.7977 138.634 97.0743 136.649 98.892 135.755C99.9874 135.215 101.351 135.156 102.54 135.598C103.265 135.867 103.867 136.299 104.297 136.852L107.166 131.98C106.977 127.934 107.775 124.365 109.473 121.646C111.402 118.564 114.721 116.234 118.579 115.255C121.989 114.389 125.839 114.538 129.712 115.681C131.143 116.103 132.933 116.774 134.074 118.216C134.833 119.176 135.213 120.363 135.534 121.497C137.484 128.367 138.364 135.473 138.152 142.614C138.084 144.839 137.912 147.46 137.133 150.009C136.317 152.68 134.923 154.876 133.103 156.363C130.436 158.538 127.047 159.093 124.285 159.093ZM106.361 148.658C106.492 148.658 106.619 148.71 106.713 148.811C109.757 152.07 115.904 157.606 122.895 158.079C125.666 158.264 129.581 157.991 132.494 155.613C134.165 154.249 135.451 152.214 136.21 149.727C136.956 147.287 137.122 144.75 137.188 142.586C137.397 135.543 136.529 128.538 134.606 121.764C134.299 120.68 133.969 119.639 133.319 118.817C132.346 117.587 130.735 116.99 129.441 116.608C125.736 115.512 122.061 115.368 118.817 116.192C115.197 117.11 112.087 119.285 110.291 122.159C108.676 124.741 107.932 128.168 108.137 132.076C108.142 132.17 108.12 132.267 108.072 132.347L104.716 138.044C104.624 138.201 104.452 138.286 104.271 138.28C104.09 138.269 103.93 138.155 103.858 137.989C103.573 137.32 102.986 136.793 102.207 136.505C101.26 136.155 100.182 136.199 99.3175 136.623C97.814 137.364 96.7099 139.112 96.4371 141.191C96.088 143.847 97.0983 146.577 99.012 148.149C101.039 149.814 104.022 150.061 106.106 148.734C106.184 148.684 106.276 148.658 106.363 148.658H106.361Z" fill="#141414"/>
<path d="M103.23 145.27C102.996 145.27 102.791 145.099 102.754 144.861C102.512 143.307 101.41 141.932 99.9503 141.364C99.7015 141.268 99.5793 140.988 99.6753 140.739C99.7713 140.49 100.051 140.365 100.299 140.463C102.076 141.154 103.413 142.822 103.708 144.71C103.749 144.975 103.568 145.22 103.306 145.261C103.28 145.266 103.256 145.268 103.232 145.268L103.23 145.27Z" fill="#141414"/>
<path d="M153.36 337.322C154.577 309.471 155.655 297.534 155.686 297.069L47.9494 301.298L36.8818 337.322H153.36Z" fill="#141414"/>
<path d="M305.72 212.282C307.016 207.84 307.998 203.524 308.613 199.471C309.104 196.227 311.653 193.661 314.854 193.001C335.761 188.684 340.354 175.15 340.354 175.15C340.834 174.048 340.666 172.824 340.192 171.648C338.962 168.592 335.514 167.15 332.383 168.133C326.316 170.039 314.981 171.108 299.134 171.373C287.674 171.563 279.452 174.866 274.957 181.351C272.916 184.295 271.018 187.948 269.078 191.847L305.722 212.282H305.72Z" fill="white"/>
<path d="M305.719 212.765C305.675 212.765 305.629 212.758 305.584 212.745C305.328 212.671 305.182 212.402 305.256 212.146C306.566 207.661 307.534 203.37 308.135 199.399C308.649 196.002 311.309 193.239 314.753 192.529C335.116 188.326 339.849 175.128 339.895 174.994C340.285 174.092 340.229 173.04 339.742 171.829C338.638 169.091 335.47 167.67 332.524 168.594C326.492 170.49 315.261 171.587 299.138 171.856C287.715 172.046 279.711 175.333 275.349 181.626C273.221 184.697 271.216 188.623 269.505 192.063C269.387 192.302 269.097 192.4 268.859 192.28C268.621 192.162 268.525 191.871 268.643 191.633C270.369 188.164 272.392 184.201 274.557 181.077C279.106 174.516 287.37 171.088 299.123 170.892C315.152 170.625 326.294 169.543 332.236 167.674C335.657 166.601 339.347 168.267 340.637 171.469C341.224 172.927 341.276 174.232 340.794 175.344C340.761 175.445 335.884 189.154 314.949 193.475C311.899 194.105 309.544 196.544 309.088 199.545C308.479 203.561 307.502 207.893 306.182 212.42C306.12 212.629 305.928 212.767 305.719 212.767V212.765Z" fill="#141414"/>
<path d="M317.608 184.772C317.368 184.772 317.158 184.592 317.13 184.345C317.099 184.081 317.287 183.84 317.551 183.808C324.736 182.949 331.7 180.959 338.255 177.897C338.259 177.851 338.27 177.805 338.287 177.759C338.388 177.512 338.667 177.392 338.914 177.493L339.215 177.615C339.391 177.687 339.511 177.856 339.516 178.048C339.522 178.24 339.415 178.415 339.241 178.498C332.422 181.762 325.162 183.869 317.662 184.767C317.643 184.769 317.623 184.772 317.603 184.772H317.608Z" fill="#141414"/>
<path d="M43.4233 254.907L47.9512 301.298L87.3968 301.757L43.4233 254.907Z" fill="url(#paint0_linear_0_1)"/>
<path d="M269.073 191.965C267.906 194.256 267.404 195.375 266.374 197.779C260.62 211.194 252.057 231.733 230.662 228.743C217.316 226.879 198.315 209.526 185.903 196.728C177.197 187.753 165.559 182.232 153.135 181.089L127.338 178.713L125.431 171.375L120.412 177.054L116.794 172.566L97.0877 165.786L93.0269 177.054C93.0269 177.054 70.6517 175.371 48.7239 184.562C20.5226 196.385 27.394 237.93 35.9566 253.904C44.5169 269.878 59.7915 323.978 103.87 322.728C147.95 321.476 172.95 276.676 172.95 276.676L225.973 281.543C278.557 279.983 298.457 237.377 305.647 212.14C306.509 209.117 269.073 191.965 269.073 191.965Z" fill="url(#paint1_linear_0_1)"/>
<path d="M113.759 188.435C113.715 188.435 113.669 188.428 113.626 188.415C106.346 186.306 99.3547 183.259 92.8477 179.359C92.6186 179.222 92.5444 178.927 92.6818 178.697C92.8193 178.47 93.1139 178.396 93.343 178.531C99.6492 182.308 106.414 185.279 113.455 187.359L115.009 182.848C115.096 182.597 115.369 182.463 115.622 182.549C115.873 182.636 116.008 182.909 115.921 183.163L114.217 188.109C114.149 188.308 113.962 188.435 113.761 188.435H113.759Z" fill="#141414"/>
<path d="M124.438 186.588C124.338 186.588 124.237 186.557 124.15 186.492C123.936 186.332 123.893 186.031 124.052 185.816L127.417 181.309C127.576 181.095 127.877 181.051 128.091 181.211C128.305 181.371 128.348 181.674 128.189 181.886L124.824 186.394C124.731 186.52 124.584 186.588 124.438 186.588Z" fill="#141414"/>
<path d="M138.098 247.368L123.039 185.362L122.779 178.815L120.407 179.008L117.106 179.279L118.863 186.112L128.876 253.235L138.098 247.368Z" fill="white"/>
<path d="M101.395 272.623C101.223 272.623 101.055 272.529 100.97 272.365L81.512 235.572C80.1439 232.984 79.9213 229.917 80.9033 227.158C80.9927 226.907 81.2677 226.776 81.5186 226.866C81.7695 226.955 81.9005 227.231 81.811 227.482C80.9207 229.985 81.1215 232.769 82.3631 235.119L101.821 271.913C101.945 272.149 101.856 272.439 101.62 272.566C101.548 272.603 101.472 272.623 101.395 272.623Z" fill="#141414"/>
<path d="M97.6723 275.908C97.5304 275.908 97.3908 275.847 97.2948 275.727C97.1289 275.517 97.1639 275.215 97.3712 275.049C97.7007 274.787 130.539 248.752 152.947 240.406C153.198 240.312 153.475 240.441 153.566 240.691C153.66 240.94 153.532 241.22 153.283 241.311C131.017 249.602 98.2985 275.543 97.9712 275.805C97.8818 275.875 97.777 275.91 97.6723 275.91V275.908Z" fill="#141414"/>
<path d="M60.2254 300.275C60.0574 300.275 59.8915 300.186 59.8042 300.028L41.4747 267.147C41.3438 266.914 41.4289 266.621 41.6602 266.492C41.8915 266.36 42.1861 266.446 42.3148 266.677L60.6443 299.558C60.7753 299.792 60.6902 300.085 60.4589 300.214C60.3847 300.256 60.3039 300.275 60.2254 300.275Z" fill="#141414"/>
<path d="M159.122 291.637C159.009 291.637 158.893 291.596 158.802 291.515C147.197 281.137 140.018 266.247 139.108 250.669C139.093 250.402 139.296 250.175 139.562 250.159C139.833 250.142 140.055 250.347 140.071 250.614C140.965 265.941 148.026 280.586 159.443 290.796C159.642 290.973 159.659 291.279 159.482 291.478C159.386 291.585 159.255 291.639 159.122 291.639V291.637Z" fill="#141414"/>
<path d="M295.603 227.709C295.502 227.709 295.4 227.679 295.313 227.611C285.286 220.024 274.522 213.296 263.317 207.613C263.079 207.493 262.985 207.202 263.105 206.964C263.225 206.726 263.515 206.63 263.753 206.752C275.008 212.461 285.823 219.222 295.895 226.842C296.107 227.003 296.15 227.305 295.989 227.517C295.895 227.644 295.751 227.709 295.605 227.709H295.603Z" fill="#141414"/>
<path d="M267.392 276.642L301.635 399.5H203.562L169.316 276.642H267.392Z" fill="white" stroke="#141414"/>
<path opacity="0.1" d="M253.362 307.497H204.254L201.568 297.642H250.676L253.362 307.497Z" fill="#141414"/>
<path opacity="0.1" d="M274.982 352.8H205.374L195.978 317.469H265.586L274.982 352.8Z" fill="#141414"/>
<path d="M165.39 237.481C181.127 233.358 192.571 235.651 200.993 241.695C209.174 247.565 214.58 257.026 218.261 267.812L218.611 268.86C219.795 272.461 220.836 275.752 221.618 278.429L221.938 279.537C222.734 282.351 219.988 284.793 217.344 283.786L217.088 283.678C214.641 282.533 212.028 279.898 210.688 274.005L209.712 274.22V274.221C209.712 274.222 209.712 274.224 209.713 274.227C209.714 274.232 209.717 274.24 209.719 274.251C209.723 274.273 209.73 274.307 209.738 274.35C209.755 274.437 209.78 274.565 209.81 274.728C209.869 275.055 209.948 275.523 210.027 276.085C210.186 277.212 210.341 278.707 210.335 280.195C210.329 281.694 210.16 283.132 209.704 284.177C209.478 284.694 209.193 285.092 208.846 285.359C208.505 285.62 208.079 285.778 207.525 285.778C205.461 285.777 203.744 284.102 202.491 282.24C201.878 281.328 201.405 280.413 201.084 279.724C200.924 279.38 200.802 279.095 200.722 278.896C200.681 278.796 200.652 278.718 200.632 278.666C200.622 278.64 200.614 278.62 200.609 278.608C200.607 278.602 200.606 278.597 200.604 278.594C200.604 278.593 200.603 278.592 200.603 278.591V278.59L199.642 278.853V278.857C199.642 278.86 199.643 278.864 199.645 278.87C199.647 278.883 199.65 278.903 199.654 278.929C199.663 278.981 199.676 279.058 199.69 279.157C199.72 279.356 199.759 279.641 199.792 279.984C199.859 280.672 199.905 281.578 199.829 282.477C199.752 283.385 199.555 284.232 199.175 284.837C198.814 285.411 198.287 285.778 197.453 285.778C196.47 285.778 195.54 285.338 194.676 284.618C193.811 283.898 193.046 282.924 192.405 281.927C191.767 280.933 191.265 279.937 190.923 279.186C190.752 278.811 190.621 278.499 190.533 278.281C190.49 278.173 190.457 278.089 190.436 278.031C190.425 278.003 190.416 277.981 190.411 277.967C190.409 277.96 190.406 277.955 190.405 277.951L190.403 277.948L189.447 278.236L189.452 278.255C189.455 278.269 189.46 278.291 189.467 278.32C189.48 278.377 189.498 278.462 189.521 278.571C189.565 278.788 189.625 279.102 189.685 279.48C189.804 280.239 189.919 281.249 189.912 282.27C189.905 283.3 189.773 284.294 189.43 285.05C189.118 285.738 188.646 286.205 187.922 286.36L187.774 286.386H187.773C186.86 286.522 185.955 286.328 184.958 285.565C184.067 284.882 183.102 283.742 182.025 281.97L181.558 281.171H181.557C179.795 278.071 176.5 276.175 172.948 276.175C168.222 276.175 164.001 273.259 162.299 268.865L162.142 268.435L153.738 241.185L165.39 237.481Z" fill="white" stroke="#141414"/>
<path d="M210.157 274.404C209.937 274.404 209.736 274.251 209.688 274.026C208.994 270.885 208.003 267.792 206.742 264.835C206.637 264.59 206.751 264.306 206.997 264.201C207.244 264.096 207.525 264.21 207.63 264.455C208.913 267.469 209.921 270.619 210.631 273.819C210.687 274.079 210.524 274.337 210.264 274.394C210.229 274.4 210.194 274.404 210.159 274.404H210.157Z" fill="#141414"/>
<path d="M199.993 278.992C199.764 278.992 199.561 278.828 199.52 278.597C198.725 274.251 197.706 269.895 196.495 265.65C196.421 265.395 196.569 265.126 196.827 265.054C197.084 264.984 197.351 265.13 197.423 265.386C198.642 269.661 199.668 274.048 200.469 278.422C200.517 278.684 200.344 278.936 200.083 278.984C200.054 278.99 200.024 278.992 199.995 278.992H199.993Z" fill="#141414"/>
<path d="M189.933 278.599C189.717 278.599 189.521 278.453 189.466 278.232C188.875 275.83 188.054 273.237 187.26 270.728C186.852 269.434 186.464 268.214 186.119 267.047C186.043 266.791 186.189 266.522 186.444 266.446C186.699 266.372 186.968 266.514 187.044 266.772C187.389 267.93 187.773 269.148 188.181 270.435C188.98 272.957 189.804 275.567 190.402 278C190.466 278.258 190.309 278.52 190.049 278.584C190.01 278.595 189.972 278.597 189.933 278.597V278.599Z" fill="#141414"/>
<path d="M310.439 0.708008C333.988 22.0476 356.525 29.9398 378.647 30.0146C374.554 81.4623 364.303 127.15 319.941 152.096L318.884 152.683L310.404 157.332L301.634 152.5C256.76 127.772 246.565 82.1815 242.219 30.7246L245.085 30.2734C260.365 29.199 271.805 27.3719 281.921 22.9736C291.937 18.6189 300.614 11.7608 310.439 0.708008Z" fill="white" stroke="#141414"/>
<path d="M291.481 133.725C291.376 133.725 291.274 133.692 291.184 133.622C278.371 123.594 269.178 110.238 263.081 92.7914C256.945 75.2285 254.678 55.316 253.39 39.9302C253.369 39.6766 253.548 39.4515 253.796 39.4121L256.552 38.9794C280.627 37.2876 293.371 33.5302 310.079 14.6253C310.164 14.5291 310.284 14.4701 310.413 14.4635C310.544 14.457 310.668 14.5029 310.764 14.5881C328.601 30.8526 346.956 38.7586 366.879 38.7586C366.911 38.7586 366.944 38.763 366.977 38.7695L367.158 38.8067C367.418 38.8613 367.586 39.1171 367.531 39.3772C367.477 39.6373 367.221 39.8078 366.962 39.7509L366.828 39.7225C346.808 39.7094 328.371 31.8274 310.476 15.6285C293.705 34.4701 280.817 38.2384 256.661 39.9345L254.39 40.293C257.835 81.0056 265.551 112.335 291.778 132.857C291.987 133.021 292.024 133.325 291.861 133.535C291.765 133.657 291.623 133.72 291.481 133.72V133.725Z" fill="#141414"/>
<path d="M310.441 145.408C310.271 145.408 310.105 145.318 310.018 145.156C309.889 144.922 309.977 144.63 310.21 144.501L317.389 140.564C343.622 126.181 357.98 102.262 363.948 63.0055C363.99 62.741 364.239 62.5618 364.498 62.6011C364.762 62.6405 364.943 62.8875 364.902 63.1519C358.886 102.737 344.375 126.872 317.854 141.412L310.675 145.349C310.601 145.39 310.522 145.408 310.444 145.408H310.441Z" fill="#141414"/>
<path d="M310.758 135.607C310.491 135.607 310.275 135.39 310.275 135.124V24.8788C310.275 24.6121 310.491 24.3958 310.758 24.3958C311.024 24.3958 311.24 24.6121 311.24 24.8788V135.126C311.24 135.392 311.024 135.609 310.758 135.609V135.607Z" fill="#141414"/>
<path d="M426.042 351.27C430.197 351.27 433.566 347.889 433.566 343.718C433.566 339.547 430.197 336.166 426.042 336.166C421.887 336.166 418.518 339.547 418.518 343.718C418.518 347.889 421.887 351.27 426.042 351.27Z" fill="#141414"/>
<path d="M448 351.27C452.155 351.27 455.524 347.889 455.524 343.718C455.524 339.547 452.155 336.166 448 336.166C443.845 336.166 440.476 339.547 440.476 343.718C440.476 347.889 443.845 351.27 448 351.27Z" fill="#141414"/>
<path d="M469.958 351.27C474.114 351.27 477.482 347.889 477.482 343.718C477.482 339.547 474.114 336.166 469.958 336.166C465.803 336.166 462.435 339.547 462.435 343.718C462.435 347.889 465.803 351.27 469.958 351.27Z" fill="#141414"/>
<path d="M563.655 344.201H485.348C485.082 344.201 484.866 343.985 484.866 343.718C484.866 343.451 485.082 343.235 485.348 343.235H563.173V258.909C563.173 258.643 563.389 258.426 563.655 258.426C563.921 258.426 564.137 258.643 564.137 258.909V343.718C564.137 343.985 563.921 344.201 563.655 344.201Z" fill="#141414"/>
<defs>
<linearGradient id="paint0_linear_0_1" x1="65.411" y1="301.758" x2="65.411" y2="254.907" gradientUnits="userSpaceOnUse">
<stop stop-color="#DC1D47"/>
<stop offset="1" stop-color="#E54327"/>
</linearGradient>
<linearGradient id="paint1_linear_0_1" x1="167.068" y1="322.751" x2="167.068" y2="165.786" gradientUnits="userSpaceOnUse">
<stop stop-color="#DC1D47"/>
<stop offset="1" stop-color="#E54327"/>
</linearGradient>
</defs>
</svg>