<svg width="32" height="32" viewBox="0 0 32 32" fill="none" xmlns="http://www.w3.org/2000/svg">
<g clip-path="url(#clip0_95_37)">
<path d="M31 16.0001C31 24.2843 24.2842 31 15.9999 31C7.71579 31 1 24.2843 1 16.0001C1 7.71582 7.71579 1 15.9999 1M23.5 16.0001C23.5 20.1422 20.1421 23.4999 15.9999 23.4999C11.8579 23.4999 8.50006 20.1422 8.50006 16.0001C8.50006 11.8579 11.8579 8.50002 15.9999 8.50002" stroke="#141414" stroke-width="1.3" stroke-linecap="round" stroke-linejoin="round"/>
<path d="M22 10V5.5L26.5 1L28.0001 4.00004L31 5.5L26.5 10H22ZM22 10L16 15.9999" stroke="#DC1D47" stroke-width="1.3" stroke-linecap="round" stroke-linejoin="round"/>
</g>
<defs>
<clipPath id="clip0_95_37">
<rect width="32" height="32" fill="white"/>
</clipPath>
</defs>
</svg>