<svg width="35" height="35" viewBox="0 0 35 35" fill="none" xmlns="http://www.w3.org/2000/svg">
<path d="M27.0198 4.8865V2.50007C27.0198 1.50591 26.2139 0.700012 25.2197 0.700012H9.70151C8.70733 0.700012 7.90146 1.50591 7.90146 2.50007V4.8865M27.0198 4.8865H7.90146M27.0198 4.8865V9.49166M7.90146 4.8865V9.49166M27.0198 25.5399V32.5313C27.0198 33.5256 26.2139 34.3315 25.2196 34.3315H9.70165C8.70733 34.3315 7.90146 33.5256 7.90146 32.5313V25.5399" stroke="#141414" stroke-width="0.89" stroke-miterlimit="10" stroke-linecap="round" stroke-linejoin="round"/>
<path d="M21.996 15.3179L24.1939 17.5158L21.996 19.7137M12.9252 15.3179L10.7273 17.5158L12.9252 19.7137M18.44 13.6803L16.4813 21.3512" stroke="#DC1D47" stroke-width="0.89" stroke-miterlimit="10" stroke-linecap="round" stroke-linejoin="round"/>
<path d="M5.25 9.49164H29.6712V25.5398H5.25V9.49164Z" stroke="#141414" stroke-width="0.89" stroke-miterlimit="10" stroke-linecap="round" stroke-linejoin="round"/>
<path d="M15.6813 30.145H19.2399" stroke="#DC1D47" stroke-width="0.89" stroke-miterlimit="10" stroke-linecap="round" stroke-linejoin="round"/>
</svg>
