<svg width="64" height="64" viewBox="0 0 64 64" fill="none" xmlns="http://www.w3.org/2000/svg">
<path d="M14.73 17.34C17.16 13.63 22.13 12.6 25.83 15.03C29.53 17.46 30.56 22.44 28.14 26.15L14.72 46.65C12.29 50.36 7.31999 51.39 3.61999 48.96C-0.080003 46.53 -1.11001 41.55 1.31 37.84L14.73 17.34Z" fill="#EE325F"/>
<path d="M38.37 17.34C40.8 13.63 45.77 12.6 49.47 15.03C53.17 17.46 54.2 22.44 51.78 26.15L38.36 46.65C35.93 50.36 30.96 51.39 27.26 48.96C23.56 46.53 22.53 41.55 24.95 37.84L38.37 17.34Z" fill="#FFCD05"/>
<path d="M49.28 37.84C51.71 34.13 56.68 33.09 60.38 35.53C64.08 37.96 65.11 42.94 62.69 46.66C60.26 50.37 55.29 51.4001 51.59 48.9701C47.88 46.5301 46.85 41.55 49.28 37.84Z" fill="#45B870"/>
</svg>
