<svg width="64" height="64" viewBox="0 0 64 64" fill="none" xmlns="http://www.w3.org/2000/svg">
<path d="M31.8 0.170044L33.51 3.38005C33.89 3.97005 34.31 4.50004 34.8 4.98004C36.23 6.41004 37.59 7.91004 38.81 9.51004C41.7 13.3101 43.66 17.5301 45.05 22.0901C45.89 24.8801 46.34 27.7401 46.37 30.6301C46.51 39.2801 43.55 46.7001 37.57 52.8701C36.59 53.8501 35.55 54.7501 34.43 55.5501C33.84 55.5501 33.56 55.1001 33.31 54.6801C32.86 53.9101 32.58 53.0401 32.44 52.1701C32.23 51.1201 32.09 50.0801 32.16 49.0001V48.5101C32.11 48.4201 31.59 0.420044 31.8 0.170044Z" fill="#599642"/>
<path d="M31.8 0.0700786C31.73 -0.0699214 31.66 0.0400786 31.59 0.100078C31.62 0.800078 31.38 1.42008 31 2.02008C30.58 2.61008 30.02 3.07008 29.47 3.55008C26.37 6.23008 23.93 9.48008 21.98 13.1001C19.38 17.9801 18.04 23.2101 17.66 28.7201C17.49 30.7101 18.29 37.7101 18.91 39.7401C20.62 45.1101 23.69 49.6101 27.66 53.5101C28.64 54.4501 29.68 55.3201 30.76 56.1601C31.07 56.1601 31.11 55.8801 31.18 55.6701C31.32 55.2301 31.42 54.7701 31.49 54.3101L32.19 49.0801L31.8 0.0700786Z" fill="#6DAC46"/>
<path d="M33.51 57.69C33.58 56.89 33.96 56.23 34.38 55.56C33.96 55.39 33.65 55.04 33.4 54.65C33.19 54.3 33.02 53.88 32.88 53.5C32.39 52.04 32.29 50.5 32.15 49V48.1C31.98 48.24 31.94 49.42 31.94 49.6C31.84 51.18 31.63 52.75 31.31 54.31C31.21 54.94 31.14 55.56 30.75 56.12C30.75 56.19 30.75 56.26 30.78 56.36C31.41 58.21 31.58 60.09 31.69 62.01V62.71C31.69 63.55 31.66 63.37 32.35 63.65C32.63 63.75 32.94 63.79 33.22 64C33.43 64 33.46 63.83 33.46 63.69L33.36 62.54V59.33C33.33 58.77 33.44 58.21 33.51 57.69Z" fill="#C3BFBF"/>
</svg>
