<svg width="64" height="64" viewBox="0 0 64 64" fill="none" xmlns="http://www.w3.org/2000/svg">
<g clip-path="url(#clip0_54_684)">
<path d="M29.9 0.0199785C29.76 0.0299785 29.32 0.0799785 28.93 0.109979C19.84 0.929978 11.33 5.82998 5.93 13.37C2.93 17.56 1.01 22.31 0.28 27.35C0.03 29.11 0 29.63 0 32.01C0 34.39 0.03 34.91 0.29 36.67C2.03 48.69 10.58 58.78 22.18 62.52C24.26 63.19 26.45 63.65 28.94 63.92C29.91 64.03 34.1 64.03 35.07 63.92C39.37 63.44 43.01 62.38 46.6 60.55C47.15 60.27 47.26 60.19 47.18 60.13C47.13 60.09 44.78 56.95 41.97 53.14L36.85 46.23L30.44 36.74C26.91 31.52 24.01 27.26 23.98 27.26C23.96 27.25 23.93 31.47 23.92 36.62C23.9 45.63 23.89 46 23.78 46.21C23.62 46.52 23.49 46.64 23.23 46.78C23.03 46.88 22.85 46.9 21.91 46.9H20.83L20.54 46.72C20.35 46.6 20.21 46.44 20.12 46.26L19.99 45.98L20 33.44L20.02 20.89L20.21 20.65C20.31 20.52 20.52 20.35 20.67 20.27C20.93 20.14 21.03 20.13 22.11 20.13C23.39 20.13 23.6 20.18 23.93 20.54C24.02 20.64 27.5 25.87 31.65 32.17C35.8 38.47 41.48 47.07 44.27 51.29L49.34 58.97L49.6 58.8C51.87 57.32 54.27 55.22 56.18 53.03C60.23 48.38 62.84 42.72 63.71 36.67C63.97 34.91 64 34.39 64 32.01C64 29.63 63.97 29.11 63.71 27.35C61.97 15.33 53.42 5.23998 41.82 1.49998C39.77 0.839979 37.6 0.379979 35.16 0.109979C34.56 0.0399785 30.42 -0.0300215 29.9 0.0199785ZM43 19.37C43.3 19.52 43.54 19.81 43.63 20.11C43.68 20.27 43.69 23.75 43.68 31.59L43.66 42.84L41.68 39.8L39.69 36.76V28.58C39.69 23.29 39.72 20.32 39.75 20.18C39.85 19.83 40.07 19.55 40.37 19.39C40.63 19.26 40.72 19.25 41.7 19.25C42.64 19.25 42.8 19.26 43 19.37Z" fill="#010101"/>
</g>
<defs>
<clipPath id="clip0_54_684">
<rect width="64" height="64" fill="white"/>
</clipPath>
</defs>
</svg>
