<svg width="400" height="400" viewBox="0 0 400 400" fill="none" xmlns="http://www.w3.org/2000/svg">
<g clip-path="url(#clip0_113_322)">
<path d="M400 200C400 294.76 334.1 374.13 245.62 394.77L243.67 395.21C220.949 400.256 197.526 401.325 174.44 398.37L173.31 398.23C164.85 397.112 156.472 395.442 148.23 393.23C147.23 392.96 146.23 392.68 145.23 392.39C121.33 385.587 98.9137 374.37 79.14 359.32C77.3733 357.987 75.6267 356.617 73.9 355.21C50.8047 336.475 32.1874 312.815 19.4086 285.962C6.62976 259.108 0.0123643 229.739 0.0400032 200C0.0400032 89.55 89.59 0 200.04 0C310.49 0 400 89.54 400 200Z" fill="white"/>
<path d="M243.72 395.21C220.999 400.256 197.576 401.325 174.49 398.37C172.98 372.37 172.36 340.3 170.82 314.62C167.1 327.687 163.377 340.757 159.65 353.83C156.65 364.23 151.7 381.32 148.28 393.23C147.28 392.96 146.28 392.68 145.28 392.39C121.38 385.587 98.9637 374.37 79.19 359.32C82.97 339.12 91.94 309.98 98.24 289.32C108.02 256.937 121.864 225.923 139.44 197.02L223.23 215.02C228.34 230.81 232.51 246.888 235.72 263.17C245.4 311.94 246.72 361.24 243.72 395.21Z" fill="url(#paint0_linear_113_322)"/>
<path fill-rule="evenodd" clip-rule="evenodd" d="M222.02 175.82C244.64 181.25 308.95 200.89 316.9 173.82C323.48 151.41 260 135.03 237.9 128.19L222.02 175.82Z" fill="white"/>
<path fill-rule="evenodd" clip-rule="evenodd" d="M222.02 175.82C244.64 181.25 308.95 200.89 316.9 173.82C323.48 151.41 260 135.03 237.9 128.19L222.02 175.82Z" fill="white" stroke="#141414" stroke-miterlimit="10"/>
<path fill-rule="evenodd" clip-rule="evenodd" d="M274.84 158.31C297.58 122.71 313.03 97.01 318.11 89.31C318.976 87.9308 320.033 86.6816 321.25 85.6C327.45 80.16 333.87 83 343 80.25C353.36 77.14 357.42 69.52 359.74 71.03C361.35 72.08 360.62 75.39 356.81 81.03C360.2 77.03 365.04 71.89 367.22 73.77C369.62 76.08 364.66 82.82 361.45 86.77C365.33 82.01 368.82 80.64 369.77 81.99C371.28 84.12 369.13 88.51 363.77 94.6C368.65 91.43 370.31 91.39 370.87 92.79C371.87 95.35 367.37 100.27 362.72 104.02C358.528 107.257 353.644 109.482 348.45 110.52C335.11 137.1 325.36 153.69 316.23 175.91C310.39 190.03 276.72 181.4 274.84 158.31Z" fill="white" stroke="#141414" stroke-miterlimit="10"/>
<path fill-rule="evenodd" clip-rule="evenodd" d="M335.22 84.67C340.39 75.3 340.27 70.83 338.76 70.06C336.22 68.76 328.53 74.95 319.25 87.69C323.77 87.25 330.72 85.11 335.22 84.67Z" fill="white"/>
<path fill-rule="evenodd" clip-rule="evenodd" d="M335.22 84.67C340.39 75.3 340.27 70.83 338.76 70.06C336.22 68.76 328.53 74.95 319.25 87.69C323.77 87.25 330.72 85.11 335.22 84.67Z" fill="white" stroke="#141414" stroke-miterlimit="10"/>
<path fill-rule="evenodd" clip-rule="evenodd" d="M333.2 102.92C333.108 102.922 333.018 102.898 332.94 102.85C332.878 102.817 332.822 102.771 332.778 102.716C332.733 102.661 332.7 102.597 332.681 102.529C332.661 102.461 332.656 102.39 332.664 102.32C332.672 102.249 332.695 102.181 332.73 102.12C334.068 99.6654 336.099 97.6588 338.57 96.35C341.758 94.7188 345.432 94.3098 348.9 95.2C348.969 95.2177 349.034 95.2489 349.091 95.2916C349.148 95.3344 349.195 95.3879 349.232 95.4492C349.268 95.5105 349.292 95.5783 349.302 95.6488C349.312 95.7193 349.308 95.7911 349.29 95.86C349.272 95.9289 349.241 95.9937 349.198 96.0506C349.156 96.1075 349.102 96.1555 349.041 96.1917C348.979 96.2279 348.912 96.2517 348.841 96.2617C348.771 96.2717 348.699 96.2677 348.63 96.25C345.424 95.4268 342.027 95.8037 339.08 97.31C336.796 98.5185 334.918 100.372 333.68 102.64C333.631 102.724 333.56 102.793 333.476 102.842C333.392 102.891 333.297 102.918 333.2 102.92Z" fill="#141414"/>
<path fill-rule="evenodd" clip-rule="evenodd" d="M348.45 86.54C348.322 86.5406 348.198 86.4958 348.1 86.4137C348.002 86.3315 347.937 86.2172 347.915 86.0912C347.894 85.9652 347.917 85.8357 347.982 85.7256C348.047 85.6155 348.149 85.532 348.27 85.49C349.473 85.076 350.635 84.5504 351.74 83.92C353.342 82.9903 354.815 81.8539 356.12 80.54C356.224 80.455 356.355 80.4115 356.489 80.4181C356.623 80.4246 356.75 80.4808 356.844 80.5756C356.939 80.6704 356.995 80.797 357.002 80.9309C357.009 81.0648 356.965 81.1964 356.88 81.3C355.505 82.6645 353.959 83.8445 352.28 84.81C351.117 85.4708 349.895 86.0231 348.63 86.46L348.45 86.54Z" fill="#141414"/>
<path fill-rule="evenodd" clip-rule="evenodd" d="M353.58 91.62C353.469 91.6188 353.36 91.5837 353.269 91.5194C353.178 91.4551 353.109 91.3646 353.07 91.26C353.046 91.1924 353.037 91.1208 353.041 91.0494C353.045 90.9779 353.064 90.9081 353.096 90.8439C353.127 90.7797 353.171 90.7224 353.225 90.6754C353.279 90.6283 353.342 90.5925 353.41 90.57C354.611 90.1577 355.769 89.632 356.87 89C358.471 88.0883 359.943 86.9685 361.25 85.67C361.354 85.585 361.485 85.5415 361.619 85.5481C361.753 85.5547 361.88 85.6108 361.974 85.7056C362.069 85.8004 362.125 85.927 362.132 86.0609C362.139 86.1948 362.095 86.3264 362.01 86.43C360.637 87.7968 359.091 88.9769 357.41 89.94C356.248 90.6031 355.026 91.1555 353.76 91.59L353.58 91.62Z" fill="#141414"/>
<path fill-rule="evenodd" clip-rule="evenodd" d="M355.57 100.19C355.442 100.191 355.318 100.146 355.22 100.064C355.122 99.9815 355.057 99.8673 355.035 99.7413C355.014 99.6153 355.037 99.4857 355.102 99.3756C355.167 99.2655 355.269 99.182 355.39 99.14C356.594 98.728 357.756 98.2023 358.86 97.57C360.461 96.6583 361.933 95.5385 363.24 94.24C363.288 94.1817 363.347 94.1341 363.415 94.1003C363.482 94.0664 363.556 94.047 363.631 94.0433C363.706 94.0396 363.781 94.0517 363.852 94.0788C363.922 94.1059 363.986 94.1475 364.039 94.2008C364.093 94.2541 364.134 94.3179 364.161 94.3883C364.188 94.4586 364.2 94.5338 364.197 94.6091C364.193 94.6844 364.174 94.7581 364.14 94.8254C364.106 94.8927 364.058 94.9522 364 95C361.678 97.3251 358.857 99.0899 355.75 100.16L355.57 100.19Z" fill="#141414"/>
<path fill-rule="evenodd" clip-rule="evenodd" d="M102.53 137.7C86.92 150.27 40.65 180.05 63.3 210.35C71.84 221.78 110.3 185.08 126.66 173.61L102.53 137.7Z" fill="white" stroke="#141414" stroke-miterlimit="10"/>
<path fill-rule="evenodd" clip-rule="evenodd" d="M153.01 209.43H152.83C152.763 209.406 152.701 209.37 152.648 209.322C152.595 209.275 152.552 209.218 152.522 209.154C152.491 209.089 152.473 209.02 152.47 208.949C152.466 208.878 152.476 208.807 152.5 208.74L177.38 138.88H232.03C232.173 138.88 232.311 138.937 232.412 139.038C232.513 139.139 232.57 139.277 232.57 139.42C232.57 139.563 232.513 139.701 232.412 139.802C232.311 139.903 232.173 139.96 232.03 139.96H178.14L153.51 209.11C153.468 209.207 153.398 209.29 153.309 209.347C153.22 209.404 153.116 209.433 153.01 209.43Z" fill="url(#paint1_linear_113_322)"/>
<path fill-rule="evenodd" clip-rule="evenodd" d="M88.59 144.37C94.32 139.07 137.3 100.64 195.74 110.2C229.44 115.72 250.86 125.39 263.24 133.2C250.88 155.57 246.88 160.52 239.9 169.2C243.46 187.327 247.023 205.457 250.59 223.59C224.09 223.36 138.59 220.8 111.59 219.87C116.39 204.53 121.2 196.32 126 180.98L114.84 190.28C106.26 175.98 96.26 157.85 88.59 144.37Z" fill="white" stroke="#141414" stroke-miterlimit="10"/>
<path fill-rule="evenodd" clip-rule="evenodd" d="M209.9 212.25H155.62L180.38 142.74H234.65L209.9 212.25Z" fill="#141414"/>
<path fill-rule="evenodd" clip-rule="evenodd" d="M75.29 173.44C93.86 174.68 137.73 175.44 142.01 175.69C150.01 176.15 192.88 179.69 193.01 185.96C193.08 188.96 184.79 188.63 182.01 188.44C184.2 189.71 193.12 193.66 192.33 196.91C191.41 200.73 180.05 197.65 179.85 197.71C182.2 198.77 191.73 202.62 191.24 205.08C190.6 208.28 180.65 207.36 177.69 206.95C177.94 207.4 187.53 209.73 186.92 213.58C186.48 216.4 177.35 215.58 173.4 215.19C166.29 214.79 83.4 214.6 67.96 212.6C61.94 211.8 67.14 179.26 75.29 173.44Z" fill="white" stroke="#141414" stroke-miterlimit="10"/>
<path fill-rule="evenodd" clip-rule="evenodd" d="M182.14 188.69C182.07 188.699 182 188.699 181.93 188.69C180.41 188.035 178.846 187.487 177.25 187.05C174.377 186.26 171.418 185.827 168.44 185.76C168.297 185.76 168.159 185.703 168.058 185.602C167.957 185.501 167.9 185.363 167.9 185.22C167.9 185.077 167.957 184.939 168.058 184.838C168.159 184.737 168.297 184.68 168.44 184.68C173.22 184.776 177.937 185.794 182.33 187.68C182.461 187.737 182.564 187.844 182.617 187.977C182.669 188.11 182.667 188.259 182.61 188.39C182.568 188.479 182.502 188.555 182.419 188.608C182.335 188.661 182.239 188.69 182.14 188.69Z" fill="#141414"/>
<path fill-rule="evenodd" clip-rule="evenodd" d="M180.03 198.05H179.87L178.87 197.75C175.997 196.963 173.038 196.533 170.06 196.47C169.917 196.47 169.779 196.413 169.678 196.312C169.577 196.211 169.52 196.073 169.52 195.93C169.52 195.787 169.577 195.649 169.678 195.548C169.779 195.447 169.917 195.39 170.06 195.39C173.126 195.456 176.172 195.899 179.13 196.71L180.13 197.02C180.199 197.041 180.262 197.075 180.318 197.12C180.373 197.165 180.419 197.221 180.452 197.285C180.486 197.348 180.506 197.417 180.513 197.489C180.519 197.56 180.512 197.632 180.49 197.7C180.455 197.797 180.394 197.881 180.312 197.943C180.23 198.005 180.132 198.042 180.03 198.05Z" fill="#141414"/>
<path fill-rule="evenodd" clip-rule="evenodd" d="M177.51 207.39H177.41C175.492 207.039 173.549 206.839 171.6 206.79C171.529 206.789 171.459 206.773 171.394 206.745C171.329 206.717 171.27 206.676 171.221 206.625C171.172 206.574 171.133 206.513 171.107 206.447C171.081 206.381 171.069 206.311 171.07 206.24C171.068 206.168 171.082 206.097 171.109 206.031C171.137 205.964 171.177 205.904 171.229 205.855C171.281 205.805 171.342 205.766 171.409 205.741C171.477 205.717 171.548 205.706 171.62 205.71C173.633 205.751 175.64 205.955 177.62 206.32C177.76 206.347 177.885 206.428 177.965 206.546C178.046 206.664 178.076 206.809 178.05 206.95C178.028 207.076 177.962 207.19 177.862 207.271C177.763 207.352 177.638 207.394 177.51 207.39Z" fill="#141414"/>
<path fill-rule="evenodd" clip-rule="evenodd" d="M137.95 81.11C131.882 81.11 125.95 79.3107 120.905 75.9395C115.86 72.5683 111.927 67.7768 109.605 62.1707C107.283 56.5647 106.676 50.396 107.86 44.4446C109.043 38.4933 111.965 33.0267 116.256 28.736C120.547 24.4453 126.013 21.5233 131.965 20.3395C137.916 19.1557 144.085 19.7633 149.691 22.0854C155.297 24.4075 160.088 28.3398 163.46 33.3851C166.831 38.4304 168.63 44.3621 168.63 50.43C168.622 58.5644 165.387 66.3634 159.635 72.1153C153.883 77.8672 146.084 81.1021 137.95 81.11ZM137.95 20.83C132.096 20.83 126.373 22.566 121.505 25.8185C116.637 29.071 112.844 33.6939 110.603 39.1026C108.363 44.5113 107.777 50.4628 108.919 56.2047C110.061 61.9465 112.88 67.2207 117.02 71.3604C121.159 75.5 126.433 78.3191 132.175 79.4613C137.917 80.6034 143.869 80.0172 149.277 77.7768C154.686 75.5365 159.309 71.7426 162.561 66.8749C165.814 62.0072 167.55 56.2843 167.55 50.43C167.539 42.5829 164.417 35.0601 158.869 29.5113C153.32 23.9626 145.797 20.8406 137.95 20.83Z" fill="#141414"/>
<path fill-rule="evenodd" clip-rule="evenodd" d="M180.9 37.54C180.9 44.9691 178.697 52.2313 174.569 58.4083C170.442 64.5852 164.575 69.3993 157.711 72.2419C150.847 75.0844 143.295 75.8276 136.009 74.3776C128.723 72.9275 122.03 69.3493 116.778 64.0954C111.525 58.8415 107.949 52.1481 106.5 44.8615C105.052 37.5749 105.798 30.0225 108.642 23.1595C111.486 16.2965 116.302 10.4311 122.48 6.30515C128.658 2.1792 135.921 -0.0219656 143.35 -0.0199877C153.31 -0.017336 162.861 3.94103 169.902 10.9846C176.944 18.0282 180.9 27.5802 180.9 37.54Z" fill="#141414"/>
<path fill-rule="evenodd" clip-rule="evenodd" d="M208.23 66.8C208.23 71.8118 206.744 76.711 203.959 80.8781C201.175 85.0453 197.217 88.2932 192.587 90.2111C187.957 92.129 182.862 92.6308 177.946 91.6531C173.031 90.6753 168.516 88.2619 164.972 84.7181C161.428 81.1742 159.015 76.6591 158.037 71.7436C157.059 66.8281 157.561 61.7331 159.479 57.1028C161.397 52.4725 164.645 48.515 168.812 45.7306C172.979 42.9462 177.878 41.46 182.89 41.46C189.611 41.46 196.056 44.1297 200.808 48.8819C205.56 53.6341 208.23 60.0794 208.23 66.8Z" fill="#141414"/>
<path fill-rule="evenodd" clip-rule="evenodd" d="M173.17 106C173.17 108.652 174.224 111.196 176.099 113.071C177.974 114.946 180.518 116 183.17 116H185.17C187.822 116 190.366 114.946 192.241 113.071C194.116 111.196 195.17 108.652 195.17 106V100C195.17 97.3478 194.116 94.8043 192.241 92.9289C190.366 91.0536 187.822 90 185.17 90H183.17C180.518 90 177.974 91.0536 176.099 92.9289C174.224 94.8043 173.17 97.3478 173.17 100V106Z" fill="white"/>
<path fill-rule="evenodd" clip-rule="evenodd" d="M204.98 117.09C204.98 121.09 195.91 124.36 184.73 124.36C173.55 124.36 164.48 121.11 164.48 117.09C164.48 113.07 173.55 109.82 184.73 109.82C195.91 109.82 204.98 113.07 204.98 117.09Z" fill="white" stroke="#141414" stroke-miterlimit="10"/>
<path fill-rule="evenodd" clip-rule="evenodd" d="M203.61 97.83C198.01 101.83 182.2 91.01 182.2 91.01L173.15 72.08C173.15 67.4387 174.994 62.9875 178.276 59.7056C181.558 56.4237 186.009 54.58 190.65 54.58C195.291 54.58 199.742 56.4237 203.024 59.7056C206.306 62.9875 208.15 67.4387 208.15 72.08C208.15 72.08 209.31 93.78 203.61 97.83Z" fill="white"/>
<path fill-rule="evenodd" clip-rule="evenodd" d="M173.17 106C173.17 108.652 174.224 111.196 176.099 113.071C177.974 114.946 180.518 116 183.17 116H185.17C187.822 116 190.366 114.946 192.241 113.071C194.116 111.196 195.17 108.652 195.17 106V100C195.17 97.3478 194.116 94.8043 192.241 92.9289C190.366 91.0536 187.822 90 185.17 90H183.17C180.518 90 177.974 91.0536 176.099 92.9289C174.224 94.8043 173.17 97.3478 173.17 100V106Z" fill="white" stroke="#141414" stroke-miterlimit="10"/>
<path fill-rule="evenodd" clip-rule="evenodd" d="M203.61 97.83C198.01 101.83 182.2 91.01 182.2 91.01L173.15 72.08C173.15 67.4387 174.994 62.9875 178.276 59.7056C181.558 56.4237 186.009 54.58 190.65 54.58C195.291 54.58 199.742 56.4237 203.024 59.7056C206.306 62.9875 208.15 67.4387 208.15 72.08C208.15 72.08 209.31 93.78 203.61 97.83Z" fill="white" stroke="#141414" stroke-miterlimit="10"/>
<path fill-rule="evenodd" clip-rule="evenodd" d="M199.1 86C198.153 86.0057 197.223 85.7421 196.42 85.24C195.659 84.7711 195.047 84.0951 194.655 83.2912C194.264 82.4872 194.109 81.5885 194.21 80.7C194.242 80.4873 194.357 80.2958 194.529 80.1667C194.701 80.0376 194.917 79.9813 195.13 80.01C195.235 80.02 195.337 80.0507 195.431 80.1005C195.524 80.1502 195.607 80.218 195.674 80.2998C195.741 80.3817 195.791 80.4759 195.821 80.5772C195.851 80.6785 195.861 80.7848 195.85 80.89C195.788 81.4777 195.893 82.071 196.153 82.6017C196.413 83.1324 196.818 83.579 197.32 83.89C197.859 84.2186 198.479 84.3924 199.11 84.3924C199.741 84.3924 200.361 84.2186 200.9 83.89C201.085 83.7773 201.306 83.7394 201.518 83.784C201.729 83.8286 201.916 83.9523 202.04 84.13C202.098 84.2171 202.138 84.3152 202.156 84.4181C202.175 84.5211 202.173 84.6268 202.15 84.7288C202.126 84.8308 202.082 84.927 202.02 85.0114C201.959 85.0959 201.88 85.1668 201.79 85.22C200.982 85.723 200.051 85.993 199.1 86Z" fill="#141414"/>
<path fill-rule="evenodd" clip-rule="evenodd" d="M168.89 76.69C168.89 76.69 174.47 74.45 180.22 80.36L183.95 78.36C183.95 78.36 181.79 54.56 207.87 63.92C207.87 63.92 198.92 43.92 181.47 51.27C164.02 58.62 168.89 76.69 168.89 76.69Z" fill="#141414"/>
<path fill-rule="evenodd" clip-rule="evenodd" d="M168.72 80.87C169.72 84.29 172.98 86.34 175.95 85.45C178.92 84.56 180.5 81.07 179.48 77.65C178.46 74.23 175.22 72.18 172.25 73.07C169.28 73.96 167.65 77.45 168.72 80.87Z" fill="white"/>
<path fill-rule="evenodd" clip-rule="evenodd" d="M177.11 78.78C176.993 78.7803 176.879 78.7424 176.785 78.672C176.691 78.6017 176.623 78.5027 176.59 78.39C176.413 77.6416 175.955 76.9898 175.311 76.5692C174.667 76.1486 173.886 75.9914 173.13 76.13C172.699 76.2729 172.314 76.5264 172.012 76.8651C171.71 77.2038 171.503 77.6159 171.41 78.06C171.375 78.1974 171.287 78.3153 171.165 78.3882C171.043 78.4612 170.898 78.4834 170.76 78.45C170.691 78.4337 170.627 78.4038 170.57 78.362C170.513 78.3203 170.465 78.2677 170.428 78.2071C170.392 78.1465 170.368 78.0793 170.358 78.0094C170.348 77.9395 170.352 77.8683 170.37 77.8C170.507 77.1751 170.805 76.597 171.235 76.1232C171.665 75.6495 172.211 75.2967 172.82 75.1C173.333 74.98 173.864 74.9625 174.384 75.0484C174.904 75.1344 175.401 75.3221 175.848 75.6008C176.295 75.8796 176.683 76.2438 176.988 76.6727C177.294 77.1016 177.512 77.5866 177.63 78.1C177.651 78.1676 177.659 78.2388 177.653 78.3095C177.646 78.3801 177.625 78.4487 177.592 78.5111C177.558 78.5736 177.512 78.6287 177.457 78.6732C177.402 78.7177 177.338 78.7506 177.27 78.77L177.11 78.78Z" fill="#141414"/>
<path d="M191.72 78C192.337 78.113 192.973 78.0334 193.543 77.7719C194.112 77.5103 194.587 77.0797 194.904 76.5384C195.22 75.9972 195.361 75.3717 195.31 74.7471C195.258 74.1224 195.014 73.529 194.613 73.0474C194.212 72.5659 193.672 72.2197 193.067 72.056C192.462 71.8922 191.821 71.9188 191.232 72.1322C190.642 72.3456 190.133 72.7353 189.773 73.2485C189.413 73.7616 189.22 74.3732 189.22 75C189.159 75.7283 189.387 76.4514 189.855 77.0129C190.322 77.5743 190.993 77.929 191.72 78Z" fill="#141414"/>
<path d="M199.72 76C200.337 76.113 200.973 76.0334 201.543 75.7719C202.112 75.5103 202.587 75.0797 202.904 74.5384C203.22 73.9972 203.361 73.3717 203.31 72.7471C203.258 72.1224 203.014 71.529 202.613 71.0474C202.212 70.5659 201.672 70.2197 201.067 70.056C200.462 69.8922 199.821 69.9188 199.232 70.1322C198.642 70.3456 198.133 70.7353 197.773 71.2485C197.413 71.7616 197.22 72.3732 197.22 73C197.159 73.7283 197.387 74.4514 197.855 75.0129C198.322 75.5743 198.993 75.929 199.72 76Z" fill="#141414"/>
</g>
<defs>
<linearGradient id="paint0_linear_113_322" x1="162.171" y1="400.003" x2="162.171" y2="197.02" gradientUnits="userSpaceOnUse">
<stop stop-color="#DC1D47"/>
<stop offset="1" stop-color="#E54327"/>
</linearGradient>
<linearGradient id="paint1_linear_113_322" x1="192.521" y1="209.431" x2="192.521" y2="138.88" gradientUnits="userSpaceOnUse">
<stop stop-color="#DC1D47"/>
<stop offset="1" stop-color="#E54327"/>
</linearGradient>
<clipPath id="clip0_113_322">
<rect width="400" height="400" fill="white"/>
</clipPath>
</defs>
</svg>
