<svg width="32" height="32" viewBox="0 0 32 32" fill="none" xmlns="http://www.w3.org/2000/svg">
<path d="M15.9999 23.9991C15.9999 25.1031 15.1049 25.9991 14 25.9991C12.895 25.9991 12 25.1031 12 23.9991C12 21.9991 14 15.999 14 15.999C14 15.999 15.9999 21.9991 15.9999 23.9991Z" stroke="#DC1D47" stroke-miterlimit="10" stroke-linecap="round" stroke-linejoin="round"/>
<path d="M5.00001 21H1C1 12.7215 7.72 6 16 6C24.2801 6 31 12.7215 31 21H23C23 16.033 18.965 12 14 12C9.03501 12 5.00001 16.033 5.00001 21Z" stroke="#141414" stroke-miterlimit="10" stroke-linecap="round" stroke-linejoin="round"/>
<path d="M6.20518 16.4989L2.53516 14.3809" stroke="#141414" stroke-miterlimit="10" stroke-linecap="round" stroke-linejoin="round"/>
<path d="M9.49986 13.2049L7.0498 8.96289" stroke="#141414" stroke-miterlimit="10" stroke-linecap="round" stroke-linejoin="round"/>
<path d="M14 11.9994V6.13184" stroke="#141414" stroke-miterlimit="10" stroke-linecap="round" stroke-linejoin="round"/>
<path d="M18.5 13.205L21.95 7.22754" stroke="#141414" stroke-miterlimit="10" stroke-linecap="round" stroke-linejoin="round"/>
<path d="M21.7944 16.4994L28.4595 12.6504" stroke="#141414" stroke-miterlimit="10" stroke-linecap="round" stroke-linejoin="round"/>
</svg>
