<svg width="64" height="64" viewBox="0 0 64 64" fill="none" xmlns="http://www.w3.org/2000/svg">
<g clip-path="url(#clip0_54_686)">
<path d="M11.33 0.0100098H52.66C58.93 0.0100098 64 5.20001 64 11.63V52.38C64 58.81 58.93 64 52.67 64H11.33C5.07 64 0 58.81 0 52.38V11.63C0 5.20001 5.07 0.0100098 11.33 0.0100098Z" fill="#001E36"/>
<path d="M14.4 44.89V16.74C14.4 16.55 14.48 16.44 14.67 16.44C15.12 16.44 15.55 16.44 16.16 16.41C16.8 16.38 17.47 16.38 18.19 16.36C18.91 16.33 19.68 16.33 20.51 16.31C21.34 16.28 22.14 16.28 22.94 16.28C25.13 16.28 26.94 16.55 28.43 17.13C29.76 17.6 30.99 18.36 32 19.37C32.85 20.25 33.52 21.31 33.95 22.49C34.35 23.64 34.56 24.81 34.56 26.05C34.56 28.4 34.03 30.34 32.96 31.88C31.89 33.41 30.4 34.56 28.67 35.22C26.86 35.9 24.86 36.15 22.67 36.15C22.03 36.15 21.6 36.15 21.34 36.12C21.07 36.09 20.7 36.09 20.19 36.09V44.87C20.22 45.06 20.08 45.23 19.9 45.25H14.73C14.51 45.24 14.4 45.13 14.4 44.89ZM20.21 21.72V30.91C20.58 30.94 20.93 30.96 21.25 30.96H22.66C23.7 30.96 24.74 30.8 25.73 30.47C26.58 30.22 27.33 29.7 27.92 29.02C28.48 28.34 28.75 27.41 28.75 26.2C28.78 25.35 28.56 24.5 28.14 23.77C27.69 23.06 27.05 22.51 26.27 22.21C25.28 21.8 24.22 21.64 23.12 21.66C22.43 21.66 21.81 21.66 21.31 21.69C20.77 21.67 20.4 21.69 20.21 21.72ZM51.2 29.24C50.4 28.8 49.55 28.5 48.64 28.31C47.65 28.09 46.67 27.95 45.65 27.95C45.12 27.92 44.56 28 44.05 28.14C43.7 28.22 43.41 28.41 43.22 28.69C43.09 28.91 43.01 29.18 43.01 29.43C43.01 29.68 43.12 29.92 43.28 30.14C43.52 30.44 43.84 30.69 44.19 30.88C44.8 31.21 45.44 31.51 46.08 31.78C47.52 32.27 48.91 32.96 50.19 33.78C51.07 34.35 51.79 35.12 52.3 36.05C52.73 36.93 52.94 37.88 52.91 38.87C52.94 40.16 52.56 41.44 51.87 42.51C51.12 43.6 50.08 44.45 48.88 44.94C47.57 45.51 45.97 45.82 44.05 45.82C42.82 45.82 41.62 45.71 40.42 45.46C39.49 45.3 38.55 45 37.7 44.58C37.51 44.47 37.38 44.28 37.41 44.06V39.3C37.41 39.22 37.44 39.11 37.52 39.05C37.6 39 37.68 39.02 37.76 39.08C38.8 39.71 39.89 40.15 41.07 40.42C42.08 40.69 43.15 40.83 44.22 40.83C45.23 40.83 45.95 40.69 46.43 40.45C46.86 40.26 47.15 39.79 47.15 39.3C47.15 38.92 46.94 38.56 46.51 38.21C46.08 37.85 45.2 37.44 43.9 36.92C42.54 36.43 41.29 35.77 40.11 34.95C39.28 34.35 38.59 33.56 38.08 32.63C37.65 31.75 37.44 30.8 37.47 29.84C37.47 28.66 37.79 27.54 38.38 26.53C39.05 25.44 40.03 24.56 41.18 24.01C42.43 23.35 44.01 23.05 45.9 23.05C46.99 23.05 48.11 23.13 49.21 23.3C50.01 23.41 50.78 23.63 51.5 23.93C51.61 23.96 51.71 24.07 51.77 24.18C51.8 24.29 51.82 24.4 51.82 24.51V28.97C51.82 29.08 51.77 29.19 51.69 29.24C51.44 29.3 51.31 29.3 51.2 29.24Z" fill="#31A8FF"/>
</g>
<defs>
<clipPath id="clip0_54_686">
<rect width="64" height="64" fill="white"/>
</clipPath>
</defs>
</svg>
