<svg width="64" height="64" viewBox="0 0 64 64" fill="none" xmlns="http://www.w3.org/2000/svg">
<g clip-path="url(#clip0_54_693)">
<path d="M0.919997 16.3C0.909997 13.54 1.24 10.84 2.39 8.31001C4.19 4.36001 7.33 2.10001 11.53 1.23001C14.87 0.53001 18.18 0.86001 21.47 1.58001C22.61 1.83001 23.73 2.16001 24.85 2.47001C25.16 2.55001 25.45 2.64001 25.76 2.47001C28.65 0.87001 31.8 0.41001 35.01 0.77001C37.17 1.01001 39.2 0.76001 41.31 0.40001C46.64 -0.51999 51.77 0.03001 56.49 2.91001C58.35 4.04001 59.92 5.50001 61.24 7.23001C62.41 8.76001 62.71 10.58 62.76 12.43C62.86 16.01 62.09 19.46 61.1 22.86C59.76 27.44 57.86 31.78 55.51 35.93C55.4 36.12 55.17 36.32 55.29 36.53C55.42 36.74 55.71 36.63 55.92 36.6C56.96 36.45 58 36.27 59.04 36.12C60.72 35.87 62.2 36.62 62.82 38.06C63.33 39.26 63.09 40.39 62.36 41.43C61.46 42.71 60.2 43.57 58.86 44.31C56.37 45.68 53.66 46.08 50.87 46.05C50.27 46.04 50.12 46.19 50.1 46.77C49.99 49.48 49.82 52.18 49.2 54.83C47.93 60.23 45.11 62.9 39.64 63.84C38.32 64.07 37 64.09 35.71 63.73C33.48 63.11 32.1 61.59 31.2 59.53C30.1 57.03 29.75 54.38 29.61 51.68C29.56 50.65 29.52 49.62 29.48 48.59C29.45 47.81 29.46 47.81 28.73 48.05C26.32 48.82 23.91 48.72 21.52 48C20.61 47.73 19.76 47.32 19.07 46.64C18.81 46.39 18.61 46.38 18.32 46.59C15.73 48.46 12.74 47.9 10.57 45.75C8.67 43.87 7.47 41.53 6.46 39.11C3.86 32.88 2.23 26.38 1.17 19.72C1.08 19.12 0.989997 18.52 0.939997 17.92C0.889997 17.37 0.919997 16.83 0.919997 16.3ZM2.83 16.34C2.86 16.95 2.81 17.78 2.92 18.6C3.45 22.6 4.37 26.52 5.46 30.4C6.49 34.05 7.68 37.64 9.5 40.99C10.37 42.59 11.37 44.11 12.97 45.1C14.25 45.89 15.55 45.88 16.84 45.09C17.58 44.64 18.13 43.99 18.69 43.35C20.1 41.75 21.5 40.15 22.91 38.56C23.12 38.32 23.33 38.06 23.71 38.25C24.6 38.69 25.54 38.97 26.54 39.03C26.87 39.05 27 39.22 26.78 39.52C26.14 40.39 25.51 41.27 24.35 41.51C23.78 41.63 23.22 41.79 22.65 41.92C21.91 42.09 21.16 42.26 20.51 42.68C19.57 43.29 19.46 44.25 20.24 45.06C20.57 45.41 20.97 45.67 21.41 45.83C24.52 46.94 27.52 46.91 30.32 44.92C30.49 44.8 30.65 44.53 30.89 44.67C31.08 44.78 31 45.04 31 45.23C30.94 47.45 31.07 49.66 31.15 51.88C31.21 53.49 31.26 55.11 31.68 56.67C32.42 59.45 34.16 61.69 37.08 62.08C38.69 62.29 40.24 61.95 41.78 61.48C44.73 60.58 46.43 58.58 47.07 55.62C47.41 54.04 47.53 52.43 47.74 50.84C48.03 48.64 48.29 46.45 48.57 44.25C48.61 43.92 48.7 43.7 49.12 43.8C50.59 44.12 52.06 44.04 53.54 43.86C55.77 43.58 57.8 42.82 59.56 41.4C60.08 40.98 60.59 40.53 60.89 39.9C61.36 38.91 60.89 38.08 59.8 38C59.31 37.96 58.82 38.01 58.33 38.1C56.59 38.42 54.84 38.75 53.06 38.4C51.93 38.18 51.84 38 52.45 37.04C55.13 32.82 57.23 28.32 58.76 23.57C60.02 19.67 60.96 15.72 60.69 11.58C60.6 10.21 60.21 8.96001 59.3 7.88001C55.95 3.90001 51.58 2.11001 46.48 1.88001C43.7 1.76001 40.98 2.16001 38.32 2.96001C38.08 3.03001 37.85 3.09001 37.6 3.04001C36.64 2.82001 35.66 2.70001 34.68 2.61001C32.06 2.38001 29.48 2.60001 27.17 3.89001C26.03 4.53001 25.1 4.49001 23.92 4.12001C20.15 2.92001 16.29 2.27001 12.32 2.95001C8.61 3.58001 5.79 5.45001 4.18 8.95001C3.12 11.21 2.8 13.63 2.83 16.34Z" fill="black"/>
<path d="M33.31 4.16005C39.4 4.28005 44.15 6.92005 47.68 11.82C48.63 13.13 49.43 14.53 50.02 16.04C50.28 16.7 50.23 16.76 49.51 16.75C48.34 16.73 47.18 16.69 46.04 17.01C43.99 17.59 42.76 19.17 42.7 21.28C42.63 23.71 43.48 25.89 44.43 28.05C45.51 30.49 46.94 32.75 48.11 35.14C48.46 35.86 48.98 36.5 49.51 37.1101C49.83 37.4901 49.87 37.71 49.32 37.92C48.01 38.43 47.38 39.4801 47.29 40.8301C47.13 43.3301 46.69 45.8 46.42 48.2901C46.21 50.2001 45.93 52.1 45.69 54.01C45.22 57.79 43.63 59.5101 39.86 60.2701C39.18 60.41 38.49 60.5101 37.79 60.4701C35.49 60.3601 33.92 58.93 33.22 56C32.76 54.0801 32.75 52.09 32.71 50.1301C32.64 47.2601 32.63 44.4 32.71 41.53C32.76 39.69 31.38 37.6701 29.21 37.7701C28.65 37.8 28.89 37.39 28.96 37.16C29.35 35.87 29.82 34.6101 30.41 33.4C31.95 30.23 32.13 26.91 31.68 23.49C31.53 22.4 31.36 21.32 31.06 20.26C30.5 18.29 28.91 17.07 26.86 16.99C24.92 16.91 23.14 17.49 21.43 18.31C20.79 18.62 20.75 18.6 20.83 17.89C21.18 14.57 22.02 11.41 23.97 8.65005C26.24 5.46005 29.44 4.12005 33.31 4.16005Z" fill="#336892"/>
<path d="M15.5 4.30996C18.26 4.30996 20.93 4.85996 23.56 5.65996C23.94 5.76996 24.21 5.88997 23.81 6.31997C21.39 8.86997 20.21 12 19.56 15.37C19.15 17.5 18.96 19.65 19.11 21.84C19.26 24.09 19.21 26.35 18.93 28.61C18.54 31.71 19.28 34.49 21.59 36.72C21.92 37.04 21.92 37.27 21.6 37.61C20.04 39.25 18.56 40.96 17.11 42.7C17 42.84 16.87 42.97 16.75 43.1C15.48 44.34 14.32 44.35 13.06 43.12C11.65 41.75 10.76 40.03 9.99003 38.26C7.26003 31.98 5.61003 25.38 4.58003 18.63C4.14003 15.76 4.37003 12.9 5.42003 10.16C6.75003 6.68996 9.45003 4.97996 13.02 4.44996C13.84 4.32996 14.67 4.28996 15.5 4.30996Z" fill="#336892"/>
<path d="M40.95 4.03997C41.92 3.67997 42.82 3.61997 43.7 3.55997C46.66 3.34997 49.57 3.56997 52.35 4.70997C54.48 5.58997 56.27 6.92997 57.83 8.61997C58.83 9.70997 59.09 11.01 59.14 12.4C59.23 14.93 58.76 17.39 58.15 19.83C56.72 25.47 54.43 30.75 51.37 35.7C51.26 35.88 51.19 36.25 50.86 36.07C50.53 35.89 50.7 35.61 50.83 35.37C52.04 33.17 52.15 30.79 51.86 28.38C51.54 25.81 51.36 23.26 51.91 20.7C52.53 17.87 51.81 15.32 50.35 12.88C48.14 9.17997 45.28 6.17997 41.34 4.28997C41.24 4.25997 41.15 4.17997 40.95 4.03997Z" fill="#336892"/>
<path d="M20.43 29.8799C20.5 29.2299 20.61 28.2899 20.69 27.3599C20.87 25.3699 20.89 23.3799 20.7 21.3999C20.65 20.8899 20.84 20.5599 21.28 20.2999C23.1 19.2699 24.98 18.4599 27.14 18.6999C28.27 18.8199 29.06 19.4299 29.41 20.5199C29.86 21.9099 30.02 23.3599 30.19 24.7999C30.55 27.8899 29.94 30.7899 28.57 33.5799C28.07 34.5999 27.74 35.6999 27.38 36.7799C27.22 37.2599 27.03 37.4599 26.47 37.3799C23.01 36.8799 20.44 33.8299 20.43 29.8799ZM26.79 19.8099C26.57 19.8199 26.34 19.8199 26.12 19.8599C25.52 19.9699 25.34 20.3699 25.63 20.8899C26.16 21.8399 27.44 22.0699 28.23 21.3599C28.77 20.8799 28.73 20.4399 28.09 20.0999C27.69 19.8799 27.25 19.8199 26.79 19.8099Z" fill="#336892"/>
<path d="M48.66 18.32C50.76 18.46 50.6 18.26 50.28 20.23C49.86 22.91 49.78 25.56 50.2 28.24C50.48 30.02 50.48 31.81 49.85 33.54C49.78 33.74 49.77 34.05 49.5 34.05C49.29 34.05 49.24 33.77 49.16 33.59C47.94 31.07 46.4 28.71 45.4 26.09C44.92 24.83 44.51 23.56 44.36 22.21C44.11 20.02 45.08 18.72 47.26 18.42C47.72 18.36 48.18 18.28 48.66 18.32ZM47.56 19.31C47.09 19.37 46.6 19.42 46.17 19.68C45.75 19.94 45.71 20.25 46.07 20.6C46.59 21.1 47.45 21.15 48.03 20.68C48.33 20.44 48.68 20.18 48.54 19.75C48.41 19.3 47.96 19.37 47.56 19.31Z" fill="#336892"/>
<path d="M25.34 44.89C24.17 44.86 23.14 44.76 22.18 44.35C22 44.28 21.73 44.24 21.76 43.99C21.79 43.75 22.05 43.75 22.24 43.7C22.98 43.52 23.72 43.34 24.46 43.17C25.75 42.87 26.81 42.23 27.6 41.14C27.96 40.64 28.4 40.18 28.83 39.73C29.21 39.33 29.65 39.34 30.11 39.62C31.09 40.21 31.33 41.43 30.63 42.32C29.25 44.08 27.42 44.89 25.34 44.89Z" fill="#336892"/>
<path d="M58.76 39.6999C58.66 40.1099 58.38 40.2399 58.15 40.3999C55.65 42.1399 52.85 42.5499 49.9 42.2499C49.53 42.2099 48.99 42.2199 48.92 41.7199C48.82 41.0499 48.93 40.3699 49.39 39.8199C49.85 39.2699 50.74 39.1599 51.38 39.4899C52.04 39.8299 52.75 40.0299 53.5 40.0699C55.12 40.1699 56.72 40.0599 58.31 39.7499C58.42 39.7299 58.55 39.7299 58.76 39.6999Z" fill="#336892"/>
</g>
<defs>
<clipPath id="clip0_54_693">
<rect width="64" height="64" fill="white"/>
</clipPath>
</defs>
</svg>
