<svg width="32" height="32" viewBox="0 0 32 32" fill="none" xmlns="http://www.w3.org/2000/svg">
<path d="M29.1328 5H2.86722C1.83602 5 1 5.83602 1 6.86722V24.2945C1 25.3258 1.83602 26.1617 2.86722 26.1617H29.1328C30.164 26.1617 31 25.3258 31 24.2945V6.86722C31 5.83602 30.164 5 29.1328 5Z" stroke="#141414" stroke-miterlimit="10" stroke-linecap="round" stroke-linejoin="round"/>
<path d="M9.09122 13.7129C6.68499 13.7129 4.73438 15.6635 4.73438 18.0697V18.6921H13.4482V18.0697C13.4482 15.6635 11.4974 13.7129 9.09122 13.7129Z" stroke="#141414" stroke-miterlimit="10" stroke-linecap="round" stroke-linejoin="round"/>
<path d="M11.5808 11.224C11.5808 12.5989 10.4661 13.7137 9.09119 13.7137C7.71623 13.7137 6.60156 12.5989 6.60156 11.224C6.60156 9.84899 7.71623 8.73438 9.09119 8.73438C10.4661 8.73438 11.5808 9.84899 11.5808 11.224Z" stroke="#141414" stroke-miterlimit="10" stroke-linecap="round" stroke-linejoin="round"/>
<path d="M4.73438 22.4268H13.4482" stroke="#141414" stroke-miterlimit="10" stroke-linecap="round" stroke-linejoin="round"/>
<path d="M17.3071 8.73438H27.2656" stroke="#141414" stroke-miterlimit="10" stroke-linecap="round" stroke-linejoin="round"/>
<path d="M27.2656 22.4273H17.3071V12.4688H27.2656V22.4273Z" stroke="#DC1D47" stroke-miterlimit="10" stroke-linecap="round" stroke-linejoin="round"/>
<path d="M20.3062 17.4464L21.6265 18.7666L24.2671 16.126" stroke="#DC1D47" stroke-miterlimit="10" stroke-linecap="round" stroke-linejoin="round"/>
</svg>
