<svg width="68" height="78" viewBox="0 0 68 78" fill="none" xmlns="http://www.w3.org/2000/svg">
<path d="M67.9 44.7L45.9 12.5C45.7 12.2 45.4 12.1 45.1 12.2C44.8 12.3 44.6 12.6 44.6 12.8V22.3H11.8C6 22.4 1.4 17.7 1.4 11.9C1.4 6.1 6 1.4 11.8 1.4H31.6C32 1.4 32.3 1.1 32.3 0.7C32.3 0.3 32 0 31.6 0H11.8C5.3 0 0 5.3 0 11.9V56C0 62.6 5.3 67.9 11.8 67.9H44.6V77.4C44.6 77.7 44.8 77.9 45.1 78H45.3C45.5 78 45.7 77.9 45.9 77.7L67.9 45.5C68 45.3 68 45 67.9 44.7ZM14.7 66.5H11.9C6 66.5 1.4 61.7 1.4 55.9V17.4C3.4 21.2 7.3 23.8 11.8 23.8H14.6L31.2 44.9L14.7 66.5Z" fill="#141414"/>
</svg>