<svg width="32" height="32" viewBox="0 0 32 32" fill="none" xmlns="http://www.w3.org/2000/svg">
<path d="M8.78009 7.77697V5.00552C8.78009 3.90249 9.68258 3 10.7856 3H21.2144C22.3175 3 23.2199 3.90249 23.2199 5.00552V7.77697" stroke="#141414" stroke-miterlimit="22.9256" stroke-linecap="round" stroke-linejoin="round"/>
<path fill-rule="evenodd" clip-rule="evenodd" d="M13.6971 18.0311H18.3029V20.1784C18.3029 21.3594 17.3366 22.3257 16.1556 22.3257H15.8444C14.6634 22.3257 13.6971 21.3594 13.6971 20.1784V18.0311Z" stroke="#DC1D47" stroke-miterlimit="22.9256" stroke-linecap="round" stroke-linejoin="round"/>
<path d="M29.7552 16.7396V27.3672C29.7552 28.394 28.9148 29.2344 27.888 29.2344H4.11203C3.08525 29.2344 2.24481 28.3942 2.24481 27.3672V16.8019" stroke="#141414" stroke-miterlimit="22.9256" stroke-linecap="round" stroke-linejoin="round"/>
<path d="M13.5104 19.8828C6.926 19.5063 1 17.6234 1 14.2343V9.81535C1 8.78695 1.83876 7.94813 2.86722 7.94813H29.1328C30.1612 7.94813 31 8.78701 31 9.81535V14.2343C31 17.6447 24.9991 19.5298 18.3651 19.8897" stroke="#DC1D47" stroke-miterlimit="22.9256" stroke-linecap="round" stroke-linejoin="round"/>
</svg>
