<svg width="600" height="400" viewBox="0 0 600 400" fill="none" xmlns="http://www.w3.org/2000/svg">
<path d="M400.57 398.86H0.48C0.35 398.86 0.23 398.81 0.14 398.72C0.0500003 398.63 0 398.51 0 398.38C0 398.25 0.0500003 398.13 0.14 398.04C0.23 397.95 0.35 397.9 0.48 397.9H400.58C400.71 397.9 400.83 397.95 400.92 398.04C401.01 398.13 401.06 398.25 401.06 398.38C401.06 398.51 401.01 398.63 400.92 398.72C400.83 398.81 400.71 398.86 400.58 398.86H400.57Z" fill="#141414"/>
<path d="M212.7 290.86C209.72 290.86 206.87 289.68 204.77 287.58C202.67 285.48 201.49 282.64 201.49 279.67V11.66C201.49 8.68997 202.67 5.84997 204.78 3.74997C206.88 1.64997 209.74 0.469971 212.71 0.469971H588.23C591.2 0.469971 594.06 1.64997 596.16 3.74997C598.26 5.84997 599.44 8.68997 599.44 11.66V278.17C599.44 281.54 598.1 284.76 595.71 287.14C593.32 289.52 590.09 290.86 586.72 290.86H212.7Z" fill="white"/>
<path d="M586.71 291.34H212.7C209.6 291.34 206.63 290.11 204.43 287.92C202.24 285.73 201 282.77 201 279.67V11.66C201 8.57 202.24 5.6 204.43 3.42C206.62 1.23 209.59 0 212.69 0H588.21C591.31 0 594.28 1.23 596.48 3.42C598.67 5.61 599.91 8.57 599.91 11.67V278.18C599.91 281.67 598.51 285.02 596.03 287.49C593.55 289.96 590.2 291.35 586.69 291.35L586.71 291.34ZM212.7 0.96C209.85 0.96 207.13 2.09 205.11 4.1C203.1 6.11 201.97 8.83 201.96 11.67V279.68C201.96 282.52 203.09 285.24 205.11 287.25C207.12 289.26 209.85 290.39 212.7 290.39H586.71C589.95 290.39 593.06 289.1 595.36 286.81C597.65 284.52 598.94 281.42 598.95 278.18V11.66C598.95 8.82 597.82 6.1 595.81 4.1C593.8 2.09 591.07 0.96 588.23 0.96H212.7Z" fill="#141414"/>
<path d="M576.09 146.15H467.26C467.2 146.15 467.13 146.14 467.08 146.11C467.02 146.09 466.97 146.05 466.92 146C466.88 145.96 466.84 145.9 466.82 145.84C466.8 145.78 466.78 145.72 466.78 145.66V77.5901C466.78 77.5301 466.79 77.4601 466.82 77.4101C466.84 77.3501 466.88 77.3001 466.92 77.2501C466.97 77.2101 467.02 77.1701 467.08 77.1501C467.14 77.1301 467.2 77.1101 467.26 77.1101H576.09C576.15 77.1101 576.22 77.1201 576.27 77.1501C576.33 77.1701 576.38 77.2101 576.43 77.2501C576.48 77.2901 576.51 77.3501 576.54 77.4101C576.56 77.4701 576.58 77.5301 576.58 77.5901V145.66C576.58 145.72 576.57 145.79 576.54 145.84C576.52 145.9 576.48 145.95 576.44 146C576.39 146.05 576.34 146.08 576.28 146.11C576.22 146.13 576.16 146.15 576.1 146.15H576.09ZM467.74 145.19H575.61V78.0801H467.74V145.19Z" fill="#141414"/>
<path d="M576.09 146.15C576 146.15 575.91 146.12 575.83 146.08L467 78.01C466.95 77.98 466.9 77.93 466.86 77.88C466.82 77.83 466.8 77.77 466.78 77.71C466.77 77.65 466.77 77.59 466.78 77.52C466.79 77.46 466.81 77.4 466.85 77.35C466.88 77.3 466.93 77.25 466.98 77.21C467.03 77.17 467.09 77.15 467.15 77.13C467.21 77.12 467.27 77.11 467.34 77.13C467.4 77.14 467.46 77.16 467.51 77.2L576.34 145.27C576.43 145.33 576.5 145.41 576.54 145.51C576.58 145.61 576.58 145.71 576.55 145.82C576.52 145.92 576.46 146.01 576.38 146.07C576.3 146.13 576.19 146.17 576.09 146.17V146.15Z" fill="#141414"/>
<path d="M467.25 146.15C467.15 146.15 467.04 146.12 466.96 146.05C466.88 145.99 466.82 145.9 466.79 145.8C466.76 145.7 466.77 145.59 466.8 145.49C466.84 145.39 466.91 145.31 467 145.25L575.83 77.1799C575.94 77.1099 576.07 77.0899 576.19 77.1199C576.31 77.1499 576.42 77.2199 576.49 77.3299C576.56 77.4399 576.58 77.5699 576.55 77.6899C576.52 77.8099 576.44 77.9199 576.34 77.9899L467.51 146.06C467.43 146.11 467.34 146.13 467.25 146.13V146.15Z" fill="#141414"/>
<path d="M332.36 146.15H223.52C223.39 146.15 223.27 146.1 223.18 146.01C223.09 145.92 223.04 145.8 223.04 145.67V77.6001C223.04 77.4701 223.09 77.3501 223.18 77.2601C223.27 77.1701 223.39 77.1201 223.52 77.1201H332.36C332.49 77.1201 332.61 77.1701 332.7 77.2601C332.79 77.3501 332.84 77.4701 332.84 77.6001V145.67C332.84 145.8 332.79 145.92 332.7 146.01C332.61 146.1 332.49 146.15 332.36 146.15ZM224.01 145.19H331.88V78.0801H224.01V145.19Z" fill="#141414"/>
<path d="M332.36 146.15C332.27 146.15 332.18 146.12 332.11 146.08L223.27 78.0099C223.16 77.9399 223.09 77.8299 223.06 77.7099C223.03 77.5899 223.06 77.4599 223.12 77.3499C223.19 77.2399 223.3 77.1699 223.42 77.1399C223.54 77.1099 223.68 77.1399 223.78 77.1999L332.61 145.27C332.7 145.33 332.76 145.41 332.8 145.51C332.84 145.61 332.84 145.71 332.81 145.81C332.78 145.91 332.72 146 332.64 146.06C332.56 146.12 332.46 146.16 332.35 146.16H332.36V146.15Z" fill="#141414"/>
<path d="M223.52 146.15C223.42 146.15 223.31 146.11 223.23 146.05C223.15 145.99 223.09 145.9 223.06 145.8C223.03 145.7 223.04 145.59 223.07 145.5C223.11 145.4 223.17 145.32 223.26 145.26L332.1 77.1899C332.15 77.1599 332.21 77.1299 332.27 77.1199C332.33 77.1099 332.4 77.1199 332.46 77.1199C332.52 77.1299 332.58 77.1599 332.63 77.1999C332.68 77.2399 332.73 77.2799 332.76 77.3399C332.79 77.3899 332.82 77.4499 332.83 77.5099C332.84 77.5699 332.83 77.6399 332.83 77.6999C332.83 77.7599 332.79 77.8199 332.75 77.8699C332.71 77.9199 332.67 77.9699 332.61 77.9999L223.77 146.07C223.7 146.12 223.61 146.14 223.52 146.14V146.15Z" fill="#141414"/>
<path d="M576.09 24.27H223.52V59.85H576.09V24.27Z" fill="#141414"/>
<path d="M251.84 42.8299C252.27 39.3599 249.79 36.1999 246.31 35.7699C242.83 35.3499 239.66 37.8199 239.24 41.2899C238.81 44.7599 241.29 47.9199 244.77 48.3499C248.25 48.7699 251.42 46.2999 251.84 42.8299Z" fill="white"/>
<path d="M270.27 43.5101C271.07 40.1001 268.94 36.7001 265.53 35.9001C262.11 35.1101 258.7 37.2201 257.91 40.6301C257.11 44.0401 259.24 47.4401 262.65 48.2401C266.07 49.0301 269.48 46.9201 270.27 43.5101Z" fill="white"/>
<path d="M288.93 42.45C289.15 38.96 286.49 35.95 282.99 35.74C279.49 35.52 276.48 38.18 276.26 41.67C276.04 45.16 278.7 48.17 282.2 48.38C285.7 48.6 288.71 45.94 288.93 42.45Z" fill="white"/>
<path d="M575.59 160.55V245.531H468.37V160.55H575.59Z" fill="white" stroke="black"/>
<path d="M454.22 146.15H345.39C345.33 146.15 345.26 146.14 345.21 146.11C345.15 146.09 345.1 146.05 345.05 146C345 145.96 344.97 145.9 344.95 145.84C344.93 145.78 344.91 145.72 344.91 145.66V77.5901C344.91 77.5301 344.92 77.4601 344.95 77.4101C344.97 77.3501 345.01 77.3001 345.05 77.2501C345.09 77.2101 345.15 77.1701 345.21 77.1501C345.27 77.1301 345.33 77.1101 345.39 77.1101H454.22C454.28 77.1101 454.35 77.1201 454.4 77.1501C454.46 77.1701 454.51 77.2101 454.56 77.2501C454.6 77.2901 454.64 77.3501 454.66 77.4101C454.68 77.4701 454.7 77.5301 454.7 77.5901V145.66C454.7 145.79 454.65 145.91 454.56 146C454.47 146.09 454.35 146.14 454.22 146.14V146.15ZM345.87 145.19H453.74V78.0801H345.87V145.19Z" fill="#141414"/>
<path d="M454.22 146.15C454.13 146.15 454.04 146.12 453.96 146.08L345.13 78.01C345.08 77.98 345.03 77.93 344.99 77.88C344.95 77.83 344.93 77.77 344.91 77.71C344.89 77.65 344.89 77.59 344.91 77.52C344.92 77.46 344.94 77.4 344.98 77.35C345.01 77.3 345.06 77.25 345.11 77.21C345.16 77.17 345.22 77.15 345.28 77.13C345.34 77.12 345.4 77.11 345.47 77.13C345.53 77.14 345.59 77.16 345.65 77.2L454.48 145.27C454.57 145.33 454.64 145.41 454.68 145.51C454.72 145.61 454.72 145.71 454.69 145.82C454.66 145.92 454.6 146.01 454.52 146.07C454.44 146.13 454.33 146.17 454.23 146.17L454.22 146.15Z" fill="#141414"/>
<path d="M345.39 146.15C345.29 146.15 345.18 146.12 345.1 146.05C345.02 145.99 344.96 145.9 344.93 145.8C344.9 145.7 344.91 145.59 344.94 145.49C344.98 145.39 345.05 145.31 345.14 145.25L453.97 77.1799C454.02 77.1499 454.08 77.1199 454.15 77.1099C454.21 77.0999 454.28 77.1099 454.34 77.1099C454.4 77.1199 454.46 77.1499 454.51 77.1899C454.56 77.2299 454.61 77.2699 454.64 77.3299C454.67 77.3799 454.7 77.4399 454.71 77.4999C454.72 77.5599 454.71 77.6299 454.71 77.6899C454.71 77.7499 454.67 77.8099 454.63 77.8599C454.59 77.9099 454.55 77.9599 454.49 77.9899L345.66 146.06C345.58 146.11 345.49 146.13 345.4 146.13L345.39 146.15Z" fill="#141414"/>
<path d="M558.71 184.19H485.67C485.54 184.19 485.42 184.14 485.33 184.05C485.24 183.96 485.19 183.84 485.19 183.71C485.19 183.58 485.24 183.46 485.33 183.37C485.42 183.28 485.54 183.23 485.67 183.23H558.71C558.84 183.23 558.96 183.28 559.05 183.37C559.14 183.46 559.19 183.58 559.19 183.71C559.19 183.84 559.14 183.96 559.05 184.05C558.96 184.14 558.84 184.19 558.71 184.19Z" fill="#141414"/>
<path d="M558.71 197.68H485.67C485.54 197.68 485.42 197.63 485.33 197.54C485.24 197.45 485.19 197.33 485.19 197.2C485.19 197.07 485.24 196.95 485.33 196.86C485.42 196.77 485.54 196.72 485.67 196.72H558.71C558.84 196.72 558.96 196.77 559.05 196.86C559.14 196.95 559.19 197.07 559.19 197.2C559.19 197.33 559.14 197.45 559.05 197.54C558.96 197.63 558.84 197.68 558.71 197.68Z" fill="#141414"/>
<path d="M558.71 211.2H485.67C485.54 211.2 485.42 211.15 485.33 211.06C485.24 210.97 485.19 210.85 485.19 210.72C485.19 210.59 485.24 210.47 485.33 210.38C485.42 210.29 485.54 210.24 485.67 210.24H558.71C558.84 210.24 558.96 210.29 559.05 210.38C559.14 210.47 559.19 210.59 559.19 210.72C559.19 210.85 559.14 210.97 559.05 211.06C558.96 211.15 558.84 211.2 558.71 211.2Z" fill="#141414"/>
<path d="M558.51 224.71H485.46C485.33 224.71 485.21 224.66 485.12 224.57C485.03 224.48 484.98 224.36 484.98 224.23C484.98 224.1 485.03 223.98 485.12 223.89C485.21 223.8 485.33 223.75 485.46 223.75H558.51C558.64 223.75 558.76 223.8 558.85 223.89C558.94 223.98 558.99 224.1 558.99 224.23C558.99 224.36 558.94 224.48 558.85 224.57C558.76 224.66 558.64 224.71 558.51 224.71Z" fill="#141414"/>
<path d="M400.46 250.87C400.33 250.87 400.21 250.82 400.12 250.73C400.03 250.64 399.98 250.52 399.98 250.39V187.49H281.34C281.22 187.49 281.1 187.43 281.02 187.34C280.94 187.25 280.89 187.13 280.89 187.01C280.89 186.89 280.94 186.77 281.02 186.68C281.1 186.59 281.22 186.54 281.34 186.53H400.47C400.6 186.53 400.72 186.58 400.81 186.67C400.9 186.76 400.95 186.88 400.95 187.01V250.38C400.95 250.44 400.94 250.51 400.92 250.57C400.9 250.63 400.86 250.68 400.82 250.73C400.77 250.77 400.72 250.81 400.66 250.84C400.6 250.86 400.54 250.88 400.47 250.88L400.46 250.87Z" fill="#141414"/>
<path d="M418.81 168.36C429.13 178.66 429.13 195.35 418.81 205.65C408.49 215.95 391.75 215.95 381.42 205.65C371.1 195.35 371.1 178.65 381.42 168.36C391.74 158.06 408.48 158.06 418.81 168.36Z" fill="white" stroke="#141414"/>
<path d="M391.44 196.64C391.37 196.64 391.31 196.63 391.25 196.6C391.19 196.57 391.13 196.53 391.09 196.48L382.72 187.33C382.64 187.24 382.59 187.12 382.59 187C382.59 186.88 382.64 186.76 382.72 186.67L391.09 177.52C391.09 177.52 391.18 177.44 391.24 177.41C391.3 177.38 391.36 177.37 391.42 177.37C391.48 177.37 391.55 177.37 391.61 177.4C391.67 177.42 391.73 177.46 391.77 177.5C391.82 177.54 391.85 177.59 391.88 177.65C391.91 177.71 391.92 177.77 391.92 177.83C391.92 177.89 391.92 177.96 391.89 178.01C391.87 178.07 391.84 178.12 391.79 178.17L383.72 187L391.79 195.83C391.79 195.83 391.86 195.93 391.89 195.99C391.91 196.05 391.92 196.11 391.92 196.17C391.92 196.23 391.9 196.29 391.87 196.35C391.84 196.41 391.81 196.46 391.76 196.5C391.67 196.58 391.56 196.63 391.43 196.63L391.44 196.64Z" fill="#141414"/>
<path d="M408.8 196.64C408.68 196.64 408.56 196.59 408.48 196.51C408.39 196.42 408.33 196.3 408.32 196.18C408.32 196.05 408.36 195.93 408.44 195.83L416.51 187L408.44 178.17C408.35 178.08 408.31 177.95 408.31 177.82C408.31 177.69 408.37 177.57 408.47 177.48C408.56 177.39 408.69 177.35 408.82 177.35C408.95 177.35 409.07 177.41 409.16 177.5L417.53 186.65C417.61 186.74 417.66 186.86 417.66 186.98C417.66 187.1 417.62 187.22 417.53 187.31L409.16 196.46C409.16 196.46 409.06 196.55 409 196.57C408.94 196.6 408.87 196.61 408.81 196.61L408.8 196.64Z" fill="#141414"/>
<path d="M395.29 199.92C395.21 199.92 395.14 199.9 395.07 199.86C395 199.82 394.94 199.77 394.9 199.71C394.86 199.65 394.83 199.57 394.82 199.49C394.82 199.41 394.82 199.34 394.85 199.26L404.52 174.4C404.57 174.28 404.66 174.19 404.78 174.13C404.9 174.08 405.03 174.08 405.15 174.13C405.27 174.18 405.37 174.27 405.42 174.38C405.47 174.5 405.47 174.63 405.42 174.75L395.74 199.61C395.71 199.7 395.65 199.78 395.57 199.83C395.49 199.88 395.4 199.92 395.3 199.92H395.29Z" fill="#141414"/>
<path d="M554.49 259.43H361.26V363.88H554.49V259.43Z" fill="white"/>
<path d="M554.49 364.36H361.26C361.13 364.36 361.01 364.31 360.92 364.22C360.83 364.13 360.78 364.01 360.78 363.88V259.43C360.78 259.37 360.79 259.31 360.82 259.25C360.84 259.19 360.88 259.14 360.92 259.09C360.96 259.04 361.02 259.01 361.08 258.99C361.14 258.97 361.2 258.95 361.26 258.95H554.49C554.55 258.95 554.62 258.96 554.67 258.99C554.73 259.01 554.78 259.05 554.83 259.09C554.88 259.13 554.91 259.19 554.94 259.25C554.96 259.31 554.98 259.37 554.98 259.43V363.88C554.98 364.01 554.93 364.13 554.84 364.22C554.75 364.31 554.63 364.36 554.5 364.36H554.49ZM361.74 363.4H554.02V259.91H361.74V363.4Z" fill="#141414"/>
<path d="M518.05 277.14H454.17C454.04 277.14 453.92 277.09 453.83 277C453.74 276.91 453.69 276.79 453.69 276.66C453.69 276.53 453.74 276.41 453.83 276.32C453.92 276.23 454.04 276.18 454.17 276.18H518.05C518.18 276.18 518.3 276.23 518.39 276.32C518.48 276.41 518.53 276.53 518.53 276.66C518.53 276.79 518.48 276.91 518.39 277C518.3 277.09 518.18 277.14 518.05 277.14Z" fill="#141414"/>
<path d="M441.46 277.14H382.44C382.31 277.14 382.19 277.09 382.1 277C382.01 276.91 381.96 276.79 381.96 276.66C381.96 276.53 382.01 276.41 382.1 276.32C382.19 276.23 382.31 276.18 382.44 276.18H441.46C441.59 276.18 441.71 276.23 441.8 276.32C441.89 276.41 441.94 276.53 441.94 276.66C441.94 276.79 441.89 276.91 441.8 277C441.71 277.09 441.59 277.14 441.46 277.14Z" fill="#141414"/>
<path d="M533.31 290.79H491.58C491.45 290.79 491.33 290.74 491.24 290.65C491.15 290.56 491.1 290.44 491.1 290.31C491.1 290.18 491.15 290.06 491.24 289.97C491.33 289.88 491.45 289.83 491.58 289.83H533.31C533.44 289.83 533.56 289.88 533.65 289.97C533.74 290.06 533.79 290.18 533.79 290.31C533.79 290.44 533.74 290.56 533.65 290.65C533.56 290.74 533.44 290.79 533.31 290.79Z" fill="#141414"/>
<path d="M478.52 290.79H382.44C382.31 290.79 382.19 290.74 382.1 290.65C382.01 290.56 381.96 290.44 381.96 290.31C381.96 290.18 382.01 290.06 382.1 289.97C382.19 289.88 382.31 289.83 382.44 289.83H478.52C478.65 289.83 478.77 289.88 478.86 289.97C478.95 290.06 479 290.18 479 290.31C479 290.44 478.95 290.56 478.86 290.65C478.77 290.74 478.65 290.79 478.52 290.79Z" fill="#141414"/>
<path d="M501.11 304.44H466.17C466.05 304.44 465.93 304.38 465.85 304.29C465.77 304.2 465.72 304.08 465.72 303.96C465.72 303.84 465.77 303.72 465.85 303.63C465.93 303.54 466.05 303.49 466.17 303.48H501.11C501.23 303.48 501.35 303.54 501.43 303.63C501.51 303.72 501.56 303.84 501.56 303.96C501.56 304.08 501.51 304.2 501.43 304.29C501.35 304.38 501.23 304.43 501.11 304.44Z" fill="#141414"/>
<path d="M452.75 304.44H400.45C400.33 304.44 400.21 304.38 400.13 304.29C400.05 304.2 400 304.08 400 303.96C400 303.84 400.05 303.72 400.13 303.63C400.21 303.54 400.33 303.49 400.45 303.48H452.75C452.87 303.48 452.99 303.54 453.07 303.63C453.15 303.72 453.2 303.84 453.2 303.96C453.2 304.08 453.15 304.2 453.07 304.29C452.99 304.38 452.87 304.43 452.75 304.44Z" fill="#141414"/>
<path d="M492.81 318.09H468.18C468.05 318.09 467.93 318.04 467.84 317.95C467.75 317.86 467.7 317.74 467.7 317.61C467.7 317.48 467.75 317.36 467.84 317.27C467.93 317.18 468.05 317.13 468.18 317.13H492.81C492.94 317.13 493.06 317.18 493.15 317.27C493.24 317.36 493.29 317.48 493.29 317.61C493.29 317.74 493.24 317.86 493.15 317.95C493.06 318.04 492.94 318.09 492.81 318.09Z" fill="#141414"/>
<path d="M457.87 318.09H400.45C400.32 318.09 400.2 318.04 400.11 317.95C400.02 317.86 399.97 317.74 399.97 317.61C399.97 317.48 400.02 317.36 400.11 317.27C400.2 317.18 400.32 317.13 400.45 317.13H457.87C458 317.13 458.12 317.18 458.21 317.27C458.3 317.36 458.35 317.48 458.35 317.61C458.35 317.74 458.3 317.86 458.21 317.95C458.12 318.04 458 318.09 457.87 318.09Z" fill="#141414"/>
<path d="M533.31 331.73H497.22C497.09 331.73 496.97 331.68 496.88 331.59C496.79 331.5 496.74 331.38 496.74 331.25C496.74 331.12 496.79 331 496.88 330.91C496.97 330.82 497.09 330.77 497.22 330.77H533.31C533.44 330.77 533.56 330.82 533.65 330.91C533.74 331 533.79 331.12 533.79 331.25C533.79 331.38 533.74 331.5 533.65 331.59C533.56 331.68 533.44 331.73 533.31 331.73Z" fill="#141414"/>
<path d="M486.11 331.73H421C420.87 331.73 420.75 331.68 420.66 331.59C420.57 331.5 420.52 331.38 420.52 331.25C420.52 331.12 420.57 331 420.66 330.91C420.75 330.82 420.87 330.77 421 330.77H486.11C486.24 330.77 486.36 330.82 486.45 330.91C486.54 331 486.59 331.12 486.59 331.25C486.59 331.38 486.54 331.5 486.45 331.59C486.36 331.68 486.24 331.73 486.11 331.73Z" fill="#141414"/>
<path d="M533.31 345.38H437.93C437.81 345.38 437.69 345.32 437.61 345.23C437.53 345.14 437.48 345.02 437.48 344.9C437.48 344.78 437.53 344.66 437.61 344.57C437.69 344.48 437.81 344.43 437.93 344.42H533.31C533.43 344.42 533.55 344.48 533.63 344.57C533.71 344.66 533.76 344.78 533.76 344.9C533.76 345.02 533.71 345.14 533.63 345.23C533.55 345.32 533.43 345.37 533.31 345.38Z" fill="#141414"/>
<path d="M429.16 345.38H382.45C382.33 345.38 382.21 345.32 382.13 345.23C382.05 345.14 382 345.02 382 344.9C382 344.78 382.05 344.66 382.13 344.57C382.21 344.48 382.33 344.43 382.45 344.42H429.16C429.28 344.42 429.4 344.48 429.48 344.57C429.56 344.66 429.61 344.78 429.61 344.9C429.61 345.02 429.56 345.14 429.48 345.23C429.4 345.32 429.28 345.37 429.16 345.38Z" fill="#141414"/>
<path d="M6.70021 389.2C6.63021 389.2 6.56022 389.19 6.50022 389.16C6.44022 389.13 6.39021 389.1 6.35021 389.05C6.31021 389 6.27022 388.95 6.25022 388.89C6.23022 388.83 6.22021 388.77 6.22021 388.71C6.22021 388.65 6.24022 388.59 6.26022 388.53L65.9102 259.24C65.9402 259.18 65.9702 259.13 66.0202 259.09C66.0702 259.05 66.1202 259.01 66.1802 258.99C66.2402 258.97 66.3002 258.96 66.3702 258.96C66.4302 258.96 66.5002 258.98 66.5502 259C66.6102 259.03 66.6602 259.06 66.7002 259.11C66.7402 259.16 66.7802 259.21 66.8002 259.27C66.8202 259.33 66.8302 259.39 66.8302 259.45C66.8302 259.51 66.8102 259.57 66.7902 259.63L7.14021 388.92C7.10021 389 7.04022 389.07 6.96022 389.12C6.88022 389.17 6.79021 389.2 6.70021 389.2Z" fill="#141414"/>
<path d="M5.48976 398.3C7.77976 397.86 9.27976 395.65 8.83976 393.37C8.39976 391.09 6.18976 389.59 3.89976 390.03C1.60976 390.47 0.109758 392.68 0.549758 394.96C0.989758 397.24 3.19976 398.74 5.48976 398.3Z" fill="#141414"/>
<path d="M174.89 389.2C174.8 389.2 174.71 389.17 174.63 389.12C174.55 389.07 174.49 389 174.45 388.92L114.8 259.63C114.77 259.57 114.76 259.51 114.76 259.45C114.76 259.39 114.76 259.32 114.79 259.27C114.82 259.22 114.85 259.16 114.89 259.11C114.93 259.06 114.99 259.03 115.04 259C115.1 258.97 115.16 258.96 115.22 258.96C115.28 258.96 115.35 258.96 115.4 258.99C115.46 259.01 115.51 259.04 115.56 259.09C115.61 259.13 115.64 259.19 115.67 259.24L175.32 388.53C175.35 388.59 175.36 388.65 175.36 388.71C175.36 388.77 175.36 388.84 175.33 388.89C175.31 388.95 175.27 389 175.23 389.05C175.19 389.1 175.13 389.13 175.08 389.16C175.02 389.19 174.95 389.2 174.88 389.2H174.89Z" fill="#141414"/>
<path d="M180.49 396.4C181.72 394.42 181.1 391.83 179.12 390.61C177.14 389.39 174.54 390 173.31 391.98C172.08 393.96 172.7 396.55 174.68 397.77C176.66 398.99 179.26 398.38 180.49 396.4Z" fill="#141414"/>
<path d="M197.5 267.41C197.5 298.93 153.39 317.6 98.99 317.6C44.59 317.6 0.47998 298.94 0.47998 267.41C0.47998 235.88 44.58 203.45 98.98 203.45C153.38 203.45 197.5 235.88 197.5 267.41Z" fill="white"/>
<path d="M98.9798 318.09C71.7198 318.09 46.9098 313.36 29.1198 304.77C10.0698 295.57 0.00976562 282.65 0.00976562 267.42C0.00976562 252.19 10.5998 235.71 29.0698 223.22C48.3798 210.17 73.2098 202.98 98.9898 202.98C124.77 202.98 149.61 210.17 168.91 223.22C187.38 235.71 197.97 251.81 197.97 267.42C197.97 283.03 187.9 295.57 168.84 304.77C151.07 313.36 126.26 318.09 98.9898 318.09H98.9798ZM98.9798 203.94C42.8698 203.94 0.949766 237.45 0.949766 267.41C0.949766 296.68 41.2698 317.12 98.9798 317.12C156.69 317.12 197.01 296.68 197.01 267.41C197.01 237.45 155.1 203.94 98.9798 203.94Z" fill="#141414"/>
<path d="M39.9702 259.84C41.6402 268.37 46.1902 276.08 52.8602 281.67C59.5302 287.27 67.9202 290.41 76.6302 290.59L39.9702 259.84Z" fill="white"/>
<path d="M76.6299 291.08C67.8099 290.9 59.3099 287.71 52.5599 282.05C45.8099 276.38 41.1999 268.58 39.5099 259.94C39.4999 259.88 39.4999 259.82 39.5099 259.75C39.5199 259.69 39.5499 259.63 39.5799 259.58C39.6199 259.53 39.6599 259.48 39.7099 259.45C39.7599 259.41 39.8199 259.39 39.8799 259.38C39.9399 259.37 40.0099 259.37 40.0699 259.38C40.1299 259.39 40.1899 259.42 40.2399 259.45C40.2899 259.48 40.3399 259.53 40.3699 259.58C40.3999 259.63 40.4299 259.69 40.4399 259.75C42.0899 268.17 46.5799 275.78 53.1699 281.31C59.7599 286.83 68.0399 289.94 76.6399 290.12C76.7599 290.12 76.8799 290.18 76.9599 290.27C77.0399 290.36 77.0899 290.48 77.0899 290.6C77.0899 290.72 77.0399 290.84 76.9599 290.93C76.8799 291.02 76.7599 291.07 76.6399 291.08H76.6199H76.6299Z" fill="#141414"/>
<path d="M74.5502 229.99C74.5502 229.99 63.5102 271.25 83.6302 284.23C103.4 297 180.55 288.81 180.55 288.81L193.97 380.55C193.97 380.55 223.62 384.88 259.01 375.41L254.22 347.64L305.26 327.72C305.26 327.72 284.52 277.09 267.68 238.48C262.65 226.94 253.82 217.47 242.66 211.6C231.5 205.74 218.67 203.84 206.29 206.23C185.29 210.28 155.98 216.66 116.97 226.7L74.5602 229.99H74.5502Z" fill="white" stroke="#141414" stroke-miterlimit="10"/>
<path d="M192.75 213.34L181.46 170.82C180.03 165.43 177 160.59 172.76 156.94C168.52 153.29 163.28 151.01 157.72 150.39C142.55 148.69 120.22 146.72 98.12 146.73C79.6 146.73 63.53 159.56 59.36 177.56C56.23 191.07 53.16 207.57 52.23 223.17C51.27 239.38 67.51 251.09 82.63 245.07L132.34 225.28L152.77 222.2L192.74 213.34H192.75Z" fill="url(#paint0_linear_0_1)"/>
<path d="M107.31 203.94C107.31 203.94 104.43 222.97 115.42 232.02C116.58 231.57 118.45 230.83 120.73 229.89C127.24 227.19 128.9 226.19 132.34 225.28C134.56 224.7 134.9 224.84 139.68 224.14C142.77 223.69 147.13 222.97 152.42 221.83C152.34 221.43 152.22 220.85 152.05 220.16C151.75 218.93 150.2 212.74 147.6 208.82C143.39 202.5 135.52 200.74 133.17 200.22C127.4 198.93 122.67 199.9 117.09 201.03C112.98 201.87 109.65 203.01 107.3 203.93L107.31 203.94Z" fill="white"/>
<path d="M74.3801 247.16C71.2901 247.16 68.2301 246.51 65.3901 245.29C62.5501 244.07 60.0001 242.27 57.8801 240.02C55.7601 237.77 54.1301 235.12 53.0701 232.22C52.0201 229.32 51.5701 226.24 51.7501 223.16C52.5301 209.9 54.9401 194.52 58.8901 177.47C60.9401 168.62 65.9301 160.71 73.0501 155.05C80.1701 149.39 89.0101 146.29 98.1201 146.27C120.37 146.27 142.83 148.25 157.77 149.93C163.43 150.54 168.78 152.85 173.09 156.56C177.4 160.27 180.48 165.2 181.92 170.7L193.21 213.23C193.23 213.29 193.23 213.36 193.21 213.42C193.21 213.48 193.18 213.54 193.14 213.6C193.11 213.66 193.06 213.7 193.01 213.74C192.96 213.78 192.9 213.81 192.83 213.82L152.84 222.69L132.43 225.77L82.7801 245.54C80.1001 246.61 77.2401 247.17 74.3501 247.17L74.3801 247.16ZM98.3201 147.22H98.1301C79.7401 147.22 63.9901 159.75 59.8401 177.68C55.9101 194.68 53.5001 210 52.7201 223.21C52.5001 226.85 53.2101 230.49 54.7801 233.79C56.3501 237.09 58.7201 239.94 61.6901 242.08C64.6601 244.22 68.1201 245.57 71.7501 246.02C75.3801 246.47 79.0701 245.99 82.4701 244.64L132.17 224.85C132.17 224.85 132.24 224.83 132.28 224.82L152.71 221.74L192.16 212.98L181 170.94C179.61 165.63 176.64 160.87 172.47 157.29C168.3 153.71 163.14 151.48 157.68 150.89C142.8 149.21 120.45 147.23 98.3201 147.23V147.22Z" fill="#141414"/>
<path d="M90.0202 210.02C90.0202 210.02 89.9502 210.02 89.9202 210.02C89.8002 209.99 89.6902 209.92 89.6202 209.81C89.5502 209.7 89.5202 209.57 89.5502 209.45L96.5102 176.25C96.5402 176.13 96.6202 176.03 96.7202 175.96C96.8302 175.9 96.9502 175.87 97.0702 175.9C97.1902 175.93 97.3002 176 97.3702 176.1C97.4402 176.2 97.4702 176.32 97.4502 176.45L90.4902 209.65C90.4702 209.76 90.4102 209.85 90.3202 209.92C90.2402 209.99 90.1302 210.02 90.0202 210.02Z" fill="#141414"/>
<path d="M150.45 214.65C150.36 214.65 150.27 214.62 150.19 214.57C150.11 214.52 150.05 214.45 150.01 214.37C144.52 202.5 136.67 200.18 125.77 200.28C114.63 200.38 83.4399 213.63 83.1299 213.77C83.0699 213.81 83.0099 213.83 82.9399 213.84C82.8699 213.85 82.7999 213.84 82.7399 213.82C82.6699 213.8 82.6099 213.76 82.5599 213.72C82.5099 213.67 82.4699 213.62 82.4399 213.56C82.4099 213.5 82.3999 213.43 82.3999 213.36C82.3999 213.29 82.4199 213.22 82.4499 213.16C82.4799 213.1 82.5199 213.04 82.5699 213C82.6199 212.96 82.6799 212.92 82.7499 212.91C84.0399 212.36 114.42 199.45 125.76 199.34C136.72 199.23 145.19 201.69 150.89 213.98C150.92 214.04 150.93 214.1 150.93 214.16C150.93 214.22 150.93 214.29 150.9 214.34C150.88 214.4 150.84 214.45 150.8 214.5C150.76 214.55 150.7 214.58 150.65 214.61C150.58 214.64 150.51 214.65 150.44 214.65H150.45Z" fill="#141414"/>
<path d="M139.29 219.66C139.18 219.66 139.07 219.62 138.98 219.55C138.89 219.48 138.84 219.38 138.82 219.27C138.41 217.14 137.47 215.16 136.07 213.5C134.67 211.84 132.87 210.57 130.84 209.8C130.78 209.78 130.72 209.75 130.67 209.71C130.62 209.67 130.58 209.62 130.55 209.56C130.52 209.5 130.5 209.44 130.5 209.37C130.5 209.3 130.5 209.24 130.53 209.18C130.55 209.12 130.59 209.06 130.63 209.01C130.67 208.96 130.73 208.92 130.79 208.9C130.85 208.87 130.92 208.86 130.98 208.86C131.05 208.86 131.11 208.87 131.17 208.9C133.36 209.73 135.29 211.1 136.8 212.88C138.3 214.66 139.32 216.8 139.76 219.09C139.77 219.15 139.77 219.22 139.76 219.28C139.75 219.34 139.72 219.4 139.69 219.45C139.66 219.5 139.61 219.55 139.56 219.58C139.51 219.61 139.45 219.64 139.38 219.65C139.35 219.65 139.32 219.65 139.3 219.65L139.29 219.66Z" fill="#141414"/>
<path d="M145.69 217.09C145.58 217.09 145.47 217.05 145.38 216.98C145.29 216.91 145.24 216.8 145.22 216.69C144.84 214.45 143.93 212.34 142.58 210.52C141.22 208.7 139.45 207.23 137.42 206.22C137.3 206.16 137.21 206.06 137.17 205.94C137.13 205.82 137.13 205.69 137.19 205.57C137.25 205.45 137.35 205.37 137.47 205.32C137.59 205.28 137.73 205.28 137.84 205.34C140.02 206.42 141.91 207.99 143.36 209.94C144.81 211.88 145.78 214.15 146.18 216.54C146.2 216.67 146.17 216.79 146.09 216.9C146.02 217 145.9 217.07 145.78 217.09C145.75 217.09 145.72 217.09 145.7 217.09H145.69Z" fill="#141414"/>
<path d="M153.61 220.72H153.53C153.4 220.7 153.29 220.63 153.22 220.52C153.15 220.42 153.12 220.29 153.14 220.16L160.13 178.39C160.13 178.33 160.16 178.27 160.19 178.21C160.22 178.16 160.27 178.11 160.32 178.07C160.37 178.03 160.43 178.01 160.49 177.99C160.55 177.98 160.62 177.97 160.68 177.99C160.74 178 160.8 178.02 160.86 178.06C160.92 178.1 160.96 178.14 161 178.19C161.04 178.24 161.06 178.3 161.08 178.36C161.09 178.42 161.09 178.49 161.08 178.55L154.09 220.32C154.07 220.43 154.01 220.53 153.93 220.6C153.84 220.67 153.73 220.71 153.62 220.71L153.61 220.72Z" fill="#141414"/>
<path d="M124.54 123.45L117.73 146.75L112.49 146.99C112.49 146.99 126.06 160.71 141.71 148.8L137.08 146.74L140.33 132.43L124.54 123.45Z" fill="white"/>
<path d="M128.47 154.11C119.03 154.11 112.26 147.42 112.17 147.33C112.11 147.26 112.06 147.18 112.04 147.09C112.02 147 112.04 146.91 112.06 146.82C112.09 146.73 112.15 146.66 112.23 146.6C112.3 146.55 112.39 146.52 112.49 146.51L117.38 146.29L124.09 123.32C124.11 123.25 124.14 123.19 124.19 123.13C124.24 123.08 124.3 123.03 124.37 123.01C124.44 122.99 124.51 122.97 124.58 122.98C124.65 122.98 124.72 123.01 124.79 123.04L140.59 132.01C140.68 132.06 140.75 132.14 140.79 132.23C140.83 132.32 140.84 132.43 140.82 132.53L137.64 146.46L141.91 148.36C141.98 148.4 142.05 148.45 142.1 148.52C142.15 148.59 142.18 148.67 142.19 148.75C142.2 148.83 142.19 148.92 142.16 148.99C142.13 149.07 142.07 149.13 142.01 149.18C137.21 152.83 132.58 154.11 128.47 154.11ZM113.7 147.41C116 149.34 118.62 150.87 121.44 151.91C128.12 154.32 134.62 153.31 140.77 148.89L136.89 147.16C136.79 147.11 136.71 147.04 136.65 146.94C136.59 146.84 136.59 146.73 136.61 146.62L139.78 132.65L124.82 124.15L118.18 146.88C118.15 146.98 118.09 147.06 118.02 147.12C117.94 147.18 117.85 147.22 117.75 147.22L113.69 147.4L113.7 147.41Z" fill="#141414"/>
<path d="M148.81 115.55C148.81 115.55 167.18 110.4 166.99 99.1901C166.8 87.9801 158.49 89.3401 145.51 89.2701C131.31 89.1901 116.18 88.4001 115.01 105.7C113.84 123.01 129.32 127.71 129.32 127.71L148.81 115.54V115.55Z" fill="#141414"/>
<path d="M150.62 127.43C150.07 129.75 149.39 132.14 147.82 133.94C145.32 136.79 140.89 137.48 137.33 136.12C135.58 135.44 134.01 134.34 132.78 132.92C131.54 131.5 130.66 129.81 130.22 127.98C128.78 127.85 127.38 127.4 126.13 126.66C124.88 125.92 123.81 124.92 123.01 123.72C121.98 122.17 121.45 120.06 122.45 118.49C123.32 117.13 125.14 116.6 126.74 116.85C128.34 117.1 129.76 118 131.06 118.96C133.79 118.47 127.59 108.47 139.89 105.23C142.75 104.47 146.23 104.09 149.18 104.5C151.96 104.88 151.77 106.7 152.1 109.11C152.95 115.24 152.05 121.46 150.63 127.43H150.62Z" fill="white"/>
<path d="M141.03 137.28C139.71 137.28 138.4 137.04 137.16 136.57C135.38 135.88 133.79 134.79 132.52 133.37C131.25 131.95 130.33 130.26 129.84 128.42C128.39 128.23 127 127.74 125.75 126.97C124.51 126.2 123.44 125.18 122.62 123.98C121.58 122.41 120.87 120.08 122.05 118.23C123.09 116.59 125.2 116.12 126.82 116.38C128.48 116.64 129.92 117.54 131.13 118.42C131.42 118.17 131.4 117.35 131.36 116.12C131.24 112.73 131.03 107.07 139.77 104.76C143.01 103.9 146.47 103.63 149.25 104.02C152.03 104.4 152.26 106.23 152.47 108.16C152.5 108.44 152.53 108.73 152.58 109.03C153.3 114.33 152.83 120.21 151.09 127.53C150.53 129.89 149.84 132.34 148.18 134.24C146.46 136.22 143.8 137.27 141.03 137.27V137.28ZM125.95 117.28C124.79 117.28 123.53 117.72 122.86 118.75C121.93 120.2 122.58 122.19 123.42 123.45C124.19 124.59 125.21 125.54 126.39 126.24C127.57 126.94 128.9 127.37 130.27 127.5C130.37 127.5 130.47 127.55 130.55 127.61C130.63 127.68 130.68 127.77 130.71 127.87C131.14 129.62 131.98 131.24 133.16 132.6C134.34 133.96 135.84 135.01 137.52 135.67C141.06 137.02 145.25 136.15 147.47 133.62C148.99 131.89 149.63 129.56 150.17 127.32C151.88 120.13 152.35 114.36 151.64 109.17C151.6 108.86 151.56 108.56 151.53 108.28C151.31 106.34 151.19 105.26 149.13 104.98C146.47 104.61 143.15 104.88 140.03 105.7C132.04 107.81 132.22 112.8 132.33 116.09C132.39 117.76 132.44 119.21 131.16 119.44C131.09 119.45 131.03 119.44 130.96 119.44C130.9 119.43 130.84 119.4 130.78 119.36C129.62 118.49 128.22 117.58 126.67 117.34C126.43 117.3 126.19 117.28 125.95 117.28Z" fill="#141414"/>
<path d="M130.33 124.86C130.26 124.86 130.19 124.85 130.13 124.82C130.07 124.79 130.01 124.75 129.97 124.7C128.94 123.53 127.52 122.78 125.97 122.59C125.84 122.58 125.73 122.51 125.65 122.41C125.57 122.31 125.53 122.18 125.55 122.06C125.55 122 125.57 121.94 125.61 121.88C125.64 121.82 125.68 121.78 125.73 121.74C125.78 121.7 125.84 121.67 125.9 121.66C125.96 121.64 126.02 121.64 126.09 121.65C127.88 121.86 129.52 122.73 130.71 124.08C130.77 124.15 130.81 124.23 130.82 124.33C130.83 124.42 130.82 124.51 130.78 124.6C130.74 124.68 130.68 124.75 130.6 124.8C130.52 124.85 130.43 124.88 130.34 124.88L130.33 124.86Z" fill="#141414"/>
<path d="M236.98 220.42L131.32 223.89V217.17C131.32 216.49 131.45 215.82 131.71 215.19C131.97 214.56 132.35 213.99 132.83 213.51C133.31 213.03 133.88 212.65 134.51 212.39C135.14 212.13 135.81 212 136.5 212H236.98V220.42Z" fill="#141414"/>
<path d="M242.5 216.61H177.28C176.63 216.61 175.99 216.46 175.4 216.17C174.81 215.88 174.3 215.47 173.91 214.96C173.52 214.45 173.23 213.85 173.1 213.22C172.96 212.59 172.98 211.93 173.13 211.3L185.46 161.7C185.69 160.77 186.22 159.95 186.97 159.36C187.72 158.77 188.65 158.45 189.61 158.45H254.83C255.48 158.45 256.12 158.6 256.71 158.88C257.29 159.17 257.81 159.58 258.21 160.09C258.61 160.6 258.89 161.2 259.02 161.83C259.16 162.46 259.14 163.12 258.99 163.75L246.66 213.35C246.43 214.28 245.9 215.1 245.15 215.69C244.4 216.28 243.47 216.6 242.52 216.6L242.5 216.61Z" fill="#141414"/>
<path d="M231.75 182.81H226.06L227.44 177.13H233.13L231.75 182.81Z" fill="white"/>
<path d="M254.45 362.69L317.63 345.62C318.38 345.42 319.05 345.02 319.58 344.46C320.11 343.9 320.48 343.21 320.64 342.45C320.8 341.7 320.75 340.91 320.49 340.19C320.23 339.46 319.78 338.82 319.18 338.34L305.41 327.19L249.15 344.72L254.45 362.69Z" fill="white"/>
<path d="M264.45 363.17C264.35 363.17 264.25 363.14 264.16 363.07C264.08 363.01 264.02 362.92 263.99 362.82L258.68 344.85C258.64 344.73 258.66 344.6 258.72 344.49C258.78 344.38 258.88 344.3 259 344.26L315.26 326.73C315.33 326.71 315.41 326.7 315.49 326.72C315.57 326.74 315.64 326.77 315.7 326.82L329.48 337.97C330.15 338.51 330.65 339.23 330.94 340.03C331.23 340.84 331.29 341.71 331.11 342.55C330.93 343.39 330.53 344.16 329.93 344.79C329.34 345.41 328.59 345.86 327.76 346.09L264.58 363.16C264.58 363.16 264.5 363.18 264.46 363.18L264.45 363.17ZM259.73 345.04L264.77 362.11L327.5 345.17C328.16 344.99 328.76 344.63 329.22 344.14C329.69 343.65 330.01 343.03 330.15 342.36C330.29 341.69 330.25 341 330.02 340.36C329.79 339.72 329.39 339.15 328.86 338.72L315.28 327.73L259.71 345.05L259.73 345.04Z" fill="#141414"/>
<path d="M194.35 376.7L197.09 391.61C197.44 393.51 198.45 395.23 199.93 396.47C201.42 397.71 203.29 398.39 205.23 398.39H269.33C273.68 398.39 275.92 393.19 272.93 390.04L254.44 370.61L194.34 376.72L194.35 376.7Z" fill="white"/>
<path d="M269.34 398.86H205.24C203.19 398.86 201.21 398.14 199.63 396.83C198.06 395.52 196.99 393.7 196.62 391.69L193.88 376.78C193.87 376.71 193.88 376.65 193.88 376.58C193.9 376.51 193.93 376.45 193.97 376.4C194.01 376.35 194.06 376.3 194.12 376.27C194.18 376.24 194.24 376.22 194.31 376.21L254.41 370.11C254.48 370.11 254.56 370.11 254.63 370.14C254.7 370.16 254.76 370.21 254.81 370.26L273.29 389.69C274.02 390.46 274.51 391.43 274.69 392.47C274.88 393.51 274.75 394.59 274.33 395.56C273.91 396.53 273.21 397.36 272.33 397.95C271.44 398.53 270.4 398.84 269.34 398.84H269.33L269.34 398.86ZM194.92 377.13L197.57 391.53C197.9 393.32 198.85 394.94 200.25 396.1C201.65 397.27 203.42 397.9 205.24 397.9H269.34C270.22 397.9 271.07 397.64 271.8 397.16C272.53 396.68 273.1 396 273.45 395.19C273.8 394.39 273.9 393.5 273.74 392.64C273.59 391.78 273.18 390.98 272.58 390.35L254.26 371.09L194.91 377.12L194.92 377.13Z" fill="#141414"/>
<path d="M254.45 345.42C254.34 345.42 254.22 345.38 254.14 345.3C254.05 345.22 254 345.12 253.98 345.01C253.86 344.24 241.84 267.51 229.11 249.62C224.96 243.79 218.68 240.1 210.46 238.65C199.73 236.77 188.31 239.37 179.13 245.81L123.06 285.1C122.96 285.17 122.83 285.2 122.7 285.18C122.57 285.16 122.46 285.09 122.39 284.98C122.32 284.88 122.29 284.75 122.31 284.62C122.33 284.5 122.4 284.38 122.51 284.31L178.58 245.02C187.98 238.44 199.65 235.77 210.63 237.7C219.11 239.19 225.6 243.01 229.9 249.06C242.76 267.13 254.45 341.69 254.94 344.85C254.94 344.91 254.94 344.98 254.94 345.04C254.92 345.1 254.9 345.16 254.86 345.21C254.82 345.26 254.78 345.3 254.72 345.34C254.67 345.37 254.61 345.39 254.54 345.4C254.52 345.4 254.49 345.4 254.46 345.4L254.45 345.42Z" fill="#141414"/>
<path d="M71.38 246.96H71.31C59.65 245.34 51.07 234.88 51.76 223.16C52.1 217.47 52.75 211.28 53.7 204.74C53.7 204.68 53.73 204.61 53.76 204.56C53.79 204.5 53.83 204.45 53.88 204.41C53.93 204.37 53.99 204.34 54.05 204.32C54.11 204.3 54.18 204.3 54.24 204.31C54.3 204.32 54.37 204.34 54.42 204.38C54.48 204.41 54.52 204.46 54.56 204.51C54.6 204.56 54.62 204.62 54.64 204.69C54.65 204.75 54.65 204.82 54.64 204.88C53.7 211.39 53.05 217.56 52.71 223.22C52.05 234.45 60.27 244.46 71.43 246.02C71.55 246.04 71.66 246.1 71.74 246.19C71.82 246.28 71.86 246.4 71.85 246.53C71.85 246.65 71.79 246.77 71.7 246.85C71.61 246.93 71.49 246.98 71.37 246.98L71.38 246.96Z" fill="#141414"/>
<path d="M115.05 232.47C114.97 232.47 114.88 232.45 114.81 232.42C114.73 232.38 114.67 232.33 114.61 232.27C103.02 218.72 106.87 204.19 106.91 204.06C106.95 203.91 107.05 203.79 107.18 203.72C107.31 203.65 107.47 203.63 107.62 203.67C107.77 203.71 107.89 203.8 107.97 203.94C108.05 204.07 108.07 204.23 108.03 204.37C107.99 204.51 104.31 218.49 115.5 231.57C115.55 231.63 115.59 231.69 115.61 231.76C115.63 231.83 115.64 231.91 115.64 231.98C115.64 232.05 115.61 232.13 115.58 232.19C115.55 232.26 115.5 232.32 115.44 232.36C115.34 232.44 115.21 232.48 115.08 232.48L115.05 232.47Z" fill="#141414"/>
<path d="M27.7896 102.47C27.7896 106.061 24.8805 108.97 21.2896 108.97C17.6986 108.97 14.7896 106.061 14.7896 102.47C14.7896 98.879 17.6986 95.97 21.2896 95.97C24.8805 95.97 27.7896 98.879 27.7896 102.47Z" fill="#141414"/>
<path d="M27.7896 123.47C27.7896 127.061 24.8805 129.97 21.2896 129.97C17.6986 129.97 14.7896 127.061 14.7896 123.47C14.7896 119.879 17.6986 116.97 21.2896 116.97C24.8805 116.97 27.7896 119.879 27.7896 123.47Z" fill="#141414"/>
<path d="M27.7896 144.47C27.7896 148.061 24.8805 150.97 21.2896 150.97C17.6986 150.97 14.7896 148.061 14.7896 144.47C14.7896 140.879 17.6986 137.97 21.2896 137.97C24.8805 137.97 27.7896 140.879 27.7896 144.47Z" fill="#141414"/>
<path d="M168 6.49991L20.57 6.21991C20.5 6.21991 20.43 6.24991 20.37 6.29991C20.32 6.34991 20.29 6.41991 20.29 6.49991V84.5" stroke="#141414" stroke-miterlimit="10"/>
<defs>
<linearGradient id="paint0_linear_0_1" x1="52.2" y1="196.71" x2="192.75" y2="196.71" gradientUnits="userSpaceOnUse">
<stop stop-color="#DC1D47"/>
<stop offset="1" stop-color="#E54327"/>
</linearGradient>
</defs>
</svg>