<svg width="600" height="400" viewBox="0 0 600 400" fill="none" xmlns="http://www.w3.org/2000/svg">
<path d="M130.146 59.6797L130.146 59.6818C129.556 62.0152 128.061 64.0198 125.99 65.2545C123.919 66.4892 121.441 66.853 119.101 66.2659C118.744 66.1746 118.392 66.061 118.049 65.9258L117.635 65.7624L117.425 66.1554C115.607 69.5602 113.286 72.6732 110.54 75.3901L110.224 75.7028L110.497 76.0532C110.721 76.3393 110.926 76.6388 111.113 76.95C112.228 79.0065 112.505 81.4131 111.886 83.6685C111.266 85.9271 109.795 87.8596 107.78 89.062C105.764 90.2644 103.361 90.6436 101.072 90.1199C98.7864 89.5972 96.7919 88.2152 95.5032 86.2625C95.3177 85.9492 95.1519 85.6247 95.0067 85.2908L94.829 84.8824L94.4029 85.0119C90.7022 86.1357 86.8535 86.7 82.985 86.686L82.5436 86.6844L82.4873 87.1222C82.4407 87.4846 82.3724 87.8439 82.2829 88.1982C81.6029 90.4297 80.0887 92.3155 78.0531 93.4649C76.0142 94.6162 73.6089 94.9401 71.3367 94.3693C69.0646 93.7984 67.1004 92.3767 65.8518 90.3997C64.6054 88.4264 64.1674 86.051 64.6276 83.765C64.7186 83.4134 64.8314 83.0678 64.9654 82.7302L65.1305 82.3142L64.7353 82.1042C61.3209 80.2896 58.1987 77.9744 55.4729 75.2359L55.1591 74.9207L54.8095 75.1955C53.7933 75.9943 52.6179 76.5678 51.3618 76.8778C50.1057 77.1878 48.7977 77.2271 47.5251 76.9932C46.2525 76.7592 45.0446 76.2573 43.982 75.521C42.9193 74.7848 42.0263 73.8311 41.3624 72.7235C40.6985 71.616 40.2789 70.3801 40.1316 69.0982C39.9843 67.8163 40.1127 66.5179 40.5081 65.2893C40.9036 64.0607 41.557 62.9303 42.4251 61.9734C43.2931 61.0164 44.3557 60.255 45.5421 59.7399L45.9518 59.562L45.8212 59.135C44.6925 55.445 44.1262 51.6069 44.1409 47.749L44.1426 47.3077L43.7049 47.2512C42.4764 47.0928 41.2934 46.6858 40.2282 46.0553C39.1631 45.4248 38.2383 44.5841 37.5104 43.5847C36.7825 42.5853 36.2669 41.4483 35.9951 40.2433C35.7233 39.0383 35.701 37.7906 35.9295 36.5767C36.158 35.3628 36.6326 34.2081 37.3243 33.1835C38.0159 32.1588 38.91 31.2857 39.952 30.6177C40.9939 29.9497 42.1616 29.5009 43.3836 29.2989C44.6049 29.0969 45.8547 29.1457 47.0564 29.4421C47.4138 29.5338 47.7654 29.6469 48.1092 29.7807L48.5225 29.9414L48.7315 29.5504C50.5506 26.1466 52.8715 23.0344 55.6166 20.3176L55.9342 20.0033L55.6574 19.6526C54.8574 18.6385 54.2833 17.4662 53.9734 16.2136C53.6634 14.961 53.6247 13.6569 53.8598 12.3882C54.0948 11.1195 54.5983 9.91533 55.3367 8.85588C56.0751 7.79643 57.0315 6.90605 58.1421 6.24418C59.2528 5.58231 60.4922 5.16416 61.7777 5.01766C63.0633 4.87116 64.3653 4.99969 65.5971 5.39466C66.8289 5.78963 67.962 6.44195 68.9211 7.30806C69.8801 8.17417 70.6429 9.23416 71.1588 10.4173L71.3366 10.8253L71.7624 10.6959C75.4624 9.57207 79.3103 9.00777 83.178 9.02181L83.6266 9.02344L83.6767 8.57765C83.8215 7.28882 84.2412 6.04577 84.9076 4.932C85.5739 3.81824 86.4716 2.85953 87.5403 2.12034C88.609 1.38115 89.824 0.878624 91.1037 0.64659C92.3834 0.414555 93.698 0.458398 94.9593 0.775168C96.2206 1.09194 97.3992 1.67428 98.416 2.48299C99.4328 3.29171 100.264 4.30806 100.855 5.4637C101.445 6.61934 101.78 7.88756 101.838 9.18316C101.897 10.4788 101.676 11.7718 101.192 12.9754L101.024 13.3926L101.421 13.6036C104.835 15.4177 107.956 17.7321 110.681 20.4698L110.993 20.7832L111.343 20.5118C111.632 20.2869 111.935 20.0802 112.25 19.893L112.251 19.8925C113.277 19.2806 114.414 18.8761 115.596 18.7023C116.779 18.5285 117.984 18.5887 119.144 18.8796C120.303 19.1705 121.393 19.6863 122.353 20.3975C123.312 21.1087 124.122 22.0013 124.735 23.0244C125.348 24.0475 125.754 25.1811 125.928 26.3603C126.102 27.5395 126.042 28.7415 125.75 29.8975C125.459 31.0534 124.942 32.1409 124.229 33.0977C123.516 34.0541 122.622 34.8612 121.597 35.473C121.278 35.6595 120.949 35.8271 120.611 35.975L120.203 36.1534L120.333 36.5792C121.46 40.2688 122.027 44.1062 122.013 47.9633L122.012 48.4085L122.454 48.4615C123.735 48.6152 124.968 49.0401 126.071 49.7076C127.174 50.3752 128.122 51.27 128.85 52.3321C129.578 53.3942 130.07 54.5992 130.294 55.8663C130.517 57.1334 130.467 58.4335 130.146 59.6797ZM95.3751 61.4299C98.0645 59.0024 99.972 55.8336 100.856 52.3242C102.042 47.6206 101.306 42.6398 98.8111 38.4774C96.3159 34.315 92.2656 31.3121 87.5514 30.1288C84.0346 29.2451 80.334 29.4217 76.9178 30.6362C73.5015 31.8508 70.5229 34.0487 68.3588 36.9524C66.1946 39.856 64.9423 43.3348 64.7603 46.9487C64.5783 50.5626 65.4749 54.1491 67.3365 57.2545C69.1981 60.3599 71.941 62.8446 75.2181 64.3946C78.4952 65.9445 82.1594 66.4901 85.7473 65.9624C89.3351 65.4348 92.6857 63.8575 95.3751 61.4299Z" stroke="#141414"/>
<path d="M52.2984 115.965L52.3003 115.518C52.3097 113.205 51.9702 110.904 51.293 108.692L51.1628 108.266L51.5704 108.088C51.7679 108.001 51.9602 107.903 52.1463 107.795C52.7437 107.438 53.2649 106.967 53.68 106.409C54.0957 105.851 54.3971 105.217 54.5669 104.543C54.7368 103.869 54.7719 103.168 54.6702 102.48C54.5685 101.792 54.332 101.131 53.9741 100.535C53.6163 99.9379 53.1441 99.4174 52.5844 99.0026C52.0248 98.5879 51.3886 98.2872 50.7123 98.1176C50.036 97.948 49.3329 97.913 48.643 98.0145C47.9538 98.1159 47.2914 98.3516 46.6935 98.7081C46.5093 98.8202 46.3317 98.9428 46.1617 99.0753L45.8125 99.3474L45.5 99.0337C43.8638 97.391 41.9893 96.003 39.9392 94.9161L39.5458 94.7076L39.7076 94.2927C39.786 94.0918 39.8528 93.8866 39.9078 93.6781C40.0776 93.0048 40.113 92.3047 40.012 91.6178C39.9108 90.93 39.6748 90.2687 39.3174 89.6718C38.5956 88.4663 37.423 87.5959 36.0574 87.2524C34.6917 86.9089 33.2452 87.1207 32.0363 87.841C30.8282 88.5608 29.9564 89.7292 29.6118 91.0893C29.5615 91.2991 29.5227 91.5115 29.4956 91.7256L29.44 92.1644L28.9976 92.1627C26.6787 92.1538 24.3714 92.4919 22.153 93.1656L21.728 93.2946L21.5497 92.8878C21.4636 92.6912 21.3658 92.4999 21.2568 92.315C20.5348 91.1105 19.3626 90.2409 17.9977 89.8978C16.6321 89.5546 15.1859 89.7666 13.9773 90.487C12.7686 91.2074 11.8968 92.3769 11.553 93.7381C11.2094 95.0983 11.4212 96.5389 12.1418 97.7435C12.2552 97.9275 12.3786 98.1053 12.5112 98.276L12.7831 98.6259L12.4685 98.9379C10.822 100.57 9.43054 102.44 8.3407 104.485L8.13248 104.875L7.7195 104.716C7.04401 104.456 6.32214 104.336 5.59837 104.364C4.87461 104.392 4.16433 104.568 3.51129 104.88C2.85825 105.192 2.27631 105.635 1.80127 106.18C1.32622 106.725 0.968118 107.361 0.748946 108.049C0.529775 108.737 0.454153 109.463 0.526721 110.181C0.599289 110.9 0.818523 111.596 1.17096 112.226C1.5234 112.857 2.0016 113.409 2.57619 113.849C3.15025 114.288 3.80836 114.606 4.51007 114.782C4.72025 114.833 4.93322 114.871 5.1479 114.897L5.58925 114.951L5.58743 115.396C5.57795 117.709 5.91749 120.01 6.59464 122.222L6.72494 122.647L6.31724 122.826C6.11979 122.913 5.92753 123.011 5.74141 123.119C4.53408 123.84 3.66332 125.009 3.32008 126.37C2.97666 127.731 3.18932 129.172 3.91146 130.377C4.63362 131.582 5.80629 132.452 7.17177 132.795C8.53668 133.137 9.98207 132.925 11.1901 132.205C11.3743 132.093 11.5518 131.971 11.7217 131.838L12.0709 131.566L12.3833 131.88C14.0195 133.523 15.8941 134.911 17.9441 135.998L18.3375 136.206L18.1757 136.621C18.0974 136.822 18.0306 137.027 17.9756 137.235C17.6323 138.596 17.8446 140.037 18.566 141.242C19.2878 142.447 20.4603 143.318 21.826 143.661C23.1916 144.005 24.6381 143.793 25.8471 143.073C27.0551 142.353 27.927 141.184 28.2715 139.824C28.3218 139.615 28.3606 139.402 28.3877 139.188L28.4433 138.749L28.8857 138.751C31.2047 138.76 33.5119 138.422 35.7303 137.748L36.1558 137.619L36.3338 138.026C36.4192 138.222 36.5167 138.412 36.6258 138.595L52.2984 115.965ZM52.2984 115.965L52.7421 116.017M52.2984 115.965L52.7421 116.017M52.7421 116.017C52.9557 116.042 53.1675 116.08 53.3763 116.132C54.7409 116.475 55.9128 117.345 56.6347 118.549C57.3568 119.754 57.5698 121.195 57.2272 122.556C56.8817 123.913 56.0108 125.08 54.8046 125.799C53.5988 126.518 52.1565 126.731 50.7935 126.391C50.5848 126.337 50.3795 126.27 50.1785 126.192L49.7653 126.031L49.5561 126.422C48.4645 128.462 47.0732 130.328 45.4281 131.958L45.1221 132.261L45.3766 132.609C45.5063 132.786 45.6261 132.97 45.7356 133.16L45.7356 133.16M52.7421 116.017L45.7356 133.16M45.7356 133.16L45.74 133.168M45.7356 133.16L45.74 133.168M45.74 133.168C46.4616 134.373 46.6736 135.814 46.3296 137.175C45.9856 138.536 45.1136 139.705 43.905 140.426C42.6964 141.146 41.2503 141.357 39.885 141.014C38.5201 140.671 37.3482 139.801 36.6265 138.596L45.74 133.168ZM39.8935 118.203C39.3494 120.363 38.1753 122.314 36.5199 123.808C34.8645 125.303 32.8023 126.274 30.5939 126.599C28.3856 126.924 26.1303 126.588 24.113 125.634C22.0958 124.681 20.4071 123.151 19.2609 121.24C18.1146 119.329 17.5622 117.121 17.6737 114.896C17.7852 112.672 18.5556 110.53 19.8873 108.742C21.2189 106.955 23.052 105.601 25.1545 104.853C27.2569 104.105 29.5346 103.995 31.6994 104.538L39.8935 118.203ZM39.8935 118.203C40.2551 116.769 40.3299 115.278 40.1136 113.815C39.8974 112.352 39.3944 110.946 38.6334 109.677C37.8724 108.408 36.8684 107.301 35.6786 106.42C34.4889 105.538 33.1367 104.899 31.6995 104.538L39.8935 118.203Z" stroke="#141414"/>
<path d="M69.285 187.188H32.9711C32.9079 187.188 32.8453 187.176 32.7868 187.152C32.7284 187.128 32.6752 187.093 32.6306 187.048C32.5859 187.003 32.5505 186.951 32.5264 186.892C32.5024 186.834 32.4901 186.771 32.4904 186.708V155.835C32.4904 155.708 32.541 155.586 32.6312 155.496C32.7213 155.406 32.8436 155.356 32.9711 155.356C33.0986 155.356 33.2208 155.406 33.311 155.496C33.4011 155.586 33.4518 155.708 33.4518 155.835V186.229H69.285C69.4125 186.229 69.5348 186.279 69.6249 186.369C69.7151 186.459 69.7657 186.581 69.7657 186.708C69.7657 186.836 69.7151 186.958 69.6249 187.047C69.5348 187.137 69.4125 187.188 69.285 187.188Z" fill="#141414"/>
<path d="M422.076 398.872H21.9808C21.8533 398.872 21.731 398.821 21.6409 398.731C21.5507 398.642 21.5001 398.52 21.5001 398.392C21.5001 398.265 21.5507 398.143 21.6409 398.053C21.731 397.963 21.8533 397.913 21.9808 397.913H422.076C422.204 397.913 422.326 397.963 422.416 398.053C422.506 398.143 422.557 398.265 422.557 398.392C422.557 398.52 422.506 398.642 422.416 398.731C422.326 398.821 422.204 398.872 422.076 398.872Z" fill="#141414"/>
<path d="M213.783 290.878C210.808 290.877 207.956 289.698 205.853 287.6C203.751 285.502 202.569 282.657 202.569 279.69V11.68C202.569 8.71341 203.751 5.86836 205.854 3.77068C207.957 1.67301 210.809 0.494548 213.783 0.494548H589.304C592.278 0.494548 595.13 1.67294 597.234 3.77055C599.337 5.86816 600.519 8.71321 600.519 11.68V278.188C600.519 281.554 599.178 284.781 596.793 287.16C594.407 289.54 591.172 290.877 587.799 290.878H213.783Z" fill="white"/>
<path d="M587.79 291.357H213.783C210.682 291.354 207.709 290.123 205.517 287.936C203.324 285.749 202.092 282.783 202.089 279.69V11.68C202.092 8.58732 203.325 5.62231 205.518 3.43546C207.71 1.24861 210.682 0.0185202 213.783 0.0150589H589.304C592.405 0.0179433 595.378 1.24778 597.57 3.43469C599.763 5.6216 600.997 8.58694 601 11.68V278.188C600.995 281.681 599.602 285.029 597.125 287.498C594.649 289.967 591.291 291.355 587.79 291.357ZM213.783 0.974058C210.937 0.977518 208.209 2.10657 206.197 4.11357C204.185 6.12057 203.054 8.84166 203.05 11.68V279.69C203.054 282.528 204.185 285.249 206.197 287.256C208.209 289.263 210.937 290.392 213.783 290.396H587.79C591.034 290.392 594.143 289.105 596.437 286.817C598.731 284.528 600.021 281.426 600.026 278.19V11.68C600.022 8.84354 598.892 6.12411 596.882 4.11742C594.872 2.11073 592.147 0.9804 589.304 0.974058H213.783Z" fill="#141414"/>
<path d="M577.171 146.167H468.338C468.275 146.167 468.212 146.154 468.154 146.13C468.095 146.106 468.042 146.07 467.998 146.025C467.953 145.981 467.918 145.928 467.894 145.869C467.87 145.811 467.857 145.748 467.858 145.685V77.6178C467.857 77.5547 467.87 77.4922 467.894 77.4339C467.918 77.3756 467.953 77.3226 467.998 77.2781C468.043 77.2335 468.096 77.1982 468.154 77.1742C468.213 77.1502 468.275 77.138 468.338 77.1383H577.171C577.234 77.138 577.297 77.1502 577.355 77.1742C577.414 77.1982 577.467 77.2335 577.511 77.2781C577.556 77.3226 577.592 77.3756 577.616 77.4339C577.64 77.4922 577.652 77.5547 577.652 77.6178V145.685C577.652 145.748 577.64 145.811 577.616 145.869C577.592 145.928 577.556 145.981 577.512 146.025C577.467 146.07 577.414 146.106 577.355 146.13C577.297 146.154 577.234 146.167 577.171 146.167ZM468.819 145.205H576.69V78.0973H468.819V145.205Z" fill="#141414"/>
<path d="M577.171 146.167C577.08 146.167 576.992 146.141 576.915 146.093L468.083 78.0232C468.029 77.9897 467.983 77.946 467.946 77.8946C467.91 77.8433 467.884 77.7852 467.869 77.7238C467.855 77.6624 467.854 77.5988 467.864 77.5366C467.875 77.4745 467.897 77.4151 467.931 77.3617C467.964 77.3083 468.008 77.262 468.06 77.2255C468.111 77.189 468.169 77.163 468.231 77.1489C468.293 77.1349 468.356 77.133 468.419 77.1435C468.481 77.1541 468.541 77.1767 468.594 77.2102L577.427 145.28C577.516 145.335 577.584 145.417 577.622 145.515C577.66 145.612 577.664 145.719 577.635 145.82C577.606 145.92 577.545 146.008 577.462 146.071C577.378 146.134 577.276 146.167 577.171 146.167Z" fill="#141414"/>
<path d="M468.338 146.167C468.234 146.167 468.132 146.134 468.048 146.071C467.964 146.008 467.903 145.92 467.874 145.82C467.845 145.719 467.85 145.612 467.887 145.515C467.925 145.417 467.994 145.335 468.083 145.28L576.915 77.2102C577.023 77.1426 577.154 77.1205 577.278 77.1489C577.403 77.1773 577.511 77.2539 577.578 77.3617C577.646 77.4695 577.668 77.5997 577.64 77.7238C577.611 77.8478 577.535 77.9555 577.427 78.0232L468.594 146.093C468.517 146.141 468.429 146.166 468.338 146.167Z" fill="#141414"/>
<path d="M333.446 146.167H224.602C224.475 146.166 224.352 146.115 224.262 146.025C224.172 145.935 224.122 145.812 224.122 145.685V77.6178C224.122 77.4906 224.172 77.3686 224.263 77.2787C224.353 77.1888 224.475 77.1383 224.602 77.1383H333.446C333.573 77.1383 333.696 77.1888 333.786 77.2787C333.876 77.3686 333.927 77.4906 333.927 77.6178V145.685C333.927 145.812 333.876 145.935 333.786 146.025C333.696 146.115 333.574 146.166 333.446 146.167ZM225.094 145.205H332.965V78.0973H225.094V145.205Z" fill="#141414"/>
<path d="M333.446 146.167C333.356 146.166 333.268 146.141 333.192 146.093L224.347 78.0232C224.239 77.9555 224.162 77.8478 224.134 77.7238C224.105 77.5997 224.127 77.4695 224.195 77.3617C224.263 77.2539 224.371 77.1773 224.495 77.1489C224.619 77.1205 224.75 77.1426 224.858 77.2102L333.693 145.28C333.78 145.336 333.848 145.418 333.884 145.516C333.921 145.613 333.925 145.719 333.896 145.819C333.867 145.919 333.806 146.007 333.723 146.069C333.64 146.132 333.539 146.166 333.435 146.167H333.446Z" fill="#141414"/>
<path d="M224.605 146.167C224.501 146.166 224.399 146.132 224.316 146.069C224.233 146.007 224.173 145.919 224.144 145.819C224.115 145.719 224.119 145.613 224.155 145.516C224.192 145.418 224.259 145.336 224.347 145.28L333.182 77.2102C333.235 77.1767 333.295 77.1541 333.357 77.1435C333.419 77.133 333.483 77.1349 333.545 77.1489C333.606 77.163 333.664 77.189 333.716 77.2255C333.767 77.262 333.811 77.3083 333.845 77.3617C333.878 77.4151 333.901 77.4745 333.911 77.5366C333.922 77.5988 333.92 77.6624 333.906 77.7238C333.892 77.7852 333.866 77.8433 333.829 77.8946C333.793 77.946 333.746 77.9897 333.693 78.0232L224.854 146.093C224.779 146.14 224.693 146.166 224.605 146.167Z" fill="#141414"/>
<path d="M577.171 24.2821H224.602V59.8588H577.171V24.2821Z" fill="#141414"/>
<path d="M252.923 42.8417C253.348 39.3695 250.871 36.2106 247.39 35.7861C243.91 35.3617 240.743 37.8323 240.317 41.3045C239.892 44.7767 242.369 47.9356 245.849 48.36C249.33 48.7845 252.497 46.3139 252.923 42.8417Z" fill="white"/>
<path d="M271.35 43.5224C272.146 40.1157 270.022 36.7103 266.607 35.9163C263.192 35.1223 259.778 37.2403 258.982 40.647C258.186 44.0537 260.309 47.4591 263.725 48.2531C267.14 49.0472 270.554 46.9291 271.35 43.5224Z" fill="white"/>
<path d="M290.018 42.4649C290.235 38.9736 287.574 35.9677 284.074 35.7511C280.574 35.5345 277.56 38.1892 277.343 41.6806C277.126 45.1719 279.787 48.1777 283.287 48.3943C286.787 48.6109 289.801 45.9562 290.018 42.4649Z" fill="white"/>
<path d="M577.169 160.07H468.948V246.046H577.169V160.07Z" fill="#141414" fill-opacity="0.1"/>
<path d="M455.303 146.167H346.47C346.407 146.167 346.344 146.154 346.286 146.13C346.228 146.106 346.174 146.07 346.13 146.025C346.085 145.981 346.05 145.928 346.026 145.869C346.002 145.811 345.989 145.748 345.99 145.685V77.6178C345.989 77.5547 346.002 77.4922 346.026 77.4339C346.05 77.3756 346.085 77.3226 346.13 77.2781C346.175 77.2335 346.228 77.1982 346.286 77.1742C346.345 77.1502 346.407 77.138 346.47 77.1383H455.303C455.366 77.138 455.429 77.1502 455.488 77.1741C455.546 77.1981 455.599 77.2334 455.644 77.2779C455.689 77.3225 455.725 77.3755 455.749 77.4338C455.773 77.4921 455.786 77.5546 455.786 77.6178V145.685C455.786 145.813 455.735 145.935 455.644 146.026C455.554 146.116 455.431 146.167 455.303 146.167ZM346.951 145.205H454.822V78.0973H346.951V145.205Z" fill="#141414"/>
<path d="M455.303 146.167C455.212 146.166 455.124 146.141 455.047 146.093L346.215 78.0232C346.161 77.9897 346.115 77.946 346.078 77.8946C346.042 77.8433 346.016 77.7852 346.002 77.7238C345.987 77.6624 345.986 77.5988 345.996 77.5366C346.007 77.4745 346.029 77.4151 346.063 77.3617C346.096 77.3083 346.14 77.262 346.192 77.2255C346.243 77.189 346.301 77.163 346.363 77.1489C346.425 77.1349 346.488 77.133 346.551 77.1435C346.613 77.1541 346.673 77.1767 346.726 77.2102L455.559 145.28C455.648 145.335 455.716 145.417 455.754 145.515C455.792 145.612 455.796 145.719 455.767 145.82C455.738 145.92 455.677 146.008 455.594 146.071C455.51 146.134 455.408 146.167 455.303 146.167Z" fill="#141414"/>
<path d="M346.47 146.167C346.366 146.167 346.264 146.134 346.18 146.071C346.096 146.008 346.035 145.92 346.006 145.82C345.977 145.719 345.982 145.612 346.02 145.515C346.057 145.417 346.126 145.335 346.215 145.28L455.047 77.2102C455.101 77.1767 455.16 77.1541 455.223 77.1435C455.285 77.133 455.349 77.1349 455.41 77.1489C455.472 77.163 455.53 77.189 455.582 77.2255C455.633 77.262 455.677 77.3083 455.71 77.3617C455.744 77.4151 455.767 77.4745 455.777 77.5366C455.788 77.5988 455.786 77.6624 455.772 77.7238C455.758 77.7852 455.732 77.8433 455.695 77.8946C455.658 77.946 455.612 77.9897 455.559 78.0232L346.726 146.093C346.65 146.141 346.561 146.167 346.47 146.167Z" fill="#141414"/>
<path d="M559.792 184.202H486.755C486.628 184.202 486.506 184.151 486.415 184.061C486.325 183.972 486.275 183.85 486.275 183.722C486.275 183.595 486.325 183.473 486.415 183.383C486.506 183.293 486.628 183.243 486.755 183.243H559.792C559.919 183.243 560.042 183.293 560.132 183.383C560.222 183.473 560.272 183.595 560.272 183.722C560.272 183.85 560.222 183.972 560.132 184.061C560.042 184.151 559.919 184.202 559.792 184.202Z" fill="#141414"/>
<path d="M559.792 197.7H486.755C486.628 197.7 486.506 197.649 486.415 197.559C486.325 197.469 486.275 197.348 486.275 197.22C486.275 197.093 486.325 196.971 486.415 196.881C486.506 196.791 486.628 196.741 486.755 196.741H559.792C559.919 196.741 560.042 196.791 560.132 196.881C560.222 196.971 560.272 197.093 560.272 197.22C560.272 197.348 560.222 197.469 560.132 197.559C560.042 197.649 559.919 197.7 559.792 197.7Z" fill="#141414"/>
<path d="M559.792 211.213H486.755C486.628 211.213 486.506 211.162 486.415 211.073C486.325 210.983 486.275 210.861 486.275 210.734C486.275 210.606 486.325 210.484 486.415 210.394C486.506 210.305 486.628 210.254 486.755 210.254H559.792C559.919 210.254 560.042 210.305 560.132 210.394C560.222 210.484 560.272 210.606 560.272 210.734C560.272 210.861 560.222 210.983 560.132 211.073C560.042 211.162 559.919 211.213 559.792 211.213Z" fill="#141414"/>
<path d="M559.589 224.726H486.541C486.414 224.726 486.291 224.676 486.201 224.586C486.111 224.496 486.061 224.374 486.061 224.247C486.061 224.12 486.111 223.998 486.201 223.908C486.291 223.818 486.414 223.767 486.541 223.767H559.589C559.716 223.767 559.838 223.818 559.929 223.908C560.019 223.998 560.069 224.12 560.069 224.247C560.069 224.374 560.019 224.496 559.929 224.586C559.838 224.676 559.716 224.726 559.589 224.726Z" fill="#141414"/>
<path d="M401.54 250.881C401.412 250.881 401.29 250.83 401.2 250.74C401.11 250.65 401.059 250.528 401.059 250.401V187.504H282.416C282.294 187.496 282.18 187.441 282.096 187.352C282.012 187.263 281.966 187.145 281.966 187.023C281.966 186.901 282.012 186.784 282.096 186.694C282.18 186.605 282.294 186.551 282.416 186.543H401.542C401.67 186.543 401.792 186.594 401.882 186.685C401.972 186.775 402.023 186.897 402.023 187.024V250.39C402.024 250.454 402.012 250.518 401.989 250.577C401.965 250.637 401.929 250.691 401.885 250.737C401.84 250.782 401.786 250.818 401.727 250.843C401.668 250.868 401.604 250.881 401.54 250.881Z" fill="#141414"/>
<path d="M419.897 168.378C430.221 178.676 430.221 195.373 419.897 205.671C409.573 215.969 392.835 215.969 382.512 205.671C372.188 195.373 372.188 178.676 382.512 168.378C392.835 158.08 409.573 158.08 419.897 168.378Z" fill="white" stroke="#141414"/>
<path d="M392.521 196.656C392.454 196.656 392.388 196.642 392.327 196.615C392.266 196.588 392.211 196.548 392.167 196.499L383.8 187.345C383.717 187.256 383.671 187.139 383.671 187.018C383.671 186.897 383.717 186.78 383.8 186.691L392.167 177.537C392.21 177.49 392.261 177.453 392.319 177.426C392.377 177.4 392.439 177.385 392.502 177.382C392.566 177.38 392.629 177.39 392.688 177.411C392.748 177.433 392.803 177.467 392.849 177.51C392.896 177.553 392.934 177.604 392.96 177.662C392.987 177.719 393.002 177.781 393.004 177.845C393.007 177.908 392.997 177.971 392.975 178.03C392.953 178.09 392.92 178.144 392.877 178.191L384.808 187.02L392.877 195.847C392.919 195.894 392.952 195.948 392.974 196.007C392.995 196.067 393.005 196.13 393.002 196.192C392.999 196.255 392.984 196.317 392.957 196.374C392.931 196.431 392.893 196.483 392.846 196.525C392.758 196.609 392.642 196.655 392.521 196.656Z" fill="#141414"/>
<path d="M409.887 196.656C409.767 196.656 409.651 196.611 409.563 196.529C409.469 196.444 409.413 196.324 409.407 196.197C409.401 196.07 409.445 195.946 409.53 195.852L417.602 187.024L409.53 178.195C409.443 178.101 409.398 177.976 409.403 177.848C409.408 177.72 409.464 177.6 409.559 177.513C409.653 177.426 409.778 177.38 409.907 177.386C410.035 177.391 410.156 177.447 410.243 177.541L418.609 186.695C418.691 186.785 418.736 186.901 418.736 187.022C418.736 187.143 418.691 187.26 418.609 187.349L410.243 196.503C410.197 196.552 410.142 196.591 410.081 196.617C410.02 196.644 409.953 196.657 409.887 196.656Z" fill="#141414"/>
<path d="M396.373 199.934C396.295 199.933 396.218 199.914 396.149 199.877C396.08 199.841 396.021 199.788 395.977 199.724C395.933 199.66 395.905 199.586 395.896 199.508C395.887 199.431 395.897 199.353 395.925 199.28L405.595 174.42C405.641 174.301 405.733 174.206 405.85 174.154C405.966 174.103 406.099 174.1 406.218 174.145C406.337 174.191 406.433 174.283 406.485 174.399C406.536 174.516 406.539 174.648 406.493 174.767L396.81 199.627C396.776 199.715 396.716 199.792 396.638 199.847C396.56 199.902 396.468 199.932 396.373 199.934Z" fill="#141414"/>
<path d="M555.573 259.446H362.34V363.897H555.573V259.446Z" fill="white"/>
<path d="M555.575 364.376H362.342C362.214 364.376 362.092 364.326 362.002 364.236C361.912 364.146 361.861 364.024 361.861 363.897V259.446C361.861 259.383 361.873 259.321 361.897 259.263C361.921 259.204 361.957 259.151 362.001 259.107C362.046 259.062 362.099 259.027 362.158 259.003C362.216 258.979 362.279 258.967 362.342 258.967H555.575C555.638 258.967 555.701 258.979 555.759 259.003C555.818 259.027 555.871 259.062 555.915 259.107C555.96 259.151 555.995 259.204 556.02 259.263C556.044 259.321 556.056 259.383 556.056 259.446V363.897C556.056 364.024 556.005 364.146 555.915 364.236C555.825 364.326 555.702 364.376 555.575 364.376ZM362.823 363.417H555.099V259.926H362.823V363.417Z" fill="#141414"/>
<path d="M519.13 277.16H455.251C455.123 277.16 455.001 277.109 454.911 277.019C454.82 276.929 454.77 276.807 454.77 276.68C454.77 276.553 454.82 276.431 454.911 276.341C455.001 276.251 455.123 276.201 455.251 276.201H519.13C519.257 276.201 519.38 276.251 519.47 276.341C519.56 276.431 519.611 276.553 519.611 276.68C519.611 276.807 519.56 276.929 519.47 277.019C519.38 277.109 519.257 277.16 519.13 277.16Z" fill="#141414"/>
<path d="M442.545 277.16H383.525C383.398 277.16 383.275 277.109 383.185 277.019C383.095 276.929 383.044 276.807 383.044 276.68C383.044 276.553 383.095 276.431 383.185 276.341C383.275 276.251 383.398 276.201 383.525 276.201H442.545C442.672 276.201 442.795 276.251 442.885 276.341C442.975 276.431 443.026 276.553 443.026 276.68C443.026 276.807 442.975 276.929 442.885 277.019C442.795 277.109 442.672 277.16 442.545 277.16Z" fill="#141414"/>
<path d="M534.392 290.808H492.659C492.532 290.808 492.409 290.757 492.319 290.667C492.229 290.577 492.178 290.456 492.178 290.328C492.178 290.201 492.229 290.079 492.319 289.989C492.409 289.899 492.532 289.849 492.659 289.849H534.392C534.519 289.849 534.641 289.899 534.732 289.989C534.822 290.079 534.872 290.201 534.872 290.328C534.872 290.456 534.822 290.577 534.732 290.667C534.641 290.757 534.519 290.808 534.392 290.808Z" fill="#141414"/>
<path d="M479.602 290.808H383.525C383.398 290.808 383.275 290.757 383.185 290.667C383.095 290.577 383.044 290.456 383.044 290.328C383.044 290.201 383.095 290.079 383.185 289.989C383.275 289.899 383.398 289.849 383.525 289.849H479.602C479.729 289.849 479.852 289.899 479.942 289.989C480.032 290.079 480.083 290.201 480.083 290.328C480.083 290.456 480.032 290.577 479.942 290.667C479.852 290.757 479.729 290.808 479.602 290.808Z" fill="#141414"/>
<path d="M502.19 304.456H467.25C467.128 304.448 467.014 304.394 466.93 304.304C466.846 304.215 466.8 304.098 466.8 303.976C466.8 303.853 466.846 303.736 466.93 303.647C467.014 303.557 467.128 303.503 467.25 303.495H502.19C502.312 303.503 502.427 303.557 502.51 303.647C502.594 303.736 502.64 303.853 502.64 303.976C502.64 304.098 502.594 304.215 502.51 304.304C502.427 304.394 502.312 304.448 502.19 304.456Z" fill="#141414"/>
<path d="M453.837 304.456H401.54C401.418 304.448 401.303 304.394 401.22 304.304C401.136 304.215 401.09 304.098 401.09 303.976C401.09 303.853 401.136 303.736 401.22 303.647C401.303 303.557 401.418 303.503 401.54 303.495H453.837C453.959 303.503 454.073 303.557 454.157 303.647C454.241 303.736 454.287 303.853 454.287 303.976C454.287 304.098 454.241 304.215 454.157 304.304C454.073 304.394 453.959 304.448 453.837 304.456Z" fill="#141414"/>
<path d="M493.896 318.102H469.267C469.14 318.102 469.017 318.052 468.927 317.962C468.837 317.872 468.786 317.75 468.786 317.623C468.786 317.496 468.837 317.374 468.927 317.284C469.017 317.194 469.14 317.143 469.267 317.143H493.896C494.023 317.143 494.146 317.194 494.236 317.284C494.326 317.374 494.376 317.496 494.376 317.623C494.376 317.75 494.326 317.872 494.236 317.962C494.146 318.052 494.023 318.102 493.896 318.102Z" fill="#141414"/>
<path d="M458.958 318.102H401.54C401.412 318.102 401.29 318.052 401.2 317.962C401.11 317.872 401.059 317.75 401.059 317.623C401.059 317.496 401.11 317.374 401.2 317.284C401.29 317.194 401.412 317.143 401.54 317.143H458.958C459.086 317.143 459.208 317.194 459.298 317.284C459.388 317.374 459.439 317.496 459.439 317.623C459.439 317.75 459.388 317.872 459.298 317.962C459.208 318.052 459.086 318.102 458.958 318.102Z" fill="#141414"/>
<path d="M534.392 331.742H498.307C498.18 331.742 498.057 331.691 497.967 331.601C497.877 331.511 497.827 331.39 497.827 331.262C497.827 331.135 497.877 331.013 497.967 330.923C498.057 330.833 498.18 330.783 498.307 330.783H534.392C534.519 330.783 534.641 330.833 534.732 330.923C534.822 331.013 534.872 331.135 534.872 331.262C534.872 331.39 534.822 331.511 534.732 331.601C534.641 331.691 534.519 331.742 534.392 331.742Z" fill="#141414"/>
<path d="M487.19 331.742H422.079C421.951 331.742 421.829 331.691 421.739 331.601C421.649 331.511 421.598 331.39 421.598 331.262C421.598 331.135 421.649 331.013 421.739 330.923C421.829 330.833 421.951 330.783 422.079 330.783H487.19C487.318 330.783 487.44 330.833 487.53 330.923C487.62 331.013 487.671 331.135 487.671 331.262C487.671 331.39 487.62 331.511 487.53 331.601C487.44 331.691 487.318 331.742 487.19 331.742Z" fill="#141414"/>
<path d="M534.392 345.399H439.016C438.894 345.391 438.78 345.336 438.696 345.247C438.612 345.158 438.566 345.04 438.566 344.918C438.566 344.796 438.612 344.679 438.696 344.589C438.78 344.5 438.894 344.446 439.016 344.438H534.392C534.514 344.446 534.628 344.5 534.712 344.589C534.796 344.679 534.842 344.796 534.842 344.918C534.842 345.04 534.796 345.158 534.712 345.247C534.628 345.336 534.514 345.391 534.392 345.399Z" fill="#141414"/>
<path d="M430.239 345.399H383.525C383.403 345.391 383.288 345.336 383.205 345.247C383.121 345.158 383.075 345.04 383.075 344.918C383.075 344.796 383.121 344.679 383.205 344.589C383.288 344.5 383.403 344.446 383.525 344.438H430.239C430.362 344.446 430.476 344.5 430.56 344.589C430.643 344.679 430.69 344.796 430.69 344.918C430.69 345.04 430.643 345.158 430.56 345.247C430.476 345.336 430.362 345.391 430.239 345.399Z" fill="#141414"/>
<path d="M23.9866 389.212C23.9171 389.213 23.8485 389.198 23.7855 389.169C23.7281 389.142 23.6765 389.105 23.6335 389.059C23.5906 389.012 23.5572 388.958 23.5353 388.899C23.5134 388.84 23.5034 388.777 23.5058 388.714C23.5083 388.651 23.5231 388.589 23.5496 388.532L83.1988 259.246C83.2252 259.189 83.2626 259.137 83.309 259.094C83.3553 259.051 83.4097 259.018 83.4689 258.996C83.5282 258.974 83.5911 258.964 83.6543 258.967C83.7174 258.969 83.7794 258.984 83.8368 259.01C83.8942 259.037 83.9458 259.074 83.9887 259.12C84.0316 259.167 84.065 259.221 84.0869 259.28C84.1088 259.339 84.1189 259.402 84.1164 259.465C84.114 259.528 84.0992 259.59 84.0728 259.647L24.4235 388.933C24.3853 389.017 24.3238 389.087 24.2462 389.137C24.1687 389.186 24.0786 389.212 23.9866 389.212Z" fill="#141414"/>
<path d="M22.7737 398.319C25.0618 397.88 26.5595 395.673 26.1189 393.391C25.6783 391.108 23.4662 389.614 21.178 390.054C18.8899 390.493 17.3922 392.7 17.8328 394.982C18.2735 397.265 20.4855 398.759 22.7737 398.319Z" fill="#141414"/>
<path d="M192.176 389.212C192.084 389.212 191.993 389.186 191.916 389.137C191.838 389.087 191.777 389.017 191.739 388.933L132.089 259.647C132.063 259.59 132.048 259.528 132.046 259.465C132.043 259.402 132.053 259.339 132.075 259.28C132.097 259.221 132.13 259.167 132.173 259.12C132.216 259.074 132.268 259.037 132.325 259.01C132.383 258.984 132.445 258.969 132.508 258.967C132.571 258.964 132.634 258.974 132.693 258.996C132.752 259.018 132.807 259.051 132.853 259.094C132.899 259.137 132.937 259.189 132.963 259.246L192.613 388.532C192.639 388.589 192.654 388.651 192.656 388.714C192.659 388.777 192.649 388.84 192.627 388.899C192.605 388.958 192.571 389.012 192.529 389.059C192.486 389.105 192.434 389.142 192.377 389.169C192.314 389.198 192.245 389.213 192.176 389.212Z" fill="#141414"/>
<path d="M197.769 396.42C198.994 394.443 198.38 391.849 196.398 390.627C194.416 389.405 191.816 390.017 190.591 391.994C189.366 393.972 189.98 396.565 191.962 397.787C193.944 399.009 196.544 398.397 197.769 396.42Z" fill="#141414"/>
<path d="M214.779 267.43C214.779 298.951 170.673 317.623 116.268 317.623C61.8627 317.623 17.7594 298.951 17.7594 267.43C17.7594 235.909 61.8562 203.473 116.262 203.473C170.667 203.473 214.779 235.907 214.779 267.43Z" fill="white"/>
<path d="M116.262 318.102C89.002 318.102 64.1897 313.37 46.3976 304.779C27.3492 295.579 17.2831 282.663 17.2831 267.43C17.2831 251.827 27.878 235.718 46.343 223.233C65.6536 210.182 90.4791 202.994 116.262 202.994C142.044 202.994 166.878 210.186 186.18 223.233C204.649 235.718 215.24 251.827 215.24 267.43C215.24 282.663 205.169 295.579 186.114 304.779C168.342 313.37 143.53 318.102 116.262 318.102ZM116.262 203.953C60.1563 203.953 18.2358 237.466 18.2358 267.43C18.2423 296.699 58.5525 317.139 116.262 317.139C173.971 317.139 214.289 296.695 214.289 267.426C214.296 237.466 172.376 203.953 116.262 203.953Z" fill="#141414"/>
<path d="M57.2503 259.86C58.9191 268.393 63.4669 276.098 70.1368 281.693C76.8068 287.288 85.1965 290.435 93.9095 290.612L57.2503 259.86Z" fill="white"/>
<path d="M93.9095 291.093C85.0864 290.914 76.591 287.726 69.837 282.06C63.083 276.394 58.4775 268.592 56.7871 259.952C56.775 259.89 56.7753 259.827 56.7879 259.765C56.8005 259.703 56.8251 259.644 56.8604 259.592C56.8957 259.54 56.941 259.495 56.9936 259.461C57.0463 259.426 57.1053 259.402 57.1673 259.39C57.2292 259.378 57.293 259.378 57.3549 259.39C57.4167 259.403 57.4755 259.428 57.5279 259.463C57.5802 259.498 57.6251 259.543 57.6599 259.596C57.6948 259.648 57.7189 259.707 57.731 259.769C59.3796 268.193 63.8705 275.801 70.4564 281.325C77.0423 286.849 85.326 289.958 93.9291 290.132C94.0513 290.14 94.1658 290.195 94.2494 290.284C94.333 290.373 94.3795 290.491 94.3795 290.613C94.3795 290.735 94.333 290.852 94.2494 290.942C94.1658 291.031 94.0513 291.085 93.9291 291.093H93.9095Z" fill="#141414"/>
<path d="M210.031 213.351L198.739 170.828C197.308 165.434 194.276 160.598 190.041 156.953C185.805 153.308 180.565 151.025 175.006 150.404C159.836 148.701 137.51 146.736 115.407 146.746C96.8854 146.746 80.8216 159.573 76.6505 177.574C73.5195 191.087 70.4474 207.582 69.5232 223.187C68.564 239.397 84.8047 251.11 99.9224 245.09L149.628 225.297L170.057 222.213L210.031 213.351Z" fill="white"/>
<path d="M91.6655 247.175C88.5737 247.167 85.5162 246.53 82.68 245.302C79.8438 244.074 77.2886 242.282 75.1708 240.035C73.0531 237.788 71.4172 235.133 70.3635 232.234C69.3097 229.334 68.8603 226.251 69.0425 223.172C69.8269 209.907 72.2303 194.535 76.1829 177.478C78.2287 168.624 83.219 160.721 90.3412 155.056C97.4634 149.391 106.298 146.298 115.407 146.28C137.659 146.28 160.122 148.263 175.056 149.939C180.718 150.548 186.061 152.861 190.373 156.57C194.686 160.28 197.764 165.211 199.2 170.708L210.494 213.233C210.51 213.296 210.514 213.361 210.504 213.425C210.495 213.489 210.473 213.55 210.439 213.605C210.406 213.66 210.361 213.708 210.309 213.745C210.256 213.783 210.197 213.81 210.134 213.824L170.149 222.695L149.742 225.777L100.093 245.543C97.4131 246.616 94.553 247.17 91.6655 247.175ZM115.606 147.235H115.418C97.0274 147.235 81.2826 159.767 77.1312 177.692C73.1983 194.692 70.7948 210.014 70.0148 223.224C69.7959 226.868 70.5031 230.508 72.0707 233.806C73.6383 237.105 76.0156 239.955 78.982 242.092C81.9484 244.23 85.4079 245.585 89.0396 246.033C92.6713 246.481 96.3575 246.006 99.7564 244.654L149.46 224.861C149.494 224.848 149.53 224.838 149.567 224.833L169.996 221.749L209.448 212.992L198.285 170.95C196.897 165.642 193.922 160.88 189.757 157.298C185.591 153.717 180.431 151.485 174.962 150.898C160.081 149.22 137.729 147.235 115.606 147.235Z" fill="#141414"/>
<path d="M107.303 210.038C107.271 210.041 107.238 210.041 107.205 210.038C107.08 210.012 106.971 209.937 106.901 209.83C106.831 209.724 106.806 209.594 106.831 209.469L113.79 176.271C113.822 176.152 113.898 176.05 114.003 175.986C114.108 175.922 114.233 175.9 114.353 175.925C114.473 175.951 114.579 176.021 114.649 176.121C114.72 176.222 114.748 176.346 114.73 176.467L107.773 209.666C107.749 209.772 107.689 209.867 107.604 209.935C107.519 210.002 107.412 210.039 107.303 210.038Z" fill="#141414"/>
<path d="M167.73 214.668C167.638 214.668 167.548 214.641 167.471 214.592C167.393 214.543 167.332 214.472 167.293 214.389C161.805 202.523 153.95 200.198 143.053 200.304C131.91 200.409 100.727 213.658 100.412 213.791C100.353 213.827 100.287 213.85 100.219 213.858C100.151 213.866 100.082 213.859 100.016 213.839C99.9509 213.818 99.8906 213.783 99.8396 213.737C99.7887 213.691 99.7482 213.635 99.7209 213.572C99.6937 213.509 99.6802 213.441 99.6815 213.373C99.6828 213.304 99.6988 213.237 99.7285 213.175C99.7582 213.113 99.8008 213.058 99.8534 213.014C99.9061 212.97 99.9676 212.938 100.034 212.92C101.321 212.37 131.703 199.461 143.045 199.354C154.009 199.247 162.48 201.701 168.172 213.994C168.198 214.051 168.213 214.113 168.215 214.176C168.218 214.239 168.208 214.302 168.186 214.361C168.164 214.42 168.131 214.474 168.088 214.521C168.045 214.567 167.993 214.604 167.936 214.631C167.871 214.658 167.801 214.671 167.73 214.668Z" fill="#141414"/>
<path d="M156.578 219.672C156.466 219.672 156.357 219.632 156.271 219.56C156.184 219.488 156.126 219.388 156.106 219.277C155.7 217.151 154.753 215.164 153.356 213.507C151.96 211.85 150.161 210.577 148.131 209.812C148.068 209.793 148.009 209.762 147.958 209.719C147.907 209.677 147.866 209.625 147.836 209.566C147.806 209.507 147.789 209.443 147.785 209.377C147.781 209.311 147.791 209.245 147.814 209.183C147.837 209.121 147.872 209.065 147.918 209.017C147.963 208.969 148.018 208.931 148.079 208.906C148.14 208.88 148.205 208.867 148.272 208.868C148.338 208.868 148.403 208.882 148.463 208.909C150.649 209.735 152.586 211.106 154.09 212.891C155.594 214.676 156.614 216.815 157.052 219.105C157.064 219.167 157.063 219.231 157.049 219.293C157.036 219.354 157.01 219.413 156.974 219.465C156.938 219.517 156.892 219.561 156.839 219.595C156.785 219.629 156.726 219.652 156.663 219.663C156.636 219.669 156.607 219.672 156.578 219.672Z" fill="#141414"/>
<path d="M162.976 217.109C162.862 217.109 162.751 217.068 162.664 216.994C162.578 216.92 162.52 216.818 162.502 216.705C162.122 214.469 161.217 212.354 159.86 210.533C158.504 208.713 156.734 207.238 154.697 206.231C154.581 206.175 154.492 206.075 154.45 205.954C154.407 205.833 154.415 205.7 154.471 205.584C154.527 205.469 154.627 205.38 154.748 205.338C154.869 205.295 155.003 205.303 155.119 205.359C157.296 206.435 159.187 208.011 160.636 209.957C162.085 211.902 163.052 214.163 163.457 216.553C163.477 216.679 163.446 216.807 163.372 216.91C163.297 217.014 163.185 217.083 163.059 217.104C163.031 217.108 163.004 217.11 162.976 217.109Z" fill="#141414"/>
<path d="M170.896 220.738H170.818C170.692 220.716 170.579 220.646 170.505 220.542C170.431 220.439 170.401 220.31 170.422 220.184L177.414 178.413C177.423 178.35 177.445 178.29 177.478 178.235C177.511 178.181 177.555 178.133 177.606 178.096C177.658 178.058 177.717 178.031 177.779 178.017C177.841 178.002 177.905 178 177.968 178.01C178.031 178.021 178.091 178.043 178.145 178.077C178.199 178.111 178.246 178.156 178.283 178.208C178.32 178.26 178.345 178.319 178.359 178.381C178.373 178.443 178.374 178.507 178.362 178.57L171.37 220.343C171.35 220.454 171.291 220.554 171.205 220.626C171.118 220.698 171.009 220.737 170.896 220.738Z" fill="#141414"/>
<path d="M141.825 123.465L135.019 146.766L129.775 147.006C129.775 147.006 143.344 160.722 158.993 148.815L154.365 146.755L157.616 132.442L141.825 123.465Z" fill="white"/>
<path d="M145.758 154.126C136.322 154.126 129.553 147.44 129.456 147.344C129.392 147.277 129.347 147.194 129.329 147.103C129.31 147.012 129.319 146.918 129.353 146.832C129.387 146.745 129.445 146.671 129.52 146.616C129.595 146.562 129.685 146.531 129.778 146.526L134.67 146.308L141.38 123.338C141.4 123.268 141.435 123.204 141.484 123.15C141.532 123.096 141.593 123.053 141.66 123.026C141.727 122.999 141.8 122.987 141.873 122.992C141.945 122.997 142.016 123.019 142.079 123.055L157.878 132.03C157.968 132.081 158.038 132.16 158.08 132.254C158.122 132.348 158.132 132.453 158.11 132.553L154.935 146.481L159.205 148.381C159.28 148.416 159.346 148.47 159.395 148.537C159.444 148.604 159.476 148.682 159.486 148.765C159.496 148.847 159.484 148.931 159.451 149.008C159.418 149.084 159.365 149.151 159.299 149.201C154.498 152.851 149.87 154.126 145.758 154.126ZM130.99 147.431C133.292 149.364 135.911 150.886 138.732 151.929C145.415 154.344 151.916 153.329 158.062 148.913L154.186 147.187C154.084 147.141 154.001 147.062 153.951 146.963C153.901 146.864 153.888 146.75 153.913 146.642L157.085 132.675L142.125 124.175L135.489 146.901C135.461 146.996 135.403 147.081 135.325 147.142C135.247 147.204 135.152 147.24 135.052 147.246L130.99 147.431Z" fill="#141414"/>
<path d="M166.092 115.564C166.092 115.564 184.458 110.413 184.273 99.204C184.087 87.9946 175.777 89.359 162.792 89.2849C148.59 89.2042 133.459 88.4131 132.29 105.719C131.121 123.024 146.604 127.732 146.604 127.732L166.092 115.564Z" fill="#141414"/>
<path d="M167.907 127.442C167.354 129.763 166.679 132.154 165.104 133.948C162.6 136.801 158.171 137.483 154.616 136.128C152.862 135.444 151.299 134.347 150.061 132.931C148.823 131.515 147.946 129.821 147.506 127.994C146.063 127.861 144.667 127.41 143.42 126.673C142.172 125.935 141.105 124.93 140.296 123.73C139.269 122.185 138.736 120.071 139.732 118.499C140.606 117.135 142.42 116.608 144.019 116.863C145.619 117.118 147.041 118.009 148.341 118.975C151.074 118.48 144.869 108.489 157.173 105.244C160.035 104.487 163.509 104.101 166.461 104.511C169.244 104.895 169.05 106.715 169.378 109.119C170.23 115.25 169.327 121.468 167.907 127.442Z" fill="white"/>
<path d="M158.313 137.292C156.992 137.291 155.683 137.051 154.448 136.583C152.671 135.896 151.081 134.8 149.809 133.384C148.537 131.969 147.617 130.273 147.126 128.436C145.676 128.248 144.282 127.755 143.037 126.99C141.792 126.224 140.723 125.204 139.903 123.996C138.86 122.425 138.155 120.091 139.337 118.249C140.379 116.612 142.485 116.141 144.104 116.396C145.761 116.66 147.205 117.556 148.417 118.438C148.704 118.188 148.691 117.368 148.647 116.139C148.525 112.754 148.321 107.092 157.059 104.781C160.301 103.925 163.756 103.655 166.535 104.036C169.314 104.417 169.542 106.248 169.758 108.177C169.789 108.458 169.821 108.75 169.863 109.049C170.586 114.354 170.114 120.232 168.375 127.547C167.816 129.903 167.129 132.361 165.467 134.258C163.747 136.237 161.088 137.292 158.313 137.292ZM143.237 117.29C142.079 117.29 140.814 117.726 140.145 118.765C139.219 120.219 139.868 122.207 140.702 123.467C141.475 124.603 142.489 125.556 143.673 126.256C144.857 126.957 146.182 127.388 147.552 127.518C147.655 127.525 147.754 127.564 147.833 127.631C147.911 127.698 147.966 127.788 147.989 127.889C148.416 129.637 149.258 131.258 150.442 132.615C151.627 133.971 153.12 135.025 154.798 135.687C158.339 137.034 162.526 136.171 164.75 133.634C166.269 131.904 166.915 129.574 167.448 127.333C169.159 120.141 169.633 114.371 168.919 109.186C168.877 108.877 168.842 108.578 168.81 108.291C168.591 106.346 168.473 105.274 166.406 104.991C163.745 104.622 160.43 104.886 157.306 105.712C149.313 107.824 149.492 112.809 149.61 116.106C149.669 117.78 149.722 119.225 148.437 119.459C148.372 119.47 148.306 119.468 148.241 119.453C148.177 119.438 148.117 119.41 148.064 119.371C146.903 118.499 145.507 117.593 143.956 117.347C143.719 117.31 143.479 117.291 143.239 117.29H143.237Z" fill="#141414"/>
<path d="M147.609 124.872C147.54 124.872 147.472 124.858 147.409 124.829C147.346 124.8 147.29 124.759 147.244 124.707C146.219 123.535 144.794 122.784 143.246 122.601C143.119 122.587 143.003 122.522 142.924 122.423C142.844 122.323 142.808 122.196 142.822 122.07C142.828 122.007 142.847 121.946 142.878 121.89C142.908 121.835 142.95 121.786 142.999 121.746C143.049 121.707 143.106 121.678 143.167 121.661C143.228 121.644 143.292 121.639 143.355 121.647C145.143 121.857 146.789 122.724 147.972 124.079C148.032 124.149 148.071 124.234 148.084 124.325C148.097 124.416 148.084 124.508 148.046 124.592C148.008 124.676 147.946 124.746 147.869 124.796C147.791 124.846 147.701 124.872 147.609 124.872Z" fill="#141414"/>
<path d="M254.261 220.435L148.599 223.902V217.185C148.599 216.506 148.732 215.833 148.993 215.205C149.253 214.578 149.635 214.007 150.117 213.527C150.598 213.047 151.17 212.666 151.799 212.406C152.428 212.146 153.103 212.013 153.784 212.013H254.261V220.435Z" fill="#141414"/>
<path d="M259.785 216.623H194.564C193.914 216.621 193.273 216.472 192.689 216.187C192.105 215.902 191.594 215.489 191.194 214.978C190.794 214.467 190.516 213.872 190.381 213.237C190.245 212.603 190.256 211.947 190.412 211.318L202.74 161.713C202.969 160.788 203.503 159.965 204.255 159.377C205.007 158.788 205.935 158.468 206.891 158.466H272.11C272.76 158.467 273.401 158.616 273.985 158.901C274.568 159.186 275.08 159.6 275.48 160.111C275.879 160.622 276.158 161.217 276.293 161.851C276.429 162.485 276.418 163.142 276.261 163.771L263.934 213.375C263.704 214.3 263.171 215.122 262.419 215.711C261.667 216.299 260.74 216.62 259.785 216.623Z" fill="#141414"/>
<path d="M239.032 182.827H233.338L234.721 177.145H240.415L239.032 182.827Z" fill="white"/>
<path d="M271.736 362.705L334.916 345.636C335.661 345.436 336.336 345.033 336.867 344.474C337.397 343.915 337.763 343.221 337.923 342.468C338.083 341.714 338.031 340.932 337.774 340.206C337.516 339.48 337.063 338.84 336.463 338.355L322.698 327.2L266.433 344.734L271.736 362.705Z" fill="white"/>
<path d="M271.736 363.184C271.632 363.184 271.531 363.15 271.448 363.088C271.365 363.026 271.305 362.939 271.275 362.84L265.961 344.869C265.926 344.748 265.939 344.618 265.999 344.507C266.059 344.395 266.16 344.312 266.28 344.274L322.543 326.742C322.617 326.72 322.696 326.716 322.772 326.731C322.848 326.746 322.919 326.779 322.98 326.827L336.758 337.982C337.426 338.523 337.931 339.237 338.218 340.046C338.505 340.855 338.563 341.727 338.384 342.567C338.206 343.406 337.799 344.181 337.208 344.804C336.617 345.428 335.865 345.876 335.034 346.101L271.854 363.167C271.816 363.177 271.776 363.183 271.736 363.184ZM267.019 345.05L272.064 362.118L334.792 345.174C335.45 344.995 336.047 344.638 336.515 344.143C336.984 343.648 337.306 343.033 337.448 342.367C337.589 341.701 337.543 341.009 337.316 340.367C337.089 339.725 336.689 339.157 336.16 338.727L322.585 327.734L267.019 345.05Z" fill="#141414"/>
<path d="M211.635 376.715L214.379 391.621C214.729 393.521 215.735 395.24 217.223 396.477C218.711 397.714 220.587 398.392 222.525 398.392H286.625C290.979 398.392 293.217 393.194 290.221 390.043L271.736 370.61L211.635 376.715Z" fill="white"/>
<path d="M286.625 398.872H222.525C220.475 398.872 218.49 398.155 216.915 396.846C215.34 395.537 214.275 393.719 213.905 391.708L211.161 376.802C211.149 376.736 211.151 376.668 211.167 376.603C211.183 376.537 211.213 376.476 211.254 376.423C211.295 376.37 211.347 376.326 211.406 376.294C211.465 376.262 211.53 376.243 211.598 376.237L271.699 370.135C271.772 370.126 271.846 370.135 271.915 370.161C271.984 370.186 272.046 370.227 272.097 370.281L290.581 389.716C291.312 390.485 291.8 391.452 291.986 392.495C292.172 393.539 292.048 394.614 291.628 395.588C291.208 396.562 290.512 397.391 289.624 397.975C288.737 398.558 287.698 398.869 286.635 398.87L286.625 398.872ZM212.203 377.14L214.851 391.536C215.181 393.326 216.129 394.944 217.531 396.109C218.933 397.275 220.7 397.913 222.525 397.913H286.625C287.5 397.913 288.356 397.656 289.087 397.176C289.817 396.695 290.391 396.012 290.736 395.21C291.082 394.408 291.184 393.522 291.03 392.663C290.877 391.803 290.474 391.007 289.871 390.374L271.551 371.111L212.203 377.14Z" fill="#141414"/>
<path d="M91.8294 230.009C91.8294 230.009 80.7888 271.264 100.906 284.254C120.675 297.024 197.828 288.831 197.828 288.831L211.244 380.57C211.244 380.57 240.891 384.905 276.281 375.426L271.494 347.653L322.534 327.729C322.534 327.729 301.79 277.098 284.953 238.49C279.92 226.955 271.096 217.476 259.938 211.614C248.779 205.752 235.951 203.858 223.569 206.244C202.567 210.291 173.263 216.679 134.244 226.716L91.8294 230.009Z" fill="url(#paint0_linear_120_3)"/>
<path d="M271.736 345.432C271.621 345.432 271.51 345.391 271.423 345.316C271.336 345.241 271.279 345.137 271.262 345.024C271.142 344.252 259.118 267.526 246.389 249.638C242.237 243.804 235.962 240.114 227.736 238.669C217.005 236.786 205.585 239.392 196.401 245.829L140.327 285.115C140.222 285.188 140.093 285.217 139.967 285.195C139.841 285.173 139.729 285.102 139.656 284.997C139.583 284.893 139.554 284.764 139.576 284.638C139.598 284.513 139.669 284.401 139.774 284.328L195.848 245.042C205.244 238.462 216.92 235.796 227.902 237.725C236.386 239.214 242.871 243.037 247.173 249.083C260.034 267.155 271.721 341.713 272.213 344.878C272.222 344.94 272.219 345.004 272.204 345.065C272.189 345.126 272.163 345.184 272.125 345.235C272.088 345.285 272.041 345.328 271.987 345.361C271.933 345.394 271.873 345.415 271.811 345.425C271.786 345.429 271.761 345.432 271.736 345.432Z" fill="#141414"/>
<path d="M69.5232 223.201C68.564 239.41 84.8047 251.123 99.9224 245.103L147.926 223.238L115.575 226.614L71.4547 204.818C70.5698 210.923 69.8815 217.126 69.5232 223.201Z" fill="white"/>
<path d="M88.6612 246.975H88.5935C76.9367 245.356 68.3499 234.9 69.0425 223.172C69.379 217.486 70.0323 211.287 70.9806 204.748C70.9869 204.684 71.0063 204.621 71.0376 204.565C71.0689 204.508 71.1114 204.458 71.1625 204.418C71.2137 204.378 71.2724 204.349 71.3352 204.332C71.398 204.315 71.4635 204.312 71.5278 204.321C71.5921 204.33 71.6539 204.352 71.7094 204.386C71.7648 204.42 71.8128 204.465 71.8505 204.517C71.8882 204.57 71.9148 204.63 71.9286 204.693C71.9424 204.757 71.9432 204.822 71.931 204.886C70.9871 211.396 70.3382 217.569 70.0039 223.229C69.3484 234.46 77.5638 244.473 88.7267 246.025C88.8476 246.041 88.9577 246.103 89.0347 246.197C89.1118 246.291 89.15 246.411 89.1416 246.533C89.1333 246.654 89.079 246.768 88.9898 246.851C88.9006 246.934 88.7831 246.98 88.6612 246.979V246.975Z" fill="#141414"/>
<path d="M132.229 229.125C132.159 229.124 132.089 229.109 132.025 229.079C131.962 229.049 131.905 229.006 131.86 228.952C122.198 217.501 125.412 205.221 125.438 205.11C125.472 204.987 125.553 204.883 125.664 204.82C125.775 204.757 125.906 204.74 126.029 204.774C126.153 204.807 126.257 204.888 126.321 204.999C126.384 205.109 126.401 205.24 126.367 205.363C126.334 205.481 123.262 217.292 132.59 228.346C132.63 228.395 132.661 228.45 132.68 228.51C132.699 228.57 132.706 228.634 132.701 228.696C132.695 228.759 132.677 228.82 132.648 228.876C132.619 228.932 132.579 228.982 132.531 229.022C132.445 229.09 132.339 229.126 132.229 229.125Z" fill="#141414"/>
<defs>
<linearGradient id="paint0_linear_120_3" x1="205.676" y1="381.562" x2="205.676" y2="205.239" gradientUnits="userSpaceOnUse">
<stop stop-color="#DC1D47"/>
<stop offset="1" stop-color="#E54327"/>
</linearGradient>
</defs>
</svg>
