<svg width="64" height="64" viewBox="0 0 64 64" fill="none" xmlns="http://www.w3.org/2000/svg">
<g clip-path="url(#clip0_54_702)">
<path d="M12.33 50.51C12.35 48.19 12.66 45.9 13.23 43.65C13.38 43.04 13.35 42.72 12.63 42.5C9.43003 41.51 6.38003 40.16 3.74003 38.05C2.56003 37.11 1.53003 36.02 0.780027 34.68C-0.529973 32.31 -0.0699729 29.55 1.91003 27.4C4.29003 24.81 7.32003 23.33 10.52 22.11C11.21 21.85 11.92 21.62 12.64 21.45C13.27 21.3 13.44 21.03 13.28 20.38C12.64 17.88 12.27 15.34 12.35 12.76C12.41 10.63 12.71 8.53001 13.74 6.59001C14.96 4.30001 17.21 3.17001 19.81 3.52001C22.91 3.94001 25.56 5.36001 28.08 7.09001C29.32 7.94001 30.52 8.86001 31.54 9.97001C31.86 10.32 32.13 10.33 32.47 10.01C33.65 8.88001 34.89 7.80001 36.24 6.86001C38.7 5.17001 41.27 3.71001 44.31 3.39001C46.37 3.17001 48.66 4.01001 49.86 5.97001C50.88 7.63001 51.31 9.44001 51.52 11.36C51.85 14.46 51.47 17.5 50.78 20.51C50.6 21.28 51.06 21.36 51.56 21.51C54.73 22.46 57.73 23.77 60.37 25.81C61.52 26.7 62.51 27.71 63.23 28.98C64.53 31.29 64.21 33.49 62.69 35.54C60.86 38.02 58.3 39.54 55.56 40.79C54.19 41.41 52.8 41.98 51.35 42.39C50.89 42.52 50.78 42.78 50.9 43.22C51.46 45.33 51.71 47.5 51.75 49.67C51.8 52.13 51.52 54.58 50.44 56.84C49.1 59.63 46.54 60.82 43.26 60.18C40.25 59.59 37.74 58 35.32 56.22C34.37 55.52 33.52 54.7 32.65 53.91C32.23 53.53 32 53.62 31.63 53.96C29.07 56.31 26.3 58.33 23 59.54C21.46 60.11 19.87 60.43 18.24 60.25C15.93 60 14.39 58.68 13.47 56.6C12.59 54.67 12.3 52.62 12.33 50.51ZM30.54 21.79C29.36 21.83 28.18 21.78 27 21.9C26.4 21.96 26.03 22.17 25.72 22.67C23.95 25.44 22.3 28.28 20.81 31.21C20.56 31.7 20.58 32.1 20.82 32.57C22.33 35.49 23.94 38.35 25.76 41.09C26.14 41.66 26.59 41.93 27.23 41.94C30.44 41.98 33.65 42.16 36.87 41.95C37.46 41.91 37.9 41.72 38.24 41.18C39.98 38.42 41.67 35.63 43.15 32.72C43.43 32.16 43.42 31.71 43.14 31.16C41.68 28.24 40.01 25.44 38.29 22.67C37.9 22.04 37.41 21.83 36.69 21.79C34.65 21.68 32.6 21.82 30.54 21.79ZM19.11 57.37C20.82 57.33 22.37 56.72 23.85 55.95C26.02 54.83 27.9 53.3 29.73 51.69C30.02 51.43 30.03 51.23 29.76 50.95C28.03 49.12 26.45 47.16 24.95 45.13C24.71 44.81 24.44 44.61 24.04 44.59C21.66 44.45 19.31 44.07 16.98 43.6C16.51 43.5 16.29 43.58 16.15 44.1C15.61 46.03 15.35 48 15.28 49.98C15.22 51.92 15.37 53.86 16.27 55.66C16.85 56.83 17.8 57.39 19.11 57.37ZM3.00003 31.45C3.00003 32.96 3.61003 33.8 4.31003 34.53C6.89003 37.21 10.19 38.64 13.66 39.75C14.11 39.9 14.28 39.68 14.4 39.29C15.14 36.97 15.96 34.69 16.98 32.48C17.18 32.04 17.15 31.64 16.95 31.21C16 29.12 15.2 26.97 14.51 24.79C14.33 24.22 14.09 24.06 13.51 24.25C12.34 24.63 11.16 24.97 10.04 25.47C7.92003 26.43 5.87003 27.49 4.26003 29.23C3.59003 29.96 2.98003 30.76 3.00003 31.45ZM48.73 50.16C48.82 48.07 48.49 46.11 48.08 44.16C47.9 43.31 47.86 43.29 47.02 43.47C44.76 43.96 42.48 44.36 40.18 44.57C39.7 44.61 39.37 44.8 39.09 45.2C37.71 47.14 36.29 49.05 34.66 50.8C34.34 51.14 34.34 51.4 34.68 51.74C35.63 52.7 36.65 53.56 37.75 54.34C39.53 55.61 41.37 56.75 43.54 57.25C45.91 57.8 47.34 57.01 48.12 54.73C48.62 53.22 48.84 51.67 48.73 50.16ZM45.03 6.39001C44.28 6.36001 43.62 6.47001 42.98 6.69001C39.69 7.77001 37.03 9.82001 34.55 12.15C34.23 12.45 34.22 12.66 34.53 13C36.18 14.85 37.75 16.75 39.19 18.77C39.38 19.04 39.62 19.16 39.94 19.18C42.3 19.36 44.61 19.81 46.92 20.31C47.59 20.46 47.83 20.26 47.98 19.64C48.39 17.95 48.58 16.23 48.67 14.5C48.78 12.35 48.63 10.24 47.75 8.26001C47.22 7.07001 46.4 6.24001 45.03 6.39001ZM19 6.40001C17.96 6.45001 17.12 6.75001 16.55 7.66001C15.99 8.54001 15.68 9.51001 15.53 10.52C15.05 13.68 15.42 16.79 16.18 19.86C16.29 20.32 16.53 20.45 16.99 20.34C19.29 19.82 21.62 19.44 23.97 19.19C24.4 19.14 24.69 18.97 24.94 18.63C26.39 16.65 27.92 14.73 29.61 12.96C29.96 12.59 29.81 12.38 29.53 12.11C27.36 10.06 24.95 8.36001 22.19 7.19001C21.15 6.75001 20.06 6.54001 19 6.40001ZM61.11 31.81C61.06 31.6 61.02 31.35 60.94 31.11C60.52 29.84 59.58 28.97 58.58 28.18C56.18 26.3 53.42 25.12 50.52 24.25C49.97 24.08 49.74 24.19 49.57 24.74C48.88 27 48.01 29.19 47.06 31.35C46.87 31.78 46.89 32.14 47.09 32.54C48.12 34.64 48.96 36.82 49.72 39.03C49.89 39.54 50.11 39.65 50.63 39.51C52.7 38.93 54.63 38.06 56.48 36.99C57.68 36.3 58.82 35.49 59.77 34.46C60.44 33.72 61 32.91 61.11 31.81ZM42.26 41.39C43.64 41.12 45.14 40.84 46.64 40.54C46.97 40.47 47.04 40.25 46.93 39.96C46.42 38.62 45.91 37.28 45.38 35.95C45.2 35.49 44.96 35.61 44.77 35.97C44.56 36.36 44.37 36.75 44.15 37.13C43.43 38.37 42.69 39.6 41.96 40.83C41.81 41.09 41.61 41.36 42.26 41.39ZM21.79 41.44C22.21 41.48 22.39 41.39 22.13 40.95C21.17 39.29 20.22 37.63 19.26 35.97C19.05 35.6 18.84 35.64 18.7 36.02C18.18 37.35 17.66 38.69 17.27 40.07C17.14 40.54 17.36 40.71 17.76 40.78C19.11 40.99 20.45 41.21 21.79 41.44ZM31.98 44.99C31.98 44.97 31.98 44.95 31.98 44.93C31.03 44.93 30.09 44.93 29.14 44.93C29 44.93 28.84 44.86 28.75 44.98C28.63 45.15 28.8 45.28 28.9 45.39C29.83 46.51 30.78 47.61 31.7 48.74C32.03 49.14 32.29 49.08 32.59 48.72C33.45 47.66 34.31 46.61 35.17 45.55C35.27 45.43 35.42 45.3 35.34 45.12C35.26 44.94 35.06 45 34.9 45C33.93 44.99 32.95 44.99 31.98 44.99ZM42.4 22.41C42.07 22.38 41.9 22.33 41.83 22.48C41.74 22.68 41.89 22.83 41.99 22.99C42.97 24.56 43.85 26.19 44.74 27.82C44.82 27.97 44.86 28.21 45.1 28.17C45.28 28.14 45.32 27.94 45.37 27.8C45.83 26.52 46.29 25.23 46.76 23.95C46.91 23.53 46.82 23.28 46.37 23.2C44.97 22.92 43.59 22.64 42.4 22.41ZM32.17 18.75C33.21 18.75 34.02 18.75 34.83 18.75C35.21 18.75 35.39 18.61 35.1 18.26C34.19 17.16 33.31 16.03 32.31 15C32.06 14.75 31.88 14.8 31.68 15.03C30.77 16.1 29.86 17.17 28.95 18.25C28.84 18.38 28.64 18.52 28.73 18.72C28.84 18.95 29.1 18.89 29.29 18.87C30.33 18.71 31.37 18.76 32.17 18.75ZM21.79 22.42C20.43 22.68 19.07 22.93 17.7 23.18C17.28 23.26 17.16 23.48 17.3 23.87C17.76 25.15 18.22 26.44 18.69 27.71C18.85 28.16 19.07 28.11 19.29 27.73C20.22 26.11 21.15 24.49 22.08 22.86C22.15 22.74 22.27 22.62 22.18 22.48C22.09 22.36 21.93 22.43 21.79 22.42Z" fill="#52C8EC"/>
<path d="M32.05 26.12C35.08 26.11 37.75 28.7 37.71 31.72C37.67 35.12 35.21 37.38 32.07 37.47C29 37.55 26.39 34.91 26.37 31.84C26.36 28.71 28.93 26.12 32.05 26.12Z" fill="#52C8EC"/>
</g>
<defs>
<clipPath id="clip0_54_702">
<rect width="64" height="64" fill="white"/>
</clipPath>
</defs>
</svg>
