<svg width="400" height="400" viewBox="0 0 400 400" fill="none" xmlns="http://www.w3.org/2000/svg">
<g clip-path="url(#clip0_113_403)">
<path d="M400 200C400 213.63 398.641 226.946 396.043 239.804C395.674 241.609 395.293 243.402 394.88 245.185C392 257.63 387.967 269.63 382.891 281.065C376.978 294.38 369.652 306.924 361.12 318.511C351.141 332.065 339.489 344.304 326.467 354.935C292.011 383.098 247.978 400 200 400C89.5435 400 0 310.457 0 200C0 89.5435 89.5435 0 200 0C303.717 0 388.989 78.9456 399.011 180.022C399.663 186.587 400 193.261 400 200Z" fill="white"/>
<path d="M327.04 215.967L327.04 215.967C317.791 204.585 309.433 198.213 301.719 194.788C293.999 191.361 286.964 190.903 280.401 191.281C277.688 191.437 275.048 191.736 272.482 192.028C271.95 192.088 271.422 192.148 270.897 192.206C267.827 192.547 264.861 192.83 261.948 192.8C256.145 192.739 250.565 191.436 244.925 186.83L244.925 186.83C233.534 177.539 225.485 161.292 220.278 147.296C217.679 140.309 215.797 133.906 214.564 129.25C213.948 126.922 213.494 125.031 213.195 123.724C213.045 123.07 212.934 122.562 212.86 122.218C212.854 122.189 212.848 122.161 212.843 122.134C212.935 122.106 213.042 122.074 213.163 122.038C213.66 121.892 214.402 121.685 215.376 121.443C217.324 120.959 220.202 120.336 223.909 119.782C231.321 118.675 242.047 117.846 255.277 118.967C281.733 121.208 318.224 131.245 358.29 162.47C371.008 172.382 384.81 177.87 398.55 180.445C399.177 186.873 399.5 193.405 399.5 200C399.5 215.352 397.767 230.288 394.492 244.642C367.667 241.818 342.151 234.571 327.04 215.967Z" stroke="#141414"/>
<path d="M396.04 239.81C395.67 241.62 395.29 243.41 394.88 245.19C392.028 257.504 388.009 269.518 382.88 281.07C373.96 292.72 361.88 301.3 352.23 306.91C355.277 310.67 358.237 314.54 361.11 318.52C351.132 332.067 339.487 344.304 326.45 354.94C293.54 323.41 245.45 275.13 220.21 239.13L244.73 224.32C242.64 221.85 241.47 220.45 241.47 220.45L293.01 197.97L344.7 253.87L396.04 239.81Z" fill="url(#paint0_linear_113_403)"/>
<path fill-rule="evenodd" clip-rule="evenodd" d="M303.239 197.13L217.957 250.25L161.196 156.087C161.196 156.087 209.196 123.717 224.598 122.185L303.239 197.13Z" fill="white"/>
<path fill-rule="evenodd" clip-rule="evenodd" d="M303.239 197.13L217.957 250.25L161.196 156.087C161.196 156.087 209.196 123.717 224.598 122.185L303.239 197.13Z" fill="white" stroke="#141414" stroke-miterlimit="10"/>
<path fill-rule="evenodd" clip-rule="evenodd" d="M182.239 142.652C184.641 143.728 177.326 151.946 177.326 151.946C177.326 151.946 206.011 210.685 222.609 227.87L207.565 242.641C207.565 242.641 169.337 199.38 154.37 188.315C139.174 196.272 119.261 205 83.663 187.163C83.663 187.163 82.2717 166.13 86.6848 161.359C134.13 186.217 153.033 129.609 182.239 142.652Z" fill="white" stroke="#141414" stroke-miterlimit="10"/>
<path fill-rule="evenodd" clip-rule="evenodd" d="M205.75 236.098C205.902 236.098 206.054 236.043 206.174 235.924L216.293 225.283C216.511 225.054 216.5 224.685 216.272 224.457C216.043 224.239 215.674 224.25 215.446 224.478L205.326 235.12C205.109 235.348 205.109 235.717 205.348 235.946C205.457 236.054 205.609 236.098 205.75 236.098Z" fill="#141414"/>
<path fill-rule="evenodd" clip-rule="evenodd" d="M183.109 90.6413C183.109 90.6413 157.446 65.2283 147.772 54.3044C137.609 42.837 133.424 36.3152 132.511 33.2718C131.772 30.7826 135.098 29 136.891 29.9565C136.902 29.3478 137.065 27.3696 138.598 26.6304C140.87 25.5326 142.098 27.2718 142.293 27.3587C142.283 27.1522 142.424 24.6413 143.815 23.6522C145.391 22.5326 147.685 23.0761 148.978 23.8587C148.967 23.3478 148.565 20.9457 149.946 20.0544C151.75 18.9022 153.859 19.9783 155.011 21.3152C157.12 23.7718 162.728 30.6196 166.152 33.8696C172.902 40.2609 202.022 58.6522 207.196 71.5326C216.435 94.5544 189.848 97.2065 183.109 90.6413Z" fill="white" stroke="#141414" stroke-miterlimit="10"/>
<path fill-rule="evenodd" clip-rule="evenodd" d="M144.87 47.3695C144.913 47.3695 144.967 47.3587 145.011 47.3478C145.326 47.2717 145.511 46.9565 145.435 46.6413L142.978 36.9891C142.88 36.5869 143.087 36.2717 143.304 36.1087C143.413 36.0326 143.804 35.8152 144.228 36.1087C145.826 37.2174 146.87 38.4022 147.25 39.5326C147.924 41.5217 149.859 41.5978 152.087 41.6848C154.207 41.7717 156.859 41.8695 159.674 43.4456C159.957 43.5978 160.315 43.5 160.467 43.2174C160.63 42.9348 160.522 42.5869 160.239 42.4239C157.174 40.7174 154.25 40.5978 152.13 40.5109C149.859 40.4239 148.75 40.3261 148.348 39.1413C147.88 37.7608 146.717 36.413 144.891 35.1413C144.217 34.663 143.326 34.663 142.641 35.1413C141.957 35.6195 141.641 36.4565 141.848 37.2609L144.304 46.913C144.37 47.1848 144.609 47.3695 144.87 47.3695Z" fill="#141414"/>
<path fill-rule="evenodd" clip-rule="evenodd" d="M136.457 37.8913C137.185 37.8913 137.913 37.663 138.511 37.1848L138.565 37.1413C139.565 36.3587 140 35.1087 139.793 33.9348C140.946 34.75 142.533 34.7609 143.717 33.8913C144.533 33.2935 144.989 32.3804 145.043 31.4457L145.641 32.1087C147.011 33.6304 149.304 33.8696 150.967 32.663C152.62 31.4674 153.065 29.1739 151.989 27.4565L151.815 27.1739C153.902 28.1848 156.478 27.9348 158.326 26.3587C158.587 26.1413 158.609 25.75 158.391 25.5C158.174 25.2391 157.772 25.2174 157.511 25.4348C155.663 27.0109 152.859 26.913 151.13 25.1957L149.63 23.7174C149.413 23.5 149.054 23.4783 148.804 23.6739C148.554 23.8696 148.489 24.2065 148.663 24.4783L150.935 28.0978C151.674 29.2826 151.37 30.8587 150.228 31.6848C149.087 32.5109 147.511 32.3478 146.565 31.3043L142.837 27.1522C142.62 26.913 142.239 26.8804 141.989 27.0761C141.728 27.2826 141.685 27.6413 141.87 27.913L143.424 30.0652C144.076 30.9674 143.88 32.25 142.967 32.913C142.109 33.5435 140.924 33.4348 140.196 32.663L137.543 29.8696C137.326 29.6413 136.967 29.6087 136.717 29.8043C136.467 29.9891 136.391 30.337 136.565 30.6087L138.293 33.4239C138.848 34.337 138.641 35.5217 137.783 36.1848L137.728 36.2283C136.891 36.8804 135.663 36.7935 134.935 36.0326L134.217 35.2717C133.978 35.0217 133.587 35.0109 133.337 35.25C133.087 35.4783 133.076 35.8696 133.315 36.1196L134.043 36.8804C134.685 37.5435 135.565 37.8913 136.457 37.8913Z" fill="#141414"/>
<path fill-rule="evenodd" clip-rule="evenodd" d="M176.022 39.9131L150.565 62.2283C150.565 62.2283 189.435 91.5761 200.424 129.38L197.022 134L204.489 133.804L279.25 197.098L298.446 171.174L287.717 162.207C287.717 162.207 214.38 65.6413 176.022 39.9131Z" fill="white"/>
<path fill-rule="evenodd" clip-rule="evenodd" d="M176.022 39.9131L150.565 62.2283C150.565 62.2283 189.435 91.5761 200.424 129.38L197.022 134L204.489 133.804L279.25 197.087L298.446 171.163L287.717 162.196C287.717 162.207 214.38 65.6413 176.022 39.9131Z" fill="white" stroke="#141414" stroke-miterlimit="10"/>
<path fill-rule="evenodd" clip-rule="evenodd" d="M273.511 186.033C273.696 186.033 273.88 185.935 273.989 185.772L287.348 165.902C287.533 165.63 287.457 165.272 287.196 165.098C286.924 164.913 286.565 164.989 286.391 165.261L273.033 185.13C272.848 185.391 272.924 185.761 273.196 185.935C273.283 186 273.402 186.033 273.511 186.033Z" fill="#141414"/>
<path fill-rule="evenodd" clip-rule="evenodd" d="M61.0217 192.739H138.402L111.098 134.043H33.7174L61.0217 192.739Z" fill="white"/>
<path fill-rule="evenodd" clip-rule="evenodd" d="M61.0217 193.326H138.402C138.598 193.326 138.783 193.228 138.891 193.054C139 192.891 139.011 192.674 138.924 192.5L111.609 133.804C111.511 133.598 111.304 133.467 111.076 133.467H33.7174C33.5217 133.467 33.337 133.565 33.2283 133.739C33.1196 133.902 33.1087 134.12 33.1957 134.293L60.5109 192.989C60.587 193.185 60.7935 193.326 61.0217 193.326ZM137.489 192.152H61.3913L34.6196 134.62H110.717L137.489 192.152Z" fill="#141414"/>
<path fill-rule="evenodd" clip-rule="evenodd" d="M80.8804 164.609C81.8044 166.967 83.9348 168.337 85.6413 167.663C87.3478 166.989 87.9783 164.543 87.0543 162.174C86.1304 159.815 83.9891 158.446 82.2935 159.12C80.587 159.793 79.9565 162.239 80.8804 164.609Z" fill="url(#paint1_linear_113_403)"/>
<path fill-rule="evenodd" clip-rule="evenodd" d="M175.826 199.424H66.7717C63.6196 199.424 61.0652 196.87 61.0652 193.717V192.717H175.826V199.424Z" fill="white"/>
<path fill-rule="evenodd" clip-rule="evenodd" d="M66.7717 200.011H175.826C176.152 200.011 176.402 199.75 176.402 199.435V192.728C176.402 192.402 176.141 192.152 175.826 192.152H61.0652C60.7391 192.152 60.4891 192.413 60.4891 192.728V193.728C60.4891 197.185 63.3044 200.011 66.7717 200.011ZM175.239 198.848H66.7717C63.9457 198.848 61.6522 196.554 61.6522 193.728V193.315H175.239V198.848Z" fill="#141414"/>
<path fill-rule="evenodd" clip-rule="evenodd" d="M65.5217 197.228C62.3587 199.761 62.3043 202.152 63.7174 203.913C65.1304 205.674 67.4674 206.141 70.6413 203.609C73.8043 201.076 76.5978 196.489 75.1848 194.728C73.7717 192.967 68.6848 194.696 65.5217 197.228Z" fill="white" stroke="#141414" stroke-miterlimit="10"/>
<path fill-rule="evenodd" clip-rule="evenodd" d="M61.337 190.576C57.663 193.511 57.6087 196.283 59.2391 198.326C60.8804 200.37 63.587 200.913 67.2609 197.978C70.9348 195.033 74.163 189.728 72.5326 187.685C70.8913 185.641 65 187.641 61.337 190.576Z" fill="white" stroke="#141414" stroke-miterlimit="10"/>
<path fill-rule="evenodd" clip-rule="evenodd" d="M57.3369 187.011C54.1739 189.544 51.8261 189.076 50.413 187.315C49 185.554 49.0543 183.163 52.2174 180.63C55.3804 178.098 60.4674 176.37 61.8804 178.13C63.2935 179.891 60.5 184.467 57.3369 187.011Z" fill="white" stroke="#141414" stroke-miterlimit="10"/>
<path fill-rule="evenodd" clip-rule="evenodd" d="M62.913 192.543C59.2391 195.478 56.5326 194.935 54.8913 192.891C53.25 190.848 53.3152 188.087 56.9783 185.141C60.6522 182.196 66.5435 180.207 68.1739 182.25C69.8152 184.293 66.5761 189.609 62.913 192.543Z" fill="white" stroke="#141414" stroke-miterlimit="10"/>
<path fill-rule="evenodd" clip-rule="evenodd" d="M192.37 147.174C195.576 144.793 196.239 140.272 193.87 137.065L186.163 126.685C183.783 123.478 179.261 122.804 176.054 125.185C172.848 127.565 172.185 132.087 174.565 135.293L182.272 145.674C184.641 148.88 189.174 149.554 192.37 147.174Z" fill="white" stroke="#141414" stroke-miterlimit="10"/>
<path fill-rule="evenodd" clip-rule="evenodd" d="M164.109 135.587C166.674 139.12 178.391 135.837 178.391 135.837L187.685 126.283C189.652 120.467 186.522 114.163 180.707 112.196C174.891 110.228 168.587 113.348 166.62 119.174C166.62 119.174 161.5 131.989 164.109 135.587Z" fill="white" stroke="#141414" stroke-miterlimit="10"/>
<path fill-rule="evenodd" clip-rule="evenodd" d="M171.75 114.902C169.837 114.859 168.13 113.717 167.38 111.967C166.044 108.837 164.446 103.88 166.152 100.946C166.478 100.38 166.815 100.054 167.337 99.7826C170.272 98.25 173.239 103.674 180 105.924C186.511 108.087 191.054 105.467 193.565 108.804C194.663 110.272 194.707 112.022 194.728 112.446C195.043 118.043 190.37 120.554 190.37 120.554C190.37 120.554 193.565 119.174 194.815 123.609C196.065 128.054 181.641 128.685 181.641 128.685L179.891 126.967L181.543 122.326C182.793 118.793 180.228 115.076 176.489 115L171.75 114.902Z" fill="#141414"/>
<path fill-rule="evenodd" clip-rule="evenodd" d="M189.717 127.022C189.88 129.13 188.304 130.978 186.185 131.141C184.076 131.304 182.228 129.717 182.065 127.609C181.902 125.5 183.489 123.652 185.598 123.489C187.707 123.326 189.554 124.902 189.717 127.022Z" fill="white" stroke="#141414" stroke-miterlimit="10"/>
<path fill-rule="evenodd" clip-rule="evenodd" d="M178.022 105.022C178.022 105.022 181.326 121.022 189.685 128.641C194.446 128.38 195.098 126.598 195.098 126.598C195.098 126.598 185.13 111.076 184.163 104.543C181.543 103.587 178.022 105.022 178.022 105.022Z" fill="#141414"/>
<path fill-rule="evenodd" clip-rule="evenodd" d="M184.011 105.402C189.261 104.75 194.196 106.652 196.511 110.402C198.739 114.011 197.87 118.261 197.739 118.859C197.739 118.859 197.446 120.217 194.304 126.25C194.304 126.261 183.641 111.87 184.011 105.402Z" fill="#141414"/>
<path fill-rule="evenodd" clip-rule="evenodd" d="M191.228 122.37C191.348 122.37 191.478 122.326 191.587 122.25C191.848 122.054 191.891 121.685 191.696 121.435C186.913 115.217 185.098 106.25 185.087 106.163C185.022 105.848 184.717 105.641 184.402 105.706C184.087 105.772 183.88 106.076 183.946 106.391C184.022 106.772 185.826 115.717 190.783 122.152C190.87 122.293 191.054 122.37 191.228 122.37Z" fill="white"/>
<path fill-rule="evenodd" clip-rule="evenodd" d="M193.641 370.761C193.772 370.761 193.902 370.717 194.011 370.631C194.141 370.522 194.217 370.359 194.217 370.185C194.533 348.804 171.554 340.141 171.326 340.054C171.12 339.978 170.88 340.033 170.717 340.185L167.457 343.326C167.326 343.446 167.272 343.63 167.283 343.804C168.859 359.554 176.957 367.87 193.533 370.75C193.576 370.761 193.609 370.761 193.641 370.761ZM171.261 341.283C174.022 342.413 192.87 350.815 193.054 369.489C177.424 366.587 170.054 358.913 168.478 343.967L171.261 341.283Z" fill="#141414"/>
<path fill-rule="evenodd" clip-rule="evenodd" d="M231.793 333.891C231.957 333.891 232.12 333.815 232.228 333.696C232.337 333.565 232.391 333.402 232.37 333.228C230.054 316.554 222.011 308.185 206.326 306.076C206.152 306.054 205.978 306.109 205.848 306.239L202.598 309.38C202.435 309.533 202.38 309.772 202.446 309.978C202.533 310.207 210.413 333.467 231.793 333.891ZM206.467 307.261C221.348 309.348 228.761 316.978 231.13 332.696C212.478 331.87 204.728 312.75 203.685 309.946L206.467 307.261Z" fill="#141414"/>
<path fill-rule="evenodd" clip-rule="evenodd" d="M223.717 366.609C223.761 366.609 223.815 366.598 223.859 366.587C224.076 366.533 224.25 366.359 224.293 366.13C227.315 350.543 222.304 340.294 217.576 334.446C212.446 328.098 206.685 325.489 206.446 325.38C206.228 325.283 205.978 325.326 205.804 325.489L187.163 343.511C187 343.674 186.946 343.913 187.022 344.13C190.804 354.663 198.783 360.25 210.739 360.717C218.924 361.043 223.239 366.337 223.283 366.38C223.38 366.533 223.543 366.609 223.717 366.609ZM206.315 326.62C207.641 327.283 212.457 329.957 216.696 335.228C221.13 340.739 225.826 350.304 223.348 364.783C221.674 363.152 217.478 359.826 210.761 359.554C199.467 359.109 191.891 353.902 188.228 344.087L206.315 326.62Z" fill="#141414"/>
<path fill-rule="evenodd" clip-rule="evenodd" d="M228.065 391.565C228.207 391.565 228.359 391.511 228.467 391.402C228.696 391.174 228.707 390.815 228.478 390.576L204.424 365.685C204.196 365.457 203.837 365.446 203.598 365.674C203.37 365.902 203.359 366.272 203.587 366.5L227.641 391.391C227.761 391.511 227.913 391.565 228.065 391.565Z" fill="#141414"/>
<path fill-rule="evenodd" clip-rule="evenodd" d="M211.38 385.37C211.522 385.37 211.674 385.315 211.783 385.207C212.011 384.978 212.022 384.62 211.794 384.38L202.359 374.62C202.13 374.391 201.772 374.38 201.533 374.609C201.304 374.826 201.293 375.196 201.522 375.435L210.957 385.196C211.076 385.315 211.228 385.37 211.38 385.37Z" fill="#141414"/>
<path fill-rule="evenodd" clip-rule="evenodd" d="M245.304 356.435C245.446 356.435 245.598 356.38 245.707 356.272C245.935 356.043 245.946 355.674 245.717 355.446L229.5 338.663C229.272 338.435 228.902 338.424 228.674 338.652C228.446 338.88 228.435 339.25 228.663 339.478L244.88 356.261C245 356.38 245.152 356.435 245.304 356.435Z" fill="#141414"/>
<path fill-rule="evenodd" clip-rule="evenodd" d="M239.576 344.141C239.717 344.141 239.87 344.087 239.978 343.978C240.207 343.761 240.217 343.391 239.989 343.152L233.446 336.38C233.217 336.152 232.859 336.141 232.62 336.37C232.391 336.587 232.38 336.957 232.609 337.196L239.152 343.967C239.272 344.076 239.424 344.141 239.576 344.141Z" fill="#141414"/>
<path fill-rule="evenodd" clip-rule="evenodd" d="M252.837 386.717C252.978 386.717 253.13 386.663 253.239 386.554C253.467 386.326 253.478 385.957 253.25 385.728L231.685 363.413C231.457 363.185 231.098 363.174 230.859 363.402C230.63 363.63 230.62 364 230.848 364.228L252.413 386.543C252.533 386.663 252.685 386.717 252.837 386.717Z" fill="#141414"/>
<path fill-rule="evenodd" clip-rule="evenodd" d="M250.033 376.804C250.174 376.804 250.326 376.75 250.435 376.641C250.663 376.424 250.674 376.043 250.446 375.815L239.239 364.217C239.011 363.989 238.652 363.978 238.413 364.207C238.185 364.424 238.174 364.793 238.402 365.022L249.609 376.62C249.728 376.739 249.88 376.804 250.033 376.804Z" fill="#141414"/>
<path fill-rule="evenodd" clip-rule="evenodd" d="M182.641 343.359C182.783 343.359 182.935 343.304 183.043 343.196L206.837 320.196C206.946 320.087 207.011 319.946 207.011 319.783C207.011 319.63 206.957 319.478 206.848 319.37L200.207 312.5C199.978 312.272 199.62 312.261 199.38 312.478L175.587 335.478C175.478 335.587 175.413 335.728 175.413 335.891C175.413 336.043 175.467 336.196 175.576 336.304L182.217 343.174C182.337 343.293 182.489 343.359 182.641 343.359ZM205.609 319.761L182.652 341.946L176.815 335.913L199.772 313.728L205.609 319.761Z" fill="#141414"/>
<path fill-rule="evenodd" clip-rule="evenodd" d="M112.076 273.913C106.674 260.739 105.141 251.891 106.293 239.978C120.011 238.848 127.033 241.065 140.011 246.913L112.076 273.913Z" fill="#141414"/>
<path fill-rule="evenodd" clip-rule="evenodd" d="M116.272 280.913L115.62 279.609L145.576 250.663L146.859 251.359C166.793 262.109 190.478 281.587 206.217 297.88L209.348 301.12L163.87 345.076L160.739 341.837C145 325.533 126.337 301.207 116.272 280.913Z" fill="#141414"/>
<path fill-rule="evenodd" clip-rule="evenodd" d="M140.826 304.772C148.576 312.793 161.359 313.011 169.38 305.261C177.402 297.511 177.62 284.717 169.87 276.706C162.12 268.685 149.326 268.467 141.315 276.217C133.293 283.956 133.076 296.75 140.826 304.772Z" fill="white"/>
<path fill-rule="evenodd" clip-rule="evenodd" d="M113.326 277.804C113.467 277.804 113.62 277.75 113.728 277.641L143.685 248.696C143.913 248.467 143.924 248.109 143.696 247.87C143.467 247.641 143.109 247.63 142.87 247.859L112.913 276.804C112.685 277.033 112.674 277.391 112.902 277.63C113.022 277.75 113.174 277.804 113.326 277.804Z" fill="#141414"/>
<path fill-rule="evenodd" clip-rule="evenodd" d="M162.391 299.457C162.543 299.457 162.685 299.402 162.804 299.293L170.88 291.217C171.109 290.989 171.109 290.62 170.88 290.391L162.804 282.315C162.576 282.087 162.207 282.087 161.978 282.315C161.75 282.543 161.75 282.913 161.978 283.141L169.641 290.804L161.978 298.467C161.75 298.696 161.75 299.065 161.978 299.293C162.098 299.402 162.239 299.457 162.391 299.457Z" fill="#141414"/>
<path fill-rule="evenodd" clip-rule="evenodd" d="M149.163 299.457C149.315 299.457 149.467 299.402 149.576 299.293C149.804 299.065 149.804 298.696 149.576 298.467L141.913 290.804L149.576 283.141C149.804 282.913 149.804 282.543 149.576 282.315C149.348 282.087 148.978 282.087 148.75 282.315L140.674 290.391C140.446 290.62 140.446 290.989 140.674 291.217L148.75 299.293C148.87 299.402 149.022 299.457 149.163 299.457Z" fill="#141414"/>
<path fill-rule="evenodd" clip-rule="evenodd" d="M159.228 298.957C159.315 298.957 159.391 298.946 159.467 298.902C159.761 298.772 159.891 298.424 159.75 298.13L152.783 282.924C152.652 282.63 152.304 282.5 152.011 282.641C151.717 282.772 151.587 283.12 151.728 283.413L158.696 298.62C158.804 298.837 159.011 298.957 159.228 298.957Z" fill="#141414"/>
</g>
<defs>
<linearGradient id="paint0_linear_113_403" x1="308.129" y1="354.943" x2="308.129" y2="197.97" gradientUnits="userSpaceOnUse">
<stop stop-color="#DC1D47"/>
<stop offset="1" stop-color="#E54327"/>
</linearGradient>
<linearGradient id="paint1_linear_113_403" x1="83.9676" y1="167.835" x2="83.9676" y2="158.948" gradientUnits="userSpaceOnUse">
<stop stop-color="#DC1D47"/>
<stop offset="1" stop-color="#E54327"/>
</linearGradient>
<clipPath id="clip0_113_403">
<rect width="400" height="400" fill="white"/>
</clipPath>
</defs>
</svg>
