<svg width="32" height="32" viewBox="0 0 32 32" fill="none" xmlns="http://www.w3.org/2000/svg">
<path d="M31 24.0207H1V26.5104C1 27.8853 2.11461 29 3.48963 29H28.5104C29.8854 29 31 27.8853 31 26.5104V24.0207Z" stroke="#141414" stroke-miterlimit="10" stroke-linecap="round" stroke-linejoin="round"/>
<path d="M26.5809 4.10373H5.41909C4.04406 4.10373 2.92946 5.2184 2.92946 6.59336V21.5311C2.92946 22.9061 4.04406 24.0207 5.41909 24.0207H26.5809C27.9559 24.0207 29.0705 22.9061 29.0705 21.5311V6.59336C29.0705 5.2184 27.9559 4.10373 26.5809 4.10373Z" stroke="#141414" stroke-miterlimit="10" stroke-linecap="round" stroke-linejoin="round"/>
<path d="M23.1577 17.1743V19.0415" stroke="#DC1D47" stroke-miterlimit="10" stroke-linecap="round" stroke-linejoin="round"/>
<path d="M18.1784 17.1743V19.0415" stroke="#DC1D47" stroke-miterlimit="10" stroke-linecap="round" stroke-linejoin="round"/>
<path d="M16 11.5726H25.3361L24.4025 17.1743H16.9336L16 11.5726Z" stroke="#DC1D47" stroke-miterlimit="10" stroke-linecap="round" stroke-linejoin="round"/>
<path d="M13.5104 9.70539H15.6888L16.9336 17.1743" stroke="#DC1D47" stroke-miterlimit="10" stroke-linecap="round" stroke-linejoin="round"/>
<path d="M8.53112 10.9502H11.0207" stroke="#DC1D47" stroke-miterlimit="10" stroke-linecap="round" stroke-linejoin="round"/>
<path d="M6.6639 14.6846H11.0207" stroke="#DC1D47" stroke-miterlimit="10" stroke-linecap="round" stroke-linejoin="round"/>
<path d="M8.53112 18.4191H11.0207" stroke="#DC1D47" stroke-miterlimit="10" stroke-linecap="round" stroke-linejoin="round"/>
</svg>
