<svg width="64" height="64" viewBox="0 0 64 64" fill="none" xmlns="http://www.w3.org/2000/svg">
<path d="M53.14 12.48C53.09 12.2 52.86 11.98 52.58 11.95C52.36 11.91 47.41 11.57 47.41 11.57L43.64 7.8C43.3 7.42 42.55 7.53 42.26 7.61C42.22 7.61 41.51 7.83 40.34 8.21C39.2 4.92 37.19 1.9 33.64 1.9H33.34C32.32 0.61 31.08 0 30.03 0C21.77 0.04 17.84 10.33 16.6 15.59L10.83 17.36C9.06 17.92 9 17.96 8.76 19.65L3.88 57.17L40.35 64L60.11 59.74C60.11 59.7 53.17 12.84 53.14 12.48ZM38.31 8.86C37.39 9.16 36.35 9.47 35.22 9.81V9.12C35.25 7.42 35 5.73 34.47 4.12C36.32 4.41 37.56 6.48 38.31 8.86ZM32.25 4.56C32.85 6.34 33.13 8.21 33.08 10.09V10.43L26.71 12.39C27.95 7.73 30.25 5.43 32.25 4.56ZM29.8 2.27C30.18 2.28 30.54 2.4 30.86 2.61C28.2 3.85 25.39 6.98 24.18 13.24L19.13 14.79C20.55 10.03 23.87 2.26 29.8 2.27Z" fill="#94BF47"/>
<path d="M52.57 11.96C52.35 11.92 47.4 11.58 47.4 11.58L43.63 7.80997C43.49 7.66997 43.3 7.58997 43.1 7.58997L40.35 64L60.11 59.74L53.13 12.52C53.11 12.38 53.04 12.25 52.94 12.15C52.84 12.05 52.71 11.98 52.57 11.96Z" fill="#5F8F3E"/>
<path d="M33.64 22.89L31.19 30.13C29.71 29.41 28.09 29.03 26.44 29C22.59 29 22.4 31.41 22.4 32.02C22.4 35.32 31.04 36.58 31.04 44.35C31.04 50.46 27.15 54.38 21.94 54.38C15.68 54.38 12.47 50.49 12.47 50.49L14.13 44.94C14.13 44.94 17.41 47.77 20.2 47.77C20.53 47.78 20.87 47.73 21.18 47.61C21.49 47.49 21.78 47.31 22.02 47.08C22.26 46.85 22.45 46.57 22.58 46.26C22.71 45.95 22.77 45.62 22.77 45.29C22.77 40.95 15.68 40.76 15.68 33.67C15.68 27.71 19.98 21.9 28.61 21.9C32.01 21.95 33.63 22.89 33.64 22.89Z" fill="white"/>
</svg>
