<svg width="64" height="64" viewBox="0 0 64 64" fill="none" xmlns="http://www.w3.org/2000/svg">
<g clip-path="url(#clip0_54_718)">
<path fill-rule="evenodd" clip-rule="evenodd" d="M6.4 34.1299H12.8V40.5299C12.8 44.0599 9.94 46.9299 6.4 46.9299C2.86 46.9299 0 44.0599 0 40.5299C0 36.9999 2.86 34.1399 6.4 34.1299Z" fill="#E0225B"/>
<path fill-rule="evenodd" clip-rule="evenodd" d="M29.87 23.4699C29.87 26.9999 27.01 29.8699 23.47 29.8699H6.40003C2.86003 29.8699 -0.00997395 26.9999 2.60532e-05 23.4699C2.60532e-05 19.9399 2.86003 17.0699 6.40003 17.0699H23.47C27 17.0699 29.87 19.9299 29.87 23.4699Z" fill="#39C5EF"/>
<path fill-rule="evenodd" clip-rule="evenodd" d="M29.87 6.4V12.8H23.47C19.93 12.8 17.07 9.93 17.07 6.4C17.07 2.87 19.93 0 23.47 0C27.01 0.01 29.87 2.87 29.87 6.4Z" fill="#39C5EF"/>
<path fill-rule="evenodd" clip-rule="evenodd" d="M29.87 40.5399V57.5999C29.87 61.1299 27.01 63.9999 23.47 63.9999C19.93 63.9999 17.06 61.1299 17.07 57.5999V40.5299C17.06 36.9999 19.93 34.1399 23.47 34.1399C27.01 34.1399 29.88 37.0099 29.87 40.5399Z" fill="#E0225B"/>
<path fill-rule="evenodd" clip-rule="evenodd" d="M46.93 57.5999C46.93 61.1299 44.07 64 40.53 64C36.99 63.99 34.13 61.1299 34.13 57.5999V51.2H40.53C44.07 51.2 46.93 54.0699 46.93 57.5999Z" fill="#EBB22D"/>
<path fill-rule="evenodd" clip-rule="evenodd" d="M34.13 23.47V6.4C34.13 2.87 36.99 0 40.53 0C44.07 0.01 46.93 2.87 46.93 6.4V23.47C46.94 27 44.07 29.86 40.53 29.87C36.99 29.87 34.12 27 34.13 23.47Z" fill="#2FB77E"/>
<path fill-rule="evenodd" clip-rule="evenodd" d="M57.6 29.8699H51.2V23.4699C51.2 19.9399 54.06 17.0699 57.6 17.0699C61.14 17.0699 64 19.9399 64 23.4699C64 26.9999 61.14 29.8599 57.6 29.8699Z" fill="#2FB77E"/>
<path fill-rule="evenodd" clip-rule="evenodd" d="M64 40.5299C64 44.0599 61.14 46.9299 57.6 46.9299H40.53C36.99 46.9299 34.13 44.0599 34.13 40.5299C34.13 36.9999 36.99 34.1299 40.53 34.1299H57.6C61.14 34.1299 64.01 36.9999 64 40.5299Z" fill="#EBB22D"/>
</g>
<defs>
<clipPath id="clip0_54_718">
<rect width="64" height="64" fill="white"/>
</clipPath>
</defs>
</svg>
