<svg width="64" height="64" viewBox="0 0 64 64" fill="none" xmlns="http://www.w3.org/2000/svg">
<g clip-path="url(#clip0_54_727)">
<path d="M58.95 49.5C55.47 49.41 52.77 49.7701 50.51 50.7401C49.86 51.0101 48.81 51.01 48.73 51.85C49.08 52.2 49.12 52.78 49.43 53.2701C49.95 54.16 50.87 55.35 51.69 55.98C52.6 56.69 53.52 57.4001 54.48 58.0201C56.18 59.0801 58.09 59.7001 59.75 60.7701C60.71 61.39 61.66 62.19 62.62 62.85C63.09 63.2 63.39 63.78 64 64V63.87C63.7 63.47 63.61 62.89 63.3 62.4501C62.87 62 62.43 61.6101 62 61.16C60.74 59.43 59.17 57.9201 57.47 56.68C56.08 55.7001 53.03 54.37 52.46 52.73C52.46 52.73 52.42 52.69 52.37 52.64C53.33 52.55 54.46 52.2001 55.37 51.93C56.85 51.53 58.2 51.6201 59.72 51.2201C60.42 51.0401 61.11 50.82 61.81 50.6V50.2001C61.03 49.4001 60.46 48.34 59.63 47.5801C57.41 45.6301 54.97 43.7201 52.45 42.1301C51.1 41.2401 49.36 40.67 47.92 39.91C47.4 39.64 46.53 39.51 46.22 39.07C45.44 38.09 45 36.8101 44.44 35.66C43.18 33.2201 41.96 30.52 40.87 27.94C40.09 26.21 39.61 24.48 38.65 22.88C34.17 15.34 29.29 10.77 21.8 6.30005C20.19 5.37005 18.27 4.97005 16.23 4.48005C15.14 4.44005 14.05 4.35005 12.97 4.30005C12.27 3.99005 11.58 3.15005 10.97 2.75005C8.50002 1.17005 2.10002 -2.28995 0.270023 2.27005C-0.899977 5.16005 2.02002 7.99005 3.02002 9.46005C3.76002 10.48 4.72002 11.63 5.24002 12.79C5.54002 13.54 5.63002 14.34 5.94002 15.14C6.64002 17.09 7.29002 19.26 8.20002 21.08C8.68002 22.01 9.20002 22.99 9.81002 23.83C10.16 24.32 10.77 24.54 10.9 25.34C10.29 26.23 10.25 27.56 9.90002 28.67C8.33002 33.68 8.94002 39.89 11.16 43.57C11.86 44.68 13.51 47.12 15.73 46.19C17.69 45.39 17.25 42.8601 17.82 40.6501C17.95 40.1201 17.86 39.76 18.12 39.41V39.5C18.73 40.7401 19.34 41.94 19.9 43.18C21.25 45.3501 23.6 47.6101 25.56 49.12C26.6 49.92 27.43 51.29 28.74 51.78V51.6501H28.65C28.39 51.25 28 51.07 27.65 50.76C26.87 49.96 26 48.99 25.39 48.1C23.56 45.62 21.95 42.87 20.51 40.03C19.81 38.66 19.2 37.1501 18.64 35.7701C18.38 35.2401 18.38 34.44 17.94 34.17C17.29 35.15 16.33 35.99 15.85 37.19C15.02 39.1 14.94 41.4501 14.63 43.89C14.46 43.93 14.54 43.89 14.46 43.98C13.07 43.62 12.59 42.16 12.07 40.92C10.76 37.77 10.55 32.72 11.68 29.08C11.98 28.15 13.29 25.22 12.77 24.34C12.51 23.5 11.64 23.01 11.16 22.34C10.59 21.5 9.98002 20.43 9.59002 19.5C8.55002 17.02 8.02002 14.27 6.89002 11.78C6.37002 10.63 5.45002 9.43005 4.71002 8.37005C3.88002 7.17005 2.97002 6.33005 2.32002 4.91005C2.10002 4.40005 1.80002 3.60005 2.15002 3.07005C2.23002 2.72005 2.41002 2.58005 2.76002 2.50005C3.32002 2.01005 4.93002 2.63005 5.50002 2.90005C7.11002 3.56005 8.46002 4.19005 9.81002 5.12005C10.42 5.56005 11.07 6.41005 11.86 6.63005H12.77C14.16 6.94005 15.73 6.72005 17.04 7.12005C19.35 7.87005 21.44 8.98005 23.31 10.18C29.01 13.86 33.71 19.09 36.89 25.35C37.41 26.37 37.63 27.3 38.11 28.37C39.02 30.54 40.16 32.76 41.07 34.89C41.98 36.97 42.85 39.1001 44.16 40.8301C44.81 41.7601 47.42 42.25 48.6 42.7401C49.47 43.1401 50.82 43.49 51.6 43.98C53.08 44.91 54.56 45.98 55.95 47C56.64 47.5 58.82 48.6101 58.95 49.5Z" fill="#02556C"/>
<path d="M14.55 10.97C13.81 10.97 13.29 11.06 12.77 11.19V11.28H12.86C13.21 11.99 13.82 12.48 14.25 13.1C14.6 13.81 14.9 14.52 15.25 15.23C15.29 15.19 15.34 15.14 15.34 15.14C15.95 14.7 16.25 13.99 16.25 12.92C15.99 12.61 15.95 12.3 15.73 11.99C15.47 11.54 14.9 11.32 14.55 10.97Z" fill="#02556C"/>
</g>
<defs>
<clipPath id="clip0_54_727">
<rect width="64" height="64" fill="white"/>
</clipPath>
</defs>
</svg>
