<svg width="64" height="64" viewBox="0 0 64 64" fill="none" xmlns="http://www.w3.org/2000/svg">
<g clip-path="url(#clip0_54_730)">
<path d="M32 64C49.67 64 64 49.67 64 32C64 14.33 49.67 0 32 0C14.33 0 0 14.33 0 32C0 49.67 14.33 64 32 64Z" fill="#4E4E4F"/>
<path d="M19 22.42L45.69 13.94C45.69 13.94 47.58 12.95 47.13 14.79L47.2 22.96C47.2 22.96 47.53 24.16 45.89 24.45L35.06 27.85L19 22.42Z" fill="#F89923"/>
<path d="M18.99 22.42C18.99 22.42 17.94 22.67 18.25 24.46L18.19 32.34C18.19 32.34 18.1 33.33 19.98 33.73L46.43 42.21C46.43 42.21 47.28 42.56 47.22 41.46V32.73C47.22 32.73 47.47 31.83 45.83 31.24L35.04 27.85L18.99 22.42Z" fill="#F89923"/>
<path d="M30.66 37.1499L19.4 40.5899C19.4 40.5899 18.04 40.6299 18.2 43.1799C18.36 45.7199 18.2 50.8099 18.2 50.8099C18.2 50.8099 18.31 51.7599 19.61 51.2099L46.3 42.7299C46.3 42.7299 47.25 42.4799 46.45 42.2199C45.66 41.9499 30.66 37.1499 30.66 37.1499Z" fill="url(#paint0_linear_54_730)"/>
</g>
<defs>
<linearGradient id="paint0_linear_54_730" x1="22.7289" y1="45.1528" x2="49.6984" y2="35.8154" gradientUnits="userSpaceOnUse">
<stop offset="0.23" stop-color="#F89925"/>
<stop offset="1" stop-color="#C1792A"/>
</linearGradient>
<clipPath id="clip0_54_730">
<rect width="64" height="64" fill="white"/>
</clipPath>
</defs>
</svg>
