<svg width="600" height="400" viewBox="0 0 600 400" fill="none" xmlns="http://www.w3.org/2000/svg">
<path d="M540.112 0.482635H67.5253C61.6176 0.482635 56.8284 5.27177 56.8284 11.1795V365.14C56.8284 371.048 61.6176 375.837 67.5253 375.837H540.112C546.02 375.837 550.809 371.048 550.809 365.14V11.1795C550.809 5.27177 546.02 0.482635 540.112 0.482635Z" fill="white"/>
<path d="M540.112 376.318H67.5253C64.5635 376.315 61.7236 375.138 59.628 373.045C57.5325 370.952 56.3522 368.113 56.3458 365.151V11.1795C56.3487 8.21539 57.5275 5.37352 59.6234 3.27758C61.7193 1.18165 64.5612 0.00289096 67.5253 0H540.112C543.076 0.00346899 545.917 1.18249 548.013 3.27836C550.108 5.37423 551.287 8.21576 551.29 11.1795V365.151C551.283 368.113 550.103 370.951 548.008 373.044C545.913 375.137 543.074 376.314 540.112 376.318ZM67.5253 0.963109C64.8166 0.966 62.2197 2.04329 60.3044 3.95861C58.3891 5.87392 57.3118 8.47082 57.3089 11.1795V365.151C57.3118 367.86 58.3892 370.456 60.3045 372.371C62.2199 374.286 64.8168 375.363 67.5253 375.365H540.112C542.819 375.36 545.413 374.282 547.326 372.367C549.239 370.453 550.315 367.858 550.318 365.151V11.1795C550.315 8.47102 549.239 5.87412 547.324 3.95874C545.409 2.04336 542.812 0.966 540.103 0.963109H67.5253Z" fill="#141414"/>
<path d="M76.9139 29.151C81.2175 29.151 84.7062 25.6652 84.7062 21.3653C84.7062 17.0654 81.2175 13.5796 76.9139 13.5796C72.6104 13.5796 69.1217 17.0654 69.1217 21.3653C69.1217 25.6652 72.6104 29.151 76.9139 29.151Z" fill="#141414"/>
<path d="M99.6573 29.151C103.961 29.151 107.45 25.6652 107.45 21.3653C107.45 17.0654 103.961 13.5796 99.6573 13.5796C95.3538 13.5796 91.8651 17.0654 91.8651 21.3653C91.8651 25.6652 95.3538 29.151 99.6573 29.151Z" fill="#141414"/>
<path d="M122.398 29.151C126.702 29.151 130.191 25.6652 130.191 21.3653C130.191 17.0654 126.702 13.5796 122.398 13.5796C118.095 13.5796 114.606 17.0654 114.606 21.3653C114.606 25.6652 118.095 29.151 122.398 29.151Z" fill="#141414"/>
<path d="M475.119 25.5911H208.971C207.664 25.5911 206.41 25.0718 205.486 24.1474C204.561 23.2231 204.042 21.9693 204.042 20.662C204.042 19.3548 204.561 18.101 205.486 17.1766C206.41 16.2523 207.664 15.7329 208.971 15.7329H475.125C476.433 15.7329 477.686 16.2523 478.611 17.1766C479.535 18.101 480.054 19.3548 480.054 20.662C480.054 21.9693 479.535 23.2231 478.611 24.1474C477.686 25.0718 476.433 25.5911 475.125 25.5911H475.119Z" fill="white"/>
<path d="M475.119 26.0738H208.971C207.536 26.0738 206.159 25.5036 205.144 24.4887C204.13 23.4738 203.559 22.0973 203.559 20.6621C203.559 19.2268 204.13 17.8503 205.144 16.8354C206.159 15.8205 207.536 15.2503 208.971 15.2503H475.125C476.561 15.2503 477.937 15.8205 478.952 16.8354C479.967 17.8503 480.537 19.2268 480.537 20.6621C480.537 22.0973 479.967 23.4738 478.952 24.4887C477.937 25.5036 476.561 26.0738 475.125 26.0738H475.119ZM208.971 16.2134C207.791 16.2134 206.66 16.6821 205.825 17.5164C204.991 18.3507 204.523 19.4822 204.523 20.6621C204.523 21.8419 204.991 22.9734 205.825 23.8077C206.66 24.642 207.791 25.1107 208.971 25.1107H475.125C476.305 25.1107 477.437 24.642 478.271 23.8077C479.105 22.9734 479.574 21.8419 479.574 20.6621C479.574 19.4822 479.105 18.3507 478.271 17.5164C477.437 16.6821 476.305 16.2134 475.125 16.2134H208.971Z" fill="#141414"/>
<path d="M542.377 364.372H65.2693C65.1417 364.372 65.0192 364.321 64.9288 364.231C64.8383 364.141 64.7872 364.019 64.7866 363.891V41.3088C64.7866 41.2454 64.7991 41.1827 64.8234 41.1241C64.8476 41.0656 64.8832 41.0123 64.928 40.9675C64.9728 40.9227 65.026 40.8872 65.0846 40.8629C65.1431 40.8387 65.2059 40.8262 65.2693 40.8262H542.377C542.505 40.8262 542.628 40.877 542.718 40.9675C542.809 41.058 542.86 41.1808 542.86 41.3088V363.891C542.859 364.019 542.808 364.141 542.717 364.231C542.627 364.321 542.505 364.372 542.377 364.372ZM65.7388 363.404H541.896V41.7893H65.7388V363.404Z" fill="#141414"/>
<path d="M148.471 79.9234L0.483091 105.459L17.3323 203.107L165.32 177.571L148.471 79.9234Z" fill="white"/>
<path d="M17.3672 203.576C17.2539 203.576 17.1443 203.536 17.0576 203.463C16.971 203.389 16.9128 203.288 16.8933 203.177L0.00724401 105.536C-0.00372051 105.473 -0.00222542 105.409 0.0116428 105.347C0.025511 105.286 0.0514771 105.227 0.088048 105.175C0.162499 105.072 0.27458 105.001 0.400347 104.979L148.385 79.427C148.511 79.4054 148.64 79.4347 148.745 79.5084C148.849 79.5821 148.92 79.6942 148.942 79.8201L165.828 177.459C165.839 177.521 165.837 177.585 165.823 177.647C165.81 177.709 165.784 177.767 165.747 177.819C165.711 177.871 165.664 177.915 165.611 177.948C165.557 177.982 165.497 178.005 165.435 178.016L17.4415 203.57C17.4169 203.574 17.3921 203.576 17.3672 203.576ZM1.03805 105.846L17.7603 202.537L164.797 177.153L148.075 80.4621L1.03805 105.846Z" fill="#141414"/>
<path d="M148.465 79.9263L0.477119 105.462L9.51907 157.864L157.507 132.328L148.465 79.9263Z" fill="white"/>
<path d="M9.54441 158.334C9.43081 158.334 9.32091 158.294 9.23389 158.221C9.14688 158.148 9.08828 158.046 9.06832 157.934L0.00724401 105.536C-0.00372051 105.473 -0.00222542 105.409 0.0116428 105.347C0.025511 105.286 0.0514771 105.227 0.0880479 105.175C0.162499 105.072 0.27458 105.001 0.400347 104.979L148.385 79.427C148.511 79.4054 148.64 79.4347 148.745 79.5084C148.849 79.5821 148.92 79.6942 148.942 79.8201L158.003 132.217C158.014 132.279 158.012 132.343 157.998 132.405C157.985 132.467 157.959 132.525 157.922 132.577C157.886 132.629 157.839 132.673 157.786 132.706C157.732 132.74 157.672 132.763 157.61 132.774L9.62522 158.334C9.59838 158.337 9.57125 158.337 9.54441 158.334ZM1.03805 105.846L9.93752 157.295L156.972 131.909L148.075 80.4599L1.03805 105.846Z" fill="#141414"/>
<path d="M17.3672 203.576C17.2539 203.576 17.1443 203.536 17.0576 203.463C16.971 203.389 16.9128 203.288 16.8933 203.177L0.00724401 105.536C-0.00372051 105.473 -0.00222542 105.409 0.0116428 105.347C0.025511 105.286 0.0514771 105.227 0.088048 105.175C0.162499 105.072 0.27458 105.001 0.400347 104.979L75.0642 92.0937C75.1898 92.0721 75.3189 92.1011 75.4232 92.1743C75.5276 92.2476 75.5987 92.3591 75.6211 92.4846L92.5071 190.125C92.5181 190.188 92.5166 190.252 92.5028 190.314C92.4889 190.375 92.463 190.434 92.4264 190.486C92.3899 190.537 92.3435 190.581 92.2899 190.615C92.2363 190.649 92.1765 190.672 92.114 190.682L17.4502 203.567C17.4228 203.573 17.3951 203.575 17.3672 203.576ZM1.03805 105.846L17.7603 202.537L91.4763 189.811L74.7519 93.1202L1.03805 105.846Z" fill="#141414"/>
<path d="M148.459 79.9277L0.471094 105.463L2.00922 114.377L149.997 88.8418L148.459 79.9277Z" fill="white"/>
<path d="M2.023 114.85C1.90965 114.85 1.80005 114.81 1.7134 114.736C1.62675 114.663 1.56858 114.562 1.54909 114.45L0.00724401 105.536C-0.00372051 105.473 -0.00222542 105.409 0.0116428 105.347C0.025511 105.286 0.0514771 105.227 0.088048 105.175C0.162499 105.072 0.27458 105.001 0.400347 104.979L148.385 79.427C148.511 79.4054 148.64 79.4343 148.744 79.5076C148.848 79.5808 148.919 79.6924 148.942 79.8179L150.484 88.7326C150.505 88.8587 150.476 88.988 150.403 89.093C150.366 89.1447 150.32 89.1887 150.266 89.2224C150.213 89.2562 150.153 89.279 150.091 89.2895L2.10599 114.841C2.07874 114.847 2.0509 114.85 2.023 114.85ZM1.03805 105.846L2.41611 113.811L149.451 88.4269L148.075 80.4621L1.03805 105.846Z" fill="#141414"/>
<path d="M426.92 65.3101H344.322V126.724H426.92V65.3101Z" fill="#141414"/>
<path d="M303.972 184.781C303.908 184.782 303.846 184.769 303.787 184.745C303.729 184.721 303.676 184.686 303.631 184.641C303.587 184.597 303.551 184.544 303.527 184.485C303.503 184.427 303.491 184.364 303.491 184.301V139.133C303.491 139.07 303.503 139.007 303.527 138.949C303.551 138.89 303.586 138.837 303.631 138.792C303.676 138.747 303.729 138.712 303.787 138.687C303.846 138.663 303.908 138.65 303.972 138.65H467.279C467.342 138.65 467.404 138.663 467.463 138.687C467.521 138.712 467.574 138.747 467.619 138.792C467.664 138.837 467.699 138.89 467.723 138.949C467.747 139.007 467.759 139.07 467.759 139.133V181.901C467.763 181.967 467.754 182.033 467.732 182.095C467.71 182.157 467.675 182.215 467.63 182.263C467.585 182.311 467.53 182.35 467.47 182.376C467.409 182.402 467.344 182.416 467.277 182.416C467.211 182.416 467.146 182.402 467.085 182.376C467.025 182.35 466.97 182.311 466.925 182.263C466.88 182.215 466.845 182.157 466.823 182.095C466.801 182.033 466.791 181.967 466.796 181.901V139.614H304.45V184.301C304.45 184.428 304.4 184.55 304.31 184.64C304.22 184.73 304.099 184.781 303.972 184.781Z" fill="#141414"/>
<path d="M385.124 139.201C384.996 139.201 384.874 139.15 384.783 139.06C384.693 138.97 384.642 138.848 384.641 138.72V126.724C384.637 126.658 384.646 126.592 384.668 126.53C384.69 126.467 384.725 126.41 384.77 126.362C384.815 126.314 384.87 126.275 384.931 126.249C384.991 126.223 385.057 126.209 385.123 126.209C385.189 126.209 385.254 126.223 385.315 126.249C385.376 126.275 385.43 126.314 385.475 126.362C385.521 126.41 385.555 126.467 385.577 126.53C385.6 126.592 385.609 126.658 385.604 126.724V138.72C385.604 138.783 385.592 138.846 385.568 138.904C385.544 138.963 385.508 139.015 385.464 139.06C385.419 139.105 385.366 139.14 385.308 139.164C385.249 139.188 385.187 139.201 385.124 139.201Z" fill="#141414"/>
<path d="M345.848 152.199H263.25V213.613H345.848V152.199Z" fill="white"/>
<path d="M345.848 214.096H263.25C263.187 214.096 263.124 214.084 263.066 214.06C263.007 214.036 262.954 214.001 262.909 213.956C262.864 213.912 262.829 213.858 262.804 213.8C262.78 213.742 262.768 213.679 262.768 213.616V152.202C262.768 152.074 262.818 151.951 262.909 151.86C262.999 151.77 263.122 151.719 263.25 151.719H345.848C345.976 151.719 346.099 151.77 346.19 151.86C346.28 151.951 346.331 152.074 346.331 152.202V213.616C346.331 213.679 346.318 213.742 346.294 213.8C346.27 213.858 346.234 213.912 346.189 213.956C346.145 214.001 346.091 214.036 346.033 214.06C345.974 214.084 345.912 214.096 345.848 214.096ZM263.733 213.133H345.37V152.682H263.731L263.733 213.133Z" fill="#141414"/>
<path d="M507.991 152.199H425.393V213.613H507.991V152.199Z" fill="#141414"/>
<path d="M209.626 273.147C209.498 273.147 209.376 273.096 209.285 273.006C209.195 272.915 209.144 272.793 209.144 272.665V227.497C209.144 227.369 209.195 227.246 209.285 227.155C209.376 227.065 209.498 227.014 209.626 227.014H336.075C336.203 227.015 336.325 227.066 336.415 227.156C336.505 227.247 336.556 227.369 336.556 227.497V270.267C336.547 270.389 336.493 270.503 336.404 270.587C336.314 270.67 336.197 270.717 336.074 270.717C335.952 270.717 335.834 270.67 335.745 270.587C335.655 270.503 335.601 270.389 335.593 270.267V227.979H210.111V272.665C210.111 272.728 210.099 272.791 210.074 272.85C210.05 272.908 210.014 272.962 209.969 273.007C209.924 273.051 209.871 273.087 209.812 273.111C209.753 273.135 209.69 273.147 209.626 273.147Z" fill="#141414"/>
<path d="M311.423 227.564C311.36 227.565 311.297 227.552 311.239 227.528C311.18 227.504 311.127 227.469 311.082 227.424C311.037 227.38 311.002 227.327 310.977 227.268C310.953 227.21 310.941 227.147 310.941 227.084V215.088C310.949 214.966 311.003 214.851 311.092 214.768C311.182 214.684 311.3 214.637 311.422 214.637C311.544 214.637 311.662 214.684 311.752 214.768C311.841 214.851 311.895 214.966 311.904 215.088V227.084C311.904 227.147 311.892 227.21 311.868 227.268C311.844 227.327 311.808 227.38 311.764 227.424C311.719 227.469 311.666 227.504 311.607 227.528C311.549 227.552 311.486 227.565 311.423 227.564Z" fill="#141414"/>
<path d="M251.512 240.565H168.914V301.979H251.512V240.565Z" fill="#141414"/>
<path d="M376.803 240.565H294.205V301.979H376.803V240.565Z" fill="white"/>
<path d="M376.803 302.473H294.205C294.077 302.473 293.954 302.422 293.864 302.331C293.773 302.241 293.722 302.118 293.722 301.99V240.565C293.722 240.437 293.773 240.314 293.864 240.224C293.954 240.133 294.077 240.083 294.205 240.083H376.803C376.866 240.083 376.929 240.095 376.988 240.119C377.046 240.144 377.099 240.179 377.144 240.224C377.188 240.269 377.224 240.322 377.248 240.381C377.272 240.439 377.284 240.502 377.284 240.565V301.979C377.285 302.043 377.274 302.107 377.251 302.167C377.227 302.227 377.192 302.281 377.148 302.327C377.103 302.373 377.049 302.41 376.99 302.435C376.931 302.46 376.867 302.473 376.803 302.473ZM294.688 301.51H376.323V241.046H294.688V301.51Z" fill="#141414"/>
<path d="M557.188 273.147C557.061 273.147 556.938 273.095 556.848 273.005C556.758 272.915 556.708 272.792 556.708 272.665V227.979H438.586V270.267C438.586 270.395 438.535 270.517 438.445 270.608C438.354 270.698 438.232 270.749 438.104 270.749C437.976 270.749 437.853 270.698 437.762 270.608C437.672 270.517 437.621 270.395 437.621 270.267V227.497C437.621 227.369 437.672 227.246 437.762 227.155C437.853 227.065 437.976 227.014 438.104 227.014H557.188C557.316 227.014 557.439 227.065 557.53 227.155C557.62 227.246 557.671 227.369 557.671 227.497V272.665C557.671 272.793 557.62 272.915 557.53 273.006C557.439 273.096 557.316 273.147 557.188 273.147Z" fill="#141414"/>
<path d="M462.767 227.564C462.703 227.565 462.641 227.552 462.582 227.528C462.524 227.504 462.471 227.469 462.426 227.424C462.382 227.38 462.346 227.327 462.322 227.268C462.298 227.21 462.286 227.147 462.286 227.084V215.088C462.294 214.966 462.349 214.851 462.438 214.768C462.527 214.684 462.645 214.637 462.768 214.637C462.89 214.637 463.008 214.684 463.097 214.768C463.187 214.851 463.241 214.966 463.249 215.088V227.084C463.249 227.147 463.237 227.21 463.212 227.268C463.188 227.327 463.153 227.38 463.108 227.424C463.063 227.469 463.01 227.504 462.951 227.528C462.893 227.552 462.83 227.565 462.767 227.564Z" fill="#141414"/>
<path d="M516.784 301.979H599.382V240.565H516.784V301.979Z" fill="white"/>
<path d="M599.382 302.473H516.781C516.718 302.473 516.655 302.46 516.597 302.436C516.539 302.412 516.486 302.376 516.441 302.331C516.396 302.286 516.361 302.233 516.337 302.175C516.313 302.116 516.301 302.053 516.301 301.99V240.565C516.301 240.502 516.313 240.439 516.337 240.381C516.361 240.322 516.396 240.269 516.441 240.224C516.486 240.179 516.539 240.144 516.597 240.119C516.655 240.095 516.718 240.083 516.781 240.083H599.382C599.445 240.083 599.508 240.095 599.566 240.119C599.624 240.144 599.677 240.179 599.722 240.224C599.767 240.269 599.802 240.322 599.826 240.381C599.85 240.439 599.862 240.502 599.862 240.565V301.979C599.864 302.043 599.853 302.107 599.829 302.167C599.806 302.227 599.771 302.281 599.726 302.327C599.681 302.373 599.628 302.41 599.569 302.435C599.509 302.46 599.446 302.473 599.382 302.473ZM517.266 301.51H598.901V241.046H517.266V301.51Z" fill="#141414"/>
<path d="M397.387 301.979H479.985V240.565H397.387V301.979Z" fill="white"/>
<path d="M479.995 302.473H397.387C397.259 302.473 397.136 302.422 397.045 302.331C396.955 302.241 396.904 302.118 396.904 301.99V240.565C396.904 240.437 396.955 240.314 397.045 240.224C397.136 240.133 397.259 240.083 397.387 240.083H479.995C480.123 240.083 480.246 240.133 480.337 240.224C480.427 240.314 480.478 240.437 480.478 240.565V301.979C480.48 302.044 480.468 302.107 480.445 302.167C480.421 302.227 480.386 302.282 480.341 302.328C480.296 302.374 480.242 302.41 480.183 302.435C480.123 302.46 480.06 302.473 479.995 302.473ZM397.88 301.51H479.515V241.046H397.88V301.51Z" fill="#141414"/>
<path d="M352.473 168.583L228.255 84.259L172.587 166.264L296.805 250.588L352.473 168.583Z" fill="white"/>
<path d="M296.789 251.041C296.692 251.042 296.598 251.013 296.518 250.958L172.297 166.633C172.191 166.561 172.118 166.45 172.094 166.324C172.07 166.199 172.096 166.069 172.168 165.963L227.899 84.0001C227.972 83.8949 228.083 83.8226 228.208 83.7988C228.334 83.7751 228.464 83.8019 228.57 83.8734L352.791 168.192C352.843 168.228 352.888 168.273 352.923 168.326C352.958 168.379 352.982 168.439 352.994 168.501C353.006 168.563 353.006 168.627 352.993 168.689C352.98 168.751 352.955 168.81 352.92 168.863L297.186 250.825C297.143 250.891 297.084 250.945 297.014 250.983C296.945 251.021 296.868 251.041 296.789 251.041ZM173.236 166.113L296.662 249.891L351.852 168.725L228.425 84.9544L173.236 166.113Z" fill="#141414"/>
<path d="M290.232 126.331L228.256 84.2603L172.588 166.265L234.564 208.337L290.232 126.331Z" fill="white"/>
<path d="M234.545 208.783C234.448 208.782 234.354 208.753 234.274 208.7L172.297 166.633C172.191 166.561 172.118 166.45 172.094 166.324C172.07 166.199 172.096 166.069 172.168 165.963L227.899 84.0001C227.972 83.8949 228.083 83.8226 228.208 83.7988C228.334 83.7751 228.464 83.8019 228.57 83.8734L290.547 125.942C290.6 125.978 290.645 126.023 290.679 126.076C290.714 126.129 290.738 126.189 290.75 126.251C290.762 126.313 290.761 126.377 290.748 126.44C290.735 126.502 290.71 126.56 290.674 126.613L234.942 208.573C234.898 208.638 234.839 208.691 234.77 208.727C234.7 208.764 234.623 208.783 234.545 208.783ZM173.236 166.104L234.416 207.632L289.606 126.466L228.425 84.9544L173.236 166.104Z" fill="#141414"/>
<path d="M233.301 165.793L191.937 137.714L172.567 166.249L213.931 194.328L233.301 165.793Z" fill="white"/>
<path d="M213.931 194.806C213.834 194.806 213.74 194.777 213.66 194.723L172.297 166.633C172.191 166.561 172.118 166.45 172.094 166.324C172.07 166.199 172.096 166.069 172.168 165.963L191.561 137.443C191.597 137.39 191.642 137.345 191.695 137.31C191.748 137.276 191.807 137.251 191.869 137.239C191.932 137.227 191.996 137.228 192.058 137.241C192.12 137.253 192.179 137.278 192.231 137.314L233.595 165.393C233.647 165.428 233.692 165.473 233.727 165.526C233.762 165.579 233.786 165.638 233.798 165.7C233.809 165.762 233.809 165.826 233.796 165.888C233.783 165.95 233.757 166.009 233.722 166.061L214.328 194.587C214.285 194.654 214.226 194.708 214.157 194.747C214.088 194.785 214.01 194.805 213.931 194.806ZM173.236 166.12L213.804 193.655L232.654 165.932L192.087 138.388L173.236 166.12Z" fill="#141414"/>
<path d="M274.712 193.906L233.348 165.827L213.978 194.362L255.342 222.441L274.712 193.906Z" fill="white"/>
<path d="M255.342 222.908C255.246 222.909 255.153 222.88 255.074 222.825L213.708 194.749C213.656 194.713 213.611 194.668 213.576 194.615C213.541 194.562 213.517 194.502 213.505 194.44C213.493 194.378 213.494 194.314 213.507 194.251C213.52 194.189 213.545 194.131 213.581 194.078L232.975 165.558C233.047 165.453 233.157 165.381 233.283 165.357C233.408 165.334 233.537 165.36 233.643 165.432L275.006 193.508C275.059 193.544 275.104 193.589 275.139 193.642C275.174 193.695 275.198 193.755 275.21 193.817C275.222 193.879 275.221 193.943 275.208 194.005C275.196 194.067 275.171 194.126 275.135 194.179L255.742 222.699C255.698 222.764 255.638 222.817 255.568 222.853C255.499 222.89 255.421 222.909 255.342 222.908ZM214.649 194.222L255.216 221.759L274.067 194.024L233.501 166.489L214.649 194.222Z" fill="#141414"/>
<path d="M316.123 222.016L274.759 193.936L255.389 222.471L296.753 250.55L316.123 222.016Z" fill="white"/>
<path d="M296.765 251.02C296.668 251.02 296.574 250.991 296.494 250.937L255.13 222.858C255.078 222.823 255.033 222.777 254.998 222.725C254.963 222.672 254.939 222.613 254.927 222.551C254.915 222.488 254.916 222.425 254.928 222.363C254.941 222.301 254.966 222.242 255.002 222.19L274.395 193.67C274.467 193.564 274.578 193.492 274.704 193.467C274.829 193.443 274.959 193.47 275.065 193.541L316.42 221.62C316.472 221.655 316.517 221.7 316.552 221.753C316.587 221.806 316.611 221.865 316.623 221.927C316.635 221.99 316.634 222.053 316.621 222.115C316.608 222.177 316.583 222.236 316.547 222.288L297.153 250.808C297.111 250.872 297.053 250.924 296.985 250.961C296.917 250.998 296.842 251.018 296.765 251.02ZM256.061 222.323L296.629 249.86L315.479 222.137L274.912 194.609L256.061 222.323Z" fill="#141414"/>
<path d="M352.504 168.605L228.285 84.2813L223.203 91.7674L347.422 176.091L352.504 168.605Z" fill="white"/>
<path d="M347.432 176.563C347.336 176.562 347.243 176.534 347.163 176.48L222.948 92.1614C222.896 92.126 222.851 92.0807 222.816 92.0278C222.781 91.975 222.757 91.9158 222.745 91.8537C222.734 91.7915 222.734 91.7276 222.747 91.6658C222.76 91.6039 222.786 91.5452 222.822 91.4931L227.908 84.0088C227.98 83.9036 228.092 83.8313 228.217 83.8076C228.343 83.7838 228.472 83.8106 228.578 83.8821L352.8 168.201C352.852 168.237 352.897 168.282 352.932 168.335C352.967 168.388 352.991 168.447 353.003 168.51C353.015 168.572 353.015 168.636 353.002 168.698C352.989 168.76 352.964 168.819 352.929 168.872L347.84 176.354C347.795 176.42 347.734 176.474 347.662 176.51C347.591 176.547 347.512 176.565 347.432 176.563ZM223.881 91.6329L347.305 175.412L351.852 168.725L228.425 84.9544L223.881 91.6329Z" fill="#141414"/>
<path d="M325.226 208.711L201.008 124.387L192.045 137.59L316.264 221.914L325.226 208.711Z" fill="white"/>
<path d="M316.274 222.386C316.177 222.386 316.083 222.357 316.003 222.303L191.782 137.982C191.676 137.91 191.603 137.8 191.578 137.674C191.566 137.612 191.567 137.548 191.58 137.487C191.592 137.425 191.617 137.366 191.653 137.314L200.626 124.116C200.662 124.064 200.707 124.019 200.76 123.985C200.813 123.95 200.872 123.926 200.934 123.915C200.996 123.903 201.06 123.903 201.122 123.916C201.184 123.929 201.242 123.954 201.295 123.99L325.518 208.309C325.623 208.381 325.696 208.492 325.719 208.618C325.743 208.743 325.716 208.873 325.645 208.979L316.673 222.174C316.629 222.24 316.569 222.293 316.5 222.33C316.43 222.367 316.352 222.386 316.274 222.386ZM192.721 137.456L316.147 221.231L324.577 208.831L201.153 125.058L192.721 137.456Z" fill="#141414"/>
<path d="M135.246 266.333L153.95 398.371H90.8539L83.3215 373.437L76.7305 398.371H11.5951C11.5951 398.371 26.1422 331.567 42.4211 298.638C58.7001 265.709 79.4822 255.671 79.4822 255.671L135.246 266.333Z" fill="white"/>
<path d="M11.5951 398.371C11.5951 398.371 26.1422 331.567 42.4211 298.638C58.7001 265.709 79.4822 255.671 79.4822 255.671L135.246 266.333L153.95 398.371H11.5951Z" fill="#141414"/>
<path d="M90.8561 398.371L83.3216 373.437L76.7305 398.371H90.8561Z" fill="white"/>
<path d="M90.8561 398.851C90.7523 398.852 90.6512 398.818 90.5678 398.757C90.4844 398.695 90.4231 398.608 90.3931 398.508L83.3521 375.197L77.1957 398.487C77.1593 398.606 77.078 398.707 76.9688 398.768C76.8597 398.828 76.7313 398.844 76.6105 398.813C76.4897 398.781 76.3861 398.703 76.3213 398.596C76.2565 398.489 76.2357 398.362 76.2631 398.24L82.8564 373.306C82.883 373.205 82.942 373.115 83.0244 373.05C83.1068 372.986 83.2081 372.95 83.3128 372.948C83.4173 372.948 83.5191 372.981 83.6034 373.043C83.6878 373.104 83.7505 373.191 83.7824 373.291L91.3169 398.224C91.3536 398.347 91.3401 398.479 91.2795 398.592C91.2189 398.704 91.1161 398.788 90.9937 398.825C90.9493 398.84 90.9029 398.849 90.8561 398.851Z" fill="#141414"/>
<path d="M83.3216 373.918C83.2133 373.917 83.1083 373.881 83.0232 373.814C82.9381 373.747 82.8779 373.654 82.852 373.548L73.9198 335.97C73.3935 334.954 67.3047 323.157 66.8373 320.357C66.8249 320.235 66.8593 320.113 66.9337 320.015C67.008 319.918 67.1167 319.852 67.2376 319.832C67.3585 319.812 67.4827 319.838 67.5848 319.906C67.6869 319.974 67.7593 320.078 67.7874 320.197C68.2416 322.914 74.7366 335.454 74.8021 335.579C74.8207 335.614 74.8346 335.651 74.8436 335.69L83.7977 373.326C83.8141 373.396 83.8143 373.47 83.7984 373.541C83.7825 373.612 83.7508 373.678 83.7056 373.735C83.6605 373.792 83.6031 373.838 83.5377 373.869C83.4724 373.901 83.4007 373.917 83.3281 373.918H83.3216Z" fill="white"/>
<path d="M66.8417 206.902C67.8332 203.696 75.8285 193.604 77.829 190.907C82.4327 184.701 100.775 187.278 108.458 186.424C118.114 185.349 137.782 181.968 150.497 189.654C162.945 197.173 167.571 212.585 173.52 220.785C179.375 216.704 184.083 213.096 190.205 208.555L210.686 231.05C209.594 232.382 188.32 263.667 169.016 261.47C157.778 260.192 154.419 253.944 147.199 246.416C147.199 246.416 147.044 277.779 136.998 274.643C95.5755 261.71 72.972 283.16 54.7646 276.886C50.3531 275.368 64.0245 216.016 66.8417 206.902Z" fill="url(#paint0_linear_117_205)"/>
<path d="M147.044 246.586C146.961 246.587 146.879 246.566 146.807 246.525C146.734 246.485 146.674 246.426 146.631 246.355C143.665 241.467 138.199 231.146 135.288 222.74C135.255 222.622 135.269 222.495 135.326 222.386C135.383 222.278 135.479 222.195 135.595 222.155C135.712 222.115 135.839 222.12 135.951 222.171C136.063 222.221 136.151 222.312 136.199 222.426C139.084 230.759 144.511 241.002 147.455 245.855C147.519 245.963 147.537 246.093 147.507 246.215C147.477 246.338 147.4 246.443 147.293 246.51C147.219 246.558 147.132 246.585 147.044 246.586Z" fill="#141414"/>
<path d="M210.321 231.242C213.747 223.963 227.251 208.455 233.656 205.69C244.425 201.028 237.069 199.152 237.069 199.152C237.069 199.152 241.896 197.728 241.322 195.072C240.649 191.947 231.446 195.664 228.456 196.581C227.65 196.848 227.146 197.005 227.146 197.005C227.146 197.005 227.655 196.826 228.456 196.581C231.747 195.489 240.348 192.259 240.553 189.997C240.808 187.179 236.93 187.527 236.93 187.527C236.93 187.527 239.24 186.269 237.546 184.159C236.017 182.261 216.276 184.028 202.542 196.291C200.591 198.038 190.967 208.025 189.438 209.525L210.321 231.242Z" fill="white"/>
<path d="M210.321 231.725C210.24 231.725 210.16 231.704 210.088 231.665C210.017 231.626 209.957 231.569 209.913 231.501C209.87 231.432 209.844 231.354 209.839 231.273C209.834 231.191 209.849 231.11 209.884 231.037C213.439 223.485 226.943 208.064 233.47 205.24C238.613 203.013 239.081 201.628 239.042 201.137C238.978 200.311 237.476 199.743 236.956 199.608C236.854 199.582 236.763 199.523 236.697 199.44C236.632 199.357 236.595 199.255 236.593 199.15C236.591 199.044 236.624 198.941 236.686 198.855C236.748 198.77 236.837 198.708 236.938 198.678C236.982 198.665 241.319 197.315 240.856 195.164C240.832 195.041 240.78 194.925 240.704 194.824C240.629 194.724 240.531 194.642 240.42 194.585C238.696 193.609 233.239 195.459 230.308 196.463C229.633 196.695 229.048 196.9 228.6 197.031C227.799 197.297 227.29 197.455 227.29 197.455C227.168 197.495 227.036 197.485 226.921 197.427C226.807 197.369 226.721 197.268 226.681 197.147C226.641 197.025 226.651 196.893 226.708 196.778C226.766 196.664 226.867 196.577 226.988 196.537C226.988 196.537 227.504 196.358 228.321 196.101C233.911 194.24 239.941 191.445 240.077 189.933C240.114 189.708 240.099 189.477 240.032 189.259C239.965 189.041 239.849 188.841 239.692 188.675C239 187.979 237.497 187.944 236.978 187.985C236.867 187.997 236.756 187.969 236.663 187.907C236.571 187.845 236.504 187.752 236.473 187.645C236.441 187.539 236.447 187.425 236.489 187.323C236.531 187.22 236.607 187.136 236.705 187.083C236.705 187.083 237.522 186.622 237.668 185.878C237.753 185.441 237.587 184.954 237.174 184.441C237.174 184.441 236.917 184.137 235.495 184.019C229.583 183.532 213.961 186.725 202.867 196.631C201.594 197.767 196.944 202.528 193.548 206.022C191.742 207.876 190.314 209.342 189.788 209.855C189.743 209.904 189.69 209.943 189.63 209.97C189.57 209.997 189.505 210.012 189.44 210.013C189.374 210.014 189.309 210.002 189.248 209.977C189.187 209.953 189.132 209.916 189.086 209.869C189.04 209.822 189.004 209.766 188.98 209.705C188.956 209.643 188.945 209.578 188.948 209.512C188.95 209.446 188.966 209.382 188.995 209.322C189.023 209.263 189.063 209.21 189.113 209.167C189.63 208.66 191.126 207.127 192.86 205.35C196.265 201.855 200.928 197.077 202.227 195.917C214.204 185.216 230.14 182.608 235.573 183.065C236.82 183.17 237.589 183.423 237.926 183.845C238.528 184.594 238.758 185.345 238.611 186.079C238.534 186.439 238.377 186.777 238.153 187.068C238.882 187.157 239.773 187.398 240.374 187.998C240.63 188.264 240.822 188.586 240.936 188.937C241.049 189.289 241.081 189.661 241.029 190.027C240.926 191.165 239.256 192.401 237.135 193.521C238.727 193.257 240.048 193.266 240.887 193.74C241.116 193.865 241.316 194.038 241.472 194.248C241.627 194.457 241.736 194.698 241.789 194.954C242.25 197.09 239.928 198.479 238.417 199.141C239.14 199.514 239.919 200.128 239.994 201.049C240.118 202.613 238.107 204.271 233.844 206.116C227.65 208.798 214.189 224.125 210.751 231.45C210.713 231.531 210.652 231.601 210.576 231.649C210.5 231.698 210.411 231.724 210.321 231.725Z" fill="#141414"/>
<path d="M228.738 202.613C228.631 202.613 228.527 202.577 228.443 202.512C228.359 202.446 228.299 202.355 228.272 202.251C228.245 202.148 228.254 202.039 228.296 201.94C228.338 201.842 228.411 201.761 228.504 201.709C228.723 201.589 233.776 198.82 236.434 198.82H236.543C236.609 198.818 236.674 198.829 236.735 198.854C236.797 198.878 236.852 198.915 236.898 198.962C236.945 199.008 236.981 199.064 237.005 199.125C237.03 199.186 237.041 199.252 237.039 199.317C237.037 199.383 237.021 199.448 236.993 199.507C236.965 199.567 236.925 199.62 236.876 199.664C236.827 199.707 236.769 199.74 236.707 199.761C236.644 199.781 236.578 199.789 236.513 199.783C234.143 199.726 229.022 202.521 228.969 202.55C228.899 202.591 228.819 202.613 228.738 202.613Z" fill="#141414"/>
<path d="M223.769 192.309C223.662 192.308 223.558 192.271 223.473 192.204C223.389 192.137 223.33 192.044 223.305 191.939C223.279 191.835 223.29 191.725 223.335 191.627C223.379 191.529 223.456 191.448 223.551 191.399C226.7 189.798 231.241 188.322 235.999 187.347C236.063 187.33 236.13 187.326 236.195 187.335C236.26 187.344 236.323 187.367 236.379 187.401C236.436 187.436 236.484 187.482 236.522 187.536C236.56 187.59 236.587 187.651 236.6 187.716C236.613 187.78 236.613 187.847 236.6 187.912C236.586 187.976 236.56 188.037 236.521 188.091C236.483 188.145 236.435 188.191 236.378 188.225C236.322 188.259 236.259 188.282 236.194 188.291C231.507 189.247 227.056 190.693 223.981 192.257C223.916 192.291 223.843 192.309 223.769 192.309Z" fill="#141414"/>
<path d="M138.136 137.137C138.136 137.137 151.517 157.139 143.543 166.747C135.57 176.354 117.048 166.513 117.048 166.513C117.048 166.513 126.559 132.529 138.136 137.137Z" fill="white"/>
<path d="M133.294 171.473C125.484 171.473 117.334 167.21 116.823 166.939C116.726 166.887 116.649 166.804 116.606 166.703C116.563 166.602 116.555 166.49 116.585 166.384C116.867 165.373 123.619 141.573 132.875 136.993C134.709 136.084 136.539 135.982 138.315 136.689C138.404 136.726 138.48 136.788 138.533 136.868C139.088 137.698 152.021 157.281 143.912 167.055C141.169 170.363 137.275 171.473 133.294 171.473ZM117.622 166.264C120.18 167.531 136.129 174.928 143.174 166.441C150.508 157.602 138.924 139.236 137.819 137.53C136.334 136.982 134.858 137.093 133.305 137.855C125.043 141.955 118.537 163.154 117.622 166.264Z" fill="#141414"/>
<path d="M75.169 243.944C80.0697 247.191 85.903 248.93 91.7668 249.185C98.6461 249.476 105.525 247.722 111.651 244.638C116.554 242.166 121.075 238.683 124.152 234.088C125.647 231.891 126.694 229.421 127.234 226.82C127.874 223.598 127.561 220.301 126.845 217.121C126.096 213.804 124.879 210.626 123.99 207.348C123.2 204.421 122.65 201.233 123.42 198.25C124.873 192.615 130.776 189.874 133.309 184.86C135.958 179.619 134.661 173.414 132.744 168.162C131.674 165.235 130.136 162.44 129.442 159.389C128.806 156.604 129.297 153.868 131.189 151.688C132.717 149.913 134.783 148.668 136.753 147.434C138.723 146.2 140.794 144.918 142.462 143.226C146.487 139.137 146.871 132.804 145.113 127.587C144.216 124.922 142.632 122.485 140.01 121.277C137.671 120.201 135 120.253 132.514 120.716C129.695 121.234 127.074 122.299 124.44 123.35C122.026 124.32 119.624 125.304 117.233 126.303C116.642 126.211 116.05 126.128 115.454 126.067C112.272 125.737 109.024 125.848 105.943 126.777C102.942 127.678 100.282 129.397 98.0805 131.605C93.7389 135.947 90.7622 141.778 88.7879 147.537C87.7757 150.493 87.038 153.535 86.5843 156.626C86.1301 159.699 86.0362 162.796 85.9292 165.897C85.8221 168.998 85.7108 172.187 85.0709 175.262C84.4626 178.213 83.2294 180.999 81.4543 183.434C79.6679 185.878 77.4621 187.983 75.3153 190.104C73.1685 192.224 71.1659 194.345 69.3969 196.754C65.9245 201.504 63.4588 207.051 62.4782 212.862C60.4909 224.636 65.0509 237.244 75.169 243.944Z" fill="#141414"/>
<path d="M359.417 339.748C363.57 339.748 366.936 336.378 366.936 332.22C366.936 328.062 363.57 324.692 359.417 324.692C355.264 324.692 351.898 328.062 351.898 332.22C351.898 336.378 355.264 339.748 359.417 339.748Z" fill="#141414"/>
<path d="M381.363 339.748C385.516 339.748 388.882 336.378 388.882 332.22C388.882 328.062 385.516 324.692 381.363 324.692C377.21 324.692 373.844 328.062 373.844 332.22C373.844 336.378 377.21 339.748 381.363 339.748Z" fill="#141414"/>
<path d="M403.309 339.748C407.462 339.748 410.829 336.378 410.829 332.22C410.829 328.062 407.462 324.692 403.309 324.692C399.157 324.692 395.79 328.062 395.79 332.22C395.79 336.378 399.157 339.748 403.309 339.748Z" fill="#141414"/>
<path d="M463.227 332.703H418.689C418.566 332.694 418.452 332.64 418.368 332.551C418.285 332.461 418.238 332.343 418.238 332.221C418.238 332.099 418.285 331.981 418.368 331.891C418.452 331.802 418.566 331.748 418.689 331.739H462.743V281.37C462.751 281.247 462.805 281.133 462.894 281.049C462.984 280.966 463.102 280.919 463.224 280.919C463.346 280.919 463.464 280.966 463.554 281.049C463.643 281.133 463.697 281.247 463.706 281.37V332.22C463.706 332.347 463.655 332.469 463.566 332.56C463.476 332.65 463.355 332.701 463.227 332.703Z" fill="#141414"/>
<path d="M262.029 87.407C266.182 87.407 269.549 84.0366 269.549 79.879C269.549 75.7215 266.182 72.3511 262.029 72.3511C257.877 72.3511 254.51 75.7215 254.51 79.879C254.51 84.0366 257.877 87.407 262.029 87.407Z" fill="#141414"/>
<path d="M283.976 87.407C288.128 87.407 291.495 84.0366 291.495 79.879C291.495 75.7215 288.128 72.3511 283.976 72.3511C279.823 72.3511 276.456 75.7215 276.456 79.879C276.456 84.0366 279.823 87.407 283.976 87.407Z" fill="#141414"/>
<path d="M305.922 87.407C310.075 87.407 313.441 84.0366 313.441 79.879C313.441 75.7215 310.075 72.3511 305.922 72.3511C301.769 72.3511 298.403 75.7215 298.403 79.879C298.403 84.0366 301.769 87.407 305.922 87.407Z" fill="#141414"/>
<path d="M365.842 80.3682H321.29C321.162 80.3682 321.039 80.3174 320.949 80.2269C320.858 80.1364 320.807 80.0136 320.807 79.8856C320.807 79.7576 320.858 79.6348 320.949 79.5443C321.039 79.4538 321.162 79.403 321.29 79.403H365.842C365.97 79.403 366.093 79.4538 366.183 79.5443C366.274 79.6348 366.325 79.7576 366.325 79.8856C366.325 80.0136 366.274 80.1364 366.183 80.2269C366.093 80.3174 365.97 80.3682 365.842 80.3682Z" fill="#141414"/>
<defs>
<linearGradient id="paint0_linear_117_205" x1="132.294" y1="278.066" x2="132.294" y2="184.754" gradientUnits="userSpaceOnUse">
<stop stop-color="#DC1D47"/>
<stop offset="1" stop-color="#E54327"/>
</linearGradient>
</defs>
</svg>
