<svg width="400" height="400" viewBox="0 0 400 400" fill="none" xmlns="http://www.w3.org/2000/svg">
<g clip-path="url(#clip0_113_187)">
<path opacity="0.03" d="M400.05 200C400.102 245.502 384.575 289.65 356.05 325.1C342.66 341.783 326.692 356.221 308.75 367.87C282.143 385.151 251.789 395.818 220.22 398.98C213.504 399.652 206.759 399.985 200.01 399.98C89.55 399.98 0.0100021 310.44 0.0100021 199.98C0.0100021 89.52 89.55 -0.0199933 200.01 -0.0199933C310.47 -0.0199933 400.05 89.52 400.05 200Z" fill="#141414"/>
<path fill-rule="evenodd" clip-rule="evenodd" d="M44.56 299.41C44.5653 303.607 46.2368 307.629 49.2071 310.594C52.1774 313.559 56.2034 315.223 60.4 315.22H203.73C205.808 315.221 207.865 314.813 209.785 314.02C211.705 313.226 213.449 312.062 214.919 310.594C216.389 309.125 217.556 307.382 218.352 305.463C219.148 303.544 219.559 301.488 219.56 299.41V29.95C219.56 27.8716 219.15 25.8137 218.355 23.8936C217.559 21.9736 216.393 20.2292 214.923 18.76C213.453 17.2909 211.708 16.1258 209.787 15.3314C207.867 14.5369 205.808 14.1287 203.73 14.13H60.4C58.3212 14.1287 56.2625 14.5368 54.3414 15.3312C52.4203 16.1255 50.6744 17.2904 49.2036 18.7594C47.7327 20.2285 46.5656 21.9728 45.7688 23.8929C44.9721 25.813 44.5613 27.8712 44.56 29.95V299.41Z" fill="#141414"/>
<path fill-rule="evenodd" clip-rule="evenodd" d="M202.3 30.44C203.429 30.4439 204.547 30.6703 205.589 31.1061C206.631 31.5419 207.577 32.1787 208.372 32.9801C209.168 33.7815 209.798 34.7317 210.227 35.7766C210.655 36.8215 210.874 37.9406 210.87 39.07V293.52C210.875 295.8 209.976 297.989 208.369 299.607C206.763 301.225 204.58 302.139 202.3 302.15H61.82C59.5409 302.139 57.3592 301.225 55.7541 299.606C54.1491 297.988 53.252 295.799 53.26 293.52V39.07C53.252 36.7909 54.1491 34.6018 55.7541 32.9836C57.3592 31.3655 59.5409 30.4506 61.82 30.44H202.3Z" fill="white"/>
<path fill-rule="evenodd" clip-rule="evenodd" d="M111.4 23.92H152.74C152.872 23.9021 152.993 23.837 153.08 23.7368C153.168 23.6366 153.216 23.508 153.216 23.375C153.216 23.2419 153.168 23.1134 153.08 23.0132C152.993 22.913 152.872 22.8479 152.74 22.83H111.4C111.268 22.8479 111.147 22.913 111.06 23.0132C110.972 23.1134 110.924 23.2419 110.924 23.375C110.924 23.508 110.972 23.6366 111.06 23.7368C111.147 23.837 111.268 23.9021 111.4 23.92Z" fill="#141414" fill-opacity="0.1"/>
<path d="M66.8 186.46V121.16H197.32V186.46H66.8Z" fill="white" stroke="#141414"/>
<path fill-rule="evenodd" clip-rule="evenodd" d="M131.52 101.09C140.52 101.09 147.82 94.03 147.82 85.34C147.82 76.83 132.76 60.64 132.12 59.95C132.071 59.8983 132.012 59.8574 131.947 59.8299C131.881 59.8023 131.811 59.7888 131.74 59.79C131.667 59.7809 131.592 59.7909 131.524 59.8189C131.456 59.847 131.396 59.8921 131.35 59.95C130.68 60.63 115.21 76.83 115.21 85.34C115.21 94.03 122.53 101.09 131.52 101.09ZM131.73 61.09C134.12 63.72 146.73 77.98 146.73 85.37C146.587 89.319 144.918 93.0585 142.073 95.8016C139.229 98.5448 135.432 100.078 131.48 100.078C127.528 100.078 123.731 98.5448 120.887 95.8016C118.042 93.0585 116.373 89.319 116.23 85.37C116.27 77.95 129.28 63.68 131.73 61.06V61.09Z" fill="#141414"/>
<path fill-rule="evenodd" clip-rule="evenodd" d="M109.91 227.17C108.491 226.462 106.985 225.944 105.43 225.63L106.01 217.39C108.649 217.807 111.209 218.627 113.6 219.82C119.311 222.678 123.75 227.563 126.05 233.52L118.13 235.84C116.495 232.073 113.584 229.003 109.91 227.17Z" fill="white"/>
<path fill-rule="evenodd" clip-rule="evenodd" d="M118.48 248.36C119.526 245.481 119.805 242.379 119.29 239.36L127.69 236.95C128.783 242.046 128.302 247.354 126.31 252.17L118.48 248.36Z" fill="url(#paint0_linear_113_187)"/>
<path fill-rule="evenodd" clip-rule="evenodd" d="M77.92 232.61L85.31 236.36C83.891 240.45 83.9936 244.914 85.5988 248.934C87.204 252.955 90.2044 256.262 94.05 258.25C97.887 260.187 102.304 260.64 106.454 259.522C110.604 258.403 114.196 255.793 116.54 252.19L123.93 255.94C120.609 261.514 115.299 265.622 109.07 267.436C102.84 269.251 96.155 268.638 90.36 265.72C84.5539 262.722 80.0673 257.676 77.769 251.559C75.4708 245.442 75.5246 238.69 77.92 232.61Z" fill="#141414"/>
<path fill-rule="evenodd" clip-rule="evenodd" d="M100.51 224.68C97.7587 224.833 95.0819 225.631 92.6953 227.008C90.3086 228.385 88.279 230.304 86.77 232.61L79.35 228.86C81.6063 225.1 84.7817 221.975 88.5777 219.78C92.3737 217.584 96.6656 216.39 101.05 216.31L100.51 224.68Z" fill="url(#paint1_linear_113_187)"/>
<path fill-rule="evenodd" clip-rule="evenodd" d="M148.77 249.08C149.348 250.543 150.125 251.92 151.08 253.17L144.85 258.7C143.158 256.66 141.808 254.361 140.85 251.89C138.537 246.031 138.619 239.498 141.08 233.7L148.72 237.32C147.277 241.11 147.294 245.302 148.77 249.08Z" fill="#141414"/>
<path fill-rule="evenodd" clip-rule="evenodd" d="M157.61 226.99C154.97 228.278 152.696 230.211 151 232.61L143.48 229.07C146.202 224.879 150.092 221.576 154.67 219.57L157.61 226.99Z" fill="white"/>
<path fill-rule="evenodd" clip-rule="evenodd" d="M176.58 266.31L173.7 258.59C177.487 256.621 180.424 253.335 181.957 249.351C183.489 245.367 183.512 240.96 182.021 236.961C180.529 232.961 177.627 229.645 173.86 227.637C170.093 225.629 165.722 225.068 161.57 226.06L158.69 218.34C164.908 216.557 171.57 217.186 177.345 220.101C183.12 223.016 187.583 228.002 189.842 234.063C192.101 240.125 191.99 246.815 189.532 252.799C187.073 258.782 182.448 263.618 176.58 266.34V266.31Z" fill="url(#paint2_linear_113_187)"/>
<path fill-rule="evenodd" clip-rule="evenodd" d="M154.05 256.52C156.263 258.232 158.826 259.435 161.558 260.042C164.289 260.648 167.12 260.644 169.85 260.03L172.85 267.55C168.542 268.694 164.023 268.787 159.672 267.819C155.321 266.851 151.267 264.852 147.85 261.99L154.05 256.52Z" fill="url(#paint3_linear_113_187)"/>
<path d="M189.13 145.66H181.52V178.26H189.13V145.66Z" fill="#141414" fill-opacity="0.1"/>
<path d="M176.05 165.22H168.45V178.22H176.05V165.22Z" fill="#141414" fill-opacity="0.1"/>
<path d="M163.05 152.18H155.44V178.26H163.05V152.18Z" fill="#141414" fill-opacity="0.1"/>
<path d="M151.05 134.79H142.36V178.26H151.05V134.79Z" fill="#141414" fill-opacity="0.2"/>
<path d="M138.05 150H129.35V178.26H138.05V150Z" fill="#141414" fill-opacity="0.1"/>
<path d="M125.05 165.22H116.35V178.22H125.05V165.22Z" fill="#141414" fill-opacity="0.1"/>
<path d="M111.95 152.18H103.26V178.26H111.95V152.18Z" fill="#141414" fill-opacity="0.1"/>
<path d="M98.91 140.22H90.21V178.22H98.91V140.22Z" fill="#141414" fill-opacity="0.2"/>
<path d="M85.87 159.79H78.26V178.26H85.87V159.79Z" fill="#141414" fill-opacity="0.1"/>
<path fill-rule="evenodd" clip-rule="evenodd" d="M318.69 191.45C318.61 204.63 316.42 232.72 303.62 279.71C295.76 308.61 283.88 344.71 266.02 388.84C251.205 394.024 235.828 397.431 220.21 398.99C225.04 371.26 255.21 197.69 258.41 175.99L318.31 182.33C318.645 185.358 318.772 188.405 318.69 191.45Z" fill="url(#paint4_linear_113_187)"/>
<path fill-rule="evenodd" clip-rule="evenodd" d="M356.05 325.1C342.66 341.783 326.692 356.221 308.75 367.87C307.75 347.27 306.01 312.87 303.63 279.7C300.83 240.7 297.18 203.54 292.99 192.7L318.7 191.47L353.05 189.8C353.05 189.8 363.48 242.91 356.05 325.1Z" fill="url(#paint5_linear_113_187)"/>
<path fill-rule="evenodd" clip-rule="evenodd" d="M369.52 164.33L367.98 164.92L340.13 126.45L368.86 100.81L382.93 131.73C384.299 134.737 385.037 137.992 385.099 141.295C385.16 144.599 384.543 147.879 383.286 150.935C382.03 153.99 380.159 156.755 377.792 159.059C375.424 161.363 372.609 163.157 369.52 164.33Z" fill="white"/>
<path fill-rule="evenodd" clip-rule="evenodd" d="M369.52 164.33L367.98 164.92L340.13 126.45L368.86 100.81L382.93 131.73C384.299 134.737 385.037 137.992 385.099 141.295C385.16 144.599 384.543 147.879 383.286 150.935C382.03 153.99 380.159 156.755 377.792 159.059C375.424 161.363 372.609 163.157 369.52 164.33Z" fill="white" stroke="#141414" stroke-miterlimit="10"/>
<path fill-rule="evenodd" clip-rule="evenodd" d="M253.92 95.52C253.92 95.52 239.04 109.22 230.85 100.35C222.33 91.12 212.4 80.52 207.26 75.52C196.64 65.23 179.46 51.6 177.58 54.03C176.52 55.41 178.48 57.76 184.13 63.67C183.498 63.6944 182.881 63.873 182.334 64.1902C181.787 64.5074 181.325 64.9537 180.99 65.49C180.651 66.0722 180.506 66.7467 180.574 67.4167C180.642 68.0867 180.921 68.718 181.37 69.22C181.17 69.22 178.9 69.09 177.89 70.39C177.415 70.9972 177.14 71.7366 177.102 72.5067C177.064 73.2767 177.266 74.0394 177.68 74.69C177.19 74.69 175.07 74.84 174.16 76.15C172.98 77.83 173.92 79.92 175.16 81.08C177.43 83.22 183.8 88.91 186.78 92.35C190.49 96.64 205.03 114.42 215.24 126.92C218.366 130.755 222.498 133.645 227.173 135.266C231.847 136.887 236.881 137.176 241.71 136.1L253.48 133.52L253.92 95.52Z" fill="white"/>
<path fill-rule="evenodd" clip-rule="evenodd" d="M254.27 95.85C254.27 95.85 239.39 109.55 231.19 100.68C222.68 91.47 212.76 80.86 207.61 75.88C196.99 65.6 179.81 51.97 177.93 54.39C176.87 55.78 178.82 58.12 184.48 64.04C183.847 64.0654 183.229 64.2443 182.68 64.5613C182.132 64.8784 181.668 65.3241 181.33 65.86C180.997 66.444 180.855 67.1172 180.923 67.7858C180.992 68.4544 181.267 69.0851 181.71 69.59C181.52 69.59 179.25 69.46 178.24 70.75C177.763 71.4924 177.5 72.3522 177.481 73.2345C177.461 74.1168 177.686 74.9873 178.13 75.75C177.64 75.75 175.43 75.25 174.52 76.55C173.33 78.24 174.27 80.33 175.52 81.49C177.79 83.63 184.16 89.33 187.14 92.76C190.85 97.04 205.39 114.83 215.6 127.33C218.724 131.163 222.851 134.053 227.522 135.675C232.193 137.298 237.223 137.591 242.05 136.52L253.81 133.91L254.27 95.85Z" fill="white" stroke="#141414" stroke-miterlimit="10"/>
<path fill-rule="evenodd" clip-rule="evenodd" d="M179.05 84.32C179.222 84.3191 179.387 84.2509 179.51 84.13C180.3 83.3726 180.838 82.3913 181.052 81.3185C181.267 80.2457 181.148 79.1328 180.71 78.13C181.507 78.6455 182.451 78.8855 183.397 78.8133C184.344 78.741 185.241 78.3605 185.95 77.73C186.341 77.393 186.655 76.9755 186.87 76.5061C187.086 76.0367 187.197 75.5264 187.197 75.01C187.197 74.4936 187.086 73.9833 186.87 73.5139C186.655 73.0445 186.341 72.627 185.95 72.29L185.34 71.75C185.846 71.7639 186.349 71.6704 186.816 71.4756C187.283 71.2808 187.704 70.9892 188.05 70.62C188.573 70.0322 188.843 69.2626 188.804 68.477C188.765 67.6915 188.419 66.9528 187.84 66.42L185.05 63.79C184.927 63.6783 184.766 63.6164 184.6 63.6164C184.434 63.6164 184.273 63.6783 184.15 63.79C184.092 63.8416 184.046 63.9048 184.015 63.9754C183.983 64.0461 183.967 64.1226 183.967 64.2C183.967 64.2774 183.983 64.3539 184.015 64.4246C184.046 64.4952 184.092 64.5584 184.15 64.61L186.93 67.24C187.292 67.5758 187.509 68.0401 187.533 68.5335C187.558 69.0269 187.388 69.5103 187.06 69.88C186.683 70.2881 186.171 70.5448 185.619 70.6019C185.066 70.659 184.512 70.5125 184.06 70.19L181.91 68.62C181.779 68.5271 181.62 68.484 181.46 68.4987C181.301 68.5134 181.151 68.5848 181.04 68.7C180.986 68.7514 180.942 68.8134 180.912 68.8822C180.883 68.951 180.868 69.0251 180.868 69.1C180.868 69.1749 180.883 69.249 180.912 69.3178C180.942 69.3866 180.986 69.4486 181.04 69.5L185.11 73.17C185.377 73.4052 185.591 73.6945 185.737 74.0186C185.884 74.3427 185.96 74.6943 185.96 75.05C185.958 75.4045 185.883 75.7549 185.738 76.0786C185.594 76.4023 185.383 76.6923 185.12 76.93C184.629 77.3643 184.009 77.6259 183.355 77.6746C182.702 77.7234 182.05 77.5567 181.5 77.2L178.05 74.91C177.92 74.826 177.765 74.7883 177.611 74.8028C177.457 74.8173 177.312 74.8832 177.2 74.99C177.096 75.0949 177.037 75.237 177.037 75.385C177.037 75.533 177.096 75.6751 177.2 75.78L178.67 77.25C179.075 77.6441 179.396 78.1153 179.616 78.6357C179.835 79.1561 179.948 79.7152 179.948 80.28C179.948 80.8448 179.835 81.4039 179.616 81.9243C179.396 82.4447 179.075 82.9159 178.67 83.31C178.612 83.3616 178.566 83.4248 178.535 83.4954C178.503 83.5661 178.487 83.6426 178.487 83.72C178.487 83.7974 178.503 83.8739 178.535 83.9446C178.566 84.0152 178.612 84.0784 178.67 84.13C178.767 84.2408 178.903 84.309 179.05 84.32Z" fill="#141414"/>
<path fill-rule="evenodd" clip-rule="evenodd" d="M354.71 135.3L383.05 123.36C383.05 123.36 376.62 105.69 369.97 95.28C362.97 84.28 353.18 79.6 340.17 78.2C321.69 76.2 288.36 78.97 264.58 86.67C234.53 96.39 233.2 97.28 233.2 97.28L248.68 138.39L258.84 135.74L246.43 215.45L367.78 219.93C367.78 219.93 358.25 149.44 354.71 135.3Z" fill="white"/>
<path fill-rule="evenodd" clip-rule="evenodd" d="M354.71 135.3L383.05 123.36C383.05 123.36 376.62 105.69 369.97 95.28C362.97 84.28 353.18 79.6 340.17 78.2C321.7 76.2 288.36 78.97 264.58 86.67C234.53 96.39 233.2 97.28 233.2 97.28L248.68 138.39L258.84 135.74L246.43 215.45L367.78 219.93C367.78 219.93 358.25 149.44 354.71 135.3Z" fill="white" stroke="#141414" stroke-miterlimit="10"/>
<path fill-rule="evenodd" clip-rule="evenodd" d="M266.05 164.03H301.65L282.95 111.46H247.78C247.118 111.461 246.466 111.62 245.878 111.924C245.29 112.229 244.784 112.67 244.402 113.211C244.02 113.752 243.773 114.376 243.682 115.032C243.592 115.688 243.659 116.356 243.88 116.98L258.8 158.89C259.332 160.389 260.313 161.688 261.611 162.608C262.909 163.528 264.459 164.025 266.05 164.03Z" fill="#141414"/>
<path fill-rule="evenodd" clip-rule="evenodd" d="M256.86 112.75H257.01C257.152 112.708 257.272 112.613 257.345 112.484C257.417 112.355 257.437 112.203 257.4 112.06L255.83 106.52H267.05L268.7 112.3C268.744 112.443 268.841 112.563 268.972 112.635C269.102 112.708 269.256 112.728 269.4 112.69C269.471 112.67 269.537 112.637 269.595 112.592C269.653 112.546 269.702 112.49 269.738 112.426C269.774 112.362 269.798 112.291 269.806 112.218C269.815 112.145 269.81 112.071 269.79 112L267.9 105.4H254.35L256.35 112.3C256.378 112.418 256.442 112.525 256.534 112.606C256.625 112.686 256.739 112.737 256.86 112.75Z" fill="#141414"/>
<path fill-rule="evenodd" clip-rule="evenodd" d="M262.39 111.86C262.807 111.86 263.215 111.736 263.562 111.504C263.909 111.273 264.18 110.943 264.339 110.557C264.499 110.172 264.541 109.748 264.459 109.338C264.378 108.929 264.177 108.553 263.882 108.258C263.587 107.963 263.211 107.762 262.802 107.681C262.392 107.599 261.968 107.641 261.583 107.801C261.197 107.96 260.867 108.231 260.636 108.578C260.404 108.925 260.28 109.333 260.28 109.75C260.28 110.31 260.502 110.846 260.898 111.242C261.294 111.638 261.83 111.86 262.39 111.86ZM262.39 108.78C262.588 108.78 262.781 108.839 262.946 108.949C263.11 109.058 263.238 109.215 263.314 109.397C263.39 109.58 263.409 109.781 263.371 109.975C263.332 110.169 263.237 110.347 263.097 110.487C262.957 110.627 262.779 110.722 262.585 110.761C262.391 110.799 262.19 110.78 262.007 110.704C261.825 110.628 261.668 110.5 261.559 110.336C261.449 110.171 261.39 109.978 261.39 109.78C261.39 109.515 261.495 109.26 261.683 109.073C261.87 108.885 262.125 108.78 262.39 108.78Z" fill="#141414"/>
<path fill-rule="evenodd" clip-rule="evenodd" d="M362.41 135.3C348.41 136.23 315.19 136.81 311.96 136.99C305.91 137.34 273.5 139.99 273.38 144.75C273.32 147.01 279.6 146.75 281.7 146.63C280.05 147.63 273.3 150.58 273.9 153.04C274.6 155.93 283.18 153.59 283.35 153.64C281.56 154.45 274.35 157.35 274.74 159.22C275.23 161.64 282.74 160.95 284.99 160.63C284.79 160.97 277.55 162.73 277.99 165.63C278.33 167.78 285.22 167.12 288.22 166.85C293.59 166.55 356.29 166.41 367.94 164.9C372.51 164.31 368.57 139.7 362.41 135.3Z" fill="white"/>
<path fill-rule="evenodd" clip-rule="evenodd" d="M362.41 135.3C348.41 136.23 315.19 136.81 311.96 136.99C305.91 137.34 273.5 139.99 273.38 144.75C273.32 147 279.6 146.75 281.7 146.63C280.05 147.63 273.3 150.58 273.9 153.04C274.6 155.93 283.18 153.59 283.35 153.64C281.56 154.45 274.35 157.35 274.73 159.22C275.21 161.64 282.73 160.95 284.98 160.63C284.79 160.97 277.54 162.73 277.98 165.63C278.31 167.78 285.21 167.12 288.21 166.85C293.58 166.55 356.28 166.41 367.93 164.9C372.51 164.31 368.57 139.7 362.41 135.3Z" fill="white" stroke="#141414" stroke-miterlimit="10"/>
<path fill-rule="evenodd" clip-rule="evenodd" d="M281.62 146.98C281.689 146.995 281.761 146.995 281.83 146.98C282.979 146.492 284.158 146.078 285.36 145.74C287.518 145.142 289.741 144.806 291.98 144.74C292.129 144.74 292.271 144.681 292.376 144.576C292.481 144.471 292.54 144.329 292.54 144.18C292.54 144.031 292.481 143.889 292.376 143.784C292.271 143.679 292.129 143.62 291.98 143.62C288.345 143.7 284.759 144.481 281.42 145.92C281.284 145.977 281.176 146.086 281.12 146.223C281.063 146.36 281.064 146.513 281.12 146.65C281.169 146.743 281.24 146.822 281.327 146.879C281.415 146.937 281.516 146.972 281.62 146.98Z" fill="#141414"/>
<path fill-rule="evenodd" clip-rule="evenodd" d="M283.2 154.06H283.37L284.13 153.83C286.287 153.226 288.511 152.89 290.75 152.83C290.899 152.825 291.041 152.761 291.144 152.653C291.247 152.544 291.303 152.4 291.3 152.25C291.3 152.177 291.285 152.104 291.256 152.036C291.227 151.969 291.185 151.908 291.131 151.857C291.078 151.807 291.015 151.767 290.946 151.742C290.877 151.717 290.803 151.706 290.73 151.71C288.398 151.766 286.082 152.101 283.83 152.71L283.04 152.94C282.969 152.962 282.902 152.997 282.845 153.045C282.787 153.092 282.74 153.151 282.706 153.217C282.671 153.283 282.65 153.356 282.644 153.43C282.638 153.504 282.647 153.579 282.67 153.65C282.701 153.767 282.77 153.871 282.865 153.945C282.961 154.019 283.079 154.06 283.2 154.06Z" fill="#141414"/>
<path fill-rule="evenodd" clip-rule="evenodd" d="M285.12 161.12H285.21C286.653 160.859 288.114 160.712 289.58 160.68C289.655 160.679 289.729 160.663 289.797 160.633C289.866 160.603 289.928 160.56 289.98 160.506C290.032 160.452 290.073 160.389 290.1 160.319C290.128 160.249 290.141 160.175 290.14 160.1C290.14 160.026 290.125 159.952 290.095 159.884C290.066 159.815 290.022 159.754 289.968 159.703C289.914 159.653 289.849 159.614 289.779 159.589C289.709 159.564 289.634 159.554 289.56 159.56C288.037 159.587 286.518 159.741 285.02 160.02C284.872 160.047 284.74 160.131 284.654 160.255C284.567 160.379 284.534 160.532 284.56 160.68C284.59 160.806 284.661 160.918 284.763 160.998C284.865 161.078 284.991 161.121 285.12 161.12Z" fill="#141414"/>
<path fill-rule="evenodd" clip-rule="evenodd" d="M289.21 73.33C292.8 76.28 303.98 69.74 303.98 69.74L310.98 57.41C311.172 54.2971 310.126 51.2344 308.072 48.8883C306.017 46.5422 303.118 45.1024 300.007 44.8823C296.896 44.6622 293.824 45.6794 291.46 47.7128C289.095 49.7462 287.629 52.6311 287.38 55.74C287.38 55.74 285.56 70.33 289.21 73.33Z" fill="white"/>
<path fill-rule="evenodd" clip-rule="evenodd" d="M289.21 73.33C292.8 76.28 303.98 69.74 303.98 69.74L310.98 57.41C311.172 54.2971 310.126 51.2344 308.072 48.8883C306.017 46.5422 303.118 45.1024 300.007 44.8823C296.896 44.6622 293.824 45.6794 291.46 47.7128C289.095 49.7462 287.629 52.6311 287.38 55.74C287.38 55.74 285.56 70.33 289.21 73.33Z" fill="white" stroke="#141414" stroke-miterlimit="10"/>
<path fill-rule="evenodd" clip-rule="evenodd" d="M301.05 88.91L300.13 88.84C299.117 88.7715 298.127 88.5035 297.217 88.0513C296.308 87.5991 295.497 86.9717 294.83 86.2051C294.164 85.4385 293.656 84.5478 293.335 83.5842C293.014 82.6206 292.887 81.603 292.96 80.59L293.8 68.66L303.29 63.59L306.01 54.89L295.01 51.53L311.34 52.68L309.34 81.74C309.269 82.7561 308.998 83.7481 308.542 84.6591C308.087 85.57 307.456 86.382 306.685 87.0483C305.915 87.7146 305.021 88.2221 304.054 88.5415C303.086 88.861 302.066 88.9863 301.05 88.91Z" fill="white"/>
<path fill-rule="evenodd" clip-rule="evenodd" d="M301.05 88.91L300.13 88.84C299.117 88.7715 298.127 88.5035 297.217 88.0513C296.308 87.5991 295.497 86.9717 294.83 86.2051C294.164 85.4385 293.656 84.5478 293.335 83.5842C293.014 82.6206 292.887 81.603 292.96 80.59L293.8 68.66L303.29 63.59L306.01 54.89L295.01 51.53L311.34 52.68L309.34 81.74C309.269 82.7561 308.998 83.7481 308.542 84.6591C308.087 85.57 307.456 86.382 306.685 87.0483C305.915 87.7146 305.021 88.2221 304.054 88.5415C303.086 88.861 302.066 88.9863 301.05 88.91Z" fill="white" stroke="#141414" stroke-miterlimit="10"/>
<path fill-rule="evenodd" clip-rule="evenodd" d="M303.55 59.1C303.55 59.1 300.8 64.94 294.44 64.82C291.936 64.8435 289.433 64.74 286.94 64.51L285.7 70.51C285.573 71.1283 285.583 71.7669 285.728 72.3811C285.873 72.9954 286.15 73.5706 286.541 74.0666C286.931 74.5626 287.425 74.9675 287.988 75.2531C288.551 75.5386 289.169 75.698 289.8 75.72L294.35 75.87C296.573 75.9416 298.747 75.2081 300.472 73.8044C302.198 72.4006 303.358 70.4211 303.74 68.23L304.61 63.23L310.7 61.51C310.7 61.51 320.77 57.51 317.56 50.41C317.128 49.2058 316.25 48.2132 315.108 47.6365C313.966 47.0598 312.646 46.943 311.42 47.31L298.98 35.09C296.18 32.61 293.28 34.61 290.46 37.09C290.46 37.09 284.56 41.01 287.21 43.37L289.15 45.09L287.15 44.54C285.53 44.1 283.4 47.43 283.4 47.43C282.53 50.6 284.08 52.93 287.26 53.71C288.99 54.13 291 53.5 292.74 53.14C298.86 51.84 304.93 53.84 303.55 59.1Z" fill="#141414"/>
<path fill-rule="evenodd" clip-rule="evenodd" d="M303.42 61.36C303.255 61.9944 303.275 62.6629 303.478 63.2862C303.681 63.9096 304.058 64.4617 304.565 64.8772C305.072 65.2927 305.688 65.5543 306.339 65.6308C306.99 65.7073 307.649 65.5957 308.239 65.309C308.829 65.0224 309.324 64.5728 309.666 64.0135C310.008 63.4542 310.182 62.8087 310.169 62.1532C310.155 61.4978 309.954 60.86 309.589 60.3153C309.224 59.7707 308.711 59.342 308.11 59.08C307.186 58.7666 306.175 58.8302 305.297 59.257C304.419 59.6838 303.745 60.4394 303.42 61.36Z" fill="white"/>
<path fill-rule="evenodd" clip-rule="evenodd" d="M303.42 61.36C303.255 61.9944 303.275 62.6629 303.478 63.2862C303.681 63.9096 304.058 64.4617 304.565 64.8772C305.072 65.2927 305.688 65.5543 306.339 65.6308C306.99 65.7073 307.649 65.5957 308.239 65.309C308.829 65.0224 309.324 64.5728 309.666 64.0135C310.008 63.4542 310.182 62.8087 310.169 62.1532C310.155 61.4978 309.954 60.86 309.589 60.3153C309.224 59.7707 308.711 59.342 308.11 59.08C307.185 58.7693 306.176 58.8342 305.299 59.2606C304.421 59.6871 303.747 60.441 303.42 61.36Z" fill="white" stroke="#141414" stroke-miterlimit="10"/>
</g>
<defs>
<linearGradient id="paint0_linear_113_187" x1="123.371" y1="252.17" x2="123.371" y2="236.95" gradientUnits="userSpaceOnUse">
<stop stop-color="#DC1D47"/>
<stop offset="1" stop-color="#E54327"/>
</linearGradient>
<linearGradient id="paint1_linear_113_187" x1="90.2005" y1="232.61" x2="90.2005" y2="216.31" gradientUnits="userSpaceOnUse">
<stop stop-color="#DC1D47"/>
<stop offset="1" stop-color="#E54327"/>
</linearGradient>
<linearGradient id="paint2_linear_113_187" x1="175.076" y1="266.341" x2="175.076" y2="217.345" gradientUnits="userSpaceOnUse">
<stop stop-color="#DC1D47"/>
<stop offset="1" stop-color="#E54327"/>
</linearGradient>
<linearGradient id="paint3_linear_113_187" x1="160.351" y1="268.483" x2="160.351" y2="256.52" gradientUnits="userSpaceOnUse">
<stop stop-color="#DC1D47"/>
<stop offset="1" stop-color="#E54327"/>
</linearGradient>
<linearGradient id="paint4_linear_113_187" x1="269.464" y1="398.994" x2="269.464" y2="175.99" gradientUnits="userSpaceOnUse">
<stop stop-color="#DC1D47"/>
<stop offset="1" stop-color="#E54327"/>
</linearGradient>
<linearGradient id="paint5_linear_113_187" x1="325.857" y1="367.873" x2="325.857" y2="189.8" gradientUnits="userSpaceOnUse">
<stop stop-color="#DC1D47"/>
<stop offset="1" stop-color="#E54327"/>
</linearGradient>
<clipPath id="clip0_113_187">
<rect width="400" height="400" fill="white"/>
</clipPath>
</defs>
</svg>
