<svg width="32" height="32" viewBox="0 0 32 32" fill="none" xmlns="http://www.w3.org/2000/svg">
<g clip-path="url(#clip0_75_404)">
<path d="M1 22.9997H5.00001V11.999H1V22.9997Z" stroke="#141414" stroke-miterlimit="10" stroke-linecap="round" stroke-linejoin="round"/>
<path d="M27 22.9997H31.0001V11.999H27V22.9997Z" stroke="#141414" stroke-miterlimit="10" stroke-linecap="round" stroke-linejoin="round"/>
<path d="M27 12.0006C27 5.92512 22.075 1 16 1C9.92498 1 5 5.92512 5 12.0006" stroke="#141414" stroke-miterlimit="10" stroke-linecap="round" stroke-linejoin="round"/>
<path d="M16.0004 27C17.1044 27 18.0004 27.8962 18.0004 29.0001C18.0004 30.1039 17.1044 31.0002 16.0004 31.0002C14.8964 31.0002 14.0005 30.1039 14.0005 29.0001C14.0005 27.8962 14.8964 27 16.0004 27Z" stroke="#141414" stroke-miterlimit="10" stroke-linecap="round" stroke-linejoin="round"/>
<path d="M17.9995 29.0002H20.9995C24.3131 29.0002 26.9995 26.3138 26.9995 23" stroke="#141414" stroke-miterlimit="10" stroke-linecap="round" stroke-linejoin="round"/>
<path d="M10.0002 12.999H14.0003V16.9993H10.0002V20.9995H14.0003" stroke="#DC1D47" stroke-miterlimit="10" stroke-linecap="round" stroke-linejoin="round"/>
<path d="M17.9995 12.999V16.9993H21.9995" stroke="#DC1D47" stroke-miterlimit="10" stroke-linecap="round" stroke-linejoin="round"/>
<path d="M21.9995 12.999V20.9995" stroke="#DC1D47" stroke-miterlimit="10" stroke-linecap="round" stroke-linejoin="round"/>
</g>
<defs>
<clipPath id="clip0_75_404">
<rect width="32" height="32" fill="white"/>
</clipPath>
</defs>
</svg>
