<svg width="600" height="400" viewBox="0 0 600 400" fill="none" xmlns="http://www.w3.org/2000/svg">
<path d="M591.63 66.7598L591.49 67.1831L591.895 67.3706C592.101 67.4662 592.301 67.5741 592.495 67.6938L592.497 67.6953L592.508 67.7035L592.52 67.711C593.807 68.525 594.718 69.818 595.053 71.3057C595.388 72.7935 595.12 74.3538 594.308 75.6432C593.496 76.9327 592.206 77.8455 590.722 78.1814C589.239 78.5173 587.683 78.2489 586.396 77.4349C586.201 77.3109 586.014 77.1742 585.837 77.0258L585.493 76.7381L585.17 77.0487C583.369 78.7787 581.32 80.2285 579.091 81.3497L578.692 81.5502L578.846 81.969C578.927 82.1881 578.994 82.4121 579.047 82.6396L579.048 82.6437C579.226 83.3849 579.256 84.1543 579.136 84.9072C579.015 85.66 578.746 86.3812 578.345 87.0289C577.943 87.6765 577.418 88.2376 576.798 88.6796C576.178 89.1216 575.477 89.4355 574.736 89.6034C573.994 89.7712 573.226 89.7895 572.477 89.6572C571.729 89.5249 571.013 89.2447 570.374 88.8328C569.734 88.4209 569.182 87.8855 568.75 87.2577C568.319 86.6299 568.016 85.9223 567.86 85.1761L567.86 85.1761L567.858 85.1696C567.808 84.9432 567.772 84.7138 567.75 84.4829L567.709 84.0383L567.263 84.0289C564.769 83.9764 562.297 83.5496 559.929 82.7624L559.507 82.6219L559.318 83.0257C559.22 83.2372 559.109 83.4428 558.987 83.6415C558.175 84.9298 556.885 85.8418 555.403 86.1775C553.919 86.5134 552.363 86.2449 551.077 85.4309C549.791 84.617 548.88 83.324 548.544 81.8363C548.378 81.0996 548.359 80.3374 548.487 79.5932C548.614 78.8489 548.887 78.1372 549.29 77.4988L549.291 77.4958C549.413 77.2998 549.547 77.1116 549.692 76.9323L549.968 76.5903L549.664 76.2724C547.938 74.4672 546.491 72.4135 545.37 70.1793L545.169 69.779L544.749 69.9346C544.533 70.0148 544.312 70.0814 544.088 70.1341C542.614 70.4474 541.076 70.1667 539.806 69.3523C538.536 68.5371 537.636 67.2525 537.304 65.7769C536.971 64.3012 537.232 62.7537 538.03 61.4697C538.827 60.1868 540.096 59.2705 541.562 58.9184C541.787 58.8683 542.015 58.8325 542.245 58.8111L542.69 58.7697L542.699 58.3237C542.751 55.8238 543.177 53.3459 543.963 50.9726L544.103 50.55L543.699 50.3622C542.986 50.0306 542.349 49.5556 541.827 48.9667C541.305 48.3779 540.909 47.6877 540.664 46.939C540.419 46.1903 540.331 45.3992 540.403 44.6146C540.476 43.83 540.709 43.0689 541.088 42.3784C541.466 41.6879 541.982 41.0828 542.604 40.6006C543.225 40.1185 543.939 39.7695 544.7 39.5753C545.461 39.3811 546.255 39.3458 547.03 39.4716C547.806 39.5974 548.547 39.8816 549.209 40.3067L549.209 40.3067L549.215 40.3103C549.41 40.4322 549.598 40.5661 549.777 40.7114L550.12 40.9899L550.439 40.6837C552.239 38.9533 554.288 37.5035 556.517 36.3828L556.915 36.1829L556.763 35.7647C556.492 35.0247 556.377 34.237 556.423 33.4504C556.47 32.6639 556.677 31.8953 557.032 31.1924C557.387 30.4895 557.882 29.8672 558.487 29.3643C559.092 28.8613 559.793 28.4884 560.548 28.2685C561.302 28.0486 562.094 27.9864 562.873 28.0859C563.652 28.1853 564.403 28.4442 565.079 28.8466C565.754 29.249 566.34 29.7862 566.8 30.4251C567.26 31.064 567.584 31.7908 567.752 32.5605L567.752 32.5608C567.802 32.7887 567.838 33.0195 567.86 33.2517L567.903 33.6942L568.348 33.7036C570.839 33.756 573.308 34.1821 575.673 34.9679L576.094 35.1079L576.283 34.7058C576.382 34.494 576.494 34.2882 576.616 34.0893C577.019 33.4516 577.542 32.8994 578.157 32.4643C578.772 32.0289 579.467 31.7191 580.201 31.5528C580.936 31.3865 581.696 31.3668 582.438 31.4949C583.18 31.623 583.89 31.8963 584.527 32.2993C585.164 32.7024 585.715 33.2273 586.15 33.844C586.584 34.4608 586.894 35.1574 587.06 35.894C587.226 36.6307 587.245 37.3929 587.118 38.1371C586.99 38.8808 586.717 39.5919 586.315 40.23C586.19 40.4262 586.052 40.6147 585.904 40.7946L585.622 41.1373L585.929 41.4579C587.655 43.2626 589.102 45.3163 590.221 47.5507L590.421 47.95L590.84 47.7963C591.578 47.5258 592.363 47.4101 593.148 47.4566C593.932 47.503 594.698 47.7104 595.4 48.0661C596.101 48.4218 596.721 48.9181 597.223 49.5243C597.725 50.1306 598.097 50.8338 598.317 51.5903C598.536 52.3469 598.599 53.1406 598.499 53.9223C598.4 54.7039 598.141 55.4566 597.74 56.1339C597.338 56.8111 596.802 57.3984 596.165 57.8592C595.528 58.32 594.803 58.6446 594.035 58.8128L594.033 58.8133C593.807 58.8638 593.578 58.8999 593.348 58.9214L592.903 58.9629L592.894 59.4088C592.842 61.9087 592.416 64.3866 591.63 66.7598ZM556.756 63.7786C557.727 65.966 559.323 67.8161 561.343 69.0947C562.684 69.9437 564.179 70.5197 565.742 70.7897C567.306 71.0597 568.907 71.0183 570.455 70.6681C572.002 70.3178 573.465 69.6655 574.761 68.7484C576.057 67.8313 577.16 66.6674 578.007 65.3233C579.282 63.299 579.93 60.9413 579.868 58.5483C579.807 56.1553 579.039 53.8342 577.661 51.8785C576.283 49.9229 574.357 48.4205 572.127 47.5614C569.897 46.7024 567.463 46.5254 565.132 47.0529C562.802 47.5804 560.68 48.7886 559.035 50.5246C557.39 52.2605 556.295 54.4463 555.89 56.8054C555.484 59.1645 555.786 61.5911 556.756 63.7786Z" stroke="#141414"/>
<path d="M539.639 21.8796L539.627 21.9613L539.254 22.1107L539.585 22.2456L539.574 22.3194L540.003 22.4355C540.065 22.4522 540.126 22.4706 540.187 22.4907L540.401 22.5777C540.836 22.7546 541.231 23.0159 541.565 23.3465C541.899 23.6771 542.164 24.0706 542.346 24.5045C542.528 24.9384 542.622 25.404 542.624 25.8746C542.626 26.3452 542.535 26.8115 542.356 27.2467C542.178 27.6818 541.915 28.0773 541.584 28.4104C541.252 28.7436 540.859 29.0077 540.425 29.1878C539.992 29.3679 539.527 29.4604 539.058 29.4601C538.59 29.4597 538.125 29.3667 537.693 29.1862C537.563 29.1313 537.437 29.0681 537.315 28.997L536.926 28.7694L536.659 29.1332C535.708 30.4329 534.567 31.582 533.275 32.5423L532.917 32.8081L533.14 33.1939C533.212 33.3172 533.275 33.4448 533.331 33.576L533.331 33.576L533.333 33.5808C533.523 34.0153 533.624 34.4834 533.632 34.9578C533.639 35.4321 533.552 35.9031 533.376 36.3433C533.2 36.7836 532.938 37.1842 532.605 37.5218C532.273 37.8594 531.877 38.1272 531.441 38.3098C531.004 38.4924 530.536 38.586 530.063 38.5853C529.59 38.5846 529.122 38.4895 528.687 38.3056C528.251 38.1217 527.856 37.8526 527.524 37.5139C527.193 37.1753 526.933 36.7739 526.758 36.3331L526.758 36.3331L526.755 36.3269C526.7 36.1937 526.654 36.0572 526.617 35.918L526.501 35.4851L526.058 35.5534C524.468 35.7983 522.851 35.8025 521.261 35.5661L520.821 35.5007L520.705 35.9302C520.667 36.0702 520.621 36.2078 520.567 36.3425C520.206 37.2179 519.513 37.9136 518.641 38.2771C517.768 38.6408 516.787 38.6421 515.913 38.2807C515.039 37.9193 514.344 37.2246 513.98 36.3491C513.618 35.4742 513.616 34.4906 513.976 33.6145C514.031 33.4846 514.094 33.3583 514.165 33.2363L514.39 32.8483L514.029 32.5824C512.733 31.6287 511.587 30.4853 510.63 29.1904L510.365 28.8316L509.978 29.0545C509.858 29.1238 509.734 29.1862 509.606 29.2415C508.748 29.5526 507.804 29.5219 506.968 29.1554C506.127 28.7871 505.46 28.1078 505.107 27.2587C504.753 26.4096 504.74 25.4564 505.07 24.5977C505.398 23.7434 506.041 23.0484 506.865 22.6557C506.996 22.6029 507.13 22.5576 507.266 22.52L507.694 22.4017L507.627 21.9623C507.383 20.3691 507.378 18.7481 507.614 17.1536L507.68 16.7115L507.248 16.5971C507.109 16.5604 506.973 16.5147 506.84 16.4604L506.84 16.4603L506.833 16.4575C506.393 16.2848 505.991 16.0258 505.651 15.6956C505.311 15.3655 505.04 14.9707 504.854 14.5343C504.668 14.0979 504.571 13.6288 504.568 13.1542C504.565 12.6796 504.656 12.2092 504.836 11.7704C505.016 11.3316 505.282 10.9332 505.617 10.5985C505.953 10.2638 506.351 9.99951 506.789 9.82094C507.228 9.64237 507.697 9.55311 508.17 9.55833C508.643 9.56356 509.11 9.66316 509.545 9.85137L509.546 9.85199C509.678 9.90851 509.806 9.97272 509.93 10.0443L510.318 10.2682L510.583 9.90685C511.535 8.60816 512.676 7.45972 513.968 6.49972L514.324 6.23477L514.103 5.84956C514.032 5.72576 513.968 5.59794 513.912 5.46672C513.548 4.59173 513.546 3.60768 513.905 2.73083C514.265 1.85326 514.958 1.15525 515.831 0.789986C516.704 0.424736 517.685 0.421985 518.56 0.78234C519.435 1.14264 520.132 1.83658 520.496 2.7119C520.551 2.84412 520.597 2.97977 520.635 3.11801L520.751 3.55003L521.193 3.48209C522.783 3.23792 524.4 3.23435 525.99 3.47149L526.431 3.53713L526.547 3.10746C526.584 2.96769 526.63 2.83026 526.684 2.69586C527.047 1.82494 527.738 1.13352 528.608 0.772276C529.478 0.410635 530.456 0.409194 531.327 0.76827C532.198 1.12736 532.892 1.8179 533.257 2.68913C533.622 3.55892 533.628 4.53782 533.275 5.4122C533.219 5.54259 533.156 5.66962 533.085 5.79266L532.863 6.17971L533.222 6.44427C534.518 7.39819 535.664 8.5416 536.622 9.83635L536.888 10.1971L537.276 9.97076C537.398 9.8996 537.524 9.83634 537.654 9.78134C538.085 9.60118 538.548 9.5079 539.015 9.5068C539.483 9.50569 539.946 9.59693 540.379 9.77534C540.812 9.95375 541.205 10.2159 541.537 10.5467C541.869 10.8776 542.132 11.2708 542.312 11.7039C542.492 12.137 542.586 12.6014 542.587 13.0707C542.588 13.54 542.497 14.0049 542.319 14.4388C542.141 14.8727 541.879 15.2671 541.549 15.5996C541.219 15.9314 540.828 16.1949 540.397 16.3754C540.262 16.4297 540.125 16.4767 539.985 16.5161L539.559 16.6361L539.626 17.0732C539.871 18.6657 539.875 20.2859 539.639 21.8796ZM520.563 26.9727L520.654 27.0104H520.658C522.608 27.7846 524.784 27.7658 526.722 26.9553C528.691 26.1318 530.253 24.5588 531.065 22.5822L531.065 22.582C531.67 21.1072 531.826 19.4858 531.511 17.9227C531.197 16.3596 530.427 14.9249 529.299 13.8C528.171 12.6751 526.735 11.9107 525.173 11.6034C523.612 11.2962 521.994 11.46 520.525 12.0742C519.056 12.6883 517.802 13.7251 516.922 15.0533C516.041 16.3815 515.573 17.9415 515.577 19.536C515.581 21.1305 516.057 22.6881 516.944 24.0118C517.832 25.3355 519.091 26.366 520.563 26.9727Z" stroke="#141414"/>
<path d="M599.486 76.6508H424.344V216.424H599.486V76.6508Z" fill="white"/>
<path d="M599.486 216.907H438.121C437.999 216.899 437.885 216.845 437.802 216.755C437.718 216.666 437.672 216.548 437.672 216.425C437.672 216.303 437.718 216.185 437.802 216.095C437.885 216.006 437.999 215.952 438.121 215.943H599.006V77.1404H537.591C537.469 77.1322 537.354 77.0778 537.271 76.9883C537.188 76.8989 537.141 76.7809 537.141 76.6584C537.141 76.5359 537.188 76.418 537.271 76.3285C537.354 76.239 537.469 76.1847 537.591 76.1764H599.486C599.549 76.1762 599.611 76.1884 599.67 76.2124C599.728 76.2365 599.782 76.2718 599.826 76.3165C599.871 76.3612 599.907 76.4143 599.931 76.4728C599.955 76.5313 599.968 76.594 599.968 76.6573V216.431C599.966 216.558 599.914 216.679 599.824 216.768C599.734 216.857 599.612 216.907 599.486 216.907Z" fill="#141414"/>
<path d="M327.673 115.831H81.4366C76.2829 115.831 71.7726 111.643 71.3604 106.477L63.6723 10.009C63.2623 4.84373 67.1074 0.655532 72.2611 0.655532H318.497C323.651 0.655532 328.161 4.84373 328.574 10.009L336.244 106.486C336.672 111.652 332.827 115.831 327.673 115.831Z" fill="white"/>
<path d="M327.671 116.323H81.4345C76.043 116.323 71.308 111.927 70.8784 106.526L63.199 10.0462C63.0754 8.78538 63.2189 7.51261 63.6202 6.31126C64.0215 5.10992 64.6716 4.00713 65.5278 3.07512C66.384 2.14312 67.427 1.40294 68.5885 0.903093C69.75 0.403244 71.0038 0.155001 72.2677 0.174628H318.504C323.893 0.174628 328.628 4.5683 329.058 9.96968L336.735 106.449C336.859 107.71 336.716 108.983 336.314 110.185C335.913 111.386 335.263 112.489 334.407 113.422C333.551 114.354 332.508 115.094 331.346 115.594C330.184 116.094 328.93 116.342 327.666 116.323H327.671ZM72.2742 1.13861C71.143 1.11868 70.0204 1.33919 68.9804 1.78561C67.9404 2.23203 67.0066 2.89423 66.2405 3.72858C65.4743 4.56294 64.8933 5.55051 64.5356 6.62626C64.1779 7.702 64.0517 8.84149 64.1652 9.96968L71.838 106.449C72.2284 111.361 76.5337 115.359 81.4345 115.359H327.671C328.802 115.378 329.925 115.158 330.965 114.711C332.005 114.264 332.939 113.602 333.705 112.767C334.471 111.933 335.053 110.945 335.41 109.869C335.768 108.794 335.895 107.654 335.782 106.526L328.109 10.0462C327.719 5.13445 323.413 1.13861 318.513 1.13861H72.2742Z" fill="#141414"/>
<path d="M229.536 31.9096H166.736C165.743 31.8935 164.79 31.5104 164.061 30.834C163.333 30.1575 162.878 29.2352 162.786 28.2439L162.703 27.2165C162.657 26.7481 162.71 26.2751 162.858 25.8286C163.007 25.3821 163.249 24.9723 163.567 24.6259C163.885 24.2795 164.272 24.0044 164.704 23.8187C165.135 23.6331 165.601 23.541 166.071 23.5485H228.871C229.864 23.5652 230.817 23.9487 231.545 24.6256C232.274 25.3024 232.728 26.2249 232.821 27.2165L232.903 28.2439C232.95 28.7121 232.897 29.1848 232.748 29.6311C232.599 30.0773 232.357 30.4869 232.039 30.833C231.721 31.1792 231.334 31.454 230.903 31.6396C230.471 31.8251 230.005 31.9171 229.536 31.9096Z" fill="#141414"/>
<path d="M257.113 49.3794H168.127C167.134 49.3632 166.181 48.98 165.451 48.3031C164.722 47.6262 164.268 46.7033 164.175 45.7114L164.095 44.6841C164.048 44.2158 164.101 43.7429 164.25 43.2965C164.399 42.8501 164.64 42.4404 164.958 42.0941C165.276 41.7479 165.664 41.4731 166.095 41.2877C166.527 41.1022 166.993 41.0104 167.462 41.0183H256.448C257.44 41.0342 258.391 41.4159 259.12 42.0905C259.849 42.7652 260.305 43.6854 260.399 44.6753L260.48 45.7027C260.528 46.1719 260.477 46.6459 260.329 47.0936C260.181 47.5413 259.94 47.9525 259.621 48.2999C259.303 48.6474 258.915 48.9232 258.483 49.1093C258.05 49.2954 257.583 49.3874 257.113 49.3794Z" fill="#141414"/>
<path d="M139.388 81.9421C151.925 68.655 150.45 46.8532 136.093 33.2463C121.737 19.6395 99.9355 19.3804 87.3986 32.6675C74.8618 45.9546 76.337 67.7564 90.6935 81.3632C105.05 94.97 126.852 95.2292 139.388 81.9421Z" fill="white"/>
<path d="M116.13 92.2232C96.9153 92.2232 80.0299 76.5677 78.5032 57.3361C77.7595 47.9914 80.7038 39.204 86.791 32.5982C92.8782 25.9924 101.334 22.3813 110.647 22.3813C129.862 22.3813 146.736 38.028 148.267 57.2596C149.011 66.6065 146.067 75.4026 139.979 81.9975C133.892 88.5924 125.443 92.2232 116.13 92.2232ZM110.653 23.3453C101.613 23.3453 93.3908 26.8624 87.5042 33.2518C81.6177 39.6412 78.7474 48.1859 79.4694 57.2596C80.959 76.0038 97.406 91.2505 116.13 91.2505C125.17 91.2505 133.393 87.7333 139.279 81.3439C145.166 74.9545 148.036 66.412 147.314 57.3361C145.824 38.5941 129.377 23.3453 110.653 23.3453Z" fill="#141414"/>
<mask id="mask0_117_3" style="mask-type:luminance" maskUnits="userSpaceOnUse" x="83" y="27" width="61" height="61">
<path d="M136.16 78.8827C147.141 67.2446 145.85 48.1494 133.276 36.2322C120.702 24.315 101.608 24.0888 90.6266 35.7268C79.6457 47.3649 80.937 66.4602 93.5108 78.3773C106.085 90.2945 125.18 90.5208 136.16 78.8827Z" fill="white"/>
</mask>
<g mask="url(#mask0_117_3)">
<path d="M128.544 43.0206C128.944 42.1711 129.113 41.2306 129.033 40.2948C128.891 38.7742 128.194 37.3598 127.075 36.3227C125.957 35.2856 124.495 34.6988 122.972 34.6748C122.415 34.673 121.861 34.7578 121.33 34.9262C121.34 34.6828 121.336 34.439 121.319 34.1961C121.048 30.7948 118.073 28.0362 114.675 28.0362C113.376 28.0129 112.11 28.4455 111.096 29.259C110.081 30.0725 109.383 31.2158 109.12 32.4911C108.076 31.5296 106.713 30.9906 105.295 30.9784C104.654 30.967 104.017 31.0842 103.421 31.3231C102.826 31.562 102.284 31.9178 101.828 32.3695C101.372 32.8212 101.01 33.3597 100.765 33.9534C100.519 34.5471 100.395 35.1841 100.398 35.8268C99.5162 35.2772 98.4992 34.9836 97.4606 34.9786C96.78 34.967 96.1047 35.0998 95.479 35.3683C94.8533 35.6368 94.2914 36.035 93.8302 36.5367C93.3689 37.0384 93.0189 37.6322 92.8029 38.2792C92.587 38.9261 92.5101 39.6115 92.5773 40.2904C92.6497 41.1024 92.892 41.89 93.2884 42.6018C93.6849 43.3137 94.2266 43.9338 94.8782 44.4217C93.5584 44.7635 92.4039 45.5668 91.6232 46.6868C90.8425 47.8068 90.487 49.1696 90.6209 50.5292C90.727 51.6715 91.1132 52.7698 91.7453 53.7263C92.3773 54.6828 93.2356 55.4678 94.2436 56.0114C94.0163 56.6203 93.9255 57.2718 93.9775 57.9197C94.0945 59.1699 94.6677 60.3329 95.5874 61.1856C96.507 62.0384 97.7084 62.5209 98.9611 62.5407C99.4649 62.5403 99.965 62.4538 100.44 62.285C100.39 62.6133 100.378 62.9462 100.403 63.2774C100.517 64.4852 101.072 65.6085 101.961 66.432C102.849 67.2556 104.01 67.7217 105.221 67.741C105.793 67.7506 106.36 67.6388 106.886 67.4129C107.412 67.187 107.884 66.8522 108.272 66.4305C108.66 66.0087 108.954 65.5096 109.135 64.9658C109.317 64.422 109.382 63.8458 109.325 63.2752C109.129 60.8095 113.84 60.0728 114.067 62.9233C114.196 64.3192 114.836 65.6179 115.863 66.5698C116.89 67.5216 118.232 68.0594 119.631 68.0798C120.29 68.0909 120.945 67.9621 121.552 67.702C122.159 67.4418 122.704 67.056 123.151 66.57C123.599 66.084 123.939 65.5087 124.15 64.8817C124.36 64.2548 124.436 63.5904 124.372 62.932C124.326 62.3709 124.192 61.8205 123.975 61.3013C124.065 61.3013 124.154 61.3144 124.243 61.3144C124.875 61.3255 125.501 61.2026 126.082 60.9536C126.663 60.7047 127.184 60.3354 127.612 59.87C128.04 59.4046 128.365 58.8537 128.566 58.2535C128.766 57.6532 128.838 57.0173 128.776 56.3874C128.776 56.2803 128.749 56.1688 128.734 56.0661C128.817 56.0661 128.898 56.0792 128.981 56.0792C132.592 56.0792 135.286 53.1501 134.998 49.5346C134.727 46.1224 131.897 43.3244 128.544 43.0206Z" fill="white"/>
<path d="M119.631 68.5695C118.112 68.544 116.656 67.9586 115.541 66.925C114.426 65.8914 113.731 64.4823 113.587 62.967C113.471 61.5133 111.984 61.5593 111.685 61.5811C110.717 61.6598 109.722 62.2675 109.805 63.2446C109.867 63.8811 109.794 64.5236 109.591 65.1299C109.388 65.7363 109.06 66.2928 108.627 66.7632C108.195 67.2337 107.668 67.6073 107.082 67.8598C106.496 68.1123 105.863 68.2379 105.225 68.2285C103.894 68.207 102.619 67.6944 101.642 66.789C100.664 65.8836 100.055 64.6488 99.9295 63.3211C99.9186 63.1921 99.9142 63.0632 99.9142 62.9342C99.6016 62.9954 99.2839 63.0261 98.9655 63.026C97.5948 63.001 96.2812 62.471 95.2755 61.5373C94.2698 60.6035 93.6424 59.3313 93.5129 57.9634C93.4644 57.3825 93.5205 56.7976 93.6787 56.2366C92.6927 55.6319 91.861 54.8052 91.2495 53.822C90.6381 52.8389 90.2638 51.7264 90.1563 50.5729C89.9382 47.7553 91.465 45.2611 93.9426 44.2338C92.8868 43.194 92.237 41.81 92.1105 40.3319C92.038 39.5866 92.1233 38.8343 92.3609 38.1243C92.5985 37.4143 92.983 36.7626 93.4893 36.2118C93.9956 35.6611 94.6122 35.2237 95.2988 34.9283C95.9854 34.6329 96.7265 34.4862 97.4736 34.4977C98.3416 34.5004 99.1988 34.6913 99.9862 35.0573C100.171 33.7797 100.813 32.6129 101.791 31.7738C102.77 30.9347 104.02 30.4804 105.308 30.4953C106.585 30.5009 107.829 30.9059 108.865 31.6539C109.283 30.4437 110.07 29.3961 111.115 28.66C112.161 27.9239 113.411 27.5366 114.688 27.5531C118.326 27.5531 121.521 30.515 121.812 34.1545C121.812 34.2048 121.812 34.2529 121.812 34.3032C122.195 34.2278 122.585 34.1898 122.976 34.1895C126.318 34.1895 129.251 36.911 129.519 40.2554C129.585 41.0561 129.487 41.8619 129.229 42.6227C130.877 42.9259 132.381 43.7617 133.511 45.0023C134.641 46.243 135.334 47.8203 135.484 49.4931C135.57 50.3717 135.475 51.2586 135.204 52.0987C134.933 52.9387 134.493 53.7139 133.91 54.376C133.327 55.0381 132.615 55.5729 131.817 55.9472C131.019 56.3214 130.153 56.5271 129.273 56.5513C129.347 57.8565 128.903 59.1381 128.039 60.117C127.175 61.0959 125.959 61.6929 124.658 61.7778C124.761 62.1405 124.828 62.5124 124.858 62.8883C124.929 63.6142 124.847 64.3469 124.616 65.0385C124.384 65.7301 124.01 66.3649 123.517 66.9015C123.024 67.4381 122.424 67.8642 121.755 68.152C121.087 68.4398 120.365 68.5828 119.637 68.5716L119.631 68.5695ZM111.873 60.6106C113.116 60.6106 114.411 61.2969 114.54 62.8905C114.661 64.1655 115.246 65.3512 116.184 66.221C117.121 67.0909 118.346 67.5838 119.624 67.6055C120.219 67.6165 120.809 67.5011 121.355 67.2669C121.902 67.0327 122.393 66.6849 122.796 66.2467C123.199 65.8084 123.505 65.2895 123.693 64.7241C123.881 64.1588 123.947 63.5599 123.888 62.967C123.844 62.4566 123.722 61.956 123.526 61.4827C123.495 61.4074 123.483 61.3253 123.492 61.2443C123.501 61.1632 123.531 61.0858 123.578 61.0193C123.624 60.9519 123.687 60.8979 123.761 60.8626C123.834 60.8273 123.916 60.812 123.997 60.8182H124.084C124.134 60.8182 124.187 60.8182 124.237 60.8182C124.802 60.8288 125.362 60.7192 125.882 60.4968C126.402 60.2743 126.868 59.944 127.251 59.5276C127.634 59.1112 127.925 58.6182 128.103 58.081C128.282 57.5439 128.346 56.9749 128.289 56.4114C128.289 56.3349 128.272 56.2606 128.261 56.1929V56.1273C128.251 56.0574 128.257 55.9863 128.277 55.9188C128.298 55.8513 128.332 55.789 128.379 55.736C128.426 55.6844 128.484 55.6434 128.549 55.6159C128.614 55.5884 128.683 55.575 128.754 55.5764H128.871H128.985C129.758 55.5926 130.525 55.444 131.236 55.1404C131.947 54.8368 132.585 54.3852 133.109 53.8156C133.633 53.2459 134.029 52.5712 134.273 51.8361C134.517 51.1011 134.602 50.3225 134.522 49.5521C134.274 46.4306 131.633 43.7638 128.505 43.4796C128.428 43.4732 128.353 43.448 128.288 43.4062C128.222 43.3644 128.168 43.3072 128.129 43.2396C128.091 43.172 128.069 43.096 128.067 43.0182C128.064 42.9405 128.081 42.8632 128.115 42.7932C128.475 42.0198 128.626 41.1648 128.551 40.3144C128.419 38.9145 127.776 37.6125 126.747 36.6572C125.717 35.702 124.372 35.1604 122.97 35.136C122.459 35.1426 121.953 35.2281 121.469 35.3896C121.396 35.4127 121.317 35.4178 121.241 35.4044C121.165 35.3911 121.094 35.3596 121.032 35.3127C120.971 35.2658 120.922 35.2048 120.889 35.1349C120.856 35.065 120.84 34.9881 120.843 34.9109C120.857 34.6866 120.857 34.4618 120.843 34.2376C120.592 31.0877 117.827 28.5236 114.68 28.5236C113.493 28.5053 112.336 28.9013 111.409 29.6439C110.481 30.3865 109.84 31.4294 109.596 32.5938C109.578 32.6769 109.539 32.7539 109.483 32.817C109.426 32.8802 109.354 32.9274 109.274 32.9538C109.193 32.9801 109.107 32.9848 109.024 32.9673C108.942 32.9497 108.865 32.9106 108.802 32.8539C107.847 31.9667 106.597 31.4679 105.295 31.4549C104.716 31.4411 104.14 31.5443 103.601 31.7584C103.063 31.9726 102.573 32.2932 102.16 32.7012C101.748 33.1092 101.422 33.5962 101.202 34.1332C100.982 34.6702 100.872 35.2462 100.878 35.8268C100.878 35.9121 100.855 35.9959 100.812 36.0693C100.769 36.1427 100.706 36.2032 100.632 36.2443C100.558 36.2873 100.474 36.3099 100.389 36.3099C100.303 36.3099 100.219 36.2873 100.145 36.2443C99.3394 35.7411 98.4101 35.4718 97.4606 35.4661C96.8463 35.455 96.2366 35.5744 95.6717 35.8166C95.1068 36.0588 94.5996 36.4181 94.1833 36.8711C93.7671 37.324 93.4513 37.8601 93.2568 38.4442C93.0623 39.0283 92.9935 39.6471 93.0549 40.2598C93.1222 41.0039 93.3452 41.7254 93.7094 42.3774C94.0735 43.0293 94.5706 43.5971 95.1683 44.0436C95.2406 44.0981 95.296 44.172 95.3282 44.2567C95.3604 44.3414 95.3681 44.4335 95.3503 44.5224C95.3325 44.6113 95.29 44.6933 95.2277 44.7591C95.1654 44.8248 95.0859 44.8715 94.9982 44.8939C92.4944 45.5497 90.8914 47.8536 91.1007 50.4986C91.2024 51.5603 91.5634 52.5805 92.1519 53.4692C92.7403 54.3578 93.5381 55.0876 94.4747 55.5939C94.576 55.65 94.6537 55.7407 94.6937 55.8494C94.7338 55.9582 94.7335 56.0778 94.6928 56.1863C94.4901 56.7296 94.4096 57.311 94.4573 57.8891C94.5659 59.0171 95.0851 60.0656 95.9158 60.8344C96.7465 61.6033 97.8305 62.0387 98.9611 62.0576C99.4064 62.0587 99.8488 61.9848 100.27 61.8391C100.348 61.8111 100.432 61.8039 100.514 61.8181C100.595 61.8322 100.672 61.8673 100.736 61.9199C100.799 61.9726 100.848 62.0402 100.877 62.1167C100.907 62.1931 100.917 62.2758 100.907 62.3571C100.864 62.6465 100.853 62.9397 100.874 63.2315C100.977 64.3193 101.476 65.3309 102.276 66.073C103.077 66.815 104.122 67.2353 105.212 67.2535C105.717 67.2631 106.218 67.1654 106.682 66.9669C107.146 66.7684 107.563 66.4736 107.906 66.1019C108.248 65.7302 108.508 65.29 108.669 64.8104C108.829 64.3307 108.886 63.8224 108.837 63.3189C108.71 61.7188 110.167 60.733 111.6 60.6193C111.698 60.6149 111.788 60.6106 111.873 60.6106Z" fill="#141414"/>
<path d="M131.591 71.8439L114.237 67.9093L97.5064 71.8439C95.3237 72.34 93.3303 73.4566 91.765 75.0599C90.1998 76.6631 89.1293 78.6849 88.682 80.8827L86.5381 100.438H147.107L141.853 80.8827C141.019 78.6443 139.646 76.6475 137.856 75.0704C136.065 73.4932 133.913 72.3848 131.591 71.8439Z" fill="white"/>
<path d="M147.107 100.921H86.5381C86.4707 100.92 86.4041 100.906 86.3426 100.879C86.281 100.851 86.2258 100.811 86.1804 100.761C86.1351 100.711 86.101 100.651 86.0803 100.586C86.0597 100.521 86.0529 100.453 86.0604 100.385L88.2044 80.8302C88.6648 78.5339 89.7774 76.4198 91.4083 74.7422C93.0392 73.0646 95.1189 71.895 97.3973 71.374L114.126 67.4393C114.197 67.4226 114.272 67.4226 114.344 67.4393L131.698 71.374C134.098 71.9339 136.322 73.0796 138.172 74.7092C140.023 76.3388 141.443 78.4017 142.307 80.7143L147.571 100.311C147.59 100.382 147.592 100.457 147.577 100.529C147.563 100.601 147.533 100.67 147.489 100.729C147.444 100.788 147.386 100.836 147.32 100.869C147.254 100.903 147.181 100.92 147.107 100.921ZM87.0768 99.9569H146.479L141.388 81.0073C140.578 78.8535 139.251 76.9333 137.523 75.4168C135.796 73.9004 133.721 72.8346 131.484 72.3139L114.237 68.4099L97.6154 72.3117C95.5227 72.7887 93.6116 73.8601 92.1107 75.3977C90.6099 76.9352 89.5831 78.8737 89.1531 80.981L87.0768 99.9569Z" fill="#141414"/>
<path d="M107.19 70.6089L108.409 57.3536H118.383L121.674 70.4603L107.19 70.6089Z" fill="white"/>
<path d="M124.946 47.8099C124.423 47.6832 123.873 47.7221 123.373 47.9214C122.407 41.1145 117.402 36.5 111.737 36.5C106.073 36.5 101.803 41.1145 101.923 47.9214C101.417 47.724 100.863 47.6851 100.335 47.8099C98.7757 48.2055 98.0124 50.0483 98.6274 51.9238C99.2424 53.7993 101.003 54.9994 102.553 54.6037C102.796 54.5412 103.028 54.4393 103.238 54.302C105.277 59.3296 109.404 63.1768 113.855 63.1768C118.307 63.1768 121.82 59.3296 123.059 54.302C123.288 54.4378 123.536 54.5394 123.794 54.6037C125.415 54.9994 126.985 53.7993 127.301 51.9238C127.617 50.0483 126.566 48.2055 124.946 47.8099Z" fill="white"/>
<path d="M101.919 47.9214C101.413 47.724 100.859 47.6851 100.331 47.8099C98.7713 48.2055 98.008 50.0483 98.623 51.9238C99.2381 53.7993 100.998 54.9993 102.549 54.6037C102.792 54.5412 103.023 54.4393 103.234 54.302C105.273 59.3296 109.399 63.1768 113.851 63.1768C118.302 63.1768 121.816 59.3296 123.055 54.302C123.284 54.4378 123.531 54.5394 123.79 54.6037C125.41 54.9993 126.981 53.7993 127.297 51.9238C127.613 50.0483 126.557 48.2077 124.937 47.8099C124.414 47.6832 123.864 47.7221 123.364 47.9214H101.919Z" fill="white"/>
<path d="M113.86 63.6599C109.598 63.6599 105.286 60.1865 103 54.9666C102.894 55.0078 102.786 55.0428 102.675 55.0715C100.878 55.5262 98.8564 54.1818 98.165 52.0746C97.9769 51.542 97.8993 50.9764 97.9368 50.4126C97.9743 49.8489 98.1262 49.2987 98.3831 48.7958C98.5721 48.44 98.8327 48.1275 99.1484 47.8781C99.4642 47.6286 99.8282 47.4476 100.217 47.3465C100.84 47.1953 101.494 47.2388 102.091 47.4711C102.204 47.5201 102.294 47.6108 102.343 47.7244C102.391 47.8381 102.395 47.9661 102.352 48.0821C102.309 48.1981 102.224 48.2932 102.113 48.3479C102.002 48.4026 101.875 48.4126 101.757 48.376C101.341 48.211 100.884 48.1774 100.449 48.2799C100.186 48.3475 99.941 48.4699 99.729 48.6391C99.5171 48.8082 99.3431 49.0202 99.2185 49.2614C99.0266 49.6491 98.9153 50.0718 98.8913 50.5039C98.8673 50.936 98.9311 51.3685 99.0789 51.7751C99.6154 53.4124 101.12 54.4726 102.44 54.1403C102.633 54.0902 102.817 54.009 102.985 53.8998C103.044 53.8611 103.111 53.836 103.181 53.8266C103.25 53.8171 103.321 53.8235 103.389 53.8452C103.456 53.8668 103.518 53.9028 103.57 53.9508C103.622 53.9987 103.662 54.0574 103.69 54.1228C105.768 59.2531 109.855 62.6981 113.86 62.6981C117.864 62.6981 121.343 59.2794 122.597 54.1906C122.615 54.1177 122.649 54.05 122.698 53.9928C122.746 53.9355 122.807 53.8903 122.876 53.8605C122.946 53.8304 123.022 53.8174 123.097 53.8223C123.173 53.8272 123.247 53.8501 123.312 53.8889C123.501 54.0004 123.706 54.0843 123.918 54.1381C124.208 54.2081 124.508 54.217 124.801 54.1643C125.094 54.1116 125.373 53.9985 125.62 53.8321C125.948 53.602 126.225 53.3069 126.435 52.9652C126.644 52.6234 126.782 52.2422 126.839 51.8451C127.114 50.2166 126.217 48.6187 124.839 48.2821C124.412 48.178 123.964 48.2094 123.556 48.3717C123.498 48.3949 123.435 48.4064 123.372 48.4053C123.309 48.4043 123.246 48.3908 123.188 48.3656C123.131 48.3405 123.078 48.3041 123.034 48.2586C122.99 48.2132 122.956 48.1595 122.933 48.1006C122.909 48.0418 122.898 47.9789 122.899 47.9157C122.9 47.8524 122.914 47.79 122.939 47.7319C122.964 47.6739 123 47.6213 123.045 47.5773C123.091 47.5333 123.144 47.4987 123.203 47.4755C123.795 47.2395 124.446 47.1936 125.066 47.3443C126.924 47.799 128.145 49.8887 127.788 52.0069C127.707 52.533 127.52 53.0372 127.238 53.4883C126.956 53.9394 126.585 54.3279 126.147 54.6299C125.791 54.8698 125.388 55.0326 124.965 55.1079C124.543 55.1831 124.109 55.1693 123.692 55.0671C123.589 55.0409 123.489 55.0103 123.388 54.9753C121.905 60.1974 118.13 63.6599 113.86 63.6599Z" fill="#141414"/>
<path d="M101.919 47.9214C107.203 46.9115 112.372 43.8359 115.386 39.5275C116.346 43.355 119.703 46.3497 123.373 47.9214H101.919Z" fill="white"/>
<path d="M123.373 48.4045C123.309 48.4043 123.245 48.3909 123.186 48.3651C119.29 46.6973 116.374 43.8337 115.205 40.5811C112.139 44.4939 107.277 47.388 102.008 48.3957C101.884 48.4163 101.757 48.3875 101.653 48.3155C101.55 48.2434 101.479 48.1337 101.456 48.0099C101.432 47.8861 101.458 47.7579 101.527 47.6528C101.596 47.5476 101.704 47.4738 101.827 47.447C107.201 46.4219 112.121 43.3572 114.992 39.2521C115.044 39.1763 115.117 39.1173 115.202 39.0821C115.288 39.0468 115.381 39.037 115.472 39.0536C115.562 39.0702 115.646 39.1125 115.713 39.1756C115.781 39.2388 115.828 39.3199 115.851 39.4095C116.691 42.7539 119.574 45.7705 123.563 47.4776C123.665 47.5216 123.748 47.5994 123.8 47.6979C123.851 47.7964 123.867 47.9096 123.845 48.0185C123.822 48.1274 123.763 48.2252 123.677 48.2955C123.591 48.3658 123.484 48.4043 123.373 48.4045Z" fill="#141414"/>
<path d="M121.443 70.0275C121.336 70.0273 121.233 69.9916 121.149 69.9259C121.064 69.8602 121.005 69.7682 120.978 69.6646L118.828 61.098C118.812 61.0367 118.809 60.973 118.818 60.9105C118.827 60.8479 118.849 60.7877 118.881 60.7335C118.913 60.6792 118.956 60.6318 119.007 60.594C119.057 60.5562 119.115 60.5288 119.176 60.5133C119.237 60.4978 119.301 60.4945 119.363 60.5037C119.425 60.5128 119.485 60.5341 119.54 60.5665C119.594 60.5989 119.641 60.6417 119.679 60.6923C119.716 60.743 119.744 60.8007 119.759 60.862L121.905 69.4285C121.936 69.5526 121.917 69.6839 121.852 69.7937C121.786 69.9036 121.68 69.9829 121.556 70.0144C121.519 70.0227 121.481 70.0271 121.443 70.0275Z" fill="#141414"/>
<path d="M107.293 70.0275H107.249C107.186 70.022 107.125 70.0041 107.069 69.9748C107.013 69.9456 106.963 69.9055 106.923 69.857C106.882 69.8085 106.852 69.7524 106.833 69.692C106.814 69.6316 106.807 69.5681 106.813 69.505L107.594 61.0193C107.599 60.9563 107.617 60.8951 107.647 60.8391C107.676 60.783 107.716 60.7334 107.765 60.6929C107.813 60.6524 107.869 60.6218 107.929 60.603C107.99 60.5842 108.053 60.5775 108.116 60.5832C108.179 60.589 108.24 60.6071 108.296 60.6365C108.352 60.6659 108.401 60.7061 108.442 60.7547C108.482 60.8033 108.512 60.8594 108.531 60.9198C108.55 60.9802 108.557 61.0438 108.551 61.1068L107.77 69.5925C107.759 69.7115 107.704 69.822 107.615 69.9025C107.527 69.9829 107.412 70.0275 107.293 70.0275Z" fill="#141414"/>
</g>
<path d="M176.304 69.6843L179.519 75.3042L185.778 76.2048C187.013 76.3841 187.619 77.888 186.806 78.7492L182.675 83.1211L184.223 89.2984C184.529 90.516 183.327 91.445 182.188 90.8701L176.431 87.9563L171.126 90.8723C170.082 91.4472 168.727 90.5182 168.843 89.3006L169.408 83.1232L164.583 78.7514C163.63 77.8902 163.999 76.3863 165.205 76.207L171.312 75.3064L173.63 69.6865C174.093 68.576 175.672 68.576 176.304 69.6843Z" fill="#141413" fill-opacity="0.2"/>
<path d="M206.716 69.6843L209.929 75.3043L216.188 76.2048C217.423 76.3841 218.031 77.888 217.215 78.7492L213.087 83.1211L214.635 89.2984C214.941 90.516 213.737 91.445 212.6 90.8701L206.834 87.9541L201.532 90.8701C200.485 91.445 199.133 90.516 199.246 89.2984L199.813 83.1211L194.987 78.7492C194.036 77.888 194.404 76.3841 195.61 76.2048L201.717 75.3043L204.038 69.6843C204.505 68.576 206.092 68.576 206.716 69.6843Z" fill="#141413" fill-opacity="0.2"/>
<path d="M237.126 69.6843L240.334 75.3043L246.594 76.2048C247.828 76.3841 248.434 77.888 247.621 78.7492L243.49 83.1211L245.039 89.2984C245.344 90.516 244.142 91.445 243.004 90.8701L237.237 87.9541L231.935 90.8701C230.89 91.445 229.536 90.516 229.652 89.2984L230.216 83.1211L225.392 78.7492C224.439 77.888 224.808 76.3841 226.014 76.2048L232.121 75.3043L234.441 69.6843C234.914 68.576 236.491 68.576 237.126 69.6843Z" fill="#141413" fill-opacity="0.2"/>
<path d="M267.538 69.6843L270.751 75.3042L277.01 76.2048C278.245 76.3841 278.853 77.888 278.037 78.7492L273.909 83.1211L275.455 89.2984C275.76 90.516 274.559 91.445 273.422 90.8701L267.656 87.9541L262.362 90.8723C261.316 91.4472 259.963 90.5182 260.077 89.3006L260.644 83.1232L255.817 78.7514C254.866 77.8902 255.233 76.3863 256.441 76.207L262.548 75.3064L264.868 69.6865C265.324 68.576 266.903 68.576 267.538 69.6843Z" fill="#141413" fill-opacity="0.2"/>
<path d="M298.735 69.6843L301.95 75.3042L308.209 76.2048C309.444 76.3841 310.05 77.888 309.237 78.7492L305.106 83.1211L306.654 89.2984C306.96 90.516 305.758 91.445 304.62 90.8701L298.855 87.9541L293.551 90.8723C292.506 91.4472 291.152 90.5182 291.267 89.3006L291.832 83.1232L287.008 78.7514C286.057 77.8902 286.423 76.3863 287.629 76.207L293.747 75.3064L296.066 69.6865C296.524 68.576 298.103 68.576 298.735 69.6843Z" fill="white"/>
<path d="M292.868 91.5302C292.467 91.5273 292.076 91.4065 291.743 91.1827C291.424 90.979 291.167 90.692 290.998 90.3527C290.83 90.0134 290.757 89.6346 290.788 89.2569L291.333 83.32L286.685 79.1077C286.392 78.853 286.179 78.5195 286.07 78.1467C285.961 77.7739 285.961 77.3776 286.07 77.0049C286.168 76.6702 286.361 76.3712 286.625 76.1445C286.89 75.9178 287.215 75.7732 287.56 75.7283L293.407 74.8671L295.623 69.5007C295.752 69.1812 295.97 68.9055 296.251 68.7061C296.531 68.5066 296.863 68.3917 297.206 68.3749C297.598 68.3512 297.989 68.4392 298.333 68.6288C298.678 68.8183 298.961 69.1016 299.152 69.446L302.251 74.8605L308.277 75.7349C308.662 75.7911 309.024 75.9525 309.323 76.2011C309.622 76.4498 309.847 76.7763 309.974 77.1448C310.097 77.4727 310.125 77.8286 310.057 78.172C309.988 78.5155 309.825 78.8328 309.586 79.0881L305.638 83.261L307.121 89.1804C307.216 89.5288 307.208 89.8975 307.098 90.2415C306.988 90.5854 306.78 90.8897 306.5 91.1171C306.206 91.3482 305.851 91.4885 305.479 91.5211C305.107 91.5537 304.733 91.4772 304.404 91.3007L298.864 88.5071L293.784 91.3029C293.503 91.4546 293.188 91.5328 292.868 91.5302ZM298.855 87.4754C298.931 87.4753 299.005 87.4925 299.073 87.5257L304.84 90.4417C305.004 90.5353 305.192 90.5782 305.381 90.5649C305.57 90.5517 305.75 90.483 305.9 90.3673C306.036 90.2552 306.136 90.1055 306.187 89.9368C306.239 89.7681 306.24 89.5879 306.19 89.4187L304.643 83.2413C304.626 83.1645 304.627 83.0845 304.647 83.0082C304.667 82.932 304.706 82.8619 304.759 82.8041L308.89 78.4323C309.006 78.3039 309.084 78.1459 309.115 77.9757C309.147 77.8055 309.131 77.6298 309.069 77.4683C309 77.2667 308.877 77.088 308.714 76.9519C308.55 76.8157 308.352 76.7274 308.142 76.6967L301.885 75.7939C301.812 75.7845 301.743 75.7583 301.682 75.7173C301.622 75.6763 301.571 75.6217 301.536 75.5578L298.319 69.9269C298.217 69.7399 298.064 69.5855 297.879 69.4815C297.693 69.3775 297.482 69.3281 297.27 69.3389C297.105 69.3447 296.946 69.3982 296.811 69.4929C296.676 69.5875 296.572 69.7193 296.51 69.8723L294.19 75.4901C294.159 75.5674 294.108 75.6352 294.043 75.6867C293.977 75.7381 293.899 75.7713 293.817 75.783L287.71 76.6836C287.546 76.7037 287.391 76.7718 287.265 76.8795C287.139 76.9871 287.047 77.1296 287.001 77.2891C286.946 77.4867 286.949 77.696 287.01 77.8921C287.07 78.0882 287.185 78.2628 287.342 78.3951L292.166 82.7669C292.222 82.817 292.265 82.8794 292.292 82.9493C292.32 83.0191 292.33 83.0945 292.323 83.1692L291.758 89.3443C291.743 89.5476 291.784 89.751 291.876 89.9328C291.968 90.1145 292.107 90.2678 292.279 90.3761C292.431 90.4841 292.609 90.5481 292.795 90.5612C292.98 90.5743 293.165 90.536 293.331 90.4504L298.633 87.5344C298.701 87.4975 298.777 87.4773 298.855 87.4754Z" fill="#141414"/>
<path d="M315.143 399.507H68.9067C63.753 399.507 59.2427 395.319 58.8305 390.154L51.1577 293.674C50.7476 288.509 54.5928 284.321 59.7465 284.321H305.983C311.136 284.321 315.647 288.509 316.059 293.674L323.74 390.162C324.15 395.319 320.305 399.507 315.143 399.507Z" fill="white"/>
<path d="M315.143 399.999H68.9067C63.5175 399.999 58.7803 395.603 58.3506 390.202L50.68 293.724C50.5541 292.463 50.6958 291.189 51.096 289.986C51.4961 288.783 52.1457 287.678 53.0019 286.745C53.8582 285.811 54.9017 285.07 56.0641 284.569C57.2265 284.068 58.4815 283.82 59.7465 283.84H305.983C311.372 283.84 316.109 288.233 316.539 293.637L324.209 390.114C324.335 391.376 324.194 392.65 323.793 393.853C323.393 395.056 322.744 396.16 321.887 397.094C321.031 398.027 319.988 398.769 318.825 399.27C317.663 399.77 316.408 400.019 315.143 399.999ZM59.7465 284.802C58.6153 284.782 57.4928 285.003 56.453 285.45C55.4132 285.897 54.4795 286.559 53.7135 287.394C52.9475 288.228 52.3664 289.216 52.0086 290.291C51.6508 291.367 51.5243 292.507 51.6375 293.635L59.3103 390.114C59.7007 395.028 64.006 399.024 68.9067 399.024H315.143C316.274 399.043 317.397 398.822 318.436 398.375C319.476 397.929 320.41 397.266 321.176 396.432C321.942 395.597 322.523 394.61 322.881 393.534C323.239 392.458 323.365 391.319 323.252 390.191L315.579 293.714C315.189 288.8 310.883 284.804 305.983 284.804L59.7465 284.802Z" fill="#141414"/>
<path d="M217.015 315.577H154.215C153.22 315.562 152.266 315.179 151.535 314.501C150.805 313.824 150.35 312.9 150.258 311.907L150.176 310.879C150.129 310.411 150.182 309.938 150.331 309.492C150.479 309.045 150.721 308.635 151.039 308.289C151.357 307.942 151.744 307.667 152.176 307.482C152.608 307.296 153.073 307.204 153.543 307.212H216.343C217.337 307.228 218.289 307.612 219.018 308.289C219.747 308.965 220.201 309.888 220.293 310.879L220.376 311.907C220.423 312.375 220.37 312.848 220.222 313.294C220.074 313.74 219.833 314.15 219.516 314.496C219.198 314.843 218.811 315.118 218.38 315.305C217.949 315.491 217.484 315.584 217.015 315.577Z" fill="#141414"/>
<path d="M244.592 333.036H155.606C154.613 333.02 153.66 332.637 152.931 331.96C152.202 331.284 151.747 330.362 151.654 329.37L151.574 328.34C151.527 327.872 151.58 327.399 151.729 326.953C151.878 326.507 152.119 326.097 152.437 325.751C152.755 325.404 153.143 325.129 153.574 324.944C154.006 324.759 154.472 324.667 154.941 324.675H243.926C244.919 324.691 245.872 325.075 246.6 325.751C247.329 326.427 247.783 327.349 247.876 328.34L247.957 329.37C248.003 329.838 247.951 330.311 247.802 330.757C247.653 331.203 247.412 331.613 247.094 331.959C246.776 332.305 246.389 332.58 245.958 332.766C245.526 332.951 245.061 333.043 244.592 333.036Z" fill="#141414"/>
<path d="M163.781 353.352L166.996 358.969L173.255 359.872C174.489 360.049 175.096 361.553 174.282 362.417L170.151 366.788L171.7 372.964C172.005 374.183 170.804 375.112 169.665 374.537L163.901 371.621L158.599 374.537C157.552 375.112 156.2 374.183 156.313 372.964L156.878 366.788L152.053 362.417C151.102 361.542 151.469 360.049 152.677 359.872L158.784 358.969L161.102 353.352C161.571 352.243 163.15 352.243 163.781 353.352Z" fill="#141413" fill-opacity="0.2"/>
<path d="M194.195 353.352L197.408 358.969L203.667 359.872C204.901 360.049 205.51 361.553 204.694 362.417L200.566 366.788L202.114 372.964C202.42 374.183 201.216 375.112 200.079 374.537L194.315 371.624L189.013 374.54C187.966 375.115 186.614 374.185 186.727 372.966L187.294 366.791L182.47 362.419C181.517 361.544 181.885 360.051 183.091 359.874L189.198 358.972L191.519 353.354C191.983 352.243 193.56 352.243 194.195 353.352Z" fill="#141413" fill-opacity="0.2"/>
<path d="M224.605 353.352L227.82 358.969L234.079 359.872C235.313 360.049 235.92 361.553 235.106 362.417L230.975 366.788L232.524 372.964C232.829 374.183 231.628 375.112 230.489 374.537L224.723 371.621L219.42 374.537C218.376 375.112 217.021 374.183 217.137 372.964L217.702 366.788L212.877 362.417C211.924 361.542 212.293 360.049 213.499 359.872L219.606 358.969L221.926 353.352C222.393 352.243 223.977 352.243 224.605 353.352Z" fill="#141413" fill-opacity="0.2"/>
<path d="M255.017 353.352L258.229 358.969L264.489 359.872C265.723 360.049 266.332 361.553 265.516 362.417L261.388 366.788L262.934 372.964C263.241 374.183 262.037 375.112 260.901 374.537L255.135 371.621L249.833 374.537C248.786 375.112 247.433 374.183 247.547 372.964L248.114 366.788L243.287 362.417C242.336 361.542 242.703 360.049 243.911 359.872L250.018 358.969L252.338 353.352C252.805 352.243 254.382 352.243 255.017 353.352Z" fill="#141413" fill-opacity="0.2"/>
<path d="M286.214 353.352L289.429 358.969L295.688 359.872C296.923 360.049 297.529 361.553 296.716 362.417L292.585 366.788L294.133 372.964C294.439 374.183 293.237 375.112 292.098 374.537L286.334 371.621L281.032 374.537C279.985 375.112 278.633 374.183 278.746 372.964L279.311 366.788L274.487 362.417C273.536 361.542 273.902 360.049 275.11 359.872L281.217 358.969L283.536 353.352C284.002 352.243 285.581 352.243 286.214 353.352Z" fill="white"/>
<path d="M280.349 375.198C279.947 375.194 279.555 375.073 279.222 374.848C278.903 374.644 278.645 374.357 278.477 374.018C278.309 373.679 278.236 373.3 278.266 372.922L278.812 366.985L274.164 362.773C273.871 362.519 273.658 362.186 273.549 361.813C273.439 361.441 273.44 361.045 273.549 360.672C273.646 360.337 273.839 360.038 274.104 359.812C274.368 359.585 274.693 359.44 275.038 359.396L280.886 358.534L283.102 353.166C283.231 352.846 283.449 352.57 283.73 352.371C284.011 352.172 284.343 352.058 284.687 352.042C285.079 352.018 285.47 352.105 285.815 352.294C286.159 352.483 286.443 352.767 286.633 353.111L289.73 358.528L295.756 359.402C296.141 359.459 296.502 359.62 296.802 359.869C297.101 360.117 297.326 360.444 297.453 360.812C297.576 361.14 297.604 361.496 297.536 361.839C297.467 362.183 297.304 362.5 297.064 362.755L293.117 366.937L294.6 372.856C294.695 373.205 294.687 373.575 294.576 373.919C294.465 374.263 294.257 374.568 293.976 374.795C293.682 375.026 293.328 375.166 292.956 375.198C292.584 375.231 292.211 375.154 291.882 374.977L286.343 372.177L281.263 374.97C280.982 375.122 280.668 375.2 280.349 375.198ZM286.334 371.141C286.41 371.14 286.485 371.158 286.552 371.193L292.319 374.109C292.483 374.202 292.671 374.245 292.86 374.231C293.048 374.218 293.229 374.15 293.379 374.035C293.514 373.922 293.614 373.772 293.666 373.603C293.718 373.434 293.718 373.253 293.669 373.084L292.122 366.906C292.104 366.83 292.105 366.75 292.126 366.673C292.146 366.597 292.184 366.527 292.238 366.469L296.369 362.097C296.485 361.969 296.563 361.811 296.594 361.641C296.626 361.471 296.61 361.295 296.548 361.133C296.478 360.932 296.355 360.754 296.192 360.618C296.028 360.482 295.831 360.393 295.621 360.362L289.361 359.461C289.289 359.451 289.22 359.424 289.16 359.382C289.1 359.341 289.05 359.287 289.014 359.223L285.8 353.603C285.698 353.416 285.546 353.261 285.36 353.157C285.174 353.053 284.963 353.005 284.75 353.017C284.586 353.023 284.427 353.076 284.293 353.17C284.158 353.265 284.053 353.396 283.992 353.548L281.671 359.168C281.64 359.245 281.589 359.313 281.523 359.364C281.458 359.416 281.38 359.449 281.298 359.461L275.191 360.362C275.026 360.381 274.871 360.448 274.744 360.555C274.618 360.663 274.526 360.805 274.48 360.965C274.425 361.163 274.428 361.372 274.488 361.568C274.549 361.764 274.664 361.939 274.82 362.071L279.645 366.443C279.7 366.493 279.743 366.556 279.771 366.626C279.798 366.695 279.809 366.771 279.802 366.845L279.237 373.02C279.222 373.224 279.263 373.428 279.356 373.61C279.448 373.792 279.588 373.946 279.76 374.054C279.912 374.162 280.09 374.226 280.275 374.238C280.46 374.251 280.645 374.212 280.809 374.127L286.114 371.211C286.181 371.171 286.256 371.149 286.334 371.145V371.141Z" fill="#141414"/>
<path d="M127.503 365.251C139.965 351.515 138.142 329.512 123.431 316.105C108.72 302.699 86.6919 302.966 74.2302 316.701C61.7685 330.437 63.5919 352.44 78.3029 365.847C93.0139 379.253 115.042 378.986 127.503 365.251Z" fill="white"/>
<path d="M103.33 376.199C83.8815 376.199 66.9416 360.408 65.5698 341.006C64.9046 331.606 67.9471 322.749 74.139 316.086C80.3309 309.424 88.9698 305.734 98.4136 305.734C117.86 305.734 134.799 321.525 136.171 340.927C136.836 350.326 133.794 359.184 127.602 365.846C121.41 372.509 112.776 376.199 103.33 376.199ZM98.4136 306.687C89.2359 306.687 80.8652 310.254 74.8413 316.742C68.8173 323.23 65.8817 331.799 66.5294 340.929C67.8664 359.846 84.3745 375.235 103.33 375.235C112.507 375.235 120.878 371.667 126.9 365.18C132.922 358.692 135.864 350.134 135.209 340.999C133.875 322.082 117.367 306.693 98.4136 306.693V306.687Z" fill="#141414"/>
<mask id="mask1_117_3" style="mask-type:luminance" maskUnits="userSpaceOnUse" x="70" y="310" width="62" height="62">
<path d="M124.197 362.235C135.112 350.205 133.515 330.933 120.63 319.191C107.745 307.448 88.4513 307.682 77.5366 319.712C66.6219 331.743 68.219 351.014 81.104 362.757C93.9889 374.499 113.282 374.266 124.197 362.235Z" fill="white"/>
</mask>
<g mask="url(#mask1_117_3)">
<path d="M99.0352 315.024C88.7845 315.103 83.7681 328.015 81.9972 332.551C80.4835 336.437 77.5828 343.884 80.9372 347.712C83.6525 350.809 87.9164 348.628 101.439 348.462C115.116 348.291 119.785 350.429 122.045 347.214C124.791 343.318 120.824 336.006 118.752 332.188C116.499 328.039 109.391 314.941 99.0352 315.024Z" fill="#141414"/>
<path d="M119.159 355.642L109.188 353.389L108.228 339.657L93.3973 339.375L94.3177 353.389L84.6645 355.642C82.4507 356.143 80.426 357.268 78.8289 358.885C77.2318 360.501 76.129 362.541 75.6504 364.764L73.3037 384.503H134.603L129.463 364.764C128.638 362.505 127.264 360.487 125.465 358.894C123.666 357.301 121.499 356.183 119.159 355.642Z" fill="white"/>
<path d="M134.603 384.984H73.2971C73.2292 384.984 73.1621 384.97 73.1001 384.942C73.0381 384.914 72.9827 384.874 72.9375 384.823C72.8924 384.772 72.8585 384.712 72.8382 384.647C72.8178 384.582 72.8114 384.514 72.8195 384.446L75.1662 364.707C75.6588 362.387 76.8036 360.257 78.4654 358.567C80.1272 356.878 82.2367 355.701 84.5446 355.175L93.8008 353.011L92.9066 339.406C92.9023 339.339 92.912 339.272 92.9348 339.209C92.9577 339.146 92.9933 339.089 93.0395 339.041C93.0856 338.992 93.1412 338.954 93.2028 338.929C93.2644 338.903 93.3306 338.891 93.3973 338.892L108.228 339.176C108.347 339.178 108.46 339.223 108.547 339.304C108.634 339.385 108.689 339.495 108.699 339.613L109.633 352.987L119.255 355.173C121.673 355.733 123.913 356.889 125.773 358.535C127.633 360.182 129.054 362.267 129.907 364.602L135.059 384.381C135.077 384.452 135.079 384.526 135.064 384.598C135.049 384.67 135.019 384.738 134.974 384.796C134.929 384.854 134.871 384.901 134.806 384.934C134.74 384.966 134.668 384.984 134.594 384.984H134.603ZM73.838 384.02H133.979L128.998 364.887C128.196 362.712 126.868 360.772 125.132 359.241C123.395 357.709 121.306 356.635 119.053 356.115L109.081 353.859C108.98 353.836 108.89 353.781 108.822 353.702C108.755 353.623 108.715 353.525 108.708 353.422L107.779 340.131L93.9055 339.867L94.791 353.356C94.799 353.47 94.766 353.583 94.698 353.675C94.63 353.767 94.5315 353.831 94.4202 353.857L84.767 356.112C82.6422 356.594 80.699 357.674 79.1661 359.225C77.6333 360.777 76.5747 362.735 76.115 364.869L73.838 384.02Z" fill="#141414"/>
<path d="M111.059 331.501C110.056 326.463 105.452 319.931 99.3864 319.973C93.5325 320.014 90.1869 326.146 89.4889 330.526C88.8499 334.531 90.3068 337.795 90.7757 338.759C90.9502 339.117 94.9022 346.962 101.29 346.897C107.927 346.831 110.527 338.286 110.719 337.626C111.336 335.644 111.453 333.54 111.059 331.501Z" fill="white"/>
<path d="M101.21 347.38C94.5184 347.38 90.5118 339.316 90.3439 338.971C89.5871 337.416 88.4072 334.245 89.0135 330.446C89.6852 326.231 93.0963 319.531 99.382 319.488H99.4409C106.067 319.488 110.564 326.585 111.528 331.403C111.934 333.517 111.812 335.699 111.175 337.755C110.893 338.732 108.219 347.305 101.29 347.373L101.21 347.38ZM99.4409 320.456H99.3864C93.6939 320.495 90.5838 326.699 89.9622 330.601C89.3973 334.133 90.4988 337.097 91.2076 338.549C91.2447 338.627 95.1334 346.481 101.284 346.418C107.624 346.355 110.15 337.856 110.254 337.493C110.854 335.584 110.968 333.555 110.586 331.591C109.657 326.913 105.269 320.456 99.4409 320.456Z" fill="#141414"/>
<path d="M88.6144 329.49L111.905 329.584C111.829 328.911 111.066 322.948 106.03 319.837C103.989 318.61 101.634 318.009 99.2555 318.11C98.3177 318.139 95.297 318.27 92.6187 320.393C88.5925 323.584 88.5991 328.699 88.6144 329.49Z" fill="#141414"/>
</g>
<path d="M264.506 257.353H18.2702C13.1165 257.353 8.60615 253.165 8.19394 248L0.523321 151.52C0.11111 146.355 3.95623 142.167 9.10996 142.167H255.346C260.5 142.167 265.01 146.355 265.422 151.52L273.095 248C273.505 253.165 269.66 257.353 264.506 257.353Z" fill="white"/>
<path d="M264.506 257.834H18.2702C12.8809 257.834 8.14594 253.438 7.71628 248.037L0.0434878 151.56C-0.0808382 150.299 0.0621382 149.026 0.46305 147.824C0.863962 146.623 1.51375 145.519 2.36982 144.587C3.22588 143.655 4.26889 142.914 5.43046 142.414C6.59203 141.914 7.84593 141.666 9.10995 141.686H255.346C260.738 141.686 265.473 146.08 265.902 151.483L273.573 247.96C273.697 249.221 273.554 250.494 273.153 251.696C272.752 252.897 272.103 254 271.246 254.933C270.39 255.865 269.347 256.605 268.186 257.105C267.024 257.605 265.77 257.854 264.506 257.834ZM9.10995 142.65C7.97855 142.63 6.85577 142.85 5.81561 143.297C4.77544 143.744 3.8415 144.406 3.07533 145.241C2.30916 146.075 1.72815 147.063 1.3706 148.139C1.01304 149.215 0.887061 150.355 1.00095 151.483L8.67374 247.96C9.06414 252.874 13.3695 256.87 18.2702 256.87H264.506C265.638 256.89 266.761 256.669 267.801 256.223C268.841 255.776 269.775 255.114 270.541 254.279C271.307 253.445 271.888 252.457 272.246 251.381C272.603 250.305 272.729 249.165 272.615 248.037L264.943 151.56C264.552 146.646 260.247 142.65 255.346 142.65H9.10995Z" fill="#141414"/>
<path d="M166.37 173.423H103.57C102.576 173.406 101.624 173.023 100.895 172.346C100.166 171.669 99.712 170.747 99.6197 169.755L99.5369 168.728C99.4903 168.259 99.5432 167.786 99.692 167.34C99.8408 166.893 100.082 166.484 100.4 166.137C100.718 165.791 101.106 165.516 101.537 165.33C101.969 165.144 102.435 165.052 102.904 165.06H165.704C166.698 165.076 167.651 165.459 168.38 166.136C169.109 166.813 169.562 167.736 169.654 168.728L169.737 169.755C169.784 170.224 169.731 170.696 169.582 171.143C169.433 171.589 169.192 171.999 168.874 172.346C168.556 172.692 168.168 172.967 167.737 173.153C167.305 173.339 166.839 173.431 166.37 173.423Z" fill="#141414"/>
<path d="M193.948 190.882H104.963C103.97 190.866 103.017 190.483 102.288 189.807C101.559 189.13 101.105 188.208 101.013 187.216L100.931 186.187C100.884 185.718 100.937 185.245 101.086 184.799C101.234 184.353 101.476 183.943 101.794 183.597C102.112 183.25 102.499 182.976 102.931 182.79C103.363 182.605 103.828 182.513 104.298 182.521H193.283C194.276 182.537 195.228 182.921 195.957 183.597C196.686 184.273 197.14 185.195 197.233 186.187L197.314 187.216C197.36 187.684 197.307 188.157 197.159 188.603C197.01 189.049 196.769 189.459 196.451 189.805C196.133 190.151 195.746 190.426 195.315 190.612C194.883 190.797 194.418 190.889 193.948 190.882Z" fill="#141414"/>
<path d="M113.14 211.198L116.352 216.816L122.612 217.718C123.846 217.895 124.453 219.399 123.639 220.263L119.511 224.635L121.057 230.81C121.362 232.029 120.16 232.958 119.022 232.384L113.258 229.468L107.947 232.386C106.9 232.961 105.548 232.032 105.661 230.812L106.228 224.637L101.402 220.265C100.451 219.391 100.817 217.898 102.025 217.72L108.132 216.818L110.453 211.2C110.926 210.089 112.505 210.089 113.14 211.198Z" fill="#141413" fill-opacity="0.2"/>
<path d="M143.55 211.198L146.769 216.82L153.026 217.723C154.263 217.9 154.869 219.404 154.053 220.267L149.925 224.639L151.473 230.814C151.779 232.034 150.577 232.963 149.438 232.388L143.672 229.472L138.37 232.388C137.323 232.963 135.971 232.034 136.086 230.814L136.651 224.639L131.827 220.267C130.874 219.393 131.242 217.9 132.448 217.723L138.555 216.82L140.876 211.202C141.338 210.089 142.915 210.089 143.55 211.198Z" fill="#141413" fill-opacity="0.2"/>
<path d="M173.959 211.198L177.174 216.816L183.434 217.718C184.668 217.895 185.275 219.399 184.461 220.263L180.33 224.635L181.883 230.81C182.188 232.029 180.987 232.958 179.848 232.384L174.084 229.468L168.78 232.384C167.735 232.958 166.38 232.029 166.496 230.81L167.061 224.635L162.237 220.263C161.286 219.388 161.652 217.895 162.858 217.718L168.965 216.816L171.283 211.198C171.748 210.089 173.327 210.089 173.959 211.198Z" fill="#141413" fill-opacity="0.2"/>
<path d="M204.371 211.198L207.584 216.816L213.844 217.718C215.078 217.895 215.687 219.399 214.871 220.263L210.742 224.635L212.291 230.81C212.596 232.029 211.392 232.958 210.256 232.384L204.489 229.468L199.187 232.384C198.14 232.958 196.788 232.029 196.902 230.81L197.469 224.635L192.642 220.263C191.691 219.388 192.06 217.895 193.266 217.718L199.373 216.816L201.693 211.198C202.166 210.089 203.737 210.089 204.371 211.198Z" fill="#141413" fill-opacity="0.2"/>
<path d="M234.781 211.198L237.996 216.816L244.256 217.718C245.49 217.895 246.096 219.399 245.283 220.263L241.152 224.635L242.701 230.81C243.006 232.029 241.804 232.958 240.666 232.384L234.899 229.468L229.597 232.384C228.552 232.958 227.198 232.029 227.314 230.81L227.878 224.635L223.054 220.263C222.101 219.388 222.47 217.895 223.676 217.718L229.782 216.816L232.103 211.198C232.57 210.089 234.147 210.089 234.781 211.198Z" fill="#141413" fill-opacity="0.2"/>
<path d="M76.7116 222.991C89.0189 209.454 87.1387 187.651 72.512 174.294C57.8854 160.936 36.0511 161.081 23.7438 174.618C11.4365 188.155 13.3167 209.957 27.9434 223.315C42.57 236.673 64.4043 236.528 76.7116 222.991Z" fill="white"/>
<path d="M52.9635 233.728C33.6943 233.728 16.7718 218.081 15.243 198.847C14.5014 189.522 17.4436 180.748 23.5308 174.147C29.618 167.545 38.1327 163.893 47.4914 163.893C66.7606 163.893 83.6831 179.539 85.2229 198.771C85.9644 208.098 83.0222 216.87 76.935 223.472C70.8478 230.073 62.3223 233.728 52.9635 233.728ZM47.487 164.857C38.3987 164.857 30.1414 168.389 24.2331 174.8C18.3247 181.211 15.472 189.715 16.2026 198.771C17.6922 217.515 34.185 232.764 52.9635 232.764C62.0518 232.764 70.3113 229.231 76.2175 222.82C82.1237 216.409 84.9699 207.904 84.2501 198.847C82.7583 180.097 66.2677 164.857 47.487 164.857Z" fill="#141414"/>
<mask id="mask2_117_3" style="mask-type:luminance" maskUnits="userSpaceOnUse" x="19" y="168" width="62" height="61">
<path d="M73.4244 219.989C84.2041 208.132 82.5571 189.036 69.7459 177.336C56.9347 165.636 37.8105 165.763 27.0309 177.62C16.2513 189.476 17.8982 208.573 30.7094 220.273C43.5206 231.973 62.6448 231.846 73.4244 219.989Z" fill="white"/>
</mask>
<g mask="url(#mask2_117_3)">
<path d="M68.3003 189.455C68.3003 191.297 66.6253 192.005 66.1193 193.201C65.6133 194.397 66.4421 195.479 65.2229 197.315C64.0299 199.112 62.4945 198.286 61.4563 199.064C60.4182 199.842 59.7486 201.202 58.56 201.722C57.4171 202.222 55.9427 201.803 54.669 202.061C53.4455 202.31 52.2808 203.278 50.9744 203.28C49.7203 203.28 48.4379 202.039 47.1402 201.796C45.8425 201.554 44.9156 202.612 43.7247 202.174C41.3256 201.3 41.8054 200.17 40.7062 199.486C39.5634 198.773 37.5241 198.972 36.1828 197.737C34.6408 196.327 35.5983 195.129 34.8349 194.041C34.0716 192.952 32.4467 192.972 31.7335 190.81C31.0661 188.792 32.0301 187.85 31.8469 186.506C31.6637 185.161 30.2701 183.922 30.643 182.619C31.2144 180.617 32.4838 180.514 32.9985 179.318C33.5132 178.123 33.077 176.315 33.7989 175.226C34.7499 173.793 36.5208 174.367 37.5612 173.589C38.6015 172.811 38.6168 171.425 40.017 170.529C41.2798 169.716 43.0552 170.835 44.3267 170.577C45.5502 170.328 45.8163 168.94 47.5982 168.97C49.1249 168.997 50.198 170.369 51.4957 170.614C52.7934 170.859 53.6614 169.814 55.3146 170.42C57.1641 171.099 57.1467 172.56 58.2459 173.246C59.3887 173.959 60.6646 173.465 62.1303 174.684C63.7268 176.013 62.9765 177.415 63.7399 178.501C64.5272 179.622 66.3265 180.195 66.8304 181.439C67.3342 182.683 66.477 184.28 66.7409 185.612C67.0877 187.332 68.3069 187.465 68.3003 189.455Z" fill="#141414"/>
<path d="M84.0298 242.432H23.2843C23.2168 242.433 23.1499 242.419 23.0882 242.391C23.0265 242.364 22.9714 242.323 22.9266 242.273C22.8815 242.222 22.8475 242.163 22.8268 242.099C22.8062 242.034 22.7993 241.966 22.8067 241.899L24.9593 222.342C25.4244 220.043 26.542 217.927 28.1779 216.25C29.8137 214.572 31.8982 213.404 34.1806 212.885L43.3212 210.745L42.3812 198.895C42.3758 198.829 42.3842 198.762 42.406 198.699C42.4278 198.635 42.4624 198.577 42.5077 198.528C42.5527 198.479 42.6074 198.441 42.6682 198.414C42.7291 198.388 42.7948 198.375 42.8611 198.375H57.6003C57.7202 198.375 57.8358 198.42 57.9246 198.501C58.0133 198.582 58.0687 198.693 58.0801 198.812L59.0267 210.715L68.5817 212.872C70.985 213.43 73.2135 214.575 75.0689 216.204C76.9242 217.834 78.349 219.898 79.2163 222.213L79.2294 222.256L84.4944 241.811C84.5138 241.883 84.5164 241.958 84.5021 242.031C84.4877 242.104 84.4567 242.172 84.4115 242.231C84.3676 242.292 84.3103 242.341 84.2441 242.376C84.1779 242.411 84.1046 242.43 84.0298 242.432ZM23.8208 241.468H83.4017L78.3068 222.54C77.4937 220.381 76.1614 218.455 74.4281 216.935C72.6948 215.415 70.6139 214.347 68.3701 213.825L58.4684 211.591C58.3677 211.568 58.277 211.513 58.2099 211.434C58.1427 211.356 58.1026 211.257 58.0954 211.154L57.1554 199.35H43.3889L44.3223 211.084C44.3321 211.199 44.3002 211.313 44.2325 211.407C44.1648 211.5 44.0658 211.565 43.9537 211.591L34.4075 213.827C32.3081 214.301 30.3897 215.371 28.8821 216.91C27.3745 218.449 26.3419 220.391 25.9081 222.503L23.8208 241.468Z" fill="#141414"/>
<path d="M61.7093 189.549C61.1908 189.422 60.6459 189.46 60.1499 189.658C59.1903 182.916 54.5774 182.838 48.9504 182.838C43.3234 182.838 38.7259 182.916 38.8371 189.658C38.3346 189.462 37.7847 189.424 37.2602 189.549C35.7117 189.94 34.9527 191.763 35.5634 193.621C36.1741 195.479 37.9363 196.668 39.4739 196.272C39.7164 196.211 39.9471 196.11 40.1566 195.973C42.1806 200.952 46.2765 204.762 50.6996 204.762C55.1227 204.762 58.6123 200.952 59.8446 195.973C60.0715 196.108 60.3169 196.209 60.573 196.272C62.1826 196.664 63.7442 195.475 64.0626 193.617C64.3811 191.758 63.3233 189.933 61.7093 189.549Z" fill="white"/>
<path d="M50.6996 205.25C46.4663 205.25 42.1937 201.811 39.9145 196.64C39.809 196.681 39.7013 196.716 39.5917 196.745C37.8077 197.197 35.7968 195.87 35.1097 193.772C34.9234 193.244 34.8467 192.684 34.8842 192.125C34.9217 191.566 35.0726 191.021 35.3278 190.523C35.516 190.169 35.7757 189.858 36.0903 189.609C36.405 189.361 36.7677 189.181 37.1555 189.081C37.5538 188.982 37.968 188.967 38.3725 189.035C38.4314 186.954 38.9701 185.419 40.0148 184.355C41.9777 182.357 45.3714 182.357 48.957 182.357C54.2917 182.357 59.3364 182.357 60.5447 189.046C60.9705 188.965 61.4085 188.977 61.8293 189.081C63.6766 189.529 64.8827 191.603 64.5359 193.702C64.4564 194.225 64.271 194.726 63.9912 195.174C63.7115 195.623 63.3431 196.009 62.9089 196.31C62.5099 196.578 62.0537 196.749 61.5769 196.809C61.1 196.869 60.6158 196.816 60.163 196.655C58.6886 201.82 54.9482 205.25 50.6996 205.25ZM40.1566 195.496C40.2507 195.497 40.3424 195.526 40.4201 195.58C40.4977 195.633 40.5578 195.708 40.5928 195.796C42.656 200.874 46.7149 204.286 50.6909 204.286C54.6669 204.286 58.1238 200.9 59.3691 195.861C59.3872 195.789 59.4217 195.721 59.4702 195.665C59.5186 195.608 59.5796 195.563 59.6483 195.534C59.718 195.503 59.794 195.49 59.8698 195.495C59.9457 195.5 60.0193 195.523 60.0845 195.562C60.273 195.671 60.4755 195.755 60.6865 195.809C60.9743 195.878 61.2734 195.887 61.5648 195.834C61.8561 195.781 62.1333 195.669 62.3789 195.503C62.703 195.275 62.9771 194.982 63.1845 194.644C63.3919 194.306 63.5282 193.929 63.585 193.536C63.8576 191.927 62.9678 190.344 61.6003 190.012C61.1782 189.909 60.7345 189.94 60.3309 190.102C60.2634 190.129 60.1906 190.14 60.1181 190.135C60.0455 190.129 59.9751 190.108 59.9122 190.071C59.8494 190.034 59.7957 189.983 59.7549 189.923C59.7141 189.862 59.6874 189.793 59.6766 189.721C58.765 183.317 54.4422 183.317 48.9548 183.317C45.5699 183.317 42.3703 183.317 40.6909 185.026C39.7357 186.003 39.2864 187.513 39.3234 189.645C39.3251 189.724 39.3073 189.802 39.2716 189.873C39.2359 189.944 39.1835 190.004 39.1188 190.05C39.0542 190.096 38.9794 190.124 38.901 190.134C38.8226 190.144 38.7429 190.134 38.6691 190.106C38.2575 189.944 37.8065 189.911 37.3758 190.012C37.1157 190.079 36.8724 190.2 36.662 190.367C36.4516 190.534 36.2786 190.744 36.1544 190.983C35.9651 191.366 35.8552 191.783 35.8316 192.21C35.808 192.637 35.8711 193.064 36.017 193.466C36.5492 195.085 38.0454 196.135 39.3496 195.805C39.5425 195.756 39.726 195.675 39.8927 195.566C39.9724 195.519 40.0638 195.494 40.1566 195.496Z" fill="#141414"/>
<path d="M50.6996 205.25C46.3376 205.25 41.921 201.597 39.7117 196.161C39.6878 196.102 39.6756 196.04 39.6758 195.976C39.6761 195.913 39.6888 195.85 39.7132 195.792C39.7376 195.734 39.7732 195.681 39.8181 195.636C39.8629 195.592 39.916 195.556 39.9745 195.532C40.0329 195.508 40.0955 195.496 40.1586 195.497C40.2217 195.497 40.2842 195.51 40.3424 195.534C40.4006 195.558 40.4535 195.594 40.498 195.639C40.5424 195.684 40.5776 195.737 40.6015 195.796C42.6647 200.874 46.7236 204.286 50.6996 204.286C54.6756 204.286 58.1325 200.9 59.3778 195.861C59.4085 195.737 59.4871 195.631 59.5963 195.565C59.7055 195.499 59.8364 195.479 59.9602 195.51C60.084 195.54 60.1905 195.619 60.2563 195.728C60.3222 195.838 60.342 195.969 60.3113 196.093C58.9569 201.571 55.0943 205.25 50.6996 205.25Z" fill="#141414"/>
<path d="M38.667 189.111L38.9549 188.364C41.3758 195.577 43.559 197.326 45.1315 197.521C46.8087 197.739 47.6135 196.209 50.4444 196.226C53.1838 196.251 54.1521 197.724 55.7203 197.442C57.1489 197.186 58.8195 195.525 59.7377 189.157L60.4858 188.652C60.6886 190.39 60.8936 194.207 58.8958 198.052C58.0234 199.713 55.4215 204.727 50.6996 204.769C45.3561 204.817 41.6026 198.463 40.9745 197.409C39.4824 194.898 38.6858 192.034 38.667 189.111Z" fill="#141414"/>
</g>
<path d="M402.743 89.5105C383.001 73.0965 359.448 54.8617 353.989 56.4311C344.209 59.24 325.935 74.9261 328.203 79.0902C330.471 83.2544 337.145 78.2159 343.749 74.784C350.353 71.3521 352.861 73.3632 352.861 73.3632C352.861 73.3632 361.221 79.0465 348.802 85.2939C336.384 91.5412 341.806 98.2191 348.802 96.619C355.799 95.019 363.439 96.619 363.439 96.619L381.186 115.221C393.509 106.672 399.672 96.8442 402.743 89.5105Z" fill="white"/>
<path d="M381.186 115.704C381.121 115.704 381.057 115.691 380.997 115.665C380.937 115.639 380.884 115.601 380.839 115.553L363.197 97.0628C362.12 96.8573 355.197 95.6507 348.909 97.089C345.346 97.9043 341.998 96.6693 341.119 94.2189C340.054 91.2483 342.846 87.7508 348.586 84.8632C352.776 82.7538 354.977 80.5308 355.13 78.2509C355.3 75.6278 352.621 73.7807 352.595 73.761C352.569 73.7413 350.142 71.997 343.976 75.2103C342.748 75.8507 341.505 76.5546 340.305 77.2322C336.033 79.6476 332.345 81.733 329.795 81.0007C329.363 80.8738 328.961 80.6594 328.616 80.3706C328.27 80.0818 327.987 79.7249 327.784 79.3219C327.407 78.629 327.455 77.7022 327.928 76.5699C330.545 70.2854 345.577 58.346 353.86 55.9677C358.44 54.6562 374.994 65.8043 403.053 89.141C403.151 89.2225 403.213 89.3397 403.225 89.4667C403.236 89.5938 403.197 89.7204 403.116 89.8187C403.035 89.9169 402.918 89.9788 402.791 89.9907C402.664 90.0026 402.538 89.9635 402.44 89.8821C365.991 59.5766 356.525 56.2038 354.126 56.8945C345.62 59.334 331.117 71.4265 328.827 76.9415C328.478 77.7787 328.412 78.4432 328.639 78.8607C328.781 79.1517 328.981 79.4098 329.228 79.6187C329.475 79.8276 329.762 79.9826 330.072 80.0739C332.231 80.6947 335.928 78.605 339.843 76.3928C341.051 75.7108 342.301 75.0048 343.551 74.3556C350.351 70.81 353.071 72.8976 353.184 72.9872C353.297 73.0768 356.312 75.1491 356.107 78.3142C355.934 80.9592 353.557 83.4511 349.04 85.7245C342.844 88.8416 341.365 91.9871 342.048 93.8932C342.761 95.8846 345.629 96.8551 348.717 96.1491C355.734 94.5446 363.245 96.0813 363.561 96.1491C363.657 96.1691 363.743 96.2179 363.81 96.289L381.555 114.891C381.619 114.959 381.663 115.045 381.679 115.138C381.696 115.231 381.685 115.326 381.648 115.413C381.611 115.499 381.55 115.573 381.472 115.625C381.394 115.678 381.302 115.706 381.208 115.706L381.186 115.704Z" fill="#141414"/>
<path d="M536.317 120.891C533.466 116.149 529.333 112.312 524.397 109.826C519.46 107.34 513.923 106.305 508.424 106.843L437.833 113.735C435.872 113.926 433.893 113.713 432.017 113.108C430.141 112.502 428.41 111.518 426.928 110.215C421.727 105.64 412.719 97.8082 402.741 89.5105C399.67 96.8442 393.507 106.672 381.184 115.221L410.207 145.645C414.66 150.314 420.754 153.059 427.194 153.295L462.403 154.591L510.834 216.426H599.723L536.317 120.891Z" fill="url(#paint0_linear_117_3)"/>
<path d="M341.712 59.8718L347.077 70.7619L359.073 72.5107C359.605 72.5887 360.106 72.8143 360.517 73.1622C360.929 73.5101 361.235 73.9663 361.401 74.4793C361.568 74.9924 361.588 75.5419 361.459 76.0658C361.331 76.5897 361.059 77.0672 360.674 77.4443L352.002 85.9081L354.05 97.8803C354.141 98.4121 354.082 98.9589 353.88 99.4587C353.677 99.9586 353.339 100.392 352.903 100.709C352.467 101.026 351.952 101.214 351.415 101.253C350.878 101.292 350.341 101.179 349.865 100.927L339.134 95.2834L328.408 100.934C327.931 101.186 327.394 101.298 326.857 101.26C326.32 101.221 325.805 101.032 325.369 100.715C324.934 100.398 324.595 99.9652 324.393 99.4653C324.19 98.9654 324.131 98.4186 324.222 97.8869L326.27 85.9147L317.592 77.4377C317.206 77.0611 316.933 76.5838 316.804 76.0598C316.675 75.5359 316.695 74.9861 316.861 74.4728C317.027 73.9594 317.334 73.503 317.746 73.1551C318.157 72.8071 318.658 72.5817 319.191 72.5041L331.186 70.7554L336.539 59.8718C336.776 59.3876 337.145 58.9799 337.602 58.6948C338.059 58.4097 338.587 58.2586 339.125 58.2586C339.664 58.2586 340.191 58.4097 340.649 58.6948C341.106 58.9799 341.474 59.3876 341.712 59.8718Z" fill="url(#paint1_linear_117_3)"/>
<path d="M348.802 85.2939C345.346 87.2918 340.746 91.2723 341.516 93.8823C342.183 96.1425 345.295 97.4213 348.802 96.619C355.797 95.019 363.439 96.619 363.439 96.619L372.486 94.2867C372.486 91.9893 372.096 87.6678 369.018 84.6556C363.343 79.1077 353.343 82.6664 348.802 85.2939Z" fill="white"/>
<path d="M363.712 97.1262H363.668L363.398 97.1021L361.099 96.8835C357.653 96.5666 355.378 96.3567 353.14 96.4704C353.077 96.4737 353.014 96.4645 352.955 96.4434C352.895 96.4223 352.841 96.3896 352.794 96.3473C352.747 96.305 352.709 96.2538 352.682 96.1968C352.654 96.1397 352.639 96.0778 352.636 96.0146C352.632 95.9515 352.641 95.8883 352.662 95.8287C352.684 95.7691 352.716 95.7142 352.758 95.6672C352.801 95.6202 352.852 95.582 352.909 95.5548C352.966 95.5276 353.027 95.5119 353.09 95.5086C355.396 95.3906 357.701 95.6026 361.186 95.9239L363.483 96.1316L363.755 96.1578C363.818 96.1607 363.88 96.176 363.937 96.2028C363.994 96.2296 364.046 96.2674 364.088 96.3141C364.131 96.3608 364.164 96.4154 364.185 96.4749C364.207 96.5343 364.216 96.5974 364.213 96.6606C364.211 96.7237 364.195 96.7857 364.169 96.8429C364.142 96.9002 364.104 96.9516 364.057 96.9942C364.011 97.0368 363.956 97.0699 363.897 97.0914C363.838 97.1129 363.775 97.1225 363.712 97.1196V97.1262Z" fill="#141414"/>
<path d="M462.405 155.072C462.337 155.072 462.271 155.058 462.209 155.03C462.148 155.003 462.092 154.963 462.047 154.913L456.211 148.423C455.268 147.376 454.116 146.54 452.831 145.966C451.545 145.393 450.154 145.097 448.747 145.096H448.021C447.899 145.088 447.785 145.033 447.701 144.944C447.618 144.854 447.571 144.736 447.571 144.614C447.571 144.491 447.618 144.373 447.701 144.284C447.785 144.195 447.899 144.14 448.021 144.132H448.747C450.289 144.133 451.813 144.458 453.222 145.086C454.631 145.714 455.893 146.631 456.926 147.778L462.762 154.266C462.825 154.335 462.866 154.421 462.88 154.513C462.895 154.606 462.883 154.7 462.845 154.785C462.807 154.871 462.745 154.943 462.667 154.994C462.589 155.045 462.498 155.072 462.405 155.072Z" fill="#141414"/>
<path d="M532.212 221.797L476.256 165.716C475.219 164.676 473.813 164.093 472.347 164.093C470.881 164.093 469.474 164.676 468.437 165.716L429.48 204.76C428.443 205.799 427.861 207.209 427.861 208.678C427.861 210.148 428.443 211.558 429.48 212.597L485.436 268.678C486.473 269.718 487.879 270.301 489.346 270.301C490.812 270.301 492.218 269.718 493.255 268.678L532.212 229.634C533.249 228.594 533.832 227.185 533.832 225.715C533.832 224.246 533.249 222.836 532.212 221.797Z" fill="#141414"/>
<path d="M495.458 198.747L479.46 213.416L455.297 220.016C454.818 220.146 454.38 220.396 454.024 220.742C453.668 221.089 453.406 221.521 453.263 221.997C453.12 222.473 453.1 222.977 453.205 223.463C453.31 223.949 453.537 224.401 453.864 224.774C454.627 225.649 455.805 226.355 457.622 226.547C463.018 227.12 465.31 229.142 463.633 231.273C461.955 233.404 453.552 242.828 461.471 246.559C461.471 246.559 461.419 251.683 466.269 251.985C466.529 253.224 467.119 254.37 467.975 255.302C468.831 256.234 469.922 256.917 471.133 257.279C471.133 257.279 472.806 262.18 477.321 260.665C479.885 259.804 499.259 245.007 520.59 227.089C516.45 214.035 502.644 203.558 495.458 198.747Z" fill="white"/>
<path d="M475.665 261.441C472.612 261.441 471.146 258.52 470.784 257.666C469.596 257.276 468.525 256.592 467.669 255.678C466.814 254.764 466.202 253.648 465.89 252.435C461.7 251.958 461.092 248.015 461.015 246.867C459.242 245.965 458.158 244.695 457.794 243.092C456.839 238.902 461.066 233.693 462.865 231.474C463.022 231.28 463.159 231.111 463.266 230.976C463.689 230.438 463.805 229.931 463.609 229.465C463.225 228.554 461.441 227.435 457.582 227.026C455.855 226.844 454.485 226.193 453.515 225.094C453.133 224.659 452.868 224.134 452.745 223.568C452.622 223.002 452.645 222.414 452.812 221.859C452.979 221.304 453.284 220.802 453.698 220.398C454.113 219.994 454.623 219.703 455.181 219.552L479.233 212.981L495.155 198.391C495.249 198.304 495.373 198.258 495.501 198.263C495.629 198.268 495.75 198.324 495.836 198.418C495.923 198.512 495.969 198.637 495.964 198.765C495.959 198.893 495.903 199.014 495.809 199.101L479.813 213.771C479.757 213.823 479.689 213.86 479.615 213.88L455.452 220.481C455.049 220.59 454.681 220.801 454.382 221.093C454.084 221.386 453.866 221.75 453.748 222.151C453.629 222.546 453.612 222.966 453.7 223.369C453.789 223.772 453.979 224.146 454.252 224.455C455.059 225.369 456.215 225.911 457.7 226.068C461.441 226.464 463.859 227.537 464.514 229.092C464.747 229.649 464.856 230.532 464.038 231.573C463.929 231.712 463.79 231.883 463.628 232.082C462.062 234.014 457.899 239.145 458.749 242.878C459.061 244.255 460.058 245.346 461.702 246.122C461.785 246.161 461.855 246.223 461.904 246.3C461.953 246.378 461.979 246.468 461.979 246.559C461.979 246.749 461.999 251.23 466.341 251.499C466.45 251.508 466.552 251.553 466.631 251.627C466.71 251.701 466.762 251.8 466.778 251.908C467.015 253.059 467.559 254.123 468.352 254.989C469.145 255.854 470.157 256.488 471.281 256.822C471.353 256.845 471.418 256.885 471.472 256.937C471.526 256.99 471.566 257.055 471.591 257.126C471.654 257.307 473.168 261.554 477.172 260.212C479.672 259.373 499.05 244.563 520.284 226.724C520.332 226.68 520.389 226.646 520.45 226.624C520.512 226.602 520.577 226.592 520.642 226.596C520.707 226.6 520.771 226.618 520.829 226.647C520.887 226.677 520.939 226.718 520.981 226.768C521.023 226.818 521.054 226.876 521.073 226.939C521.092 227.001 521.098 227.067 521.091 227.132C521.084 227.197 521.063 227.26 521.031 227.317C520.999 227.374 520.956 227.423 520.904 227.463C499.242 245.659 480.119 260.252 477.478 261.126C476.894 261.328 476.282 261.435 475.665 261.441Z" fill="#141414"/>
<path d="M562.11 174.553C558.559 165.097 553.266 151.881 548.866 144.606L495.65 142.796C495.65 142.796 516.245 171.458 519.111 177.039L495.447 198.74C502.633 203.549 516.435 214.028 520.583 227.083C533.333 216.372 546.781 204.55 557.758 193.92C560.289 191.469 562.049 188.33 562.822 184.889C563.595 181.447 563.348 177.855 562.11 174.553Z" fill="url(#paint2_linear_117_3)"/>
<path d="M520.594 227.572C520.495 227.572 520.399 227.542 520.318 227.485C520.237 227.428 520.176 227.348 520.142 227.255C520.108 227.162 520.104 227.06 520.129 226.965C520.155 226.869 520.209 226.784 520.284 226.72C530.356 218.26 544.976 205.643 557.433 193.579C559.897 191.193 561.611 188.136 562.361 184.785C563.112 181.434 562.868 177.937 561.658 174.724C558.035 165.066 552.803 152.047 548.454 144.864C548.417 144.81 548.39 144.749 548.377 144.684C548.364 144.619 548.364 144.553 548.378 144.488C548.391 144.423 548.418 144.362 548.456 144.308C548.494 144.254 548.543 144.209 548.599 144.175C548.656 144.14 548.718 144.118 548.783 144.109C548.849 144.1 548.915 144.104 548.979 144.122C549.042 144.14 549.101 144.17 549.153 144.212C549.204 144.254 549.246 144.305 549.277 144.364C553.663 151.61 558.921 164.693 562.559 174.385C563.835 177.774 564.093 181.464 563.301 184.999C562.509 188.534 560.702 191.759 558.103 194.277C545.625 206.358 530.987 218.991 520.904 227.461C520.817 227.533 520.707 227.573 520.594 227.572Z" fill="#141414"/>
<path d="M495.458 199.228C495.361 199.228 495.266 199.199 495.185 199.144C495.105 199.09 495.043 199.012 495.008 198.921C494.973 198.83 494.966 198.731 494.988 198.636C495.01 198.542 495.061 198.456 495.133 198.39L518.522 176.942C515.141 170.75 495.471 143.373 495.27 143.085C495.233 143.034 495.207 142.976 495.192 142.914C495.178 142.853 495.175 142.789 495.185 142.726C495.195 142.664 495.218 142.604 495.251 142.55C495.284 142.496 495.327 142.45 495.378 142.413C495.429 142.376 495.487 142.349 495.549 142.334C495.61 142.32 495.674 142.318 495.736 142.328C495.798 142.338 495.858 142.36 495.912 142.393C495.965 142.426 496.012 142.47 496.049 142.521C496.893 143.693 516.701 171.277 519.549 176.824C519.597 176.919 519.613 177.026 519.594 177.131C519.575 177.235 519.523 177.33 519.445 177.401L495.781 199.101C495.693 199.183 495.578 199.228 495.458 199.228Z" fill="#141414"/>
<path d="M519.733 176.942C519.63 176.945 519.529 176.914 519.444 176.855C519.36 176.796 519.297 176.712 519.264 176.614C519.231 176.516 519.23 176.411 519.261 176.312C519.293 176.214 519.355 176.128 519.438 176.068L524.987 171.781C525.037 171.743 525.094 171.714 525.155 171.698C525.215 171.681 525.279 171.677 525.342 171.685C525.404 171.693 525.465 171.714 525.519 171.745C525.574 171.777 525.622 171.819 525.661 171.869C525.699 171.919 525.727 171.976 525.744 172.037C525.76 172.098 525.765 172.162 525.756 172.225C525.748 172.287 525.728 172.348 525.697 172.403C525.665 172.458 525.623 172.506 525.573 172.544L520.025 176.833C519.942 176.901 519.839 176.94 519.733 176.942Z" fill="#141414"/>
<path d="M475.052 106.515C475.052 106.515 469.192 120.161 475.052 131.473L486.852 113.719L475.052 106.515Z" fill="white"/>
<path d="M470.006 103.614L483.057 124.487L497.888 107.125L483.057 89.8777L470.006 103.614Z" fill="white"/>
<path d="M483.057 124.97H483.022C482.947 124.966 482.874 124.944 482.809 124.906C482.744 124.868 482.689 124.815 482.649 124.752L469.598 103.878C469.541 103.788 469.516 103.68 469.527 103.574C469.538 103.467 469.585 103.368 469.659 103.29L482.708 89.5542C482.754 89.5058 482.81 89.4676 482.872 89.442C482.934 89.4164 483.001 89.404 483.068 89.4055C483.135 89.4067 483.201 89.4222 483.262 89.4508C483.323 89.4794 483.377 89.5206 483.421 89.5717L498.252 106.818C498.327 106.906 498.368 107.017 498.368 107.132C498.368 107.247 498.327 107.359 498.252 107.446L483.421 124.811C483.375 124.862 483.319 124.903 483.256 124.93C483.193 124.958 483.125 124.971 483.057 124.97ZM470.612 103.675L483.118 123.676L497.257 107.125L483.044 90.5947L470.612 103.675Z" fill="#141414"/>
<path d="M483.848 135.262L479.345 123.995C479.345 123.995 486.963 106.272 496.695 100.501L504.869 109.953C504.869 109.953 491.953 124.872 483.848 135.262Z" fill="white"/>
<path d="M479.345 124.478C479.279 124.478 479.215 124.465 479.155 124.439C479.037 124.389 478.945 124.293 478.897 124.175C478.85 124.056 478.852 123.923 478.902 123.805C479.216 123.075 486.695 105.881 496.45 100.086C496.547 100.029 496.661 100.008 496.772 100.025C496.883 100.043 496.985 100.1 497.059 100.184L502.546 106.523C502.588 106.571 502.619 106.627 502.639 106.687C502.659 106.747 502.667 106.81 502.663 106.873C502.658 106.936 502.641 106.998 502.613 107.055C502.585 107.111 502.546 107.162 502.498 107.203C502.451 107.245 502.395 107.276 502.335 107.296C502.275 107.316 502.212 107.324 502.149 107.32C502.086 107.315 502.025 107.299 501.968 107.27C501.912 107.242 501.861 107.203 501.82 107.155L496.603 101.124C487.275 106.961 479.864 124.013 479.79 124.186C479.752 124.273 479.69 124.347 479.611 124.399C479.532 124.452 479.439 124.479 479.345 124.478Z" fill="#141414"/>
<path d="M455.574 67.0852C453.796 62.7134 455.018 57.2793 458.499 54.0878C461.979 50.8964 467.48 50.1532 471.674 52.3194C478.581 55.8803 480.566 65.3824 487.242 69.3695C489.281 70.5849 491.741 71.2713 493.235 73.1205C494.729 74.9698 494.887 77.6082 494.217 79.8815C493.547 82.1549 492.165 84.1375 490.767 86.0502C486.291 92.1707 481.458 98.0727 475.997 103.319C473.218 105.994 469.949 108.644 466.097 108.746C462.527 108.845 459.275 106.705 456.664 104.261C454.854 102.567 453.155 100.558 452.69 98.1207C452.16 95.3337 453.33 92.5358 454.479 89.9433C455.674 87.2437 456.878 84.5288 458.581 82.1134C459.58 80.6559 460.79 79.3562 462.171 78.2574C464.051 76.795 465.183 76.8562 462.863 75.184C459.905 73.0418 456.98 70.5412 455.574 67.0852Z" fill="#141414"/>
<path d="M465.868 109.219C462.815 109.219 459.613 107.667 456.337 104.6C454.81 103.183 452.747 100.978 452.217 98.1973C451.683 95.3796 452.725 92.6975 454.038 89.7334C455.164 87.1934 456.437 84.3167 458.182 81.8226C459.209 80.3262 460.452 78.9913 461.87 77.8618C462.265 77.5557 462.629 77.3109 462.924 77.1142C463.218 76.9175 463.633 76.6442 463.678 76.5284C463.661 76.4868 463.524 76.2464 462.575 75.5622C459.722 73.5074 456.605 70.9128 455.122 67.2557C453.282 62.72 454.562 57.0279 458.176 53.7206C461.79 50.4133 467.554 49.6395 471.896 51.8801C475.563 53.7709 477.89 57.2924 480.141 60.7002C482.208 63.826 484.343 67.0612 487.491 68.9345C488.104 69.2996 488.778 69.6275 489.43 69.9422C490.956 70.6767 492.514 71.4352 493.611 72.7839C495.074 74.5938 495.473 77.2869 494.681 79.9843C494.005 82.2904 492.629 84.2883 491.157 86.3015C486.088 93.2396 481.24 98.9099 476.326 103.64C473.534 106.329 470.136 109.105 466.106 109.203L465.868 109.219ZM456.019 66.8951C457.41 70.3226 460.4 72.797 463.144 74.7796C464.123 75.4879 464.653 75.9819 464.645 76.5655C464.636 77.1492 464.143 77.4639 463.465 77.9164C463.168 78.1153 462.832 78.3383 462.466 78.6246C461.123 79.6942 459.947 80.9585 458.976 82.3757C457.281 84.7933 456.08 87.5038 454.917 90.1247C453.672 92.938 452.68 95.4736 453.172 98.018C453.641 100.49 455.467 102.458 457.002 103.896C460.174 106.864 463.231 108.329 466.093 108.252C469.801 108.152 473.013 105.52 475.672 102.958C480.538 98.2672 485.353 92.6363 490.389 85.7441C491.807 83.8031 493.131 81.8816 493.765 79.7263C494.47 77.3218 494.134 74.9676 492.871 73.4047C491.907 72.2112 490.505 71.5314 489.017 70.8122C488.348 70.4887 487.654 70.1564 487.004 69.7652C483.67 67.7804 481.473 64.4512 479.347 61.2401C477.063 57.7842 474.906 54.5207 471.462 52.7457C467.462 50.6844 462.15 51.397 458.83 54.4398C455.511 57.4826 454.324 62.7134 456.019 66.8951Z" fill="#141414"/>
<path d="M467.881 67.7716C467.881 67.7716 459.99 79.6979 458.165 84.214C458.165 84.214 469.39 92.9096 474.599 92.9096C476.2 92.9096 483.46 88.8438 483.957 83.9604C484.455 79.0771 482.415 77.0355 480.075 74.3556C476.939 70.7663 467.862 70.2373 467.881 67.7716Z" fill="white"/>
<path d="M474.599 93.3926C469.286 93.3926 458.335 84.955 457.87 84.5943C457.788 84.53 457.728 84.4403 457.701 84.3389C457.674 84.2374 457.68 84.1298 457.72 84.0326C459.541 79.5252 467.157 67.9946 467.48 67.5049C467.538 67.4217 467.621 67.3591 467.718 67.3263C467.814 67.2934 467.918 67.2919 468.015 67.3221C468.112 67.3522 468.196 67.4124 468.257 67.4939C468.318 67.5755 468.351 67.6742 468.352 67.776C468.352 68.6503 470.653 69.4198 472.882 70.1652C475.639 71.0876 478.771 72.1325 480.429 74.0386L480.769 74.4255C482.996 76.9634 484.913 79.1536 484.426 84.0085C483.909 89.176 476.339 93.3926 474.599 93.3926ZM458.754 84.0566C460.546 85.4097 470.071 92.4286 474.599 92.4286C476.075 92.4286 483.022 88.3935 483.478 83.9036C483.929 79.4684 482.219 77.5207 480.056 75.0572L479.713 74.6681C478.219 72.9588 475.227 71.9576 472.586 71.0745C470.405 70.3422 468.553 69.7236 467.787 68.7902C466.069 71.4155 460.47 80.1089 458.754 84.0566Z" fill="#141414"/>
<path d="M481.848 95.0102C481.848 95.0102 487.164 84.6009 491.842 86.6404C498.511 89.5476 490.328 101.557 481.848 95.0102Z" fill="white"/>
<path d="M487.017 97.4103C485.172 97.4103 483.288 96.7305 481.554 95.3906C481.465 95.3218 481.403 95.2241 481.378 95.1144C481.354 95.0047 481.368 94.8897 481.419 94.7894C481.637 94.3522 486.998 84.0042 492.034 86.1988C493.741 86.942 494.712 88.3148 494.767 90.0613C494.843 92.5161 493.035 95.2528 490.466 96.5688C489.4 97.1208 488.217 97.4094 487.017 97.4103ZM482.466 94.8681C485.796 97.2551 488.618 96.4332 490.027 95.7097C492.282 94.5555 493.87 92.1926 493.805 90.0919C493.776 89.1345 493.369 87.8361 491.65 87.0819C488.3 85.6195 484.06 91.8975 482.466 94.8681Z" fill="#141414"/>
<path d="M485.009 93.3883C484.904 93.3888 484.802 93.3551 484.719 93.2923C484.635 93.2294 484.574 93.1409 484.545 93.0402C484.516 92.9395 484.521 92.8321 484.559 92.7344C484.596 92.6366 484.665 92.5538 484.753 92.4986C486.349 91.508 488.223 91.0653 490.093 91.2373C490.22 91.2492 490.337 91.3112 490.418 91.4095C490.499 91.5079 490.538 91.6347 490.527 91.762C490.515 91.8892 490.453 92.0065 490.355 92.0881C490.257 92.1697 490.13 92.2088 490.003 92.1969C488.343 92.0442 486.679 92.4371 485.262 93.3161C485.186 93.3638 485.098 93.3888 485.009 93.3883Z" fill="#141414"/>
<path d="M376.752 307.343C383.679 307.343 389.295 301.708 389.295 294.756C389.295 287.805 383.679 282.17 376.752 282.17C369.825 282.17 364.209 287.805 364.209 294.756C364.209 301.708 369.825 307.343 376.752 307.343Z" fill="#141414"/>
<path d="M375.201 301.852C375.122 301.851 375.044 301.831 374.974 301.793C374.905 301.754 374.846 301.7 374.802 301.633L369.843 294.155C369.772 294.048 369.746 293.918 369.771 293.792C369.796 293.667 369.87 293.556 369.977 293.485C370.083 293.414 370.213 293.388 370.339 293.414C370.464 293.439 370.574 293.513 370.645 293.62L375.208 300.501L383.319 288.529C383.394 288.431 383.503 288.365 383.625 288.346C383.746 288.326 383.871 288.354 383.973 288.423C384.074 288.492 384.146 288.598 384.172 288.718C384.199 288.839 384.178 288.965 384.115 289.071L375.609 301.637C375.564 301.704 375.504 301.759 375.432 301.796C375.361 301.834 375.282 301.853 375.201 301.852Z" fill="white"/>
<path d="M376.752 394.416C383.679 394.416 389.295 388.781 389.295 381.83C389.295 374.878 383.679 369.243 376.752 369.243C369.825 369.243 364.209 374.878 364.209 381.83C364.209 388.781 369.825 394.416 376.752 394.416Z" fill="#141414"/>
<path d="M375.201 388.919C375.122 388.918 375.044 388.897 374.974 388.859C374.905 388.821 374.846 388.766 374.802 388.7L369.843 381.22C369.779 381.113 369.759 380.986 369.786 380.865C369.813 380.743 369.886 380.637 369.99 380.569C370.093 380.5 370.219 380.474 370.341 380.496C370.463 380.518 370.572 380.586 370.645 380.686L375.208 387.568L383.319 375.595C383.353 375.539 383.398 375.49 383.451 375.452C383.504 375.413 383.565 375.386 383.629 375.372C383.693 375.358 383.759 375.357 383.824 375.369C383.888 375.382 383.949 375.407 384.003 375.444C384.058 375.481 384.104 375.529 384.139 375.584C384.174 375.64 384.198 375.702 384.208 375.767C384.219 375.832 384.216 375.898 384.2 375.962C384.184 376.026 384.155 376.085 384.115 376.138L375.609 388.702C375.565 388.77 375.504 388.825 375.433 388.862C375.362 388.9 375.282 388.92 375.201 388.919Z" fill="white"/>
<path d="M376.752 350.879C383.679 350.879 389.295 345.244 389.295 338.293C389.295 331.342 383.679 325.706 376.752 325.706C369.825 325.706 364.209 331.342 364.209 338.293C364.209 345.244 369.825 350.879 376.752 350.879Z" fill="#141414"/>
<path d="M375.201 345.382C375.122 345.381 375.044 345.361 374.974 345.323C374.905 345.285 374.846 345.23 374.802 345.163L369.84 337.701C369.77 337.594 369.744 337.463 369.769 337.338C369.794 337.212 369.868 337.102 369.975 337.031C370.081 336.96 370.211 336.934 370.337 336.959C370.462 336.984 370.572 337.058 370.643 337.165L375.206 344.046L383.317 332.074C383.392 331.976 383.501 331.911 383.623 331.891C383.744 331.871 383.869 331.899 383.97 331.968C384.072 332.038 384.144 332.143 384.17 332.264C384.197 332.384 384.176 332.51 384.113 332.616L375.607 345.181C375.561 345.245 375.5 345.297 375.429 345.332C375.359 345.367 375.28 345.384 375.201 345.382Z" fill="white"/>
<path d="M485.425 282.651H400.505C400.383 282.642 400.269 282.588 400.186 282.499C400.102 282.409 400.056 282.291 400.056 282.169C400.056 282.046 400.102 281.928 400.186 281.839C400.269 281.749 400.383 281.695 400.505 281.687H485.425C485.491 281.682 485.557 281.691 485.619 281.714C485.682 281.736 485.739 281.771 485.787 281.816C485.835 281.861 485.874 281.916 485.9 281.976C485.926 282.037 485.94 282.102 485.94 282.169C485.94 282.235 485.926 282.3 485.9 282.361C485.874 282.422 485.835 282.476 485.787 282.522C485.739 282.567 485.682 282.602 485.619 282.624C485.557 282.646 485.491 282.655 485.425 282.651Z" fill="#141414"/>
<path d="M541.87 379.335H400.505C400.383 379.327 400.269 379.273 400.186 379.183C400.102 379.094 400.056 378.976 400.056 378.853C400.056 378.731 400.102 378.613 400.186 378.524C400.269 378.434 400.383 378.38 400.505 378.371H541.87C541.936 378.367 542.002 378.376 542.064 378.398C542.126 378.421 542.183 378.455 542.231 378.501C542.28 378.546 542.318 378.6 542.344 378.661C542.371 378.722 542.384 378.787 542.384 378.853C542.384 378.92 542.371 378.985 542.344 379.046C542.318 379.107 542.28 379.161 542.231 379.206C542.183 379.252 542.126 379.286 542.064 379.309C542.002 379.331 541.936 379.34 541.87 379.335Z" fill="#141414"/>
<path d="M481.336 330.994H400.505C400.383 330.986 400.269 330.932 400.186 330.842C400.102 330.753 400.056 330.635 400.056 330.512C400.056 330.39 400.102 330.272 400.186 330.182C400.269 330.093 400.383 330.038 400.505 330.03H481.336C481.458 330.038 481.572 330.093 481.656 330.182C481.739 330.272 481.786 330.39 481.786 330.512C481.786 330.635 481.739 330.753 481.656 330.842C481.572 330.932 481.458 330.986 481.336 330.994Z" fill="#141414"/>
<path d="M541.87 330.994H494.736C494.614 330.986 494.5 330.932 494.416 330.842C494.333 330.753 494.286 330.635 494.286 330.512C494.286 330.39 494.333 330.272 494.416 330.182C494.5 330.093 494.614 330.038 494.736 330.03H541.87C541.936 330.026 542.002 330.035 542.064 330.057C542.126 330.079 542.183 330.114 542.231 330.159C542.28 330.204 542.318 330.259 542.344 330.32C542.371 330.381 542.384 330.446 542.384 330.512C542.384 330.578 542.371 330.644 542.344 330.705C542.318 330.765 542.28 330.82 542.231 330.865C542.183 330.91 542.126 330.945 542.064 330.967C542.002 330.989 541.936 330.999 541.87 330.994Z" fill="#141414"/>
<path d="M474.891 340.953H445.09C444.968 340.945 444.853 340.891 444.77 340.801C444.687 340.712 444.64 340.594 444.64 340.471C444.64 340.349 444.687 340.231 444.77 340.141C444.853 340.052 444.968 339.997 445.09 339.989H474.891C475.013 339.997 475.127 340.052 475.211 340.141C475.294 340.231 475.341 340.349 475.341 340.471C475.341 340.594 475.294 340.712 475.211 340.801C475.127 340.891 475.013 340.945 474.891 340.953Z" fill="#141414"/>
<path d="M507.77 292.612H445.09C444.968 292.604 444.853 292.549 444.77 292.46C444.687 292.37 444.64 292.252 444.64 292.13C444.64 292.007 444.687 291.889 444.77 291.8C444.853 291.71 444.968 291.656 445.09 291.648H507.77C507.836 291.643 507.902 291.653 507.964 291.675C508.026 291.697 508.083 291.732 508.131 291.777C508.18 291.822 508.218 291.877 508.244 291.937C508.271 291.998 508.284 292.064 508.284 292.13C508.284 292.196 508.271 292.261 508.244 292.322C508.218 292.383 508.18 292.438 508.131 292.483C508.083 292.528 508.026 292.563 507.964 292.585C507.902 292.607 507.836 292.616 507.77 292.612Z" fill="#141414"/>
<path d="M599.486 292.612H523.15C523.084 292.616 523.018 292.607 522.956 292.585C522.894 292.563 522.837 292.528 522.789 292.483C522.74 292.438 522.702 292.383 522.676 292.322C522.649 292.261 522.636 292.196 522.636 292.13C522.636 292.064 522.649 291.998 522.676 291.937C522.702 291.877 522.74 291.822 522.789 291.777C522.837 291.732 522.894 291.697 522.956 291.675C523.018 291.653 523.084 291.643 523.15 291.648H599.486C599.551 291.643 599.618 291.653 599.68 291.675C599.742 291.697 599.799 291.732 599.847 291.777C599.895 291.822 599.934 291.877 599.96 291.937C599.986 291.998 600 292.064 600 292.13C600 292.196 599.986 292.261 599.96 292.322C599.934 292.383 599.895 292.438 599.847 292.483C599.799 292.528 599.742 292.563 599.68 292.585C599.618 292.607 599.551 292.616 599.486 292.612Z" fill="#141414"/>
<path d="M504.066 389.288H445.09C444.968 389.28 444.853 389.225 444.77 389.136C444.687 389.046 444.64 388.928 444.64 388.806C444.64 388.683 444.687 388.566 444.77 388.476C444.853 388.387 444.968 388.332 445.09 388.324H504.066C504.188 388.332 504.303 388.387 504.386 388.476C504.47 388.566 504.516 388.683 504.516 388.806C504.516 388.928 504.47 389.046 504.386 389.136C504.303 389.225 504.188 389.28 504.066 389.288Z" fill="#141414"/>
<path d="M561.316 389.288H515.261C515.196 389.292 515.129 389.283 515.067 389.261C515.005 389.239 514.948 389.204 514.9 389.159C514.852 389.114 514.813 389.059 514.787 388.998C514.761 388.938 514.747 388.872 514.747 388.806C514.747 388.74 514.761 388.674 514.787 388.614C514.813 388.553 514.852 388.498 514.9 388.453C514.948 388.408 515.005 388.373 515.067 388.351C515.129 388.329 515.196 388.32 515.261 388.324H561.316C561.438 388.332 561.552 388.387 561.635 388.476C561.719 388.565 561.765 388.683 561.765 388.806C561.765 388.928 561.719 389.046 561.635 389.136C561.552 389.225 561.438 389.28 561.316 389.288Z" fill="#141414"/>
<path d="M599.486 389.288H568.445C568.38 389.292 568.313 389.283 568.251 389.261C568.189 389.239 568.132 389.204 568.084 389.159C568.036 389.114 567.997 389.059 567.971 388.998C567.945 388.938 567.931 388.872 567.931 388.806C567.931 388.74 567.945 388.674 567.971 388.614C567.997 388.553 568.036 388.498 568.084 388.453C568.132 388.408 568.189 388.373 568.251 388.351C568.313 388.329 568.38 388.32 568.445 388.324H599.486C599.551 388.32 599.618 388.329 599.68 388.351C599.742 388.373 599.799 388.408 599.847 388.453C599.895 388.498 599.934 388.553 599.96 388.614C599.986 388.674 600 388.74 600 388.806C600 388.872 599.986 388.938 599.96 388.998C599.934 389.059 599.895 389.114 599.847 389.159C599.799 389.204 599.742 389.239 599.68 389.261C599.618 389.283 599.551 389.292 599.486 389.288Z" fill="#141414"/>
<path d="M557.218 340.953H489.074C489.008 340.958 488.942 340.948 488.88 340.926C488.818 340.904 488.761 340.869 488.713 340.824C488.664 340.779 488.626 340.724 488.6 340.664C488.573 340.603 488.56 340.537 488.56 340.471C488.56 340.405 488.573 340.34 488.6 340.279C488.626 340.218 488.664 340.163 488.713 340.118C488.761 340.073 488.818 340.038 488.88 340.016C488.942 339.994 489.008 339.985 489.074 339.989H557.218C557.34 339.997 557.454 340.052 557.537 340.141C557.621 340.231 557.667 340.349 557.667 340.471C557.667 340.594 557.621 340.712 557.537 340.801C557.454 340.891 557.34 340.945 557.218 340.953Z" fill="#141414"/>
<path d="M599.486 340.953H568.445C568.38 340.958 568.313 340.948 568.251 340.926C568.189 340.904 568.132 340.869 568.084 340.824C568.036 340.779 567.997 340.724 567.971 340.664C567.945 340.603 567.931 340.537 567.931 340.471C567.931 340.405 567.945 340.34 567.971 340.279C567.997 340.218 568.036 340.163 568.084 340.118C568.132 340.073 568.189 340.038 568.251 340.016C568.313 339.994 568.38 339.985 568.445 339.989H599.486C599.551 339.985 599.618 339.994 599.68 340.016C599.742 340.038 599.799 340.073 599.847 340.118C599.895 340.163 599.934 340.218 599.96 340.279C599.986 340.34 600 340.405 600 340.471C600 340.537 599.986 340.603 599.96 340.664C599.934 340.724 599.895 340.779 599.847 340.824C599.799 340.869 599.742 340.904 599.68 340.926C599.618 340.948 599.551 340.958 599.486 340.953Z" fill="#141414"/>
<path d="M525.761 303.314H445.09C444.968 303.306 444.853 303.251 444.77 303.162C444.687 303.072 444.64 302.955 444.64 302.832C444.64 302.71 444.687 302.592 444.77 302.502C444.853 302.413 444.968 302.358 445.09 302.35H525.761C525.827 302.346 525.893 302.355 525.955 302.377C526.017 302.399 526.074 302.434 526.123 302.479C526.171 302.524 526.209 302.579 526.235 302.64C526.262 302.7 526.275 302.766 526.275 302.832C526.275 302.898 526.262 302.964 526.235 303.024C526.209 303.085 526.171 303.14 526.123 303.185C526.074 303.23 526.017 303.265 525.955 303.287C525.893 303.309 525.827 303.318 525.761 303.314Z" fill="#141414"/>
<path d="M599.486 303.314H541.87C541.748 303.306 541.634 303.251 541.55 303.162C541.467 303.072 541.42 302.955 541.42 302.832C541.42 302.71 541.467 302.592 541.55 302.502C541.634 302.413 541.748 302.358 541.87 302.35H599.486C599.551 302.346 599.618 302.355 599.68 302.377C599.742 302.399 599.799 302.434 599.847 302.479C599.895 302.524 599.934 302.579 599.96 302.64C599.986 302.7 600 302.766 600 302.832C600 302.898 599.986 302.964 599.96 303.024C599.934 303.085 599.895 303.14 599.847 303.185C599.799 303.23 599.742 303.265 599.68 303.287C599.618 303.309 599.551 303.318 599.486 303.314Z" fill="#141414"/>
<path d="M481.336 399.999H445.09C444.968 399.991 444.853 399.936 444.77 399.847C444.687 399.757 444.64 399.639 444.64 399.517C444.64 399.394 444.687 399.276 444.77 399.187C444.853 399.097 444.968 399.043 445.09 399.035H481.336C481.458 399.043 481.572 399.097 481.656 399.187C481.739 399.276 481.786 399.394 481.786 399.517C481.786 399.639 481.739 399.757 481.656 399.847C481.572 399.936 481.458 399.991 481.336 399.999Z" fill="#141414"/>
<path d="M548.075 399.999H489.074C489.008 400.003 488.942 399.994 488.88 399.972C488.818 399.95 488.761 399.915 488.713 399.87C488.664 399.825 488.626 399.77 488.6 399.709C488.573 399.649 488.56 399.583 488.56 399.517C488.56 399.451 488.573 399.385 488.6 399.325C488.626 399.264 488.664 399.209 488.713 399.164C488.761 399.119 488.818 399.084 488.88 399.062C488.942 399.04 489.008 399.03 489.074 399.035H548.075C548.141 399.03 548.207 399.04 548.269 399.062C548.331 399.084 548.388 399.119 548.436 399.164C548.485 399.209 548.523 399.264 548.549 399.325C548.576 399.385 548.589 399.451 548.589 399.517C548.589 399.583 548.576 399.649 548.549 399.709C548.523 399.77 548.485 399.825 548.436 399.87C548.388 399.915 548.331 399.95 548.269 399.972C548.207 399.994 548.141 400.003 548.075 399.999Z" fill="#141414"/>
<path d="M599.486 399.999H561.318C561.252 400.003 561.186 399.994 561.124 399.972C561.062 399.95 561.005 399.915 560.956 399.87C560.908 399.825 560.87 399.77 560.843 399.709C560.817 399.649 560.803 399.583 560.803 399.517C560.803 399.451 560.817 399.385 560.843 399.325C560.87 399.264 560.908 399.209 560.956 399.164C561.005 399.119 561.062 399.084 561.124 399.062C561.186 399.04 561.252 399.03 561.318 399.035H599.486C599.551 399.03 599.618 399.04 599.68 399.062C599.742 399.084 599.799 399.119 599.847 399.164C599.895 399.209 599.934 399.264 599.96 399.325C599.986 399.385 600 399.451 600 399.517C600 399.583 599.986 399.649 599.96 399.709C599.934 399.77 599.895 399.825 599.847 399.87C599.799 399.915 599.742 399.95 599.68 399.972C599.618 399.994 599.551 400.003 599.486 399.999Z" fill="#141414"/>
<path d="M504.066 351.658H445.09C444.968 351.649 444.853 351.595 444.77 351.505C444.687 351.416 444.64 351.298 444.64 351.176C444.64 351.053 444.687 350.935 444.77 350.846C444.853 350.756 444.968 350.702 445.09 350.694H504.066C504.188 350.702 504.303 350.756 504.386 350.846C504.47 350.935 504.516 351.053 504.516 351.176C504.516 351.298 504.47 351.416 504.386 351.505C504.303 351.595 504.188 351.649 504.066 351.658Z" fill="#141414"/>
<path d="M599.486 351.658H515.261C515.196 351.662 515.129 351.653 515.067 351.631C515.005 351.608 514.948 351.574 514.9 351.528C514.852 351.483 514.813 351.429 514.787 351.368C514.761 351.307 514.747 351.242 514.747 351.176C514.747 351.109 514.761 351.044 514.787 350.983C514.813 350.923 514.852 350.868 514.9 350.823C514.948 350.777 515.005 350.743 515.067 350.72C515.129 350.698 515.196 350.689 515.261 350.694H599.486C599.551 350.689 599.618 350.698 599.68 350.72C599.742 350.743 599.799 350.777 599.847 350.823C599.895 350.868 599.934 350.923 599.96 350.983C599.986 351.044 600 351.109 600 351.176C600 351.242 599.986 351.307 599.96 351.368C599.934 351.429 599.895 351.483 599.847 351.528C599.799 351.574 599.742 351.608 599.68 351.631C599.618 351.653 599.551 351.662 599.486 351.658Z" fill="#141414"/>
<path d="M376.272 274.012C376.144 274.012 376.022 273.961 375.931 273.87C375.841 273.78 375.79 273.657 375.79 273.529V216.217C375.791 216.089 375.842 215.967 375.932 215.876C376.022 215.786 376.145 215.736 376.272 215.736H418.658C418.724 215.731 418.79 215.74 418.852 215.763C418.914 215.785 418.971 215.82 419.02 215.865C419.068 215.91 419.106 215.965 419.133 216.025C419.159 216.086 419.172 216.151 419.172 216.218C419.172 216.284 419.159 216.349 419.133 216.41C419.106 216.471 419.068 216.525 419.02 216.571C418.971 216.616 418.914 216.651 418.852 216.673C418.79 216.695 418.724 216.704 418.658 216.7H376.752V273.533C376.751 273.66 376.701 273.782 376.611 273.872C376.521 273.962 376.399 274.012 376.272 274.012Z" fill="#141414"/>
<defs>
<linearGradient id="paint0_linear_117_3" x1="490.459" y1="216.428" x2="490.459" y2="89.5105" gradientUnits="userSpaceOnUse">
<stop stop-color="#DC1D47"/>
<stop offset="1" stop-color="#E54327"/>
</linearGradient>
<linearGradient id="paint1_linear_117_3" x1="339.133" y1="101.268" x2="339.133" y2="58.2586" gradientUnits="userSpaceOnUse">
<stop stop-color="#DC1D47"/>
<stop offset="1" stop-color="#E54327"/>
</linearGradient>
<linearGradient id="paint2_linear_117_3" x1="529.357" y1="227.084" x2="529.357" y2="142.796" gradientUnits="userSpaceOnUse">
<stop stop-color="#DC1D47"/>
<stop offset="1" stop-color="#E54327"/>
</linearGradient>
</defs>
</svg>
