<svg width="32" height="32" viewBox="0 0 32 32" fill="none" xmlns="http://www.w3.org/2000/svg">
<g clip-path="url(#clip0_27_33)">
<path d="M9.62052 7.67235L3.0401 2.99784L4.53631 1.46964L12.4936 4.40856L9.62052 7.67235Z" stroke="#DC1D47" stroke-miterlimit="10" stroke-linecap="round" stroke-linejoin="round"/>
<path d="M18.2594 15.4874L16.7632 17.0157L12.4376 10.5149L15.6146 7.59887L18.2594 15.4874Z" stroke="#DC1D47" stroke-miterlimit="10" stroke-linecap="round" stroke-linejoin="round"/>
<path d="M30.9759 15.3376C29.7224 9.58671 24.6987 5.28748 18.6914 5.28748C18.497 5.28748 18.303 5.29188 18.1104 5.30131C18.0914 5.32079 18.0723 5.34028 18.0526 5.35914L8.09014 14.5081C7.87249 14.708 7.70802 14.961 7.61211 15.2435C7.5162 15.526 7.49197 15.8287 7.5417 16.1233L7.80152 17.662L6.16137 19.3368L6.15829 19.3287C6.74347 25.8731 12.1313 31 18.6914 31C24.7372 31 29.7869 26.6449 30.9996 20.8387" stroke="#141414" stroke-miterlimit="10" stroke-linecap="round" stroke-linejoin="round"/>
<path d="M30.9758 15.3376C30.4387 12.8732 29.2102 10.6752 27.5076 8.9686H24.1216C23.3481 8.9686 22.721 9.60921 22.721 10.3999V11.158C22.721 11.9483 23.3481 12.5888 24.1216 12.5888C24.3542 12.5885 24.5845 12.6351 24.7993 12.726C25.0141 12.817 25.2092 12.9504 25.3734 13.1187C25.5382 13.2863 25.6688 13.4856 25.7579 13.705C25.8469 13.9245 25.8925 14.1598 25.8922 14.3973V16.8017C25.8922 17.6608 25.5582 18.4848 24.9635 19.0923L21.4926 22.6376C21.3339 22.7998 21.2079 22.9922 21.122 23.2041C21.036 23.4159 20.9918 23.643 20.9918 23.8723V25.7637C20.9918 26.227 21.172 26.6708 21.4926 26.9983L24.1616 29.7252C27.6092 28.0234 30.1806 24.7625 31 20.8388" stroke="#141414" stroke-miterlimit="10" stroke-linecap="round" stroke-linejoin="round"/>
<path d="M17.119 23.4467L15.0236 25.5864C14.935 25.6769 14.8648 25.7843 14.8168 25.9025C14.7689 26.0207 14.7442 26.1474 14.7442 26.2754V30.3544C11.4962 29.2606 8.83337 26.8512 7.3595 23.7446L9.1682 21.8978C9.25659 21.8072 9.36162 21.7354 9.47724 21.6865C9.59287 21.6375 9.71683 21.6123 9.842 21.6124H13.1781C13.431 21.6124 13.6734 21.5099 13.8525 21.327L14.4483 20.7185C14.8205 20.3382 15.4242 20.3382 15.7966 20.7185L17.119 22.0694C17.4914 22.4497 17.4914 23.0664 17.119 23.4467Z" stroke="#141414" stroke-miterlimit="10" stroke-linecap="round" stroke-linejoin="round"/>
<path d="M7.54158 16.1237C7.4918 15.8291 7.51599 15.5263 7.61189 15.2438C7.7078 14.9613 7.87228 14.7082 8.08996 14.5083L18.0526 5.35895C18.3481 5.0736 18.5809 4.72742 18.7356 4.3433C18.8904 3.95917 18.9635 3.54587 18.9501 3.13073L18.9144 2.01791C18.8973 1.48416 18.4777 1.05551 17.9552 1.03803L16.8657 1.00157C16.4593 0.987963 16.0547 1.06264 15.6786 1.22068C15.3026 1.37872 14.9637 1.61651 14.6843 1.91833L5.72728 12.0948C5.53156 12.3172 5.28382 12.4852 5.00723 12.5832C4.73065 12.6812 4.43425 12.7059 4.14577 12.6551L2.63997 12.3896L1 14.0648L4.7264 15.5306L6.16144 19.337L7.80147 17.6619L7.54158 16.1237Z" stroke="#DC1D47" stroke-miterlimit="10" stroke-linecap="round" stroke-linejoin="round"/>
</g>
<defs>
<clipPath id="clip0_27_33">
<rect width="32" height="32" fill="white"/>
</clipPath>
</defs>
</svg>
