<svg width="64" height="64" viewBox="0 0 64 64" fill="none" xmlns="http://www.w3.org/2000/svg">
<g clip-path="url(#clip0_54_735)">
<path d="M56.4 0H7.6C3.39 0 0 3.38 0 7.59V56.41C0 60.61 3.39 64 7.6 64H56.4C60.61 64 64 60.61 64 56.41V7.59C64 3.38 60.61 0 56.4 0ZM27.53 46.04C27.53 47.49 26.4 48.61 24.96 48.61H14.28C12.84 48.61 11.71 47.47 11.71 46.04V14.36C11.71 12.92 12.84 11.8 14.28 11.8H24.96C26.4 11.8 27.53 12.93 27.53 14.36V46.04ZM49.72 34.04H38.93C37.49 34.04 36.36 32.91 36.36 31.49V14.36C36.36 12.92 37.49 11.8 38.93 11.8H49.61C51.05 11.8 52.18 12.93 52.18 14.36V31.49H52.19C52.19 32.93 51.06 34.04 49.72 34.04Z" fill="#4B7BBE"/>
</g>
<defs>
<clipPath id="clip0_54_735">
<rect width="64" height="64" fill="white"/>
</clipPath>
</defs>
</svg>
