<svg width="32" height="32" viewBox="0 0 32 32" fill="none" xmlns="http://www.w3.org/2000/svg">
<path d="M1.40201 16.5722C1.19448 16.2487 1.09083 16.0869 1.03266 15.8374C0.989115 15.65 0.989115 15.3544 1.03266 15.167C1.09083 14.9174 1.19448 14.7558 1.40201 14.4322C3.11692 11.7587 8.22129 5 16 5C23.7787 5 28.8831 11.7587 30.5979 14.4322C30.8054 14.7558 30.9092 14.9174 30.9673 15.167C31.0109 15.3544 31.0109 15.65 30.9673 15.8374C30.9092 16.0869 30.8054 16.2487 30.5979 16.5722C28.8831 19.2456 23.7787 26.0043 16 26.0043C8.22129 26.0043 3.11692 19.2456 1.40201 16.5722Z" stroke="#141414" stroke-width="1.3" stroke-linecap="round" stroke-linejoin="round"/>
<path d="M16 20.0031C18.5247 20.0031 20.5712 17.988 20.5712 15.5022C20.5712 13.0163 18.5247 11.0013 16 11.0013C13.4754 11.0013 11.4287 13.0163 11.4287 15.5022C11.4287 17.988 13.4754 20.0031 16 20.0031Z" stroke="#DC1D47" stroke-width="1.3" stroke-linecap="round" stroke-linejoin="round"/>
</svg>