<svg width="64" height="64" viewBox="0 0 64 64" fill="none" xmlns="http://www.w3.org/2000/svg">
<g clip-path="url(#clip0_54_737)">
<path d="M61.74 6.91999L48.56 0.579992C47.03 -0.150008 45.21 0.159992 44.01 1.34999L0.87 40.69C-0.29 41.75 -0.29 43.57 0.87 44.63L4.39 47.83C5.34 48.69 6.77 48.76 7.79 47.98L59.75 8.56999C61.5 7.24999 64 8.48999 64 10.68V10.53C64 8.98999 63.12 7.58999 61.74 6.91999Z" fill="#0065A9"/>
<path d="M61.74 57.0801L48.56 63.4301C47.03 64.1601 45.21 63.8501 44.01 62.6601L0.87 23.3101C-0.29 22.2501 -0.29 20.4201 0.87 19.3701L4.39 16.1701C5.34 15.3101 6.77 15.2401 7.79 16.0201L59.74 55.4301C61.5 56.7501 64 55.5101 64 53.3201V53.4701C64 55.0101 63.12 56.4101 61.74 57.0801Z" fill="#007ACC"/>
<path d="M48.56 63.42C47.03 64.15 45.21 63.84 44.01 62.65C45.49 64.13 48.01 63.08 48.01 60.99V3.00996C48.01 0.91996 45.49 -0.120039 44.01 1.34996C45.21 0.149961 47.03 -0.16004 48.56 0.57996L61.74 6.91996C63.12 7.57996 64 8.97996 64 10.52V53.49C64 55.03 63.12 56.43 61.73 57.09L48.56 63.42Z" fill="#1F9CF0"/>
</g>
<defs>
<clipPath id="clip0_54_737">
<rect width="64" height="64" fill="white"/>
</clipPath>
</defs>
</svg>
