<svg width="35" height="35" viewBox="0 0 35 35" fill="none" xmlns="http://www.w3.org/2000/svg">
<g clip-path="url(#clip0_46_309)">
<path d="M10.1806 34.3164H22.7587V33.3618C22.7587 32.3789 21.9618 31.582 20.9789 31.582H11.9604C10.9775 31.582 10.1806 32.3789 10.1806 33.3618V34.3164Z" stroke="#141414" stroke-width="0.89" stroke-miterlimit="10" stroke-linecap="round" stroke-linejoin="round"/>
<path d="M14.2821 31.582H18.6571V27.8906H14.2821V31.582Z" stroke="#141414" stroke-width="0.89" stroke-miterlimit="10" stroke-linecap="round" stroke-linejoin="round"/>
<path d="M32.2495 14.5606V25.8376C32.2495 26.9715 31.3303 27.8907 30.1964 27.8907H2.73662C1.60275 27.8907 0.683594 26.9715 0.683594 25.8376V6.9751C0.683594 5.84113 1.60275 4.922 2.73662 4.922H19.5507" stroke="#141414" stroke-width="0.89" stroke-miterlimit="10" stroke-linecap="round" stroke-linejoin="round"/>
<path d="M26.7811 23.592H0.683533" stroke="#141414" stroke-width="0.89" stroke-miterlimit="10" stroke-linecap="round" stroke-linejoin="round"/>
<path d="M0.700012 20.3L6.58533 20.3028" stroke="#141414" stroke-width="0.89" stroke-miterlimit="10" stroke-linecap="round" stroke-linejoin="round"/>
<path d="M21 15.5L19.2753 13.6498L20.4013 12.5237C19.9766 11.8588 19.6721 11.1243 19.5016 10.354H17.9102L17.9101 7.41955H19.4997C19.6695 6.64826 19.9736 5.9128 20.398 5.24675L19.2753 4.12378L21.3502 2.04886L22.471 3.16961C23.1374 2.74326 23.8736 2.43763 24.646 2.26672V0.683655H27.5804V2.26487C28.3537 2.43504 29.091 2.74022 29.7584 3.16639L30.8762 2.04886L32.9511 4.12385L31.8336 5.24129C32.2598 5.90864 32.5649 6.64623 32.7351 7.41955H34.3163V10.354L32.7333 10.354C32.5623 11.1263 32.2567 11.8625 31.8304 12.5287L32.9511 13.6498L30.8762 15.7247M21 15.5L22.4762 14.5987C23.1412 15.0234 23.8757 15.3278 24.646 15.4984V17.0898H27.5804V15.5002C28.3517 15.3304 29.0872 15.0264 29.7532 14.6019L30.8762 15.7247" stroke="#141414" stroke-width="0.89" stroke-miterlimit="10" stroke-linecap="round" stroke-linejoin="round"/>
<path d="M29.6679 8.88676C29.6679 6.92358 28.0764 5.33209 26.1132 5.33209C24.15 5.33209 22.5585 6.92358 22.5585 8.88676C22.5585 10.85 24.15 12.4415 26.1132 12.4415C28.0764 12.4415 29.6679 10.85 29.6679 8.88676Z" stroke="#DC1D47" stroke-width="0.89" stroke-miterlimit="10" stroke-linecap="round" stroke-linejoin="round"/>
<path d="M14.8815 13.4822C14.8815 13.2235 14.8548 12.971 14.8041 12.7273L15.8633 12.1157L14.7092 10.1166L13.6492 10.7286C13.2703 10.3893 12.8253 10.1321 12.3423 9.973V8.75006H10.034V9.973C9.55089 10.1321 9.1059 10.3893 8.72699 10.7286L7.66701 10.1166L6.51282 12.1157L7.57206 12.7273C7.5205 12.9756 7.49457 13.2286 7.49467 13.4822C7.49467 13.741 7.52141 13.9935 7.57206 14.2372L6.51282 14.8487L7.66701 16.8479L8.72699 16.2359C9.1059 16.5751 9.55089 16.8324 10.034 16.9914V18.2144H12.3423V16.9914C12.8253 16.8324 13.2703 16.5751 13.6492 16.2359L14.7092 16.8479L15.8633 14.8487L14.8041 14.2372C14.8557 13.9888 14.8816 13.7358 14.8815 13.4822Z" stroke="#141414" stroke-width="0.89" stroke-miterlimit="10" stroke-linecap="round" stroke-linejoin="round"/>
<path d="M11.2109 15.02C12.0688 15.02 12.7642 14.3246 12.7642 13.4668C12.7642 12.609 12.0688 11.9136 11.2109 11.9136C10.3531 11.9136 9.65771 12.609 9.65771 13.4668C9.65771 14.3246 10.3531 15.02 11.2109 15.02Z" stroke="#DC1D47" stroke-width="0.89"/>
<path d="M7.79298 20.8306C8.0845 20.8306 8.32083 20.5943 8.32083 20.3027C8.32083 20.0112 8.0845 19.7749 7.79298 19.7749C7.50146 19.7749 7.26514 20.0112 7.26514 20.3027C7.26514 20.5943 7.50146 20.8306 7.79298 20.8306Z" stroke="#DC1D47" stroke-width="0.89"/>
<path d="M16.4746 26.2993C16.7661 26.2993 17.0025 26.063 17.0025 25.7715C17.0025 25.48 16.7661 25.2437 16.4746 25.2437C16.1831 25.2437 15.9468 25.48 15.9468 25.7715C15.9468 26.063 16.1831 26.2993 16.4746 26.2993Z" stroke="#DC1D47" stroke-width="0.89"/>
<path d="M29.3945 24.1118C29.6861 24.1118 29.9224 23.8755 29.9224 23.584C29.9224 23.2925 29.6861 23.0562 29.3945 23.0562C29.103 23.0562 28.8667 23.2925 28.8667 23.584C28.8667 23.8755 29.103 24.1118 29.3945 24.1118Z" stroke="#DC1D47" stroke-width="0.89"/>
</g>
<defs>
<clipPath id="clip0_46_309">
<rect width="35" height="35" fill="white"/>
</clipPath>
</defs>
</svg>
