<svg width="400" height="400" viewBox="0 0 400 400" fill="none" xmlns="http://www.w3.org/2000/svg">
<g clip-path="url(#clip0_108_89)">
<path d="M400 200C400 303.576 321.272 388.761 220.391 398.978C213.685 399.652 206.88 400 200 400C181.359 400 163.304 397.446 146.185 392.674C137.348 390.217 128.772 387.163 120.478 383.565C96.1196 373 74.2826 357.728 56.1087 338.902C21.3696 302.924 0 253.957 0 200C0 89.5435 89.5435 0 200 0C310.457 0 400 89.5435 400 200Z" fill="white"/>
<path fill-rule="evenodd" clip-rule="evenodd" d="M312.902 34.1522C312.902 34.1522 233.413 31.5109 232.652 34.4348L209.261 125.315H337.565L360.956 34.4348C361.706 31.5109 312.902 34.1522 312.902 34.1522Z" fill="white"/>
<path fill-rule="evenodd" clip-rule="evenodd" d="M363.489 24.5761H235.196L232.652 34.4348H360.957L363.489 24.5761Z" fill="#141414"/>
<path fill-rule="evenodd" clip-rule="evenodd" d="M242.707 29.5652C242.391 30.8043 241.13 31.8043 239.891 31.8043C238.652 31.8043 237.902 30.7935 238.228 29.5652C238.543 28.3261 239.804 27.3261 241.043 27.3261C242.272 27.3261 243.022 28.337 242.707 29.5652Z" fill="white"/>
<path fill-rule="evenodd" clip-rule="evenodd" d="M249.946 29.5652C249.63 30.8043 248.37 31.8043 247.13 31.8043C245.891 31.8043 245.141 30.7935 245.467 29.5652C245.783 28.3261 247.054 27.3261 248.283 27.3261C249.522 27.3261 250.261 28.337 249.946 29.5652Z" fill="white"/>
<path fill-rule="evenodd" clip-rule="evenodd" d="M257.185 29.5652C256.87 30.8043 255.609 31.8043 254.37 31.8043C253.13 31.8043 252.38 30.7935 252.707 29.5652C253.022 28.3261 254.283 27.3261 255.522 27.3261C256.761 27.3261 257.511 28.337 257.185 29.5652Z" fill="white"/>
<path opacity="0.1" fill-rule="evenodd" clip-rule="evenodd" d="M309.348 63.7717H232.217L233.087 60.3913H310.217L309.348 63.7717Z" fill="#141414"/>
<path opacity="0.1" fill-rule="evenodd" clip-rule="evenodd" d="M342.206 63.7717H314.489L315.359 60.3913H343.076L342.206 63.7717Z" fill="#141414"/>
<path opacity="0.1" fill-rule="evenodd" clip-rule="evenodd" d="M287.37 74.7283H265.12L266 71.337H288.239L287.37 74.7283Z" fill="#141414"/>
<path opacity="0.1" fill-rule="evenodd" clip-rule="evenodd" d="M336.652 74.7283H292.5L293.38 71.337H337.522L336.652 74.7283Z" fill="#141414"/>
<path opacity="0.1" fill-rule="evenodd" clip-rule="evenodd" d="M278.913 107.587H256.663L257.543 104.196H279.783L278.913 107.587Z" fill="#141414"/>
<path opacity="0.1" fill-rule="evenodd" clip-rule="evenodd" d="M328.185 107.587H284.043L284.913 104.196H329.054L328.185 107.587Z" fill="#141414"/>
<path opacity="0.1" fill-rule="evenodd" clip-rule="evenodd" d="M322.87 85.6739H275.989L276.859 82.2935H323.75L322.87 85.6739Z" fill="#141414"/>
<path opacity="0.1" fill-rule="evenodd" clip-rule="evenodd" d="M298.152 96.6304H273.174L274.043 93.2391H299.022L298.152 96.6304Z" fill="#141414"/>
<path fill-rule="evenodd" clip-rule="evenodd" d="M246.315 54.6304C246.25 54.6304 246.185 54.5978 246.141 54.5435L241.935 48.8804L249.011 43.25C249.098 43.1739 249.239 43.1957 249.315 43.2826C249.391 43.3696 249.37 43.5109 249.283 43.587L242.522 48.9565L246.478 54.2935C246.543 54.3913 246.533 54.5217 246.435 54.5978C246.402 54.6196 246.359 54.6304 246.315 54.6304Z" fill="#141414"/>
<path fill-rule="evenodd" clip-rule="evenodd" d="M255.326 54.6304C255.261 54.6304 255.207 54.5978 255.163 54.5544C255.087 54.4674 255.109 54.3261 255.196 54.25L261.957 48.8804L257.989 43.5435C257.924 43.4457 257.935 43.3152 258.033 43.2391C258.13 43.1631 258.261 43.1848 258.337 43.2826L262.543 48.9457L255.467 54.5761C255.413 54.6196 255.37 54.6304 255.326 54.6304Z" fill="#141414"/>
<path fill-rule="evenodd" clip-rule="evenodd" d="M248.543 54.2935C248.5 54.2935 248.457 54.2826 248.424 54.25C248.326 54.1848 248.304 54.0435 248.37 53.9457L255.783 43.587C255.848 43.4891 255.989 43.4674 256.076 43.5326C256.174 43.5978 256.196 43.7391 256.13 43.837L248.717 54.2065C248.674 54.2609 248.609 54.2935 248.543 54.2935Z" fill="#141414"/>
<path d="M107.239 388.576C107.391 390.359 109.043 396.163 109.793 397.402C110.109 397.924 110.609 398.283 111.207 398.424C111.804 398.565 112.413 398.467 112.924 398.152C113.989 397.5 114.326 396.087 113.674 395.022C112.685 393.402 108.717 389.163 107.239 388.576ZM111.739 400C111.446 400 111.141 399.967 110.848 399.891C109.859 399.652 109.033 399.054 108.5 398.185C108.076 397.489 104.652 388.163 106.174 387.185C106.391 387.043 106.783 386.891 107.337 387.022C109.63 387.543 114.185 392.935 114.957 394.207C115.489 395.065 115.652 396.087 115.413 397.076C115.174 398.065 114.576 398.891 113.707 399.424C113.12 399.804 112.435 400 111.739 400Z" fill="white"/>
<path fill-rule="evenodd" clip-rule="evenodd" d="M165.163 348.891C159.228 359.163 152.793 374.359 146.185 392.674C137.348 390.217 128.772 387.163 120.478 383.565C96.1196 373 74.2826 357.728 56.1087 338.902C72.75 258.75 89.75 217.924 89.75 217.924L121.543 211.239L135.457 208.315L151.413 204.967L151.489 205.739L165.163 348.891Z" fill="url(#paint0_linear_108_89)"/>
<path fill-rule="evenodd" clip-rule="evenodd" d="M220.391 398.978C213.685 399.652 206.88 400 200 400C181.359 400 163.304 397.446 146.185 392.674C137.348 390.217 128.772 387.163 120.478 383.565C119.848 381.913 119.511 381.054 119.511 381.054L121.543 211.239L121.554 210.554L135.457 208.315L151.489 205.739L176.609 201.707C214.239 233.63 216.359 324.989 220.391 398.978Z" fill="url(#paint1_linear_108_89)"/>
<path fill-rule="evenodd" clip-rule="evenodd" d="M136.424 138.457C136.424 138.457 183.848 155.489 192.554 138.902C201.598 121.685 212.207 101.793 217.913 92.25C229.685 72.5652 249.935 45.2283 253.728 48.1087C255.891 49.75 253.902 54.0544 247.815 65.1848C248.685 64.9348 251.522 64.8044 253.272 66.663C255.87 69.4022 254.228 72.1087 254.196 72.4022C254.478 72.2935 257.837 71.2065 259.88 72.75C262.185 74.4783 262.457 76.913 261.924 79.1196C262.652 78.8696 265.891 78.3043 267.783 79.8804C270.239 81.9348 269.663 85.4239 268.283 87.6739C265.728 91.7935 258.489 102.891 255.402 109.239C251.565 117.152 236.935 149.652 226.685 172.489C220.272 186.783 206.348 196.239 190.685 196.924L160.261 196.761L136.424 138.457Z" fill="white"/>
<path fill-rule="evenodd" clip-rule="evenodd" d="M136.424 138.457C136.424 138.457 183.848 155.489 192.554 138.902C201.598 121.685 212.207 101.793 217.913 92.25C229.685 72.5652 249.935 45.2174 253.728 48.1087C255.891 49.75 253.902 54.0543 247.815 65.1848C248.685 64.9348 251.522 64.8043 253.272 66.663C255.87 69.4022 254.228 72.1087 254.196 72.4022C254.478 72.2935 257.837 71.2065 259.88 72.75C262.185 74.4782 262.457 76.913 261.924 79.1196C262.652 78.8696 265.891 78.3043 267.783 79.8804C270.239 81.9348 269.663 85.4239 268.283 87.6739C265.728 91.7935 258.489 102.891 255.402 109.239C251.565 117.152 236.935 149.652 226.685 172.489C220.272 186.783 206.348 196.239 190.685 196.924L160.261 196.761L136.424 138.457Z" fill="white" stroke="#141414" stroke-miterlimit="10"/>
<path fill-rule="evenodd" clip-rule="evenodd" d="M31.7609 240.576C38.75 254.391 56.1956 259.13 69.3043 250.902C94.7065 234.946 147.859 204.467 185.413 203.076C185.413 203.076 189.707 170.033 152.391 140.207C152.391 140.207 121.098 126.435 73.4891 131.141C61.087 132.37 42.837 136.772 37.4674 152.935C29.7609 176.109 18.9457 215.25 31.7609 240.576Z" fill="white"/>
<path fill-rule="evenodd" clip-rule="evenodd" d="M31.7609 240.576C38.75 254.391 56.1956 259.13 69.3043 250.902C94.7065 234.946 147.859 204.467 185.413 203.076C185.413 203.076 189.707 170.033 152.391 140.207C152.391 140.207 121.098 126.435 73.4891 131.141C61.087 132.37 42.837 136.772 37.4674 152.935C29.7609 176.109 18.9457 215.25 31.7609 240.576Z" fill="white" stroke="#141414" stroke-miterlimit="10"/>
<path fill-rule="evenodd" clip-rule="evenodd" d="M31.163 187.891C44.2935 202.054 76.8696 233.88 79.9239 237.12C85.6413 243.163 115.457 276.391 111.12 281.217C109.054 283.522 103.022 277.38 101.033 275.239C101.783 277.75 105.696 287.087 102.783 288.978C99.3587 291.196 92.9891 280.793 92.7935 280.685C93.8152 283.163 98.2609 292.848 96.1413 294.359C93.3696 296.315 86.5217 288.533 84.5761 286.12C84.4456 286.641 90.0217 295.228 86.8152 297.696C84.4674 299.511 78.1956 292.37 75.4565 289.272C70.3804 283.902 16.8913 235.5 7.30434 222.533C-11.8478 196.63 20.8587 186.467 31.163 187.891Z" fill="white"/>
<path fill-rule="evenodd" clip-rule="evenodd" d="M44 141C72.5 118.5 94 154.205 76.8804 176C65.6155 190.341 46.7459 202.395 46.5 203.745C60.8635 218.265 77.7654 234.831 79.9239 237.12C85.6413 243.163 115.457 276.391 111.12 281.217C109.054 283.522 103.022 277.38 101.033 275.239C101.783 277.75 105.696 287.087 102.783 288.978C99.3587 291.196 92.9891 280.793 92.7935 280.685C93.8152 283.163 98.2608 292.848 96.1413 294.359C93.3695 296.315 86.5217 288.533 84.5761 286.12C84.4456 286.641 90.0217 295.228 86.8152 297.696C84.4674 299.511 78.1956 292.37 75.4565 289.272C70.3804 283.902 16.8913 235.5 7.30434 222.533C-17.5 197.5 35.181 147.962 44 141Z" fill="white" stroke="#141414" stroke-miterlimit="10"/>
<path fill-rule="evenodd" clip-rule="evenodd" d="M101.37 276.728C101.261 276.728 101.152 276.663 101.109 276.554C100.424 274.967 99.6196 273.413 98.7283 271.946C97.1196 269.293 95.1739 266.848 92.9565 264.652C92.8478 264.543 92.8478 264.359 92.9565 264.25C93.0652 264.141 93.25 264.141 93.3587 264.25C95.6196 266.478 97.587 268.967 99.2174 271.652C100.13 273.141 100.935 274.717 101.641 276.326C101.707 276.467 101.641 276.641 101.489 276.707C101.446 276.717 101.413 276.728 101.37 276.728Z" fill="#141414"/>
<path fill-rule="evenodd" clip-rule="evenodd" d="M93.1087 282.293C93.0109 282.293 92.913 282.239 92.8587 282.152C92.6848 281.837 92.4891 281.522 92.2935 281.196C90.6848 278.543 88.7391 276.098 86.5217 273.902C86.413 273.793 86.413 273.609 86.5217 273.5C86.6304 273.391 86.8152 273.391 86.9239 273.5C89.1848 275.728 91.1522 278.217 92.7826 280.902C92.9783 281.228 93.1739 281.554 93.3478 281.87C93.4239 282.011 93.3804 282.185 93.2391 282.261C93.2065 282.272 93.1522 282.293 93.1087 282.293Z" fill="#141414"/>
<path fill-rule="evenodd" clip-rule="evenodd" d="M84.5543 287.533C84.4674 287.533 84.3804 287.489 84.3261 287.413C83.1304 285.783 81.7935 284.228 80.337 282.793C80.2283 282.685 80.2283 282.5 80.337 282.391C80.4456 282.283 80.6304 282.283 80.7391 282.391C82.2174 283.848 83.5761 285.424 84.7826 287.076C84.8804 287.206 84.8478 287.38 84.7174 287.478C84.6739 287.522 84.6087 287.533 84.5543 287.533Z" fill="#141414"/>
<path fill-rule="evenodd" clip-rule="evenodd" d="M287.522 251.674C287.37 251.674 287.239 251.543 287.239 251.391V249.685C287.239 249.533 287.37 249.402 287.522 249.402C287.674 249.402 287.804 249.533 287.804 249.685V251.391C287.804 251.554 287.685 251.674 287.522 251.674Z" fill="white"/>
<path fill-rule="evenodd" clip-rule="evenodd" d="M287.522 278.946C287.37 278.946 287.239 278.815 287.239 278.663V275.25C287.239 275.098 287.37 274.967 287.522 274.967C287.674 274.967 287.804 275.098 287.804 275.25V278.663C287.804 278.815 287.685 278.946 287.522 278.946ZM287.522 272.13C287.37 272.13 287.239 272 287.239 271.848V268.435C287.239 268.272 287.37 268.152 287.522 268.152C287.674 268.152 287.804 268.283 287.804 268.435V271.848C287.804 272 287.685 272.13 287.522 272.13ZM287.522 265.304C287.37 265.304 287.239 265.174 287.239 265.022V261.609C287.239 261.457 287.37 261.326 287.522 261.326C287.674 261.326 287.804 261.457 287.804 261.609V265.022C287.804 265.185 287.685 265.304 287.522 265.304ZM287.522 258.489C287.37 258.489 287.239 258.359 287.239 258.207V254.793C287.239 254.63 287.37 254.511 287.522 254.511C287.674 254.511 287.804 254.641 287.804 254.793V258.207C287.804 258.37 287.685 258.489 287.522 258.489Z" fill="white"/>
<path fill-rule="evenodd" clip-rule="evenodd" d="M287.522 284.065C287.37 284.065 287.239 283.935 287.239 283.783V282.076C287.239 281.924 287.37 281.793 287.522 281.793C287.674 281.793 287.804 281.924 287.804 282.076V283.783C287.804 283.935 287.685 284.065 287.522 284.065Z" fill="white"/>
<path fill-rule="evenodd" clip-rule="evenodd" d="M54.8152 96.3587C37.4891 96.3587 23.4022 82.2717 23.4022 64.9456C23.4022 47.6195 37.4891 33.5326 54.8152 33.5326C72.1413 33.5326 86.2283 47.6195 86.2283 64.9456C86.2283 82.2717 72.1413 96.3587 54.8152 96.3587ZM54.8152 34.6413C38.1087 34.6413 24.5109 48.2391 24.5109 64.9456C24.5109 81.663 38.1087 95.25 54.8152 95.25C71.5326 95.25 85.1196 81.6522 85.1196 64.9456C85.1304 48.2282 71.5326 34.6413 54.8152 34.6413Z" fill="#141414"/>
<path fill-rule="evenodd" clip-rule="evenodd" d="M98.7935 51.7609C98.7935 73 81.5761 90.2174 60.337 90.2174C39.0978 90.2174 21.8804 73 21.8804 51.7609C21.8804 30.5217 39.0978 13.3044 60.337 13.3044C81.5761 13.3152 98.7935 30.5217 98.7935 51.7609Z" fill="#141414"/>
<path fill-rule="evenodd" clip-rule="evenodd" d="M126.772 81.6957C126.772 96.0217 115.163 107.641 100.826 107.641C86.4891 107.641 74.8913 96.0217 74.8913 81.6957C74.8913 67.3696 86.5109 55.75 100.837 55.75C115.163 55.75 126.772 67.3696 126.772 81.6957Z" fill="#141414"/>
<path fill-rule="evenodd" clip-rule="evenodd" d="M123.446 133.196C123.446 137.891 114.163 141.696 102.707 141.696C91.25 141.696 81.9674 137.891 81.9674 133.196C81.9674 128.5 91.25 124.696 102.707 124.696C114.163 124.696 123.446 128.5 123.446 133.196Z" fill="white"/>
<path fill-rule="evenodd" clip-rule="evenodd" d="M123.446 133.196C123.446 137.891 114.163 141.696 102.707 141.696C91.25 141.696 81.9674 137.891 81.9674 133.196C81.9674 128.5 91.25 124.696 102.707 124.696C114.163 124.696 123.446 128.5 123.446 133.196Z" fill="white" stroke="#141414" stroke-miterlimit="10"/>
<path fill-rule="evenodd" clip-rule="evenodd" d="M90.8804 121.207C90.8804 127.207 95.75 132.076 101.75 132.076H102.533C108.533 132.076 113.402 127.207 113.402 121.207V116.326C113.402 110.326 108.533 105.457 102.533 105.457H101.75C95.75 105.457 90.8804 110.326 90.8804 116.326V121.207Z" fill="white"/>
<path fill-rule="evenodd" clip-rule="evenodd" d="M90.8804 121.207C90.8804 127.207 95.75 132.076 101.75 132.076H102.533C108.533 132.076 113.402 127.207 113.402 121.207V116.326C113.402 110.326 108.533 105.457 102.533 105.457H101.75C95.75 105.457 90.8804 110.326 90.8804 116.326V121.207Z" fill="white" stroke="#141414" stroke-miterlimit="10"/>
<path fill-rule="evenodd" clip-rule="evenodd" d="M122.033 113.478C116.304 117.554 100.109 106.5 100.109 106.5L90.8478 87.1196C90.8478 77.2283 98.8696 69.2065 108.75 69.2065C118.63 69.2065 126.663 77.2283 126.663 87.1196C126.663 87.1196 127.88 109.337 122.033 113.478Z" fill="white"/>
<path fill-rule="evenodd" clip-rule="evenodd" d="M122.033 113.478C116.304 117.554 100.109 106.5 100.109 106.5L90.8478 87.1196C90.8478 77.2283 98.8696 69.2065 108.75 69.2065C118.63 69.2065 126.663 77.2283 126.663 87.1196C126.663 87.1196 127.88 109.337 122.033 113.478Z" fill="white" stroke="#141414" stroke-miterlimit="10"/>
<path fill-rule="evenodd" clip-rule="evenodd" d="M117.424 101.359C116.467 101.359 115.511 101.098 114.674 100.587C113.076 99.587 112.185 97.7609 112.413 95.9348C112.467 95.4891 112.891 95.1739 113.359 95.2283C113.826 95.2826 114.152 95.6848 114.098 96.1304C113.946 97.3478 114.543 98.5652 115.609 99.2283C116.717 99.913 118.152 99.913 119.272 99.2283C119.663 98.9891 120.185 99.0978 120.446 99.4783C120.696 99.8587 120.587 100.359 120.196 100.598C119.348 101.109 118.38 101.359 117.424 101.359Z" fill="#141414"/>
<path fill-rule="evenodd" clip-rule="evenodd" d="M86.4891 91.8261C86.4891 91.8261 92.1957 89.5326 98.0978 95.587L101.924 93.4891C101.924 93.4891 99.7065 69.1196 126.424 78.6957C126.424 78.6957 117.261 58.2283 99.4022 65.75C81.5217 73.2717 86.4891 91.8261 86.4891 91.8261Z" fill="#141414"/>
<path fill-rule="evenodd" clip-rule="evenodd" d="M86.2717 96.1087C87.3152 99.6087 90.6304 101.706 93.6739 100.804C96.7174 99.8913 98.337 96.3261 97.2935 92.8261C96.25 89.3261 92.9348 87.2282 89.8913 88.1304C86.837 89.0435 85.2174 92.6087 86.2717 96.1087Z" fill="white"/>
<path fill-rule="evenodd" clip-rule="evenodd" d="M94.913 93.9674C94.6739 93.9674 94.4565 93.8152 94.3804 93.5761C93.8696 91.8696 92.2826 90.837 90.837 91.2609C89.9783 91.5217 89.3261 92.25 89.0761 93.2391C89 93.5326 88.7065 93.7174 88.4022 93.6413C88.1087 93.5652 87.9239 93.2717 88 92.9674C88.337 91.6087 89.2717 90.5652 90.5109 90.1957C92.5435 89.587 94.75 90.9565 95.4348 93.25C95.5217 93.5435 95.3587 93.8478 95.0652 93.9348C95.0109 93.9565 94.9565 93.9674 94.913 93.9674Z" fill="#141414"/>
<path d="M109.815 93.1739C111.226 93.1739 112.37 91.7967 112.37 90.0978C112.37 88.3989 111.226 87.0217 109.815 87.0217C108.404 87.0217 107.261 88.3989 107.261 90.0978C107.261 91.7967 108.404 93.1739 109.815 93.1739Z" fill="#141414"/>
<path d="M118.011 91.1304C119.422 91.1304 120.565 89.7532 120.565 88.0544C120.565 86.3555 119.422 84.9783 118.011 84.9783C116.6 84.9783 115.457 86.3555 115.457 88.0544C115.457 89.7532 116.6 91.1304 118.011 91.1304Z" fill="#141414"/>
</g>
<defs>
<linearGradient id="paint0_linear_108_89" x1="110.638" y1="392.677" x2="110.638" y2="204.967" gradientUnits="userSpaceOnUse">
<stop stop-color="#DC1D47"/>
<stop offset="1" stop-color="#E54327"/>
</linearGradient>
<linearGradient id="paint1_linear_108_89" x1="169.953" y1="400.003" x2="169.953" y2="201.707" gradientUnits="userSpaceOnUse">
<stop stop-color="#DC1D47"/>
<stop offset="1" stop-color="#E54327"/>
</linearGradient>
<clipPath id="clip0_108_89">
<rect width="400" height="400" fill="white"/>
</clipPath>
</defs>
</svg>
