<svg width="600" height="400" viewBox="0 0 600 400" fill="none" xmlns="http://www.w3.org/2000/svg">
<path d="M433.163 149.642V7.94534C433.166 5.97043 432.384 4.07508 430.99 2.67554C429.595 1.27599 427.701 0.486655 425.724 0.480865H139.746C137.768 0.483762 135.871 1.27175 134.473 2.67155C133.076 4.07135 132.292 5.96834 132.295 7.94534V204.885C132.293 205.864 132.485 206.834 132.859 207.738C133.233 208.643 133.782 209.465 134.474 210.158C135.166 210.851 135.987 211.401 136.892 211.777C137.797 212.152 138.767 212.346 139.746 212.348H402.964L433.163 149.642Z" fill="white"/>
<path d="M402.966 212.824H139.747C137.641 212.819 135.623 211.98 134.136 210.491C132.649 209.002 131.813 206.984 131.813 204.881V7.94098C131.814 5.83773 132.649 3.82056 134.137 2.3319C135.624 0.843244 137.641 0.00463009 139.747 0H425.713C427.82 0.00463176 429.838 0.84384 431.325 2.33344C432.812 3.82305 433.647 5.84134 433.647 7.94536V149.642C433.639 149.764 433.584 149.878 433.495 149.962C433.405 150.046 433.287 150.092 433.164 150.092C433.042 150.092 432.924 150.046 432.834 149.962C432.745 149.878 432.69 149.764 432.682 149.642V7.94536C432.685 6.0949 431.953 4.31875 430.647 3.00721C429.34 1.69567 427.566 0.956032 425.713 0.950821H139.747C137.894 0.956032 136.12 1.69567 134.813 3.00721C133.507 4.31875 132.775 6.0949 132.778 7.94536V204.885C132.778 206.734 133.511 208.507 134.817 209.816C136.124 211.124 137.896 211.862 139.747 211.867H402.966C403.094 211.867 403.216 211.917 403.306 212.007C403.397 212.098 403.447 212.22 403.447 212.348C403.447 212.475 403.397 212.597 403.306 212.688C403.216 212.778 403.094 212.828 402.966 212.828V212.824Z" fill="#141414"/>
<path d="M268.473 19.6262H151.815V55.53H268.473V19.6262Z" fill="white"/>
<path d="M268.473 56.0131H151.815C151.687 56.0125 151.565 55.9614 151.474 55.8709C151.384 55.7803 151.334 55.6578 151.334 55.53V19.6262C151.334 19.4989 151.385 19.3769 151.475 19.2868C151.565 19.1968 151.687 19.1459 151.815 19.1454H268.473C268.601 19.1454 268.723 19.196 268.814 19.2861C268.904 19.3762 268.956 19.4985 268.956 19.6262V55.53C268.956 55.6582 268.905 55.781 268.815 55.8716C268.724 55.9622 268.601 56.0131 268.473 56.0131ZM152.296 55.0492H267.989V20.1093H152.298L152.296 55.0492Z" fill="#141414"/>
<path d="M286.729 20.1262H413.145V100.495H286.729V20.1262Z" fill="white" stroke="#141414"/>
<path d="M286.729 111.964H413.145V192.333H286.729V111.964Z" fill="white" stroke="black"/>
<path d="M152.315 66.0453H267.973V84.6388H152.315V66.0453Z" fill="white" stroke="black"/>
<path d="M268.473 99.7224H151.815V193.198H268.473V99.7224Z" fill="white"/>
<path d="M268.473 193.679H151.815C151.687 193.678 151.565 193.627 151.475 193.537C151.385 193.447 151.334 193.325 151.334 193.198V99.7224C151.334 99.5948 151.384 99.4725 151.474 99.3824C151.565 99.2922 151.687 99.2415 151.815 99.2415H268.473C268.536 99.2412 268.599 99.2535 268.658 99.2775C268.716 99.3015 268.769 99.3369 268.814 99.3816C268.859 99.4263 268.895 99.4794 268.919 99.5379C268.944 99.5964 268.956 99.6591 268.956 99.7224V193.198C268.956 193.326 268.904 193.448 268.814 193.538C268.723 193.628 268.601 193.679 268.473 193.679ZM152.296 192.717H267.989V100.203H152.298L152.296 192.717Z" fill="#141414"/>
<path d="M495.369 384.369H459.411C459.345 384.374 459.279 384.365 459.216 384.342C459.154 384.32 459.097 384.285 459.048 384.24C459 384.195 458.961 384.14 458.935 384.08C458.909 384.019 458.895 383.954 458.895 383.887C458.895 383.821 458.909 383.756 458.935 383.695C458.961 383.634 459 383.58 459.048 383.535C459.097 383.489 459.154 383.455 459.216 383.432C459.279 383.41 459.345 383.401 459.411 383.405H494.888V299.77C494.888 299.643 494.939 299.521 495.029 299.431C495.119 299.341 495.241 299.29 495.369 299.29H539.022C539.088 299.285 539.154 299.294 539.216 299.317C539.279 299.339 539.336 299.374 539.384 299.419C539.433 299.464 539.471 299.519 539.498 299.579C539.524 299.64 539.538 299.705 539.538 299.772C539.538 299.838 539.524 299.903 539.498 299.964C539.471 300.025 539.433 300.079 539.384 300.124C539.336 300.17 539.279 300.204 539.216 300.227C539.154 300.249 539.088 300.258 539.022 300.254H495.852V383.889C495.852 384.016 495.801 384.139 495.71 384.229C495.619 384.319 495.497 384.369 495.369 384.369Z" fill="#141414"/>
<path d="M539.015 307.768C543.435 307.768 547.018 304.188 547.018 299.77C547.018 295.353 543.435 291.773 539.015 291.773C534.595 291.773 531.012 295.353 531.012 299.77C531.012 304.188 534.595 307.768 539.015 307.768Z" fill="#141414"/>
<path d="M459.411 391.716C463.831 391.716 467.414 388.135 467.414 383.718C467.414 379.301 463.831 375.72 459.411 375.72C454.991 375.72 451.408 379.301 451.408 383.718C451.408 388.135 454.991 391.716 459.411 391.716Z" fill="#141414"/>
<path d="M522.645 309.628H504.061C503.934 309.628 503.811 309.578 503.721 309.488C503.631 309.397 503.58 309.275 503.58 309.147C503.58 309.02 503.631 308.898 503.721 308.807C503.811 308.717 503.934 308.667 504.061 308.667H522.645C522.773 308.667 522.895 308.717 522.986 308.807C523.076 308.898 523.127 309.02 523.127 309.147C523.127 309.275 523.076 309.397 522.986 309.488C522.895 309.578 522.773 309.628 522.645 309.628Z" fill="#141414"/>
<path d="M516.994 317.766H504.061C503.939 317.758 503.824 317.703 503.741 317.614C503.657 317.524 503.61 317.407 503.61 317.284C503.61 317.162 503.657 317.044 503.741 316.954C503.824 316.865 503.939 316.81 504.061 316.802H516.994C517.116 316.81 517.231 316.865 517.315 316.954C517.398 317.044 517.445 317.162 517.445 317.284C517.445 317.407 517.398 317.524 517.315 317.614C517.231 317.703 517.116 317.758 516.994 317.766Z" fill="#141414"/>
<path d="M592.614 131.357H409.858C406.05 131.357 402.964 134.441 402.964 138.245V253.532C402.964 257.336 406.05 260.42 409.858 260.42H592.614C596.421 260.42 599.508 257.336 599.508 253.532V138.245C599.508 134.441 596.421 131.357 592.614 131.357Z" fill="white"/>
<path d="M592.625 260.903H409.86C407.904 260.901 406.029 260.124 404.646 258.743C403.263 257.361 402.485 255.488 402.483 253.534V138.245C402.485 136.291 403.263 134.418 404.646 133.036C406.029 131.655 407.904 130.878 409.86 130.876H592.625C594.58 130.879 596.455 131.656 597.837 133.037C599.22 134.418 599.998 136.291 600 138.245V253.534C599.998 255.488 599.22 257.361 597.837 258.742C596.455 260.123 594.58 260.9 592.625 260.903ZM409.86 131.84C408.16 131.842 406.53 132.517 405.328 133.717C404.125 134.918 403.449 136.546 403.447 138.245V253.534C403.449 255.233 404.125 256.861 405.328 258.063C406.53 259.264 408.16 259.939 409.86 259.941H592.625C594.325 259.939 595.954 259.263 597.156 258.062C598.358 256.861 599.033 255.233 599.035 253.534V138.245C599.033 136.547 598.358 134.919 597.156 133.718C595.954 132.517 594.324 131.842 592.625 131.84H409.86Z" fill="#141414"/>
<path d="M459.184 249.303H564.839C581.733 249.303 590.264 239.878 588.687 229.412C585.077 205.611 576.417 167.773 556.347 162.415C522.287 153.309 424.784 160.546 424.784 160.546L414.739 137.764C396.752 142.636 382.358 153.11 386.246 167.115C392.21 188.605 400.371 202.627 414.658 204.45C422.218 205.413 429.823 205.981 437.443 206.151L426.761 249.305L459.184 249.303Z" fill="url(#paint0_linear_61_92)"/>
<path d="M426.74 249.784C426.701 249.784 426.662 249.779 426.624 249.77C426.5 249.739 426.393 249.661 426.327 249.551C426.261 249.442 426.241 249.311 426.271 249.187L436.808 206.619C434.417 206.568 425.265 206.288 414.575 204.925C401.413 203.246 392.528 191.624 385.758 167.242C384.505 162.723 385.047 158.367 387.371 154.293C391.493 147.06 401.415 140.866 414.59 137.298C414.702 137.268 414.821 137.279 414.925 137.329C415.029 137.378 415.112 137.464 415.159 137.569L425.066 160.039C431.437 159.582 523.706 153.196 556.45 161.948C575.809 167.121 584.912 201.451 589.142 229.338C589.507 231.598 589.372 233.911 588.746 236.113C588.12 238.315 587.018 240.354 585.518 242.085C581.243 247.049 573.896 249.784 564.828 249.784H459.184C459.056 249.784 458.934 249.733 458.843 249.643C458.753 249.553 458.702 249.43 458.702 249.303C458.702 249.175 458.753 249.053 458.843 248.963C458.934 248.872 459.056 248.822 459.184 248.822H564.839C573.623 248.822 580.71 246.199 584.799 241.458C586.207 239.831 587.241 237.916 587.829 235.847C588.416 233.778 588.542 231.605 588.199 229.482C585.764 213.421 582.409 199.86 578.231 189.174C572.323 174.048 564.906 165.202 556.212 162.879C522.619 153.897 425.783 160.951 424.81 161.023C424.71 161.032 424.61 161.009 424.524 160.958C424.439 160.906 424.372 160.829 424.333 160.737L414.444 138.337C401.712 141.854 392.162 147.832 388.207 154.769C387.132 156.594 386.443 158.619 386.182 160.72C385.921 162.82 386.093 164.952 386.688 166.984C393.337 190.94 401.975 202.348 414.693 203.969C422.235 204.927 429.821 205.494 437.421 205.668C437.494 205.668 437.565 205.685 437.631 205.717C437.696 205.749 437.753 205.796 437.797 205.854C437.842 205.911 437.873 205.978 437.888 206.049C437.903 206.12 437.902 206.194 437.885 206.264L427.201 249.419C427.176 249.522 427.117 249.614 427.033 249.68C426.95 249.746 426.846 249.783 426.74 249.784Z" fill="#141414"/>
<path d="M422.648 165.443C422.567 165.443 422.487 165.422 422.415 165.383C422.344 165.344 422.284 165.287 422.24 165.218C422.196 165.15 422.171 165.071 422.166 164.99C422.161 164.909 422.176 164.828 422.211 164.754L424.333 160.26C424.387 160.144 424.486 160.055 424.606 160.011C424.727 159.968 424.86 159.974 424.976 160.028C425.092 160.083 425.182 160.181 425.225 160.302C425.269 160.422 425.263 160.555 425.208 160.671L423.088 165.165C423.049 165.248 422.987 165.319 422.909 165.368C422.831 165.417 422.74 165.443 422.648 165.443Z" fill="#141414"/>
<path d="M437.891 204.896C437.817 204.897 437.744 204.88 437.677 204.848C437.611 204.815 437.553 204.768 437.507 204.709C437.462 204.651 437.431 204.582 437.417 204.51C437.403 204.437 437.406 204.362 437.425 204.291C437.963 202.273 438.519 200.188 438.3 198.107C438.064 195.893 436.837 194.052 435.172 193.419C435.052 193.373 434.956 193.282 434.903 193.165C434.851 193.049 434.847 192.916 434.893 192.797C434.938 192.677 435.029 192.581 435.146 192.529C435.263 192.476 435.396 192.473 435.515 192.518C437.515 193.281 438.985 195.434 439.259 198.004C439.499 200.262 438.893 202.536 438.357 204.54C438.33 204.642 438.269 204.733 438.185 204.797C438.101 204.862 437.997 204.896 437.891 204.896Z" fill="#141414"/>
<path d="M551.508 220.24C551.394 220.24 551.284 220.199 551.197 220.126C551.11 220.052 551.052 219.95 551.033 219.838C549.574 211.163 547.714 202.444 545.506 193.921C545.49 193.86 545.486 193.796 545.494 193.733C545.502 193.67 545.523 193.609 545.555 193.554C545.587 193.499 545.63 193.451 545.681 193.413C545.731 193.374 545.789 193.346 545.851 193.33C545.912 193.314 545.977 193.311 546.04 193.32C546.103 193.329 546.163 193.35 546.218 193.383C546.273 193.416 546.32 193.459 546.358 193.51C546.396 193.561 546.423 193.619 546.438 193.681C548.655 202.23 550.521 210.977 551.985 219.679C552.006 219.805 551.976 219.934 551.902 220.038C551.827 220.142 551.715 220.212 551.589 220.234L551.508 220.24Z" fill="#141414"/>
<path d="M537.855 223.864C537.78 223.874 537.704 223.86 537.637 223.825C537.541 223.77 537.468 223.684 537.429 223.581C537.389 223.478 537.386 223.365 537.42 223.26C537.453 223.155 537.522 223.065 537.614 223.004C537.706 222.944 537.816 222.916 537.925 222.927C538.733 222.894 548.974 221.34 555.726 220.304C555.852 220.284 555.981 220.316 556.084 220.391C556.187 220.467 556.256 220.58 556.275 220.706C556.295 220.832 556.263 220.961 556.188 221.064C556.112 221.167 555.999 221.235 555.873 221.255C541.325 223.499 538.505 223.864 537.855 223.864Z" fill="#141414"/>
<path d="M465.57 248.793H517.143L500.309 194.116C500.033 193.216 499.475 192.429 498.718 191.87C497.961 191.311 497.044 191.01 496.102 191.01H452.988C452.386 191.01 451.792 191.151 451.255 191.422C450.718 191.693 450.252 192.086 449.894 192.57C449.537 193.053 449.298 193.614 449.197 194.207C449.095 194.8 449.135 195.408 449.312 195.983L465.57 248.793Z" fill="#141414"/>
<path d="M535.838 223.405C535.838 223.405 546.237 236.632 545.327 249.436L478.199 249.204C478.199 249.204 476.391 249.067 474.936 248.127C473.42 247.148 473.886 244.809 475.652 244.437L479.177 243.694C479.177 243.694 471.009 242.509 470.521 239.44C470.033 236.372 472.615 236.507 479.314 237.764C486.014 239.021 497.255 237.276 500.81 235.812C504.366 234.348 506.061 230.894 507.31 225.757C508.56 220.621 507.945 215.027 511.299 215.484C514.653 215.941 514.979 225.757 514.979 225.757L535.838 223.405Z" fill="white"/>
<path d="M545.327 249.919L478.199 249.685C476.953 249.57 475.75 249.175 474.678 248.531C474.26 248.267 473.932 247.883 473.736 247.43C473.541 246.976 473.488 246.474 473.584 245.989C473.67 245.493 473.904 245.034 474.255 244.673C474.607 244.311 475.059 244.065 475.553 243.965L476.759 243.711C474.175 243.095 470.414 241.81 470.046 239.515C469.876 238.448 470.046 237.679 470.576 237.167C471.707 236.074 474.212 236.317 479.404 237.292C486.084 238.544 497.165 236.791 500.626 235.368C503.668 234.116 505.468 231.298 506.842 225.637C507.163 224.209 507.41 222.765 507.584 221.311C507.829 219.51 508.039 217.956 508.514 216.817C509.091 215.432 510.045 214.82 511.358 214.999C514.655 215.436 515.312 222.984 515.432 225.215L535.779 222.927C535.862 222.917 535.945 222.928 536.022 222.96C536.098 222.992 536.165 223.043 536.217 223.108C536.654 223.655 546.719 236.627 545.804 249.471C545.796 249.592 545.742 249.705 545.654 249.789C545.565 249.872 545.448 249.918 545.327 249.919ZM473.109 237.408C472.234 237.408 471.578 237.537 471.241 237.858C470.957 238.135 470.873 238.627 470.992 239.364C471.346 241.593 477.065 242.903 479.238 243.217C479.35 243.234 479.452 243.289 479.528 243.373C479.603 243.457 479.646 243.565 479.65 243.678C479.654 243.791 479.617 243.901 479.548 243.99C479.478 244.079 479.379 244.141 479.268 244.164L475.746 244.907C475.44 244.97 475.159 245.123 474.942 245.347C474.725 245.571 474.58 245.856 474.527 246.164C474.468 246.459 474.498 246.766 474.615 247.044C474.732 247.322 474.93 247.558 475.184 247.722C476.514 248.581 478.203 248.723 478.22 248.723L544.865 248.955C545.439 237.491 536.902 225.635 535.613 223.915L515.025 226.229C514.959 226.237 514.892 226.23 514.829 226.211C514.766 226.191 514.707 226.159 514.657 226.115C514.607 226.072 514.567 226.019 514.538 225.959C514.509 225.899 514.493 225.834 514.491 225.768C514.369 222.127 513.375 216.243 511.227 215.952C510.352 215.832 509.813 216.19 509.398 217.187C508.982 218.184 508.768 219.707 508.523 221.44C508.345 222.927 508.092 224.404 507.763 225.864C506.698 230.251 505.138 234.546 500.981 236.258C497.426 237.72 486.057 239.521 479.214 238.238C476.803 237.784 474.617 237.408 473.109 237.408Z" fill="#141414"/>
<path d="M481.955 244.321C481.395 244.321 480.837 244.321 480.277 244.308C480.155 244.3 480.04 244.246 479.956 244.156C479.873 244.067 479.826 243.949 479.826 243.826C479.826 243.704 479.873 243.586 479.956 243.496C480.04 243.407 480.155 243.352 480.277 243.344C485.619 243.431 490.959 243.1 496.249 242.354C496.375 242.336 496.503 242.37 496.605 242.446C496.707 242.523 496.775 242.638 496.792 242.764C496.81 242.89 496.777 243.019 496.7 243.12C496.623 243.222 496.509 243.289 496.382 243.307C491.603 243.981 486.782 244.32 481.955 244.321Z" fill="#141414"/>
<path d="M386.552 166.34C381.502 148.445 377.49 132.481 376.541 124.045L376.447 123.206L375.758 123.691L375.758 123.691L375.757 123.691L375.757 123.691L375.756 123.692L375.752 123.695C375.746 123.699 375.735 123.706 375.72 123.715C375.69 123.734 375.642 123.763 375.579 123.798C375.452 123.867 375.265 123.959 375.03 124.042C374.558 124.21 373.913 124.341 373.19 124.213C371.788 123.964 369.837 122.687 368.315 117.994L367.84 118.148L368.315 117.994C367.016 113.987 366.781 110.904 367.318 108.779C367.585 107.724 368.039 106.918 368.635 106.343C369.228 105.77 369.987 105.402 370.907 105.259L371.255 105.205L371.321 104.86L371.321 104.86L371.321 104.86L371.321 104.86L371.322 104.857L371.325 104.843C371.327 104.831 371.331 104.812 371.337 104.786C371.348 104.735 371.365 104.658 371.389 104.561C371.437 104.365 371.512 104.087 371.617 103.758C371.828 103.097 372.158 102.248 372.634 101.47C373.113 100.688 373.717 100.014 374.46 99.6462C375.182 99.2891 376.088 99.1936 377.252 99.6598L378.069 99.987L377.932 99.1184L377.932 99.1183L377.932 99.118L377.932 99.1175L377.932 99.1165L377.93 99.1046C377.929 99.0991 377.928 99.0921 377.927 99.0836C377.926 99.074 377.924 99.0624 377.923 99.0489C377.917 98.9983 377.909 98.9213 377.902 98.8219C377.889 98.6228 377.88 98.3356 377.898 97.9913C377.936 97.2995 378.084 96.3964 378.518 95.5174C378.948 94.6458 379.663 93.7882 380.857 93.1743C382.058 92.5575 383.775 92.1704 386.23 92.3025L386.938 92.3406L386.737 91.6615L382.101 75.9831C382.101 75.9831 382.101 75.983 382.101 75.983C381.926 75.3912 381.985 74.7551 382.264 74.205C382.544 73.6549 383.024 73.2322 383.605 73.0238C384.187 72.8153 384.826 72.837 385.393 73.0842C385.958 73.3313 386.408 73.7852 386.65 74.3527C386.65 74.3529 386.65 74.3531 386.65 74.3533L414.107 139.188C405.647 154.98 393.807 162.797 386.552 166.34Z" fill="white" stroke="#141414"/>
<path d="M394.713 114.767C394.644 114.768 394.575 114.753 394.512 114.723C392.324 113.714 391.539 111.038 391.011 109.259C390.438 107.309 389.618 105.233 387.87 104.619C387.433 104.484 386.984 104.395 386.529 104.352C385.706 104.243 384.857 104.133 384.152 103.574C383.098 102.739 382.805 101.082 383.472 99.7202C383.982 98.6797 384.953 97.8295 386.358 97.1956C387.887 96.5194 389.555 96.2149 391.225 96.3068C392.895 96.3987 394.519 96.8846 395.965 97.7246C396.019 97.7567 396.067 97.7993 396.105 97.8498C396.143 97.9003 396.17 97.9578 396.186 98.019C396.202 98.0802 396.206 98.1439 396.197 98.2064C396.188 98.269 396.167 98.3292 396.134 98.3836C396.102 98.438 396.06 98.4855 396.009 98.5234C395.958 98.5614 395.901 98.589 395.84 98.6048C395.778 98.6205 395.715 98.624 395.652 98.6151C395.589 98.6062 395.529 98.5851 395.475 98.553C394.162 97.7908 392.688 97.35 391.172 97.2668C389.656 97.1836 388.142 97.4603 386.754 98.0743C385.559 98.612 384.745 99.3093 384.347 100.144C383.949 100.979 383.982 102.203 384.759 102.82C385.255 103.211 385.938 103.301 386.662 103.397C387.182 103.449 387.695 103.554 388.194 103.709C390.355 104.468 391.302 106.804 391.944 108.988C392.567 111.11 393.256 113.078 394.917 113.84C395.017 113.886 395.098 113.965 395.147 114.063C395.196 114.162 395.21 114.274 395.186 114.382C395.163 114.489 395.103 114.585 395.016 114.653C394.93 114.722 394.823 114.759 394.713 114.758V114.767Z" fill="#141414"/>
<path d="M387.13 113.733C385.717 113.733 384.301 112.842 382.916 111.075C380.606 108.119 379.01 104.67 378.254 100.997C378.24 100.934 378.238 100.87 378.249 100.807C378.26 100.743 378.284 100.683 378.319 100.629C378.354 100.576 378.399 100.529 378.452 100.493C378.505 100.457 378.564 100.432 378.627 100.419C378.69 100.406 378.755 100.406 378.817 100.419C378.88 100.431 378.94 100.456 378.993 100.492C379.046 100.528 379.092 100.574 379.127 100.628C379.162 100.681 379.186 100.741 379.197 100.804C379.927 104.332 381.462 107.644 383.682 110.483C384.969 112.122 386.222 112.887 387.401 112.756C388.754 112.608 389.681 111.287 389.9 110.059C390.165 108.546 389.611 106.957 389.172 105.893C389.131 105.776 389.137 105.649 389.188 105.537C389.239 105.424 389.331 105.336 389.445 105.289C389.559 105.242 389.686 105.24 389.801 105.284C389.917 105.328 390.011 105.415 390.064 105.526C390.548 106.699 391.158 108.466 390.847 110.227C390.567 111.808 389.331 113.506 387.507 113.725C387.381 113.734 387.256 113.737 387.13 113.733Z" fill="#141414"/>
<path d="M379.525 119.126C379.129 119.126 378.735 119.061 378.359 118.936C376.801 118.409 375.845 116.953 375.117 115.6C373.577 112.747 372.412 109.708 371.649 106.557C371.631 106.495 371.626 106.429 371.635 106.365C371.643 106.3 371.664 106.238 371.697 106.182C371.73 106.126 371.774 106.077 371.827 106.039C371.879 106 371.939 105.973 372.002 105.958C372.066 105.943 372.131 105.942 372.196 105.953C372.26 105.964 372.321 105.988 372.375 106.024C372.43 106.059 372.476 106.106 372.513 106.16C372.549 106.214 372.573 106.275 372.585 106.339C373.328 109.408 374.462 112.369 375.959 115.15C376.6 116.339 377.423 117.611 378.663 118.028C380.129 118.525 381.715 117.652 382.527 116.536C383.339 115.419 383.715 113.93 383.695 112.031C383.695 111.903 383.744 111.781 383.834 111.69C383.923 111.599 384.045 111.547 384.172 111.545C384.299 111.545 384.421 111.595 384.511 111.685C384.601 111.774 384.652 111.895 384.654 112.022C384.673 114.133 384.216 115.843 383.299 117.104C382.501 118.212 381.057 119.126 379.525 119.126Z" fill="#141414"/>
<path d="M376.622 123.779C376.527 123.779 376.435 123.75 376.357 123.698C376.278 123.645 376.216 123.571 376.18 123.484C376.143 123.397 376.132 123.301 376.15 123.209C376.167 123.116 376.211 123.03 376.276 122.962C376.854 122.341 377.239 121.565 377.383 120.73C377.528 119.894 377.426 119.035 377.09 118.256C377.062 118.198 377.046 118.135 377.042 118.071C377.039 118.007 377.048 117.943 377.07 117.883C377.091 117.823 377.125 117.767 377.168 117.72C377.212 117.673 377.264 117.635 377.323 117.608C377.381 117.581 377.444 117.567 377.508 117.565C377.572 117.563 377.636 117.574 377.696 117.597C377.756 117.62 377.811 117.655 377.857 117.699C377.903 117.744 377.94 117.797 377.965 117.856C378.388 118.81 378.519 119.867 378.341 120.895C378.164 121.923 377.686 122.876 376.968 123.633C376.922 123.679 376.869 123.715 376.809 123.74C376.75 123.766 376.686 123.779 376.622 123.779Z" fill="#141414"/>
<path d="M469.775 118.313C468.244 116.02 466.99 113.187 467.863 110.575C468.786 107.816 472.267 106.243 474.949 107.37C473.819 105.403 472.905 103.32 472.223 101.156C479.566 100.938 487.118 102.249 493.396 106.048C499.673 109.847 504.51 116.424 505.092 123.74C505.335 126.782 504.799 129.996 502.985 132.452C501.077 135.032 497.988 136.492 494.875 137.261C490.82 138.273 486.342 138.245 482.657 136.293C480.117 134.956 478.183 132.7 477.251 129.987C477.022 129.303 476.876 128.595 476.814 127.878C476.772 127.36 477.032 126.407 476.835 125.952C476.599 125.412 475.591 124.872 475.144 124.479C474.511 123.918 473.901 123.335 473.313 122.73C472.004 121.366 470.82 119.887 469.775 118.313Z" fill="#141414"/>
<path d="M476.553 118.758C476.49 118.758 476.427 118.746 476.368 118.721C476.309 118.696 476.256 118.66 476.212 118.614C474.574 116.966 473.372 114.939 472.711 112.713C472.694 112.652 472.688 112.588 472.695 112.525C472.701 112.462 472.721 112.401 472.751 112.346C472.781 112.29 472.822 112.241 472.872 112.202C472.921 112.162 472.978 112.133 473.038 112.115C473.099 112.097 473.163 112.091 473.226 112.098C473.289 112.105 473.35 112.124 473.405 112.154C473.461 112.185 473.51 112.226 473.55 112.275C473.589 112.324 473.619 112.381 473.637 112.441C474.249 114.513 475.365 116.401 476.886 117.937C476.954 118.004 477 118.09 477.018 118.183C477.037 118.277 477.028 118.374 476.991 118.462C476.954 118.55 476.892 118.625 476.813 118.678C476.733 118.731 476.64 118.759 476.544 118.758H476.553Z" fill="#141414"/>
<path d="M474.875 158.221L479.356 157.784L478.174 143.773C478.174 143.773 481.894 126.699 496.238 139.449L498.747 157.62L503.243 157.878C503.243 157.878 501.373 167.827 489.337 167.803C479.113 167.775 474.698 164.614 474.875 158.221Z" fill="white"/>
<path d="M489.379 168.275H489.335C483.102 168.275 478.938 167.093 476.612 164.697C475.063 163.104 474.317 160.92 474.394 158.208C474.397 158.09 474.443 157.978 474.524 157.892C474.605 157.806 474.714 157.753 474.831 157.742L478.84 157.342L477.7 143.805C477.692 143.758 477.692 143.709 477.7 143.661C477.765 143.36 479.369 136.254 484.535 134.577C487.915 133.484 491.958 134.995 496.555 139.08C496.64 139.157 496.695 139.261 496.71 139.375L499.167 157.152L503.267 157.388C503.335 157.393 503.401 157.412 503.461 157.444C503.521 157.477 503.573 157.521 503.614 157.575C503.656 157.629 503.685 157.691 503.701 157.757C503.716 157.823 503.718 157.892 503.705 157.958C503.698 158.061 501.635 168.275 489.379 168.275ZM475.352 158.658C475.363 160.929 476.008 162.689 477.304 164.026C479.439 166.227 483.377 167.305 489.337 167.305H489.379C499.244 167.305 502.033 160.31 502.631 158.306L498.721 158.087C498.609 158.081 498.504 158.035 498.422 157.96C498.34 157.884 498.286 157.783 498.27 157.672L495.785 139.679C491.52 135.923 487.836 134.514 484.845 135.486C480.456 136.911 478.842 143.08 478.667 143.792L479.842 157.727C479.847 157.79 479.84 157.853 479.822 157.913C479.803 157.974 479.772 158.03 479.731 158.078C479.691 158.126 479.641 158.166 479.585 158.195C479.528 158.224 479.467 158.242 479.404 158.247L475.352 158.658Z" fill="#141414"/>
<path d="M489.884 139.731C487.72 141.585 485.145 143.01 482.342 143.55C479.54 144.09 476.512 143.648 474.136 142.072C470.162 139.438 468.721 134.092 469.423 129.379C470.125 124.667 472.576 120.417 475.015 116.323C475.015 116.323 484.32 123.451 492.868 124.601C493.91 127.182 494.114 130.025 493.452 132.728C493.452 132.728 495.352 131.003 497.095 132.142C498.979 133.37 499.738 136.02 498.83 138.076C497.922 140.133 495.566 141.397 493.328 141.176C492.063 141.051 490.901 140.804 489.884 139.731Z" fill="white"/>
<path d="M480.052 144.247C477.862 144.272 475.712 143.656 473.869 142.474C470.062 139.95 468.13 134.783 468.946 129.309C469.688 124.323 472.412 119.751 474.602 116.079C474.637 116.022 474.685 115.973 474.741 115.935C474.796 115.898 474.859 115.872 474.925 115.86C474.992 115.847 475.061 115.849 475.127 115.864C475.193 115.88 475.255 115.91 475.308 115.952C475.4 116.022 484.613 123.014 492.934 124.133C493.019 124.144 493.099 124.178 493.166 124.231C493.234 124.283 493.286 124.353 493.317 124.433C494.241 126.737 494.527 129.248 494.146 131.701C494.969 131.29 496.174 130.975 497.358 131.746C499.447 133.108 500.287 135.978 499.272 138.28C498.296 140.487 495.772 141.908 493.28 141.663C492.186 141.556 490.963 141.355 489.862 140.387C487.541 142.291 484.981 143.548 482.434 144.031C481.649 144.177 480.851 144.249 480.052 144.247ZM475.155 117.029C473.061 120.549 470.583 124.855 469.904 129.449C469.281 133.635 470.434 139.036 474.409 141.672C476.564 143.102 479.428 143.613 482.259 143.075C484.767 142.601 487.291 141.327 489.578 139.36C489.671 139.281 489.791 139.241 489.912 139.247C490.034 139.253 490.149 139.305 490.234 139.392C491.092 140.299 492.072 140.562 493.376 140.691C495.468 140.896 497.579 139.714 498.391 137.875C499.202 136.037 498.509 133.631 496.831 132.538C495.428 131.622 493.844 133.016 493.767 133.078C493.691 133.147 493.595 133.19 493.493 133.2C493.39 133.211 493.287 133.188 493.199 133.136C493.11 133.084 493.041 133.004 493 132.91C492.96 132.815 492.952 132.71 492.976 132.61C493.598 130.096 493.436 127.451 492.512 125.032C484.981 123.913 477.089 118.442 475.155 117.029Z" fill="#141414"/>
<path d="M469.416 127.718C465.531 135.543 466.832 143.635 471.272 146.881C474.438 149.196 478.918 148.848 479.277 148.813C480.185 148.732 483.99 148.391 486.694 145.567C487.696 144.518 488.521 142.614 490.173 138.791C491.146 136.544 491.746 134.833 493.509 133.233C494.155 132.649 494.872 132.15 495.645 131.749C494.831 130.127 494.018 128.506 493.205 126.885C493.172 127.604 492.929 131.646 489.772 133.954C486.615 136.262 482.388 135.515 479.94 134.28C477.452 133.025 477.148 131.438 473.576 129.445C472.257 128.717 470.862 128.138 469.416 127.718Z" fill="#141414"/>
<path d="M491.676 137.705C491.557 137.706 491.441 137.663 491.352 137.584C491.262 137.505 491.206 137.396 491.192 137.278C491.179 137.16 491.21 137.04 491.28 136.944C491.349 136.847 491.452 136.779 491.569 136.754C492.6 136.517 493.586 136.116 494.489 135.567C494.598 135.51 494.725 135.497 494.843 135.53C494.962 135.563 495.063 135.639 495.127 135.744C495.191 135.849 495.212 135.975 495.187 136.095C495.161 136.215 495.091 136.321 494.99 136.391C493.999 136.996 492.917 137.438 491.785 137.703C491.749 137.708 491.712 137.708 491.676 137.705Z" fill="#141414"/>
<path d="M438.342 282.446H365.949C363.628 282.446 361.746 284.326 361.746 286.645V358.995C361.746 361.313 363.628 363.193 365.949 363.193H438.342C440.663 363.193 442.545 361.313 442.545 358.995V286.645C442.545 284.326 440.663 282.446 438.342 282.446Z" fill="white"/>
<path d="M438.342 363.674H365.96C364.718 363.673 363.528 363.179 362.65 362.302C361.772 361.424 361.278 360.235 361.276 358.994V286.645C361.278 285.404 361.772 284.215 362.65 283.338C363.528 282.461 364.719 281.968 365.96 281.967H438.353C439.595 281.968 440.786 282.462 441.665 283.339C442.543 284.216 443.038 285.406 443.039 286.647V358.997C443.037 360.239 442.541 361.43 441.66 362.307C440.779 363.184 439.586 363.676 438.342 363.674ZM365.96 282.927C364.974 282.927 364.028 283.318 363.33 284.015C362.633 284.712 362.241 285.657 362.241 286.643V358.992C362.241 359.978 362.633 360.923 363.33 361.62C364.028 362.317 364.974 362.708 365.96 362.708H438.353C439.339 362.708 440.285 362.317 440.983 361.62C441.68 360.923 442.072 359.978 442.072 358.992V286.643C442.072 285.657 441.68 284.712 440.983 284.015C440.285 283.318 439.339 282.927 438.353 282.927H365.96Z" fill="#141414"/>
<path d="M429.308 297.545H374.983V308.402H396.713V349.056H407.578V308.402H429.308V297.545Z" fill="#141414"/>
<path d="M353.677 324.072H325.266C325.138 324.072 325.016 324.021 324.926 323.931C324.836 323.841 324.785 323.719 324.784 323.591V186.324C324.78 186.258 324.789 186.191 324.811 186.129C324.834 186.067 324.868 186.01 324.914 185.961C324.959 185.913 325.013 185.874 325.074 185.848C325.135 185.822 325.201 185.808 325.267 185.808C325.333 185.808 325.399 185.822 325.459 185.848C325.52 185.874 325.575 185.913 325.62 185.961C325.665 186.01 325.7 186.067 325.722 186.129C325.744 186.191 325.754 186.258 325.749 186.324V323.119H353.68C353.807 323.119 353.93 323.17 354.02 323.26C354.11 323.35 354.161 323.472 354.161 323.6C354.161 323.728 354.11 323.85 354.02 323.94C353.93 324.03 353.807 324.081 353.68 324.081L353.677 324.072Z" fill="#141414"/>
<path d="M262.189 247.534H187.237C186.792 247.541 186.355 247.414 185.983 247.169C185.581 246.898 185.282 246.499 185.135 246.037C184.987 245.575 184.999 245.077 185.169 244.623C186.044 242.769 187.88 242.118 190.58 242.118H267.107L266.114 244.815C265.815 245.614 265.279 246.302 264.577 246.788C263.876 247.274 263.043 247.534 262.189 247.534Z" fill="#141414"/>
<path d="M265.099 247.534L279.287 211.963C279.462 211.528 279.528 211.056 279.478 210.59C279.428 210.123 279.265 209.676 279.002 209.288C278.739 208.9 278.384 208.582 277.969 208.362C277.554 208.142 277.092 208.028 276.623 208.028H230.554C229.199 208.03 227.877 208.452 226.771 209.234C225.664 210.017 224.828 211.123 224.376 212.4L211.933 247.534H265.099Z" fill="#141414"/>
<path d="M254.017 220.839C254.237 219.903 253.658 218.966 252.722 218.746C251.785 218.525 250.847 219.104 250.627 220.039C250.406 220.975 250.985 221.912 251.921 222.132C252.858 222.353 253.796 221.774 254.017 220.839Z" fill="white"/>
<path d="M80.1355 327.974C113.95 327.974 141.361 300.588 141.361 266.807C141.361 233.025 113.95 205.639 80.1355 205.639C46.3215 205.639 18.9099 233.025 18.9099 266.807C18.9099 300.588 46.3215 327.974 80.1355 327.974Z" fill="#FFFFFF" stroke="#141414" />
<path d="M80.1355 328.457C46.1096 328.457 18.4373 300.8 18.4373 266.817C18.4373 232.835 46.1205 205.178 80.1465 205.178C114.172 205.178 141.845 232.833 141.845 266.817C141.845 300.802 114.161 328.457 80.1355 328.457ZM80.1355 206.12C46.6412 206.12 19.3999 233.344 19.3999 266.807C19.3999 300.269 46.65 327.493 80.1443 327.493C113.639 327.493 140.889 300.269 140.889 266.807C140.889 233.344 113.63 206.12 80.1355 206.12Z" fill="#141414"/>
<path d="M81.6998 313.237H81.6626C53.078 311.167 46.3502 296.857 46.0768 296.247C46.0359 296.133 46.0395 296.008 46.0869 295.897C46.1343 295.785 46.2219 295.696 46.3324 295.646C46.4428 295.597 46.5679 295.59 46.6827 295.629C46.7976 295.667 46.8937 295.747 46.9519 295.854C47.0175 295.998 53.7694 310.254 81.7283 312.275C81.7915 312.278 81.8537 312.292 81.9112 312.318C81.9688 312.344 82.0207 312.382 82.0638 312.428C82.107 312.474 82.1406 312.528 82.1628 312.587C82.185 312.647 82.1954 312.71 82.1932 312.773C82.191 312.836 82.1765 312.898 82.1503 312.955C82.1241 313.013 82.0868 313.065 82.0406 313.108C81.9944 313.151 81.9401 313.185 81.8809 313.207C81.8217 313.229 81.7587 313.239 81.6955 313.237H81.6998Z" fill="#141414"/>
<path d="M6.49145 389.904C6.42268 389.904 6.3547 389.889 6.29236 389.86C6.17641 389.807 6.08619 389.711 6.04149 389.591C5.99678 389.472 6.00124 389.34 6.05388 389.224L40.4627 313.572C40.4867 313.511 40.5228 313.456 40.5688 313.41C40.6148 313.364 40.6697 313.327 40.7302 313.303C40.7907 313.278 40.8555 313.267 40.9207 313.268C40.9859 313.269 41.0501 313.284 41.1095 313.311C41.1689 313.338 41.2221 313.377 41.266 313.425C41.3099 313.473 41.3436 313.53 41.3649 313.591C41.3863 313.653 41.3949 313.718 41.3903 313.783C41.3856 313.848 41.3678 313.912 41.3378 313.969L6.92903 389.622C6.89062 389.706 6.82901 389.777 6.75148 389.827C6.67394 389.877 6.58372 389.903 6.49145 389.904Z" fill="#141414"/>
<path d="M4.4042 399.519C6.83658 399.519 8.80841 397.549 8.80841 395.119C8.80841 392.689 6.83658 390.719 4.4042 390.719C1.97183 390.719 0 392.689 0 395.119C0 397.549 1.97183 399.519 4.4042 399.519Z" fill="#141414"/>
<path d="M153.775 389.904C153.683 389.903 153.593 389.877 153.515 389.827C153.438 389.777 153.376 389.706 153.338 389.622L118.929 313.969C118.899 313.912 118.881 313.848 118.876 313.783C118.872 313.718 118.88 313.653 118.902 313.591C118.923 313.53 118.957 313.473 119.001 313.425C119.045 313.377 119.098 313.338 119.157 313.311C119.217 313.284 119.281 313.269 119.346 313.268C119.411 313.267 119.476 313.278 119.536 313.303C119.597 313.327 119.652 313.364 119.698 313.41C119.744 313.456 119.78 313.511 119.804 313.572L154.213 389.224C154.265 389.34 154.27 389.472 154.225 389.591C154.18 389.711 154.09 389.807 153.974 389.86C153.912 389.889 153.844 389.904 153.775 389.904Z" fill="#141414"/>
<path d="M155.867 399.519C158.299 399.519 160.271 397.549 160.271 395.119C160.271 392.689 158.299 390.719 155.867 390.719C153.434 390.719 151.463 392.689 151.463 395.119C151.463 397.549 153.434 399.519 155.867 399.519Z" fill="#141414"/>
<path d="M325.837 389.904C325.745 389.904 325.654 389.878 325.577 389.828C325.499 389.779 325.437 389.708 325.399 389.624L263.145 254.492C263.092 254.376 263.087 254.243 263.131 254.124C263.175 254.004 263.265 253.907 263.381 253.854C263.498 253.8 263.63 253.795 263.75 253.839C263.87 253.884 263.967 253.974 264.02 254.09L326.274 389.222C326.301 389.279 326.316 389.341 326.318 389.404C326.321 389.468 326.311 389.531 326.289 389.59C326.267 389.649 326.233 389.704 326.19 389.75C326.147 389.796 326.096 389.834 326.038 389.86C325.975 389.889 325.906 389.904 325.837 389.904Z" fill="#141414"/>
<path d="M327.931 399.519C330.363 399.519 332.335 397.549 332.335 395.119C332.335 392.689 330.363 390.719 327.931 390.719C325.498 390.719 323.526 392.689 323.526 395.119C323.526 397.549 325.498 399.519 327.931 399.519Z" fill="#141414"/>
<path d="M275.927 247.703H147.236V253.716H275.927V247.703Z" fill="white"/>
<path d="M275.927 254.208H147.238C147.11 254.208 146.987 254.157 146.897 254.067C146.806 253.977 146.755 253.855 146.754 253.727V247.714C146.754 247.586 146.805 247.463 146.896 247.372C146.987 247.281 147.11 247.231 147.238 247.231H275.927C275.99 247.231 276.053 247.243 276.111 247.267C276.17 247.292 276.223 247.327 276.268 247.372C276.313 247.417 276.348 247.47 276.372 247.529C276.396 247.588 276.408 247.65 276.408 247.714V253.727C276.408 253.854 276.357 253.977 276.267 254.067C276.177 254.157 276.054 254.208 275.927 254.208ZM147.717 253.246H275.443V248.195H147.719L147.717 253.246Z" fill="#141414"/>
<path d="M163.767 133.845C160.208 129.056 153.85 129.191 148.522 130.107C142.311 131.176 136.425 133.543 130.288 134.936C127.39 135.629 124.419 135.971 121.438 135.956C118.738 135.893 116.053 135.532 113.433 134.879C108.081 133.591 103.016 131.353 98.0214 129.084C93.0265 126.815 87.9944 124.435 82.7303 122.763C77.1797 121.001 71.4365 120.214 65.6255 120.835C53.7781 122.101 41.8082 128.457 35.343 138.651C32.2829 143.5 30.4455 149.018 29.9882 154.732C29.5309 160.446 30.4675 166.185 32.7176 171.458C34.951 176.649 38.3754 181.242 42.714 184.866C47.4179 188.8 52.997 191.642 58.6855 193.873C70.1432 198.334 82.4863 200.055 94.7287 198.901C106.225 197.819 117.33 194.163 127.219 188.205C136.607 182.551 144.714 175.005 151.023 166.048C152.336 164.181 153.554 162.251 154.692 160.275C159.048 156.654 163.463 152.424 165.353 146.957C166.832 142.732 166.5 137.519 163.767 133.845Z" fill="#141414"/>
<path d="M119.725 172.997L129.533 160.487C130.223 159.613 135.476 157.768 136.296 158.52L141.25 168.496C141.589 168.81 141.803 169.237 141.852 169.696C141.901 170.156 141.782 170.618 141.517 170.997L134.296 181.281C133.695 182.14 132.87 182.82 131.911 183.247C130.952 183.674 129.895 183.832 128.853 183.705C126.155 183.37 122.508 182.039 119.557 177.786C119.071 177.074 118.825 176.225 118.855 175.364C118.885 174.502 119.19 173.673 119.725 172.997Z" fill="white"/>
<path d="M118.585 174.752C118.494 174.752 118.405 174.727 118.328 174.678C118.251 174.63 118.189 174.561 118.15 174.479C118.111 174.397 118.095 174.306 118.106 174.216C118.116 174.126 118.152 174.04 118.209 173.969L130.083 159.25C130.163 159.151 130.279 159.087 130.406 159.074C130.533 159.06 130.66 159.097 130.76 159.177C130.859 159.257 130.923 159.373 130.937 159.5C130.95 159.627 130.913 159.754 130.833 159.854L118.959 174.573C118.915 174.629 118.858 174.674 118.793 174.705C118.728 174.736 118.657 174.752 118.585 174.752Z" fill="#141414"/>
<path d="M133.319 183.047C133.216 183.046 133.117 183.014 133.034 182.955C132.983 182.918 132.939 182.871 132.906 182.817C132.873 182.763 132.851 182.703 132.842 182.64C132.832 182.578 132.835 182.514 132.85 182.452C132.865 182.391 132.892 182.333 132.929 182.282L142.175 169.567C142.25 169.464 142.363 169.395 142.489 169.375C142.616 169.355 142.745 169.386 142.848 169.461C142.951 169.536 143.02 169.649 143.04 169.775C143.06 169.901 143.029 170.03 142.954 170.133L133.708 182.848C133.664 182.91 133.605 182.96 133.537 182.995C133.47 183.029 133.395 183.047 133.319 183.047Z" fill="#141414"/>
<path d="M135.576 154.391C135.576 154.391 135.121 152.308 133.067 152.221C131.012 152.133 129.205 153.939 128.927 155.937C128.65 157.934 129.851 160.022 131.669 160.911C132.695 161.414 133.699 161.786 134.988 161.434C135.767 163.878 137.058 166.192 138.95 167.923C140.843 169.655 143.365 170.765 145.929 170.678C150.22 170.54 153.856 167.132 155.556 163.193C157.256 159.255 157.39 154.844 157.464 150.557C157.464 150.557 151.305 155.318 142.608 149.185C141.239 153.224 139.077 155.36 135.576 154.391Z" fill="white"/>
<path d="M145.667 171.167C143.188 171.167 140.635 170.125 138.624 168.282C136.904 166.71 135.544 164.544 134.666 162C133.369 162.208 132.336 161.781 131.457 161.344C129.411 160.343 128.146 158.039 128.45 155.88C128.776 153.545 130.888 151.652 133.089 151.744C134.802 151.816 135.668 153.119 135.966 153.998C138.81 154.667 140.779 153.084 142.149 149.04C142.172 148.969 142.212 148.905 142.266 148.852C142.319 148.799 142.384 148.76 142.455 148.737C142.528 148.711 142.605 148.704 142.682 148.715C142.758 148.726 142.83 148.755 142.893 148.8C151.207 154.66 157.114 150.232 157.173 150.186C157.245 150.13 157.331 150.096 157.421 150.087C157.512 150.078 157.603 150.095 157.684 150.136C157.765 150.176 157.833 150.239 157.88 150.317C157.927 150.395 157.951 150.484 157.95 150.575C157.884 154.426 157.801 159.217 156.005 163.392C154.036 167.982 150.082 171.043 145.954 171.167H145.667ZM134.988 160.957C135.09 160.957 135.19 160.99 135.273 161.05C135.355 161.111 135.417 161.196 135.447 161.294C136.263 163.858 137.587 166.031 139.274 167.574C141.18 169.322 143.593 170.271 145.914 170.197C150.185 170.061 153.611 166.481 155.103 163.005C156.694 159.311 156.884 155.029 156.956 151.421C155.016 152.466 149.682 154.481 142.842 149.93C141.261 154.116 138.775 155.77 135.441 154.846C135.357 154.822 135.281 154.776 135.221 154.713C135.161 154.65 135.119 154.572 135.099 154.487C135.082 154.413 134.688 152.763 133.041 152.693C131.354 152.623 129.654 154.166 129.398 156C129.151 157.768 130.192 159.65 131.875 160.474C132.949 161.001 133.782 161.25 134.859 160.964C134.901 160.956 134.945 160.954 134.988 160.957Z" fill="#141414"/>
<path d="M134.517 159.148C134.417 159.148 134.319 159.116 134.237 159.058C134.156 159 134.094 158.917 134.062 158.822C133.698 157.772 132.963 156.892 131.995 156.345C131.883 156.283 131.801 156.179 131.767 156.056C131.732 155.934 131.748 155.802 131.81 155.691C131.872 155.579 131.976 155.497 132.099 155.463C132.222 155.428 132.354 155.444 132.465 155.506C133.639 156.169 134.532 157.237 134.975 158.509C134.995 158.569 135.004 158.632 135 158.696C134.996 158.759 134.98 158.821 134.952 158.877C134.924 158.934 134.885 158.985 134.838 159.027C134.79 159.069 134.735 159.101 134.675 159.121C134.624 159.138 134.571 159.147 134.517 159.148Z" fill="#141414"/>
<path d="M157.219 151.217C157.109 151.22 157.002 151.184 156.915 151.117C156.828 151.05 156.767 150.955 156.742 150.849C156.716 150.742 156.728 150.63 156.775 150.531C156.822 150.432 156.901 150.352 157 150.304C158.152 149.731 159.139 148.876 159.871 147.819C159.906 147.765 159.952 147.72 160.005 147.685C160.058 147.649 160.118 147.625 160.181 147.613C160.243 147.601 160.308 147.601 160.37 147.614C160.433 147.628 160.492 147.653 160.545 147.689C160.597 147.726 160.642 147.772 160.677 147.826C160.711 147.88 160.734 147.94 160.745 148.003C160.756 148.065 160.755 148.13 160.741 148.192C160.726 148.254 160.7 148.313 160.663 148.365C159.839 149.558 158.726 150.522 157.427 151.167C157.362 151.199 157.291 151.216 157.219 151.217Z" fill="#141414"/>
<path d="M121.371 330.557L89.8497 387.148C86.7582 392.695 90.773 399.519 97.1288 399.519H187.451C187.884 399.521 188.307 399.39 188.663 399.143C189.019 398.897 189.29 398.547 189.44 398.141C189.589 397.735 189.611 397.293 189.5 396.875C189.39 396.457 189.153 396.083 188.823 395.803L163.303 373.945L189.558 327.22L121.371 330.557Z" fill="white"/>
<path d="M187.451 400H97.1222C95.5871 400 94.0788 399.599 92.7465 398.837C91.4141 398.075 90.304 396.979 89.526 395.657C88.748 394.335 88.329 392.833 88.3106 391.299C88.2921 389.766 88.6749 388.254 89.4209 386.914L120.948 330.321C120.988 330.25 121.046 330.19 121.115 330.147C121.185 330.104 121.265 330.08 121.346 330.077L189.545 326.758C189.631 326.752 189.717 326.768 189.794 326.807C189.871 326.845 189.936 326.904 189.982 326.977C190.026 327.051 190.049 327.136 190.049 327.222C190.049 327.308 190.026 327.392 189.982 327.467L163.912 373.847L189.131 395.436C189.533 395.781 189.819 396.24 189.952 396.752C190.085 397.264 190.057 397.804 189.874 398.3C189.69 398.796 189.359 399.224 188.925 399.526C188.49 399.828 187.974 399.991 187.444 399.991L187.451 400ZM121.661 331.025L90.2632 387.381C89.5981 388.575 89.2567 389.922 89.2728 391.288C89.2889 392.654 89.6619 393.992 90.355 395.17C91.048 396.348 92.037 397.324 93.2239 398.003C94.4109 398.681 95.7547 399.038 97.1222 399.038H187.451C187.784 399.038 188.108 398.936 188.381 398.746C188.654 398.557 188.862 398.288 188.978 397.976C189.093 397.664 189.11 397.325 189.026 397.003C188.943 396.682 188.763 396.393 188.51 396.177L162.991 374.319C162.906 374.247 162.849 374.147 162.83 374.038C162.81 373.928 162.829 373.815 162.883 373.718L188.722 327.753L121.661 331.025Z" fill="#141414"/>
<path d="M120.443 379.707C111.473 379.707 103.434 378.833 96.0239 377.084C95.9599 377.072 95.899 377.048 95.8448 377.012C95.7906 376.976 95.7443 376.929 95.7087 376.874C95.6731 376.82 95.6489 376.759 95.6376 376.695C95.6262 376.631 95.628 376.565 95.6428 376.502C95.6577 376.439 95.6852 376.379 95.7237 376.327C95.7623 376.274 95.811 376.23 95.8671 376.197C95.9232 376.164 95.9854 376.143 96.0499 376.134C96.1145 376.126 96.18 376.131 96.2427 376.149C105.587 378.365 115.958 379.152 127.943 378.553C138.596 378.022 149.334 376.466 159.72 374.962C159.846 374.943 159.975 374.976 160.077 375.053C160.179 375.129 160.247 375.243 160.266 375.369C160.284 375.496 160.251 375.624 160.175 375.726C160.098 375.829 159.984 375.897 159.857 375.915C149.45 377.423 138.69 378.975 127.991 379.515C125.403 379.644 122.887 379.709 120.443 379.707Z" fill="#141414"/>
<path d="M167.04 322.719L202.703 390.479C204.14 393.209 206.297 395.495 208.94 397.09C211.584 398.685 214.613 399.528 217.701 399.528H283.663C284.066 399.524 284.458 399.396 284.786 399.162C285.113 398.929 285.362 398.6 285.497 398.221C285.632 397.842 285.648 397.431 285.542 397.043C285.436 396.654 285.213 396.308 284.904 396.05L257.028 373.318L236.628 331.834L167.04 322.719Z" fill="white"/>
<path d="M283.665 400H217.703C214.526 400.005 211.409 399.14 208.69 397.5C205.971 395.859 203.754 393.504 202.281 390.693L166.618 322.933C166.577 322.855 166.558 322.768 166.564 322.68C166.569 322.592 166.598 322.507 166.649 322.435C166.699 322.362 166.768 322.304 166.85 322.269C166.931 322.233 167.02 322.221 167.108 322.234L236.698 331.338C236.777 331.348 236.852 331.377 236.916 331.424C236.981 331.47 237.033 331.531 237.068 331.602L257.415 372.992L285.201 395.659C285.592 395.978 285.874 396.409 286.009 396.894C286.144 397.379 286.126 397.895 285.957 398.369C285.788 398.843 285.476 399.254 285.064 399.544C284.652 399.835 284.161 399.991 283.657 399.991L283.665 400ZM167.9 323.316L203.125 390.245C204.518 392.901 206.612 395.125 209.181 396.675C211.75 398.225 214.695 399.043 217.696 399.038H283.659C283.964 399.038 284.262 398.944 284.511 398.768C284.761 398.592 284.95 398.343 285.052 398.056C285.154 397.769 285.165 397.457 285.083 397.163C285.001 396.869 284.83 396.608 284.593 396.415L256.719 373.683C256.666 373.638 256.623 373.583 256.592 373.521L236.306 332.269L167.9 323.316Z" fill="#141414"/>
<path d="M218.178 379.281C210.701 379.281 203.229 378.889 195.793 378.107C195.731 378.1 195.67 378.081 195.614 378.051C195.558 378.021 195.509 377.98 195.469 377.931C195.43 377.882 195.4 377.826 195.382 377.765C195.364 377.704 195.358 377.641 195.365 377.578C195.371 377.515 195.39 377.454 195.42 377.399C195.451 377.343 195.491 377.294 195.541 377.254C195.59 377.215 195.646 377.185 195.707 377.167C195.768 377.149 195.831 377.143 195.894 377.15C215.732 379.238 235.765 378.528 255.404 375.04C255.468 375.027 255.533 375.027 255.596 375.039C255.659 375.052 255.719 375.076 255.773 375.113C255.826 375.149 255.872 375.195 255.907 375.249C255.942 375.303 255.966 375.363 255.977 375.427C255.988 375.49 255.987 375.555 255.972 375.618C255.958 375.681 255.931 375.74 255.894 375.792C255.856 375.845 255.808 375.889 255.753 375.922C255.698 375.955 255.637 375.977 255.573 375.987C243.229 378.179 230.715 379.281 218.178 379.281Z" fill="#141414"/>
<path d="M110.107 342.254C110.107 342.254 174.801 361.548 240.004 333.611C240.004 333.611 223.105 301.987 209.043 278.516C204.739 271.332 198.644 265.386 191.353 261.258C184.063 257.13 175.825 254.961 167.445 254.962H58.5367L51.2314 269.213C43.075 285.121 53.4871 304.254 71.2877 306.052C93.9848 308.343 114.507 309.696 130.719 309.187L110.107 342.254Z" fill="#FFFFFF" stroke="#141414" />
<path d="M178.277 346.557C178.201 346.558 178.126 346.54 178.058 346.505C178.001 346.476 177.951 346.436 177.909 346.387C177.868 346.338 177.837 346.281 177.818 346.22C177.799 346.159 177.792 346.095 177.798 346.031C177.804 345.967 177.823 345.906 177.853 345.849C183.92 334.106 188.689 321.737 192.074 308.962C194.448 299.985 196.618 288.415 192.273 278.579C189.372 272.022 183.605 266.229 174.645 260.898C174.535 260.833 174.456 260.727 174.424 260.603C174.393 260.479 174.412 260.348 174.477 260.238C174.542 260.128 174.648 260.049 174.772 260.017C174.896 259.986 175.028 260.005 175.138 260.07C184.276 265.508 190.171 271.436 193.155 278.192C197.62 288.297 195.421 300.074 193.006 309.204C189.605 322.047 184.814 334.481 178.717 346.286C178.677 346.369 178.615 346.438 178.537 346.486C178.459 346.534 178.369 346.559 178.277 346.557Z" fill="#141414"/>
<path d="M131.255 309.464C131.133 309.458 131.017 309.405 130.932 309.317C130.847 309.229 130.799 309.111 130.797 308.989C130.795 308.866 130.841 308.747 130.923 308.657C131.006 308.566 131.12 308.51 131.242 308.501L144.794 308.105C144.921 308.104 145.044 308.152 145.136 308.239C145.228 308.326 145.283 308.446 145.288 308.573C145.29 308.636 145.28 308.699 145.258 308.758C145.235 308.817 145.202 308.871 145.158 308.916C145.115 308.962 145.063 308.999 145.005 309.025C144.948 309.051 144.886 309.065 144.822 309.067L131.271 309.464H131.255Z" fill="#141414"/>
<path d="M58.5368 254.962H114.021L122.355 238.376C122.355 238.376 133.294 249.622 147.238 247.703C161.181 245.784 176.439 233.766 189.569 233.884C189.569 233.884 193.363 234.691 195.415 237.838C197.467 240.986 200.467 240.514 200.983 238.511C201.499 236.509 198.121 230.822 198.121 230.822C198.121 230.822 199.885 233.397 202.294 237.731C204.156 241.082 206.201 237.513 206.201 237.513C206.201 237.513 209.363 235.429 208.463 230.372C208.821 229.825 209.058 229.209 209.157 228.564C209.257 227.919 209.217 227.26 209.041 226.632C208.446 224.463 202.239 212.477 185.062 214.708C173.821 216.17 163.015 218.861 156.891 220.551C155.257 220.999 153.524 220.923 151.935 220.335C150.347 219.747 148.983 218.675 148.036 217.272C146.409 214.868 144.608 211.705 143.442 208.223C140.32 198.85 136.441 175.825 123.217 175.812C113.256 175.812 104.463 178.435 81.0676 214.702C64.9079 239.751 58.5368 254.962 58.5368 254.962Z" fill="url(#paint2_linear_61_92)"/>
<path d="M195.415 237.838C193.363 234.691 189.569 233.884 189.569 233.884C185.237 233.845 180.672 235.128 176 236.933L171.5 217.024C175.738 216.146 180.362 215.32 185.062 214.708C202.239 212.477 208.446 224.463 209.041 226.632C209.217 227.26 209.257 227.919 209.157 228.564C209.058 229.209 208.821 229.825 208.463 230.372C209.363 235.43 206.201 237.513 206.201 237.513C206.201 237.513 204.156 241.082 202.294 237.731C199.885 233.397 198.121 230.822 198.121 230.822C198.121 230.822 201.499 236.509 200.983 238.511C200.467 240.514 197.467 240.986 195.415 237.838Z" fill="white"/>
<path d="M58.5368 255.443C58.473 255.442 58.4099 255.429 58.3508 255.405C58.2924 255.381 58.2395 255.345 58.1949 255.301C58.1504 255.256 58.1151 255.203 58.0911 255.144C58.0672 255.086 58.0549 255.023 58.0552 254.96C58.0555 254.897 58.0682 254.834 58.0926 254.776C58.1561 254.623 64.6716 239.239 80.6672 214.439C104.051 178.186 113.048 175.327 123.165 175.327H123.221C134.655 175.34 139.25 191.74 142.289 202.592C142.886 204.719 143.4 206.555 143.906 208.07C144.871 210.971 146.395 213.972 148.435 217.001C149.324 218.322 150.607 219.33 152.102 219.883C153.597 220.435 155.228 220.503 156.764 220.079C162.374 218.533 173.501 215.718 185.001 214.223C201.941 212.02 208.63 223.342 209.505 226.496C209.69 227.16 209.739 227.854 209.646 228.537C209.554 229.22 209.324 229.877 208.969 230.468C209.732 235.202 207.118 237.423 206.562 237.836C206.308 238.247 205.352 239.646 204.057 239.646C203.23 239.646 202.499 239.075 201.882 237.965C201.727 237.687 201.574 237.414 201.423 237.15C201.54 237.636 201.552 238.141 201.458 238.632C201.332 239.124 201.064 239.569 200.686 239.91C200.309 240.251 199.839 240.473 199.336 240.549C197.804 240.8 196.185 239.893 195.021 238.101C193.22 235.342 189.936 234.468 189.519 234.365H189.387C182.445 234.365 174.68 237.862 167.169 241.255C160.59 244.221 153.788 247.287 147.312 248.179C134.935 249.882 124.79 241.294 122.502 239.174L114.461 255.176C114.432 255.233 114.393 255.283 114.345 255.324C114.296 255.365 114.241 255.397 114.18 255.416C114.12 255.436 114.056 255.444 113.993 255.439C113.93 255.434 113.868 255.417 113.811 255.388C113.755 255.359 113.704 255.32 113.663 255.272C113.622 255.223 113.59 255.168 113.571 255.107C113.551 255.047 113.543 254.983 113.548 254.92C113.553 254.857 113.57 254.795 113.599 254.739L121.933 238.153C121.967 238.085 122.017 238.025 122.079 237.98C122.141 237.935 122.213 237.905 122.289 237.894C122.365 237.882 122.442 237.888 122.515 237.913C122.588 237.937 122.654 237.978 122.707 238.033C122.817 238.144 133.647 249.08 147.179 247.213C153.524 246.339 160.258 243.303 166.773 240.365C174.446 236.905 182.404 233.329 189.582 233.392C189.613 233.389 189.645 233.389 189.676 233.392C189.84 233.427 193.691 234.278 195.828 237.545C196.946 239.259 198.294 239.714 199.18 239.567C199.499 239.523 199.798 239.385 200.037 239.17C200.276 238.954 200.446 238.673 200.524 238.361C200.863 237.049 198.992 233.169 197.714 231.036C197.655 230.929 197.639 230.803 197.67 230.684C197.7 230.565 197.775 230.462 197.878 230.396C197.982 230.33 198.107 230.306 198.227 230.329C198.348 230.351 198.456 230.419 198.528 230.518C198.546 230.544 200.331 233.163 202.725 237.469C203.022 238.007 203.499 238.649 204.064 238.651C204.81 238.651 205.578 237.602 205.788 237.235C205.825 237.169 205.878 237.113 205.941 237.071C206.057 236.992 208.822 235.075 207.993 230.415C207.981 230.351 207.983 230.284 207.998 230.22C208.013 230.157 208.041 230.096 208.081 230.044C208.397 229.558 208.605 229.01 208.691 228.437C208.778 227.864 208.74 227.279 208.582 226.721C207.811 223.919 201.215 213.056 185.13 215.137C173.687 216.623 162.61 219.427 157.024 220.964C155.294 221.443 153.456 221.366 151.772 220.743C150.088 220.121 148.643 218.986 147.64 217.497C145.551 214.4 143.989 211.316 142.993 208.332C142.484 206.802 141.965 204.949 141.366 202.811C138.405 192.238 133.927 176.26 123.224 176.249H123.171C113.361 176.249 104.605 179.071 81.4811 214.918C65.538 239.639 59.0509 254.953 58.9853 255.106C58.9551 255.202 58.8956 255.286 58.8152 255.346C58.7347 255.407 58.6373 255.44 58.5368 255.443Z" fill="#141414"/>
<path d="M206.311 237.768H206.287C206.159 237.762 206.038 237.705 205.952 237.611C205.866 237.516 205.821 237.391 205.827 237.263C205.899 235.536 205.626 233.812 205.025 232.19C204.424 230.569 203.507 229.083 202.326 227.819C202.276 227.774 202.235 227.72 202.207 227.659C202.179 227.598 202.163 227.532 202.162 227.465C202.161 227.398 202.174 227.332 202.2 227.27C202.226 227.208 202.265 227.152 202.314 227.106C202.362 227.06 202.42 227.025 202.484 227.003C202.547 226.981 202.615 226.972 202.681 226.977C202.748 226.983 202.814 227.002 202.873 227.034C202.932 227.066 202.983 227.11 203.024 227.163C204.295 228.522 205.282 230.119 205.929 231.862C206.576 233.606 206.869 235.46 206.792 237.318C206.785 237.44 206.731 237.555 206.641 237.639C206.552 237.723 206.433 237.769 206.311 237.768Z" fill="#141414"/>
<path d="M208.488 231.038C208.386 231.038 208.288 231.005 208.206 230.946C208.124 230.887 208.063 230.804 208.03 230.708C207.137 228.022 205.58 225.604 203.504 223.679C203.41 223.592 203.355 223.471 203.35 223.343C203.345 223.216 203.391 223.091 203.478 222.998C203.565 222.904 203.686 222.849 203.814 222.844C203.942 222.839 204.066 222.886 204.16 222.973C206.354 225.009 208 227.565 208.945 230.404C208.965 230.464 208.973 230.527 208.969 230.59C208.964 230.653 208.948 230.715 208.919 230.771C208.891 230.828 208.852 230.878 208.804 230.92C208.756 230.961 208.701 230.992 208.641 231.012C208.591 231.029 208.54 231.038 208.488 231.038Z" fill="#141414"/>
<path d="M120.983 238.033C120.913 238.033 120.844 238.018 120.781 237.989C120.718 237.96 120.661 237.917 120.616 237.864C112.234 228.058 106.561 216.233 104.161 203.563C104.146 203.5 104.145 203.435 104.156 203.371C104.168 203.307 104.192 203.247 104.227 203.193C104.263 203.139 104.309 203.092 104.362 203.056C104.416 203.02 104.477 202.996 104.54 202.984C104.604 202.972 104.669 202.973 104.732 202.986C104.795 203 104.855 203.026 104.908 203.064C104.961 203.101 105.006 203.149 105.04 203.204C105.073 203.258 105.096 203.32 105.106 203.384C107.48 215.888 113.081 227.557 121.355 237.235C121.415 237.305 121.453 237.39 121.466 237.481C121.479 237.572 121.465 237.665 121.427 237.748C121.388 237.832 121.327 237.903 121.249 237.952C121.172 238.002 121.082 238.028 120.99 238.028L120.983 238.033Z" fill="#141414"/>
<path d="M514.091 25.0776C512.607 24.7331 511.048 24.9914 509.755 25.7956C508.462 26.5999 507.542 27.8842 507.197 29.3661C507.146 29.5932 507.109 29.8231 507.085 30.0546C504.742 30.0887 502.417 30.4741 500.189 31.1978C500.093 30.9857 499.983 30.7798 499.861 30.5814C499.468 29.93 498.949 29.3631 498.335 28.9137C497.721 28.4643 497.023 28.1414 496.283 27.9637C495.543 27.7861 494.775 27.7572 494.023 27.8788C493.272 28.0005 492.552 28.2702 491.906 28.6722C491.259 29.0743 490.7 29.6007 490.259 30.2208C489.818 30.841 489.505 31.5425 489.338 32.2845C489.171 33.0266 489.154 33.7944 489.286 34.5433C489.419 35.2923 489.7 36.0073 490.112 36.647C490.235 36.8439 490.371 37.033 490.518 37.2131C488.887 38.8942 487.516 40.8097 486.451 42.8962C486.233 42.8143 486.009 42.7464 485.782 42.6929C485.017 42.5107 484.223 42.4874 483.448 42.6244C482.674 42.7613 481.936 43.0557 481.281 43.4892C480.625 43.9227 480.065 44.4861 479.636 45.1445C479.207 45.8029 478.918 46.5423 478.787 47.3169C478.656 48.0914 478.685 48.8846 478.874 49.6474C479.062 50.4101 479.405 51.1261 479.881 51.751C480.358 52.3759 480.957 52.8964 481.644 53.2803C482.33 53.6641 483.087 53.9031 483.869 53.9825C483.903 56.3237 484.287 58.6467 485.009 60.8743C484.298 61.2033 483.661 61.6745 483.139 62.2587C482.617 62.8429 482.22 63.5278 481.973 64.2711C481.725 65.0145 481.633 65.8006 481.702 66.5809C481.77 67.3612 481.998 68.1192 482.371 68.8082C482.744 69.4971 483.255 70.1025 483.871 70.5868C484.487 71.0712 485.196 71.4244 485.954 71.6245C486.712 71.8246 487.503 71.8675 488.278 71.7505C489.053 71.6335 489.797 71.3591 490.462 70.9442C490.659 70.82 490.849 70.6843 491.03 70.5377C492.712 72.1695 494.63 73.5393 496.719 74.6011C496.638 74.8199 496.57 75.0433 496.515 75.2699C496.345 76.0036 496.32 76.7637 496.443 77.5069C496.567 78.25 496.835 78.9616 497.234 79.6011C497.632 80.2405 498.153 80.7953 498.766 81.2337C499.379 81.6721 500.073 81.9856 500.807 82.1563C502.29 82.5009 503.85 82.2428 505.142 81.4388C506.435 80.6347 507.355 79.3506 507.7 77.8688C507.752 77.6418 507.79 77.4119 507.814 77.1803C510.156 77.146 512.48 76.7614 514.708 76.0393C514.805 76.2503 514.915 76.4554 515.036 76.6535C515.429 77.305 515.947 77.8719 516.562 78.3213C517.176 78.7707 517.873 79.0936 518.614 79.2712C519.354 79.4489 520.122 79.4777 520.874 79.3561C521.625 79.2345 522.345 78.9648 522.991 78.5627C523.637 78.1607 524.197 77.6342 524.638 77.0141C525.079 76.394 525.392 75.6925 525.558 74.9504C525.725 74.2083 525.743 73.4405 525.61 72.6916C525.477 71.9427 525.197 71.2276 524.785 70.588C524.661 70.3911 524.525 70.202 524.378 70.0218C526.011 68.341 527.383 66.4254 528.448 64.3388C528.666 64.4196 528.888 64.4867 529.115 64.5399C530.599 64.8848 532.159 64.6267 533.452 63.8225C534.745 63.0182 535.666 61.7337 536.011 60.2514C536.356 58.769 536.098 57.2104 535.293 55.9184C534.488 54.6263 533.202 53.7067 531.718 53.3617C531.491 53.3111 531.261 53.2739 531.029 53.2503C530.995 50.9096 530.61 48.5873 529.887 46.3606C530.099 46.2627 530.305 46.1525 530.504 46.0306C531.145 45.632 531.7 45.1113 532.14 44.4982C532.579 43.8851 532.893 43.1915 533.064 42.4572C533.234 41.7229 533.259 40.9621 533.135 40.2183C533.012 39.4745 532.743 38.7624 532.344 38.1224C531.945 37.4824 531.424 36.9272 530.81 36.4885C530.197 36.0498 529.502 35.7361 528.767 35.5654C528.032 35.3947 527.271 35.3703 526.526 35.4937C525.782 35.617 525.069 35.8856 524.428 36.2841C524.231 36.4086 524.042 36.5451 523.862 36.6929C522.18 35.0609 520.262 33.6904 518.173 32.6273C518.254 32.4095 518.321 32.1868 518.375 31.9606C518.719 30.4804 518.461 28.9242 517.658 27.6337C516.855 26.3432 515.572 25.4238 514.091 25.0776ZM509.862 43.2371C511.917 43.7139 513.784 44.7889 515.227 46.326C516.671 47.8631 517.626 49.7933 517.971 51.8726C518.316 53.9519 518.036 56.0867 517.167 58.0072C516.298 59.9276 514.878 61.5474 513.087 62.6616C511.297 63.7759 509.215 64.3345 507.107 64.2669C504.998 64.1993 502.957 63.5085 501.241 62.2818C499.526 61.0552 498.213 59.3478 497.468 57.3756C496.724 55.4034 496.582 53.255 497.06 51.2022C497.701 48.4503 499.41 46.0653 501.81 44.5717C504.211 43.078 507.107 42.598 509.862 43.2371Z" fill="white"/>
<path d="M502.101 82.7869C501.164 82.787 500.239 82.5755 499.394 82.1683C498.55 81.7611 497.809 81.1686 497.227 80.4351C496.644 79.7016 496.235 78.8461 496.029 77.9324C495.824 77.0187 495.828 76.0704 496.041 75.1585C496.064 75.0535 496.092 74.9464 496.126 74.8372C494.26 73.8457 492.534 72.6116 490.993 71.1672C490.901 71.2328 490.809 71.294 490.718 71.3508C490.023 71.7889 489.25 72.0854 488.44 72.2234C487.631 72.3614 486.802 72.338 486.002 72.1547C485.202 71.9714 484.446 71.6318 483.778 71.1554C483.109 70.6789 482.542 70.0751 482.108 69.3787C481.675 68.6824 481.383 67.9071 481.25 67.0977C481.118 66.2882 481.147 65.4606 481.336 64.6624C481.525 63.8642 481.87 63.1113 482.351 62.4469C482.833 61.7825 483.441 61.2198 484.141 60.7913C484.231 60.7344 484.327 60.6798 484.427 60.6251C483.811 58.6053 483.464 56.5128 483.397 54.4022C483.283 54.3825 483.178 54.3607 483.071 54.3366C481.47 53.9562 480.085 52.958 479.219 51.5603C478.353 50.1627 478.076 48.4792 478.449 46.8781C478.822 45.277 479.814 43.8884 481.208 43.0161C482.603 42.1437 484.287 41.8586 485.891 42.223C485.996 42.2477 486.103 42.2761 486.213 42.3082C487.205 40.4431 488.441 38.718 489.888 37.1781C489.821 37.0842 489.759 36.9924 489.702 36.9006C489.258 36.2072 488.956 35.4327 488.814 34.6218C488.671 33.811 488.692 32.9799 488.873 32.1769C489.055 31.3739 489.394 30.615 489.872 29.9441C490.349 29.2731 490.955 28.7036 491.655 28.2685C492.354 27.8334 493.133 27.5414 493.947 27.4095C494.76 27.2775 495.592 27.3082 496.393 27.4998C497.195 27.6913 497.95 28.04 498.615 28.5254C499.281 29.0109 499.843 29.6236 500.27 30.3279C500.327 30.4175 500.381 30.5137 500.436 30.6142C502.457 29.997 504.551 29.6508 506.663 29.5847C506.683 29.4689 506.704 29.3661 506.728 29.2568C507.102 27.6508 508.1 26.2589 509.501 25.3874C510.902 24.5159 512.593 24.2362 514.2 24.6098C515.808 24.9835 517.201 25.9798 518.073 27.3797C518.946 28.7795 519.226 30.4682 518.852 32.0743C518.827 32.1792 518.798 32.2863 518.766 32.3956C520.631 33.3879 522.356 34.6227 523.897 36.0678C523.991 36 524.083 35.9388 524.172 35.882C525.574 35.0104 527.265 34.7307 528.873 35.1046C530.481 35.4784 531.874 36.4751 532.747 37.8754C533.619 39.2757 533.899 40.9649 533.525 42.5713C533.151 44.1778 532.153 45.5699 530.751 46.4415C530.66 46.4984 530.565 46.553 530.465 46.6076C531.082 48.6275 531.428 50.72 531.495 52.8306C531.607 52.8503 531.714 52.8721 531.821 52.8962C533.405 53.2936 534.768 54.2964 535.619 55.6886C536.469 57.0807 536.739 58.7509 536.369 60.3395C535.999 61.928 535.019 63.3078 533.64 64.1818C532.262 65.0557 530.595 65.3539 528.999 65.012C528.894 64.988 528.78 64.9596 528.677 64.9268C527.686 66.7911 526.45 68.5155 525.004 70.0546C525.072 70.1486 525.133 70.2404 525.19 70.3322C525.622 71.0255 525.913 71.7969 526.047 72.6026C526.181 73.4082 526.154 74.2323 525.969 75.0277C525.784 75.8231 525.444 76.5744 524.968 77.2385C524.492 77.9026 523.891 78.4667 523.197 78.8984C522.503 79.3301 521.731 79.621 520.924 79.7546C520.118 79.8882 519.293 79.8617 518.497 79.6768C517.701 79.4919 516.949 79.1522 516.284 78.6769C515.619 78.2017 515.054 77.6003 514.622 76.9071C514.565 76.8153 514.509 76.7191 514.454 76.6186C512.434 77.2366 510.341 77.5835 508.229 77.6503C508.21 77.7639 508.188 77.8689 508.164 77.976C507.843 79.3429 507.07 80.5617 505.97 81.4349C504.87 82.3081 503.506 82.7845 502.101 82.7869ZM491.028 70.0525C491.154 70.0523 491.275 70.1018 491.365 70.1902C493.01 71.7882 494.887 73.13 496.931 74.1705C497.036 74.2241 497.118 74.3141 497.161 74.4236C497.204 74.533 497.205 74.6544 497.165 74.765C497.089 74.9648 497.027 75.1692 496.977 75.377C496.661 76.7347 496.898 78.1622 497.636 79.3454C498.373 80.5286 499.551 81.3707 500.91 81.6863C502.269 82.002 503.698 81.7654 504.882 81.0286C506.066 80.2917 506.909 79.1151 507.225 77.7574C507.272 77.5497 507.306 77.3395 507.328 77.1279C507.338 77.0097 507.392 76.8996 507.479 76.8189C507.566 76.7381 507.68 76.6924 507.798 76.6907C510.093 76.6568 512.37 76.2796 514.552 75.5716C514.665 75.536 514.786 75.5423 514.894 75.5894C515.002 75.6364 515.089 75.721 515.139 75.8273C515.227 76.0218 515.328 76.2102 515.441 76.3913C516.177 77.5733 517.354 78.4145 518.711 78.73C520.069 79.0454 521.496 78.8092 522.679 78.0732C523.862 77.3373 524.704 76.1619 525.02 74.8057C525.336 73.4495 525.099 72.0236 524.363 70.8415C524.248 70.661 524.123 70.4873 523.989 70.3213C523.915 70.2297 523.877 70.1143 523.882 69.9968C523.887 69.8793 523.935 69.7677 524.017 69.6831C525.617 68.0391 526.96 66.1638 528.001 64.1202C528.055 64.0159 528.146 63.9349 528.255 63.8922C528.365 63.8496 528.486 63.8483 528.596 63.8885C528.797 63.9623 529.001 64.0243 529.209 64.0743C530.568 64.3903 531.997 64.1538 533.182 63.417C534.367 62.6802 535.21 61.5033 535.526 60.1454C535.843 58.7874 535.606 57.3595 534.869 56.1759C534.131 54.9923 532.953 54.1498 531.594 53.8339C531.385 53.7871 531.174 53.7528 530.961 53.7312C530.843 53.7199 530.733 53.6655 530.653 53.5785C530.572 53.4914 530.526 53.3777 530.524 53.259C530.491 50.9668 530.115 48.6924 529.408 46.5115C529.371 46.3997 529.377 46.2784 529.424 46.1705C529.47 46.0625 529.555 45.9754 529.662 45.9257C530.34 45.6151 530.943 45.1636 531.432 44.6013C531.921 44.0389 532.285 43.3787 532.498 42.6648C532.711 41.9509 532.769 41.1998 532.668 40.4617C532.567 39.7236 532.31 39.0154 531.913 38.3847C531.549 37.7977 531.073 37.2883 530.511 36.8857C529.949 36.4831 529.314 36.1953 528.64 36.0387C527.967 35.8822 527.27 35.8599 526.588 35.9733C525.906 36.0867 525.253 36.3335 524.667 36.6995C524.487 36.8145 524.314 36.9393 524.148 37.0732C524.057 37.147 523.941 37.1848 523.824 37.1796C523.706 37.1744 523.594 37.1264 523.51 37.0448C521.865 35.4467 519.989 34.1042 517.946 33.0623C517.841 33.0094 517.759 32.9199 517.716 32.8107C517.673 32.7014 517.671 32.5802 517.712 32.4699C517.785 32.2697 517.847 32.0653 517.898 31.8579C518.214 30.5005 517.977 29.0732 517.24 27.89C516.503 26.7068 515.326 25.8646 513.967 25.5486C512.608 25.2327 511.18 25.4689 509.995 26.2053C508.811 26.9417 507.968 28.118 507.652 29.4754C507.605 29.6838 507.571 29.8947 507.549 30.1071C507.538 30.2252 507.483 30.3351 507.396 30.4157C507.309 30.4964 507.195 30.5421 507.076 30.5443C504.782 30.5765 502.505 30.953 500.322 31.6612C500.211 31.6968 500.09 31.6907 499.983 31.6441C499.875 31.5975 499.788 31.5134 499.738 31.4077C499.649 31.2131 499.548 31.024 499.436 30.8415C499.071 30.2557 498.594 29.7474 498.032 29.3459C497.47 28.9443 496.834 28.6572 496.161 28.501C495.488 28.3448 494.791 28.3226 494.11 28.4356C493.428 28.5486 492.775 28.7946 492.189 29.1596C491.603 29.5245 491.094 30.0013 490.692 30.5627C490.29 31.1241 490.003 31.7591 489.846 32.4314C489.69 33.1038 489.668 33.8003 489.781 34.4812C489.894 35.1621 490.14 35.8142 490.505 36.4C490.619 36.5801 490.744 36.7531 490.879 36.918C490.953 37.0097 490.991 37.1253 490.986 37.243C490.98 37.3606 490.931 37.4721 490.849 37.5563C489.249 39.2006 487.906 41.0759 486.865 43.1191C486.811 43.2238 486.721 43.3053 486.611 43.3484C486.502 43.3914 486.38 43.3931 486.27 43.353C486.069 43.2786 485.865 43.2158 485.657 43.165C484.298 42.8494 482.869 43.0861 481.684 43.8231C480.5 44.5602 479.657 45.7371 479.341 47.0951C479.025 48.4531 479.262 49.8808 479.999 51.0642C480.737 52.2476 481.915 53.0898 483.274 53.4055C483.482 53.4533 483.693 53.4876 483.905 53.5082C484.023 53.5195 484.133 53.5738 484.213 53.6609C484.294 53.748 484.34 53.8617 484.342 53.9803C484.374 56.2735 484.751 58.5488 485.46 60.7301C485.496 60.8418 485.49 60.9628 485.443 61.0703C485.396 61.1778 485.311 61.2644 485.204 61.3137C485.01 61.4032 484.822 61.5039 484.64 61.6153C484.067 62.0102 483.579 62.5149 483.203 63.0999C482.827 63.685 482.572 64.3389 482.451 65.0235C482.331 65.7081 482.348 66.4098 482.501 67.0878C482.654 67.7658 482.941 68.4067 483.344 68.9731C483.747 69.5395 484.259 70.0202 484.85 70.3873C485.441 70.7543 486.099 71.0004 486.786 71.1112C487.473 71.222 488.175 71.1953 488.851 71.0327C489.528 70.8701 490.165 70.5748 490.726 70.1639C490.812 70.0942 490.918 70.0549 491.028 70.0525ZM507.466 64.7563C506.609 64.756 505.754 64.6578 504.919 64.4634C502.164 63.8175 499.76 62.1437 498.199 59.7847C496.639 57.4256 496.041 54.5599 496.527 51.7744C497.013 48.9888 498.546 46.4943 500.813 44.8016C503.08 43.1088 505.909 42.3461 508.721 42.6694C511.532 42.9928 514.114 44.3778 515.937 46.5409C517.759 48.704 518.685 51.4814 518.525 54.3044C518.364 57.1274 517.13 59.7823 515.074 61.7254C513.018 63.6685 510.296 64.7528 507.466 64.7563ZM507.446 43.4383C505.19 43.4358 502.996 44.1821 501.211 45.5598C499.425 46.9375 498.147 48.8687 497.579 51.0503C497.011 53.2318 497.184 55.5401 498.07 57.6128C498.957 59.6856 500.508 61.4054 502.48 62.5022C504.451 63.5991 506.731 64.0109 508.962 63.673C511.193 63.3352 513.248 62.2667 514.805 60.6355C516.363 59.0042 517.333 56.9025 517.566 54.6603C517.798 52.418 517.278 50.1622 516.088 48.247C515.385 47.1105 514.463 46.1248 513.376 45.347C512.289 44.5692 511.058 44.0148 509.754 43.7159C508.998 43.5366 508.223 43.4442 507.446 43.4404V43.4383Z" fill="#141414"/>
<path d="M474.171 36.9115H455.587C455.459 36.9115 455.337 36.8608 455.246 36.7706C455.156 36.6805 455.105 36.5582 455.105 36.4306C455.105 36.3031 455.156 36.1808 455.246 36.0906C455.337 36.0004 455.459 35.9497 455.587 35.9497H474.171C474.298 35.9497 474.421 36.0004 474.511 36.0906C474.601 36.1808 474.652 36.3031 474.652 36.4306C474.652 36.5582 474.601 36.6805 474.511 36.7706C474.421 36.8608 474.298 36.9115 474.171 36.9115Z" fill="#141414"/>
<path d="M464.089 44.1158H451.156C451.029 44.1158 450.906 44.0652 450.816 43.975C450.726 43.8848 450.675 43.7625 450.675 43.635C450.675 43.5074 450.726 43.3851 450.816 43.2949C450.906 43.2047 451.029 43.1541 451.156 43.1541H464.089C464.217 43.1541 464.339 43.2047 464.429 43.2949C464.519 43.3851 464.57 43.5074 464.57 43.635C464.57 43.7625 464.519 43.8848 464.429 43.975C464.339 44.0652 464.217 44.1158 464.089 44.1158Z" fill="#141414"/>
<path d="M570.496 77.9618H551.912C551.849 77.9618 551.786 77.9493 551.728 77.9251C551.669 77.901 551.616 77.8656 551.571 77.8209C551.527 77.7763 551.491 77.7232 551.467 77.6649C551.443 77.6066 551.43 77.544 551.43 77.4809C551.43 77.4177 551.443 77.3552 551.467 77.2969C551.491 77.2385 551.527 77.1855 551.571 77.1409C551.616 77.0962 551.669 77.0608 551.728 77.0366C551.786 77.0124 551.849 77 551.912 77H570.496C570.623 77 570.746 77.0507 570.836 77.1409C570.926 77.231 570.977 77.3533 570.977 77.4809C570.977 77.6084 570.926 77.7307 570.836 77.8209C570.746 77.9111 570.623 77.9618 570.496 77.9618Z" fill="#141414"/>
<path d="M560.412 85.1662H547.481C547.418 85.1662 547.356 85.1537 547.297 85.1296C547.239 85.1054 547.186 85.07 547.141 85.0253C547.096 84.9807 547.061 84.9277 547.037 84.8693C547.012 84.811 547 84.7484 547 84.6853C547 84.6221 547.012 84.5596 547.037 84.5013C547.061 84.4429 547.096 84.3899 547.141 84.3452C547.186 84.3006 547.239 84.2652 547.297 84.241C547.356 84.2168 547.418 84.2044 547.481 84.2044H560.412C560.475 84.2044 560.537 84.2168 560.596 84.241C560.654 84.2652 560.707 84.3006 560.752 84.3452C560.797 84.3899 560.832 84.4429 560.856 84.5013C560.881 84.5596 560.893 84.6221 560.893 84.6853C560.893 84.7484 560.881 84.811 560.856 84.8693C560.832 84.9277 560.797 84.9807 560.752 85.0253C560.707 85.07 560.654 85.1054 560.596 85.1296C560.537 85.1537 560.475 85.1662 560.412 85.1662Z" fill="#141414"/>
<path d="M74.4164 86.5093C80.452 86.5093 85.3448 81.6201 85.3448 75.5891C85.3448 69.558 80.452 64.6689 74.4164 64.6689C68.3808 64.6689 63.4879 69.558 63.4879 75.5891C63.4879 81.6201 68.3808 86.5093 74.4164 86.5093Z" fill="#141414"/>
<path d="M74.3989 58.5049C74.3356 58.5052 74.2729 58.493 74.2144 58.4689C74.1558 58.4448 74.1026 58.4094 74.0579 58.3647C74.0131 58.32 73.9777 58.2669 73.9536 58.2084C73.9295 58.1499 73.9173 58.0873 73.9176 58.0241V38.5049C73.9176 38.3774 73.9683 38.2551 74.0585 38.1649C74.1488 38.0747 74.2712 38.024 74.3989 38.024H125.569C125.691 38.0323 125.806 38.0866 125.89 38.1761C125.973 38.2656 126.02 38.3835 126.02 38.506C126.02 38.6285 125.973 38.7464 125.89 38.8359C125.806 38.9254 125.691 38.9797 125.569 38.988H74.8802V58.0241C74.8805 58.0873 74.8683 58.1499 74.8442 58.2084C74.8201 58.2669 74.7846 58.32 74.7399 58.3647C74.6951 58.4094 74.642 58.4448 74.5834 58.4689C74.5249 58.493 74.4622 58.5052 74.3989 58.5049Z" fill="#141414"/>
<path d="M112.553 72.0021H93.9695C93.8418 72.0021 93.7194 71.9515 93.6291 71.8613C93.5389 71.7711 93.4882 71.6488 93.4882 71.5213C93.4882 71.3937 93.5389 71.2714 93.6291 71.1812C93.7194 71.0911 93.8418 71.0404 93.9695 71.0404H112.553C112.681 71.0404 112.803 71.0911 112.894 71.1812C112.984 71.2714 113.035 71.3937 113.035 71.5213C113.035 71.6488 112.984 71.7711 112.894 71.8613C112.803 71.9515 112.681 72.0021 112.553 72.0021Z" fill="#141414"/>
<path d="M106.9 80.1399H93.9695C93.9034 80.1443 93.8371 80.1352 93.7747 80.113C93.7123 80.0908 93.6552 80.056 93.6068 80.0108C93.5584 79.9656 93.5198 79.911 93.4934 79.8503C93.4671 79.7896 93.4535 79.7241 93.4535 79.6579C93.4535 79.5918 93.4671 79.5263 93.4934 79.4656C93.5198 79.4049 93.5584 79.3503 93.6068 79.3051C93.6552 79.2599 93.7123 79.2251 93.7747 79.2029C93.8371 79.1807 93.9034 79.1715 93.9695 79.176H106.9C107.022 79.1842 107.137 79.2386 107.221 79.328C107.304 79.4175 107.351 79.5354 107.351 79.6579C107.351 79.7804 107.304 79.8983 107.221 79.9878C107.137 80.0773 107.022 80.1317 106.9 80.1399Z" fill="#141414"/>
<path d="M297 30H403" stroke="#141414"/>
<path d="M297 40H373" stroke="#141414"/>
<path d="M297 50H393" stroke="#141414"/>
<path d="M297 60H363" stroke="#141414"/>
<path d="M297 70H383" stroke="#141414"/>
<path d="M297 80H373" stroke="#141414"/>
<path d="M297 90H373" stroke="#141414"/>
<defs>
<linearGradient id="paint0_linear_61_92" x1="487.244" y1="249.307" x2="487.244" y2="137.764" gradientUnits="userSpaceOnUse">
<stop stop-color="#DC1D47"/>
<stop offset="1" stop-color="#E54327"/>
</linearGradient>
<linearGradient id="paint1_linear_61_92" x1="144.212" y1="348.747" x2="144.212" y2="254.962" gradientUnits="userSpaceOnUse">
<stop stop-color="#DC1D47"/>
<stop offset="1" stop-color="#E54327"/>
</linearGradient>
<linearGradient id="paint2_linear_61_92" x1="133.877" y1="254.963" x2="133.877" y2="175.812" gradientUnits="userSpaceOnUse">
<stop stop-color="#DC1D47"/>
<stop offset="1" stop-color="#E54327"/>
</linearGradient>
</defs>
</svg>