<svg width="700" height="467" viewBox="0 0 700 467" fill="none" xmlns="http://www.w3.org/2000/svg">
<path d="M176.1 0.560547H616.294C618.512 0.560547 620.708 0.997457 622.758 1.84634C624.807 2.69521 626.669 3.93944 628.238 5.50796C629.806 7.07648 631.051 8.93859 631.899 10.988C632.748 13.0373 633.185 15.2338 633.185 17.4521V325.19H159.208V17.4521C159.208 15.2338 159.645 13.0373 160.494 10.988C161.343 8.93859 162.587 7.07648 164.156 5.50796C165.724 3.93944 167.587 2.69521 169.636 1.84634C171.685 0.997457 173.882 0.560547 176.1 0.560547Z" fill="white"/>
<path d="M633.188 325.758H159.209C159.06 325.757 158.918 325.698 158.813 325.593C158.708 325.488 158.649 325.346 158.648 325.197V17.4522C158.653 12.8252 160.494 8.38934 163.766 5.11759C167.037 1.84584 171.473 0.00539587 176.1 0H616.294C620.921 0.00539452 625.357 1.84575 628.629 5.11743C631.901 8.38911 633.743 12.825 633.749 17.4522V325.19C633.749 325.264 633.735 325.337 633.707 325.406C633.68 325.475 633.638 325.538 633.586 325.59C633.534 325.643 633.472 325.685 633.404 325.714C633.336 325.743 633.262 325.758 633.188 325.758ZM159.769 324.637H632.63V17.4522C632.624 13.1222 630.902 8.97113 627.84 5.9096C624.778 2.84806 620.626 1.12606 616.296 1.12134H176.1C171.771 1.12674 167.62 2.84904 164.558 5.9105C161.497 8.97196 159.775 13.1226 159.769 17.4522V324.637Z" fill="#141414"/>
<path d="M641.144 344.472H151.938C130.298 344.472 110.397 342.226 100.139 328.9L95.2004 322.486C91.7319 317.985 95.3253 311.846 101.426 311.846H690.97C696.791 311.846 700.433 317.491 697.53 322.014L694.814 326.235C684.523 340.121 664.316 344.472 641.144 344.472Z" fill="white"/>
<path d="M641.145 345.033H151.938C131.122 345.033 110.384 343.119 99.6935 329.232L94.7545 322.82C93.9548 321.822 93.4578 320.615 93.3223 319.344C93.1869 318.072 93.4185 316.788 93.9899 315.644C95.3151 312.95 98.1644 311.275 101.421 311.275H690.97C694.087 311.275 696.883 312.845 698.264 315.376C698.866 316.442 699.161 317.654 699.116 318.878C699.071 320.102 698.688 321.289 698.009 322.308L695.3 326.528C686.057 338.993 668.352 345.033 641.145 345.033ZM101.426 312.412C98.6002 312.412 96.1357 313.847 95.0017 316.156C94.0154 318.159 94.2499 320.343 95.6439 322.152L100.583 328.564C110.978 342.072 131.42 343.919 151.938 343.919H641.145C667.973 343.919 685.382 338.027 694.37 325.909L697.059 321.719C697.627 320.869 697.949 319.878 697.988 318.857C698.028 317.835 697.782 316.822 697.281 315.932C696.095 313.76 693.677 312.412 690.97 312.412H101.426Z" fill="#141414"/>
<path d="M406.322 86.7561H295.207C295.058 86.7561 294.916 86.697 294.811 86.5919C294.706 86.4867 294.646 86.3441 294.646 86.1954C294.646 86.0467 294.706 85.9041 294.811 85.799C294.916 85.6938 295.058 85.6348 295.207 85.6348H406.322C406.471 85.6348 406.613 85.6938 406.719 85.799C406.824 85.9041 406.883 86.0467 406.883 86.1954C406.883 86.3441 406.824 86.4867 406.719 86.5919C406.613 86.697 406.471 86.7561 406.322 86.7561Z" fill="#141414"/>
<path d="M406.322 100.628H295.207C295.131 100.633 295.054 100.622 294.981 100.597C294.909 100.571 294.843 100.531 294.787 100.478C294.731 100.426 294.686 100.362 294.655 100.292C294.625 100.221 294.609 100.145 294.609 100.068C294.609 99.9917 294.625 99.9157 294.655 99.8452C294.686 99.7748 294.731 99.7113 294.787 99.6589C294.843 99.6064 294.909 99.5661 294.981 99.5403C295.054 99.5145 295.131 99.5039 295.207 99.5091H406.322C406.399 99.5039 406.476 99.5145 406.548 99.5403C406.621 99.5661 406.687 99.6064 406.743 99.6589C406.799 99.7113 406.844 99.7748 406.874 99.8452C406.905 99.9157 406.921 99.9917 406.921 100.068C406.921 100.145 406.905 100.221 406.874 100.292C406.844 100.362 406.799 100.426 406.743 100.478C406.687 100.531 406.621 100.571 406.548 100.597C406.476 100.622 406.399 100.633 406.322 100.628Z" fill="#141414"/>
<path d="M345.851 114.502H295.19C295.041 114.502 294.898 114.443 294.793 114.338C294.688 114.233 294.629 114.09 294.629 113.942C294.629 113.793 294.688 113.65 294.793 113.545C294.898 113.44 295.041 113.381 295.19 113.381H345.851C345.925 113.381 345.998 113.395 346.066 113.424C346.134 113.452 346.196 113.493 346.248 113.545C346.3 113.597 346.341 113.659 346.369 113.727C346.398 113.795 346.412 113.868 346.412 113.942C346.412 114.015 346.398 114.088 346.369 114.156C346.341 114.224 346.3 114.286 346.248 114.338C346.196 114.39 346.134 114.431 346.066 114.46C345.998 114.488 345.925 114.502 345.851 114.502Z" fill="#141414"/>
<path d="M345.882 61.2715H295.22V75.9738H345.882V61.2715Z" fill="#141414"/>
<path d="M279.315 61.2715H204.585V136.001H279.315V61.2715Z" fill="white"/>
<path d="M279.289 136.562H204.559C204.485 136.563 204.412 136.548 204.344 136.52C204.276 136.492 204.214 136.451 204.162 136.399C204.058 136.293 203.999 136.15 203.999 136.002L204.052 61.2716C204.052 61.1979 204.066 61.1248 204.094 61.0567C204.122 60.9885 204.163 60.9265 204.216 60.8744C204.268 60.8223 204.33 60.781 204.398 60.7529C204.466 60.7249 204.539 60.7106 204.613 60.7109H279.343C279.416 60.7107 279.489 60.7249 279.558 60.7529C279.626 60.7809 279.688 60.8221 279.74 60.8741C279.844 60.9803 279.903 61.1229 279.903 61.2716L279.85 136.002C279.85 136.075 279.836 136.148 279.808 136.217C279.78 136.285 279.738 136.347 279.686 136.399C279.634 136.451 279.572 136.492 279.504 136.52C279.436 136.548 279.363 136.563 279.289 136.562ZM205.128 135.441H278.736L278.79 61.8323H205.173L205.128 135.441Z" fill="#141414"/>
<path d="M405.736 201.223H294.952C294.804 201.223 294.661 201.164 294.556 201.059C294.451 200.954 294.392 200.811 294.392 200.662C294.392 200.514 294.451 200.371 294.556 200.266C294.661 200.161 294.804 200.102 294.952 200.102H405.736C405.885 200.102 406.027 200.161 406.132 200.266C406.238 200.371 406.297 200.514 406.297 200.662C406.297 200.811 406.238 200.954 406.132 201.059C406.027 201.164 405.885 201.223 405.736 201.223Z" fill="#141414"/>
<path d="M405.726 215.056H294.932C294.783 215.056 294.64 214.997 294.535 214.892C294.43 214.787 294.371 214.644 294.371 214.495C294.371 214.347 294.43 214.204 294.535 214.099C294.64 213.994 294.783 213.935 294.932 213.935H405.726C405.874 213.935 406.017 213.994 406.122 214.099C406.227 214.204 406.286 214.347 406.286 214.495C406.286 214.644 406.227 214.787 406.122 214.892C406.017 214.997 405.874 215.056 405.726 215.056Z" fill="#141414"/>
<path d="M345.439 228.887H294.922C294.773 228.887 294.631 228.828 294.526 228.723C294.42 228.618 294.361 228.475 294.361 228.326C294.361 228.178 294.42 228.035 294.526 227.93C294.631 227.825 294.773 227.766 294.922 227.766H345.439C345.587 227.766 345.73 227.825 345.835 227.93C345.94 228.035 345.999 228.178 345.999 228.326C345.999 228.475 345.94 228.618 345.835 228.723C345.73 228.828 345.587 228.887 345.439 228.887Z" fill="#141414"/>
<path d="M345.469 175.812H294.955V190.471H345.469V175.812Z" fill="#141414"/>
<path d="M279.096 175.812H204.585V250.322H279.096V175.812Z" fill="white"/>
<path d="M279.07 250.883H204.559C204.485 250.883 204.412 250.869 204.344 250.841C204.275 250.812 204.213 250.77 204.162 250.717C204.057 250.612 203.999 250.47 203.999 250.322L204.052 175.809C204.053 175.661 204.112 175.519 204.217 175.414C204.322 175.31 204.464 175.251 204.613 175.251H279.123C279.197 175.251 279.27 175.265 279.338 175.293C279.407 175.321 279.469 175.362 279.521 175.414C279.573 175.467 279.614 175.529 279.642 175.597C279.67 175.665 279.684 175.738 279.684 175.812L279.631 250.322C279.63 250.471 279.571 250.613 279.466 250.718C279.361 250.823 279.218 250.882 279.07 250.883ZM205.12 249.762H278.517L278.57 176.365H205.173L205.12 249.762Z" fill="#141414"/>
<path d="M448.704 332.481H606.408C612.6 332.481 617.619 327.462 617.619 321.271V61.3966C617.619 55.205 612.6 50.1857 606.408 50.1857H448.704C442.512 50.1857 437.493 55.205 437.493 61.3966V321.271C437.493 327.462 442.512 332.481 448.704 332.481Z" fill="#141414"/>
<path d="M540.978 216.692H466.966V181.828L454.44 170.324H540.978V216.692Z" fill="url(#paint0_linear_77_495)"/>
<path d="M519.427 180.401H476.867C476.753 180.408 476.639 180.391 476.531 180.351C476.424 180.312 476.326 180.251 476.243 180.173C476.16 180.094 476.094 179.999 476.048 179.894C476.003 179.789 475.98 179.676 475.98 179.562C475.98 179.447 476.003 179.334 476.048 179.229C476.094 179.124 476.16 179.029 476.243 178.951C476.326 178.872 476.424 178.811 476.531 178.772C476.639 178.733 476.753 178.716 476.867 178.722H519.427C519.542 178.716 519.656 178.733 519.763 178.772C519.87 178.811 519.969 178.872 520.052 178.951C520.135 179.029 520.201 179.124 520.246 179.229C520.291 179.334 520.315 179.447 520.315 179.562C520.315 179.676 520.291 179.789 520.246 179.894C520.201 179.999 520.135 180.094 520.052 180.173C519.969 180.251 519.87 180.312 519.763 180.351C519.656 180.391 519.542 180.408 519.427 180.401Z" fill="white"/>
<path d="M531.964 190.014H476.865C476.642 190.014 476.428 189.925 476.27 189.768C476.113 189.61 476.024 189.396 476.024 189.173C476.024 188.95 476.113 188.736 476.27 188.578C476.428 188.421 476.642 188.332 476.865 188.332H531.964C532.187 188.332 532.401 188.421 532.558 188.578C532.716 188.736 532.805 188.95 532.805 189.173C532.805 189.396 532.716 189.61 532.558 189.768C532.401 189.925 532.187 190.014 531.964 190.014Z" fill="white"/>
<path d="M501.845 199.627H476.857C476.634 199.627 476.42 199.539 476.262 199.381C476.105 199.223 476.016 199.009 476.016 198.786C476.016 198.563 476.105 198.349 476.262 198.192C476.42 198.034 476.634 197.945 476.857 197.945H501.845C502.068 197.945 502.282 198.034 502.44 198.192C502.598 198.349 502.686 198.563 502.686 198.786C502.686 199.009 502.598 199.223 502.44 199.381C502.282 199.539 502.068 199.627 501.845 199.627Z" fill="white"/>
<path d="M528.031 209.233H476.857C476.634 209.233 476.42 209.144 476.262 208.986C476.105 208.829 476.016 208.615 476.016 208.392C476.016 208.169 476.105 207.955 476.262 207.797C476.42 207.639 476.634 207.551 476.857 207.551H528.031C528.254 207.551 528.468 207.639 528.626 207.797C528.784 207.955 528.872 208.169 528.872 208.392C528.872 208.615 528.784 208.829 528.626 208.986C528.468 209.144 528.254 209.233 528.031 209.233Z" fill="white"/>
<path d="M518.273 280.252H592.282V245.389L604.81 233.885H518.273V280.252Z" fill="url(#paint1_linear_77_495)"/>
<path d="M582.393 243.963H539.821C539.597 243.963 539.384 243.875 539.226 243.717C539.068 243.559 538.979 243.345 538.979 243.122C538.979 242.899 539.068 242.685 539.226 242.528C539.384 242.37 539.597 242.281 539.821 242.281H582.393C582.616 242.281 582.83 242.37 582.988 242.528C583.146 242.685 583.234 242.899 583.234 243.122C583.234 243.345 583.146 243.559 582.988 243.717C582.83 243.875 582.616 243.963 582.393 243.963Z" fill="white"/>
<path d="M582.393 253.577H527.295C527.072 253.577 526.858 253.488 526.7 253.33C526.542 253.172 526.454 252.959 526.454 252.736C526.454 252.512 526.542 252.299 526.7 252.141C526.858 251.983 527.072 251.895 527.295 251.895H582.393C582.616 251.895 582.83 251.983 582.988 252.141C583.146 252.299 583.234 252.512 583.234 252.736C583.234 252.959 583.146 253.172 582.988 253.33C582.83 253.488 582.616 253.577 582.393 253.577Z" fill="white"/>
<path d="M582.394 263.19H557.405C557.182 263.19 556.968 263.101 556.811 262.943C556.653 262.786 556.564 262.572 556.564 262.349C556.564 262.126 556.653 261.912 556.811 261.754C556.968 261.596 557.182 261.508 557.405 261.508H582.394C582.617 261.508 582.831 261.596 582.988 261.754C583.146 261.912 583.235 262.126 583.235 262.349C583.235 262.572 583.146 262.786 582.988 262.943C582.831 263.101 582.617 263.19 582.394 263.19Z" fill="white"/>
<path d="M582.393 272.8H531.219C530.996 272.8 530.782 272.712 530.625 272.554C530.467 272.396 530.378 272.182 530.378 271.959C530.378 271.736 530.467 271.522 530.625 271.364C530.782 271.207 530.996 271.118 531.219 271.118H582.393C582.616 271.118 582.83 271.207 582.988 271.364C583.146 271.522 583.234 271.736 583.234 271.959C583.234 272.182 583.146 272.396 582.988 272.554C582.83 272.712 582.616 272.8 582.393 272.8Z" fill="white"/>
<path d="M496.644 302.072C498.999 302.072 500.908 300.165 500.908 297.813C500.908 295.461 498.999 293.555 496.644 293.555C494.289 293.555 492.38 295.461 492.38 297.813C492.38 300.165 494.289 302.072 496.644 302.072Z" fill="white"/>
<path d="M484.2 302.072C486.554 302.072 488.463 300.165 488.463 297.813C488.463 295.461 486.554 293.555 484.2 293.555C481.845 293.555 479.936 295.461 479.936 297.813C479.936 300.165 481.845 302.072 484.2 302.072Z" fill="white"/>
<path d="M471.755 302.072C474.11 302.072 476.019 300.165 476.019 297.813C476.019 295.461 474.11 293.555 471.755 293.555C469.4 293.555 467.491 295.461 467.491 297.813C467.491 300.165 469.4 302.072 471.755 302.072Z" fill="white"/>
<path d="M507.189 142.041L673.487 142.041V40.0115L507.189 40.0115V142.041Z" fill="white"/>
<path d="M667.3 142.041H673.487V40.0117H507.189V50.1854L667.3 142.041Z" fill="white"/>
<path d="M673.487 142.602H667.289C667.141 142.602 666.998 142.543 666.893 142.438C666.788 142.333 666.729 142.19 666.729 142.041C666.729 141.893 666.788 141.75 666.893 141.645C666.998 141.54 667.141 141.481 667.289 141.481H672.916V40.5725H507.753V50.1855C507.753 50.3342 507.694 50.4768 507.588 50.582C507.483 50.6871 507.341 50.7462 507.192 50.7462C507.043 50.7462 506.901 50.6871 506.796 50.582C506.69 50.4768 506.631 50.3342 506.631 50.1855V40.0118C506.631 39.8631 506.69 39.7205 506.796 39.6154C506.901 39.5102 507.043 39.4512 507.192 39.4512H673.49C673.639 39.4512 673.781 39.5102 673.886 39.6154C673.991 39.7205 674.051 39.8631 674.051 40.0118V142.041C674.051 142.115 674.036 142.188 674.008 142.257C673.979 142.325 673.938 142.387 673.885 142.439C673.833 142.491 673.771 142.532 673.703 142.56C673.634 142.588 673.561 142.602 673.487 142.602Z" fill="#141414"/>
<path d="M556.078 71.7277C560.729 67.5074 567.686 64.6505 573.935 64.0822C577.503 63.7534 581.958 63.4043 586.933 63.1494C587.207 64.0561 587.595 64.9244 588.087 65.7336C589.53 68.1114 591.788 69.9412 594.306 71.0855C596.838 72.2434 599.638 72.6901 602.405 72.3776C605.101 72.0514 607.665 70.902 609.54 68.8938C611.057 67.2551 612.882 65.2749 613.348 63.1265C617.473 63.343 621.583 63.7751 625.662 64.4211C629.659 65.0651 633.468 66.5686 636.827 68.828C640.186 71.0874 643.015 74.0488 645.118 77.5077C652.962 90.3165 666.546 112.341 667.272 130.665C668.442 160.197 620.071 142.337 620.071 142.337L595.86 132.324L578.385 142.296L561.364 142.278L560.451 125.203C560.451 125.203 534.015 135.907 521.064 123.129C503.247 105.544 529.357 61.4062 529.357 61.4062L551.929 69.1868L547.553 84.1695C547.553 84.1695 552.304 75.1504 556.078 71.7277Z" fill="url(#paint2_linear_77_495)"/>
<path d="M645.882 118.875L609.663 118.187C609.586 118.191 609.51 118.178 609.438 118.151C609.367 118.123 609.301 118.082 609.246 118.028C609.192 117.975 609.148 117.91 609.119 117.839C609.09 117.768 609.076 117.692 609.078 117.616C609.079 117.539 609.097 117.463 609.129 117.394C609.16 117.324 609.206 117.262 609.263 117.21C609.32 117.159 609.387 117.12 609.46 117.096C609.532 117.071 609.609 117.062 609.686 117.068L645.905 117.757C646.047 117.766 646.18 117.829 646.277 117.933C646.374 118.037 646.428 118.174 646.428 118.316C646.428 118.458 646.374 118.595 646.277 118.699C646.18 118.803 646.047 118.866 645.905 118.875H645.882Z" fill="#141414"/>
<path d="M630.247 118.613C630.126 118.613 630.009 118.575 629.912 118.503C629.815 118.432 629.744 118.331 629.709 118.216C627.631 111.286 624.776 104.613 621.2 98.3245C620.213 96.5916 619.296 95.8092 618.325 95.8321C618.251 95.8366 618.177 95.826 618.107 95.801C618.037 95.7759 617.973 95.737 617.919 95.6864C617.864 95.6359 617.821 95.5749 617.791 95.5071C617.761 95.4392 617.745 95.366 617.744 95.2918C617.742 95.2182 617.754 95.1448 617.78 95.0759C617.806 95.0069 617.845 94.9438 617.895 94.8901C617.946 94.8363 618.006 94.7931 618.074 94.7627C618.141 94.7324 618.213 94.7156 618.287 94.7133C620.18 94.6369 621.409 96.4259 622.173 97.7715C625.793 104.137 628.681 110.891 630.785 117.905C630.806 117.975 630.813 118.049 630.805 118.123C630.798 118.196 630.776 118.267 630.741 118.332C630.706 118.397 630.658 118.454 630.601 118.501C630.544 118.547 630.478 118.582 630.407 118.603C630.355 118.614 630.301 118.617 630.247 118.613Z" fill="#141414"/>
<path d="M544.561 111.398C544.399 111.398 544.239 111.363 544.092 111.296C543.944 111.228 543.813 111.13 543.707 111.008C541.413 108.442 546.054 88.0995 547.02 84.0474C547.034 83.9729 547.063 83.9019 547.105 83.8388C547.147 83.7757 547.201 83.7218 547.265 83.6803C547.328 83.6388 547.399 83.6106 547.474 83.5974C547.549 83.5842 547.625 83.5863 547.699 83.6036C547.773 83.6208 547.842 83.6529 547.903 83.6978C547.965 83.7427 548.016 83.7995 548.054 83.8648C548.093 83.9301 548.118 84.0026 548.127 84.0777C548.137 84.1529 548.132 84.2293 548.111 84.3023C544.9 97.9215 543.315 109.573 544.576 110.279C544.649 110.27 544.723 110.275 544.794 110.294C544.865 110.313 544.931 110.345 544.989 110.39C545.047 110.435 545.096 110.491 545.133 110.554C545.17 110.618 545.193 110.688 545.203 110.761C545.213 110.834 545.208 110.908 545.189 110.979C545.17 111.049 545.137 111.116 545.092 111.174C545.047 111.232 544.992 111.281 544.928 111.318C544.864 111.354 544.794 111.378 544.721 111.388C544.668 111.394 544.614 111.398 544.561 111.398Z" fill="#141414"/>
<path d="M560.453 125.768C560.307 125.768 560.166 125.711 560.061 125.609C559.956 125.506 559.896 125.367 559.893 125.22C559.289 98.5937 565.117 80.5502 565.176 80.3667C565.224 80.2287 565.325 80.1153 565.457 80.0507C565.588 79.9861 565.74 79.9754 565.879 80.0211C566.018 80.0667 566.134 80.1649 566.201 80.2947C566.269 80.4245 566.283 80.5757 566.241 80.7159C566.182 80.8943 560.415 98.7695 561.014 125.19C561.017 125.338 560.961 125.482 560.858 125.589C560.755 125.697 560.614 125.759 560.466 125.763L560.453 125.768Z" fill="#141414"/>
<path d="M551.009 69.5742C552.772 64.2911 559.006 45.5111 561.03 39.8229C561.23 39.26 561.283 38.655 561.183 38.0659C561.082 37.4768 560.832 36.9234 560.456 36.4588L556.363 31.3848C555.93 30.8682 555.322 30.5296 554.655 30.4341C553.988 30.3385 553.309 30.4928 552.748 30.8671C552.188 31.2415 551.785 31.8096 551.618 32.4625C551.451 33.1154 551.531 33.8071 551.842 34.4047L553.603 37.6439L551.511 39.0023C547.821 41.1354 545.705 39.7821 544.355 36.5531L543.978 35.4751L544.125 33.7268C544.172 33.1642 544.371 32.6246 544.699 32.165C545.027 31.7054 545.472 31.3428 545.989 31.1153C546.506 30.8878 547.075 30.8039 547.635 30.8724C548.196 30.9409 548.727 31.1593 549.174 31.5045C549.592 31.8287 550.103 32.0098 550.632 32.0208C551.161 32.0318 551.679 31.8722 552.11 31.5657C552.433 31.3365 552.696 31.034 552.88 30.683C553.063 30.3321 553.161 29.9427 553.164 29.5468C553.168 29.151 553.078 28.7598 552.901 28.4055C552.725 28.0512 552.466 27.7438 552.148 27.5085L548.873 25.2148C548.327 24.8327 547.69 24.6013 547.026 24.544C546.362 24.4868 545.695 24.6056 545.091 24.8886L540.777 26.9147C539.999 27.2849 539.37 27.9086 538.993 28.6833L537.601 31.4867L530.539 20.9767C530.287 20.6072 529.965 20.2916 529.59 20.0483C529.214 19.8051 528.795 19.639 528.355 19.5599C527.914 19.4808 527.463 19.4902 527.027 19.5876C526.59 19.6849 526.178 19.8683 525.813 20.1269C525.448 20.3856 525.139 20.7143 524.903 21.0939C524.667 21.4736 524.509 21.8965 524.438 22.3379C524.367 22.7794 524.385 23.2305 524.49 23.665C524.596 24.0994 524.787 24.5085 525.052 24.8682L532.649 35.0623L526.041 27.8653C525.538 27.3233 524.846 26.9952 524.108 26.9487C523.37 26.9022 522.642 27.1409 522.075 27.6154C521.508 28.09 521.145 28.7642 521.061 29.4988C520.976 30.2334 521.177 30.9724 521.622 31.5632L528.46 40.5823L524.16 36.5837C523.703 36.1657 523.102 35.94 522.483 35.9534C521.864 35.9668 521.274 36.2183 520.835 36.6557C520.396 37.093 520.143 37.6826 520.128 38.3019C520.112 38.9211 520.336 39.5225 520.753 39.9809C523.128 42.56 526.163 46.1126 529.301 49.6652C531.273 51.9105 532.7 56.0594 531.526 58.8093L530.374 62.2676L551.009 69.5742Z" fill="white"/>
<path d="M551.009 70.1346C550.949 70.1353 550.889 70.1258 550.833 70.1066C550.763 70.0835 550.698 70.0469 550.642 69.9987C550.587 69.9506 550.541 69.8919 550.508 69.8261C550.475 69.7602 550.456 69.6885 550.45 69.615C550.445 69.5416 550.455 69.4678 550.478 69.3981L551.498 66.3195C554.046 58.6943 558.764 44.5017 560.497 39.6366C560.663 39.1634 560.706 38.6555 560.622 38.161C560.538 37.6665 560.329 37.2016 560.015 36.8103L555.92 31.7362C555.606 31.348 555.169 31.0794 554.681 30.9759C554.193 30.8724 553.685 30.9402 553.241 31.1679C553.027 31.5048 552.749 31.7966 552.423 32.0268L552.298 32.1109C552.136 32.427 552.053 32.7781 552.058 33.1334C552.062 33.4888 552.153 33.8377 552.324 34.1497L554.082 37.3888C554.149 37.5129 554.167 37.6577 554.133 37.7946C554.099 37.9315 554.014 38.0504 553.896 38.1279L551.804 39.4837C549.943 40.5617 548.399 40.8573 547.056 40.4037C545.713 39.9501 544.655 38.765 543.827 36.7797L543.437 35.6711C543.411 35.5966 543.401 35.5178 543.406 35.4392L543.554 33.6909C543.61 33.0278 543.843 32.392 544.23 31.8505C544.617 31.309 545.143 30.8818 545.752 30.6139C546.361 30.3459 547.031 30.2472 547.691 30.3282C548.352 30.4091 548.978 30.6666 549.505 31.0736C549.782 31.2904 550.114 31.4255 550.464 31.4638C550.814 31.5021 551.168 31.442 551.485 31.2902C551.727 30.9227 552.041 30.608 552.408 30.3651C552.598 29.9575 552.642 29.4965 552.531 29.0604C552.421 28.6242 552.163 28.2397 551.801 27.9721L548.536 25.6784C548.071 25.3538 547.528 25.1572 546.963 25.1085C546.398 25.0597 545.829 25.1605 545.315 25.4006L541.003 27.4267C540.337 27.7409 539.798 28.272 539.474 28.9329L538.08 31.7362C538.036 31.8238 537.97 31.8984 537.889 31.9526C537.807 32.0068 537.713 32.0387 537.615 32.0451C537.518 32.0516 537.42 32.0323 537.332 31.9893C537.244 31.9463 537.169 31.881 537.114 31.7999L530.052 21.2899C529.622 20.6833 528.968 20.2724 528.235 20.1476C527.502 20.0229 526.749 20.1945 526.143 20.6247C525.536 21.0549 525.125 21.7085 525 22.4417C524.876 23.1748 525.047 23.9275 525.478 24.5341L533.077 34.7282C533.172 34.8427 533.218 34.9903 533.204 35.1385C533.19 35.2867 533.118 35.4232 533.003 35.5182C532.889 35.6132 532.741 35.6587 532.593 35.6449C532.445 35.631 532.308 35.5589 532.213 35.4443L525.605 28.2473C525.392 28.0125 525.132 27.8245 524.843 27.6951C524.553 27.5657 524.24 27.4977 523.923 27.4955C523.488 27.4902 523.06 27.6073 522.688 27.8334C522.316 28.0595 522.014 28.3856 521.819 28.7745C521.623 29.1633 521.54 29.5994 521.58 30.0329C521.62 30.4664 521.781 30.88 522.045 31.2265L528.882 40.2457C528.967 40.3575 529.006 40.4968 528.993 40.6363C528.98 40.7757 528.915 40.9051 528.811 40.999C528.707 41.093 528.572 41.1447 528.432 41.1439C528.292 41.1432 528.157 41.09 528.054 40.9949L523.757 36.9989C523.579 36.8331 523.371 36.7041 523.143 36.6193C522.915 36.5346 522.672 36.4957 522.429 36.5049C522.186 36.5141 521.948 36.5713 521.727 36.6732C521.506 36.775 521.307 36.9195 521.143 37.0983C520.83 37.4406 520.657 37.8874 520.657 38.3509C520.657 38.8144 520.83 39.2611 521.143 39.6035C522.766 41.3696 524.71 43.5944 526.749 45.9492C527.708 47.0477 528.694 48.1792 529.69 49.3107C531.785 51.6961 533.258 56.0949 532.012 59.046L530.875 62.461C530.824 62.5958 530.722 62.7054 530.591 62.767C530.461 62.8287 530.312 62.8376 530.175 62.7919C530.038 62.7463 529.924 62.6496 529.856 62.522C529.789 62.3944 529.773 62.2456 529.813 62.1068L530.965 58.6485C532.032 56.1356 530.728 52.188 528.847 50.0524C527.85 48.9183 526.864 47.7842 525.906 46.6858C523.867 44.336 521.925 42.1163 520.299 40.3629C519.798 39.8125 519.521 39.0951 519.521 38.3509C519.521 37.6067 519.798 36.8892 520.299 36.3388C520.784 35.8136 521.442 35.481 522.153 35.4019C522.864 35.3228 523.579 35.5025 524.168 35.9081L521.13 31.9044C520.629 31.2419 520.384 30.4207 520.44 29.5919C520.496 28.7631 520.849 27.9824 521.435 27.3933C522.02 26.8042 522.799 26.4463 523.627 26.3855C524.456 26.3247 525.278 26.565 525.944 27.0623L524.56 25.2069C524.257 24.7869 524.039 24.3108 523.921 23.8063C523.802 23.3017 523.784 22.7787 523.869 22.2673C523.954 21.756 524.139 21.2665 524.414 20.827C524.688 20.3876 525.048 20.0069 525.47 19.7071C525.893 19.4072 526.371 19.194 526.877 19.0798C527.382 18.9656 527.905 18.9527 528.416 19.0418C528.926 19.131 529.414 19.3203 529.851 19.599C530.288 19.8777 530.666 20.2401 530.962 20.6655L537.486 30.3753L538.449 28.4435C538.885 27.5541 539.61 26.8396 540.506 26.4175L544.818 24.3914C545.51 24.069 546.274 23.934 547.035 23.9997C547.795 24.0655 548.525 24.3297 549.151 24.766L552.426 27.0597C552.819 27.3467 553.138 27.7235 553.357 28.1588C553.576 28.5941 553.687 29.0753 553.682 29.5623C553.682 29.6617 553.682 29.7586 553.664 29.858C554.239 29.7629 554.829 29.8221 555.373 30.0294C555.917 30.2367 556.397 30.5847 556.763 31.0379L560.858 36.112C561.292 36.6529 561.58 37.2952 561.696 37.9783C561.812 38.6614 561.751 39.3628 561.521 40.0163C559.793 44.8712 555.071 59.0562 552.533 66.6788L551.513 69.7574C551.476 69.8634 551.408 69.956 551.319 70.0232C551.229 70.0904 551.121 70.1292 551.009 70.1346ZM544.538 35.4061L544.877 36.372C545.562 38.0106 546.406 38.9893 547.425 39.3333C548.445 39.6774 549.719 39.3996 551.23 38.5203L552.861 37.4627L551.332 34.6772C550.983 34.0353 550.858 33.2957 550.975 32.5747C550.201 32.6546 549.426 32.4317 548.812 31.9528C548.445 31.6694 548.008 31.4902 547.548 31.434C547.088 31.3778 546.621 31.4467 546.196 31.6334C545.772 31.8202 545.406 32.1179 545.136 32.4952C544.867 32.8726 544.704 33.3156 544.665 33.7776L544.538 35.4061Z" fill="#141414"/>
<path d="M543.524 52.2443C543.402 52.2443 543.283 52.2045 543.186 52.1309C543.089 52.0573 543.019 51.9539 542.986 51.8365C542.035 48.4903 542.168 45.8909 543.373 44.112C543.753 43.5553 544.243 43.0823 544.813 42.7224C545.383 42.3626 546.02 42.1234 546.686 42.0197C546.834 42.0041 546.983 42.048 547.098 42.1417C547.214 42.2354 547.288 42.3712 547.303 42.5192C547.319 42.6672 547.275 42.8153 547.181 42.931C547.087 43.0467 546.952 43.1204 546.804 43.1359C546.295 43.2197 545.809 43.4071 545.376 43.6863C544.943 43.9656 544.572 44.3308 544.286 44.7593C543.284 46.2527 543.208 48.5311 544.059 51.5307C544.079 51.6017 544.085 51.6759 544.077 51.7492C544.068 51.8224 544.045 51.8933 544.009 51.9577C543.973 52.0221 543.925 52.0788 543.867 52.1244C543.809 52.1701 543.742 52.2039 543.671 52.2239C543.623 52.2365 543.574 52.2434 543.524 52.2443Z" fill="#141414"/>
<path d="M619.841 142.335C613.271 142.388 605.593 142.228 600.457 142.279L578.387 142.307C578.387 142.307 576.634 114.337 608.032 117.798C608.032 117.798 620.84 125.782 619.841 142.335Z" fill="white"/>
<path d="M596.52 142.734H596.502C596.354 142.729 596.213 142.665 596.111 142.557C596.01 142.448 595.955 142.304 595.959 142.155C596.038 140.48 596.44 138.836 597.144 137.313C597.942 135.616 599.379 134.296 600.812 133.121C601.162 132.814 601.553 132.556 601.974 132.356C602.105 132.315 602.248 132.323 602.374 132.38C602.5 132.436 602.6 132.538 602.656 132.664C602.712 132.79 602.72 132.933 602.677 133.064C602.634 133.196 602.544 133.307 602.425 133.376C602.098 133.537 601.795 133.741 601.523 133.982C600.281 135.002 598.898 136.215 598.159 137.787C597.517 139.174 597.151 140.672 597.081 142.199C597.074 142.343 597.012 142.479 596.908 142.579C596.803 142.679 596.664 142.734 596.52 142.734Z" fill="#141414"/>
<path d="M589.435 142.678C589.287 142.676 589.146 142.616 589.042 142.51C588.938 142.404 588.881 142.261 588.882 142.113C588.913 139.602 589.257 137.699 590.034 135.741C590.812 133.784 592.328 131.898 594.272 130.389C594.39 130.299 594.539 130.259 594.687 130.278C594.834 130.298 594.968 130.375 595.059 130.493C595.149 130.611 595.189 130.76 595.17 130.907C595.151 131.055 595.073 131.188 594.955 131.279C593.156 132.665 591.777 134.393 591.077 136.154C590.353 137.971 590.032 139.755 590.004 142.12C590.003 142.194 589.988 142.267 589.959 142.335C589.93 142.403 589.888 142.465 589.835 142.517C589.782 142.569 589.72 142.61 589.651 142.637C589.583 142.665 589.509 142.679 589.435 142.678Z" fill="#141414"/>
<path d="M583.596 142.717C583.46 142.716 583.328 142.665 583.225 142.574C583.123 142.483 583.058 142.358 583.041 142.222C582.021 133.698 587.501 128.659 587.733 128.46C587.843 128.359 587.989 128.306 588.139 128.312C588.289 128.318 588.43 128.384 588.532 128.495C588.633 128.605 588.686 128.751 588.68 128.901C588.673 129.051 588.608 129.192 588.497 129.294C588.444 129.34 583.222 134.172 584.165 142.1C584.182 142.248 584.14 142.396 584.049 142.513C583.957 142.63 583.823 142.706 583.675 142.724L583.596 142.717Z" fill="#141414"/>
<path d="M603.194 42.4479L609.665 61.3884C609.867 61.9832 610.223 62.514 610.697 62.927C611.17 63.34 611.744 63.6207 612.361 63.7407L615.244 64.3014C615.244 64.3014 608.554 74.7681 595.694 73.5703C585.79 72.6477 585.281 64.3014 585.281 64.3014L587.952 64.0847C588.327 64.054 588.692 63.9415 589.019 63.7552C589.347 63.5689 589.63 63.3133 589.848 63.0062C590.067 62.6991 590.215 62.348 590.284 61.9775C590.353 61.6069 590.339 61.2258 590.245 60.8609L587.243 49.2193C587.243 49.2193 599.476 39.3489 603.194 42.4479Z" fill="white"/>
<path d="M587.345 64.6961C587.197 64.7019 587.052 64.6483 586.943 64.5473C586.833 64.4462 586.769 64.3058 586.763 64.1571C586.757 64.0084 586.811 63.8636 586.912 63.7543C587.013 63.6451 587.153 63.5806 587.302 63.5748L587.906 63.5264C588.198 63.4985 588.481 63.4078 588.735 63.2606C588.989 63.1133 589.208 62.9129 589.378 62.6731C589.547 62.4332 589.663 62.1597 589.717 61.8711C589.77 61.5825 589.761 61.2856 589.69 61.0008L586.688 49.3592C586.661 49.255 586.664 49.1452 586.698 49.043C586.732 48.9408 586.795 48.8506 586.879 48.7833C588.153 47.7435 599.586 38.7192 603.541 42.017C603.621 42.0845 603.68 42.1727 603.712 42.2718L610.185 61.2123C610.356 61.7133 610.656 62.1604 611.054 62.5085C611.453 62.8566 611.936 63.0934 612.456 63.1951L613.169 63.3352C613.245 63.3451 613.319 63.3704 613.384 63.4096C613.45 63.4489 613.507 63.5012 613.552 63.5633C613.597 63.6255 613.629 63.6962 613.645 63.771C613.661 63.8459 613.662 63.9233 613.648 63.9985C613.633 64.0737 613.603 64.1452 613.56 64.2084C613.516 64.2716 613.461 64.3252 613.396 64.366C613.331 64.4068 613.258 64.4338 613.183 64.4454C613.107 64.4571 613.03 64.4531 612.955 64.4337L612.242 64.296C611.529 64.1561 610.865 63.831 610.317 63.3532C609.77 62.8754 609.358 62.2618 609.122 61.5742L602.708 42.7943C599.904 40.8166 591.329 46.6935 587.863 49.4357L590.776 60.7256C590.891 61.1707 590.907 61.6356 590.823 62.0876C590.739 62.5396 590.557 62.9676 590.289 63.3417C590.022 63.7158 589.676 64.0269 589.276 64.2529C588.876 64.479 588.431 64.6146 587.972 64.6503L587.368 64.6987L587.345 64.6961Z" fill="#141414"/>
<path d="M575.93 18.8997C574.824 24.3637 579.073 29.318 582.748 30.2329L583.138 30.3221C583.216 30.5986 583.316 30.8687 583.436 31.13C584.881 34.2978 589.017 35.8371 592.493 35.5211C593.817 36.9437 595.056 38.4431 596.204 40.0116C600.646 46.0796 603.801 43.3501 608.416 37.3458C609.03 36.5456 609.917 35.5236 610.376 33.8314C611.288 30.47 609.711 27.4423 609.51 27.0702C608.003 24.2796 606.064 24.3841 601.803 21.517C595.325 17.1616 595.213 13.8307 589.644 11.9499C588.168 11.4402 586.313 10.8515 583.996 11.2771C580.64 11.8837 576.802 14.5826 575.93 18.8997Z" fill="#141414"/>
<path d="M598.786 45.3941C598.786 45.3941 595.651 52.642 587.44 51.304C579.228 49.9661 579.03 39.507 579.753 28.3955C580.574 29.448 582.411 30.2534 583.861 30.8727C589.766 33.3855 595.075 30.0903 595.86 29.6672C595.199 30.4544 594.819 31.4386 594.778 32.4654C594.738 33.4921 595.039 34.5033 595.636 35.3402C596.291 36.2169 597.524 36.8515 599.713 36.8897C599.713 36.8897 600.756 33.4084 603.852 35.4294C606.948 37.4504 605.786 45.9726 598.786 45.3941Z" fill="white"/>
<path d="M589.402 52.0281C588.714 52.0266 588.027 51.9695 587.348 51.8574C578.489 50.4124 578.494 38.9696 579.193 28.3601C579.2 28.2467 579.242 28.1382 579.312 28.0491C579.383 27.9599 579.479 27.8942 579.587 27.8608C579.696 27.8273 579.812 27.8277 579.92 27.8618C580.029 27.8959 580.124 27.9622 580.194 28.0518C580.959 29.0253 582.913 29.8587 584.081 30.3582C586.522 31.3954 590.472 32.0478 595.432 29.2649L595.595 29.1757C595.709 29.1148 595.84 29.0952 595.967 29.1202C596.094 29.1451 596.208 29.2131 596.291 29.3126C596.373 29.4121 596.419 29.5371 596.42 29.6663C596.42 29.7955 596.377 29.9211 596.296 30.0218C595.711 30.7103 595.373 31.5744 595.335 32.477C595.297 33.3796 595.562 34.269 596.087 35.0041C596.67 35.789 597.759 36.2299 599.326 36.314C599.581 35.7508 600.144 34.7696 601.179 34.3925C602.068 34.0637 603.07 34.2548 604.148 34.9582C605.896 36.1 606.525 38.9568 605.618 41.6098C604.632 44.4845 602.218 46.0926 599.122 45.978C598.401 47.3287 595.46 52.0281 589.402 52.0281ZM580.227 29.6165C579.641 39.385 579.893 49.5077 587.519 50.7488C595.19 52.0052 598.138 45.4504 598.261 45.1726C598.307 45.0647 598.386 44.9741 598.486 44.9137C598.587 44.8533 598.704 44.8262 598.821 44.8362C602.764 45.1726 604.14 42.433 604.548 41.2454C605.269 39.1352 604.803 36.7371 603.528 35.8935C602.764 35.3838 602.101 35.2411 601.561 35.4373C600.631 35.7737 600.238 37.0327 600.233 37.0454C600.196 37.1611 600.123 37.2621 600.025 37.334C599.927 37.4059 599.809 37.4449 599.688 37.4456C597.544 37.4073 596.028 36.811 595.179 35.6616C594.692 34.9974 594.374 34.2244 594.253 33.4095C594.131 32.5946 594.211 31.7624 594.484 30.9851C589.817 33.0978 586.056 32.4046 583.635 31.375C582.424 30.8628 581.165 30.2995 580.238 29.6165H580.227Z" fill="#141414"/>
<path d="M599.27 42.6799C599.208 42.6797 599.146 42.6694 599.087 42.6494C598.946 42.6012 598.83 42.4994 598.765 42.366C598.699 42.2327 598.69 42.0789 598.737 41.9383C598.917 41.3266 599.184 40.7444 599.533 40.2104C599.739 39.8986 600.012 39.636 600.331 39.4414C600.65 39.2467 601.008 39.1247 601.38 39.084C601.523 39.0838 601.661 39.1379 601.765 39.2353C601.87 39.3328 601.933 39.4663 601.943 39.6089C601.953 39.7515 601.908 39.8924 601.818 40.0031C601.727 40.1139 601.598 40.1862 601.457 40.2053C601.249 40.2358 601.051 40.3105 600.875 40.4244C600.699 40.5383 600.55 40.6887 600.437 40.8654C600.156 41.3108 599.94 41.7939 599.795 42.3002C599.758 42.4101 599.687 42.5056 599.593 42.5736C599.499 42.6416 599.386 42.6788 599.27 42.6799Z" fill="#141414"/>
<path d="M599.4 19.8223C599.4 19.8223 606.026 23.3163 601.439 34.0608L604.382 35.6562C604.382 35.6562 611.047 21.9171 599.4 19.8223Z" fill="white"/>
<path d="M604.392 36.2163C604.304 36.2139 604.216 36.1912 604.138 36.1501L601.194 34.5522C601.071 34.4867 600.976 34.3775 600.929 34.246C600.882 34.1145 600.885 33.9701 600.939 33.8411C605.259 23.6879 599.204 20.3493 599.143 20.3162C599.024 20.2537 598.932 20.1509 598.883 20.0264C598.834 19.9019 598.831 19.7639 598.874 19.6373C598.918 19.5108 599.006 19.4041 599.121 19.3365C599.237 19.2689 599.373 19.2449 599.504 19.2688C602.621 19.8269 604.78 21.2464 605.924 23.4891C608.452 28.4485 605.047 35.5996 604.905 35.9003C604.872 35.9688 604.825 36.0298 604.768 36.0798C604.71 36.1297 604.643 36.1675 604.571 36.1909C604.513 36.209 604.453 36.2176 604.392 36.2163ZM602.16 33.808L604.125 34.8733C604.844 33.1607 606.824 27.7375 604.917 23.9962C604.24 22.6634 603.113 21.6669 601.564 21.0196C603.197 23.038 604.9 27.0137 602.16 33.808Z" fill="#141414"/>
<path d="M592.985 49.1407C592.585 49.1416 592.187 49.0823 591.805 48.9648L584.718 46.7884C584.644 46.77 584.574 46.7367 584.514 46.6906C584.453 46.6445 584.402 46.5865 584.365 46.5202C584.328 46.4539 584.304 46.3806 584.296 46.3049C584.288 46.2292 584.295 46.1526 584.317 46.0798C584.34 46.007 584.377 45.9395 584.426 45.8814C584.475 45.8234 584.536 45.776 584.604 45.7421C584.672 45.7083 584.747 45.6887 584.823 45.6845C584.899 45.6804 584.975 45.6918 585.046 45.7181L592.146 47.8945C592.635 48.042 593.154 48.06 593.652 47.9465C594.149 47.833 594.609 47.592 594.986 47.2472L599.644 42.9555C599.698 42.9053 599.762 42.8662 599.831 42.8406C599.901 42.815 599.974 42.8032 600.048 42.8061C600.122 42.8089 600.195 42.8263 600.262 42.8572C600.329 42.888 600.389 42.9318 600.439 42.986C600.49 43.0403 600.529 43.1038 600.554 43.1731C600.58 43.2424 600.592 43.3161 600.589 43.3899C600.586 43.4638 600.569 43.5363 600.538 43.6035C600.507 43.6706 600.463 43.731 600.409 43.7812L595.75 48.0729C594.996 48.7644 594.008 49.1457 592.985 49.1407Z" fill="#141414"/>
<path d="M590.095 47.7499C590.276 46.9222 589.163 45.9752 587.608 45.6347C586.053 45.2942 584.645 45.6892 584.464 46.5169C584.283 47.3446 585.396 48.2916 586.951 48.6321C588.506 48.9726 589.914 48.5776 590.095 47.7499Z" fill="white"/>
<path d="M588.011 49.3012C587.603 49.2994 587.196 49.2541 586.797 49.1661C584.878 48.7456 583.627 47.5504 583.879 46.3832C584.015 45.7715 584.529 45.3103 585.332 45.0834C586.106 44.8941 586.915 44.8941 587.689 45.0834C589.606 45.5014 590.86 46.6966 590.605 47.8639C590.472 48.478 589.958 48.9393 589.155 49.1636C588.781 49.2606 588.396 49.3069 588.011 49.3012ZM586.481 46.0595C586.198 46.0566 585.915 46.0918 585.64 46.164C585.274 46.2659 585.021 46.4418 584.98 46.6227C584.899 47.0025 585.679 47.7721 587.04 48.0703C587.637 48.2121 588.259 48.2121 588.857 48.0703C589.224 47.9658 589.476 47.79 589.517 47.609C589.598 47.2318 588.818 46.4596 587.455 46.1615C587.133 46.0929 586.805 46.0588 586.476 46.0595H586.481Z" fill="#141414"/>
<path d="M601.472 47.1317C605.4 47.1317 608.585 43.9437 608.585 40.0112C608.585 36.0786 605.4 32.8906 601.472 32.8906C597.543 32.8906 594.359 36.0786 594.359 40.0112C594.359 43.9437 597.543 47.1317 601.472 47.1317Z" fill="white"/>
<path d="M601.472 47.6905C599.952 47.6925 598.466 47.2437 597.201 46.4008C595.937 45.5579 594.951 44.3588 594.368 42.9553C593.785 41.5517 593.631 40.0069 593.927 38.5161C594.222 37.0254 594.953 35.6558 596.027 34.5806C597.101 33.5055 598.47 32.7731 599.961 32.4762C601.451 32.1792 602.996 32.3311 604.4 32.9126C605.804 33.494 607.005 34.4789 607.849 35.7427C608.693 37.0064 609.143 38.4921 609.143 40.0119C609.141 42.0464 608.332 43.9972 606.894 45.4366C605.456 46.8759 603.506 47.6865 601.472 47.6905ZM601.472 33.452C600.174 33.45 598.905 33.833 597.824 34.5526C596.744 35.2722 595.902 36.296 595.404 37.4945C594.906 38.6929 594.774 40.0122 595.026 41.2854C595.278 42.5585 595.902 43.7283 596.819 44.6468C597.736 45.5652 598.905 46.191 600.178 46.4449C601.451 46.6989 602.77 46.5696 603.969 46.0734C605.169 45.5772 606.194 44.7364 606.915 43.6574C607.636 42.5784 608.021 41.3097 608.021 40.0119C608.021 38.2741 607.331 36.6075 606.103 35.3777C604.875 34.1479 603.209 33.4554 601.472 33.452Z" fill="#141414"/>
<path d="M601.472 45.0376C604.245 45.0376 606.492 42.7876 606.492 40.012C606.492 37.2364 604.245 34.9863 601.472 34.9863C598.699 34.9863 596.451 37.2364 596.451 40.012C596.451 42.7876 598.699 45.0376 601.472 45.0376Z" fill="white"/>
<path d="M601.472 45.5977C600.366 45.5992 599.284 45.2726 598.364 44.6593C597.444 44.046 596.726 43.1735 596.302 42.1523C595.878 41.131 595.767 40.0069 595.982 38.9222C596.197 37.8375 596.729 36.8409 597.51 36.0587C598.292 35.2764 599.288 34.7435 600.372 34.5276C601.457 34.3116 602.581 34.4222 603.603 34.8453C604.624 35.2685 605.497 35.9853 606.112 36.9048C606.726 37.8244 607.053 38.9055 607.053 40.0113C607.052 41.4918 606.464 42.9116 605.418 43.9589C604.371 45.0063 602.952 45.5956 601.472 45.5977ZM601.472 35.5438C600.588 35.5423 599.723 35.803 598.987 36.293C598.252 36.783 597.678 37.4802 597.339 38.2964C596.999 39.1126 596.91 40.0111 597.081 40.8782C597.253 41.7453 597.678 42.5421 598.302 43.1677C598.927 43.7932 599.723 44.2195 600.589 44.3925C601.456 44.5655 602.355 44.4774 603.172 44.1395C603.989 43.8016 604.687 43.229 605.178 42.4942C605.669 41.7593 605.931 40.8953 605.931 40.0113C605.931 38.828 605.461 37.6932 604.625 36.8558C603.789 36.0183 602.655 35.5465 601.472 35.5438Z" fill="#141414"/>
<path d="M527.295 397.086H373.732C373.655 397.091 373.578 397.08 373.506 397.055C373.434 397.029 373.367 396.989 373.311 396.936C373.255 396.884 373.21 396.82 373.18 396.75C373.149 396.679 373.133 396.603 373.133 396.527C373.133 396.45 373.149 396.374 373.18 396.303C373.21 396.233 373.255 396.169 373.311 396.117C373.367 396.064 373.434 396.024 373.506 395.998C373.578 395.973 373.655 395.962 373.732 395.967H527.295C527.371 395.962 527.448 395.973 527.521 395.998C527.593 396.024 527.659 396.064 527.715 396.117C527.771 396.169 527.816 396.233 527.847 396.303C527.877 396.374 527.893 396.45 527.893 396.527C527.893 396.603 527.877 396.679 527.847 396.75C527.816 396.82 527.771 396.884 527.715 396.936C527.659 396.989 527.593 397.029 527.521 397.055C527.448 397.08 527.371 397.091 527.295 397.086Z" fill="#141414"/>
<path d="M662.998 397.086H594.734C594.657 397.091 594.58 397.081 594.508 397.055C594.435 397.029 594.369 396.989 594.313 396.936C594.257 396.884 594.212 396.82 594.182 396.75C594.151 396.679 594.135 396.603 594.135 396.527C594.135 396.45 594.151 396.374 594.182 396.303C594.212 396.233 594.257 396.169 594.313 396.117C594.369 396.065 594.435 396.024 594.508 395.998C594.58 395.973 594.657 395.962 594.734 395.967H662.448V356.05C662.448 355.901 662.507 355.759 662.612 355.653C662.717 355.548 662.86 355.489 663.008 355.489C663.157 355.489 663.3 355.548 663.405 355.653C663.51 355.759 663.569 355.901 663.569 356.05V396.528C663.569 396.602 663.554 396.676 663.525 396.744C663.496 396.812 663.453 396.874 663.4 396.926C663.347 396.978 663.284 397.019 663.215 397.047C663.146 397.074 663.072 397.087 662.998 397.086Z" fill="#141414"/>
<path d="M581.764 403.251C585.484 403.251 588.5 400.24 588.5 396.525C588.5 392.811 585.484 389.8 581.764 389.8C578.044 389.8 575.028 392.811 575.028 396.525C575.028 400.24 578.044 403.251 581.764 403.251Z" fill="#141414"/>
<path d="M581.764 403.814C580.323 403.813 578.914 403.384 577.716 402.583C576.518 401.781 575.584 400.642 575.034 399.31C574.483 397.978 574.339 396.513 574.621 395.099C574.903 393.685 575.598 392.387 576.618 391.368C577.638 390.35 578.937 389.656 580.351 389.376C581.765 389.095 583.23 389.24 584.561 389.792C585.893 390.345 587.031 391.279 587.831 392.478C588.632 393.677 589.058 395.086 589.058 396.528C589.055 398.46 588.285 400.313 586.917 401.679C585.55 403.045 583.697 403.812 581.764 403.814ZM581.764 390.36C580.544 390.361 579.353 390.724 578.339 391.402C577.326 392.08 576.536 393.044 576.07 394.171C575.604 395.298 575.482 396.538 575.721 397.734C575.959 398.93 576.547 400.028 577.41 400.89C578.273 401.752 579.372 402.339 580.568 402.577C581.764 402.814 583.004 402.692 584.131 402.225C585.257 401.758 586.22 400.968 586.898 399.954C587.575 398.939 587.937 397.747 587.937 396.528C587.934 394.892 587.283 393.324 586.125 392.168C584.968 391.012 583.4 390.362 581.764 390.36Z" fill="#141414"/>
<path d="M562.11 403.251C565.83 403.251 568.846 400.24 568.846 396.525C568.846 392.811 565.83 389.8 562.11 389.8C558.39 389.8 555.375 392.811 555.375 396.525C555.375 400.24 558.39 403.251 562.11 403.251Z" fill="#141414"/>
<path d="M562.11 403.814C560.669 403.812 559.26 403.383 558.063 402.582C556.865 401.78 555.932 400.641 555.381 399.308C554.831 397.976 554.688 396.511 554.97 395.097C555.253 393.684 555.948 392.386 556.968 391.368C557.987 390.349 559.286 389.656 560.7 389.376C562.114 389.095 563.579 389.24 564.911 389.793C566.242 390.345 567.38 391.28 568.18 392.478C568.98 393.677 569.407 395.086 569.407 396.528C569.403 398.461 568.633 400.314 567.265 401.68C565.897 403.046 564.043 403.813 562.11 403.814ZM562.11 390.36C560.891 390.362 559.699 390.725 558.686 391.403C557.673 392.082 556.883 393.046 556.418 394.173C555.952 395.3 555.831 396.54 556.07 397.735C556.309 398.931 556.897 400.03 557.76 400.891C558.622 401.753 559.721 402.34 560.917 402.577C562.114 402.814 563.353 402.692 564.48 402.225C565.606 401.758 566.569 400.967 567.246 399.953C567.924 398.939 568.285 397.747 568.285 396.528C568.283 394.891 567.632 393.323 566.474 392.166C565.316 391.01 563.747 390.36 562.11 390.36Z" fill="#141414"/>
<path d="M542.456 403.251C546.176 403.251 549.192 400.24 549.192 396.525C549.192 392.811 546.176 389.8 542.456 389.8C538.736 389.8 535.72 392.811 535.72 396.525C535.72 400.24 538.736 403.251 542.456 403.251Z" fill="#141414"/>
<path d="M542.456 403.814C541.014 403.812 539.606 403.383 538.408 402.582C537.211 401.78 536.278 400.641 535.727 399.308C535.177 397.976 535.034 396.511 535.316 395.097C535.598 393.684 536.293 392.386 537.313 391.368C538.333 390.349 539.632 389.656 541.046 389.376C542.46 389.095 543.925 389.24 545.256 389.793C546.588 390.345 547.725 391.28 548.526 392.478C549.326 393.677 549.753 395.086 549.752 396.528C549.749 398.461 548.979 400.314 547.611 401.68C546.243 403.046 544.389 403.813 542.456 403.814ZM542.456 390.36C541.236 390.362 540.045 390.725 539.032 391.403C538.018 392.082 537.229 393.046 536.763 394.173C536.298 395.3 536.177 396.54 536.416 397.735C536.654 398.931 537.242 400.03 538.105 400.891C538.968 401.753 540.067 402.34 541.263 402.577C542.459 402.814 543.699 402.692 544.825 402.225C545.952 401.758 546.915 400.967 547.592 399.953C548.269 398.939 548.631 397.747 548.631 396.528C548.628 394.891 547.977 393.323 546.819 392.167C545.661 391.011 544.092 390.361 542.456 390.36Z" fill="#141414"/>
<path d="M527.555 466.377H387.787C387.638 466.377 387.495 466.318 387.39 466.213C387.285 466.108 387.226 465.965 387.226 465.817C387.226 465.668 387.285 465.525 387.39 465.42C387.495 465.315 387.638 465.256 387.787 465.256H527.555C527.703 465.256 527.846 465.315 527.951 465.42C528.056 465.525 528.115 465.668 528.115 465.817C528.115 465.965 528.056 466.108 527.951 466.213C527.846 466.318 527.703 466.377 527.555 466.377Z" fill="#141414"/>
<path d="M124.365 237.453C124.365 237.453 62.857 213.662 23.9846 250.96C-14.8878 288.257 -17.3165 450.373 113.437 465.799H307.809L124.365 237.453Z" fill="#141414"/>
<path d="M307.817 466.377H113.379C85.8804 463.13 62.6227 453.217 44.2479 436.914C28.2433 422.711 16.2933 404.086 8.73445 381.553C0.72449 357.676 -1.81128 330.378 1.59863 304.692C4.78426 280.657 12.8121 260.929 23.6025 250.564C43.83 231.152 70.2198 228.484 88.7933 229.667C108.883 230.941 124.419 236.876 124.574 236.935C124.667 236.97 124.748 237.03 124.809 237.108L308.258 465.47C308.324 465.552 308.366 465.652 308.378 465.757C308.391 465.861 308.373 465.968 308.327 466.063C308.282 466.159 308.21 466.239 308.121 466.296C308.032 466.352 307.928 466.382 307.822 466.382L307.817 466.377ZM113.478 465.256H306.655L124.034 237.929C122.449 237.338 107.609 231.978 88.6939 230.793C70.3446 229.633 44.3065 232.266 24.3797 251.387C3.58391 271.345 -7.51739 329.571 9.80482 381.208C25.9726 429.424 62.7832 459.264 113.478 465.256Z" fill="#141414"/>
<path d="M58.8586 337.753C58.7321 337.754 58.6091 337.712 58.5095 337.634C48.7053 329.808 41.611 319.096 38.231 307.016C38.2112 306.945 38.2057 306.871 38.2146 306.798C38.2235 306.725 38.2467 306.654 38.2829 306.59C38.3191 306.526 38.3676 306.469 38.4256 306.424C38.4836 306.378 38.55 306.345 38.6209 306.325C38.6919 306.305 38.766 306.3 38.8391 306.309C38.9122 306.318 38.9829 306.341 39.047 306.377C39.1111 306.413 39.1675 306.462 39.2129 306.52C39.2583 306.578 39.2918 306.644 39.3116 306.715C42.6296 318.569 49.593 329.078 59.2154 336.754C59.3316 336.847 59.4063 336.982 59.423 337.13C59.4397 337.277 59.3971 337.426 59.3046 337.542C59.2517 337.609 59.1839 337.663 59.1065 337.7C59.0291 337.737 58.9443 337.755 58.8586 337.753Z" fill="#141414"/>
<path d="M82.0166 351.024C82.0166 351.024 97.0171 306.647 159.953 306.171C199.913 305.857 249.538 306.441 280.438 306.905C289.245 307.037 297.839 309.623 305.257 314.37C312.675 319.118 318.622 325.84 322.43 333.781L375.888 445.225L394.275 459.655C396.849 461.676 395.422 465.809 392.15 465.809H285.268C281.743 465.807 278.279 464.896 275.209 463.164C260.603 454.935 215.459 427.605 173.778 382.57C144.985 363.576 115.349 364.919 82.0166 351.024Z" fill="white"/>
<path d="M392.15 466.377H285.268C281.647 466.373 278.088 465.437 274.934 463.66C269.393 460.538 248.771 448.14 235.157 438.715C235.091 438.676 235.034 438.623 234.99 438.561C234.945 438.499 234.914 438.428 234.898 438.353C234.882 438.278 234.881 438.201 234.896 438.125C234.911 438.05 234.941 437.979 234.985 437.916C235.029 437.853 235.085 437.8 235.15 437.759C235.215 437.719 235.287 437.692 235.363 437.681C235.439 437.669 235.516 437.674 235.59 437.693C235.664 437.713 235.734 437.748 235.794 437.796C249.38 447.197 269.944 459.57 275.484 462.684C278.471 464.366 281.84 465.252 285.268 465.256H392.142C392.742 465.256 393.327 465.069 393.816 464.721C394.305 464.373 394.673 463.882 394.87 463.315C395.066 462.748 395.08 462.133 394.911 461.558C394.742 460.982 394.398 460.473 393.926 460.103L375.539 445.673C375.472 445.619 375.418 445.551 375.381 445.474L370.758 435.836C370.726 435.769 370.708 435.696 370.704 435.622C370.7 435.548 370.711 435.474 370.736 435.404C370.761 435.335 370.799 435.27 370.849 435.215C370.898 435.16 370.958 435.116 371.025 435.084C371.092 435.052 371.165 435.034 371.239 435.03C371.313 435.026 371.387 435.037 371.457 435.062C371.526 435.087 371.591 435.125 371.646 435.175C371.701 435.225 371.745 435.285 371.777 435.351L376.344 444.873L394.63 459.221C395.284 459.735 395.763 460.441 395.998 461.24C396.233 462.039 396.213 462.892 395.941 463.679C395.669 464.466 395.158 465.149 394.48 465.633C393.802 466.116 392.99 466.376 392.157 466.377H392.15Z" fill="#141414"/>
<path d="M78.5483 347.897C78.5483 347.897 97.0174 306.647 159.953 306.158C199.913 305.844 249.538 306.428 280.439 306.892C289.245 307.025 297.839 309.61 305.257 314.358C312.675 319.106 318.622 325.828 322.43 333.768L374.907 435.91L233.411 440.072C211.774 423.716 205.561 416.908 173.791 382.578C144.993 363.576 111.009 363.094 77.6768 349.192L78.5483 347.897Z" fill="url(#paint3_linear_77_495)"/>
<path d="M354.779 466.377H349.407C349.258 466.377 349.115 466.318 349.01 466.213C348.905 466.108 348.846 465.965 348.846 465.817C348.846 465.668 348.905 465.525 349.01 465.42C349.115 465.315 349.258 465.256 349.407 465.256H354.779C355.645 465.256 356.488 464.971 357.177 464.445C357.866 463.919 358.363 463.182 358.592 462.346C358.821 461.51 358.769 460.622 358.445 459.819C358.12 459.015 357.54 458.341 356.795 457.899L342.268 449.302C342.23 449.28 342.195 449.254 342.164 449.223L227.012 338.149C211.729 323.363 191.374 314.976 170.111 314.703L159.933 314.56C159.791 314.549 159.658 314.483 159.563 314.378C159.467 314.273 159.415 314.135 159.418 313.992C159.42 313.85 159.476 313.714 159.575 313.612C159.674 313.509 159.808 313.448 159.95 313.441L170.127 313.584C191.673 313.856 212.301 322.352 227.789 337.334L342.895 448.359L357.355 456.922C358.313 457.489 359.057 458.355 359.475 459.387C359.892 460.418 359.959 461.558 359.665 462.632C359.371 463.705 358.733 464.652 357.848 465.327C356.963 466.002 355.881 466.367 354.769 466.367L354.779 466.377Z" fill="#141414"/>
<path d="M265.609 373.9C265.491 373.9 265.377 373.863 265.282 373.794C265.187 373.725 265.116 373.629 265.079 373.517L253.157 337.813C253.11 337.671 253.121 337.517 253.187 337.384C253.254 337.251 253.371 337.15 253.512 337.103C253.653 337.056 253.808 337.067 253.941 337.134C254.074 337.2 254.175 337.317 254.222 337.458L266.154 373.16C266.178 373.23 266.187 373.304 266.182 373.377C266.177 373.451 266.157 373.523 266.124 373.588C266.091 373.654 266.046 373.713 265.99 373.761C265.934 373.809 265.87 373.846 265.8 373.869C265.738 373.891 265.674 373.901 265.609 373.9Z" fill="#141414"/>
<path d="M171.605 380.897C171.464 380.898 171.328 380.845 171.225 380.75C163.173 373.353 155.858 365.192 149.384 356.381C149.307 356.261 149.278 356.116 149.304 355.975C149.329 355.834 149.408 355.709 149.523 355.624C149.638 355.54 149.782 355.502 149.923 355.52C150.065 355.537 150.195 355.608 150.286 355.718C156.72 364.47 163.985 372.578 171.982 379.929C172.065 380.005 172.123 380.105 172.149 380.215C172.174 380.324 172.166 380.439 172.125 380.544C172.085 380.649 172.013 380.74 171.92 380.804C171.827 380.868 171.717 380.902 171.605 380.902V380.897Z" fill="#141414"/>
<path d="M258.195 453.444C258.122 453.445 258.048 453.432 257.98 453.406C257.911 453.379 257.848 453.339 257.795 453.288C257.742 453.238 257.699 453.177 257.669 453.109C257.64 453.042 257.623 452.969 257.622 452.896C257.62 452.822 257.633 452.749 257.66 452.68C257.686 452.612 257.726 452.549 257.777 452.496C257.828 452.442 257.889 452.4 257.956 452.37C258.023 452.34 258.096 452.324 258.17 452.322L342.525 448.26C342.599 448.255 342.673 448.265 342.743 448.29C342.813 448.314 342.877 448.352 342.931 448.402C342.986 448.452 343.03 448.512 343.061 448.579C343.092 448.646 343.109 448.719 343.111 448.793C343.115 448.866 343.104 448.94 343.08 449.009C343.055 449.078 343.017 449.142 342.967 449.197C342.918 449.251 342.858 449.295 342.791 449.326C342.725 449.358 342.652 449.376 342.579 449.379L258.223 453.444H258.195Z" fill="#141414"/>
<path d="M375.888 445.793H340.262C340.114 445.793 339.971 445.734 339.866 445.629C339.761 445.524 339.702 445.381 339.702 445.233C339.702 445.084 339.761 444.941 339.866 444.836C339.971 444.731 340.114 444.672 340.262 444.672H375.888C376.037 444.672 376.179 444.731 376.284 444.836C376.39 444.941 376.449 445.084 376.449 445.233C376.449 445.381 376.39 445.524 376.284 445.629C376.179 445.734 376.037 445.793 375.888 445.793Z" fill="#141414"/>
<path d="M66.731 339.818L96.1994 209.317C96.1994 209.317 150.636 208.208 169.762 212.531C169.762 212.531 171.885 292.044 172.866 311.102L66.731 339.818Z" fill="white"/>
<path d="M66.7307 340.378C66.6466 340.378 66.5638 340.358 66.4882 340.322C66.4127 340.285 66.3462 340.232 66.2937 340.166C66.2413 340.1 66.2041 340.024 66.1849 339.942C66.1657 339.86 66.165 339.775 66.1828 339.693L95.6588 209.191C95.6862 209.069 95.7539 208.96 95.851 208.881C95.948 208.802 96.0688 208.758 96.194 208.756C96.7394 208.756 150.916 207.696 169.889 211.985C170.011 212.012 170.119 212.079 170.198 212.175C170.277 212.271 170.322 212.39 170.325 212.515C170.348 213.279 172.461 288.878 173.432 307.722C173.433 307.866 173.379 308.006 173.28 308.111C173.181 308.217 173.045 308.28 172.9 308.287C172.756 308.295 172.614 308.246 172.505 308.152C172.395 308.058 172.327 307.924 172.313 307.781C171.378 289.686 169.392 219.227 169.219 212.976C150.936 209.026 101.829 209.767 96.6553 209.859L67.4825 339.033L80.8265 335.422C80.9701 335.383 81.1233 335.403 81.2523 335.477C81.3814 335.551 81.4757 335.673 81.5146 335.817C81.5534 335.96 81.5337 336.113 81.4596 336.243C81.3855 336.372 81.2632 336.466 81.1196 336.505L66.8759 340.358C66.8286 340.371 66.7798 340.378 66.7307 340.378Z" fill="#141414"/>
<path d="M205.056 307.753C205.056 307.753 189.046 211.605 169.762 212.53L172.879 307.753H205.056Z" fill="white"/>
<path d="M205.056 308.313H172.879C172.734 308.313 172.594 308.256 172.489 308.155C172.385 308.053 172.324 307.916 172.318 307.77L169.201 212.545C169.197 212.398 169.25 212.255 169.349 212.147C169.449 212.039 169.587 211.974 169.734 211.967H170.03C189.449 211.967 204.944 303.736 205.609 307.663C205.623 307.743 205.619 307.826 205.597 307.904C205.576 307.982 205.537 308.055 205.485 308.117C205.432 308.179 205.366 308.228 205.292 308.262C205.218 308.296 205.138 308.313 205.056 308.313ZM173.409 307.192H204.394C203.703 303.18 199.847 281.381 194.098 259.932C185.986 229.676 177.787 213.519 170.341 213.093L173.409 307.192Z" fill="#141414"/>
<path d="M284.022 311.101H136.463V306.657C136.463 305.727 136.646 304.807 137.001 303.948C137.357 303.089 137.878 302.308 138.535 301.651C139.193 300.993 139.973 300.472 140.832 300.116C141.69 299.76 142.611 299.577 143.541 299.577H294.4L293.186 304.078C292.645 306.094 291.453 307.875 289.796 309.145C288.139 310.415 286.11 311.102 284.022 311.101Z" fill="#141414"/>
<path d="M288.229 305.884H199.205C198.317 305.883 197.442 305.679 196.644 305.29C195.847 304.9 195.148 304.334 194.601 303.636C194.054 302.937 193.673 302.123 193.486 301.255C193.3 300.387 193.313 299.488 193.524 298.626L210.344 230.749C210.66 229.481 211.391 228.355 212.42 227.55C213.449 226.745 214.718 226.306 216.025 226.305H305.05C305.937 226.306 306.813 226.51 307.611 226.9C308.409 227.289 309.107 227.855 309.655 228.554C310.202 229.254 310.583 230.068 310.769 230.936C310.955 231.804 310.942 232.703 310.73 233.565L293.91 301.44C293.597 302.709 292.867 303.837 291.837 304.643C290.807 305.448 289.537 305.886 288.229 305.884Z" fill="#141414"/>
<path d="M258.009 255.437C259.632 255.437 260.948 254.122 260.948 252.499C260.948 250.876 259.632 249.561 258.009 249.561C256.386 249.561 255.071 250.876 255.071 252.499C255.071 254.122 256.386 255.437 258.009 255.437Z" fill="white"/>
<path d="M166.479 299.577C166.479 299.577 150.235 271.75 128.045 279.984C105.855 288.218 74.2232 307.997 74.2232 307.997C74.2232 307.997 103.429 228.667 96.199 209.316C96.199 209.316 57.9459 220.8 40.2516 277.986C22.5573 335.172 48.9522 354.599 67.6736 354.936C86.3949 355.272 133.344 305.864 140.744 305.885L166.479 299.577Z" fill="white"/>
<path d="M67.8626 355.499H67.6638C57.801 355.323 48.2722 350.183 42.1787 341.755C35.0734 331.933 28.8806 312.87 39.7245 277.823C48.8991 248.153 63.7059 230.971 74.5065 221.781C86.2297 211.801 95.9497 208.809 96.0465 208.784C96.1828 208.742 96.3297 208.755 96.4571 208.818C96.5845 208.882 96.6829 208.992 96.7321 209.125C103.483 227.197 79.4302 295.28 75.3093 306.677C81.6449 302.798 108.488 286.651 127.86 279.462C137.136 276.021 146.854 278.376 155.959 286.274C160.243 290.059 163.952 294.448 166.972 299.302C167.016 299.377 167.042 299.461 167.047 299.549C167.053 299.636 167.038 299.723 167.004 299.803C166.97 299.883 166.917 299.955 166.85 300.011C166.784 300.067 166.705 300.107 166.62 300.127L140.88 306.435C140.834 306.435 140.793 306.422 140.745 306.45C138.105 306.45 129.22 313.907 118.935 322.539C116.954 324.203 114.905 325.923 112.818 327.667C112.762 327.718 112.696 327.757 112.625 327.782C112.553 327.806 112.477 327.817 112.402 327.811C112.326 327.806 112.253 327.786 112.185 327.751C112.118 327.717 112.058 327.669 112.01 327.611C111.961 327.552 111.925 327.485 111.903 327.412C111.882 327.34 111.875 327.263 111.884 327.188C111.892 327.113 111.916 327.04 111.954 326.974C111.991 326.908 112.042 326.851 112.102 326.805C114.194 325.062 116.243 323.344 118.219 321.683C130.564 311.32 137.732 305.421 140.684 305.329L165.606 299.212C162.991 295.135 147.865 273.23 128.252 280.504C106.363 288.629 74.8353 308.272 74.5218 308.471C74.4224 308.533 74.3063 308.562 74.1897 308.554C74.0731 308.547 73.9617 308.503 73.871 308.429C73.7802 308.356 73.7147 308.256 73.6833 308.143C73.652 308.03 73.6565 307.911 73.6961 307.801C73.9866 307.019 102.239 229.817 95.8528 210.022C93.7274 210.787 85.2128 214.12 75.1717 222.676C64.5036 231.769 49.8777 248.775 40.7872 278.152C30.0835 312.758 36.1234 331.479 43.0809 341.1C48.9756 349.255 58.1731 354.212 67.6842 354.383C69.2438 354.411 71.0813 354.072 73.1584 353.363C73.2279 353.339 73.3016 353.329 73.375 353.334C73.4485 353.339 73.5202 353.358 73.5861 353.391C73.652 353.424 73.7108 353.469 73.759 353.525C73.8072 353.58 73.8438 353.645 73.8668 353.715C73.8905 353.785 73.9001 353.858 73.8952 353.932C73.8903 354.005 73.871 354.077 73.8383 354.143C73.8057 354.209 73.7603 354.268 73.7049 354.317C73.6494 354.365 73.5849 354.402 73.5151 354.426C71.3999 355.139 69.4987 355.499 67.8626 355.499Z" fill="#141414"/>
<path d="M73.3367 354.462C73.2045 354.461 73.0768 354.413 72.9763 354.327C72.8758 354.241 72.809 354.123 72.7876 353.992C72.7663 353.861 72.7918 353.728 72.8596 353.614C72.9275 353.5 73.0333 353.414 73.1584 353.371C75.6304 352.543 78.5102 351.182 81.7366 349.327C81.8648 349.262 82.0132 349.248 82.1511 349.289C82.289 349.33 82.4059 349.422 82.4776 349.547C82.5493 349.672 82.5703 349.819 82.5363 349.959C82.5023 350.099 82.4158 350.22 82.2948 350.298C79.0097 352.191 76.056 353.583 73.5151 354.434C73.4574 354.452 73.3973 354.462 73.3367 354.462Z" fill="#141414"/>
<path d="M146.532 302.449C146.416 302.449 146.302 302.412 146.207 302.345C146.112 302.277 146.041 302.182 146.002 302.072C145.267 300.004 144.12 298.106 142.63 296.493C141.141 294.88 139.34 293.586 137.337 292.688C137.218 292.619 137.128 292.508 137.085 292.377C137.042 292.245 137.05 292.103 137.106 291.976C137.161 291.85 137.262 291.749 137.388 291.692C137.514 291.635 137.657 291.627 137.788 291.669C139.933 292.629 141.86 294.013 143.454 295.739C145.048 297.465 146.276 299.496 147.062 301.71C147.087 301.78 147.097 301.853 147.093 301.927C147.089 302 147.071 302.072 147.039 302.139C147.007 302.205 146.962 302.264 146.907 302.313C146.852 302.362 146.788 302.4 146.718 302.424C146.658 302.442 146.595 302.451 146.532 302.449Z" fill="#141414"/>
<path d="M154.619 300.826C154.498 300.826 154.381 300.787 154.285 300.715C154.189 300.643 154.118 300.541 154.084 300.426C153.311 297.903 152.023 295.568 150.301 293.569C148.579 291.57 146.461 289.95 144.081 288.813C143.946 288.749 143.841 288.635 143.79 288.495C143.739 288.355 143.746 288.2 143.809 288.065C143.872 287.929 143.987 287.825 144.127 287.774C144.267 287.723 144.422 287.73 144.557 287.793C147.08 288.999 149.324 290.715 151.148 292.834C152.972 294.952 154.336 297.427 155.154 300.1C155.175 300.171 155.182 300.245 155.175 300.318C155.167 300.391 155.145 300.462 155.11 300.527C155.075 300.592 155.028 300.649 154.97 300.696C154.913 300.742 154.847 300.777 154.777 300.798C154.726 300.815 154.673 300.824 154.619 300.826Z" fill="#141414"/>
<path d="M136.46 311.101V306.657C136.46 305.727 136.643 304.807 136.998 303.948C137.354 303.089 137.875 302.308 138.532 301.651C139.19 300.993 139.97 300.472 140.829 300.116C141.688 299.76 142.608 299.577 143.538 299.577H172.879L136.46 311.101Z" fill="#141414"/>
<path d="M152.277 177.188C152.277 177.188 183.674 168.65 174.449 143.038C167.682 124.235 134.86 112.988 115.068 138.942C115.068 138.942 84.6952 137.923 101.418 173.431C101.418 173.431 109.194 189.033 124.511 190.091C132.151 190.629 152.277 177.188 152.277 177.188Z" fill="#141414"/>
<path d="M145.069 136.383C154.362 125.978 155.31 111.66 147.186 104.404C139.062 97.1482 124.943 99.701 115.649 110.106C106.356 120.511 105.408 134.828 113.532 142.085C121.656 149.341 135.775 146.788 145.069 136.383Z" fill="#141414"/>
<path d="M130.222 122.649C137.856 110.97 136.653 96.671 127.535 90.7113C118.418 84.7517 104.838 89.3881 97.2041 101.067C89.5703 112.746 90.7732 127.045 99.8909 133.005C109.009 138.964 122.588 134.328 130.222 122.649Z" fill="#141414"/>
<path d="M121.215 143.635C131.867 134.627 134.799 120.582 127.765 112.263C120.73 103.945 106.393 104.504 95.7411 113.511C85.0894 122.519 82.1572 136.565 89.1918 144.883C96.2264 153.201 110.564 152.643 121.215 143.635Z" fill="#141414"/>
<path d="M108.542 128.597C119.193 119.589 122.125 105.544 115.091 97.2252C108.056 88.9068 93.7189 89.4656 83.0672 98.4733C72.4156 107.481 69.4834 121.527 76.518 129.845C83.5525 138.163 97.89 137.605 108.542 128.597Z" fill="#141414"/>
<path d="M130.283 177.078L117.49 209.505C117.49 209.505 124.661 218.965 140.745 221.121C156.829 223.278 143.146 209.819 143.146 209.819L150.913 187.586L130.283 177.078Z" fill="white"/>
<path d="M143.859 221.917C142.792 221.906 141.727 221.826 140.671 221.677C124.541 219.516 117.339 210.237 117.041 209.844C116.983 209.767 116.946 209.677 116.933 209.581C116.92 209.486 116.932 209.389 116.967 209.299L129.761 176.867C129.79 176.794 129.834 176.729 129.889 176.674C129.945 176.619 130.012 176.576 130.085 176.549C130.158 176.521 130.236 176.509 130.314 176.512C130.392 176.516 130.468 176.536 130.538 176.571L151.168 187.079C151.289 187.14 151.383 187.244 151.434 187.37C151.484 187.496 151.488 187.636 151.443 187.764L143.798 209.663C145.169 211.057 150.424 216.705 148.849 219.908C148.189 221.254 146.548 221.917 143.859 221.917ZM118.119 209.406C119.365 210.874 126.585 218.66 140.801 220.566C144.764 221.096 147.19 220.701 147.814 219.422C148.956 217.092 144.532 211.99 142.717 210.219C142.642 210.144 142.59 210.05 142.566 209.947C142.542 209.843 142.548 209.736 142.582 209.635L150.19 187.864L130.574 177.858L118.119 209.406Z" fill="#141414"/>
<path d="M166.91 174.466C166.439 179.392 165.06 184.331 162.203 188.373C159.346 192.415 154.876 195.471 149.942 195.909C145.668 196.289 141.354 194.681 137.997 192.007C134.641 189.334 132.177 185.664 130.428 181.745C125.951 182.035 121.473 178.941 120.16 174.65C119.396 172.172 119.717 169.257 121.455 167.335C123.193 165.414 126.476 164.907 128.428 166.612C129.539 167.583 130.1 169.079 131.249 170.001C132.523 171.02 134.376 171.161 135.941 170.651C137.506 170.141 138.828 169.073 139.975 167.896C143.612 164.132 145.765 159.18 146.038 153.953C146.015 154.442 148.255 155.826 148.648 156.096C149.636 156.78 150.681 157.377 151.772 157.88C153.927 158.869 156.229 159.499 158.587 159.746C159.78 159.873 160.982 159.899 162.18 159.822C163.131 159.761 164.474 159.262 165.407 159.514C167.338 160.039 166.915 163.709 166.994 165.197C167.195 168.285 167.167 171.383 166.91 174.466Z" fill="white"/>
<path d="M148.711 196.523C144.916 196.523 140.951 195.073 137.651 192.446C134.592 190.007 132.044 186.599 130.077 182.32C125.489 182.405 120.966 179.193 119.628 174.813C118.741 171.915 119.284 168.905 121.045 166.961C123.083 164.715 126.7 164.353 128.8 166.196C129.352 166.715 129.836 167.301 130.24 167.942C130.615 168.548 131.075 169.097 131.606 169.573C132.651 170.411 134.246 170.623 135.772 170.126C137.031 169.716 138.242 168.885 139.577 167.514C143.116 163.844 145.211 159.021 145.48 153.93C145.486 153.791 145.543 153.66 145.641 153.561C145.739 153.462 145.869 153.403 146.008 153.395C146.146 153.388 146.283 153.431 146.391 153.518C146.499 153.605 146.571 153.729 146.593 153.866C146.716 154.05 147.187 154.473 148.696 155.459L148.969 155.638C149.93 156.299 150.948 156.877 152.009 157.363C154.104 158.326 156.342 158.941 158.635 159.183C159.797 159.305 160.968 159.33 162.134 159.256C162.484 159.221 162.831 159.166 163.174 159.091C163.939 158.938 164.818 158.767 165.544 158.966C167.552 159.511 167.542 162.361 167.532 164.244C167.532 164.596 167.532 164.909 167.532 165.159C167.737 168.278 167.708 171.408 167.445 174.522C166.902 180.185 165.287 184.956 162.639 188.702C159.499 193.141 154.764 196.047 149.973 196.472C149.57 196.505 149.142 196.523 148.711 196.523ZM130.431 181.184C130.539 181.184 130.644 181.216 130.734 181.274C130.825 181.333 130.896 181.417 130.94 181.515C132.849 185.794 135.339 189.176 138.346 191.569C141.797 194.316 146.007 195.695 149.894 195.351C154.361 194.953 158.791 192.224 161.742 188.05C164.29 184.464 165.819 179.876 166.349 174.412C166.606 171.353 166.635 168.279 166.434 165.215C166.418 164.96 166.421 164.611 166.421 164.234C166.421 162.786 166.439 160.363 165.261 160.041C164.787 159.914 164.051 160.057 163.401 160.184C163.01 160.271 162.614 160.333 162.216 160.37C158.547 160.596 154.88 159.911 151.54 158.377C150.42 157.864 149.347 157.255 148.332 156.558L148.077 156.392C147.399 155.948 146.879 155.589 146.489 155.286C145.935 160.173 143.785 164.742 140.373 168.283C138.905 169.792 137.549 170.712 136.109 171.183C134.228 171.793 132.23 171.507 130.895 170.437C130.278 169.896 129.743 169.267 129.309 168.571C128.955 168.008 128.533 167.49 128.053 167.029C126.425 165.607 123.466 165.931 121.865 167.71C120.39 169.338 119.928 171.996 120.69 174.484C121.924 178.513 126.188 181.472 130.375 181.181L130.431 181.184Z" fill="#141414"/>
<path d="M130.283 177.631C130.15 177.632 130.021 177.585 129.92 177.499C129.819 177.413 129.751 177.293 129.73 177.162C129.54 176.105 129.048 175.124 128.313 174.341C127.578 173.557 126.632 173.003 125.589 172.746C125.444 172.712 125.318 172.622 125.239 172.495C125.161 172.369 125.136 172.217 125.169 172.072C125.203 171.927 125.293 171.801 125.42 171.722C125.546 171.644 125.699 171.619 125.844 171.652C127.102 171.964 128.242 172.635 129.127 173.582C130.012 174.529 130.603 175.713 130.828 176.989C130.84 177.062 130.838 177.136 130.821 177.208C130.804 177.279 130.773 177.347 130.73 177.407C130.687 177.466 130.633 177.517 130.57 177.555C130.507 177.594 130.437 177.62 130.365 177.631H130.283Z" fill="#141414"/>
<defs>
<linearGradient id="paint0_linear_77_495" x1="497.711" y1="216.693" x2="497.711" y2="170.324" gradientUnits="userSpaceOnUse">
<stop stop-color="#DC1D47"/>
<stop offset="1" stop-color="#E54327"/>
</linearGradient>
<linearGradient id="paint1_linear_77_495" x1="561.544" y1="280.253" x2="561.544" y2="233.885" gradientUnits="userSpaceOnUse">
<stop stop-color="#DC1D47"/>
<stop offset="1" stop-color="#E54327"/>
</linearGradient>
<linearGradient id="paint2_linear_77_495" x1="591.071" y1="147.69" x2="591.071" y2="61.4062" gradientUnits="userSpaceOnUse">
<stop stop-color="#DC1D47"/>
<stop offset="1" stop-color="#E54327"/>
</linearGradient>
<linearGradient id="paint3_linear_77_495" x1="226.299" y1="440.074" x2="226.299" y2="306.069" gradientUnits="userSpaceOnUse">
<stop stop-color="#DC1D47"/>
<stop offset="1" stop-color="#E54327"/>
</linearGradient>
</defs>
</svg>
