<svg width="64" height="64" viewBox="0 0 64 64" fill="none" xmlns="http://www.w3.org/2000/svg">
<g clip-path="url(#clip0_54_741)">
<path d="M64 18.8301V38.8501C64 42.1701 61.33 44.8601 58.03 44.8601H39.34L41.9 51.1801L30.62 44.8601H5.96001C2.66001 44.8601 6.21719e-06 42.1701 6.21719e-06 38.8501V18.8201C-0.0299938 15.5301 2.64001 12.8201 5.93001 12.8201H58.03C61.33 12.8201 64 15.5101 64 18.8301Z" fill="#7F54B3"/>
<path d="M29.21 16.91C28.71 16.52 28.17 16.34 27.57 16.39C26.81 16.44 26.24 16.81 25.85 17.54C24.24 20.5 23.1 25.3 22.42 31.95C21.43 29.43 20.6 26.47 19.95 22.99C19.67 21.44 18.96 20.71 17.82 20.79C17.04 20.84 16.39 21.36 15.87 22.36L10.17 33.28C9.23 29.48 8.35 24.84 7.54 19.37C7.36 18 6.61 17.38 5.28 17.48C4.55 17.53 4 17.79 3.64 18.29C3.27 18.76 3.12 19.36 3.22 20.04C4.76 29.87 6.19 36.49 7.51 39.93C8.03 41.19 8.63 41.79 9.33 41.74C10.42 41.66 11.73 40.14 13.26 37.18C14.07 35.51 15.32 32.99 17.01 29.64C18.42 34.59 20.34 38.31 22.76 40.8C23.44 41.51 24.14 41.82 24.82 41.77C25.42 41.72 25.89 41.41 26.2 40.83C26.46 40.33 26.56 39.75 26.51 39.1C26.36 36.72 26.59 33.39 27.24 29.12C27.91 24.72 28.75 21.55 29.76 19.66C29.97 19.26 30.05 18.87 30.02 18.4C29.96 17.8 29.7 17.3 29.21 16.91Z" fill="white"/>
<path d="M43.22 22.3499C42.28 20.6999 40.88 19.6999 39.06 19.3099C38.57 19.2099 38.1 19.1499 37.66 19.1499C35.16 19.1499 33.13 20.4599 31.55 23.0799C30.2 25.3099 29.52 27.7699 29.52 30.4699C29.52 32.4899 29.94 34.2199 30.77 35.6599C31.71 37.3099 33.09 38.3099 34.93 38.6999C35.42 38.8099 35.89 38.8599 36.33 38.8599C38.85 38.8599 40.88 37.5499 42.44 34.9299C43.79 32.6799 44.47 30.2199 44.47 27.5199C44.46 25.4699 44.05 23.7699 43.22 22.3499ZM39.91 29.6099C39.55 31.3399 38.9 32.6199 37.93 33.4899C37.18 34.1699 36.47 34.4599 35.82 34.3299C35.2 34.1999 34.68 33.6499 34.29 32.6299C33.98 31.8199 33.82 31.0099 33.82 30.2499C33.82 29.5999 33.87 28.9399 34 28.3399C34.23 27.2699 34.68 26.2199 35.38 25.2199C36.24 23.9399 37.15 23.4099 38.09 23.5999C38.71 23.7299 39.23 24.2799 39.62 25.2999C39.93 26.1099 40.09 26.9199 40.09 27.6799C40.12 28.3499 40.04 28.9999 39.91 29.6099Z" fill="white"/>
<path d="M59.53 22.42C58.59 20.77 57.19 19.77 55.37 19.38C54.88 19.28 54.41 19.22 53.97 19.22C51.47 19.22 49.44 20.53 47.86 23.15C46.51 25.38 45.83 27.84 45.83 30.54C45.83 32.56 46.25 34.29 47.08 35.73C48.02 37.38 49.4 38.38 51.24 38.77C51.73 38.88 52.2 38.93 52.64 38.93C55.16 38.93 57.19 37.62 58.75 35C60.1 32.75 60.78 30.29 60.78 27.59C60.77 25.54 60.36 23.84 59.53 22.42ZM56.22 29.68C55.86 31.41 55.21 32.69 54.24 33.56C53.49 34.24 52.78 34.53 52.13 34.4C51.51 34.27 50.99 33.72 50.6 32.7C50.29 31.89 50.13 31.08 50.13 30.32C50.13 29.67 50.18 29.01 50.31 28.41C50.54 27.34 50.99 26.29 51.69 25.29C52.55 24.01 53.46 23.48 54.4 23.67C55.02 23.8 55.54 24.35 55.93 25.37C56.24 26.18 56.4 26.99 56.4 27.75C56.43 28.42 56.35 29.07 56.22 29.68Z" fill="white"/>
</g>
<defs>
<clipPath id="clip0_54_741">
<rect width="64" height="64" fill="white"/>
</clipPath>
</defs>
</svg>
