<svg width="64" height="64" viewBox="0 0 64 64" fill="none" xmlns="http://www.w3.org/2000/svg">
<g clip-path="url(#clip0_54_746)">
<path d="M6.95999 20.8701L19.92 56.7001C10.78 52.2901 4.51999 42.9001 4.51999 32.0001C4.51999 28.0601 5.44999 24.3501 6.95999 20.8701Z" fill="#05769C"/>
<path d="M40.93 57.6199C41.04 57.7399 41.04 57.8499 41.16 57.9699C38.26 58.8799 35.25 59.4799 32 59.4799C29.33 59.4799 26.66 59.0199 24.23 58.3199L32.46 34.4299L40.93 57.6199Z" fill="#05769C"/>
<path d="M48.48 39.54L45.68 48.7L35.71 19.13C37.33 19.13 38.84 18.9 38.84 18.9C40.23 18.67 40.12 16.46 38.61 16.58C38.61 16.58 34.21 16.93 31.31 16.93C28.64 16.93 24.12 16.58 24.12 16.58C22.72 16.58 22.49 18.78 24 18.9L26.9 19.13L31.18 30.83L25.15 48.8L15.18 19.12C16.8 19.12 18.31 18.89 18.31 18.89C19.7 18.66 19.59 16.45 18.08 16.57C18.08 16.57 13.68 16.92 10.78 16.92H9.04001C11.57 13.14 14.98 10.03 18.98 7.87002C22.98 5.71002 27.45 4.56002 32 4.52002C39.19 4.52002 45.68 7.19002 50.55 11.71H50.2C47.53 11.71 45.56 14.03 45.56 16.58C45.56 18.9 46.84 20.75 48.23 23.07C49.27 24.81 50.55 27.25 50.55 30.61H50.57C50.57 33.05 49.64 35.71 48.48 39.54Z" fill="#05769C"/>
<path d="M32 0C14.38 0 0 14.38 0 32C0 49.62 14.38 64 32 64C49.62 64 64 49.62 64 32C64 14.38 49.62 0 32 0ZM32 62.61C15.19 62.61 1.51 48.93 1.51 32C1.52 23.92 4.74 16.17 10.45 10.45C16.17 4.74 23.92 1.52 32 1.51C40.08 1.52 47.83 4.74 53.55 10.45C59.27 16.17 62.48 23.91 62.49 32C62.49 48.93 48.81 62.61 32 62.61Z" fill="#05769C"/>
<path d="M56.12 18.8999V18.9499C56.12 18.9399 56.12 18.9299 56.11 18.9199L56.12 18.8999Z" fill="#05769C"/>
<path d="M59.59 32.02C59.59 42.22 54.03 51.04 45.91 55.79L54.26 31.5599C55.89 27.61 56.35 24.5 56.35 21.7L56.12 18.95C58.21 22.88 59.47 27.28 59.59 32.02Z" fill="#05769C"/>
</g>
<defs>
<clipPath id="clip0_54_746">
<rect width="64" height="64" fill="white"/>
</clipPath>
</defs>
</svg>
