<svg version="1.1" id="Layer_1" xmlns="http://www.w3.org/2000/svg" xmlns:xlink="http://www.w3.org/1999/xlink" x="0px" y="0px"
	 viewBox="0 0 600 400" style="enable-background:new 0 0 600 400;" xml:space="preserve">
<style type="text/css">
	.st0{fill:#141414;}
	.st1{fill:url(#SVGID_1_);}
	.st2{fill:#FFFFFF;}
	.st3{fill-rule:evenodd;clip-rule:evenodd;fill:none;stroke:#141414;stroke-miterlimit:10;}
	.st4{fill-rule:evenodd;clip-rule:evenodd;fill:none;stroke:#141414;stroke-width:0.7;stroke-miterlimit:10;}
	.st5{opacity:0.1;fill:#141414;}
	.st6{fill:none;}
</style>
<path class="st0" d="M176.11,362.71c-21.17,0-39.88-0.01-56.04-0.02c-24.01-0.02-42.61-0.05-55.26-0.09
	c-21.11-0.07-21.16-0.12-21.37-0.33c-0.09-0.09-0.14-0.21-0.14-0.34v-70.99c0-0.27,0.21-0.48,0.48-0.48s0.48,0.21,0.48,0.48v70.55
	c5.23,0.19,59.53,0.26,130.85,0.26c146.32,0,364.4-0.27,378.09-0.29c0.26,0,0.48,0.21,0.48,0.48s-0.21,0.48-0.48,0.48
	c-14.08,0.02-141.11,0.18-264.01,0.25C246.07,362.71,208.25,362.72,176.11,362.71L176.11,362.71z"/>
<polygon class="st0" points="550.01,365.88 549.36,365.17 552.83,361.94 549.35,358.72 550.01,358.01 554.24,361.94 "/>
<path class="st0" d="M43.78,266.02c-0.27,0-0.48-0.21-0.48-0.48v-67.51c0-0.27,0.21-0.48,0.48-0.48h555.26V28.56h-70.11
	c-0.27,0-0.48-0.22-0.48-0.48c0-0.26,0.21-0.48,0.48-0.48h70.59c0.26,0,0.48,0.21,0.48,0.48v169.95c0,0.27-0.22,0.48-0.48,0.48
	H44.26v67.03C44.26,265.81,44.05,266.02,43.78,266.02z"/>
<polygon class="st0" points="39.85,262.36 40.55,261.7 43.78,265.17 47.01,261.7 47.72,262.36 43.78,266.59 "/>
<path class="st0" d="M299.07,112.38c9.34,0.59,20.51,0.3,25.6-7.54c3.49-5.38,2.6-12.64-0.24-18.39
	c-7.83-15.88-27.72-22.31-45.41-21.18c-17.68,1.13-34.42,8.05-51.74,11.81c-41.4,8.98-85.84-0.16-125.98,13.37
	c-7.84,2.64-15.75,6.41-20.55,13.13c-4.8,6.73-5.31,17.09,0.81,22.64c2.95,2.67,6.91,3.89,10.27,6.01c3.36,2.12,6.33,5.96,5.28,9.79
	c-0.93,3.37-4.48,5.23-6.53,8.07c-4.08,5.65-1.04,14.15,4.59,18.26c5.63,4.11,12.94,4.96,19.89,5.57
	c39.15,3.4,78.52,3.13,117.81,2.85c7.2-0.05,14.43-0.11,21.59-1c4.76-0.59,12.86-0.94,16.21-4.96c3.46-4.16,4.96-11.21,7.13-16.12
	c3-6.79,6.16-13.51,9.47-20.15C291.03,127.05,294.95,119.66,299.07,112.38L299.07,112.38z"/>
<linearGradient id="SVGID_1_" gradientUnits="userSpaceOnUse" x1="422.5247" y1="-55.2292" x2="422.5247" y2="89.7612" gradientTransform="matrix(1 0 0 -1 -162 233.1447)">
	<stop  offset="0" style="stop-color:#DC1D47"/>
	<stop  offset="1" style="stop-color:#E54327"/>
</linearGradient>
<path class="st1" d="M355.67,188.56c0,0-9.84-11.59-18.91-23.46c-7.51-9.82-18.66-16.17-30.94-17.64
	c-7.09-0.85-15.91-3.92-26.02-4.05c-13.68-0.18-29.55,1.49-43.47,4.05c-18.54,3.42-34.91,14.18-45.56,29.72l-25.38,37.05
	l28.78,14.02l-7.45,60.13H341.4L355.67,188.56L355.67,188.56z"/>
<path class="st2" d="M445.08,124.79c-1.74-3.19-5.04-1.62-5.04-1.62c-0.18-5.12-11.63,0.52-11.63,0.52
	c2.29-5.63-2.96-2.66-11.79,1.3c-8.84,3.96-22.45,0.45-30.57,8.17c-3.76,3.57-32.62,58.75-32.62,58.75l-18.8,33.36
	c18.9,23.01,47.09,12.69,57.37-15.25c8.56-23.27,15.95-50.9,17.47-55.43c2.34-6.96,4.68-9.86,12.26-12.56
	c7.59-2.7,20.92-6.71,21.12-9.68c0.15-2.23-2.82-1.82-2.82-1.82S446.81,127.98,445.08,124.79L445.08,124.79z"/>
<path class="st3" d="M445.08,124.79c-1.74-3.19-5.04-1.62-5.04-1.62c-0.18-5.12-11.63,0.52-11.63,0.52
	c2.29-5.63-2.96-2.66-11.79,1.3c-8.84,3.96-22.45,0.45-30.57,8.17c-3.76,3.57-32.62,58.75-32.62,58.75l-18.8,33.36
	c18.9,23.01,47.09,12.69,57.37-15.25c8.56-23.27,15.95-50.9,17.47-55.43c2.34-6.96,4.68-9.86,12.26-12.56
	c7.59-2.7,20.92-6.71,21.12-9.68c0.15-2.23-2.82-1.82-2.82-1.82S446.81,127.98,445.08,124.79L445.08,124.79z"/>
<path class="st0" d="M418.24,130.52c-0.18,0-0.35-0.1-0.44-0.28c-0.11-0.24-0.01-0.53,0.23-0.64c3.66-1.71,7.08-3.89,10.15-6.48
	c0.2-0.17,0.51-0.14,0.68,0.06c0.17,0.2,0.15,0.51-0.06,0.68c-3.14,2.65-6.63,4.87-10.37,6.62
	C418.38,130.5,418.31,130.52,418.24,130.52z"/>
<path class="st0" d="M423.74,134.21c-0.18,0-0.35-0.1-0.43-0.27c-0.12-0.24-0.02-0.53,0.22-0.64c5.04-2.44,9.98-5.22,14.68-8.27
	c0.39-0.25,0.84-0.54,1.1-0.93c0.19-0.28,0.32-0.72,0.13-1.02c-0.14-0.23-0.07-0.52,0.16-0.66c0.23-0.14,0.52-0.07,0.66,0.16
	c0.36,0.59,0.3,1.4-0.16,2.07c-0.37,0.54-0.93,0.9-1.37,1.19c-4.74,3.07-9.71,5.87-14.79,8.33
	C423.89,134.19,423.81,134.2,423.74,134.21L423.74,134.21z"/>
<path class="st0" d="M425.92,136.96c-0.2,0-0.39-0.13-0.46-0.33c-0.08-0.25,0.05-0.52,0.31-0.61c4.95-1.62,9.8-3.68,14.4-6.13
	c0.23-0.13,0.53-0.03,0.65,0.2c0.12,0.23,0.03,0.53-0.2,0.65c-4.65,2.47-9.55,4.56-14.55,6.19
	C426.02,136.96,425.97,136.96,425.92,136.96L425.92,136.96z"/>
<path class="st2" d="M202.01,227.72l-29.65-10.01c0,0-35.93,49.41-13.52,70.75s82.27-45.23,93.17-60.24c0,0,7.01,1.63,6.01-3
	c0,0,8.52,3.13,8.52-3.25c0,0,8.77,2.27,7.01-6c0,0,8.42,9.85,11.01,8.54c3.97-2.02-0.86-10.3-4.5-16.55
	c-3.63-6.26-16.26-21.73-44.08-4.75C213.31,217.04,202.01,227.72,202.01,227.72L202.01,227.72z"/>
<path class="st3" d="M202.01,227.72l-29.65-10.01c0,0-35.93,49.41-13.52,70.75s82.27-45.23,93.17-60.24c0,0,7.01,1.63,6.01-3
	c0,0,8.52,3.13,8.52-3.25c0,0,8.77,2.27,7.01-6c0,0,8.42,9.85,11.01,8.54c3.97-2.02-0.86-10.3-4.5-16.55
	c-3.63-6.26-16.26-21.73-44.08-4.75C213.31,217.04,202.01,227.72,202.01,227.72L202.01,227.72z"/>
<path class="st0" d="M251.05,228.7c-0.02,0-0.04,0-0.06,0c-3.61-0.44-7.06-1.83-9.96-4.03c-0.21-0.16-0.25-0.46-0.09-0.67
	c0.16-0.21,0.46-0.25,0.67-0.09c2.76,2.1,6.05,3.42,9.49,3.84c0.26,0.03,0.45,0.27,0.42,0.54
	C251.5,228.52,251.29,228.7,251.05,228.7L251.05,228.7z"/>
<path class="st0" d="M258.45,225.75c-0.08,0-0.17-0.02-0.24-0.07c-1.36-0.79-2.61-1.76-3.72-2.86c-0.19-0.19-0.19-0.49,0-0.68
	c0.19-0.19,0.49-0.19,0.68,0c1.06,1.05,2.24,1.96,3.53,2.71c0.23,0.13,0.31,0.43,0.17,0.66
	C258.77,225.67,258.61,225.75,258.45,225.75L258.45,225.75z"/>
<path class="st0" d="M266.83,222.26c-0.13,0-0.26-0.05-0.35-0.16l-3.07-3.34c-0.18-0.19-0.17-0.5,0.03-0.68
	c0.2-0.18,0.5-0.17,0.68,0.03l3.07,3.34c0.18,0.19,0.17,0.5-0.03,0.68C267.06,222.21,266.94,222.26,266.83,222.26z"/>
<path class="st0" d="M273.55,216.45c-0.14,0-0.27-0.06-0.37-0.17c-0.43-0.5-0.77-0.94-1.1-1.37c-0.4-0.52-0.82-1.07-1.43-1.75
	c-0.18-0.2-0.16-0.5,0.04-0.68c0.2-0.17,0.5-0.16,0.68,0.04c0.63,0.71,1.06,1.27,1.47,1.81c0.33,0.44,0.65,0.85,1.06,1.33
	c0.17,0.2,0.15,0.5-0.05,0.68C273.77,216.41,273.66,216.45,273.55,216.45L273.55,216.45z"/>
<path class="st2" d="M415.34,76.46c3.72,7,1.07,15.68-5.93,19.41c-7,3.72-15.7,1.07-19.42-5.93c-3.72-7-1.07-15.68,5.93-19.41
	C402.92,66.81,411.61,69.46,415.34,76.46z M380.92,58.81c0.15,0.28,0.32,0.54,0.5,0.8c-2.38,2.14-4.39,4.59-5.99,7.26
	c-0.28-0.13-0.58-0.24-0.88-0.33c-4.08-1.25-8.41,1.05-9.65,5.13c-1.25,4.08,1.05,8.4,5.13,9.65c0.3,0.09,0.61,0.16,0.91,0.21
	c-0.17,3.11,0.13,6.26,0.9,9.36c-0.29,0.11-0.58,0.24-0.86,0.38c-3.77,2-5.2,6.68-3.2,10.45c2.01,3.77,6.69,5.2,10.46,3.19
	c0.28-0.15,0.54-0.32,0.8-0.5c2.14,2.38,4.59,4.38,7.26,5.98c-0.12,0.28-0.24,0.57-0.33,0.88c-1.25,4.08,1.05,8.4,5.13,9.65
	c4.08,1.25,8.41-1.05,9.65-5.13c0.09-0.3,0.16-0.61,0.21-0.91c3.11,0.17,6.27-0.13,9.37-0.9c0.11,0.29,0.24,0.58,0.39,0.86
	c2.01,3.77,6.69,5.2,10.46,3.19s5.2-6.68,3.2-10.45c-0.15-0.28-0.32-0.54-0.5-0.8c2.38-2.14,4.39-4.59,5.99-7.26
	c0.28,0.13,0.58,0.24,0.88,0.33c4.08,1.25,8.41-1.05,9.65-5.13c1.25-4.08-1.05-8.4-5.13-9.65c-0.3-0.09-0.61-0.16-0.91-0.21
	c0.17-3.11-0.13-6.26-0.9-9.36c0.29-0.11,0.58-0.24,0.86-0.38c3.77-2,5.2-6.68,3.2-10.45c-2.01-3.77-6.69-5.2-10.46-3.19
	c-0.28,0.15-0.54,0.32-0.8,0.5c-2.14-2.38-4.59-4.38-7.26-5.98c0.12-0.28,0.24-0.57,0.33-0.88c1.25-4.08-1.05-8.4-5.13-9.65
	c-4.08-1.25-8.41,1.05-9.65,5.13c-0.09,0.3-0.16,0.61-0.21,0.92c-3.11-0.17-6.27,0.13-9.37,0.9c-0.11-0.29-0.24-0.58-0.39-0.86
	c-2.01-3.77-6.69-5.2-10.46-3.19C380.35,50.37,378.92,55.05,380.92,58.81L380.92,58.81z"/>
<path class="st3" d="M415.34,76.46c3.72,7,1.07,15.68-5.93,19.41c-7,3.72-15.7,1.07-19.42-5.93c-3.72-7-1.07-15.68,5.93-19.41
	C402.92,66.81,411.61,69.46,415.34,76.46z M380.92,58.81c0.15,0.28,0.32,0.54,0.5,0.8c-2.38,2.14-4.39,4.59-5.99,7.26
	c-0.28-0.13-0.58-0.24-0.88-0.33c-4.08-1.25-8.41,1.05-9.65,5.13c-1.25,4.08,1.05,8.4,5.13,9.65c0.3,0.09,0.61,0.16,0.91,0.21
	c-0.17,3.11,0.13,6.26,0.9,9.36c-0.29,0.11-0.58,0.24-0.86,0.38c-3.77,2-5.2,6.68-3.2,10.45c2.01,3.77,6.69,5.2,10.46,3.19
	c0.28-0.15,0.54-0.32,0.8-0.5c2.14,2.38,4.59,4.38,7.26,5.98c-0.12,0.28-0.24,0.57-0.33,0.88c-1.25,4.08,1.05,8.4,5.13,9.65
	c4.08,1.25,8.41-1.05,9.65-5.13c0.09-0.3,0.16-0.61,0.21-0.91c3.11,0.17,6.27-0.13,9.37-0.9c0.11,0.29,0.24,0.58,0.39,0.86
	c2.01,3.77,6.69,5.2,10.46,3.19c3.77-2,5.2-6.68,3.2-10.45c-0.15-0.28-0.32-0.54-0.5-0.8c2.38-2.14,4.39-4.59,5.99-7.26
	c0.28,0.13,0.58,0.24,0.88,0.33c4.08,1.25,8.41-1.05,9.65-5.13c1.25-4.08-1.05-8.4-5.13-9.65c-0.3-0.09-0.61-0.16-0.91-0.21
	c0.17-3.11-0.13-6.26-0.9-9.36c0.29-0.11,0.58-0.24,0.86-0.38c3.77-2,5.2-6.68,3.2-10.45c-2.01-3.77-6.69-5.2-10.46-3.19
	c-0.28,0.15-0.54,0.32-0.8,0.5c-2.14-2.38-4.59-4.38-7.26-5.98c0.12-0.28,0.24-0.57,0.33-0.88c1.25-4.08-1.05-8.4-5.13-9.65
	c-4.08-1.25-8.41,1.05-9.65,5.13c-0.09,0.3-0.16,0.61-0.21,0.92c-3.11-0.17-6.27,0.13-9.37,0.9c-0.11-0.29-0.24-0.58-0.39-0.86
	c-2.01-3.77-6.69-5.2-10.46-3.19C380.35,50.37,378.92,55.05,380.92,58.81L380.92,58.81z"/>
<path class="st2" d="M273.55,126.76l-2.83,8.3c-1.47,4.31-5.12,7.51-9.59,8.38c-8.44,1.65-24.41,2.16-29.13,5.05
	c0,0,46.59,20.89,83.69,1.42c0,0-9.88-4.73-25.02-7.11C290.67,142.81,281.9,125.55,273.55,126.76z"/>
<path class="st3" d="M273.55,126.76l-2.83,8.3c-1.47,4.31-5.12,7.51-9.59,8.38c-8.44,1.65-24.41,2.16-29.13,5.05
	c0,0,46.3,21.12,83.4,1.64c0,0-9.59-4.96-24.73-7.33C290.67,142.81,281.9,125.55,273.55,126.76z"/>
<path class="st2" d="M310.23,110.12c0,0-5.37,31.45-18.42,35.15s-18.15-11.32-21.63-18.56c0,0-13.65-1.74-7.82-11
	c5.29-8.41,10.47,2.23,10.47,2.23s4.81-0.63,6.28-4.74c1.47-4.11,4.05-13.46,11.52-13.53C298.09,99.59,302.14,109.22,310.23,110.12z
	"/>
<path class="st3" d="M310.23,110.12c0,0-5.37,31.45-18.42,35.15c-13.05,3.7-18.15-11.32-21.63-18.56c0,0-13.65-1.74-7.82-11
	c5.29-8.41,10.47,2.23,10.47,2.23s4.81-0.63,6.28-4.74c1.47-4.11,4.05-13.46,11.52-13.53C298.09,99.59,302.14,109.22,310.23,110.12z
	"/>
<path class="st0" d="M271.12,124.13c-0.24,0-0.45-0.18-0.48-0.42c-0.26-2.13-2.06-4.01-4.18-4.36c-0.26-0.04-0.44-0.29-0.4-0.55
	s0.29-0.44,0.55-0.4c2.53,0.42,4.66,2.65,4.97,5.19c0.03,0.26-0.16,0.5-0.42,0.54C271.16,124.13,271.14,124.14,271.12,124.13
	L271.12,124.13z"/>
<path class="st0" d="M327.07,216.53l-24.79,66.83h-76.14c-1.07,0-2.02,0.66-2.39,1.66c-0.62,1.66,0.61,3.43,2.39,3.43h150.21
	c1.86,0,3.53-1.16,4.17-2.9l24.73-66.67c0.82-2.22-0.82-4.57-3.19-4.57h-71.81C328.83,214.31,327.56,215.2,327.07,216.53
	L327.07,216.53z"/>
<rect x="0.48" y="0.48" class="st2" width="116.53" height="72.4"/>
<path class="st0" d="M0.96,72.4h115.57V0.96H0.96V72.4z M117.01,73.36H0.48C0.21,73.36,0,73.14,0,72.88V0.48C0,0.21,0.21,0,0.48,0
	h116.53c0.27,0,0.48,0.21,0.48,0.48v72.4C117.49,73.14,117.28,73.36,117.01,73.36z"/>
<path class="st0" d="M103.33,51.91H50.8c-0.27,0-0.48-0.21-0.48-0.48s0.21-0.48,0.48-0.48h52.54c0.27,0,0.48,0.21,0.48,0.48
	S103.6,51.91,103.33,51.91z"/>
<path class="st0" d="M33.08,51.91H14.16c-0.27,0-0.48-0.21-0.48-0.48s0.21-0.48,0.48-0.48h18.91c0.27,0,0.48,0.21,0.48,0.48
	S33.34,51.91,33.08,51.91z"/>
<path class="st0" d="M103.33,37.16H88.94c-0.27,0-0.48-0.21-0.48-0.48s0.21-0.48,0.48-0.48h14.39c0.27,0,0.48,0.21,0.48,0.48
	S103.6,37.16,103.33,37.16z"/>
<path class="st0" d="M74.55,37.16H14.16c-0.27,0-0.48-0.21-0.48-0.48s0.21-0.48,0.48-0.48h60.39c0.27,0,0.48,0.21,0.48,0.48
	S74.82,37.16,74.55,37.16L74.55,37.16z"/>
<path class="st0" d="M103.33,22.41H65.13c-0.27,0-0.48-0.21-0.48-0.48s0.21-0.48,0.48-0.48h38.21c0.27,0,0.48,0.21,0.48,0.48
	S103.6,22.41,103.33,22.41z"/>
<path class="st0" d="M44.01,22.41H14.16c-0.27,0-0.48-0.21-0.48-0.48s0.21-0.48,0.48-0.48h29.85c0.27,0,0.48,0.21,0.48,0.48
	S44.28,22.41,44.01,22.41z"/>
<ellipse class="st2" cx="487.52" cy="27.79" rx="27.33" ry="27.31"/>
<ellipse class="st4" cx="487.52" cy="27.79" rx="27.33" ry="27.31"/>
<path class="st4" d="M493,24.87c1.61,3.02,0.46,6.78-2.57,8.39c-3.03,1.61-6.78,0.46-8.39-2.56c-1.61-3.02-0.46-6.78,2.57-8.39
	C487.63,20.7,491.39,21.85,493,24.87z M478.12,17.25c0.07,0.12,0.14,0.24,0.21,0.35c-1.03,0.92-1.89,1.98-2.59,3.14
	c-0.12-0.05-0.25-0.1-0.38-0.14c-1.77-0.54-3.63,0.45-4.17,2.22c-0.54,1.76,0.45,3.63,2.22,4.17c0.13,0.04,0.26,0.07,0.4,0.09
	c-0.07,1.34,0.05,2.71,0.39,4.05c-0.12,0.05-0.25,0.1-0.37,0.17c-1.63,0.87-2.25,2.89-1.38,4.52c0.87,1.63,2.89,2.25,4.52,1.38
	c0.12-0.07,0.24-0.14,0.35-0.21c0.92,1.03,1.98,1.9,3.14,2.59c-0.05,0.12-0.11,0.25-0.14,0.38c-0.54,1.76,0.46,3.63,2.22,4.17
	c1.77,0.54,3.63-0.45,4.17-2.22c0.04-0.13,0.07-0.26,0.09-0.4c1.35,0.07,2.71-0.05,4.05-0.39c0.05,0.12,0.1,0.25,0.17,0.37
	c0.87,1.63,2.89,2.25,4.52,1.38c1.63-0.87,2.25-2.89,1.38-4.52c-0.07-0.12-0.14-0.24-0.21-0.35c1.03-0.92,1.9-1.98,2.59-3.14
	c0.12,0.05,0.25,0.1,0.38,0.14c1.77,0.54,3.63-0.45,4.17-2.22c0.54-1.76-0.45-3.63-2.22-4.17c-0.13-0.04-0.26-0.07-0.4-0.09
	c0.07-1.34-0.05-2.71-0.39-4.05c0.12-0.05,0.25-0.1,0.37-0.17c1.63-0.87,2.25-2.89,1.38-4.52c-0.87-1.63-2.89-2.25-4.52-1.38
	c-0.12,0.07-0.24,0.14-0.35,0.21c-0.92-1.03-1.98-1.9-3.14-2.59c0.05-0.12,0.11-0.25,0.14-0.38c0.54-1.76-0.46-3.63-2.22-4.17
	s-3.63,0.45-4.17,2.22c-0.04,0.13-0.07,0.26-0.09,0.4c-1.35-0.07-2.71,0.05-4.05,0.39c-0.05-0.12-0.1-0.25-0.17-0.37
	c-0.87-1.63-2.89-2.25-4.52-1.38C477.87,13.6,477.25,15.62,478.12,17.25z"/>
<path class="st0" d="M444.32,28.56H127.93c-0.27,0-0.48-0.21-0.48-0.48s0.21-0.48,0.48-0.48h316.39c0.27,0,0.48,0.21,0.48,0.48
	S444.59,28.56,444.32,28.56z"/>
<polygon class="st0" points="441.13,24.15 440.48,24.85 443.95,28.08 440.48,31.31 441.13,32.01 445.37,28.08 "/>
<ellipse class="st0" cx="422.98" cy="361.89" rx="20.73" ry="20.72"/>
<rect x="456.34" y="121.44" class="st2" width="114.37" height="109.01"/>
<path class="st0" d="M456.82,229.97h113.41V121.92H456.82V229.97z M570.72,230.93H456.34c-0.27,0-0.48-0.21-0.48-0.48V121.44
	c0-0.27,0.21-0.48,0.48-0.48h114.37c0.27,0,0.48,0.21,0.48,0.48v109.01C571.2,230.71,570.98,230.93,570.72,230.93z"/>
<polygon class="st2" points="553.43,169.55 553.43,212.66 473.62,212.66 "/>
<path class="st0" d="M553.43,213.14h-79.81c-0.27,0-0.48-0.21-0.48-0.48s0.21-0.48,0.48-0.48h79.33v-42.64
	c0-0.27,0.21-0.48,0.48-0.48c0.27,0,0.48,0.21,0.48,0.48v43.12C553.91,212.93,553.7,213.14,553.43,213.14z"/>
<path class="st0" d="M537.93,207.02c-0.27,0-0.48-0.21-0.48-0.48V175.6c0-0.27,0.21-0.48,0.48-0.48c0.27,0,0.48,0.21,0.48,0.48
	v30.94C538.41,206.8,538.2,207.02,537.93,207.02z"/>
<path class="st0" d="M522.43,207.02c-0.27,0-0.48-0.21-0.48-0.48v-24.88c0-0.27,0.21-0.48,0.48-0.48c0.27,0,0.48,0.21,0.48,0.48
	v24.88C522.92,206.8,522.7,207.02,522.43,207.02z"/>
<path class="st0" d="M506.93,207.02c-0.27,0-0.48-0.21-0.48-0.48v-49.76c0-0.27,0.21-0.48,0.48-0.48s0.48,0.21,0.48,0.48v49.76
	C507.41,206.8,507.2,207.02,506.93,207.02z"/>
<path class="st0" d="M491.43,207.02c-0.27,0-0.48-0.21-0.48-0.48v-45.42c0-0.27,0.21-0.48,0.48-0.48s0.48,0.21,0.48,0.48v45.42
	C491.91,206.8,491.7,207.02,491.43,207.02z"/>
<path class="st0" d="M475.93,207.02c-0.27,0-0.48-0.21-0.48-0.48v-67.31c0-0.27,0.21-0.48,0.48-0.48s0.48,0.21,0.48,0.48v67.31
	C476.41,206.8,476.2,207.02,475.93,207.02z"/>
<ellipse class="st2" cx="543.9" cy="126.7" rx="36.97" ry="36.94"/>
<path class="st0" d="M543.9,90.25c-20.12,0-36.49,16.35-36.49,36.46s16.37,36.46,36.49,36.46s36.49-16.35,36.49-36.46
	S564.02,90.25,543.9,90.25z M543.9,164.12c-20.65,0-37.45-16.78-37.45-37.42s16.8-37.42,37.45-37.42s37.45,16.78,37.45,37.42
	C581.35,147.33,564.55,164.12,543.9,164.12z"/>
<polygon class="st2" points="527.78,139.4 540.35,119.76 548.3,132.18 562.34,109.24 "/>
<path class="st0" d="M527.77,139.88c-0.09,0-0.18-0.02-0.26-0.08c-0.22-0.14-0.29-0.44-0.15-0.66l12.57-19.63
	c0.18-0.28,0.63-0.28,0.81,0l7.54,11.77l13.09-21.4c0.14-0.23,0.43-0.3,0.66-0.16c0.23,0.14,0.3,0.43,0.16,0.66l-13.5,22.05
	c-0.09,0.14-0.24,0.23-0.41,0.23h0c-0.16,0-0.32-0.08-0.4-0.22l-7.54-11.78l-12.17,19C528.09,139.8,527.93,139.88,527.77,139.88
	L527.77,139.88z"/>
<polygon class="st0" points="563.49,114.9 562.54,115.09 561.6,110.44 557.03,111.72 556.77,110.79 562.34,109.24 "/>
<path class="st0" d="M563.68,144.65h-39.57c-0.27,0-0.48-0.21-0.48-0.48v-34.93c0-0.27,0.21-0.48,0.48-0.48
	c0.27,0,0.48,0.21,0.48,0.48v34.45h39.09c0.27,0,0.48,0.21,0.48,0.48C564.16,144.43,563.95,144.65,563.68,144.65z"/>
<rect x="67.03" y="322.11" class="st2" width="224.67" height="77.41"/>
<path class="st0" d="M67.51,399.04h223.71v-76.45H67.51V399.04z M291.71,400H67.03c-0.27,0-0.48-0.21-0.48-0.48v-77.41
	c0-0.27,0.21-0.48,0.48-0.48h224.67c0.27,0,0.48,0.21,0.48,0.48v77.41C292.19,399.79,291.97,400,291.71,400z"/>
<rect x="134.78" y="358.03" class="st5" width="14.86" height="22.68"/>
<rect x="159.69" y="351.14" class="st5" width="14.86" height="29.57"/>
<rect x="184.6" y="340.92" class="st5" width="14.86" height="39.79"/>
<rect x="209.5" y="358.03" class="st5" width="14.86" height="22.68"/>
<rect x="234.41" y="349.63" class="st5" width="14.86" height="31.08"/>
<rect x="259.32" y="356.36" class="st5" width="14.86" height="24.35"/>
<path class="st0" d="M135.26,387.41h13.9v-53.19h-13.9V387.41z M149.64,388.37h-14.86c-0.27,0-0.48-0.21-0.48-0.48v-54.16
	c0-0.27,0.21-0.48,0.48-0.48h14.86c0.27,0,0.48,0.21,0.48,0.48v54.16C150.12,388.16,149.91,388.37,149.64,388.37z"/>
<path class="st0" d="M160.17,387.41h13.9v-53.19h-13.9V387.41z M174.55,388.37h-14.86c-0.27,0-0.48-0.21-0.48-0.48v-54.16
	c0-0.27,0.21-0.48,0.48-0.48h14.86c0.27,0,0.48,0.21,0.48,0.48v54.16C175.03,388.16,174.81,388.37,174.55,388.37z"/>
<path class="st0" d="M185.08,387.41h13.9v-53.19h-13.9V387.41z M199.45,388.37H184.6c-0.27,0-0.48-0.21-0.48-0.48v-54.16
	c0-0.27,0.21-0.48,0.48-0.48h14.86c0.27,0,0.48,0.21,0.48,0.48v54.16C199.94,388.16,199.72,388.37,199.45,388.37z"/>
<path class="st0" d="M209.98,387.41h13.9v-53.19h-13.9V387.41z M224.36,388.37H209.5c-0.27,0-0.48-0.21-0.48-0.48v-54.16
	c0-0.27,0.21-0.48,0.48-0.48h14.86c0.27,0,0.48,0.21,0.48,0.48v54.16C224.84,388.16,224.63,388.37,224.36,388.37z"/>
<path class="st0" d="M234.89,387.41h13.9v-53.19h-13.9V387.41z M249.27,388.37h-14.86c-0.27,0-0.48-0.21-0.48-0.48v-54.16
	c0-0.27,0.21-0.48,0.48-0.48h14.86c0.27,0,0.48,0.21,0.48,0.48v54.16C249.75,388.16,249.53,388.37,249.27,388.37z"/>
<path class="st0" d="M259.8,387.41h13.9v-53.19h-13.9V387.41z M274.17,388.37h-14.86c-0.27,0-0.48-0.21-0.48-0.48v-54.16
	c0-0.27,0.21-0.48,0.48-0.48h14.86c0.27,0,0.48,0.21,0.48,0.48v54.16C274.66,388.16,274.44,388.37,274.17,388.37z"/>
<path class="st2" d="M109.02,277.48v-3.92c0-2-1.62-3.62-3.62-3.62H83.92c-2,0-3.62,1.62-3.62,3.62v3.93H21.93v61.06
	c0,3.76,3.05,6.81,6.81,6.81h90.39v-67.86L109.02,277.48L109.02,277.48z"/>
<path class="st0" d="M22.41,277.96v60.57c0,3.49,2.84,6.33,6.33,6.33h89.91v-66.9h-9.63c-0.27,0-0.48-0.21-0.48-0.48v-3.92
	c0-1.73-1.41-3.14-3.14-3.14H83.91c-1.73,0-3.14,1.41-3.14,3.14v3.92c0,0.27-0.21,0.48-0.48,0.48H22.41z M119.13,345.83H28.74
	c-4.02,0-7.29-3.27-7.29-7.29v-61.06c0-0.27,0.21-0.48,0.48-0.48h57.88v-3.44c0-2.26,1.84-4.1,4.11-4.1h21.48
	c2.26,0,4.11,1.84,4.11,4.1V277h9.63c0.27,0,0.48,0.21,0.48,0.48v67.86C119.62,345.61,119.4,345.83,119.13,345.83L119.13,345.83z"/>
<polygon class="st2" points="119.13,285.79 119.13,345.34 128.24,285.79 "/>
<path class="st0" d="M119.62,286.27v52.75l8.07-52.75H119.62z M119.61,345.42l-0.96-0.07v-60.03h10.15L119.61,345.42z"/>
<path class="st0" d="M423.34,337.78c-0.27,0-0.48-0.21-0.48-0.48v-43.91c0-0.27,0.21-0.48,0.48-0.48h68.2
	c0.27,0,0.48,0.21,0.48,0.48s-0.21,0.48-0.48,0.48h-67.72v43.43C423.82,337.57,423.61,337.78,423.34,337.78z"/>
<ellipse transform="matrix(1.250320e-03 -1 1 1.250320e-03 199.3898 786.5236)" class="st0" cx="493.45" cy="293.44" rx="7.77" ry="7.77"/>
<path class="st0" d="M593.41,293.93h-86.48c-0.27,0-0.48-0.21-0.48-0.48s0.21-0.48,0.48-0.48h86.48c0.27,0,0.48,0.21,0.48,0.48
	S593.68,293.93,593.41,293.93z"/>
<path class="st0" d="M593.41,303.54h-50.32c-0.27,0-0.48-0.21-0.48-0.48s0.21-0.48,0.48-0.48h50.32c0.27,0,0.48,0.21,0.48,0.48
	S593.68,303.54,593.41,303.54z"/>
<path class="st0" d="M526.65,303.54h-19.72c-0.27,0-0.48-0.21-0.48-0.48s0.21-0.48,0.48-0.48h19.72c0.27,0,0.48,0.21,0.48,0.48
	S526.92,303.54,526.65,303.54z"/>
<path class="st0" d="M593.41,313.15h-20.86c-0.27,0-0.48-0.21-0.48-0.48s0.21-0.48,0.48-0.48h20.86c0.27,0,0.48,0.21,0.48,0.48
	S593.68,313.15,593.41,313.15z"/>
<path class="st0" d="M557.13,313.15h-50.2c-0.27,0-0.48-0.21-0.48-0.48s0.21-0.48,0.48-0.48h50.2c0.27,0,0.48,0.21,0.48,0.48
	S557.4,313.15,557.13,313.15z"/>
<path class="st0" d="M593.41,322.76h-50.32c-0.27,0-0.48-0.21-0.48-0.48s0.21-0.48,0.48-0.48h50.32c0.27,0,0.48,0.21,0.48,0.48
	S593.68,322.76,593.41,322.76z"/>
<path class="st0" d="M523.4,322.76h-16.47c-0.27,0-0.48-0.21-0.48-0.48s0.21-0.48,0.48-0.48h16.47c0.27,0,0.48,0.21,0.48,0.48
	S523.67,322.76,523.4,322.76z"/>
<rect class="st6" width="600" height="400"/>
</svg>
