<svg width="600" height="400" viewBox="0 0 600 400" fill="none" xmlns="http://www.w3.org/2000/svg">
<g clip-path="url(#clip0_11_4)">
<path d="M176.108 362.715C154.937 362.715 136.229 362.708 120.07 362.697C96.0551 362.68 77.4632 362.649 64.8104 362.608C43.6984 362.538 43.6481 362.487 43.4425 362.282C43.3528 362.192 43.3003 362.068 43.3003 361.941V290.949C43.3003 290.682 43.5147 290.468 43.7815 290.468C44.0484 290.468 44.2628 290.682 44.2628 290.949V361.497C49.4888 361.69 103.792 361.755 175.113 361.755C321.438 361.755 539.514 361.482 553.2 361.464C553.464 361.464 553.681 361.679 553.681 361.945C553.681 362.212 553.467 362.426 553.2 362.426C539.118 362.444 412.088 362.603 289.187 362.68C246.066 362.706 208.252 362.719 176.108 362.719V362.715Z" fill="#141414"/>
<path d="M550.012 365.878L549.356 365.174L552.828 361.943L549.35 358.719L550.006 358.013L554.241 361.941L550.012 365.878Z" fill="#141414"/>
<path d="M43.7815 266.024C43.5147 266.024 43.3003 265.81 43.3003 265.543V198.028C43.3003 197.762 43.5147 197.548 43.7815 197.548H599.037V28.5617H528.924C528.658 28.5617 528.443 28.3454 528.443 28.0809C528.443 27.8164 528.658 27.6 528.924 27.6H599.519C599.783 27.6 600 27.8142 600 28.0809V198.028C600 198.295 599.783 198.509 599.519 198.509H44.2628V265.543C44.2628 265.81 44.0462 266.024 43.7815 266.024Z" fill="#141414"/>
<path d="M39.8461 262.358L40.5505 261.703L43.7815 265.174L47.0125 261.703L47.7169 262.358L43.7815 266.586L39.8461 262.358Z" fill="#141414"/>
<path d="M299.072 112.38C308.409 112.966 319.585 112.684 324.673 104.839C328.165 99.4557 327.276 92.2011 324.437 86.4459C316.603 70.5639 296.714 64.1333 279.03 65.2678C261.346 66.4 244.607 73.318 227.29 77.0732C185.889 86.0503 141.453 76.9115 101.31 90.4393C93.4738 93.0798 85.5615 96.8459 80.7642 103.574C75.9669 110.304 75.455 120.66 81.5758 126.214C84.5224 128.887 88.4862 130.101 91.8507 132.225C95.2151 134.35 98.1814 138.184 97.1292 142.017C96.2039 145.388 92.6447 147.248 90.5972 150.083C86.513 155.733 89.5537 164.23 95.1867 168.341C100.82 172.45 108.124 173.305 115.074 173.908C154.224 177.309 193.591 177.034 232.888 176.756C240.092 176.706 247.322 176.645 254.482 175.76C259.246 175.169 267.342 174.822 270.689 170.8C274.152 166.638 275.653 159.593 277.823 154.684C280.824 147.895 283.983 141.176 287.295 134.533C291.027 127.049 294.953 119.663 299.07 112.383L299.072 112.38Z" fill="#141414"/>
<path d="M355.669 188.638C355.669 188.638 345.831 177.049 336.755 165.176C329.25 155.357 318.091 149.01 305.815 147.534C298.729 146.682 289.909 143.611 279.791 143.48C266.115 143.301 250.238 144.966 236.323 147.534C217.785 150.957 201.416 161.716 190.765 177.257L165.381 214.304L194.162 228.326L186.709 288.457H341.397L355.669 188.636V188.638Z" fill="url(#paint0_linear_11_4)"/>
<path d="M439.866 130.07L439.866 130.07L439.865 130.07C439.865 130.07 439.865 130.07 439.866 130.071L440.109 131.031C440.109 131.033 440.109 131.033 440.109 131.033L440.109 131.033L440.112 131.033L440.131 131.031C440.148 131.029 440.175 131.026 440.211 131.023C440.282 131.017 440.385 131.011 440.509 131.01C440.761 131.007 441.082 131.025 441.388 131.1C441.699 131.176 441.952 131.301 442.118 131.478C442.269 131.641 442.391 131.892 442.361 132.327L442.361 132.327C442.348 132.52 442.218 132.799 441.852 133.165C441.495 133.523 440.967 133.909 440.286 134.317C438.924 135.131 437.031 135.983 434.884 136.836C431.968 137.994 428.636 139.133 425.603 140.17C424.166 140.661 422.796 141.129 421.569 141.566L421.737 142.037L421.569 141.566C417.743 142.928 415.178 144.36 413.275 146.374C411.374 148.385 410.177 150.932 409.002 154.433C408.61 155.601 407.842 158.251 406.774 161.935C403.641 172.749 397.923 192.48 391.535 209.845C386.435 223.703 376.918 233.129 366.406 236.271C356.006 239.379 344.534 236.366 335.235 225.214L353.866 192.158L353.87 192.151L353.874 192.144L353.431 191.913C353.874 192.144 353.874 192.144 353.874 192.144L353.875 192.142L353.879 192.134L353.895 192.104L353.957 191.986L354.199 191.524C354.411 191.119 354.723 190.525 355.121 189.767C355.917 188.252 357.059 186.082 358.441 183.468C361.205 178.24 364.93 171.232 368.772 164.113C372.614 156.993 376.571 149.765 379.803 144.095C381.418 141.26 382.85 138.818 383.994 136.975C384.566 136.054 385.064 135.286 385.474 134.696C385.892 134.096 386.2 133.71 386.394 133.525C390.325 129.792 395.606 128.749 401.121 128.167C402.179 128.055 403.252 127.96 404.324 127.865C406.016 127.715 407.704 127.565 409.325 127.351C411.989 127.001 414.552 126.47 416.827 125.451C417.835 124.999 418.789 124.564 419.69 124.153C420.777 123.656 421.786 123.196 422.716 122.787C424.417 122.038 425.793 121.487 426.812 121.231C427.323 121.103 427.706 121.059 427.975 121.083C428.236 121.106 428.326 121.184 428.367 121.244C428.421 121.323 428.483 121.507 428.432 121.904C428.381 122.293 428.231 122.818 427.952 123.504L427.458 124.721L428.636 124.14L428.637 124.14L428.638 124.14L428.643 124.137L428.667 124.126C428.687 124.116 428.719 124.1 428.76 124.081C428.842 124.042 428.963 123.985 429.117 123.914C429.426 123.771 429.868 123.574 430.4 123.352C431.466 122.907 432.88 122.371 434.293 121.994C435.722 121.613 437.082 121.413 438.068 121.585C438.553 121.669 438.905 121.836 439.139 122.074C439.365 122.304 439.528 122.649 439.547 123.189L439.574 123.951L440.261 123.624L440.261 123.623L440.261 123.623L440.262 123.623L440.264 123.622L440.284 123.613C440.303 123.605 440.334 123.592 440.375 123.576C440.456 123.544 440.577 123.5 440.728 123.456C441.034 123.368 441.451 123.282 441.91 123.284C442.766 123.289 443.789 123.594 444.548 124.862L444.639 125.028C444.976 125.647 444.911 126.219 444.589 126.786C444.252 127.38 443.638 127.948 442.924 128.45C442.217 128.948 441.452 129.354 440.858 129.637C440.563 129.778 440.312 129.887 440.137 129.96C440.049 129.997 439.98 130.025 439.933 130.043L439.881 130.064L439.869 130.069L439.866 130.07Z" fill="white" stroke="#141414"/>
<path d="M418.241 130.52C418.06 130.52 417.887 130.417 417.804 130.243C417.692 130.002 417.795 129.716 418.036 129.604C421.698 127.897 425.112 125.716 428.19 123.121C428.394 122.949 428.698 122.977 428.868 123.178C429.039 123.381 429.015 123.685 428.811 123.856C425.67 126.503 422.183 128.73 418.445 130.474C418.379 130.505 418.309 130.52 418.241 130.52Z" fill="#141414"/>
<path d="M423.743 134.205C423.564 134.205 423.393 134.105 423.31 133.934C423.194 133.696 423.294 133.408 423.533 133.292C428.573 130.852 433.512 128.07 438.216 125.025C438.609 124.772 439.054 124.483 439.32 124.096C439.513 123.819 439.635 123.379 439.452 123.075C439.314 122.848 439.386 122.553 439.614 122.415C439.841 122.28 440.136 122.35 440.274 122.577C440.633 123.169 440.57 123.98 440.11 124.643C439.736 125.185 439.183 125.543 438.739 125.83C434.003 128.896 429.028 131.698 423.953 134.155C423.885 134.188 423.813 134.203 423.743 134.203V134.205Z" fill="#141414"/>
<path d="M425.924 136.964C425.72 136.964 425.532 136.835 425.467 136.634C425.384 136.38 425.521 136.109 425.773 136.026C430.728 134.404 435.573 132.343 440.176 129.897C440.41 129.77 440.701 129.862 440.825 130.096C440.95 130.33 440.86 130.623 440.626 130.745C435.976 133.215 431.08 135.301 426.073 136.938C426.022 136.955 425.972 136.962 425.922 136.962L425.924 136.964Z" fill="#141414"/>
<path d="M201.929 228.218L201.851 228.192L172.557 218.302C172.505 218.374 172.445 218.459 172.377 218.557C172.121 218.921 171.747 219.46 171.28 220.154C170.345 221.541 169.033 223.548 167.529 226.023C164.518 230.975 160.741 237.794 157.664 245.273C154.584 252.756 152.218 260.869 152.004 268.417C151.79 275.955 153.722 282.889 159.193 288.097C164.584 293.228 172.278 293.144 181.149 289.694C190.008 286.248 199.883 279.499 209.433 271.586C228.527 255.763 246.186 235.399 251.609 227.925L251.804 227.657L201.929 228.218ZM201.929 228.218H202.011H202.013H202.212L202.357 228.081L202.357 228.081L202.358 228.08L202.364 228.075L202.388 228.052C202.397 228.044 202.408 228.033 202.421 228.021C202.439 228.005 202.46 227.985 202.485 227.962C202.572 227.882 202.703 227.762 202.878 227.603C203.229 227.287 203.756 226.818 204.46 226.212C205.867 225 207.982 223.238 210.805 221.044C216.45 216.655 224.928 210.536 236.246 203.627C250.064 195.192 260.018 194.869 266.926 197.333C273.858 199.805 277.846 205.123 279.632 208.201L279.633 208.201L279.668 208.261C281.483 211.387 283.555 214.954 284.696 217.991C285.271 219.523 285.589 220.867 285.544 221.923C285.501 222.951 285.125 223.653 284.334 224.055L284.334 224.055C284.176 224.135 283.911 224.159 283.489 224.032C283.074 223.907 282.577 223.657 282.02 223.3C280.906 222.587 279.638 221.504 278.432 220.362C277.229 219.224 276.104 218.043 275.279 217.145C274.867 216.697 274.53 216.319 274.297 216.055C274.18 215.923 274.089 215.819 274.028 215.748L273.958 215.667L273.94 215.647L273.936 215.642L273.935 215.64L273.935 215.64L273.555 215.965M201.929 228.218L273.555 215.965M273.555 215.965L273.935 215.64L273.066 216.069C273.489 218.063 273.257 219.328 272.771 220.13C272.287 220.928 271.495 221.362 270.59 221.577C269.681 221.792 268.703 221.771 267.936 221.691C267.556 221.651 267.235 221.597 267.01 221.553C266.898 221.531 266.81 221.512 266.751 221.499C266.722 221.492 266.699 221.487 266.685 221.483L266.67 221.48L266.667 221.479M273.555 215.965L266.667 221.479M266.667 221.479L266.666 221.479L266.666 221.479L266.041 221.317V221.963C266.041 223.436 265.558 224.273 264.909 224.764C264.234 225.275 263.296 225.474 262.28 225.482C261.272 225.489 260.251 225.307 259.474 225.118C259.087 225.025 258.765 224.931 258.541 224.86C258.429 224.825 258.342 224.796 258.283 224.776C258.254 224.766 258.232 224.758 258.217 224.753L258.201 224.747L258.198 224.746L258.198 224.746L258.198 224.746L266.667 221.479ZM252.127 227.731L252.127 227.731L257.344 224.433L257.537 225.321C257.761 226.355 257.523 226.929 257.162 227.278C256.765 227.661 256.117 227.874 255.343 227.956C254.582 228.036 253.779 227.982 253.156 227.904C252.847 227.866 252.587 227.822 252.405 227.788C252.314 227.771 252.243 227.757 252.196 227.746C252.172 227.741 252.154 227.738 252.142 227.735L252.13 227.732L252.127 227.732L252.127 227.731Z" fill="white" stroke="#141414"/>
<path d="M251.049 228.695C251.03 228.695 251.01 228.695 250.99 228.693C247.376 228.256 243.933 226.866 241.035 224.667C240.823 224.507 240.781 224.205 240.943 223.993C241.103 223.784 241.404 223.74 241.617 223.902C244.379 225.998 247.663 227.325 251.106 227.74C251.369 227.773 251.557 228.011 251.526 228.275C251.496 228.518 251.29 228.699 251.049 228.699V228.695Z" fill="#141414"/>
<path d="M258.445 225.746C258.362 225.746 258.279 225.725 258.203 225.681C256.846 224.887 255.593 223.926 254.479 222.82C254.291 222.634 254.289 222.328 254.479 222.14C254.667 221.952 254.972 221.95 255.16 222.14C256.216 223.189 257.404 224.103 258.69 224.855C258.92 224.988 258.997 225.283 258.863 225.513C258.774 225.666 258.614 225.751 258.448 225.751L258.445 225.746Z" fill="#141414"/>
<path d="M266.826 222.256C266.697 222.256 266.566 222.203 266.471 222.101L263.398 218.758C263.219 218.564 263.232 218.258 263.426 218.079C263.623 217.899 263.927 217.913 264.107 218.107L267.18 221.449C267.36 221.644 267.347 221.95 267.152 222.129C267.06 222.214 266.942 222.256 266.826 222.256Z" fill="#141414"/>
<path d="M273.55 216.446C273.415 216.446 273.281 216.389 273.185 216.278C272.756 215.779 272.417 215.336 272.089 214.909C271.687 214.385 271.271 213.843 270.663 213.156C270.486 212.957 270.505 212.654 270.704 212.479C270.903 212.304 271.207 212.321 271.383 212.52C272.015 213.233 272.441 213.79 272.853 214.328C273.187 214.765 273.502 215.176 273.914 215.655C274.086 215.856 274.064 216.16 273.861 216.332C273.771 216.411 273.66 216.448 273.548 216.448L273.55 216.446Z" fill="#141414"/>
<path d="M381.364 58.5803L381.366 58.5798C381.502 58.8373 381.658 59.0807 381.829 59.3222L382.086 59.6855L381.755 59.9829C379.414 62.0848 377.438 64.4984 375.864 67.1248L375.636 67.5049L375.232 67.3244C374.962 67.2041 374.69 67.0982 374.409 67.0112C370.588 65.8465 366.546 67.9937 365.38 71.8095C364.214 75.6263 366.362 79.6658 370.182 80.831L370.184 80.8316C370.461 80.9172 370.745 80.9786 371.039 81.0314L371.474 81.1095L371.45 81.5502C371.287 84.609 371.575 87.711 372.339 90.7615L372.447 91.1903L372.034 91.3495C371.758 91.4564 371.488 91.5729 371.232 91.7092L381.364 58.5803ZM381.364 58.5803C379.49 55.0566 380.83 50.6832 384.355 48.8087C387.882 46.9339 392.261 48.2711 394.137 51.7954C394.274 52.0521 394.39 52.3211 394.497 52.5978L394.656 53.0097L395.085 52.9025C398.138 52.1388 401.245 51.8506 404.306 52.014L404.747 52.0376L404.825 51.6027C404.877 51.3102 404.941 51.0242 405.026 50.7441C406.192 46.9282 410.235 44.7796 414.055 45.947L414.055 45.9471C417.875 47.1123 420.023 51.1515 418.857 54.9681C418.771 55.2471 418.663 55.5187 418.542 55.7925L418.365 56.1962L418.744 56.4225C421.372 57.9949 423.788 59.9697 425.891 62.3082L426.188 62.6386L426.551 62.3822C426.792 62.2123 427.038 62.0558 427.296 61.9192L427.296 61.9191C430.824 60.0442 435.203 61.3815 437.079 64.906L437.079 64.9061C438.955 68.4279 437.617 72.8026 434.09 74.6775C433.833 74.8139 433.563 74.9304 433.286 75.0374L432.874 75.1966L432.982 75.6253C433.746 78.6759 434.034 81.7779 433.871 84.8367L433.847 85.2774L434.282 85.3555C434.575 85.4083 434.86 85.4697 435.137 85.5553L435.138 85.5558C438.959 86.7212 441.109 90.7608 439.94 94.5772L439.94 94.5774C438.774 98.3936 434.732 100.541 430.911 99.3753C430.63 99.2884 430.359 99.1826 430.089 99.0625L429.684 98.882L429.457 99.2623C427.883 101.891 425.907 104.302 423.566 106.404L423.235 106.701L423.492 107.065C423.663 107.306 423.819 107.55 423.955 107.807L423.956 107.809C425.832 111.333 424.494 115.708 420.966 117.583C417.439 119.457 413.06 118.118 411.184 114.596C411.047 114.339 410.931 114.07 410.824 113.793L410.664 113.382L410.236 113.489C407.183 114.252 404.076 114.541 401.015 114.377L400.574 114.354L400.496 114.788C400.444 115.079 400.38 115.365 400.295 115.645C399.129 119.461 395.086 121.609 391.266 120.442L391.266 120.442C387.446 119.277 385.298 115.238 386.464 111.422C386.55 111.142 386.658 110.871 386.778 110.597L386.956 110.193L386.577 109.967C383.949 108.394 381.533 106.419 379.43 104.081L379.132 103.751L378.769 104.007C378.529 104.177 378.282 104.333 378.025 104.47L378.025 104.47C374.497 106.345 370.118 105.006 368.242 101.483L381.364 58.5803ZM415.78 76.222L415.78 76.2218C411.924 68.9813 402.929 66.2356 395.683 70.0852L395.683 70.0853C388.437 73.9373 385.688 82.9264 389.541 90.1671L389.541 90.1672C393.396 97.4078 402.392 100.153 409.638 96.3039L409.638 96.3038C416.884 92.4518 419.633 83.4627 415.78 76.222ZM368.242 101.483C366.366 97.959 367.706 93.5844 371.231 91.7094L368.242 101.483Z" fill="white" stroke="#141414"/>
<path d="M261.225 143.942C265.871 143.033 269.67 139.705 271.195 135.228L271.195 135.228L273.922 127.223C275.733 127.064 277.61 127.825 279.456 129.164C281.398 130.572 283.243 132.574 284.847 134.637C286.448 136.697 287.793 138.798 288.739 140.385C289.211 141.178 289.583 141.842 289.836 142.307C289.963 142.539 290.06 142.722 290.125 142.846C290.157 142.908 290.182 142.955 290.198 142.986L290.216 143.022L290.221 143.031L290.222 143.033L290.222 143.033L290.668 142.807L290.222 143.033L290.338 143.261L290.59 143.301C298.126 144.483 304.353 146.253 308.695 147.726C310.865 148.463 312.563 149.125 313.717 149.602C314.031 149.732 314.305 149.848 314.536 149.948C296.358 159.128 275.984 158.754 260.019 156.02C251.907 154.631 244.948 152.635 240.019 150.986C237.554 150.162 235.598 149.425 234.259 148.895C233.836 148.727 233.474 148.58 233.178 148.458C234.262 147.987 235.722 147.577 237.457 147.214C239.728 146.739 242.414 146.355 245.23 146.008C246.869 145.806 248.554 145.617 250.224 145.429C254.268 144.974 258.223 144.53 261.225 143.942ZM261.225 143.942L261.129 143.451M261.225 143.942L261.129 143.451M261.129 143.451C258.148 144.035 254.227 144.476 250.194 144.929C243.222 145.713 235.916 146.534 232.554 148.196L273.55 126.763L270.722 135.067C269.254 139.375 265.599 142.577 261.129 143.451Z" fill="white" stroke="#141414"/>
<path d="M270.623 126.485L270.505 126.24L270.236 126.206L270.236 126.206L270.236 126.206L270.235 126.206L270.229 126.205L270.203 126.201C270.179 126.198 270.143 126.193 270.096 126.186C270.002 126.171 269.863 126.149 269.687 126.117C269.335 126.053 268.837 125.952 268.257 125.801C267.092 125.5 265.618 125.007 264.334 124.245C263.045 123.479 262.003 122.477 261.596 121.177C261.193 119.894 261.373 118.201 262.78 115.965L262.78 115.965C264.064 113.923 265.272 113.148 266.298 112.994C267.327 112.839 268.33 113.285 269.256 114.047C270.178 114.806 270.959 115.826 271.514 116.673C271.79 117.094 272.007 117.466 272.154 117.731C272.227 117.864 272.283 117.97 272.321 118.042C272.339 118.078 272.353 118.106 272.362 118.124L272.372 118.144L272.374 118.148L272.375 118.149L272.375 118.149L272.375 118.149L272.532 118.472L272.889 118.426L272.824 117.93C272.889 118.426 272.889 118.426 272.889 118.426L272.89 118.426L272.891 118.426L272.895 118.425L272.909 118.423C272.92 118.421 272.936 118.419 272.956 118.416C272.996 118.41 273.054 118.4 273.126 118.387C273.27 118.359 273.476 118.316 273.725 118.252C274.223 118.123 274.903 117.905 275.632 117.552C277.089 116.848 278.783 115.581 279.576 113.357C279.692 113.029 279.815 112.672 279.946 112.291C280.649 110.246 281.581 107.533 283.037 105.171C284.758 102.379 287.139 100.194 290.624 100.161C294.142 100.128 296.88 102.371 299.866 104.906C299.934 104.963 300.001 105.02 300.068 105.077C302.818 107.414 305.778 109.928 309.646 110.545C309.606 110.761 309.552 111.042 309.484 111.381C309.313 112.244 309.053 113.481 308.701 114.977C307.996 117.972 306.922 121.999 305.443 126.139C303.962 130.281 302.084 134.516 299.778 137.935C297.465 141.364 294.767 143.908 291.671 144.785C288.51 145.68 285.862 145.436 283.607 144.482C281.341 143.523 279.434 141.832 277.796 139.773C275.198 136.509 273.339 132.417 271.801 129.03C271.388 128.121 270.998 127.262 270.623 126.485Z" fill="white" stroke="#141414"/>
<path d="M271.124 124.133C270.884 124.133 270.678 123.954 270.648 123.711C270.387 121.578 268.591 119.705 266.472 119.353C266.209 119.309 266.032 119.062 266.076 118.8C266.119 118.538 266.366 118.356 266.629 118.404C269.156 118.824 271.293 121.056 271.603 123.596C271.636 123.858 271.448 124.098 271.183 124.131C271.164 124.133 271.144 124.136 271.124 124.136V124.133Z" fill="#141414"/>
<path d="M327.066 216.529L302.277 283.364H226.14C225.072 283.364 224.118 284.026 223.749 285.027C223.132 286.691 224.363 288.461 226.14 288.461H376.345C378.207 288.461 379.874 287.303 380.519 285.558L405.247 218.89C406.07 216.671 404.427 214.315 402.06 214.315H330.254C328.832 214.315 327.561 215.198 327.066 216.531V216.529Z" fill="#141414"/>
<path d="M117.012 0.480874H0.48126V72.8765H117.012V0.480874Z" fill="white"/>
<path d="M117.012 73.3574H0.48126C0.214379 73.3574 0 73.1432 0 72.8765V0.480874C0 0.214208 0.214379 0 0.48126 0H117.012C117.279 0 117.493 0.214208 117.493 0.480874V72.8765C117.493 73.1432 117.279 73.3574 117.012 73.3574ZM0.96252 72.3956H116.533V0.961749H0.96252V72.3956Z" fill="#141414"/>
<path d="M103.333 51.906H50.797C50.5301 51.906 50.3157 51.6918 50.3157 51.4251C50.3157 51.1585 50.5301 50.9443 50.797 50.9443H103.333C103.6 50.9443 103.814 51.1585 103.814 51.4251C103.814 51.6918 103.6 51.906 103.333 51.906Z" fill="#141414"/>
<path d="M33.0757 51.906H14.1622C13.8953 51.906 13.6809 51.6918 13.6809 51.4251C13.6809 51.1585 13.8953 50.9443 14.1622 50.9443H33.0757C33.3426 50.9443 33.5569 51.1585 33.5569 51.4251C33.5569 51.6918 33.3426 51.906 33.0757 51.906Z" fill="#141414"/>
<path d="M103.333 37.1585H88.9412C88.6743 37.1585 88.46 36.9443 88.46 36.6776C88.46 36.4109 88.6743 36.1967 88.9412 36.1967H103.333C103.6 36.1967 103.814 36.4109 103.814 36.6776C103.814 36.9443 103.6 37.1585 103.333 37.1585Z" fill="#141414"/>
<path d="M74.5515 37.1585H14.1622C13.8953 37.1585 13.6809 36.9443 13.6809 36.6776C13.6809 36.4109 13.8953 36.1967 14.1622 36.1967H74.5537C74.8206 36.1967 75.035 36.4109 75.035 36.6776C75.035 36.9443 74.8206 37.1585 74.5537 37.1585H74.5515Z" fill="#141414"/>
<path d="M103.333 22.4109H65.1254C64.8585 22.4109 64.6442 22.1967 64.6442 21.9301C64.6442 21.6634 64.8585 21.4492 65.1254 21.4492H103.333C103.6 21.4492 103.814 21.6634 103.814 21.9301C103.814 22.1967 103.6 22.4109 103.333 22.4109Z" fill="#141414"/>
<path d="M44.0112 22.4109H14.1622C13.8953 22.4109 13.6809 22.1967 13.6809 21.9301C13.6809 21.6634 13.8953 21.4492 14.1622 21.4492H44.0112C44.2781 21.4492 44.4925 21.6634 44.4925 21.9301C44.4925 22.1967 44.2781 22.4109 44.0112 22.4109Z" fill="#141414"/>
<path d="M506.594 8.72552C517.13 19.253 517.13 36.3214 506.594 46.8488C496.058 57.3763 478.976 57.3763 468.44 46.8488C457.904 36.3214 457.904 19.253 468.44 8.72551C478.976 -1.80195 496.058 -1.80194 506.594 8.72552Z" fill="white" stroke="#141414" stroke-width="0.7"/>
<path d="M473.811 27.0667C473.68 27.0448 473.547 27.0142 473.415 26.9749C471.65 26.435 470.655 24.5683 471.195 22.8044C471.735 21.0404 473.604 20.0459 475.369 20.5858L473.811 27.0667ZM473.811 27.0667C473.739 28.4087 473.866 29.7727 474.203 31.1126L473.811 27.0667ZM478.571 17.854L478.802 17.6468L478.624 17.3926C478.554 17.2922 478.489 17.1906 478.432 17.083C477.655 15.6257 478.209 13.8162 479.668 13.0413L479.668 13.0412C481.127 12.2644 482.938 12.818 483.714 14.2754C483.769 14.3808 483.818 14.4923 483.863 14.607L483.974 14.8952L484.274 14.8205C485.581 14.4945 486.909 14.371 488.22 14.4413L488.533 14.4581L488.584 14.1485C488.603 14.031 488.63 13.9149 488.665 13.7979C489.149 12.219 490.822 11.3291 492.402 11.8123C493.983 12.2958 494.873 13.9672 494.39 15.5456L494.389 15.5474C494.355 15.6598 494.311 15.7719 494.26 15.8856L494.134 16.1693L494.4 16.3288C495.526 17.0017 496.559 17.8471 497.459 18.8481L497.666 19.0786L497.92 18.901C498.02 18.8307 498.122 18.7664 498.23 18.7087C499.689 17.9322 501.5 18.486 502.275 19.9436L502.275 19.9439C503.053 21.4011 502.499 23.2107 501.04 23.9857C500.935 24.0413 500.823 24.0904 500.708 24.1346L500.419 24.2461L500.495 24.5465C500.823 25.8521 500.947 27.1787 500.876 28.4883L500.859 28.8009L501.168 28.8523C501.285 28.8718 501.404 28.899 501.52 28.9338C503.101 29.4177 503.991 31.0887 503.507 32.6669C503.024 34.2463 501.351 35.1366 499.771 34.6533L499.769 34.6527C499.656 34.619 499.544 34.5748 499.43 34.5241L499.147 34.3977L498.987 34.6639C498.314 35.7882 497.468 36.821 496.466 37.7198L496.235 37.927L496.413 38.1811C496.483 38.2816 496.548 38.3833 496.606 38.4909C497.382 39.9482 496.828 41.7576 495.37 42.5324L495.369 42.5326C493.91 43.3094 492.099 42.7558 491.324 41.2986C491.268 41.1931 491.219 41.0815 491.175 40.9668L491.063 40.6785L490.763 40.7533C489.456 41.0792 488.128 41.2027 486.818 41.1325L486.504 41.1157L486.453 41.4253C486.434 41.5427 486.407 41.6588 486.372 41.7758C485.888 43.3548 484.216 44.2447 482.636 43.7615C481.054 43.2779 480.164 41.6066 480.647 40.0282L480.648 40.0263C480.682 39.914 480.726 39.8018 480.777 39.6881L480.903 39.4044L480.637 39.245C479.512 38.5721 478.478 37.7266 477.578 36.7256L477.371 36.4952L477.117 36.6728C477.017 36.7431 476.915 36.8074 476.807 36.8651C475.348 37.6416 473.537 37.0877 472.762 35.6302L472.762 35.6298C471.985 34.1726 472.538 32.3631 473.997 31.5881C474.103 31.5325 474.214 31.4834 474.329 31.4391L474.618 31.3277L474.542 31.0272C474.214 29.7217 474.091 28.3929 474.161 27.0855L474.178 26.7728L473.869 26.7214C473.752 26.702 473.633 26.6747 473.517 26.6399C471.936 26.156 471.046 24.485 471.53 22.9069C472.014 21.3275 473.686 20.4372 475.267 20.9205L475.268 20.9211C475.381 20.9548 475.493 20.999 475.607 21.0497L475.89 21.1759L476.05 20.9103C476.725 19.7854 477.57 18.7525 478.571 17.854ZM481.73 30.8618C483.431 34.0575 487.401 35.2696 490.597 33.5703C493.795 31.8709 495.008 27.9038 493.307 24.7099C491.606 21.5141 487.636 20.3019 484.441 22.0013C481.242 23.7007 480.029 27.6679 481.73 30.8618Z" stroke="#141414" stroke-width="0.7"/>
<path d="M444.323 28.5617H127.93C127.663 28.5617 127.449 28.3475 127.449 28.0809C127.449 27.8142 127.663 27.6 127.93 27.6H444.323C444.59 27.6 444.805 27.8142 444.805 28.0809C444.805 28.3475 444.59 28.5617 444.323 28.5617Z" fill="#141414"/>
<path d="M441.134 24.1486L440.478 24.8525L443.954 28.0809L440.478 31.3093L441.134 32.0131L445.367 28.0809L441.134 24.1486Z" fill="#141414"/>
<path d="M443.562 364.421C444.961 353.065 436.882 342.726 425.517 341.327C414.152 339.929 403.805 348.001 402.405 359.357C401.006 370.713 409.084 381.052 420.449 382.451C431.814 383.849 442.162 375.777 443.562 364.421Z" fill="#141414"/>
<path d="M456.342 230.448H570.715V121.438L456.342 121.438V230.448Z" fill="white"/>
<path d="M570.715 230.929H456.342C456.075 230.929 455.86 230.715 455.86 230.448V121.438C455.86 121.172 456.075 120.957 456.342 120.957H570.715C570.982 120.957 571.197 121.172 571.197 121.438V230.448C571.197 230.715 570.982 230.929 570.715 230.929ZM456.823 229.967H570.234V121.919H456.823V229.967Z" fill="#141414"/>
<path d="M553.434 169.545V212.662H473.621L553.434 169.545Z" fill="white"/>
<path d="M553.434 213.143H473.621C473.354 213.143 473.14 212.929 473.14 212.662C473.14 212.396 473.354 212.181 473.621 212.181H552.952V169.543C552.952 169.276 553.167 169.062 553.434 169.062C553.701 169.062 553.915 169.276 553.915 169.543V212.662C553.915 212.929 553.701 213.143 553.434 213.143Z" fill="#141414"/>
<path d="M537.933 207.019C537.666 207.019 537.452 206.804 537.452 206.538V175.598C537.452 175.331 537.666 175.117 537.933 175.117C538.2 175.117 538.414 175.331 538.414 175.598V206.538C538.414 206.804 538.2 207.019 537.933 207.019Z" fill="#141414"/>
<path d="M522.434 207.019C522.167 207.019 521.953 206.804 521.953 206.538V181.659C521.953 181.392 522.167 181.178 522.434 181.178C522.701 181.178 522.915 181.392 522.915 181.659V206.538C522.915 206.804 522.701 207.019 522.434 207.019Z" fill="#141414"/>
<path d="M506.933 207.019C506.666 207.019 506.452 206.804 506.452 206.538V156.783C506.452 156.516 506.666 156.302 506.933 156.302C507.2 156.302 507.414 156.516 507.414 156.783V206.538C507.414 206.804 507.2 207.019 506.933 207.019Z" fill="#141414"/>
<path d="M491.432 207.019C491.165 207.019 490.951 206.804 490.951 206.538V161.121C490.951 160.855 491.165 160.64 491.432 160.64C491.699 160.64 491.913 160.855 491.913 161.121V206.538C491.913 206.804 491.699 207.019 491.432 207.019Z" fill="#141414"/>
<path d="M475.931 207.019C475.664 207.019 475.45 206.804 475.45 206.538V139.224C475.45 138.957 475.664 138.743 475.931 138.743C476.198 138.743 476.412 138.957 476.412 139.224V206.538C476.412 206.804 476.198 207.019 475.931 207.019Z" fill="#141414"/>
<path d="M570.039 152.823C584.476 138.398 584.476 115.01 570.039 100.585C555.603 86.16 532.196 86.16 517.76 100.585C503.323 115.01 503.323 138.398 517.76 152.823C532.196 167.248 555.603 167.248 570.039 152.823Z" fill="white"/>
<path d="M543.898 164.12C523.25 164.12 506.452 147.336 506.452 126.702C506.452 106.068 523.25 89.2852 543.898 89.2852C564.546 89.2852 581.347 106.07 581.347 126.702C581.347 147.333 564.549 164.12 543.898 164.12ZM543.898 90.247C523.779 90.247 507.412 106.601 507.412 126.704C507.412 146.807 523.779 163.161 543.898 163.161C564.017 163.161 580.384 146.807 580.384 126.704C580.384 106.601 564.017 90.247 543.898 90.247Z" fill="#141414"/>
<path d="M527.776 139.397L540.348 119.764L548.3 132.177L562.339 109.237L527.776 139.397Z" fill="white"/>
<path d="M527.774 139.878C527.684 139.878 527.594 139.854 527.516 139.801C527.292 139.657 527.227 139.36 527.369 139.137L539.943 119.504C540.12 119.228 540.577 119.228 540.755 119.504L548.291 131.27L561.385 109.873C561.523 109.646 561.819 109.576 562.046 109.714C562.274 109.851 562.344 110.149 562.206 110.374L548.709 132.426C548.621 132.568 548.468 132.654 548.302 132.656H548.297C548.133 132.656 547.98 132.573 547.893 132.435L540.348 120.656L528.181 139.655C528.089 139.799 527.933 139.875 527.774 139.875V139.878Z" fill="#141414"/>
<path d="M563.49 114.896L562.545 115.089L561.604 110.442L557.034 111.72L556.774 110.793L562.341 109.237L563.49 114.896Z" fill="#141414"/>
<path d="M563.682 144.649H524.114C523.847 144.649 523.633 144.435 523.633 144.168V109.235C523.633 108.968 523.847 108.754 524.114 108.754C524.381 108.754 524.595 108.968 524.595 109.235V143.687H563.682C563.949 143.687 564.164 143.902 564.164 144.168C564.164 144.435 563.949 144.649 563.682 144.649Z" fill="#141414"/>
<path d="M291.707 322.107H67.033V399.519H291.707V322.107Z" fill="white"/>
<path d="M291.707 400H67.033C66.7661 400 66.5517 399.786 66.5517 399.519V322.107C66.5517 321.84 66.7661 321.626 67.033 321.626H291.707C291.974 321.626 292.188 321.84 292.188 322.107V399.519C292.188 399.786 291.974 400 291.707 400ZM67.5142 399.038H291.226V322.588H67.5142V399.038Z" fill="#141414"/>
<path opacity="0.1" d="M149.639 358.026H134.781V380.71H149.639V358.026Z" fill="#141414"/>
<path opacity="0.1" d="M174.546 351.137H159.689V380.708H174.546V351.137Z" fill="#141414"/>
<path opacity="0.1" d="M199.454 340.918H184.596V380.708H199.454V340.918Z" fill="#141414"/>
<path opacity="0.1" d="M224.361 358.026H209.503V380.71H224.361V358.026Z" fill="#141414"/>
<path opacity="0.1" d="M249.269 349.626H234.411V380.708H249.269V349.626Z" fill="#141414"/>
<path opacity="0.1" d="M274.176 356.356H259.318V380.71H274.176V356.356Z" fill="#141414"/>
<path d="M149.639 388.372H134.781C134.514 388.372 134.3 388.157 134.3 387.891V333.736C134.3 333.469 134.514 333.255 134.781 333.255H149.639C149.906 333.255 150.12 333.469 150.12 333.736V387.891C150.12 388.157 149.906 388.372 149.639 388.372ZM135.263 387.41H149.158V334.216H135.263V387.41Z" fill="#141414"/>
<path d="M174.546 388.372H159.691C159.424 388.372 159.21 388.157 159.21 387.891V333.736C159.21 333.469 159.424 333.255 159.691 333.255H174.546C174.813 333.255 175.028 333.469 175.028 333.736V387.891C175.028 388.157 174.813 388.372 174.546 388.372ZM160.17 387.41H174.065V334.216H160.17V387.41Z" fill="#141414"/>
<path d="M199.454 388.372H184.596C184.329 388.372 184.115 388.157 184.115 387.891V333.736C184.115 333.469 184.329 333.255 184.596 333.255H199.454C199.721 333.255 199.935 333.469 199.935 333.736V387.891C199.935 388.157 199.721 388.372 199.454 388.372ZM185.077 387.41H198.973V334.216H185.077V387.41Z" fill="#141414"/>
<path d="M224.361 388.372H209.503C209.237 388.372 209.022 388.157 209.022 387.891V333.736C209.022 333.469 209.237 333.255 209.503 333.255H224.361C224.628 333.255 224.842 333.469 224.842 333.736V387.891C224.842 388.157 224.628 388.372 224.361 388.372ZM209.985 387.41H223.88V334.216H209.985V387.41Z" fill="#141414"/>
<path d="M249.266 388.372H234.411C234.144 388.372 233.93 388.157 233.93 387.891V333.736C233.93 333.469 234.144 333.255 234.411 333.255H249.266C249.533 333.255 249.748 333.469 249.748 333.736V387.891C249.748 388.157 249.533 388.372 249.266 388.372ZM234.892 387.41H248.787V334.216H234.892V387.41Z" fill="#141414"/>
<path d="M274.174 388.372H259.316C259.049 388.372 258.835 388.157 258.835 387.891V333.736C258.835 333.469 259.049 333.255 259.316 333.255H274.174C274.441 333.255 274.655 333.469 274.655 333.736V387.891C274.655 388.157 274.441 388.372 274.174 388.372ZM259.797 387.41H273.693V334.216H259.797V387.41Z" fill="#141414"/>
<path d="M109.021 277.482V273.558C109.021 271.558 107.398 269.937 105.396 269.937H83.9164C81.9148 269.937 80.2917 271.558 80.2917 273.558V277.484H21.9301V338.54C21.9301 342.299 24.9796 345.346 28.7422 345.346H119.134V277.484H109.021V277.482Z" fill="white"/>
<path d="M119.134 345.825H28.7443C24.7236 345.825 21.4511 342.555 21.4511 338.538V277.482C21.4511 277.215 21.6655 277.001 21.9323 277.001H79.8126V273.556C79.8126 271.294 81.6545 269.454 83.9186 269.454H105.398C107.662 269.454 109.504 271.294 109.504 273.556V277.001H119.138C119.405 277.001 119.619 277.215 119.619 277.482V345.344C119.619 345.611 119.405 345.825 119.138 345.825H119.134ZM22.4114 277.963V338.538C22.4114 342.026 25.2508 344.863 28.7422 344.863H118.652V277.963H109.019C108.752 277.963 108.537 277.749 108.537 277.482V273.558C108.537 271.827 107.126 270.417 105.394 270.417H83.9142C82.1817 270.417 80.7707 271.827 80.7707 273.558V277.482C80.7707 277.749 80.5564 277.963 80.2895 277.963H22.4114Z" fill="#141414"/>
<path d="M119.134 285.792V345.344L128.245 285.792H119.134Z" fill="white"/>
<path d="M119.611 345.416L118.655 345.344V285.311H128.807L119.611 345.416ZM119.617 286.273V339.019L127.687 286.273H119.617Z" fill="#141414"/>
<path d="M423.34 337.781C423.073 337.781 422.859 337.567 422.859 337.301V293.388C422.859 293.121 423.073 292.907 423.34 292.907H491.537C491.804 292.907 492.018 293.121 492.018 293.388C492.018 293.655 491.804 293.869 491.537 293.869H423.822V337.301C423.822 337.567 423.607 337.781 423.34 337.781Z" fill="#141414"/>
<path d="M501.195 294.083C501.549 289.808 498.368 286.056 494.09 285.702C489.812 285.349 486.057 288.527 485.703 292.802C485.349 297.076 488.53 300.828 492.808 301.182C497.086 301.536 500.841 298.357 501.195 294.083Z" fill="#141414"/>
<path d="M593.411 293.93H506.933C506.666 293.93 506.452 293.716 506.452 293.449C506.452 293.183 506.666 292.968 506.933 292.968H593.411C593.678 292.968 593.892 293.183 593.892 293.449C593.892 293.716 593.678 293.93 593.411 293.93Z" fill="#141414"/>
<path d="M593.411 303.541H543.093C542.826 303.541 542.612 303.327 542.612 303.06C542.612 302.793 542.826 302.579 543.093 302.579H593.411C593.678 302.579 593.892 302.793 593.892 303.06C593.892 303.327 593.678 303.541 593.411 303.541Z" fill="#141414"/>
<path d="M526.652 303.541H506.933C506.666 303.541 506.452 303.327 506.452 303.06C506.452 302.793 506.666 302.579 506.933 302.579H526.652C526.918 302.579 527.133 302.793 527.133 303.06C527.133 303.327 526.918 303.541 526.652 303.541Z" fill="#141414"/>
<path d="M593.411 313.152H572.549C572.282 313.152 572.067 312.938 572.067 312.671C572.067 312.404 572.282 312.19 572.549 312.19H593.411C593.678 312.19 593.892 312.404 593.892 312.671C593.892 312.938 593.678 313.152 593.411 313.152Z" fill="#141414"/>
<path d="M557.133 313.152H506.933C506.666 313.152 506.452 312.938 506.452 312.671C506.452 312.404 506.666 312.19 506.933 312.19H557.133C557.4 312.19 557.614 312.404 557.614 312.671C557.614 312.938 557.4 313.152 557.133 313.152Z" fill="#141414"/>
<path d="M593.411 322.763H543.093C542.826 322.763 542.612 322.549 542.612 322.282C542.612 322.015 542.826 321.801 543.093 321.801H593.411C593.678 321.801 593.892 322.015 593.892 322.282C593.892 322.549 593.678 322.763 593.411 322.763Z" fill="#141414"/>
<path d="M523.403 322.763H506.933C506.666 322.763 506.452 322.549 506.452 322.282C506.452 322.015 506.666 321.801 506.933 321.801H523.403C523.67 321.801 523.884 322.015 523.884 322.282C523.884 322.549 523.67 322.763 523.403 322.763Z" fill="#141414"/>
</g>
<defs>
<linearGradient id="paint0_linear_11_4" x1="260.529" y1="288.459" x2="260.529" y2="143.466" gradientUnits="userSpaceOnUse">
<stop stop-color="#DC1D47"/>
<stop offset="1" stop-color="#E54327"/>
</linearGradient>
<clipPath id="clip0_11_4">
<rect width="600" height="400" fill="white"/>
</clipPath>
</defs>
</svg>
