<svg width="600" height="400" viewBox="0 0 600 400" fill="none" xmlns="http://www.w3.org/2000/svg">
<path d="M543.009 399.259H415.873C417.507 352.949 422.577 307.345 427.248 273.275C429.592 256.177 431.835 241.985 433.492 232.068C434.321 227.11 435.003 223.22 435.478 220.571C435.715 219.246 435.901 218.231 436.027 217.548C436.067 217.33 436.101 217.146 436.129 216.996L504.266 228.708C512.756 252.989 527.924 324.628 543.009 399.259Z" fill="white" stroke="#141414"/>
<path d="M470.511 399.178C470.258 399.178 470.044 398.99 470.024 398.742L462.659 311.494C461.975 307.676 459.575 304.469 456.402 303.168L451.299 301.072C451.05 300.971 450.934 300.69 451.038 300.448C451.143 300.207 451.432 300.092 451.681 300.196L456.784 302.291C460.26 303.718 462.882 307.197 463.629 311.374L470.998 398.664C471.021 398.925 470.82 399.156 470.551 399.175C470.538 399.175 470.525 399.175 470.511 399.175V399.178Z" fill="#141414"/>
<path d="M466.86 106.899L476.502 135.065C477.118 136.865 478.649 138.199 480.519 138.562L484.811 139.395C484.811 139.395 473.65 163.605 454.842 159.55C453.163 159.187 445.453 158.104 442.284 151.95C441.217 149.876 440.979 147.853 440.955 146.447C443.356 145.222 445.754 143.999 448.155 142.775C448.814 141.974 449.474 141.174 450.132 140.373C447.786 132.572 445.439 124.768 443.095 116.966C443.095 116.966 461.322 102.286 466.863 106.897L466.86 106.899Z" fill="white"/>
<path d="M459.023 160.488C457.643 160.488 456.216 160.341 454.742 160.024C454.624 159.998 454.475 159.97 454.3 159.935C451.976 159.48 444.904 158.093 441.856 152.172C440.972 150.46 440.508 148.537 440.471 146.457C440.467 146.274 440.57 146.103 440.734 146.02L447.845 142.394L449.594 140.268L442.632 117.106C442.575 116.918 442.638 116.714 442.791 116.592C443.548 115.982 461.389 101.719 467.167 106.527C467.234 106.584 467.285 106.658 467.315 106.741L476.956 134.907C477.514 136.539 478.914 137.759 480.61 138.087L484.903 138.921C485.047 138.949 485.172 139.043 485.24 139.174C485.307 139.305 485.31 139.461 485.248 139.596C485.143 139.824 475.415 160.486 459.023 160.486V160.488ZM441.444 146.742C441.514 148.557 441.941 150.235 442.713 151.733C445.549 157.24 452.275 158.557 454.486 158.99C454.667 159.025 454.823 159.055 454.945 159.082C471.577 162.669 482.288 143.312 484.1 139.749L480.427 139.036C478.395 138.641 476.716 137.18 476.047 135.222L466.451 107.189C462.115 103.898 448.794 113.051 443.651 117.143L450.594 140.239C450.64 140.392 450.607 140.561 450.504 140.683L448.527 143.085C448.486 143.135 448.433 143.177 448.374 143.207L441.444 146.742Z" fill="#141414"/>
<path d="M426.24 71.8805C424.594 80.0057 430.924 87.3742 436.4 88.7324C436.594 88.7806 436.789 88.8243 436.979 88.8658C437.095 89.2683 437.239 89.6707 437.423 90.0688C439.577 94.7777 445.741 97.0698 450.917 96.5996C452.417 98.205 454.372 100.438 456.445 103.264C463.064 112.286 467.763 108.229 474.641 99.2963C475.557 98.1065 476.878 96.5887 477.562 94.0713C478.922 89.0714 476.569 84.5681 476.27 84.0148C474.026 79.8658 471.138 80.021 464.79 75.7605C455.137 69.2822 454.969 64.3305 446.673 61.5331C444.477 60.7917 441.713 59.8971 438.263 60.5292C433.242 61.45 427.543 65.4634 426.242 71.8827L426.24 71.8805Z" fill="#141414"/>
<path d="M460.292 111.279C460.292 111.279 455.621 122.058 443.386 120.065C431.152 118.075 430.843 102.524 431.934 86.0005C433.157 87.5621 435.895 88.7629 438.057 89.6815C446.856 93.4193 454.768 88.5179 455.933 87.8902C453.839 90.4645 453.834 93.9573 455.599 96.3238C456.574 97.6295 457.976 98.5722 461.225 98.6269C461.225 98.6269 463.209 93.4499 467.825 96.455C472.441 99.4602 470.724 112.137 460.292 111.275V111.279Z" fill="white"/>
<path d="M446.305 120.792C445.359 120.792 444.361 120.713 443.31 120.542C430.401 118.443 430.423 101.595 431.455 85.9701C431.469 85.7711 431.604 85.6005 431.794 85.5415C431.985 85.4824 432.192 85.548 432.315 85.7055C433.507 87.2256 436.358 88.4394 438.245 89.2399C441.954 90.8147 447.952 91.8098 455.465 87.6017L455.704 87.4705C455.905 87.3612 456.156 87.4115 456.303 87.5886C456.449 87.7658 456.449 88.0217 456.305 88.1988C454.409 90.5281 454.276 93.752 455.984 96.0419C456.751 97.0699 457.884 98.03 460.915 98.1438C461.251 97.4417 462.207 95.786 463.926 95.2283C465.201 94.8149 466.602 95.0927 468.087 96.0594C470.554 97.6648 471.437 101.735 470.138 105.528C468.704 109.72 465.142 112.043 460.58 111.787C459.756 113.408 455.487 120.796 446.303 120.796L446.305 120.792ZM432.345 87.1162C431.414 102.004 431.639 117.666 443.463 119.591C444.479 119.757 445.444 119.831 446.356 119.831C455.92 119.831 459.679 111.477 459.85 111.087C459.933 110.899 460.132 110.783 460.331 110.799C466.467 111.304 468.597 107.059 469.229 105.21C470.368 101.879 469.635 98.2116 467.562 96.8621C466.336 96.0616 465.212 95.8188 464.225 96.1403C462.5 96.7003 461.684 98.7824 461.676 98.8021C461.604 98.988 461.426 99.1105 461.225 99.1105C461.223 99.1105 461.219 99.1105 461.216 99.1105C458.278 99.0602 456.482 98.3144 455.212 96.6128C453.605 94.4584 453.401 91.5955 454.56 89.1634C447.346 92.7131 441.545 91.6873 437.869 90.1257C435.807 89.2508 433.717 88.3016 432.345 87.1162Z" fill="#141414"/>
<path d="M461.011 106.889C460.959 106.889 460.906 106.88 460.856 106.863C460.605 106.778 460.469 106.502 460.556 106.251C460.83 105.45 461.142 104.541 461.691 103.775C462.343 102.868 463.25 102.31 464.18 102.247C464.447 102.227 464.674 102.428 464.694 102.695C464.711 102.96 464.512 103.189 464.245 103.209C463.613 103.253 462.951 103.675 462.472 104.337C462.004 104.989 461.731 105.789 461.466 106.563C461.398 106.762 461.21 106.889 461.011 106.889Z" fill="#141414"/>
<path d="M458.052 94.1018C458.052 94.1018 456.06 102.75 451.744 106.372C447.43 109.994 441.116 102.155 431.285 102.094C431.285 102.094 431.014 117.327 433.205 120.68C435.971 124.912 457.921 126.36 460.493 111.647C460.493 111.647 458.157 104.569 461.427 98.9988L458.052 94.1018Z" fill="#141414"/>
<path d="M421.336 330.663L354.456 354.013L292.25 282.577L359.131 259.227L421.336 330.663Z" fill="#141414"/>
<path d="M399.217 270.856L378.726 281.77L380.737 284.128C380.737 284.128 350.92 292.638 352.984 298.521C354.324 302.34 361.348 300.336 361.348 300.336C361.348 300.336 352.942 303.805 354.6 307.106C356.257 310.406 366.935 307.208 366.935 307.208C366.935 307.208 359.478 308.849 361.25 313.153C363.021 317.46 383.565 310.039 383.565 310.039C383.565 310.039 368.872 313.486 370.309 317.092C372.161 321.738 403.234 314.828 422.119 300.586C422.119 300.586 411.876 281.291 399.213 270.856H399.217Z" fill="white"/>
<path d="M380.72 284.23C380.521 284.23 380.335 284.105 380.265 283.906C380.177 283.654 380.309 283.381 380.56 283.291L381.61 282.924C383.215 282.363 384.796 281.805 386.355 281.251L388.115 280.626C388.364 280.536 388.64 280.667 388.73 280.919C388.819 281.17 388.688 281.444 388.437 281.533L386.676 282.159C385.116 282.714 383.533 283.273 381.927 283.834L380.877 284.201C380.825 284.219 380.77 284.227 380.718 284.227L380.72 284.23Z" fill="#141414"/>
<path d="M404.012 311.132C403.807 311.132 403.617 311.001 403.553 310.795C403.475 310.541 403.615 310.27 403.868 310.191C410.24 308.195 416.805 305.207 421.954 301.968C420.426 299.087 410.549 280.965 399.158 271.435L378.953 282.198C378.719 282.323 378.426 282.235 378.301 281.999C378.177 281.765 378.264 281.472 378.5 281.347L398.99 270.433C399.16 270.342 399.372 270.364 399.521 270.486C412.116 280.864 422.906 301.707 423.013 301.915C423.126 302.136 423.052 302.407 422.844 302.541C417.572 305.916 410.761 309.039 404.155 311.11C404.107 311.125 404.058 311.132 404.01 311.132H404.012Z" fill="#141414"/>
<path d="M364.956 308.087C364.752 308.087 364.562 307.956 364.497 307.753C364.416 307.499 364.556 307.228 364.809 307.147C365.647 306.88 366.567 306.591 367.536 306.29C371.772 304.962 377.042 303.313 380.543 301.852C380.787 301.749 381.07 301.865 381.172 302.11C381.275 302.355 381.159 302.637 380.914 302.74C377.372 304.216 372.078 305.876 367.825 307.208C366.858 307.512 365.94 307.799 365.104 308.066C365.056 308.081 365.006 308.087 364.958 308.087H364.956Z" fill="#141414"/>
<path d="M373.95 313.693C373.747 313.693 373.556 313.562 373.491 313.358C373.41 313.105 373.55 312.833 373.803 312.753C374.514 312.527 375.29 312.282 376.113 312.026C379.703 310.902 384.173 309.502 387.14 308.265C387.385 308.162 387.667 308.278 387.77 308.523C387.873 308.768 387.757 309.05 387.512 309.153C384.505 310.406 380.011 311.814 376.401 312.945C375.583 313.201 374.805 313.444 374.096 313.671C374.048 313.686 373.998 313.693 373.95 313.693Z" fill="#141414"/>
<path d="M361.241 300.863C361.042 300.863 360.856 300.739 360.786 300.54C360.698 300.288 360.83 300.015 361.081 299.925C362.894 299.291 365.164 298.523 367.569 297.712C370.657 296.668 373.849 295.59 376.454 294.663C376.703 294.573 376.978 294.704 377.068 294.956C377.158 295.207 377.026 295.481 376.775 295.57C374.164 296.5 370.967 297.58 367.875 298.624C365.474 299.435 363.204 300.203 361.398 300.835C361.346 300.852 361.291 300.861 361.239 300.861L361.241 300.863Z" fill="#141414"/>
<path d="M293.114 251.559L295.121 250.238C302.65 245.284 311.314 242.327 320.299 241.642L368.96 237.935L369.012 204.242L302.921 208.544C298.342 208.842 293.822 210.683 289.473 212.142L284.037 213.966L272.067 233.679L293.118 251.559H293.114Z" fill="white"/>
<path d="M293.114 252.042C293.002 252.042 292.891 252.003 292.801 251.928L271.75 234.048C271.571 233.895 271.527 233.633 271.649 233.432L283.619 213.719C283.678 213.623 283.77 213.548 283.877 213.513L289.314 211.689C290.055 211.44 290.8 211.182 291.551 210.919C295.224 209.64 299.022 208.319 302.884 208.067L368.975 203.765C369.117 203.756 369.24 203.805 369.336 203.894C369.432 203.986 369.487 204.113 369.487 204.246L369.434 237.939C369.434 238.191 369.24 238.401 368.99 238.418L320.33 242.125C311.449 242.801 302.821 245.747 295.379 250.642L293.372 251.963C293.291 252.016 293.199 252.042 293.107 252.042H293.114ZM272.688 233.58L293.151 250.959L294.857 249.837C302.434 244.853 311.22 241.854 320.262 241.165L368.479 237.491L368.529 204.76L302.952 209.03C299.219 209.272 295.484 210.572 291.872 211.829C291.118 212.092 290.368 212.352 289.624 212.601L284.354 214.368L272.688 233.58Z" fill="#141414"/>
<path d="M516.85 240.383C515.58 242.233 514.02 244.223 509.93 246.174L498.3 249.434C495.32 255.426 490.97 260.747 485.48 264.908C463.59 278.63 441.71 292.363 419.82 306.086C412.11 294.033 404.41 281.981 396.7 269.939C405.16 263.787 413.62 257.626 422.08 251.485C421.47 251.035 420.88 250.545 420.31 249.994C416.61 246.474 415.13 242.143 414.47 239.392C410.95 240.703 407.24 241.583 403.42 241.953L329.76 244.503L325 204.515C349.81 200.995 374.62 197.484 399.43 193.963C402.5 185.131 407.74 174.009 416.84 163.147C421.67 157.376 433.45 143.663 453.84 136.121C464.04 132.341 469.29 130.37 475.95 131.39C502.58 135.451 511.66 180.871 518.99 217.528C520.31 224.079 521.81 233.131 516.85 240.383Z" fill="url(#paint0_linear_32_171)"/>
<path d="M446.367 256.843C443.115 256.843 439.877 256.72 436.513 256.466C432.66 256.176 425.486 255.635 420.061 250.458C417.268 247.794 415.302 244.323 414.211 240.137C410.763 241.38 407.179 242.189 403.549 242.55L329.859 245.102C329.614 245.106 329.394 244.927 329.365 244.678L324.602 204.688C324.572 204.428 324.753 204.192 325.014 204.154L399.156 193.639C403.138 182.303 408.992 171.979 416.555 162.946C421.005 157.634 432.824 143.525 453.753 135.78L453.983 135.695C464.228 131.902 469.371 129.999 476.104 131.027C503.066 135.141 512.204 180.831 519.547 217.542C520.627 222.944 522.639 232.998 517.33 240.765C516.015 242.69 514.382 244.732 510.216 246.718C509.973 246.834 509.689 246.732 509.573 246.491C509.46 246.25 509.56 245.964 509.801 245.848C513.754 243.965 515.241 242.11 516.534 240.22C521.222 233.364 520.059 225.015 518.602 217.73C511.318 181.312 502.254 135.99 475.959 131.979C469.471 130.99 464.407 132.862 454.318 136.598L454.088 136.683C433.4 144.34 421.699 158.308 417.295 163.565C409.742 172.581 403.914 182.9 399.969 194.234C399.91 194.404 399.762 194.527 399.582 194.553L325.615 205.045L330.27 244.127L403.488 241.592C407.181 241.224 410.857 240.369 414.382 239.052C414.511 239.004 414.655 239.013 414.775 239.079C414.898 239.144 414.985 239.258 415.018 239.391C416.035 243.63 417.955 247.121 420.725 249.765C425.503 254.323 431.416 255.121 436.586 255.511C452.376 256.701 465.516 254.997 489.736 251.108C490.886 250.924 492.01 250.732 493.079 250.539C493.344 250.491 493.591 250.666 493.639 250.929C493.687 251.191 493.512 251.44 493.25 251.489C492.174 251.683 491.043 251.876 489.889 252.059C470.733 255.137 458.481 256.847 446.367 256.849V256.843Z" fill="#141414"/>
<path d="M493.167 251.009C501.413 249.522 506.593 247.917 510.011 246.288L493.167 251.009Z" fill="white"/>
<path d="M414.55 239.982C414.325 239.982 414.122 239.822 414.078 239.591C414.028 239.324 408.981 212.522 413.14 182.524C413.177 182.261 413.415 182.075 413.682 182.112C413.944 182.15 414.13 182.392 414.093 182.655C409.956 212.498 414.974 239.142 415.025 239.407C415.075 239.667 414.904 239.921 414.642 239.971C414.611 239.978 414.581 239.98 414.55 239.98V239.982Z" fill="#141414"/>
<path d="M498.924 248.748C498.861 248.748 498.795 248.735 498.732 248.709C498.487 248.604 498.375 248.319 498.48 248.074C501.257 241.662 502.709 234.429 502.462 228.23L500.525 179.623C500.514 179.357 500.722 179.133 500.986 179.122C501.249 179.112 501.476 179.319 501.487 179.584L503.424 228.191C503.678 234.529 502.198 241.915 499.364 248.455C499.285 248.636 499.108 248.746 498.922 248.746L498.924 248.748Z" fill="#141414"/>
<path d="M419.904 306.684C419.744 306.684 419.589 306.605 419.497 306.461L396.381 270.311C396.243 270.097 396.298 269.813 396.504 269.662L450.185 230.613L447.215 166.626C447.202 166.359 447.408 166.133 447.675 166.122C447.937 166.112 448.164 166.315 448.178 166.582L451.158 230.827C451.165 230.989 451.09 231.144 450.959 231.238L397.433 270.171L420.048 305.538L420.828 305.048C421.054 304.905 421.351 304.975 421.493 305.201C421.635 305.426 421.565 305.723 421.34 305.866L420.155 306.607C420.076 306.657 419.987 306.681 419.899 306.681L419.904 306.684Z" fill="#141414"/>
<path d="M277.671 148.682C266.699 145.876 260.893 140.675 257.832 136.163C258.993 132.467 260.152 128.77 261.422 125.131C266.325 111.092 273.781 96.8336 286.853 89.7385C289.182 88.4743 291.789 87.4442 294.422 87.757C297.054 88.0719 299.628 90.1213 299.733 92.7677C299.965 98.6927 289.659 99.8037 288.546 105.628C292.158 102.54 298.758 104.646 299.91 109.257C303.523 109.712 306.164 113.869 305.04 117.332C307.253 119.3 308.086 122.673 307.041 125.444C305.996 128.215 303.142 130.198 300.181 130.216C299.775 135.743 299.145 141.252 298.303 146.731C293.525 148.986 286.296 150.889 277.674 148.684L277.671 148.682Z" fill="white"/>
<path d="M285.34 150.143C282.917 150.143 280.313 149.854 277.553 149.148C266.062 146.21 260.27 140.611 257.436 136.432C257.353 136.309 257.331 136.158 257.375 136.016C258.523 132.357 259.699 128.606 260.969 124.969C267.272 106.925 275.664 95.2609 286.626 89.3118C288.555 88.2664 291.465 86.9169 294.481 87.2756C297.207 87.6015 300.098 89.7362 300.216 92.7457C300.348 96.1117 297.404 98.0189 294.555 99.8648C292.51 101.19 290.407 102.553 289.458 104.438C291.146 103.572 293.236 103.432 295.301 104.093C297.783 104.886 299.624 106.641 300.293 108.823C302.034 109.143 303.612 110.252 304.662 111.905C305.714 113.561 306.044 115.466 305.589 117.176C307.793 119.309 308.581 122.729 307.494 125.607C306.424 128.442 303.645 130.476 300.632 130.675C300.227 136.031 299.604 141.451 298.78 146.797C298.756 146.954 298.655 147.09 298.509 147.16C295.32 148.664 290.8 150.138 285.34 150.138V150.143ZM277.792 148.214C286.344 150.401 293.392 148.465 297.866 146.401C298.688 141.02 299.305 135.563 299.703 130.179C299.72 129.927 299.928 129.735 300.179 129.732C302.926 129.715 305.622 127.841 306.591 125.271C307.559 122.701 306.772 119.514 304.721 117.688C304.579 117.561 304.524 117.362 304.583 117.178C305.075 115.665 304.806 113.933 303.846 112.421C302.886 110.91 301.43 109.928 299.849 109.729C299.652 109.705 299.49 109.56 299.442 109.368C298.942 107.367 297.284 105.737 295.005 105.009C292.725 104.281 290.427 104.646 288.856 105.989C288.701 106.122 288.478 106.142 288.301 106.039C288.124 105.936 288.032 105.733 288.069 105.532C288.64 102.544 291.38 100.77 294.028 99.0534C296.77 97.2774 299.361 95.5977 299.25 92.7807C299.154 90.3179 296.639 88.5004 294.363 88.2292C291.618 87.9033 288.894 89.1719 287.081 90.1561C276.34 95.987 268.094 107.476 261.875 125.284C260.633 128.842 259.476 132.517 258.359 136.077C261.147 140.097 266.764 145.39 277.787 148.209L277.792 148.214Z" fill="#141414"/>
<path d="M280.145 132.744C279.681 132.744 279.217 132.659 278.767 132.471C278.522 132.368 278.406 132.086 278.509 131.841C278.612 131.596 278.896 131.48 279.139 131.583C280.639 132.213 282.397 131.279 283.359 130.032C284.262 128.86 284.73 127.364 285.183 125.918C285.259 125.671 285.338 125.426 285.417 125.181C285.977 123.449 286.764 121.52 288.367 120.341C289.228 119.707 290.23 119.361 291.196 119.029C291.653 118.871 292.128 118.707 292.569 118.519C293.14 118.274 295.008 117.347 295.056 115.739C295.102 114.237 293.492 113.137 292.53 112.614C289.099 110.753 284.944 110.164 281.129 110.993C277.315 111.822 273.781 114.086 271.433 117.205C271.273 117.417 270.971 117.461 270.759 117.299C270.547 117.139 270.504 116.837 270.665 116.625C273.149 113.327 276.889 110.932 280.925 110.053C284.962 109.176 289.359 109.799 292.989 111.767C294.99 112.852 296.066 114.272 296.02 115.77C295.974 117.24 294.826 118.598 292.95 119.405C292.475 119.608 291.986 119.777 291.511 119.941C290.571 120.265 289.683 120.571 288.94 121.118C287.555 122.135 286.847 123.893 286.333 125.479C286.254 125.721 286.178 125.964 286.103 126.207C285.627 127.734 285.13 129.313 284.122 130.623C283.21 131.806 281.686 132.749 280.147 132.749L280.145 132.744Z" fill="#141414"/>
<path d="M290.65 124.549C289.298 124.549 287.929 124.07 287.031 122.933C286.867 122.725 286.902 122.421 287.109 122.257C287.319 122.093 287.621 122.128 287.785 122.336C288.902 123.748 291.063 123.838 292.53 123.206C293.954 122.594 295.22 121.349 296.401 119.4C298.095 116.601 299.11 113.395 299.333 110.129C299.35 109.864 299.578 109.661 299.847 109.681C300.111 109.698 300.313 109.928 300.295 110.195C300.061 113.613 299.001 116.968 297.225 119.899C295.937 122.025 294.527 123.396 292.911 124.092C292.231 124.385 291.443 124.549 290.65 124.549Z" fill="#141414"/>
<path d="M295.614 128.077C293.18 128.077 290.879 126.576 290.208 124.466C290.127 124.212 290.267 123.941 290.521 123.86C290.777 123.779 291.045 123.921 291.126 124.173C291.721 126.045 293.921 127.322 296.138 127.084C298.087 126.874 300.035 125.623 301.483 123.654C302.757 121.92 303.525 119.945 304.395 117.539C304.487 117.29 304.76 117.161 305.012 117.25C305.261 117.34 305.39 117.618 305.301 117.867C304.594 119.816 303.717 122.241 302.259 124.225C300.652 126.412 298.458 127.803 296.241 128.042C296.031 128.064 295.821 128.075 295.611 128.075L295.614 128.077Z" fill="#141414"/>
<path d="M299.578 130.495C297.933 130.495 296.285 129.649 295.39 128.265C295.246 128.042 295.311 127.745 295.535 127.6C295.758 127.456 296.055 127.519 296.201 127.745C297.076 129.098 298.85 129.811 300.417 129.437C300.675 129.376 300.936 129.535 300.997 129.793C301.058 130.051 300.898 130.312 300.64 130.373C300.293 130.456 299.936 130.495 299.578 130.495Z" fill="#141414"/>
<path d="M181.037 131.417C182.36 130.656 187.735 134.641 189.056 135.373C194.783 138.553 200.512 141.731 206.239 144.911C219.241 152.129 232.241 159.344 245.243 166.562C251.195 157.293 254.517 146.725 257.832 136.163C260.893 140.677 266.699 145.876 277.672 148.682C286.294 150.887 293.523 148.984 298.301 146.729C295.73 163.426 291.151 179.814 284.674 195.419C281.645 202.715 277.971 210.134 271.643 214.869C265.319 219.605 256.942 221.061 249.111 220.003C241.281 218.946 232.114 216.013 225.392 211.864C208.43 201.397 193.672 193.508 185.612 175.33C181.582 166.24 182.034 148.122 180.893 138.241C180.738 136.889 179.579 132.254 181.037 131.415V131.417Z" fill="url(#paint1_linear_32_171)"/>
<path d="M253.935 220.812C252.323 220.812 250.69 220.702 249.047 220.482C240.67 219.351 231.51 216.206 225.14 212.275C223.806 211.451 222.486 210.644 221.18 209.845C205.878 200.489 192.661 192.41 185.174 175.527C182.281 169.005 181.684 158.152 181.157 148.579C180.947 144.765 180.748 141.165 180.418 138.3C180.389 138.061 180.33 137.718 180.26 137.311C179.782 134.551 179.43 131.788 180.801 131.001C181.99 130.317 184.737 131.996 187.936 134.092C188.515 134.472 189.016 134.8 189.294 134.953L245.085 165.921C250.86 156.779 254.173 146.228 257.377 136.018C257.431 135.841 257.582 135.712 257.766 135.686C257.952 135.658 258.131 135.738 258.234 135.892C260.976 139.933 266.596 145.351 277.794 148.216C286.495 150.44 293.639 148.4 298.097 146.294C298.259 146.217 298.447 146.237 298.592 146.344C298.734 146.451 298.806 146.626 298.78 146.803C296.197 163.572 291.601 179.991 285.119 195.605C282.058 202.976 278.345 210.458 271.933 215.256C267.099 218.874 260.724 220.814 253.937 220.814L253.935 220.812ZM181.277 131.832C180.376 132.351 180.958 135.71 181.205 137.143C181.279 137.571 181.343 137.932 181.371 138.184C181.706 141.077 181.905 144.693 182.115 148.522C182.637 158.015 183.23 168.773 186.051 175.133C193.416 191.742 206.514 199.75 221.679 209.021C222.984 209.819 224.307 210.628 225.643 211.453C231.906 215.318 240.922 218.41 249.174 219.524C257.49 220.646 265.575 218.808 271.354 214.482C277.58 209.824 281.22 202.477 284.227 195.231C290.566 179.963 295.093 163.922 297.686 147.534C293.05 149.561 286.016 151.309 277.551 149.146C266.777 146.39 261.013 141.298 258 137.228C254.82 147.35 251.466 157.756 245.647 166.818C245.509 167.032 245.232 167.102 245.009 166.98L188.819 135.791C188.511 135.62 188.021 135.299 187.4 134.892C186.075 134.024 182.045 131.388 181.273 131.83L181.277 131.832Z" fill="#141414"/>
<path d="M237.659 175.811C237.533 175.811 237.406 175.761 237.312 175.662C237.128 175.47 237.135 175.166 237.327 174.982C239.437 172.964 241.359 170.728 243.041 168.34C243.194 168.123 243.494 168.071 243.712 168.224C243.929 168.377 243.981 168.677 243.828 168.895C242.109 171.334 240.148 173.618 237.992 175.678C237.898 175.767 237.78 175.811 237.659 175.811Z" fill="#141414"/>
<path d="M184.886 122.537C187.101 123.114 188.826 124.833 189.423 127.042C198.161 159.436 215.045 211.932 222.521 244.7C223.822 250.401 224.714 256.429 223.055 262.037C221.544 267.146 218.012 271.47 213.866 274.817C209.72 278.163 204.951 280.639 200.219 283.088C193.665 268.273 191.778 229.094 186.532 213.767C181.45 198.916 176.353 184.019 173.145 168.655C170.897 157.894 135.269 158.85 135.582 147.844C135.67 144.721 124.476 127.886 126.566 125.327C131.567 119.208 180.584 121.41 184.886 122.535V122.537Z" fill="white"/>
<path d="M204.141 281.535C205.913 311.192 207.636 352.457 207.457 399.016L68.3525 398.888C88.5897 325.647 107.339 261.303 117.112 237.601L200.583 234.178C200.593 234.282 200.605 234.404 200.619 234.542C200.672 235.094 200.75 235.915 200.85 236.995C201.049 239.153 201.332 242.341 201.672 246.46C202.351 254.697 203.252 266.654 204.141 281.535Z" fill="white" stroke="#141414"/>
<path d="M144.978 400C144.941 400 144.904 399.996 144.867 399.987C144.609 399.926 144.449 399.665 144.51 399.407L169.902 293.202C171.267 288.609 174.752 285.096 179.003 284.012L185.283 282.411C185.541 282.345 185.804 282.5 185.869 282.758C185.935 283.016 185.78 283.279 185.522 283.344L179.242 284.945C175.316 285.947 172.093 289.206 170.831 293.451L145.446 399.63C145.394 399.851 145.197 400 144.978 400Z" fill="#141414"/>
<path d="M67.6958 399.871C67.652 399.871 67.6105 399.864 67.5668 399.854C67.3109 399.784 67.16 399.517 67.23 399.261C91.3974 311.806 107.916 257.191 116.324 236.931C116.396 236.758 116.562 236.642 116.748 236.634L201.01 233.178C201.251 233.167 201.485 233.357 201.509 233.611C201.581 234.331 208.799 306.653 208.417 399.16C208.417 399.425 208.2 399.639 207.935 399.639C207.669 399.639 207.454 399.42 207.457 399.156C207.824 310.518 201.209 240.426 200.599 234.158L117.098 237.583C108.668 258.028 92.2043 312.503 68.1594 399.515C68.1003 399.729 67.9079 399.869 67.6958 399.869V399.871Z" fill="#141414"/>
<path d="M200.644 281.785C205.221 279.412 209.767 277.009 213.734 273.816C217.834 270.507 221.286 266.256 222.758 261.284C224.379 255.807 223.517 249.887 222.21 244.198L222.21 244.197C217.594 223.947 209.386 196.183 201.725 170.27C196.99 154.255 192.464 138.948 189.125 126.557C188.572 124.519 186.977 122.934 184.942 122.4C184.501 122.286 183.491 122.149 181.997 122.009C180.516 121.87 178.595 121.73 176.36 121.605L176.113 121.591L175.974 121.387C175.061 120.044 173.895 119.005 172.061 118.252C170.209 117.493 167.66 117.019 163.975 116.855L200.644 281.785ZM200.644 281.785C198.633 277.007 197.06 269.847 195.684 261.773C194.724 256.141 193.864 250.096 193.017 244.14C192.609 241.271 192.204 238.423 191.792 235.652L191.729 235.226H191.297H146.387H145.924L145.889 235.688C145.41 241.924 144.692 247.826 143.696 253.204C143.682 253.28 143.667 253.359 143.652 253.442C143.22 255.77 142.212 261.202 140.174 266.665C138.052 272.354 134.867 277.926 130.192 280.165C127.165 281.61 123.724 282.189 120.154 282.401C117.633 282.55 115.082 282.517 112.579 282.484C111.528 282.47 110.485 282.456 109.457 282.456C108.008 282.456 105.798 282.565 103.209 282.693C102.693 282.719 102.162 282.745 101.618 282.772C98.3396 282.931 94.6037 283.092 91.0284 283.102C87.448 283.113 84.0529 282.972 81.449 282.535C80.1454 282.315 79.0668 282.026 78.2701 281.659C77.4642 281.287 77.0264 280.873 76.8656 280.45C76.7552 280.152 76.5871 279.892 76.4308 279.662C76.401 279.618 76.3715 279.575 76.3423 279.532C76.2107 279.34 76.0854 279.158 75.9669 278.944C75.6964 278.458 75.4625 277.81 75.505 276.742C78.7162 262.362 90.1289 216.536 98.2974 188.486C99.3693 184.809 100.39 181.176 101.378 177.657C103.064 171.653 104.657 165.983 106.25 161.006C107.512 157.063 108.768 153.575 110.064 150.719C111.364 147.854 112.685 145.665 114.061 144.289C114.972 143.378 115.881 142.583 116.761 141.815L116.824 141.76C117.678 141.015 118.51 140.289 119.269 139.519C120.835 137.93 122.107 136.135 122.744 133.483L122.744 133.481C122.892 132.854 123.021 132.173 123.149 131.492C123.198 131.231 123.247 130.969 123.298 130.711C123.482 129.767 123.683 128.851 123.963 128.037C124.526 126.398 125.341 125.342 126.791 125.214L127.002 125.195L127.135 125.032C127.427 124.673 127.943 124.312 128.705 123.966C129.46 123.623 130.42 123.312 131.559 123.034C133.836 122.478 136.778 122.063 140.122 121.764L140.366 121.742L140.498 121.536C142.474 118.464 145.984 117.165 150.249 116.709C153.737 116.337 157.628 116.536 161.437 116.731C162.289 116.775 163.137 116.819 163.975 116.855L200.644 281.785Z" fill="url(#paint2_linear_32_171)" stroke="#141414"/>
<path d="M157.563 151.783C157.429 151.783 157.3 151.726 157.208 151.628L146.102 139.533C145.923 139.336 145.936 139.032 146.13 138.853C146.327 138.674 146.631 138.687 146.811 138.881L157.493 150.513L166.316 136.543C166.386 136.432 166.497 136.355 166.626 136.329C166.755 136.303 166.889 136.329 166.996 136.406L178.664 144.476L180.431 138.114C180.503 137.858 180.768 137.709 181.024 137.779C181.279 137.851 181.43 138.116 181.358 138.372L179.412 145.386C179.37 145.537 179.259 145.657 179.112 145.71C178.966 145.762 178.802 145.742 178.675 145.653L166.863 137.484L157.971 151.56C157.891 151.687 157.757 151.77 157.608 151.783C157.593 151.783 157.58 151.783 157.565 151.783H157.563Z" fill="#141414"/>
<path d="M225.587 203.551H262.29C273.29 203.551 284.155 205.959 294.124 210.609L285.006 213.975L302.578 244.433C305.53 249.549 299.646 255.426 295.275 251.681C295.176 251.596 295.076 251.506 294.977 251.412C296.057 256.69 288.865 258.046 285.222 253.44C286.211 258.271 279.648 260.686 275.253 255.513C276.854 261.062 269.034 263.249 265.457 257.549C261.68 251.533 250.069 231.697 250.069 231.697H224.931L225.589 203.551H225.587Z" fill="white"/>
<path d="M271.024 261.381C268.931 261.381 266.615 260.307 265.045 257.805C261.534 252.206 251.12 234.451 249.789 232.18H224.926C224.797 232.18 224.672 232.128 224.583 232.036C224.493 231.944 224.443 231.817 224.445 231.688L225.103 203.542C225.11 203.28 225.324 203.072 225.584 203.072H262.288C273.283 203.072 284.36 205.528 294.325 210.176C294.5 210.259 294.612 210.438 294.603 210.633C294.594 210.827 294.472 210.998 294.288 211.066L285.703 214.235L302.989 244.199C304.795 247.333 303.538 250.489 301.6 252.097C299.766 253.621 297.463 253.757 295.559 252.508C295.535 254.166 294.684 255.511 293.153 256.222C291.181 257.14 288.115 256.862 285.782 254.754C285.666 256.313 284.78 257.63 283.293 258.354C281.36 259.294 278.47 259.133 275.933 256.906C275.937 258.669 275.001 260.161 273.331 260.909C272.635 261.219 271.844 261.388 271.019 261.388L271.024 261.381ZM225.42 231.216H250.066C250.237 231.216 250.397 231.306 250.482 231.454C250.598 231.653 262.133 251.351 265.861 257.293C267.759 260.318 270.86 260.955 272.942 260.023C274.665 259.251 275.356 257.615 274.787 255.644C274.724 255.425 274.822 255.194 275.023 255.086C275.222 254.979 275.469 255.025 275.618 255.198C278.034 258.041 281.004 258.393 282.878 257.481C284.402 256.738 285.102 255.264 284.748 253.534C284.704 253.315 284.813 253.094 285.016 253C285.218 252.906 285.458 252.963 285.598 253.138C287.676 255.764 290.835 256.232 292.753 255.34C294.225 254.656 294.863 253.258 294.505 251.504C294.463 251.298 294.559 251.088 294.743 250.986C294.929 250.885 295.156 250.913 295.309 251.06C295.401 251.147 295.493 251.233 295.585 251.311C297.559 253.004 299.672 252.44 300.99 251.346C302.624 249.99 303.687 247.322 302.158 244.671L284.586 214.213C284.516 214.091 284.503 213.942 284.551 213.808C284.599 213.675 284.704 213.57 284.837 213.52L292.86 210.558C283.3 206.285 272.756 204.03 262.29 204.03H226.056L225.42 231.214V231.216Z" fill="#141414"/>
<path d="M262.048 234.63L251.962 238.982C249.929 239.859 247.569 238.923 246.69 236.892C245.813 234.86 246.749 232.5 248.783 231.623L258.868 227.27C260.902 226.393 263.261 227.329 264.14 229.361C265.017 231.393 264.081 233.753 262.048 234.63Z" fill="white"/>
<path d="M250.38 239.792C248.641 239.792 246.982 238.777 246.249 237.082C245.774 235.98 245.755 234.759 246.199 233.646C246.643 232.531 247.491 231.656 248.593 231.181L258.678 226.829C260.955 225.847 263.6 226.899 264.582 229.171C265.059 230.271 265.076 231.492 264.633 232.607C264.189 233.723 263.338 234.597 262.238 235.072L252.153 239.424C251.574 239.674 250.972 239.792 250.38 239.792ZM260.454 227.424C259.988 227.424 259.513 227.515 259.061 227.712L248.976 232.062C248.11 232.436 247.443 233.123 247.095 234C246.748 234.875 246.763 235.833 247.135 236.699C247.906 238.484 249.986 239.311 251.773 238.539L261.858 234.186C262.724 233.812 263.393 233.125 263.738 232.251C264.086 231.376 264.071 230.418 263.699 229.552C263.124 228.22 261.82 227.424 260.454 227.424Z" fill="#141414"/>
<path d="M266.06 241.45L255.975 245.802C253.942 246.679 251.582 245.743 250.703 243.711C249.826 241.68 250.762 239.32 252.796 238.443L262.881 234.09C264.914 233.213 267.274 234.149 268.153 236.181C269.03 238.213 268.094 240.573 266.06 241.45Z" fill="white"/>
<path d="M254.392 246.611C252.653 246.611 250.994 245.596 250.261 243.901C249.787 242.799 249.767 241.581 250.211 240.465C250.655 239.35 251.503 238.475 252.605 238L262.69 233.648C264.967 232.668 267.615 233.718 268.594 235.99C269.071 237.091 269.089 238.311 268.645 239.426C268.201 240.542 267.35 241.417 266.25 241.891L256.165 246.244C255.586 246.493 254.984 246.611 254.392 246.611ZM264.466 234.243C264 234.243 263.526 234.335 263.073 234.532L252.988 238.884C252.122 239.258 251.455 239.945 251.107 240.82C250.76 241.695 250.775 242.652 251.147 243.519C251.919 245.305 254 246.13 255.785 245.358L265.87 241.006C266.736 240.632 267.403 239.945 267.75 239.068C268.098 238.193 268.083 237.235 267.711 236.369C267.136 235.037 265.833 234.241 264.466 234.241V234.243Z" fill="#141414"/>
<path d="M270.659 248.271L260.574 252.622C258.54 253.499 256.181 252.563 255.302 250.531C254.425 248.499 255.361 246.139 257.394 245.262L267.479 240.909C269.513 240.032 271.872 240.968 272.752 243C273.631 245.032 272.693 247.392 270.659 248.269V248.271Z" fill="white"/>
<path d="M258.99 253.431C257.252 253.431 255.592 252.416 254.86 250.721C254.383 249.621 254.365 248.4 254.809 247.285C255.251 246.169 256.102 245.295 257.204 244.82L267.289 240.47C269.565 239.488 272.211 240.54 273.193 242.812C273.67 243.912 273.687 245.133 273.243 246.248C272.801 247.364 271.951 248.238 270.849 248.713L260.764 253.066C260.184 253.315 259.583 253.433 258.99 253.433V253.431ZM269.064 241.062C268.599 241.062 268.126 241.154 267.671 241.351L257.586 245.704C256.72 246.078 256.054 246.764 255.706 247.641C255.358 248.516 255.373 249.474 255.745 250.34C256.515 252.125 258.597 252.952 260.383 252.18L270.468 247.827C271.334 247.453 272.001 246.767 272.349 245.89C272.697 245.015 272.681 244.057 272.309 243.191C271.734 241.859 270.431 241.062 269.064 241.062Z" fill="#141414"/>
<path d="M274.446 253.848L266.13 257.435C264.453 258.159 262.507 257.387 261.785 255.712C261.062 254.037 261.834 252.092 263.511 251.368L271.827 247.781C273.504 247.057 275.45 247.829 276.172 249.505C276.893 251.18 276.124 253.125 274.446 253.848Z" fill="white"/>
<path d="M264.824 258.188C263.357 258.188 261.958 257.333 261.341 255.902C260.941 254.973 260.926 253.945 261.297 253.004C261.671 252.064 262.388 251.327 263.318 250.924L271.634 247.338C273.552 246.511 275.784 247.397 276.613 249.313C277.013 250.242 277.028 251.27 276.657 252.21C276.283 253.151 275.566 253.888 274.638 254.29L266.322 257.877C265.835 258.087 265.327 258.188 264.827 258.188H264.824ZM273.13 247.991C272.756 247.991 272.377 248.066 272.014 248.223L263.698 251.81C263.005 252.11 262.472 252.659 262.192 253.361C261.914 254.061 261.925 254.828 262.224 255.522C262.841 256.95 264.51 257.613 265.938 256.994L274.254 253.407C274.947 253.107 275.48 252.558 275.76 251.856C276.038 251.156 276.027 250.389 275.727 249.695C275.266 248.63 274.223 247.991 273.13 247.991Z" fill="#141414"/>
<path d="M290.724 212.337L269.657 219.095C269.657 219.095 269.185 226.844 276.803 225.151C287.522 222.769 289.698 227.102 295.362 228.627C304.592 231.109 309.455 226.046 309.455 226.046L290.724 212.339V212.337Z" fill="white"/>
<path d="M300.218 229.891C298.675 229.891 296.951 229.685 295.045 229.173C293.315 228.707 291.887 227.988 290.509 227.29C287.149 225.593 283.973 223.99 276.462 225.658C274.022 226.201 272.089 225.884 270.722 224.716C268.435 222.763 268.625 219.178 268.634 219.025C268.645 218.828 268.776 218.66 268.962 218.598L290.542 211.409C290.796 211.326 291.067 211.462 291.152 211.713C291.235 211.965 291.1 212.238 290.848 212.321L269.594 219.403C269.607 220.265 269.788 222.653 271.352 223.985C272.478 224.943 274.127 225.19 276.254 224.718C284.105 222.975 287.584 224.731 290.947 226.431C292.344 227.137 293.663 227.804 295.298 228.241C304.246 230.645 309.066 225.807 309.114 225.757C309.3 225.567 309.604 225.56 309.794 225.746C309.984 225.93 309.991 226.234 309.807 226.426C309.639 226.601 306.389 229.888 300.223 229.891H300.218Z" fill="#141414"/>
<path d="M175.264 202.66H239.932V244.58L168.548 248.702C168.548 248.702 168.547 248.702 168.547 248.702C168.349 248.712 168.152 248.718 167.958 248.718C154.213 248.618 141.364 241.859 133.499 230.576L111.777 199.402L111.776 199.402C110.312 197.306 107.972 193.582 105.901 189.243C103.842 184.928 102.066 180.04 101.657 175.554L107.969 155.178L110.455 149.707L110.461 149.693L110.467 149.679L111.592 146.743L113.38 144.327L120.74 136.967C121.176 136.913 121.855 136.98 122.783 137.263C123.802 137.574 125.075 138.134 126.572 139.016C129.561 140.776 133.413 143.803 137.874 148.634L174.852 202.443L175.001 202.66H175.264Z" fill="url(#paint3_linear_32_171)" stroke="#141414"/>
<path d="M143.172 69.2535C144.032 66.3118 145.365 63.3569 147.786 61.476C150.207 59.595 153.937 59.1336 156.279 61.1107C161.825 57.3051 169.246 56.0956 175.489 58.5933C181.735 61.0911 186.397 67.4928 186.213 74.2139C186.029 80.9328 180.56 87.304 173.863 87.912C172.795 93.7451 167.32 98.1566 161.457 99.0664C156.161 99.8866 145.899 98.115 143.795 92.3694C141.15 85.1431 141.027 76.6045 143.172 69.2535Z" fill="#141414"/>
<path d="M171.107 109.066L166.723 136.802C166.723 136.802 146.566 124.265 146.419 124.066C146.273 123.867 149.853 100.27 149.853 100.27C149.853 100.27 154.515 92.4681 171.107 109.066Z" fill="white"/>
<path d="M178.485 84.1305C178.485 84.1305 186.009 103.955 178.483 110.337C174.017 114.123 159.909 116.109 150.886 102.478C150.886 102.478 144.639 102.785 143.213 96.3982C141.788 90.0117 144.978 87.6059 150.141 92.0983C150.141 92.0983 156.388 95.2762 154.333 86.4248C153.438 82.5689 156.734 79.0542 163.943 76.9742C176.989 73.2101 175.778 76.5018 178.483 84.1305H178.485Z" fill="white"/>
<path d="M169.178 113.618C168.249 113.618 167.285 113.554 166.294 113.412C161.93 112.791 155.686 110.468 150.629 102.96C149.345 102.922 144.062 102.411 142.743 96.5032C141.989 93.1219 142.464 90.6438 144.049 89.699C145.595 88.776 147.854 89.4846 150.41 91.6937C151.018 91.9867 152.619 92.5204 153.495 91.8314C154.381 91.1359 154.508 89.3053 153.865 86.5342C152.877 82.2736 156.502 78.6211 163.81 76.5127C175.006 73.2823 176.137 75.0517 178.013 81.1341C178.275 81.9827 178.57 82.9429 178.933 83.9665C179.272 84.8588 186.473 104.191 178.791 110.706C176.941 112.275 173.421 113.62 169.176 113.62L169.178 113.618ZM150.887 101.997C151.048 101.997 151.199 102.078 151.289 102.214C156.174 109.595 162.218 111.859 166.43 112.458C171.641 113.2 176.08 111.743 178.17 109.969C185.351 103.88 178.107 84.4958 178.035 84.3011C178.035 84.2989 178.032 84.2946 178.03 84.2902C177.661 83.2469 177.361 82.2736 177.094 81.4163C175.411 75.9615 174.903 74.3146 164.079 77.4379C157.327 79.3866 153.946 82.6214 154.803 86.3177C155.549 89.5262 155.306 91.639 154.088 92.5926C152.514 93.8239 150.029 92.5816 149.922 92.5291C149.887 92.5116 149.855 92.4898 149.824 92.4635C147.62 90.5454 145.693 89.8411 144.539 90.5279C143.353 91.2344 143.032 93.3887 143.681 96.2932C145 102.196 150.624 102.008 150.863 101.997C150.869 101.997 150.878 101.997 150.884 101.997H150.887Z" fill="#141414"/>
<path d="M151.013 98.7619C150.847 98.7619 150.683 98.6745 150.596 98.5192C149.776 97.0891 148.123 96.1313 146.474 96.1313C146.467 96.1313 146.461 96.1313 146.454 96.1313C146.19 96.1313 145.973 95.917 145.973 95.6524C145.973 95.3857 146.187 95.1692 146.452 95.1692H146.474C148.486 95.1692 150.43 96.2953 151.431 98.0403C151.565 98.2721 151.484 98.5651 151.252 98.6985C151.177 98.7423 151.094 98.7619 151.013 98.7619Z" fill="#141414"/>
<path d="M147.893 116.677L146.939 116.537C146.939 116.537 148.182 108.099 149.056 102.308C149.096 102.045 149.34 101.864 149.605 101.903C149.867 101.943 150.049 102.188 150.01 102.452C149.135 108.244 147.893 116.68 147.893 116.68V116.677Z" fill="#141414"/>
<path d="M169.85 117.499C169.826 117.499 169.8 117.499 169.773 117.492C169.511 117.451 169.332 117.204 169.373 116.941L169.988 113.06C170.029 112.797 170.276 112.618 170.539 112.66C170.801 112.701 170.98 112.948 170.939 113.211L170.324 117.092C170.287 117.328 170.082 117.499 169.85 117.499Z" fill="#141414"/>
<path d="M88.8282 309.71V301.017C88.8282 298.672 87.0919 296.765 84.9577 296.765H53.9765C51.8423 296.765 50.1061 298.672 50.1061 301.017V309.71H45.3281V301.017C45.3281 295.778 49.2073 291.516 53.9765 291.516H84.9577C89.7269 291.516 93.6061 295.778 93.6061 301.017V309.71H88.8282Z" fill="#141414"/>
<path d="M87.0939 313.604H94.9682C96.8365 313.604 98.3511 312.089 98.3511 310.22V306.659C98.3511 304.791 96.8365 303.276 94.9682 303.276H87.0939C85.2257 303.276 83.7111 304.791 83.7111 306.659V310.22C83.7111 312.089 85.2257 313.604 87.0939 313.604Z" fill="white"/>
<path d="M94.9682 314.087H87.0961C84.964 314.087 83.23 312.352 83.23 310.22V306.659C83.23 304.527 84.964 302.792 87.0961 302.792H94.9682C97.1002 302.792 98.8343 304.527 98.8343 306.659V310.22C98.8343 312.352 97.1002 314.087 94.9682 314.087ZM87.0961 303.759C85.4954 303.759 84.1943 305.061 84.1943 306.662V310.222C84.1943 311.823 85.4954 313.125 87.0961 313.125H94.9682C96.5689 313.125 97.8699 311.823 97.8699 310.222V306.662C97.8699 305.061 96.5689 303.759 94.9682 303.759H87.0961Z" fill="#141414"/>
<path d="M43.9831 313.604H51.8574C53.7257 313.604 55.2402 312.089 55.2402 310.22V306.659C55.2402 304.791 53.7257 303.276 51.8574 303.276H43.9831C42.1148 303.276 40.6003 304.791 40.6003 306.659V310.22C40.6003 312.089 42.1148 313.604 43.9831 313.604Z" fill="white"/>
<path d="M51.8573 314.087H43.9852C41.8532 314.087 40.1191 312.352 40.1191 310.22V306.659C40.1191 304.527 41.8532 302.792 43.9852 302.792H51.8573C53.9894 302.792 55.7234 304.527 55.7234 306.659V310.22C55.7234 312.352 53.9894 314.087 51.8573 314.087ZM43.9852 303.759C42.3846 303.759 41.0835 305.061 41.0835 306.662V310.222C41.0835 311.823 42.3846 313.125 43.9852 313.125H51.8573C53.458 313.125 54.7591 311.823 54.7591 310.222V306.662C54.7591 305.061 53.458 303.759 51.8573 303.759H43.9852Z" fill="#141414"/>
<path d="M0.480957 399.149H120.1L112.482 307.475H11.9808L0.480957 399.149Z" fill="white"/>
<path d="M120.1 399.63H0.481105C0.343343 399.63 0.212141 399.571 0.1203 399.466C0.0284584 399.363 -0.0130889 399.226 0.00440467 399.088L11.5043 307.414C11.5349 307.173 11.7404 306.992 11.981 306.992H112.482C112.733 306.992 112.941 307.184 112.961 307.434L120.579 399.108C120.59 399.241 120.544 399.374 120.454 399.473C120.363 399.571 120.236 399.628 120.1 399.628V399.63ZM1.02778 398.668H119.575L112.038 307.956H12.4074L1.02778 398.668Z" fill="#141414"/>
<path d="M7.48948 399.63C7.47198 399.63 7.4523 399.63 7.43262 399.628C7.16803 399.597 6.97998 399.359 7.01059 399.094L12.8535 348.545C12.8841 348.28 13.1224 348.092 13.387 348.123C13.6516 348.154 13.8397 348.392 13.809 348.657L7.96618 399.206C7.93775 399.451 7.73001 399.632 7.48948 399.632V399.63Z" fill="#141414"/>
<path d="M15.1777 399.149H134.795L125.289 307.475H22.7962L15.1777 399.149Z" fill="white"/>
<path d="M134.795 399.63H15.1779C15.0423 399.63 14.9155 399.573 14.8236 399.475C14.7318 399.377 14.6859 399.243 14.699 399.11L22.3174 307.436C22.3371 307.186 22.547 306.994 22.7963 306.994H125.291C125.538 306.994 125.744 307.18 125.77 307.425L135.276 399.099C135.289 399.234 135.245 399.37 135.153 399.471C135.062 399.571 134.933 399.63 134.797 399.63H134.795ZM15.7005 398.668H134.261L124.856 307.956H23.238L15.7005 398.668Z" fill="#141414"/>
<path d="M128.86 350.931H25.0051C24.8717 350.931 24.7449 350.877 24.653 350.778C24.5612 350.682 24.5153 350.551 24.524 350.417L25.8404 330.278C25.8579 330.013 26.0787 329.812 26.3521 329.83C26.6167 329.847 26.8179 330.077 26.8004 330.341L25.5168 349.969H128.858C129.125 349.969 129.339 350.185 129.339 350.45C129.339 350.715 129.123 350.931 128.858 350.931H128.86Z" fill="#141414"/>
<path d="M65.1241 358.365H84.3364V348.598H65.1241V358.365Z" fill="white"/>
<path d="M84.3365 358.849H65.1241C64.8574 358.849 64.6431 358.632 64.6431 358.368V348.6C64.6431 348.333 64.8574 348.119 65.1241 348.119H84.3365C84.6033 348.119 84.8176 348.335 84.8176 348.6V358.368C84.8176 358.634 84.6011 358.849 84.3365 358.849ZM65.6074 357.886H83.8554V349.081H65.6074V357.886Z" fill="#141414"/>
<path d="M120.872 42.717H0.480957V94.2746H120.872V42.717Z" fill="white"/>
<path d="M121.353 94.7557H0V42.2358H121.353V94.7557ZM0.962148 93.7934H120.389V43.2004H0.962148V93.7934Z" fill="#141414"/>
<path d="M39.0304 61.8065C38.9079 61.8065 38.7855 61.7606 38.6914 61.6687C38.5012 61.4828 38.499 61.1766 38.687 60.9885L83.58 15.4478C83.7615 15.2641 84.0851 15.2641 84.2666 15.4478L100.717 32.1357L130.815 1.59883C131.001 1.40855 131.307 1.40855 131.495 1.59445C131.685 1.78036 131.687 2.08656 131.499 2.27466L101.056 33.1571C100.875 33.3408 100.551 33.3408 100.369 33.1571L83.9189 16.4692L39.3693 61.6621C39.2753 61.7584 39.1506 61.8065 39.026 61.8065H39.0304Z" fill="#141414"/>
<path d="M129.343 8.14273L128.467 7.7403L131.093 2.00342L125.394 4.71111L124.981 3.84062L133.07 0L129.343 8.14273Z" fill="#141414"/>
<path d="M39.0304 109.099C38.9123 109.099 38.7964 109.058 38.7024 108.97C38.5078 108.789 38.4947 108.484 38.6762 108.29L84.1683 59.1294C84.3498 58.9348 84.6537 58.9217 84.8483 59.1032C85.043 59.2847 85.0561 59.5887 84.8746 59.7834L39.3825 108.944C39.2884 109.047 39.1572 109.099 39.0282 109.099H39.0304Z" fill="#141414"/>
<path d="M82.1851 69.9055C82.1479 69.9055 82.1108 69.9011 82.0736 69.8923C81.8134 69.8311 81.6537 69.573 81.715 69.3127L83.8448 60.2339L74.4114 63.8842C74.1621 63.9805 73.8844 63.858 73.7882 63.6087C73.692 63.3615 73.8144 63.0816 74.0637 62.9853L84.3478 59.0047C84.5139 58.9391 84.7042 58.9741 84.8376 59.09C84.9731 59.2081 85.0322 59.3897 84.9906 59.5625L82.6509 69.5315C82.5984 69.7524 82.4016 69.9033 82.1829 69.9033L82.1851 69.9055Z" fill="#141414"/>
<path d="M236.306 381.32C236.179 381.32 236.056 381.269 235.964 381.18C235.875 381.09 235.822 380.968 235.822 380.839V314.737C235.822 314.47 236.039 314.255 236.303 314.255C236.568 314.255 236.784 314.472 236.784 314.737V380.355L389.305 380.311C389.571 380.311 389.786 380.528 389.786 380.793C389.786 381.057 389.571 381.274 389.305 381.274L236.303 381.318L236.306 381.32Z" fill="#141414"/>
<path d="M242.874 326.864C242.706 326.864 242.542 326.777 242.455 326.619L236.306 315.716L230.163 326.619C230.032 326.851 229.739 326.934 229.507 326.803C229.275 326.672 229.194 326.379 229.324 326.147L235.886 314.5C236.056 314.198 236.553 314.196 236.725 314.5L243.292 326.147C243.423 326.379 243.34 326.672 243.108 326.803C243.034 326.844 242.953 326.864 242.872 326.864H242.874Z" fill="#141414"/>
<path d="M240.106 141.239C239.839 141.239 239.625 141.023 239.625 140.758V36.4073C239.625 36.1405 239.839 35.9261 240.106 35.9261L399.917 35.843C400.044 35.843 400.168 35.8933 400.258 35.983C400.347 36.0727 400.4 36.1951 400.4 36.3242V102.426C400.4 102.693 400.186 102.907 399.919 102.907C399.652 102.907 399.438 102.691 399.438 102.426V36.8054L240.592 36.8885V140.758C240.592 141.025 240.377 141.239 240.11 141.239H240.106Z" fill="#141414"/>
<path d="M399.915 102.907C399.742 102.907 399.58 102.813 399.495 102.662L392.926 91.0158C392.795 90.784 392.878 90.4909 393.11 90.3597C393.342 90.2284 393.635 90.3115 393.766 90.5434L399.915 101.446L406.057 90.5434C406.188 90.3115 406.481 90.2284 406.713 90.3597C406.945 90.4909 407.026 90.784 406.897 91.0158L400.335 102.662C400.249 102.813 400.09 102.907 399.915 102.907Z" fill="#141414"/>
<path d="M530.367 41.1487H516.899C516.632 41.1487 516.418 40.9322 516.418 40.6676C516.418 40.403 516.632 40.1865 516.899 40.1865H530.367C530.634 40.1865 530.848 40.403 530.848 40.6676C530.848 40.9322 530.632 41.1487 530.367 41.1487Z" fill="#141414"/>
<path d="M599.519 41.1487H541.429C541.163 41.1487 540.948 40.9322 540.948 40.6676C540.948 40.403 541.165 40.1865 541.429 40.1865H599.519C599.786 40.1865 600 40.403 600 40.6676C600 40.9322 599.786 41.1487 599.519 41.1487Z" fill="#141414"/>
<path d="M563.684 53.0774H516.899C516.632 53.0774 516.418 52.8609 516.418 52.5963C516.418 52.3317 516.632 52.1152 516.899 52.1152H563.684C563.95 52.1152 564.165 52.3317 564.165 52.5963C564.165 52.8609 563.948 53.0774 563.684 53.0774Z" fill="#141414"/>
<path d="M599.519 53.0774H575.675C575.408 53.0774 575.194 52.8609 575.194 52.5963C575.194 52.3317 575.408 52.1152 575.675 52.1152H599.519C599.785 52.1152 600 52.3317 600 52.5963C600 52.8609 599.785 53.0774 599.519 53.0774Z" fill="#141414"/>
<path d="M516.899 160.493C516.632 160.493 516.418 160.276 516.418 160.011V64.5251C516.418 64.2583 516.632 64.0439 516.899 64.0439H535.23C535.497 64.0439 535.711 64.2605 535.711 64.5251C535.711 64.7898 535.497 65.0063 535.23 65.0063H517.38V160.009C517.38 160.276 517.164 160.49 516.899 160.49V160.493Z" fill="#141414"/>
<path d="M599.519 65.0061H549.66C549.393 65.0061 549.179 64.7896 549.179 64.525C549.179 64.2604 549.393 64.0439 549.66 64.0439H599.519C599.786 64.0439 600 64.2604 600 64.525C600 64.7896 599.786 65.0061 599.519 65.0061Z" fill="#141414"/>
<path d="M530.367 105.505C534.014 105.505 536.97 102.544 536.97 98.8915C536.97 95.2387 534.014 92.2776 530.367 92.2776C526.719 92.2776 523.763 95.2387 523.763 98.8915C523.763 102.544 526.719 105.505 530.367 105.505Z" fill="#141414"/>
<path d="M530.367 124.807C534.014 124.807 536.97 121.846 536.97 118.193C536.97 114.54 534.014 111.579 530.367 111.579C526.719 111.579 523.763 114.54 523.763 118.193C523.763 121.846 526.719 124.807 530.367 124.807Z" fill="white"/>
<path d="M530.366 125.288C526.459 125.288 523.279 122.106 523.279 118.193C523.279 114.28 526.459 111.098 530.366 111.098C534.274 111.098 537.451 114.28 537.451 118.193C537.451 122.106 534.272 125.288 530.366 125.288ZM530.366 112.06C526.99 112.06 524.244 114.812 524.244 118.193C524.244 121.575 526.99 124.326 530.366 124.326C533.743 124.326 536.489 121.575 536.489 118.193C536.489 114.812 533.743 112.06 530.366 112.06Z" fill="#141414"/>
<path d="M530.367 144.106C534.014 144.106 536.97 141.145 536.97 137.493C536.97 133.84 534.014 130.879 530.367 130.879C526.719 130.879 523.763 133.84 523.763 137.493C523.763 141.145 526.719 144.106 530.367 144.106Z" fill="white"/>
<path d="M530.366 144.588C526.459 144.588 523.279 141.405 523.279 137.493C523.279 133.58 526.459 130.397 530.366 130.397C534.274 130.397 537.451 133.58 537.451 137.493C537.451 141.405 534.272 144.588 530.366 144.588ZM530.366 131.36C526.99 131.36 524.244 134.111 524.244 137.493C524.244 140.874 526.99 143.625 530.366 143.625C533.743 143.625 536.489 140.874 536.489 137.493C536.489 134.111 533.743 131.36 530.366 131.36Z" fill="#141414"/>
<defs>
<linearGradient id="paint0_linear_32_171" x1="422.645" y1="306.088" x2="422.645" y2="131.123" gradientUnits="userSpaceOnUse">
<stop stop-color="#DC1D47"/>
<stop offset="1" stop-color="#E54327"/>
</linearGradient>
<linearGradient id="paint1_linear_32_171" x1="239.308" y1="220.331" x2="239.308" y2="131.32" gradientUnits="userSpaceOnUse">
<stop stop-color="#DC1D47"/>
<stop offset="1" stop-color="#E54327"/>
</linearGradient>
<linearGradient id="paint2_linear_32_171" x1="149.574" y1="283.605" x2="149.574" y2="116" gradientUnits="userSpaceOnUse">
<stop stop-color="#DC1D47"/>
<stop offset="1" stop-color="#E54327"/>
</linearGradient>
<linearGradient id="paint3_linear_32_171" x1="170.794" y1="249.22" x2="170.794" y2="136.45" gradientUnits="userSpaceOnUse">
<stop stop-color="#DC1D47"/>
<stop offset="1" stop-color="#E54327"/>
</linearGradient>
</defs>
</svg>
